<svg width="83" height="73" viewBox="0 0 83 73" fill="none" xmlns="http://www.w3.org/2000/svg">
<g clip-path="url(#clip0_660_460)">
<path d="M78.6764 72.616L78.5669 72.575C78.5429 72.5659 76.1481 71.6484 75.0263 69.568C73.9045 67.4875 74.4538 64.9826 74.4595 64.9576L74.4853 64.8435L74.5948 64.8846C74.6189 64.8936 77.0135 65.8111 78.1354 67.8915C79.2572 69.972 78.7079 72.477 78.7022 72.502L78.6764 72.616ZM75.206 69.4712C76.1544 71.2302 78.0468 72.1318 78.5263 72.3377C78.6174 71.8238 78.9033 69.7457 77.9557 67.9884C77.0083 66.2313 75.1151 65.3282 74.6354 65.1219C74.5442 65.6361 74.2584 67.714 75.206 69.4712Z" fill="#3F3D56"/>
<path d="M75.8837 68.8383C77.8997 70.0512 78.6761 72.4604 78.6761 72.4604C78.6761 72.4604 76.184 72.903 74.1679 71.6901C72.1519 70.4772 71.3755 68.0681 71.3755 68.0681C71.3755 68.0681 73.8677 67.6254 75.8837 68.8383Z" fill="#A38E23"/>
<path d="M43.4273 38.9688C43.525 38.8177 43.6536 38.6889 43.8045 38.591C43.9555 38.493 44.1254 38.428 44.3032 38.4003C44.481 38.3726 44.6627 38.3828 44.8363 38.4302C45.0099 38.4775 45.1715 38.5611 45.3106 38.6753C45.3545 38.7116 45.3957 38.751 45.4341 38.7931L50.4547 38.0622L50.7341 34.2869C50.7555 33.9972 50.8911 33.7279 51.111 33.5383C51.331 33.3486 51.6172 33.254 51.9069 33.2754C52.1965 33.2968 52.4658 33.4324 52.6555 33.6523C52.8451 33.8723 52.9397 34.1585 52.9183 34.4482C52.9178 34.4549 52.9172 34.4616 52.9166 34.4683L52.4272 39.7659L52.4248 39.7776C52.3611 39.9813 52.2335 40.159 52.0608 40.2843C51.8882 40.4096 51.6797 40.476 51.4664 40.4735L45.561 40.3715C45.5381 40.4065 45.5134 40.4403 45.487 40.4727C45.3727 40.6118 45.2304 40.7251 45.0693 40.8053C44.9082 40.8855 44.732 40.9308 44.5521 40.9382C44.3723 40.9455 44.193 40.9148 44.0259 40.848C43.8588 40.7812 43.7077 40.6799 43.5824 40.5506C43.557 40.5246 43.5329 40.4977 43.5102 40.4699C43.34 40.2604 43.2403 40.0024 43.2255 39.7328C43.2106 39.4632 43.2812 39.1959 43.4273 38.9688Z" fill="#FFB7B7"/>
<path d="M53.5493 71.1585L52.1174 71.1584L51.4362 65.6353L53.5496 65.6354L53.5493 71.1585Z" fill="#FFB7B7"/>
<path d="M53.9145 72.5463L49.2974 72.5462V72.4878C49.2974 72.0112 49.4867 71.5541 49.8238 71.2171C50.1608 70.88 50.6179 70.6907 51.0945 70.6907H51.0946L53.9146 70.6908L53.9145 72.5463Z" fill="#2F2E41"/>
<path d="M63.5553 69.8601L62.2 70.3223L59.7721 65.3148L61.7724 64.6326L63.5553 69.8601Z" fill="#FFB7B7"/>
<path d="M64.3491 71.056L59.9791 72.5465L59.9602 72.4912C59.8064 72.0401 59.838 71.5464 60.0482 71.1186C60.2584 70.6908 60.6298 70.3641 61.0809 70.2102L61.081 70.2101L63.7501 69.2998L64.3491 71.056Z" fill="#2F2E41"/>
<path d="M55.1262 22.8659C55.1262 22.8659 53.7009 22.3952 52.7847 24.278C51.8685 26.1607 50.4432 28.2318 50.4432 28.2318L51.2577 28.42C51.2577 28.42 51.4613 27.1021 51.9703 26.9138L51.7667 28.6083C51.7667 28.6083 57.8749 30.5852 60.6235 28.42L60.5217 27.7611C60.5217 27.7611 60.929 27.8552 60.929 28.42L61.2344 28.1376C61.2344 28.1376 60.929 27.5728 60.0127 26.8197C59.4113 26.3254 59.2047 25.385 59.1337 24.797C59.0774 24.2992 58.8639 23.8323 58.5243 23.4641C57.9154 22.8115 56.8059 22.118 55.1262 22.8659Z" fill="#2F2E41"/>
<path d="M55.6515 29.444C57.0891 29.444 58.2546 28.2786 58.2546 26.8409C58.2546 25.4033 57.0891 24.2378 55.6515 24.2378C54.2138 24.2378 53.0483 25.4033 53.0483 26.8409C53.0483 28.2786 54.2138 29.444 55.6515 29.444Z" fill="#FFB7B7"/>
<path d="M52.1807 31.5875L51.7074 31.4297C51.7074 31.4297 50.7608 31.8241 50.7608 32.534C50.7608 33.244 50.603 36.0838 50.603 36.0838L52.7329 36.3204L52.1807 31.5875Z" fill="#CBCBCB"/>
<path d="M60.6519 47.1036C60.4556 46.8836 60.3447 46.6005 60.3396 46.3057C60.3344 46.0109 60.4352 45.7241 60.6237 45.4973L59.295 34.3701C59.282 34.1077 59.3737 33.8508 59.5498 33.6559C59.726 33.461 59.9723 33.3439 60.2346 33.3304C60.497 33.3169 60.754 33.408 60.9493 33.5838C61.1445 33.7596 61.2621 34.0056 61.2761 34.268C61.2763 34.2716 61.2765 34.2753 61.2766 34.2789L62.4652 45.418C62.5083 45.4612 62.5481 45.5077 62.5841 45.5571C62.6794 45.6889 62.7478 45.8382 62.7855 45.9965C62.8231 46.1548 62.8292 46.319 62.8034 46.4796C62.7776 46.6402 62.7204 46.7942 62.635 46.9328C62.5497 47.0713 62.438 47.1917 62.3061 47.287C62.2925 47.2969 62.2786 47.3065 62.2645 47.3158C62.1119 47.4168 61.9388 47.4828 61.7576 47.509C61.5765 47.5352 61.3918 47.5209 61.2168 47.4673C60.9982 47.4011 60.8026 47.2751 60.6519 47.1036Z" fill="#FFB7B7"/>
<path d="M59.4349 36.0838L61.5648 35.8472C61.5648 35.8472 61.407 33.0074 61.407 32.2975C61.407 31.5875 60.4604 31.1931 60.4604 31.1931L59.9871 31.3509L59.4349 36.0838Z" fill="#CBCBCB"/>
<path d="M52.4962 40.0239C52.4962 40.0239 50.6819 43.341 50.6819 47.364C50.6819 51.387 50.5242 69.8455 50.5242 69.8455C50.5242 69.8455 52.8906 70.9498 54.3105 69.6088L55.5726 49.1783L60.5422 69.2144C60.5422 69.2144 62.9087 69.6877 64.0131 68.8989L61.8832 54.9367C61.8832 54.9367 61.0155 41.8422 58.6491 40.8956C56.2826 39.949 52.4962 40.0239 52.4962 40.0239Z" fill="#2F2E41"/>
<path d="M52.8386 26.8573C53.7601 26.1904 54.5061 25.4222 54.9995 24.5085C54.9995 24.5085 56.6907 26.3875 57.7242 26.4815C58.7577 26.5754 57.8181 24.2266 57.8181 24.2266L55.939 23.7568L54.1539 23.9447L52.7446 24.8843L52.8386 26.8573Z" fill="#2F2E41"/>
<path d="M58.2547 30.72C58.2547 30.72 58.3298 30.6796 53.8375 30.8433L51.9573 31.3611L51.7074 31.4299C51.7074 31.4299 51.944 36.1629 52.5751 37.0306C53.2062 37.8983 53.0484 38.3716 52.8906 38.4505C52.7329 38.5293 52.3385 38.3716 52.5751 38.766C52.8117 39.1604 53.1273 38.9237 52.8118 39.1604C52.4962 39.397 52.3385 40.2647 52.3385 40.2647L59.2801 41.2113C59.2801 41.2113 59.5168 38.1349 60.1478 36.5573C60.7789 34.9796 60.9366 34.3486 60.9366 34.3486L60.4634 31.1933L58.2547 30.72Z" fill="#CBCBCB"/>
<path d="M45.0571 17.2646H44.6579V6.32914C44.6579 4.65055 43.9911 3.04071 42.8042 1.85377C41.6172 0.666823 40.0074 2.70582e-06 38.3288 0L15.1606 0C13.482 -4.59985e-06 11.8721 0.666809 10.6852 1.85375C9.49825 3.04069 8.83143 4.65053 8.83142 6.32912V66.3219C8.83142 68.0004 9.49824 69.6103 10.6852 70.7972C11.8721 71.9842 13.482 72.651 15.1605 72.651H38.3288C39.1599 72.651 39.983 72.4873 40.7508 72.1692C41.5187 71.8512 42.2164 71.385 42.8042 70.7972C43.3919 70.2095 43.8581 69.5118 44.1762 68.7439C44.4942 67.976 44.6579 67.153 44.6579 66.3219V25.0486H45.0571L45.0571 17.2646Z" fill="#3F3D56"/>
<path d="M43.3109 6.37367V66.2782C43.3114 66.8983 43.1898 67.5125 42.953 68.0857C42.7162 68.6589 42.3688 69.1798 41.9307 69.6187C41.4925 70.0576 40.9722 70.4059 40.3995 70.6438C39.8268 70.8816 39.2128 71.0043 38.5926 71.0049H15.3047C14.052 71.0057 12.8502 70.5089 11.9638 69.6238C11.0774 68.7386 10.5789 67.5375 10.578 66.2848V6.37367C10.5776 5.75339 10.6993 5.1391 10.9363 4.56586C11.1732 3.99263 11.5208 3.47169 11.9591 3.03277C12.3974 2.59386 12.9178 2.24557 13.4907 2.00779C14.0636 1.77002 14.6778 1.64741 15.298 1.64697H18.1287C17.9896 1.98793 17.9365 2.35787 17.9741 2.72418C18.0117 3.09049 18.1388 3.44193 18.3442 3.74754C18.5496 4.05315 18.8271 4.30355 19.1521 4.47667C19.4771 4.64979 19.8397 4.74033 20.2079 4.74029H33.481C33.8492 4.74033 34.2118 4.64979 34.5368 4.47667C34.8618 4.30355 35.1393 4.05315 35.3447 3.74754C35.5501 3.44193 35.6772 3.09049 35.7148 2.72418C35.7524 2.35787 35.6993 1.98793 35.5602 1.64697H38.5842C39.8366 1.64585 41.0383 2.14232 41.9247 3.02715C42.8111 3.91199 43.3097 5.11272 43.3109 6.36519L43.3109 6.37367Z" fill="white"/>
<path d="M43.3108 15.2364V13.1959H40.2226V1.93877C39.6981 1.74506 39.1433 1.64626 38.5841 1.64698H38.1822V13.1959H27.4698V4.74031H25.4294V13.1959H16.4514V1.64699H15.3047C15.0048 1.64652 14.7055 1.67488 14.411 1.73167V13.1959H10.578V15.2364H14.411V19.956L10.5781 22.1688V24.5255L14.411 22.3127V36.355H10.578V38.3955H14.411V58.6979H10.578V60.7384H14.411V70.9202C14.7055 70.977 15.0048 71.0053 15.3047 71.0049H16.4514V60.7383H25.4294V71.0049H27.4698V60.7383H38.1822V71.0049H38.5841C39.1433 71.0056 39.6981 70.9068 40.2226 70.7131V60.7384H43.3108V58.6979H40.2226V49.822H43.2833V47.7815H40.2226V38.3955H43.3108V36.355H40.2226V23.9083H43.3108V21.8678H40.2226V15.2364L43.3108 15.2364ZM22.5861 15.2364L16.4515 18.7786L16.4514 15.2364H22.5861ZM16.4514 21.1343L25.4294 15.9506V36.355H16.4514V21.1343ZM16.4514 58.6979V38.3955H25.4294V58.6979H16.4514ZM38.1822 58.6979H27.4698V49.822H38.1822V58.6979ZM38.1822 47.7815H27.4698V38.3955H38.1822V47.7815ZM38.1822 36.355H27.4698V23.9083H38.1822V36.355ZM38.1822 21.8678H27.4698V15.2364H38.1822V21.8678Z" fill="#E5E5E5"/>
<path d="M40.2228 21.3953C40.2228 22.7674 39.8159 24.1087 39.0536 25.2496C38.2913 26.3904 37.2078 27.2796 35.9402 27.8047C34.6725 28.3298 33.2776 28.4672 31.9319 28.1995C30.5861 27.9318 29.35 27.2711 28.3797 26.3009C27.4095 25.3306 26.7488 24.0945 26.4811 22.7487C26.2134 21.403 26.3508 20.0081 26.8759 18.7404C27.401 17.4727 28.2902 16.3893 29.431 15.6269C30.5719 14.8646 31.9132 14.4578 33.2853 14.4578C34.1959 14.4573 35.0977 14.6363 35.9392 14.9844C36.7807 15.3325 37.5453 15.8429 38.1896 16.4865C38.8338 17.1301 39.3449 17.8943 39.6938 18.7355C40.0426 19.5767 40.2224 20.4783 40.2228 21.3889V21.3953Z" fill="white"/>
<path d="M33.2851 51.288C35.0318 51.288 36.4478 49.872 36.4478 48.1253C36.4478 46.3786 35.0318 44.9626 33.2851 44.9626C31.5384 44.9626 30.1224 46.3786 30.1224 48.1253C30.1224 49.872 31.5384 51.288 33.2851 51.288Z" fill="#A38E23"/>
<path d="M82.217 72.7126H0.191012C0.163954 72.7126 0.138004 72.7018 0.118871 72.6827C0.099738 72.6636 0.0889893 72.6376 0.0889893 72.6106C0.0889893 72.5835 0.099738 72.5576 0.118871 72.5384C0.138004 72.5193 0.163954 72.5085 0.191012 72.5085H82.217C82.2441 72.5085 82.27 72.5193 82.2891 72.5384C82.3083 72.5576 82.319 72.5835 82.319 72.6106C82.319 72.6376 82.3083 72.6636 82.2891 72.6827C82.27 72.7018 82.2441 72.7126 82.217 72.7126Z" fill="#CBCBCB"/>
<path d="M32.243 40.815C32.4085 40.935 32.6063 40.9995 32.8091 40.9995C33.0119 40.9995 33.2097 40.935 33.3753 40.815C33.672 40.598 40.6464 35.44 40.6181 29C40.6181 24.589 37.1148 21 32.8091 21C28.5034 21 25.0001 24.589 25.0001 28.996C24.9718 35.44 31.9462 40.598 32.243 40.815ZM32.8091 23C36.0391 23 38.6659 25.691 38.6659 29.004C38.6864 33.442 34.3826 37.427 32.8091 38.735C31.2366 37.427 26.9318 33.442 26.9523 29C26.9523 25.691 29.5791 23 32.8091 23Z" fill="#A38E23"/>
<path d="M31.9284 34H33.8806V31H36.809V29H33.8806V26H31.9284V29H29V31H31.9284V34Z" fill="#A38E23"/>
</g>
<defs>
<clipPath id="clip0_660_460">
<rect width="82.23" height="72.7126" fill="white" transform="translate(0.0889893)"/>
</clipPath>
</defs>
</svg>
