<svg width="24" height="24" viewBox="0 0 24 24" fill="none" xmlns="http://www.w3.org/2000/svg">
<path d="M11.1474 21.815C11.3129 21.935 11.5107 21.9995 11.7135 21.9995C11.9163 21.9995 12.1141 21.935 12.2797 21.815C12.5764 21.598 19.5508 16.44 19.5225 10C19.5225 5.589 16.0192 2 11.7135 2C7.40783 2 3.9045 5.589 3.9045 9.996C3.8762 16.44 10.8506 21.598 11.1474 21.815ZM11.7135 4C14.9435 4 17.5703 6.691 17.5703 10.004C17.5908 14.442 13.287 18.427 11.7135 19.735C10.141 18.427 5.83626 14.442 5.85676 10C5.85676 6.691 8.48352 4 11.7135 4Z" fill="#A38E23"/>
<path d="M10.7374 14H12.6897V11H15.618V9H12.6897V6H10.7374V9H7.80902V11H10.7374V14Z" fill="#A38E23"/>
</svg>
