<svg width="22" height="21" viewBox="0 0 22 21" fill="none" xmlns="http://www.w3.org/2000/svg">
<path d="M10.8546 20.2085C5.9183 20.2085 0.592712 17.0439 0.592712 10.0999C0.592712 3.15582 5.9183 -0.00878906 10.8546 -0.00878906C13.5971 -0.00878906 16.1272 0.913468 18.0026 2.59523C20.0373 4.43974 21.1166 7.04376 21.1166 10.0999C21.1166 13.156 20.0373 15.7419 18.0026 17.5864C16.1272 19.2682 13.5794 20.2085 10.8546 20.2085Z" fill="url(#paint0_radial_1049_335)"/>
<path d="M19.3278 4.09033C20.2709 5.64551 20.7627 7.49726 20.7627 9.55696C20.7627 12.6131 19.6834 15.199 17.6488 17.0435C15.7733 18.7253 13.2255 19.6656 10.5008 19.6656C7.30544 19.6656 3.95439 18.3365 1.97631 15.5173C3.88008 18.7108 7.46113 20.2081 10.8546 20.2081C13.5794 20.2081 16.1272 19.2678 18.0026 17.586C20.0373 15.7415 21.1166 13.1556 21.1166 10.0995C21.1166 7.79564 20.5026 5.74859 19.3278 4.09033Z" fill="#EB8F00"/>
<path d="M15.3487 14.6386H6.50217C6.11115 14.6386 5.79445 14.3149 5.79445 13.9152C5.79445 13.5156 6.11115 13.1919 6.50217 13.1919H15.3487C15.7397 13.1919 16.0564 13.5156 16.0564 13.9152C16.0564 14.3149 15.7397 14.6386 15.3487 14.6386Z" fill="#422B0D"/>
<path d="M7.50536 7.03271C6.76402 7.03271 6.08992 7.67287 6.08992 8.73618C6.08992 9.79949 6.76402 10.4378 7.50536 10.4378C8.2467 10.4378 8.9208 9.79768 8.9208 8.73618C8.9208 7.67468 8.2467 7.03271 7.50536 7.03271Z" fill="#422B0D"/>
<path d="M7.43637 7.74355C7.18512 7.62058 6.88257 7.72908 6.76049 7.98587C6.66672 8.18659 6.70918 8.4271 6.86665 8.58262C7.11789 8.70559 7.42044 8.59709 7.54252 8.3403C7.6363 8.13958 7.59383 7.89907 7.43637 7.74355Z" fill="#896024"/>
<path d="M14.2871 7.03271C13.5458 7.03271 12.8717 7.67287 12.8717 8.73618C12.8717 9.79949 13.5458 10.4378 14.2871 10.4378C15.0284 10.4378 15.7025 9.79768 15.7025 8.73618C15.7025 7.67468 15.032 7.03271 14.2871 7.03271Z" fill="#422B0D"/>
<path d="M14.2216 7.74355C13.9704 7.62058 13.6678 7.72908 13.5457 7.98587C13.452 8.18659 13.4944 8.4271 13.6519 8.58262C13.9031 8.70559 14.2057 8.59709 14.3278 8.3403C14.4215 8.13958 14.3791 7.89907 14.2216 7.74355Z" fill="#896024"/>
<defs>
<radialGradient id="paint0_radial_1049_335" cx="0" cy="0" r="1" gradientUnits="userSpaceOnUse" gradientTransform="translate(10.8546 10.0999) scale(10.0779 10.3003)">
<stop offset="0.5" stop-color="#FDE030"/>
<stop offset="0.92" stop-color="#F7C02B"/>
<stop offset="1" stop-color="#F4A223"/>
</radialGradient>
</defs>
</svg>
