<svg width="88" height="74" viewBox="0 0 88 74" fill="none" xmlns="http://www.w3.org/2000/svg">
<g clip-path="url(#clip0_487_1364)">
<path d="M4.08918 70.5142C5.30982 72.7945 7.90048 73.7734 7.90048 73.7734C7.90048 73.7734 8.51207 71.0552 7.29142 68.7748C6.07077 66.4945 3.48012 65.5156 3.48012 65.5156C3.48012 65.5156 2.86853 68.2339 4.08918 70.5142Z" fill="#2F2E41"/>
<path d="M4.92805 69.764C7.13182 71.0996 7.98057 73.7524 7.98057 73.7524C7.98057 73.7524 5.25629 74.2398 3.05252 72.9042C0.848743 71.5687 0 68.9158 0 68.9158C0 68.9158 2.72428 68.4284 4.92805 69.764Z" fill="#A38E23"/>
<path d="M54.3369 3.55251H40.5869V3.75037H54.3369V3.55251Z" fill="#F2F2F2"/>
<path d="M50.6049 3.70091H50.4084V5.5312H50.6049V3.70091Z" fill="#F2F2F2"/>
<path d="M44.6137 3.70091H44.4172V5.5312H44.6137V3.70091Z" fill="#F2F2F2"/>
<path d="M61.3101 13.0502H47.5601V13.2481H61.3101V13.0502Z" fill="#F2F2F2"/>
<path d="M51.4887 11.2694H51.2922V13.0997H51.4887V11.2694Z" fill="#F2F2F2"/>
<path d="M57.4799 11.2694H57.2834V13.0997H57.4799V11.2694Z" fill="#F2F2F2"/>
<path d="M79.5779 17.5022H65.8279V17.7001H79.5779V17.5022Z" fill="#F2F2F2"/>
<path d="M69.7565 15.7214H69.5601V17.5517H69.7565V15.7214Z" fill="#F2F2F2"/>
<path d="M75.7477 15.7214H75.5513V17.5517H75.7477V15.7214Z" fill="#F2F2F2"/>
<path d="M78.2029 63.4077H64.4529V63.6056H78.2029V63.4077Z" fill="#F2F2F2"/>
<path d="M68.3815 61.6269H68.1851V63.4572H68.3815V61.6269Z" fill="#F2F2F2"/>
<path d="M74.3727 61.6269H74.1763V63.4572H74.3727V61.6269Z" fill="#F2F2F2"/>
<path d="M54.7297 31.6498H40.9797V31.8477H54.7297V31.6498Z" fill="#F2F2F2"/>
<path d="M44.9083 29.869H44.7119V31.6993H44.9083V29.869Z" fill="#F2F2F2"/>
<path d="M50.8993 29.869H50.7029V31.6993H50.8993V29.869Z" fill="#F2F2F2"/>
<path d="M59.0513 55.493H45.3013V55.6909H59.0513V55.493Z" fill="#F2F2F2"/>
<path d="M49.2299 53.7122H49.0334V55.5425H49.2299V53.7122Z" fill="#F2F2F2"/>
<path d="M55.2208 53.7122H55.0244V55.5425H55.2208V53.7122Z" fill="#F2F2F2"/>
<path d="M81.0513 48.2708H67.3013V48.4687H81.0513V48.2708Z" fill="#F2F2F2"/>
<path d="M71.2299 46.49H71.0334V48.3203H71.2299V46.49Z" fill="#F2F2F2"/>
<path d="M77.2208 46.49H77.0244V48.3203H77.2208V46.49Z" fill="#F2F2F2"/>
<path d="M35.5595 69.47H12.3037V69.3016H35.3921V61.1276H14.2588L13.2321 58.9731L13.383 58.9002L14.364 60.959H35.5595V69.47Z" fill="#2F2E41"/>
<path d="M15.3988 73.5992C16.369 73.5992 17.1556 72.8069 17.1556 71.8295C17.1556 70.8522 16.369 70.0599 15.3988 70.0599C14.4286 70.0599 13.6421 70.8522 13.6421 71.8295C13.6421 72.8069 14.4286 73.5992 15.3988 73.5992Z" fill="#3F3D56"/>
<path d="M32.7152 73.5992C33.6854 73.5992 34.472 72.8069 34.472 71.8295C34.472 70.8522 33.6854 70.0599 32.7152 70.0599C31.745 70.0599 30.9585 70.8522 30.9585 71.8295C30.9585 72.8069 31.745 73.5992 32.7152 73.5992Z" fill="#3F3D56"/>
<path d="M53.1268 35.3419C53.7274 35.3419 54.2143 34.8514 54.2143 34.2464C54.2143 33.6414 53.7274 33.1509 53.1268 33.1509C52.5262 33.1509 52.0393 33.6414 52.0393 34.2464C52.0393 34.8514 52.5262 35.3419 53.1268 35.3419Z" fill="#3F3D56"/>
<path d="M38.0468 58.3468H11.9072L6.25122 39.7238H43.8716L43.8374 39.8333L38.0468 58.3468ZM12.031 58.1783H37.9241L43.6435 39.8923H6.47735L12.031 58.1783Z" fill="#2F2E41"/>
<path d="M36.0063 57.3777H13.047L8.0791 40.8613H41.1224L41.0924 40.9586L36.0063 57.3777Z" fill="#F2F2F2"/>
<path d="M44.3402 38.06L44.1785 38.0168L45.2825 33.825H51.7046V33.9936H45.4113L44.3402 38.06Z" fill="#2F2E41"/>
<path d="M41.9916 45.3697H8.07886V45.5382H41.9916V45.3697Z" fill="#2F2E41"/>
<path d="M40.0495 51.5788H9.9646V51.7473H40.0495V51.5788Z" fill="#2F2E41"/>
<path d="M25.1446 39.808H24.9773V58.2625H25.1446V39.808Z" fill="#2F2E41"/>
<path d="M32.6353 39.8027L31.4343 58.2568L31.6013 58.2678L32.8023 39.8138L32.6353 39.8027Z" fill="#2F2E41"/>
<path d="M17.49 39.8025L17.323 39.8135L18.517 58.268L18.684 58.257L17.49 39.8025Z" fill="#2F2E41"/>
<path d="M88 73.706H0V73.9039H88V73.706Z" fill="#2F2E41"/>
<path d="M58.4778 6.12165C58.4778 6.12165 59.9135 10.2379 59.03 10.8712C58.1465 11.5045 62.0119 16.6762 62.0119 16.6762L66.6504 15.4097L64.1103 11.0823C64.1103 11.0823 63.779 6.75492 63.779 6.12165C63.779 5.48837 58.4778 6.12165 58.4778 6.12165Z" fill="#A0616A"/>
<path opacity="0.1" d="M58.4778 6.12165C58.4778 6.12165 59.9135 10.2379 59.03 10.8712C58.1465 11.5045 62.0119 16.6762 62.0119 16.6762L66.6504 15.4097L64.1103 11.0823C64.1103 11.0823 63.779 6.75492 63.779 6.12165C63.779 5.48837 58.4778 6.12165 58.4778 6.12165Z" fill="black"/>
<path d="M56.0679 35.4634C56.0679 35.4634 55.6488 40.7407 56.0679 43.4849C56.487 46.229 57.1156 53.8283 57.1156 53.8283C57.1156 53.8283 57.1156 68.1826 59.4208 68.3937C61.7259 68.6048 63.4023 68.8158 63.6119 67.9715C63.8214 67.1271 62.5641 66.7049 63.1927 66.2827C63.8214 65.8606 64.031 64.3829 63.1927 62.6942C62.3545 61.0055 63.1927 43.907 63.1927 43.907L67.1743 54.6727C67.1743 54.6727 67.5934 63.5386 68.0125 64.8051C68.4316 66.0717 67.5934 68.3937 69.0603 68.6048C70.5272 68.8158 72.2036 67.5493 73.0419 67.1271C73.8801 66.7049 71.7845 66.7049 72.2036 66.4938C72.6227 66.2827 73.8801 65.6495 73.461 65.4384C73.0418 65.2273 72.6227 55.0949 72.6227 55.0949C72.6227 55.0949 71.4702 33.458 70.0033 32.6136C68.5364 31.7693 67.5934 33.2236 67.5934 33.2236L56.0679 35.4634Z" fill="#2F2E41"/>
<path d="M59.8399 67.5493V69.238C59.8399 69.238 57.9539 73.8285 59.8399 73.8285C61.7259 73.8285 63.1928 74.3042 63.1928 73.671V67.9715L59.8399 67.5493Z" fill="#2F2E41"/>
<path d="M72.2037 67.5463V69.235C72.2037 69.235 74.0897 73.8255 72.2037 73.8255C70.3177 73.8255 68.8508 74.3012 68.8508 73.668V67.9685L72.2037 67.5463Z" fill="#2F2E41"/>
<path d="M61.4116 9.18249C63.4949 9.18249 65.1836 7.48133 65.1836 5.38284C65.1836 3.28435 63.4949 1.58319 61.4116 1.58319C59.3284 1.58319 57.6396 3.28435 57.6396 5.38284C57.6396 7.48133 59.3284 9.18249 61.4116 9.18249Z" fill="#A0616A"/>
<path d="M60.259 12.4544C60.259 12.4544 61.3067 15.6208 62.9832 14.9875L64.6596 14.3542L67.5934 34.619C67.5934 34.619 65.2883 37.9965 61.9354 35.8856C58.5825 33.7747 60.259 12.4544 60.259 12.4544Z" fill="#A38E23"/>
<path d="M63.1929 11.8211L64.1359 9.81577C64.1359 9.81577 69.6891 12.4544 70.5273 13.2988C71.3655 14.1431 71.3655 15.4097 71.3655 15.4097L69.8986 20.687C69.8986 20.687 70.3178 32.297 70.3178 32.7192C70.3178 33.1414 71.7846 35.4634 70.7369 34.619C69.6891 33.7747 69.4795 32.9303 68.6413 34.1968C67.8031 35.4634 65.9171 36.941 65.9171 36.941L63.1929 11.8211Z" fill="#3F3D56"/>
<path d="M70.5272 27.0197L69.8986 32.9303C69.8986 32.9303 66.1266 36.3077 66.9648 36.5188C67.803 36.7299 68.2221 35.8856 68.2221 35.8856C68.2221 35.8856 69.689 37.3632 70.5272 36.5188C71.3655 35.6745 73.461 27.653 73.461 27.653L70.5272 27.0197Z" fill="#A0616A"/>
<path d="M61.4919 0.0128487C60.6556 -0.0172639 59.7608 -0.0321596 59.0557 0.421765C58.7314 0.64957 58.4468 0.930134 58.2138 1.25197C57.5271 2.1264 56.9338 3.22663 57.1889 4.31155L57.4851 4.19517C57.4851 4.48477 57.4212 4.77074 57.298 5.03241C57.3398 4.91021 57.4795 5.10775 57.4421 5.23135L57.1157 6.3098C57.6522 6.1117 58.3195 6.5128 58.4012 7.08245C58.4385 5.82982 58.5675 4.39345 59.5762 3.65998C60.0849 3.2901 60.7287 3.17718 61.3481 3.07691C61.9196 2.98441 62.5186 2.8962 63.066 3.08571C63.6133 3.27521 64.0794 3.83909 63.9553 4.40855C64.2077 4.32097 64.49 4.49815 64.6147 4.73588C64.7394 4.97361 64.746 5.25405 64.7497 5.52291C65.0188 5.71443 65.3249 5.33412 65.4346 5.0212C65.6919 4.28668 65.9207 3.50479 65.782 2.73849C65.6434 1.97218 65.0235 1.23986 64.2502 1.23726C64.3441 1.13341 64.3942 0.996861 64.3899 0.856488L63.7525 0.802243C63.9143 0.779164 64.0631 0.700137 64.1734 0.578696C63.9176 0.862334 61.9057 0.0277492 61.4919 0.0128487Z" fill="#2F2E41"/>
<path d="M61.3069 11.1879C61.3069 11.1879 59.601 9.50391 58.987 9.60706C58.3731 9.71021 57.5349 11.1879 57.5349 11.1879C57.5349 11.1879 52.5056 12.8766 52.7151 14.5653C52.9247 16.2541 55.2298 24.4866 55.2298 24.4866C55.2298 24.4866 57.1158 34.4079 55.4393 35.4634C53.7629 36.5188 63.4024 39.263 63.612 37.9965C63.8215 36.7299 64.2407 24.0644 63.612 22.1646C62.9833 20.2648 61.3069 11.1879 61.3069 11.1879Z" fill="#3F3D56"/>
<path d="M68.6414 14.5653H71.2325C71.2325 14.5653 73.042 22.5868 73.2516 23.4312C73.4611 24.2755 73.8802 28.2863 73.6707 28.2863C73.4611 28.2863 69.27 27.4419 69.27 28.0752L68.6414 14.5653Z" fill="#3F3D56"/>
<path d="M68.5535 34.4291H58.6338C57.6658 29.9434 57.585 25.6095 58.6338 21.4687H68.5535C66.9527 25.535 66.8526 29.8393 68.5535 34.4291Z" fill="#F2F2F2"/>
<path d="M54.6011 28.9195L57.5348 30.1861C57.5348 30.1861 63.1928 31.0305 63.1928 28.7085C63.1928 26.3865 57.5348 27.653 57.5348 27.653L55.6487 27.0455L54.6011 28.9195Z" fill="#A0616A"/>
<path d="M55.2298 13.2988L52.7151 13.932L50.8291 25.1199C50.8291 25.1199 50.2005 28.0752 51.2482 28.2863C52.296 28.4974 55.2298 30.1861 55.2298 30.1861C55.2298 30.1861 55.6489 27.0197 56.4871 27.0197L54.3916 25.331L55.6489 17.9428L55.2298 13.2988Z" fill="#3F3D56"/>
<path d="M19.6672 34.9147H5.91724V35.1125H19.6672V34.9147Z" fill="#F2F2F2"/>
<path d="M9.84584 33.1339H9.64941V34.9641H9.84584V33.1339Z" fill="#F2F2F2"/>
<path d="M15.8368 33.1339H15.6404V34.9641H15.8368V33.1339Z" fill="#F2F2F2"/>
<path d="M24.4797 5.63013H10.7297V5.828H24.4797V5.63013Z" fill="#F2F2F2"/>
<path d="M20.7477 5.77853H20.5513V7.60882H20.7477V5.77853Z" fill="#F2F2F2"/>
<path d="M14.7565 5.77853H14.5601V7.60882H14.7565V5.77853Z" fill="#F2F2F2"/>
<path d="M38.3279 25.1202H24.5779V25.318H38.3279V25.1202Z" fill="#F2F2F2"/>
<path d="M34.5958 25.2686H34.3994V27.0989H34.5958V25.2686Z" fill="#F2F2F2"/>
<path d="M28.6049 25.2686H28.4084V27.0989H28.6049V25.2686Z" fill="#F2F2F2"/>
<path d="M14.9529 25.0212H1.20288V25.2191H14.9529V25.0212Z" fill="#F2F2F2"/>
<path d="M11.2208 25.1696H11.0244V26.9999H11.2208V25.1696Z" fill="#F2F2F2"/>
<path d="M5.22988 25.1696H5.03345V26.9999H5.22988V25.1696Z" fill="#F2F2F2"/>
<path d="M31.4529 15.1278H17.7029V15.3257H31.4529V15.1278Z" fill="#F2F2F2"/>
<path d="M21.6315 13.347H21.4351V15.1773H21.6315V13.347Z" fill="#F2F2F2"/>
<path d="M27.6227 13.347H27.4263V15.1773H27.6227V13.347Z" fill="#F2F2F2"/>
</g>
<defs>
<clipPath id="clip0_487_1364">
<rect width="88" height="74" fill="white"/>
</clipPath>
</defs>
</svg>
