<svg width="22" height="25" viewBox="0 0 22 25" fill="none" xmlns="http://www.w3.org/2000/svg">
<path d="M21.2891 23.4377H20.3125V1.17203C20.3125 0.524811 19.7878 0.000152588 19.1406 0.000152588H2.73438C2.08716 0.000152588 1.5625 0.524811 1.5625 1.17203V23.4377H0.585938C0.262354 23.4377 0 23.7 0 24.0236V25.0002H21.875V24.0236C21.875 23.7 21.6126 23.4377 21.2891 23.4377ZM6.25 3.71109C6.25 3.38751 6.51235 3.12515 6.83594 3.12515H8.78906C9.11265 3.12515 9.375 3.38751 9.375 3.71109V5.66422C9.375 5.9878 9.11265 6.25015 8.78906 6.25015H6.83594C6.51235 6.25015 6.25 5.9878 6.25 5.66422V3.71109ZM6.25 8.39859C6.25 8.07501 6.51235 7.81265 6.83594 7.81265H8.78906C9.11265 7.81265 9.375 8.07501 9.375 8.39859V10.3517C9.375 10.6753 9.11265 10.9377 8.78906 10.9377H6.83594C6.51235 10.9377 6.25 10.6753 6.25 10.3517V8.39859ZM8.78906 15.6252H6.83594C6.51235 15.6252 6.25 15.3628 6.25 15.0392V13.0861C6.25 12.7625 6.51235 12.5002 6.83594 12.5002H8.78906C9.11265 12.5002 9.375 12.7625 9.375 13.0861V15.0392C9.375 15.3628 9.11265 15.6252 8.78906 15.6252ZM12.5 23.4377H9.375V19.3361C9.375 19.0125 9.63735 18.7502 9.96094 18.7502H11.9141C12.2376 18.7502 12.5 19.0125 12.5 19.3361V23.4377ZM15.625 15.0392C15.625 15.3628 15.3626 15.6252 15.0391 15.6252H13.0859C12.7624 15.6252 12.5 15.3628 12.5 15.0392V13.0861C12.5 12.7625 12.7624 12.5002 13.0859 12.5002H15.0391C15.3626 12.5002 15.625 12.7625 15.625 13.0861V15.0392ZM15.625 10.3517C15.625 10.6753 15.3626 10.9377 15.0391 10.9377H13.0859C12.7624 10.9377 12.5 10.6753 12.5 10.3517V8.39859C12.5 8.07501 12.7624 7.81265 13.0859 7.81265H15.0391C15.3626 7.81265 15.625 8.07501 15.625 8.39859V10.3517ZM15.625 5.66422C15.625 5.9878 15.3626 6.25015 15.0391 6.25015H13.0859C12.7624 6.25015 12.5 5.9878 12.5 5.66422V3.71109C12.5 3.38751 12.7624 3.12515 13.0859 3.12515H15.0391C15.3626 3.12515 15.625 3.38751 15.625 3.71109V5.66422Z" fill="#A38E23"/>
</svg>
