<svg width="28" height="32" viewBox="0 0 28 32" fill="none" xmlns="http://www.w3.org/2000/svg">
<path d="M24.8886 29.8714V30.8629H16.9314V29.8714V24.6439C16.9314 23.6792 16.1493 22.8971 15.1846 22.8971H12.6954C11.7307 22.8971 10.9486 23.6792 10.9486 24.6439V29.8714V30.8629H2.99143V29.8714V1.49357C2.99143 1.22097 3.2124 1 3.485 1H24.395C24.6676 1 24.8886 1.22097 24.8886 1.49357V29.8714ZM8.7125 2.98286C7.7478 2.98286 6.96571 3.76495 6.96571 4.72964V7.21893C6.96571 8.14217 7.68203 8.89816 8.58919 8.96143C7.68203 9.0247 6.96571 9.78069 6.96571 10.7039V13.1932C6.96571 14.1165 7.68203 14.8724 8.58919 14.9357C7.68203 14.999 6.96571 15.755 6.96571 16.6782V19.1675C6.96571 20.1322 7.7478 20.9143 8.7125 20.9143H11.2018C12.1665 20.9143 12.9486 20.1322 12.9486 19.1675V16.6782C12.9486 15.755 12.2323 14.999 11.3251 14.9357C12.2323 14.8724 12.9486 14.1165 12.9486 13.1932V10.7039C12.9486 9.78069 12.2323 9.0247 11.3251 8.96143C12.2323 8.89816 12.9486 8.14217 12.9486 7.21893V4.72964C12.9486 3.76495 12.1665 2.98286 11.2018 2.98286H8.7125ZM19.1675 20.9143C20.1322 20.9143 20.9143 20.1322 20.9143 19.1675V16.6782C20.9143 15.755 20.198 14.999 19.2908 14.9357C20.198 14.8724 20.9143 14.1165 20.9143 13.1932V10.7039C20.9143 9.78069 20.198 9.0247 19.2908 8.96143C20.198 8.89816 20.9143 8.14217 20.9143 7.21893V4.72964C20.9143 3.76495 20.1322 2.98286 19.1675 2.98286H16.6782C15.7135 2.98286 14.9314 3.76495 14.9314 4.72964V7.21893C14.9314 8.14217 15.6477 8.89816 16.5549 8.96143C15.6477 9.0247 14.9314 9.78069 14.9314 10.7039V13.1932C14.9314 14.1165 15.6477 14.8724 16.5549 14.9357C15.6477 14.999 14.9314 15.755 14.9314 16.6782V19.1675C14.9314 20.1322 15.7135 20.9143 16.6782 20.9143H19.1675Z" fill="white" stroke="#BBAA52" stroke-width="2"/>
</svg>
