<svg width="18" height="18" viewBox="0 0 18 18" fill="none" xmlns="http://www.w3.org/2000/svg">
<path d="M9.77423 12.8147C9.77553 13.1859 9.92356 13.5415 10.186 13.804C10.4485 14.0664 10.8041 14.2145 11.1753 14.2158H12.8216C13.1928 14.2145 13.5484 14.0664 13.8109 13.804C14.0733 13.5415 14.2214 13.1859 14.2227 12.8147V11.1683C14.2216 10.7972 14.0737 10.4415 13.8114 10.1789C13.549 9.91629 13.1935 9.76808 12.8223 9.7666H11.176C10.8047 9.76771 10.4489 9.91565 10.1863 10.1781C9.92364 10.4406 9.77553 10.7963 9.77423 11.1676V12.8147ZM11.1753 11.1683H12.8216V12.8147H11.1739L11.1753 11.1683Z" fill="#3F454A" fill-opacity="0.68"/>
<path d="M13.3565 8.49849C13.7448 8.49849 14.0595 8.18375 14.0595 7.79551C14.0595 7.40726 13.7448 7.09253 13.3565 7.09253C12.9683 7.09253 12.6536 7.40726 12.6536 7.79551C12.6536 8.18375 12.9683 8.49849 13.3565 8.49849Z" fill="#3F454A" fill-opacity="0.68"/>
<path d="M10.5446 8.49849C10.9329 8.49849 11.2476 8.18375 11.2476 7.79551C11.2476 7.40726 10.9329 7.09253 10.5446 7.09253C10.1564 7.09253 9.84164 7.40726 9.84164 7.79551C9.84164 8.18375 10.1564 8.49849 10.5446 8.49849Z" fill="#3F454A" fill-opacity="0.68"/>
<path d="M17.2363 12.3945C17.4228 12.3945 17.6016 12.3204 17.7334 12.1886C17.8652 12.0567 17.9393 11.8779 17.9393 11.6915V4.26662C17.9386 3.52351 17.643 2.81104 17.1176 2.28558C16.5921 1.76012 15.8796 1.46459 15.1365 1.46385H14.2227V0.765791C14.2314 0.66857 14.2198 0.570598 14.1885 0.478115C14.1573 0.385632 14.1072 0.300664 14.0413 0.228625C13.9754 0.156585 13.8953 0.0990524 13.806 0.0596904C13.7166 0.0203284 13.6201 0 13.5225 0C13.4249 0 13.3283 0.0203284 13.239 0.0596904C13.1497 0.0990524 13.0695 0.156585 13.0037 0.228625C12.9378 0.300664 12.8877 0.385632 12.8564 0.478115C12.8252 0.570598 12.8136 0.66857 12.8223 0.765791V1.46877H9.6308V0.765791C9.61606 0.590139 9.53588 0.426433 9.40613 0.307115C9.27639 0.187798 9.10655 0.121577 8.93028 0.121577C8.75401 0.121577 8.58418 0.187798 8.45443 0.307115C8.32468 0.426433 8.2445 0.590139 8.22976 0.765791V1.46877H5.07972V0.765791C5.08785 0.668862 5.07578 0.571301 5.04426 0.479278C5.01275 0.387255 4.96248 0.302773 4.89664 0.231176C4.8308 0.15958 4.75081 0.102426 4.66175 0.0633308C4.57268 0.0242355 4.47647 0.00404948 4.3792 0.00404948C4.28193 0.00404948 4.18572 0.0242355 4.09665 0.0633308C4.00759 0.102426 3.9276 0.15958 3.86176 0.231176C3.79592 0.302773 3.74565 0.387255 3.71414 0.479278C3.68263 0.571301 3.67055 0.668862 3.67868 0.765791V1.46877H2.80277C2.06051 1.46951 1.34879 1.76436 0.82347 2.28876C0.29815 2.81316 0.00204546 3.52436 0 4.26662L0 15.1972C0.000744416 15.9403 0.296275 16.6528 0.821736 17.1783C1.3472 17.7037 2.05966 17.9993 2.80277 18H15.1344C15.8775 17.9993 16.59 17.7037 17.1155 17.1783C17.6409 16.6528 17.9364 15.9403 17.9372 15.1972C17.9453 15.1003 17.9332 15.0027 17.9017 14.9107C17.8702 14.8187 17.82 14.7342 17.7541 14.6626C17.6883 14.591 17.6083 14.5339 17.5192 14.4948C17.4301 14.4557 17.3339 14.4355 17.2367 14.4355C17.1394 14.4355 17.0432 14.4557 16.9541 14.4948C16.8651 14.5339 16.7851 14.591 16.7192 14.6626C16.6534 14.7342 16.6031 14.8187 16.5716 14.9107C16.5401 15.0027 16.528 15.1003 16.5362 15.1972C16.5349 15.5684 16.3868 15.924 16.1244 16.1865C15.8619 16.4489 15.5063 16.597 15.1351 16.5983H2.80277C2.43159 16.597 2.07599 16.4489 1.81352 16.1865C1.55106 15.924 1.40304 15.5684 1.40174 15.1972V4.26662C1.40304 3.89544 1.55106 3.53984 1.81352 3.27737C2.07599 3.01491 2.43159 2.86688 2.80277 2.86559H3.67868V3.56856C3.67055 3.66549 3.68263 3.76305 3.71414 3.85508C3.74565 3.9471 3.79592 4.03158 3.86176 4.10318C3.9276 4.17478 4.00759 4.23193 4.09665 4.27102C4.18572 4.31012 4.28193 4.33031 4.3792 4.33031C4.47647 4.33031 4.57268 4.31012 4.66175 4.27102C4.75081 4.23193 4.8308 4.17478 4.89664 4.10318C4.96248 4.03158 5.01275 3.9471 5.04426 3.85508C5.07578 3.76305 5.08785 3.66549 5.07972 3.56856V2.86559H8.23258V3.56856C8.22444 3.66549 8.23652 3.76305 8.26803 3.85508C8.29954 3.9471 8.34981 4.03158 8.41565 4.10318C8.4815 4.17478 8.56148 4.23193 8.65055 4.27102C8.73961 4.31012 8.83582 4.33031 8.93309 4.33031C9.03036 4.33031 9.12657 4.31012 9.21564 4.27102C9.30471 4.23193 9.38469 4.17478 9.45053 4.10318C9.51638 4.03158 9.56664 3.9471 9.59816 3.85508C9.62967 3.76305 9.64174 3.66549 9.63361 3.56856V2.86559H12.8223V3.56856C12.8142 3.66549 12.8263 3.76305 12.8578 3.85508C12.8893 3.9471 12.9396 4.03158 13.0054 4.10318C13.0712 4.17478 13.1512 4.23193 13.2403 4.27102C13.3294 4.31012 13.4256 4.33031 13.5228 4.33031C13.6201 4.33031 13.7163 4.31012 13.8054 4.27102C13.8944 4.23193 13.9744 4.17478 14.0403 4.10318C14.1061 4.03158 14.1564 3.9471 14.1879 3.85508C14.2194 3.76305 14.2315 3.66549 14.2234 3.56856V2.86559H15.1372C15.5079 2.86762 15.8628 3.01597 16.1247 3.27836C16.3865 3.54074 16.5342 3.89593 16.5354 4.26662V11.6936C16.536 11.8793 16.61 12.0572 16.7413 12.1886C16.8727 12.3199 17.0506 12.3939 17.2363 12.3945Z" fill="#3F454A" fill-opacity="0.68"/>
<path d="M4.21787 14.1223C4.60611 14.1223 4.92085 13.8075 4.92085 13.4193C4.92085 13.031 4.60611 12.7163 4.21787 12.7163C3.82963 12.7163 3.51489 13.031 3.51489 13.4193C3.51489 13.8075 3.82963 14.1223 4.21787 14.1223Z" fill="#3F454A" fill-opacity="0.68"/>
<path d="M4.21787 8.49849C4.60611 8.49849 4.92085 8.18375 4.92085 7.79551C4.92085 7.40726 4.60611 7.09253 4.21787 7.09253C3.82963 7.09253 3.51489 7.40726 3.51489 7.79551C3.51489 8.18375 3.82963 8.49849 4.21787 8.49849Z" fill="#3F454A" fill-opacity="0.68"/>
<path d="M4.21787 11.3105C4.60611 11.3105 4.92085 10.9958 4.92085 10.6075C4.92085 10.2193 4.60611 9.90454 4.21787 9.90454C3.82963 9.90454 3.51489 10.2193 3.51489 10.6075C3.51489 10.9958 3.82963 11.3105 4.21787 11.3105Z" fill="#3F454A" fill-opacity="0.68"/>
<path d="M7.73273 11.3105C8.12098 11.3105 8.43571 10.9958 8.43571 10.6075C8.43571 10.2193 8.12098 9.90454 7.73273 9.90454C7.34449 9.90454 7.02975 10.2193 7.02975 10.6075C7.02975 10.9958 7.34449 11.3105 7.73273 11.3105Z" fill="#3F454A" fill-opacity="0.68"/>
<path d="M7.73273 8.49849C8.12098 8.49849 8.43571 8.18375 8.43571 7.79551C8.43571 7.40726 8.12098 7.09253 7.73273 7.09253C7.34449 7.09253 7.02975 7.40726 7.02975 7.79551C7.02975 8.18375 7.34449 8.49849 7.73273 8.49849Z" fill="#3F454A" fill-opacity="0.68"/>
<path d="M7.73273 14.1223C8.12098 14.1223 8.43571 13.8075 8.43571 13.4193C8.43571 13.031 8.12098 12.7163 7.73273 12.7163C7.34449 12.7163 7.02975 13.031 7.02975 13.4193C7.02975 13.8075 7.34449 14.1223 7.73273 14.1223Z" fill="#3F454A" fill-opacity="0.68"/>
</svg>
