<svg width="153" height="153" viewBox="0 0 153 153" fill="none" xmlns="http://www.w3.org/2000/svg">
<circle cx="76.5" cy="76.5" r="76" fill="white" stroke="url(#paint0_linear_811_290)"/>
<rect width="97" height="97" transform="translate(27.7457 30.2556) rotate(-0.301222)" fill="white"/>
<path d="M99.5718 79.5627C99.1948 79.189 98.7478 78.8933 98.2565 78.6926C97.7651 78.4918 97.2389 78.3899 96.7081 78.3927C96.1773 78.3955 95.6523 78.5029 95.1631 78.7088C94.6738 78.9147 94.23 79.2151 93.8569 79.5927L87.4485 86.0689C84.4571 85.1955 78.8731 83.204 75.3221 79.6902C71.7712 76.1764 69.7211 70.6136 68.8162 67.6315L75.2247 61.1553C75.5984 60.7783 75.894 60.3314 76.0948 59.84C76.2956 59.3486 76.3975 58.8225 76.3947 58.2917C76.3919 57.7609 76.2844 57.2358 76.0785 56.7466C75.8726 56.2574 75.5723 55.8135 75.1946 55.4405L58.9432 39.359C58.5662 38.9854 58.1192 38.6897 57.6279 38.4889C57.1365 38.2882 56.6104 38.1863 56.0796 38.1891C55.5488 38.1919 55.0237 38.2993 54.5345 38.5052C54.0452 38.7111 53.6014 39.0115 53.2284 39.3891L42.3251 50.4076C40.7974 51.9515 39.9436 54.0657 39.9873 56.2197C40.1105 61.9745 41.7392 81.9563 57.5763 97.6277C73.4133 113.299 93.4111 114.714 99.1709 114.78L99.2841 114.78C101.418 114.768 103.43 113.917 104.95 112.381L115.853 101.363C116.227 100.986 116.523 100.539 116.723 100.048C116.924 99.5563 117.026 99.0301 117.023 98.4993C117.02 97.9685 116.913 97.4435 116.707 96.9543C116.501 96.465 116.201 96.0212 115.823 95.6482L99.5718 79.5627ZM99.2011 106.693C94.1567 106.634 76.892 105.371 63.261 91.8787C49.5855 78.3462 48.1768 61.0348 48.07 56.0924L56.1309 47.9463L66.6374 58.343L61.4391 63.5963C60.9665 64.0734 60.6203 64.6609 60.4318 65.3054C60.2432 65.95 60.2183 66.6314 60.3591 67.288C60.4586 67.7523 62.8889 78.7613 69.6333 85.4351C76.3776 92.1089 87.4116 94.4233 87.8769 94.5179C88.5346 94.6557 89.2164 94.6259 89.8595 94.4311C90.5026 94.2363 91.0864 93.8828 91.5571 93.4033L96.7594 88.15L107.266 98.5466L99.2011 106.693Z" fill="url(#paint1_linear_811_290)"/>
<defs>
<linearGradient id="paint0_linear_811_290" x1="76.5" y1="0" x2="76.5" y2="153" gradientUnits="userSpaceOnUse">
<stop stop-color="#BBAA52"/>
<stop offset="1" stop-color="#BBAA52" stop-opacity="0.15"/>
</linearGradient>
<linearGradient id="paint1_linear_811_290" x1="93" y1="166" x2="79" y2="14" gradientUnits="userSpaceOnUse">
<stop stop-color="#BBAA52"/>
<stop offset="1" stop-color="#BBAA52" stop-opacity="0"/>
</linearGradient>
</defs>
</svg>
