<svg width="25" height="21" viewBox="0 0 25 21" fill="none" xmlns="http://www.w3.org/2000/svg">
<path d="M22.787 0.0130956H0V2.41173H2.75843L6.6922 13.2056C6.93963 13.9055 7.39748 14.5117 8.00297 14.9411C8.60847 15.3705 9.33196 15.6021 10.0743 15.6042H20.3884V13.2056H10.0743C9.8278 13.2055 9.58734 13.1294 9.38562 12.9878C9.1839 12.8462 9.03072 12.6458 8.94691 12.414L8.39523 10.807H19.5249C20.0454 10.8062 20.5516 10.6361 20.967 10.3224C21.3824 10.0087 21.6844 9.56841 21.8276 9.06795L23.9864 1.53623C24.0351 1.37874 24.0509 1.21289 24.0327 1.04904C24.0144 0.885183 23.9626 0.726845 23.8805 0.583912C23.7983 0.440979 23.6876 0.31652 23.5551 0.218307C23.4227 0.120094 23.2715 0.0502358 23.1109 0.0130956C23.0036 -0.00436519 22.8943 -0.00436519 22.787 0.0130956ZM19.4889 8.40832H7.49574L5.31298 2.41173H21.192L19.4889 8.40832Z" fill="#A38E23"/>
<path d="M10.1942 20.4014C11.1878 20.4014 11.9932 19.596 11.9932 18.6024C11.9932 17.6089 11.1878 16.8035 10.1942 16.8035C9.20069 16.8035 8.39526 17.6089 8.39526 18.6024C8.39526 19.596 9.20069 20.4014 10.1942 20.4014Z" fill="#A38E23"/>
<path d="M17.39 20.4014C18.3836 20.4014 19.189 19.596 19.189 18.6024C19.189 17.6089 18.3836 16.8035 17.39 16.8035C16.3965 16.8035 15.5911 17.6089 15.5911 18.6024C15.5911 19.596 16.3965 20.4014 17.39 20.4014Z" fill="#A38E23"/>
</svg>
