<svg width="30" height="20" viewBox="0 0 30 20" fill="none" xmlns="http://www.w3.org/2000/svg">
<path d="M0 5.46995V4.6887C0 4.04148 0.62959 3.51682 1.40625 3.51682H22.5V1.17307C22.5 0.129764 24.0175 -0.391477 24.9006 0.344412L29.5881 4.25066C30.1373 4.70833 30.1373 5.45032 29.5881 5.90794L24.9006 9.81419C24.0209 10.5472 22.5 10.0332 22.5 8.98557V6.64182H1.40625C0.62959 6.64182 0 6.11717 0 5.46995ZM28.5938 12.8918H7.5V10.5481C7.5 9.50735 5.98465 8.98167 5.09936 9.71941L0.411855 13.6257C-0.137285 14.0833 -0.137285 14.8253 0.411855 15.2829L5.09936 19.1892C5.9799 19.9229 7.5 19.4073 7.5 18.3606V16.0168H28.5938C29.3704 16.0168 30 15.4922 30 14.8449V14.0637C30 13.4165 29.3704 12.8918 28.5938 12.8918Z" fill="#A38E23"/>
</svg>
