<svg width="79" height="82" viewBox="0 0 79 82" fill="none" xmlns="http://www.w3.org/2000/svg">
<g clip-path="url(#clip0_130_133)">
<path d="M72.2361 70.1536L68.6304 73.473L71.4959 68.6649C69.2383 64.571 65.5461 61.0328 65.5461 61.0328C65.5461 61.0328 57.8859 68.3718 57.8859 74.1408C57.8859 79.9097 61.3155 81.924 65.5461 81.924C69.7766 81.924 73.2061 79.9097 73.2061 74.1408C73.2061 72.8567 72.8261 71.495 72.2361 70.1536Z" fill="#F2F2F2"/>
<path d="M67.7031 73.6527V73.9371C67.6862 77.2424 67.1288 79.8214 66.035 81.6374C66.0195 81.6641 66.0026 81.6894 65.9871 81.7162L65.8646 81.6416L65.7478 81.5684C66.9613 79.6074 67.3906 76.8356 67.4061 73.9526C67.4075 73.8597 67.4089 73.7653 67.4075 73.671C67.4033 72.4505 67.3287 71.216 67.209 70.0166C67.2006 69.9237 67.1907 69.8294 67.1809 69.735C67.0148 68.1528 66.7754 66.6409 66.5305 65.3274C66.5136 65.2345 66.4953 65.1416 66.477 65.0501C66.0533 62.8287 65.6211 61.2197 65.5226 60.8635C65.5113 60.8199 65.5043 60.796 65.5029 60.7903L65.6366 60.7523L65.638 60.7509L65.7731 60.7129C65.7745 60.7186 65.7985 60.7988 65.8379 60.948C65.9885 61.5055 66.3799 63.0188 66.7642 65.0149C66.7811 65.105 66.7994 65.1979 66.8163 65.2908C67.0162 66.3565 67.2118 67.5474 67.3667 68.7975C67.4061 69.1114 67.4413 69.4211 67.4723 69.7266C67.4835 69.8209 67.4934 69.9152 67.5018 70.0081C67.6314 71.3047 67.6985 72.5195 67.7031 73.6527Z" fill="white"/>
<path d="M66.7642 65.0149C66.6699 65.0276 66.5741 65.0402 66.477 65.0501C66.2132 65.0773 65.9482 65.0909 65.6831 65.0909C64.553 65.0924 63.4369 64.8403 62.4171 64.3533C62.358 64.4279 62.2989 64.5025 62.2384 64.5785C63.3111 65.1021 64.4893 65.3737 65.6831 65.3725C65.9661 65.3724 66.249 65.3573 66.5305 65.3274C66.6262 65.3176 66.722 65.3049 66.8163 65.2908C67.5948 65.1791 68.3519 64.9499 69.0616 64.6109C69.0011 64.5335 68.9419 64.4574 68.8842 64.3828C68.2125 64.6968 67.4981 64.9098 66.7642 65.0149Z" fill="white"/>
<path d="M67.4723 69.7266C67.3752 69.7322 67.278 69.735 67.1809 69.735C67.1513 69.7364 67.1204 69.7364 67.0908 69.7364C65.8663 69.7365 64.6599 69.4404 63.5745 68.8734C62.4891 68.3064 61.5569 67.4854 60.8574 66.4804C60.8011 66.5634 60.7448 66.6465 60.6899 66.7309C61.419 67.7479 62.3799 68.5765 63.493 69.1481C64.6062 69.7198 65.8395 70.0179 67.0908 70.018C67.1302 70.018 67.1696 70.018 67.2091 70.0166C67.3076 70.0152 67.4047 70.0124 67.5019 70.0081C69.0049 69.9311 70.4539 69.4229 71.6758 68.5441C71.6307 68.461 71.5857 68.378 71.5392 68.2949C70.3518 69.1577 68.9384 69.6553 67.4723 69.7266Z" fill="white"/>
<path d="M67.7031 73.6527C67.6046 73.6612 67.5061 73.6668 67.4075 73.671C67.3019 73.6752 67.1964 73.678 67.0908 73.678C65.4453 73.6761 63.8447 73.1413 62.5287 72.1536C61.2126 71.166 60.2519 69.7786 59.7903 68.1992C59.727 68.3132 59.6636 68.4258 59.6031 68.5398C60.1232 70.1156 61.1266 71.4873 62.4707 72.4603C63.8149 73.4332 65.4314 73.9578 67.0908 73.9596C67.1964 73.9596 67.3019 73.9582 67.4061 73.9525C67.5061 73.9497 67.6046 73.9441 67.7031 73.9371C69.6935 73.7813 71.5504 72.8751 72.8976 71.4017C72.8681 71.2976 72.8343 71.1948 72.8005 71.0906C71.4992 72.575 69.6708 73.494 67.7031 73.6527Z" fill="white"/>
<path d="M59.2699 17.7301L20.0523 12.7302C19.9467 12.7166 19.8403 12.7097 19.7337 12.7095C19.6288 12.7093 19.5239 12.716 19.4197 12.7293C19.3158 12.7427 19.2128 12.7629 19.1115 12.7897C19.009 12.817 18.9083 12.851 18.8102 12.8913C18.7141 12.9308 18.6204 12.9761 18.5298 13.0269C18.4379 13.0781 18.3491 13.1347 18.2639 13.1964C18.1767 13.2596 18.0932 13.3278 18.0138 13.4006C17.9318 13.4754 17.8538 13.5546 17.7803 13.6378C17.7048 13.7235 17.6338 13.8129 17.5674 13.9059C17.5004 14 17.4376 14.0979 17.3788 14.1995C17.3201 14.3016 17.2656 14.4076 17.2153 14.5178C17.165 14.6279 17.1192 14.7418 17.0777 14.8594C17.0348 14.981 16.9972 15.1052 16.9648 15.2322C16.9325 15.3592 16.9055 15.4884 16.8838 15.6197C16.8626 15.751 16.8463 15.8844 16.835 16.02C16.8237 16.1556 16.8181 16.2928 16.8181 16.4316C16.8185 16.5703 16.8242 16.7086 16.835 16.8464C16.8459 16.9842 16.8622 17.1209 16.8838 17.2565C16.9058 17.3926 16.9329 17.5274 16.9652 17.6608C16.9975 17.7942 17.0351 17.9261 17.078 18.0565C17.1195 18.1825 17.1654 18.3055 17.2156 18.4257C17.2659 18.5461 17.3204 18.6631 17.3792 18.7769C17.4379 18.8906 17.5008 19.0011 17.5678 19.1083C17.6346 19.216 17.7056 19.3196 17.7806 19.4191C17.8556 19.5186 17.9334 19.6136 18.0141 19.7039C18.0948 19.7938 18.1781 19.8785 18.2642 19.9581C18.3503 20.0378 18.4389 20.1122 18.5301 20.1813C18.6203 20.2497 18.7139 20.3135 18.8105 20.3724C18.9079 20.4318 19.0085 20.4858 19.1118 20.5339C19.2121 20.5807 19.315 20.6215 19.4201 20.6561C19.523 20.6901 19.6278 20.7177 19.7341 20.739C19.8393 20.7599 19.9457 20.7744 20.0526 20.7822L59.2702 23.6509C59.3843 23.6592 59.499 23.6477 59.6092 23.617C59.6652 23.6014 59.7199 23.5812 59.7727 23.5567C59.8278 23.531 59.8808 23.5013 59.9314 23.4677C59.9827 23.4336 60.0318 23.3963 60.0782 23.3559C60.1269 23.3134 60.1731 23.2682 60.2165 23.2203C60.2623 23.1697 60.3055 23.1168 60.3458 23.0617C60.3875 23.005 60.4275 22.9445 60.4659 22.8804C60.5043 22.8162 60.5406 22.7493 60.5749 22.6796C60.6091 22.6099 60.6411 22.5374 60.6709 22.4623C60.7009 22.3873 60.7286 22.3097 60.754 22.2295C60.7794 22.1493 60.8026 22.0667 60.8235 21.9817C60.8455 21.8939 60.8645 21.8044 60.8804 21.7133C60.8963 21.6223 60.9099 21.5299 60.9212 21.4361C60.9322 21.3423 60.9404 21.2473 60.9458 21.1511C60.9512 21.0548 60.9539 20.9575 60.9539 20.8591C60.9536 20.7608 60.9509 20.663 60.9458 20.5656C60.9407 20.4682 60.9325 20.3716 60.9212 20.2757C60.9103 20.1798 60.8967 20.0846 60.8804 19.9903C60.8641 19.896 60.8452 19.8027 60.8235 19.7104C60.8026 19.6211 60.7794 19.5339 60.754 19.4487C60.7288 19.3647 60.7011 19.2819 60.6709 19.2003C60.6408 19.1188 60.6088 19.0397 60.5749 18.9631C60.5407 18.8866 60.5044 18.8124 60.4659 18.7404C60.4274 18.6685 60.3873 18.6 60.3458 18.535C60.3042 18.4701 60.2611 18.4085 60.2165 18.3503C60.1719 18.2921 60.1258 18.2377 60.0782 18.187C60.0318 18.1373 59.9829 18.0901 59.9314 18.0456C59.8811 18.0021 59.8281 17.9617 59.7727 17.9248C59.7204 17.89 59.6658 17.8588 59.6092 17.8316C59.555 17.8056 59.4989 17.7839 59.4414 17.7666C59.3853 17.7497 59.328 17.7376 59.2699 17.7301Z" fill="#BBAA52"/>
<path d="M59.2699 29.0069L20.0523 28.0676C19.8396 28.0623 19.627 28.084 19.4197 28.1321C19.3152 28.1565 19.2122 28.1873 19.1115 28.2245C19.0085 28.2625 18.9079 28.3066 18.8102 28.3567C18.7137 28.4061 18.6201 28.4608 18.5298 28.5207C18.4377 28.5817 18.3489 28.6476 18.2639 28.7181C18.1766 28.7905 18.0932 28.8673 18.0138 28.9482C17.933 29.0305 17.8552 29.1179 17.7803 29.2105C17.7054 29.3034 17.6344 29.4002 17.5674 29.5008C17.5004 29.6015 17.4376 29.7059 17.3788 29.814C17.3201 29.9221 17.2656 30.0338 17.2153 30.1491C17.165 30.2645 17.1192 30.3831 17.0777 30.505C17.0348 30.6312 16.9972 30.7594 16.9648 30.8897C16.9325 31.0199 16.9055 31.1519 16.8838 31.2855C16.8626 31.4192 16.8463 31.5543 16.835 31.691C16.8237 31.8277 16.8181 31.9655 16.8181 32.1043C16.8185 32.2432 16.8242 32.3809 16.835 32.5175C16.8459 32.654 16.8622 32.7891 16.8838 32.9226C16.9058 33.0555 16.9329 33.1869 16.9652 33.3169C16.9975 33.447 17.0351 33.575 17.078 33.7009C17.1195 33.8232 17.1654 33.9418 17.2156 34.0568C17.2659 34.1718 17.3204 34.2832 17.3792 34.3909C17.4379 34.4987 17.5008 34.6027 17.5678 34.7029C17.6346 34.8028 17.7056 34.8988 17.7806 34.991C17.8556 35.0832 17.9334 35.1701 18.0141 35.2518C18.0935 35.3322 18.177 35.4085 18.2642 35.4804C18.3493 35.5504 18.438 35.6157 18.5301 35.6761C18.6205 35.7353 18.7141 35.7895 18.8105 35.8383C18.9083 35.8877 19.0089 35.9312 19.1118 35.9686C19.2126 36.0051 19.3155 36.0352 19.4201 36.0589C19.5236 36.0825 19.6284 36.0994 19.7341 36.1097C19.8399 36.1199 19.9463 36.1233 20.0526 36.1201L59.2699 34.9269C59.3275 34.9252 59.3849 34.9185 59.4414 34.9071C59.4985 34.8955 59.5547 34.8792 59.6091 34.8585C59.6655 34.8369 59.7202 34.8111 59.7727 34.7812C59.8279 34.7497 59.881 34.7145 59.9314 34.6758C59.9828 34.6364 60.0318 34.5939 60.0782 34.5487C60.1269 34.5013 60.1731 34.4513 60.2165 34.3989C60.261 34.3456 60.3041 34.2883 60.3458 34.2269C60.3874 34.1656 60.4275 34.101 60.4659 34.0332C60.5043 33.965 60.5406 33.8943 60.5749 33.8211C60.6091 33.7479 60.6411 33.6722 60.6709 33.594C60.7009 33.5146 60.7286 33.4338 60.754 33.3515C60.7794 33.2693 60.8026 33.1845 60.8235 33.0973C60.8455 33.0081 60.8645 32.9171 60.8804 32.8243C60.8963 32.7316 60.9099 32.6378 60.9212 32.5429C60.9322 32.4476 60.9404 32.3516 60.9458 32.2548C60.9512 32.158 60.9539 32.0604 60.9539 31.962C60.9536 31.8645 60.9509 31.7671 60.9458 31.6698C60.9407 31.5726 60.9325 31.4765 60.9212 31.3818C60.9103 31.2866 60.8967 31.1929 60.8804 31.1006C60.8641 31.0084 60.8451 30.917 60.8235 30.8266C60.8024 30.7394 60.7792 30.6545 60.7538 30.5718C60.7284 30.4891 60.7008 30.4088 60.6709 30.3308C60.6412 30.2529 60.6093 30.1773 60.575 30.1043C60.5408 30.0312 60.5045 29.9607 60.4661 29.8929C60.4276 29.825 60.3875 29.7607 60.3459 29.6998C60.3044 29.6389 60.2613 29.5818 60.2166 29.5284C60.1732 29.4764 60.1271 29.4266 60.0784 29.3795C60.032 29.3346 59.983 29.2925 59.9316 29.2534C59.8812 29.215 59.8281 29.1801 59.7728 29.149C59.7203 29.1196 59.6656 29.0942 59.6091 29.0731C59.5546 29.0527 59.4985 29.0367 59.4414 29.0255C59.3849 29.0145 59.3275 29.0082 59.2699 29.0069Z" fill="#E4E4E4"/>
<path d="M59.2699 39.5786L20.0523 42.4468C19.9453 42.4546 19.8389 42.4691 19.7337 42.49C19.6275 42.5113 19.5226 42.5389 19.4197 42.5729C19.3147 42.6076 19.2118 42.6483 19.1115 42.6951C19.0081 42.7433 18.9076 42.7972 18.8102 42.8566C18.7135 42.9155 18.6199 42.9793 18.5298 43.0477C18.4385 43.1174 18.3499 43.1918 18.2639 43.2709C18.1779 43.3503 18.0945 43.435 18.0138 43.5251C17.933 43.6151 17.8552 43.71 17.7803 43.8099C17.7054 43.9101 17.6344 44.0138 17.5674 44.121C17.5004 44.2282 17.4376 44.3387 17.3788 44.4525C17.3201 44.5664 17.2656 44.6834 17.2153 44.8036C17.165 44.9238 17.1192 45.0469 17.0777 45.1728C17.0348 45.303 16.9972 45.4349 16.9648 45.5685C16.9325 45.7022 16.9055 45.8368 16.8838 45.9723C16.8626 46.1081 16.8463 46.2449 16.835 46.3826C16.8237 46.5203 16.8181 46.6586 16.8181 46.7974C16.8185 46.9362 16.8242 47.0734 16.835 47.209C16.8459 47.3446 16.8622 47.478 16.8838 47.6094C16.9058 47.7412 16.9329 47.8704 16.9652 47.9971C16.9975 48.1239 17.0351 48.2482 17.078 48.3699C17.1195 48.4877 17.1654 48.6015 17.2156 48.7116C17.2659 48.8217 17.3204 48.9278 17.3792 49.0298C17.4379 49.1318 17.5008 49.2297 17.5678 49.3235C17.6341 49.4164 17.7051 49.5059 17.7806 49.5915C17.8541 49.6747 17.9321 49.7539 18.0141 49.8288C18.0936 49.9015 18.1771 49.9697 18.2642 50.033C18.3494 50.0947 18.4382 50.1512 18.5301 50.2024C18.6207 50.2533 18.7144 50.2985 18.8105 50.338C18.9087 50.3783 19.0093 50.4123 19.1118 50.4397C19.2132 50.4665 19.3161 50.4866 19.4201 50.5C19.5242 50.5134 19.6291 50.52 19.7341 50.5198C19.8406 50.5196 19.947 50.5127 20.0526 50.4991L59.2699 45.5004C59.328 45.493 59.3853 45.4808 59.4414 45.464C59.4989 45.4466 59.555 45.4249 59.6092 45.3989C59.6658 45.3717 59.7204 45.3406 59.7727 45.3057C59.8281 45.2688 59.8811 45.2284 59.9314 45.1849C59.9829 45.1404 60.0318 45.0933 60.0782 45.0436C60.1252 44.9927 60.1713 44.9383 60.2165 44.8802C60.261 44.8221 60.3041 44.7606 60.3458 44.6955C60.3875 44.6304 60.4275 44.562 60.4659 44.4901C60.5043 44.4187 60.5406 44.3445 60.5749 44.2674C60.6091 44.1904 60.6411 44.1113 60.6709 44.0302C60.7009 43.9488 60.7286 43.8654 60.754 43.7803C60.7794 43.6951 60.8026 43.6079 60.8235 43.5186C60.8455 43.4262 60.8645 43.3329 60.8804 43.2385C60.8963 43.1442 60.9099 43.0491 60.9212 42.9532C60.9322 42.8572 60.9404 42.7606 60.9458 42.6632C60.9512 42.5658 60.9539 42.468 60.9539 42.3696C60.9535 42.2717 60.9507 42.1747 60.9456 42.0784C60.9405 41.9822 60.9324 41.8872 60.9211 41.7934C60.9102 41.6993 60.8967 41.6067 60.8804 41.5157C60.8641 41.4246 60.8452 41.3351 60.8235 41.2473C60.8026 41.1622 60.7794 41.0796 60.754 40.9995C60.7289 40.9194 60.7013 40.8418 60.6711 40.7667C60.641 40.6915 60.6089 40.6191 60.575 40.5494C60.5406 40.4803 60.5041 40.4135 60.4656 40.3491C60.427 40.2847 60.387 40.2243 60.3454 40.1678C60.3051 40.1127 60.262 40.0598 60.2161 40.0092C60.1727 39.9613 60.1266 39.9161 60.0779 39.8737C60.0314 39.8332 59.9824 39.7959 59.9311 39.7618C59.8805 39.7282 59.8274 39.6985 59.7723 39.6728C59.7196 39.6483 59.6649 39.6281 59.6088 39.6125C59.4986 39.5818 59.384 39.5703 59.2699 39.5786Z" fill="#E4E4E4"/>
<path d="M37.8942 40.1041C38.1426 40.5172 38.534 40.8246 38.9942 40.9681C39.4543 41.1115 39.9511 41.081 40.3903 40.8824C40.8294 40.6837 41.1803 40.3307 41.3764 39.8904C41.5725 39.4501 41.6 38.9531 41.4538 38.4938L49.0546 22.8786L45.4163 20.673L38.8522 37.2596C38.8271 37.2693 38.8024 37.2795 38.7781 37.2902C38.7538 37.3009 38.7295 37.3121 38.7054 37.3237C38.6812 37.3353 38.6573 37.3476 38.6335 37.3604C38.6097 37.3733 38.5861 37.3868 38.5626 37.4009C38.1156 37.6708 37.794 38.1071 37.6686 38.614C37.5432 39.1209 37.6243 39.6568 37.894 40.1039L37.8942 40.1041Z" fill="#9E616A"/>
<path d="M47.6037 28.8999L42.204 27.5159C42.204 27.5159 42.3803 27.1174 42.6668 26.4571C42.9534 25.7969 43.3537 24.8762 43.804 23.8309C44.2544 22.7856 44.754 21.6177 45.2421 20.4632C45.7301 19.3087 46.2047 18.1681 46.6045 17.1793C47.0042 16.1906 47.4583 15.5985 47.9147 15.2666C48.2925 14.9796 48.7682 14.8531 49.2387 14.9147C49.6043 14.9691 49.9538 15.1022 50.2631 15.3047C50.4096 15.3958 50.5472 15.5002 50.6744 15.6168L51.9263 17.8935L47.6037 28.8999Z" fill="#CCCCCC"/>
<path d="M4.39045 27.6632C4.25969 27.6729 4.12957 27.6899 4.00071 27.7141C3.87101 27.7384 3.74277 27.7698 3.61655 27.8083C3.48842 27.8474 3.3625 27.8935 3.23935 27.9462C3.1133 28.0002 2.99017 28.0607 2.87044 28.1276C2.7533 28.1934 2.6388 28.265 2.52696 28.3424C2.41512 28.4198 2.3065 28.503 2.2011 28.5919C2.09581 28.6805 1.99363 28.7751 1.89455 28.8755C1.79548 28.976 1.70002 29.0819 1.60818 29.1933C1.51633 29.3046 1.42929 29.42 1.34704 29.5394C1.2648 29.6589 1.18764 29.7819 1.11557 29.9085C1.04417 30.0354 0.977404 30.1657 0.915271 30.2994C0.853138 30.4332 0.796655 30.5701 0.745818 30.71C0.692836 30.8552 0.646462 31.0019 0.606695 31.1501C0.566929 31.2983 0.533772 31.4478 0.507225 31.5985C0.480564 31.7492 0.46057 31.9009 0.447239 32.0536C0.433909 32.2064 0.427246 32.3597 0.42725 32.5137C0.42725 32.6677 0.433913 32.8197 0.447239 32.9697C0.460566 33.1197 0.48056 33.2674 0.507225 33.4128C0.533773 33.5582 0.56693 33.701 0.606695 33.8412C0.646461 33.9814 0.692667 34.1187 0.745311 34.2532C0.796598 34.383 0.853082 34.5085 0.914764 34.6299C0.975734 34.75 1.04269 34.8669 1.1154 34.9803C1.18696 35.0915 1.26423 35.199 1.34688 35.3023C1.42874 35.4049 1.51596 35.5032 1.60817 35.5966C1.69887 35.6885 1.79447 35.7754 1.89455 35.8569C1.99256 35.9367 2.09496 36.011 2.20126 36.0794C2.41106 36.2144 2.63564 36.3249 2.87061 36.4088C3.11149 36.4949 3.3618 36.5518 3.61621 36.5783C3.74382 36.5914 3.87209 36.5971 4.00037 36.5952C4.1307 36.5934 4.26082 36.5842 4.39011 36.5676C4.52056 36.551 4.65 36.5271 4.77782 36.4962C4.90603 36.4652 5.03246 36.4273 5.15656 36.3825C5.28206 36.3373 5.40508 36.2854 5.52512 36.2271C5.64743 36.1678 5.76665 36.1023 5.88233 36.0309C5.99496 35.9607 6.10466 35.8853 6.21141 35.8049C6.31817 35.7244 6.42159 35.6387 6.52169 35.5476C6.62178 35.4566 6.71842 35.3606 6.81162 35.2596C6.90482 35.1586 6.99441 35.0526 7.08038 34.9417C7.16691 34.8308 7.24836 34.7167 7.32473 34.5992C7.4011 34.4817 7.47261 34.3611 7.53927 34.2374C7.60592 34.1137 7.6676 33.9871 7.72431 33.8577C7.78102 33.7282 7.83271 33.596 7.87936 33.4611C7.92771 33.3215 7.97002 33.1807 8.00628 33.0387C8.04255 32.8967 8.07282 32.7537 8.09711 32.6096C8.12129 32.4655 8.13947 32.3206 8.15167 32.175C8.16388 32.0294 8.16998 31.8831 8.16998 31.7363C8.16986 31.5894 8.16376 31.4443 8.15167 31.3011C8.13959 31.1579 8.1214 31.0166 8.09711 30.8775C8.07293 30.7385 8.04266 30.6016 8.00628 30.4667C7.96991 30.3318 7.9276 30.1995 7.87936 30.0697C7.83248 29.9441 7.78079 29.8222 7.72431 29.7042C7.66703 29.5864 7.60507 29.4722 7.53842 29.3615C7.40647 29.1427 7.25303 28.9376 7.08038 28.7493C6.99565 28.6566 6.90617 28.5685 6.8123 28.4851C6.71986 28.4033 6.62308 28.3265 6.52237 28.2551C6.42262 28.1845 6.31903 28.1193 6.2121 28.0601C6.10523 28.0009 5.99514 27.9477 5.88234 27.9008C5.64943 27.8038 5.40587 27.7347 5.15673 27.6949C5.03133 27.6749 4.90488 27.6623 4.778 27.6571C4.64875 27.6519 4.5193 27.6541 4.39029 27.6636" fill="#E4E4E4"/>
<path d="M4.39045 43.592C4.25969 43.6016 4.12957 43.6186 4.00071 43.6428C3.87101 43.6671 3.74277 43.6985 3.61655 43.737C3.48842 43.7761 3.3625 43.8222 3.23935 43.875C3.1133 43.9289 2.99017 43.9894 2.87044 44.0563C2.7533 44.1221 2.6388 44.1938 2.52696 44.2711C2.41512 44.3485 2.3065 44.4317 2.2011 44.5206C2.09581 44.6093 1.99363 44.7038 1.89455 44.8042C1.79548 44.9047 1.70002 45.0106 1.60818 45.122C1.51633 45.2333 1.42929 45.3487 1.34704 45.4682C1.2648 45.5876 1.18764 45.7106 1.11557 45.8372C1.04417 45.9641 0.977404 46.0944 0.915271 46.2282C0.853138 46.3619 0.796655 46.4988 0.745818 46.6387C0.692836 46.7839 0.646462 46.9306 0.606695 47.0788C0.566929 47.227 0.533772 47.3765 0.507225 47.5272C0.480564 47.6779 0.46057 47.8296 0.447239 47.9823C0.433909 48.1351 0.427246 48.2884 0.42725 48.4424C0.42725 48.5964 0.433913 48.7484 0.447239 48.8984C0.460566 49.0484 0.48056 49.1962 0.507225 49.3415C0.533773 49.4869 0.56693 49.6297 0.606695 49.7699C0.646461 49.9101 0.692667 50.0474 0.745311 50.1819C0.796598 50.3117 0.853082 50.4372 0.914764 50.5586C0.975734 50.6787 1.04269 50.7956 1.1154 50.909C1.18696 51.0202 1.26423 51.1277 1.34688 51.231C1.42874 51.3336 1.51596 51.4319 1.60817 51.5253C1.69887 51.6172 1.79447 51.7041 1.89455 51.7856C1.99256 51.8654 2.09496 51.9397 2.20126 52.0081C2.41106 52.1431 2.63564 52.2536 2.87061 52.3375C3.11148 52.4236 3.3618 52.4805 3.61621 52.507C3.74382 52.5201 3.87209 52.5258 4.00037 52.5239C4.1307 52.5221 4.26082 52.5129 4.39011 52.4963C4.52056 52.4797 4.65 52.4559 4.77782 52.425C4.90603 52.3939 5.03246 52.356 5.15656 52.3112C5.28206 52.266 5.40508 52.2141 5.52512 52.1559C5.64743 52.0965 5.76665 52.031 5.88233 51.9596C5.99496 51.8894 6.10466 51.814 6.21141 51.7336C6.31817 51.6531 6.42159 51.5674 6.52169 51.4763C6.62178 51.3853 6.71842 51.2893 6.81162 51.1883C6.90482 51.0873 6.99441 50.9813 7.08038 50.8704C7.16691 50.7595 7.24836 50.6454 7.32473 50.5279C7.4011 50.4104 7.47261 50.2898 7.53927 50.1661C7.60592 50.0424 7.6676 49.9158 7.72431 49.7864C7.78102 49.6569 7.83271 49.5247 7.87936 49.3898C7.92771 49.2502 7.97002 49.1094 8.00628 48.9674C8.04255 48.8254 8.07282 48.6824 8.09711 48.5383C8.12129 48.3942 8.13947 48.2493 8.15167 48.1037C8.16388 47.9581 8.16998 47.8118 8.16998 47.665C8.16986 47.5181 8.16376 47.3731 8.15167 47.2298C8.13959 47.0866 8.1214 46.9453 8.09711 46.8062C8.07293 46.6672 8.04266 46.5303 8.00628 46.3954C7.96991 46.2605 7.9276 46.1282 7.87936 45.9984C7.83248 45.8728 7.78079 45.7509 7.72431 45.6329C7.66703 45.5152 7.60507 45.4009 7.53842 45.2902C7.40647 45.0714 7.25303 44.8663 7.08038 44.678C6.99565 44.5854 6.90617 44.4972 6.8123 44.4138C6.71986 44.332 6.62308 44.2552 6.52237 44.1839C6.42262 44.1132 6.31903 44.0481 6.2121 43.9888C6.10523 43.9296 5.99514 43.8764 5.88234 43.8295C5.64943 43.7325 5.40587 43.6634 5.15673 43.6236C5.03133 43.6037 4.90488 43.591 4.778 43.5859C4.64875 43.5806 4.5193 43.5828 4.39029 43.5923" fill="#E4E4E4"/>
<path d="M4.39114 10.4073C4.26109 10.4042 4.13097 10.4084 4.0014 10.42C3.87236 10.4316 3.7441 10.4506 3.61725 10.477C3.48967 10.5036 3.36373 10.5376 3.24004 10.5786C3.11444 10.6202 2.99128 10.6688 2.87114 10.7242C2.75354 10.7784 2.63888 10.8387 2.52765 10.905C2.41533 10.9719 2.30656 11.0447 2.20179 11.1229C2.09533 11.2024 1.99296 11.2873 1.89508 11.3771C1.79555 11.4685 1.69992 11.5654 1.60819 11.6677C1.51635 11.7702 1.4293 11.8772 1.34706 11.9887C1.26481 12.1002 1.18766 12.2157 1.11558 12.3354C1.04385 12.4566 0.97691 12.5808 0.914778 12.708C0.852646 12.8352 0.796163 12.9666 0.745325 13.1021C0.692682 13.2419 0.646475 13.3839 0.606709 13.5283C0.566943 13.6727 0.533786 13.8189 0.507239 13.967C0.480577 14.1156 0.460583 14.2654 0.447253 14.4164C0.433923 14.5675 0.42726 14.72 0.427264 14.874C0.427264 15.0277 0.433927 15.1802 0.447253 15.3315C0.46058 15.4828 0.480573 15.6324 0.507239 15.7804C0.533786 15.9284 0.566944 16.0744 0.606709 16.2184C0.646474 16.3625 0.692681 16.5042 0.745325 16.6437C0.796612 16.7785 0.853095 16.9096 0.914778 17.0369C0.976912 17.1637 1.04401 17.2868 1.11608 17.4061C1.18815 17.5254 1.26531 17.6405 1.34756 17.7513C1.42969 17.8625 1.51673 17.9689 1.60869 18.0706C1.70065 18.1722 1.79611 18.2683 1.89507 18.3586C1.99244 18.4481 2.0943 18.5326 2.20026 18.6118C2.30504 18.6893 2.41381 18.7613 2.52612 18.8275C2.63737 18.8931 2.75202 18.9527 2.8696 19.0061C2.98978 19.0607 3.11295 19.1085 3.23851 19.1493C3.48558 19.2293 3.74106 19.2804 3.99987 19.3018C4.25902 19.3233 4.51978 19.3154 4.77716 19.2783C4.90476 19.2598 5.03121 19.2341 5.15589 19.2013C5.28089 19.1684 5.40394 19.1284 5.52445 19.0817C5.64638 19.0344 5.76563 18.9805 5.88166 18.9202C5.99481 18.8614 6.10488 18.7969 6.21142 18.7269C6.31858 18.6563 6.42214 18.5805 6.52169 18.4996C6.62178 18.4183 6.71843 18.3316 6.81163 18.2397C6.90483 18.1477 6.99442 18.0504 7.08039 17.9479C7.16692 17.8453 7.24837 17.739 7.32474 17.629C7.40111 17.5189 7.47262 17.4053 7.53928 17.288C7.60615 17.1707 7.66783 17.0502 7.72432 16.9262C7.7808 16.8023 7.83249 16.6754 7.87937 16.5455C7.92772 16.4106 7.97003 16.2739 8.00629 16.1354C8.04256 15.9969 8.07283 15.8568 8.09712 15.7151C8.1213 15.5729 8.13948 15.4296 8.15168 15.2851C8.16389 15.1406 8.16999 14.9949 8.16998 14.848C8.16987 14.7013 8.16377 14.5557 8.15168 14.4112C8.1396 14.2667 8.12141 14.1237 8.09712 13.9823C8.07294 13.8407 8.04267 13.7008 8.00629 13.5624C7.96992 13.424 7.92761 13.2875 7.87937 13.153C7.83249 13.023 7.7808 12.8961 7.72432 12.7726C7.66783 12.649 7.60587 12.5286 7.53843 12.4114C7.47178 12.2953 7.40026 12.1823 7.32389 12.0725C7.24752 11.9627 7.16635 11.857 7.08039 11.7553C6.99498 11.6538 6.90562 11.5572 6.81231 11.4657C6.71899 11.3742 6.62234 11.2882 6.52237 11.2076C6.42287 11.1272 6.31937 11.0519 6.21227 10.9819C6.10571 10.9125 5.99564 10.8487 5.88251 10.7906C5.76645 10.731 5.6472 10.6778 5.5253 10.6313C5.40475 10.5853 5.2817 10.5462 5.15674 10.5141C5.03201 10.482 4.90556 10.4571 4.778 10.4395C4.64946 10.4218 4.52001 10.4114 4.39029 10.4083M4.39029 9.98435C4.95953 9.99993 5.51783 10.1444 6.02316 10.407C6.52532 10.6696 6.97043 11.0291 7.33271 11.4649C7.71139 11.919 8.00631 12.4368 8.2037 12.9942C8.62642 14.1939 8.62642 15.502 8.2037 16.7017C8.00611 17.2607 7.71124 17.7803 7.33271 18.2366C6.97038 18.6744 6.52533 19.0366 6.02299 19.3023C5.51832 19.568 4.96011 19.7161 4.39012 19.7356C3.81662 19.7544 3.24649 19.6408 2.72404 19.4035C2.19661 19.1619 1.72476 18.814 1.33807 18.3815C0.92744 17.9236 0.606056 17.3929 0.390481 16.8168C-0.076415 15.5627 -0.076415 14.1824 0.390481 12.9283C0.606267 12.3505 0.927588 11.8178 1.33807 11.3574C1.72464 10.9226 2.19637 10.5717 2.72404 10.3265C3.24609 10.0858 3.8165 9.96855 4.39114 9.98367L4.39029 9.98435Z" fill="#BBAA52"/>
<path d="M4.39079 16.0585L3.056 13.2777L3.37288 13.0713L4.4723 15.3557L9.08858 9.92979L9.36802 10.2275L4.39079 16.0585Z" fill="#BBAA52"/>
<path d="M52.9694 70.9579L49.665 70.945L50.7306 79.5793L52.9694 79.5904V70.9579Z" fill="#9E616A"/>
<path d="M53.5403 81.763L46.3252 81.7249V81.6337C46.3251 81.4485 46.3432 81.2638 46.3791 81.0822C46.4501 80.7238 46.5915 80.3831 46.7951 80.0798C47.002 79.7725 47.2671 79.5087 47.5755 79.3034C47.8797 79.1011 48.2211 78.9612 48.5798 78.8918C48.7617 78.8568 48.9466 78.8398 49.1318 78.8409L53.5403 78.8626V81.763Z" fill="#2F2E41"/>
<path d="M42.3891 70.9169L39.0943 70.904L40.1564 79.5265L42.3891 79.5377V70.9169Z" fill="#9E616A"/>
<path d="M42.9585 81.7069L35.7625 81.6691V81.578C35.7624 81.3931 35.7805 81.2086 35.8164 81.0272C35.8871 80.6694 36.0281 80.3292 36.2312 80.0263C36.4374 79.7192 36.7019 79.4556 37.0097 79.2505C37.3131 79.0486 37.6536 78.9091 38.0115 78.8399C38.1929 78.805 38.3773 78.788 38.562 78.7891L42.9585 78.8106V81.7069Z" fill="#2F2E41"/>
<path d="M42.2492 35.6266L36.7085 56.3038L38.7365 76.1244L43.2271 76.2483L42.2493 58.3513L47.8514 49.42L49.0663 76.3701L53.1397 76.0821L55.4056 52.9105C56.1753 51.1012 56.7397 49.2113 57.0883 47.2763C57.3623 45.7574 57.4956 44.2164 57.4864 42.673C57.4817 41.634 57.4019 40.5966 57.2474 39.5691C57.1923 39.1862 57.1175 38.8064 57.0236 38.4311L55.3716 36.7564L42.2492 35.6266Z" fill="#2F2E41"/>
<path d="M49.5902 39.0848C48.6584 39.0848 47.7841 39.0549 46.9913 38.9959C46.1814 38.9403 45.3759 38.8343 44.5792 38.6784C43.901 38.5517 43.2404 38.3438 42.6119 38.059C42.106 37.8405 41.666 37.4933 41.3359 37.052L41.2981 36.997L42.8126 27.1411L44.4457 16.0593C44.5532 15.3259 44.9266 14.6577 45.4948 14.1818C46.063 13.7059 46.7864 13.4556 47.5272 13.4785L52.6419 13.6352C53.0255 13.647 53.4027 13.7356 53.7514 13.8959C54.1001 14.0562 54.413 14.2848 54.6716 14.5683C54.9303 14.8517 55.1294 15.1842 55.2571 15.5461C55.3849 15.9079 55.4387 16.2917 55.4154 16.6747L54.744 27.6957L57.2206 38.5668L57.0452 38.5912C56.9746 38.6006 56.7028 38.6365 56.2771 38.6844C55.7206 38.7469 55.1523 38.8033 54.5882 38.852C53.79 38.9208 53.0089 38.9749 52.2667 39.0128C51.3254 39.0608 50.4233 39.084 49.5902 39.0848Z" fill="#CCCCCC"/>
<path d="M46.7519 11.5201C46.7506 11.5201 46.7492 11.5201 46.7479 11.5201C46.6405 11.5201 46.5343 11.4989 46.4352 11.4577C46.3361 11.4166 46.2461 11.3564 46.1702 11.2804C46.0944 11.2045 46.0343 11.1144 45.9933 11.0152C45.9523 10.9161 45.9312 10.8098 45.9313 10.7025V6.14249C45.9305 5.32551 46.0939 4.51672 46.412 3.76419C47.0348 2.29567 48.2003 1.12412 49.6655 0.493715C50.5923 0.0962281 51.6031 -0.065222 52.6075 0.0238209C53.6119 0.112864 54.5786 0.449619 55.421 1.00393C56.2633 1.55825 56.955 2.31282 57.4342 3.20007C57.9134 4.08732 58.165 5.07956 58.1666 6.08792V10.6549C58.1667 10.7648 58.1447 10.8736 58.1018 10.9748C58.0179 11.1723 57.8609 11.3296 57.6636 11.4141C57.5624 11.4573 57.4536 11.4797 57.3435 11.48L46.7513 11.5201H46.7519Z" fill="#2F2E41"/>
<path d="M54.8112 4.57859C55.2379 5.35787 55.424 6.24612 55.3462 7.13115C55.2683 8.01617 54.93 8.85827 54.3738 9.5511C53.8176 10.2439 53.0686 10.7564 52.2214 11.0238C51.3741 11.2912 50.4666 11.3015 49.6135 11.0535C49.0486 10.8911 48.5215 10.6183 48.0628 10.2508C47.6041 9.88332 47.2229 9.42845 46.9412 8.91257C46.5156 8.13363 46.3301 7.24609 46.4081 6.36188C46.4862 5.47766 46.8243 4.63635 47.3798 3.94403C47.9354 3.2517 48.6834 2.73935 49.5298 2.47158C50.3761 2.20382 51.2827 2.19262 52.1354 2.4394C52.7008 2.60113 53.2285 2.87352 53.6878 3.24077C54.1471 3.60801 54.529 4.0628 54.8112 4.57876V4.57859Z" fill="#9E616A"/>
<path d="M44.485 6.5136C44.4844 5.86747 44.6137 5.22782 44.8652 4.63266C45.3577 3.47142 46.2793 2.54508 47.4381 2.04678C48.0326 1.79205 48.6722 1.65951 49.319 1.65703L50.2317 1.65245C50.2419 1.6524 50.2522 1.65237 50.2624 1.65238C50.8944 1.65276 51.5202 1.77763 52.1039 2.01984C52.6876 2.26205 53.2179 2.61686 53.6645 3.06402C54.1112 3.51118 54.4653 4.04193 54.7068 4.62596C54.9483 5.20999 55.0724 5.83586 55.072 6.46785V6.55919L53.1412 6.56698L52.4829 4.72771L52.3512 6.57054L51.354 6.57494L51.022 5.64701L50.9554 6.57613L44.4858 6.6051L44.485 6.5136Z" fill="#2F2E41"/>
<path d="M36.712 16.1064C36.415 16.1791 36.1371 16.3153 35.8977 16.5055C35.7105 16.6536 35.5505 16.833 35.4248 17.0358C35.1767 17.4371 35.0674 17.9088 35.1137 18.3784C35.1371 18.6156 35.2014 18.8469 35.3038 19.0621C35.4301 19.3303 35.6119 19.5686 35.8371 19.7614C36.0623 19.9542 36.3258 20.097 36.6102 20.1804C36.8947 20.2638 37.1936 20.286 37.4873 20.2454C37.7809 20.2048 38.0626 20.1023 38.3137 19.9448C38.3322 19.9329 38.3506 19.9208 38.3687 19.9085C38.3869 19.8962 38.4047 19.8836 38.4222 19.8708C38.4398 19.858 38.4571 19.8449 38.4741 19.8317C38.4911 19.8185 38.508 19.805 38.5248 19.7914L49.1788 23.5833C49.5066 23.6999 49.8634 23.7068 50.1956 23.6031C50.5277 23.4994 50.8171 23.2906 51.0203 23.0081L53.5461 19.5109L50.4923 17.4545L48.8898 19.275L39.1395 17.3355C39.1289 17.3102 39.1179 17.2851 39.1065 17.26C39.0951 17.235 39.0832 17.2101 39.0708 17.1853C39.0582 17.1606 39.0452 17.136 39.0319 17.1116C39.0185 17.0871 39.0044 17.0628 38.9895 17.0387C38.7568 16.6629 38.4112 16.3703 38.0021 16.2028C37.5931 16.0353 37.1415 16.0016 36.712 16.1064Z" fill="#9E616A"/>
<path d="M49.0617 18.1269C49.3804 17.7292 49.826 17.2128 50.2787 16.7006C50.7315 16.1884 51.1909 15.6807 51.5375 15.3009C51.884 14.9212 52.1172 14.6695 52.1172 14.6695C52.4371 14.1858 52.9146 13.8278 53.4685 13.6562C54.0224 13.4846 54.6186 13.5101 55.1559 13.7283C55.6932 13.9464 56.1384 14.3439 56.4158 14.8531C56.6933 15.3623 56.786 15.9518 56.6781 16.5216C56.6164 16.8496 56.4891 17.1617 56.3036 17.4392C56.3036 17.4392 55.956 17.894 55.4314 18.5729C54.9067 19.2518 54.2047 20.1556 53.4967 21.054C52.7886 21.9525 52.0736 22.8463 51.5223 23.5061C50.971 24.1659 50.5831 24.5921 50.5284 24.5556L48.6054 18.8395C48.5508 18.803 48.743 18.5247 49.0617 18.1269Z" fill="#CCCCCC"/>
<path d="M50.203 11.3765C50.1728 11.5239 50.1846 11.6768 50.2369 11.8179C50.2632 11.8901 50.2995 11.9582 50.3447 12.0204C50.3834 12.0733 50.4282 12.1215 50.4782 12.1639C50.6264 12.2891 50.8143 12.3574 51.0083 12.3566C51.0204 12.3565 51.0325 12.3561 51.0446 12.3556C51.0566 12.355 51.0687 12.3541 51.0808 12.353C51.093 12.352 51.1052 12.3506 51.1172 12.349C51.1293 12.3473 51.1415 12.3453 51.1537 12.3432L51.839 12.2186L52.7828 10.2021V12.0492L55.8984 11.4883V3.65016L50.6753 3.67524L50.8044 3.82521C51.233 4.32841 51.5145 4.9401 51.6178 5.59296C51.7192 6.25422 51.7064 6.92794 51.5802 7.5849C51.4575 8.24965 51.2713 8.90108 51.0241 9.53023C50.808 10.0876 50.5599 10.6321 50.2812 11.1609C50.2452 11.2287 50.2189 11.3013 50.203 11.3765Z" fill="#2F2E41"/>
<path d="M14.025 82H78.5873C78.6322 82 78.6753 81.9821 78.7071 81.9504C78.7389 81.9186 78.7567 81.8755 78.7567 81.8305C78.7567 81.7856 78.7389 81.7425 78.7071 81.7107C78.6753 81.6789 78.6322 81.6611 78.5873 81.6611H14.025C13.9801 81.6611 13.937 81.6789 13.9052 81.7107C13.8734 81.7425 13.8556 81.7856 13.8556 81.8305C13.8556 81.8755 13.8734 81.9186 13.9052 81.9504C13.937 81.9821 13.9801 82 14.025 82Z" fill="#CACACA"/>
</g>
<defs>
<clipPath id="clip0_130_133">
<rect width="78.7164" height="82" fill="white" transform="translate(0.0403137)"/>
</clipPath>
</defs>
</svg>
