<svg width="30" height="30" viewBox="0 0 30 30" fill="none" xmlns="http://www.w3.org/2000/svg">
<path d="M10.3125 12.6564H19.6875C20.2055 12.6564 20.625 12.2369 20.625 11.7189V10.7814C20.625 10.2635 20.2055 9.84393 19.6875 9.84393H10.3125C9.79453 9.84393 9.375 10.2635 9.375 10.7814V11.7189C9.375 12.2369 9.79453 12.6564 10.3125 12.6564ZM9.375 17.3439C9.375 17.8619 9.79453 18.2814 10.3125 18.2814H19.6875C20.2055 18.2814 20.625 17.8619 20.625 17.3439V16.4064C20.625 15.8885 20.2055 15.4689 19.6875 15.4689H10.3125C9.79453 15.4689 9.375 15.8885 9.375 16.4064V17.3439ZM15 24.4414C14.0379 24.4414 13.0758 24.1449 12.2543 23.5514L0 14.699V27.1877C0 28.741 1.25918 30.0002 2.8125 30.0002H27.1875C28.7408 30.0002 30 28.741 30 27.1877V14.699L17.7457 23.5514C16.9242 24.1443 15.9621 24.4414 15 24.4414ZM28.9225 9.54803C28.4039 9.14139 27.9123 8.75877 27.1875 8.21151V5.62518C27.1875 4.07186 25.9283 2.81268 24.375 2.81268H19.8311C19.6529 2.68377 19.4871 2.56307 19.3014 2.42831C18.3164 1.70936 16.3594 -0.020327 15 0.000180783C13.6406 -0.020327 11.6842 1.70936 10.6986 2.42831C10.5129 2.56307 10.3471 2.68377 10.1689 2.81268H5.625C4.07168 2.81268 2.8125 4.07186 2.8125 5.62518V8.21151C2.0877 8.75819 1.59609 9.14139 1.07754 9.54803C0.74189 9.81108 0.470458 10.147 0.283778 10.5304C0.0970973 10.9138 5.77621e-05 11.3347 0 11.7611L0 12.3851L5.625 16.4486V5.62518H24.375V16.4486L30 12.3851V11.7611C30 10.8974 29.6027 10.0812 28.9225 9.54803Z" fill="#A38E23"/>
</svg>
