<svg width="91" height="63" viewBox="0 0 91 63" fill="none" xmlns="http://www.w3.org/2000/svg">
<g clip-path="url(#clip0_303_108)">
<path d="M90.1402 23.8462H90.1156L76.0147 29.8818L56.7217 38.1398C56.6463 38.1716 56.5654 38.1881 56.4836 38.1886C56.4018 38.189 56.3207 38.1733 56.245 38.1422L36.3403 29.8645L21.893 23.856L21.8709 23.8462H21.8463C21.6183 23.8464 21.3998 23.9373 21.2386 24.0989C21.0774 24.2605 20.9867 24.4796 20.9865 24.7081V62.1381C20.9867 62.3666 21.0774 62.5857 21.2386 62.7472C21.3998 62.9088 21.6183 62.9997 21.8463 63H90.1402C90.3681 62.9997 90.5867 62.9088 90.7479 62.7473C90.9091 62.5857 90.9998 62.3666 91 62.1381V24.7081C90.9998 24.4796 90.9091 24.2605 90.7479 24.0989C90.5867 23.9373 90.3681 23.8464 90.1402 23.8462Z" fill="white"/>
<path d="M90.3857 24.0925C90.3607 24.0925 90.3362 24.0848 90.3156 24.0704L56.3457 0.356088C56.2423 0.284257 56.1195 0.245869 55.9937 0.246084C55.8679 0.246299 55.7452 0.285106 55.6421 0.35729L21.9168 24.0702C21.9036 24.0795 21.8887 24.086 21.873 24.0896C21.8572 24.0931 21.8409 24.0934 21.825 24.0906C21.8091 24.0878 21.794 24.0819 21.7803 24.0733C21.7667 24.0646 21.755 24.0533 21.7457 24.0401C21.7364 24.0268 21.7299 24.0119 21.7264 23.9961C21.7228 23.9803 21.7225 23.964 21.7253 23.9481C21.7281 23.9321 21.7339 23.9169 21.7426 23.9033C21.7513 23.8896 21.7625 23.8778 21.7757 23.8685L55.501 0.155649C55.6454 0.0546065 55.8172 0.000291267 55.9933 1.16816e-06C56.1694 -0.000288931 56.3414 0.0534596 56.4861 0.154026L90.456 23.8683C90.4775 23.8833 90.4936 23.9047 90.5021 23.9296C90.5105 23.9544 90.5108 23.9812 90.503 24.0062C90.4951 24.0313 90.4796 24.0531 90.4585 24.0686C90.4374 24.0841 90.4119 24.0925 90.3857 24.0925Z" fill="#3F3D56"/>
<path d="M23.844 24.933L56.027 1.02417L88.4544 26.6342L57.6852 44.9183L40.9803 41.1014L23.844 24.933Z" fill="#E6E6E6"/>
<path d="M42.3904 56.2116H26.4912C26.3935 56.2117 26.2968 56.1925 26.2066 56.1552C26.1164 56.1178 26.0344 56.063 25.9653 55.9938C25.8962 55.9247 25.8414 55.8426 25.804 55.7522C25.7666 55.6618 25.7474 55.5649 25.7474 55.467C25.7474 55.3691 25.7666 55.2722 25.804 55.1818C25.8414 55.0914 25.8962 55.0093 25.9653 54.9402C26.0344 54.871 26.1164 54.8162 26.2066 54.7788C26.2968 54.7415 26.3935 54.7223 26.4912 54.7224H42.3904C42.488 54.7223 42.5847 54.7415 42.675 54.7788C42.7652 54.8162 42.8472 54.871 42.9163 54.9402C42.9853 55.0093 43.0401 55.0914 43.0775 55.1818C43.1149 55.2722 43.1342 55.3691 43.1342 55.467C43.1342 55.5649 43.1149 55.6618 43.0775 55.7522C43.0401 55.8426 42.9853 55.9247 42.9163 55.9938C42.8472 56.063 42.7652 56.1178 42.675 56.1552C42.5847 56.1925 42.488 56.2117 42.3904 56.2116Z" fill="#A38E23"/>
<path d="M32.1955 53.0104H26.4912C26.3935 53.0105 26.2968 52.9914 26.2066 52.954C26.1164 52.9166 26.0344 52.8618 25.9653 52.7927C25.8962 52.7235 25.8414 52.6414 25.804 52.551C25.7666 52.4606 25.7474 52.3637 25.7474 52.2658C25.7474 52.168 25.7666 52.0711 25.804 51.9807C25.8414 51.8903 25.8962 51.8081 25.9653 51.739C26.0344 51.6698 26.1164 51.615 26.2066 51.5776C26.2968 51.5403 26.3935 51.5211 26.4912 51.5212H32.1955C32.2931 51.5211 32.3898 51.5403 32.48 51.5776C32.5702 51.615 32.6522 51.6698 32.7213 51.739C32.7904 51.8081 32.8452 51.8903 32.8826 51.9807C32.92 52.0711 32.9392 52.168 32.9392 52.2658C32.9392 52.3637 32.92 52.4606 32.8826 52.551C32.8452 52.6414 32.7904 52.7235 32.7213 52.7927C32.6522 52.8618 32.5702 52.9166 32.48 52.954C32.3898 52.9914 32.2931 53.0105 32.1955 53.0104Z" fill="#A38E23"/>
<path d="M56.4797 38.2499C56.3588 38.25 56.2391 38.2265 56.1273 38.1807L36.2789 29.9253V4.08453C36.2792 3.85603 36.3699 3.63696 36.5311 3.47539C36.6923 3.31381 36.9108 3.22292 37.1387 3.22266H75.2163C75.4442 3.22292 75.6628 3.31381 75.824 3.47539C75.9852 3.63696 76.0758 3.85603 76.0761 4.08453V29.9433L76.0388 29.9593L56.8428 38.1766C56.7278 38.2251 56.6044 38.25 56.4797 38.2499Z" fill="white"/>
<path d="M56.4797 38.3114C56.3508 38.3116 56.2231 38.2865 56.1038 38.2377L36.2175 29.9664V4.08457C36.2178 3.83974 36.3149 3.60503 36.4876 3.43191C36.6603 3.25879 36.8945 3.16141 37.1387 3.16113H75.2163C75.4605 3.16141 75.6947 3.25879 75.8674 3.43191C76.0401 3.60503 76.1372 3.83974 76.1375 4.08457V29.984L56.8669 38.2333C56.7443 38.285 56.6126 38.3115 56.4797 38.3114ZM36.4632 29.802L56.1975 38.01C56.3816 38.0849 56.5877 38.0837 56.7709 38.0066L75.8918 29.8214V4.08457C75.8916 3.90503 75.8204 3.73291 75.6937 3.60596C75.5671 3.47901 75.3954 3.4076 75.2163 3.40738H37.1387C36.9596 3.4076 36.7879 3.47901 36.6613 3.60596C36.5346 3.73291 36.4634 3.90503 36.4632 4.08457V29.802Z" fill="#3F3D56"/>
<path d="M90.1402 23.8462H90.1156L76.0147 29.8818L56.7217 38.1398C56.6463 38.1716 56.5654 38.1881 56.4836 38.1886C56.4018 38.189 56.3207 38.1733 56.245 38.1422L36.3403 29.8645L21.893 23.856L21.8709 23.8462H21.8463C21.6183 23.8464 21.3998 23.9373 21.2386 24.0989C21.0774 24.2605 20.9867 24.4796 20.9865 24.7081V62.1381C20.9867 62.3666 21.0774 62.5857 21.2386 62.7472C21.3998 62.9088 21.6183 62.9997 21.8463 63H90.1402C90.3681 62.9997 90.5867 62.9088 90.7479 62.7473C90.9091 62.5857 90.9998 62.3666 91 62.1381V24.7081C90.9998 24.4796 90.9091 24.2605 90.7479 24.0989C90.5867 23.9373 90.3681 23.8464 90.1402 23.8462ZM90.7543 62.1381C90.7543 62.3013 90.6896 62.4579 90.5744 62.5733C90.4592 62.6888 90.3031 62.7537 90.1402 62.7537H21.8463C21.6834 62.7537 21.5273 62.6888 21.4121 62.5733C21.2969 62.4579 21.2322 62.3013 21.2321 62.1381V24.7081C21.2324 24.5489 21.294 24.3959 21.4041 24.2812C21.5142 24.1665 21.6643 24.0988 21.823 24.0924L36.3403 30.1305L56.1505 38.37C56.3649 38.4575 56.6052 38.4562 56.8187 38.3663L76.0147 30.149L90.1648 24.0924C90.3232 24.0993 90.4729 24.1671 90.5827 24.2818C90.6925 24.3964 90.754 24.5491 90.7543 24.7081V62.1381Z" fill="#3F3D56"/>
<path d="M53.3896 12.8821H39.8782C39.6176 12.8821 39.3677 12.7783 39.1834 12.5936C38.9991 12.4089 38.8956 12.1583 38.8956 11.8971C38.8956 11.6359 38.9991 11.3853 39.1834 11.2006C39.3677 11.0159 39.6176 10.9121 39.8782 10.9121H53.3896C53.6502 10.9121 53.9002 11.0159 54.0845 11.2006C54.2687 11.3853 54.3723 11.6359 54.3723 11.8971C54.3723 12.1583 54.2687 12.4089 54.0845 12.5936C53.9002 12.7783 53.6502 12.8821 53.3896 12.8821Z" fill="#A38E23"/>
<path d="M46.3883 8.69583H39.8782C39.6176 8.69583 39.3677 8.59206 39.1834 8.40733C38.9991 8.22261 38.8956 7.97207 38.8956 7.71083C38.8956 7.44959 38.9991 7.19905 39.1834 7.01433C39.3677 6.82961 39.6176 6.72583 39.8782 6.72583H46.3883C46.6489 6.72583 46.8988 6.82961 47.0831 7.01433C47.2674 7.19905 47.3709 7.44959 47.3709 7.71083C47.3709 7.97207 47.2674 8.22261 47.0831 8.40733C46.8988 8.59206 46.6489 8.69583 46.3883 8.69583Z" fill="#A38E23"/>
<path d="M66.283 22.7322H45.6474C45.3868 22.7322 45.1369 22.6284 44.9526 22.4437C44.7683 22.259 44.6648 22.0084 44.6648 21.7472C44.6648 21.486 44.7683 21.2354 44.9526 21.0507C45.1369 20.866 45.3868 20.7622 45.6474 20.7622H66.283C66.5436 20.7622 66.7935 20.866 66.9778 21.0507C67.1621 21.2354 67.2656 21.486 67.2656 21.7472C67.2656 22.0084 67.1621 22.259 66.9778 22.4437C66.7935 22.6284 66.5436 22.7322 66.283 22.7322Z" fill="#CCCCCC"/>
<path d="M66.283 27.2876H45.6474C45.3868 27.2876 45.1369 27.1839 44.9526 26.9991C44.7683 26.8144 44.6648 26.5639 44.6648 26.3026C44.6648 26.0414 44.7683 25.7908 44.9526 25.6061C45.1369 25.4214 45.3868 25.3176 45.6474 25.3176H66.283C66.5436 25.3176 66.7935 25.4214 66.9778 25.6061C67.1621 25.7908 67.2656 26.0414 67.2656 26.3026C67.2656 26.5639 67.1621 26.8144 66.9778 26.9991C66.7935 27.1839 66.5436 27.2876 66.283 27.2876Z" fill="#CCCCCC"/>
<path d="M5.02967 28.4392C4.902 28.439 4.77833 28.3946 4.6796 28.3134C4.58086 28.2323 4.51312 28.1195 4.48785 27.994L4.04091 25.7606C3.80388 24.576 4.04603 23.3455 4.71409 22.3398C5.38215 21.3341 6.4214 20.6357 7.60321 20.3981C8.78502 20.1605 10.0126 20.4032 11.0159 21.0728C12.0191 21.7425 12.7159 22.7842 12.953 23.9689L13.3998 26.2023C13.4285 26.3463 13.399 26.4959 13.3178 26.6181C13.2366 26.7404 13.1103 26.8254 12.9667 26.8545L5.13859 28.4283C5.10273 28.4356 5.06625 28.4392 5.02967 28.4392Z" fill="#2F2E41"/>
<path d="M18.9267 61.6929L17.5225 61.6928L16.8548 56.2634L18.9272 56.2636L18.9267 61.6929Z" fill="#A0616A"/>
<path d="M16.5195 61.2905H19.2277V62.9997H14.8144C14.8144 62.5464 14.994 62.1117 15.3138 61.7911C15.6336 61.4706 16.0673 61.2905 16.5195 61.2905Z" fill="#2F2E41"/>
<path d="M4.29527 61.6787L3.00223 61.1298L4.49929 55.8691L6.40759 56.6794L4.29527 61.6787Z" fill="#A0616A"/>
<path d="M2.23512 60.3675L4.72882 61.4262L4.06382 63.0001L6.66612e-06 61.2748C0.0873362 61.0681 0.214422 60.8807 0.37401 60.7232C0.533597 60.5658 0.722561 60.4414 0.930111 60.3571C1.13766 60.2729 1.35973 60.2304 1.58365 60.2322C1.80756 60.234 2.02893 60.28 2.23512 60.3675Z" fill="#2F2E41"/>
<path d="M8.62561 27.8795C10.2918 27.8795 11.6425 26.5255 11.6425 24.8554C11.6425 23.1852 10.2918 21.8313 8.62561 21.8313C6.95945 21.8313 5.60876 23.1852 5.60876 24.8554C5.60876 26.5255 6.95945 27.8795 8.62561 27.8795Z" fill="#A0616A"/>
<path d="M8.76841 38.6125L8.73745 38.5117C7.91539 35.8332 7.06568 33.0647 6.21477 30.4316L6.19174 30.3605L6.24404 30.3073C7.56483 28.9605 10.0392 28.4232 11.9997 29.058C13.9729 29.6965 15.3326 31.4874 15.1626 33.2239C15.0722 34.2671 15.3518 35.3088 15.9522 36.1658L16.0309 36.2802L15.9079 36.3447C13.7037 37.4816 11.3261 38.2429 8.87255 38.5973L8.76841 38.6125Z" fill="#3F3D56"/>
<path d="M5.12995 60.7033C5.02237 60.7031 4.91674 60.6745 4.82368 60.6204L3.19404 59.677C3.06036 59.6006 2.96041 59.4763 2.91417 59.3292C2.86793 59.182 2.87882 59.0228 2.94466 58.8833L6.5658 50.2705L9.33327 37.7087L14.3768 35.8704L14.4227 35.8915C19.8299 38.3813 19.4119 56.2275 19.2732 59.7797C19.2669 59.9292 19.2067 60.0712 19.1037 60.1794C19.0007 60.2876 18.8619 60.3546 18.7133 60.3678L17.1967 60.5664C17.0425 60.58 16.8888 60.5353 16.7658 60.4411C16.6429 60.3468 16.5595 60.2098 16.5322 60.0571L13.4361 46.1865C13.4329 46.1602 13.4214 46.1356 13.4032 46.1163C13.385 46.097 13.3611 46.0842 13.335 46.0796C13.31 46.0748 13.2842 46.0781 13.2611 46.089C13.2381 46.0999 13.2192 46.1178 13.207 46.1402L5.667 60.3876C5.62728 60.4592 5.57367 60.522 5.50934 60.5724C5.44501 60.6229 5.37125 60.6599 5.29242 60.6813C5.23948 60.6958 5.18484 60.7032 5.12995 60.7033Z" fill="#2F2E41"/>
<path d="M6.9413 48.0451C7.03653 47.9059 7.10016 47.7475 7.1277 47.5809C7.15524 47.4144 7.14602 47.2439 7.1007 47.0813C7.05537 46.9188 6.97505 46.7682 6.86537 46.6401C6.75569 46.512 6.61933 46.4096 6.4659 46.3401L6.54838 43.7031L4.96191 43.262L4.89762 46.9876C4.79818 47.2537 4.79957 47.5472 4.90154 47.8123C5.00351 48.0775 5.19896 48.2959 5.45087 48.4263C5.70278 48.5566 5.99364 48.5898 6.26834 48.5195C6.54303 48.4493 6.78248 48.2805 6.9413 48.0451Z" fill="#A0616A"/>
<path d="M4.92111 45.2577L4.828 45.2572C4.67453 45.2562 4.52709 45.1972 4.41503 45.0921C4.30296 44.987 4.23451 44.8434 4.22329 44.69C4.07113 42.726 3.60386 36.036 3.98018 32.409C4.03004 32.0705 4.14717 31.7455 4.32463 31.4532C4.50209 31.1609 4.73627 30.9073 5.0133 30.7075C5.29032 30.5076 5.60456 30.3655 5.93738 30.2896C6.2702 30.2136 6.61484 30.2055 6.95088 30.2655L7.04774 30.287L7.04702 30.3865C7.01253 35.1586 7.01475 39.9028 7.01691 44.4909C7.01725 44.631 6.9699 44.767 6.88268 44.8765C6.79546 44.9859 6.6736 45.0623 6.53722 45.0929C6.00557 45.2032 5.46402 45.2584 4.92111 45.2577Z" fill="#A38E23"/>
<path d="M8.53261 50.9811C8.1265 50.9793 7.73497 50.8291 7.43144 50.5587C7.12791 50.2882 6.93322 49.9161 6.88387 49.512L7.01747 38.4983L4.83366 32.9614C4.74176 32.234 4.89784 31.4969 5.27656 30.8696C5.65528 30.2424 6.2344 29.7618 6.91989 29.5061L7.5037 29.2866C7.61402 29.2451 7.73141 29.2259 7.84916 29.23C7.9669 29.2342 8.08267 29.2616 8.18983 29.3107C8.29698 29.3597 8.39342 29.4296 8.47359 29.5161C8.55377 29.6026 8.61611 29.7042 8.65704 29.8149L10.9089 35.9093L10.9094 35.9182C11.0656 38.3438 11.7703 50.4161 10.3652 50.7762C9.76984 50.916 9.16005 50.9847 8.54857 50.9809L8.53261 50.9811Z" fill="#A38E23"/>
<path d="M21.5056 43.887C21.3495 43.8236 21.2093 43.7266 21.0947 43.603C20.9801 43.4793 20.8939 43.332 20.8423 43.1713C20.7906 43.0107 20.7747 42.8406 20.7957 42.6732C20.8167 42.5057 20.8741 42.3449 20.9638 42.202L19.4439 40.0481L20.5244 38.803L22.6283 41.875C22.8576 42.0419 23.018 42.2875 23.0788 42.565C23.1397 42.8426 23.0969 43.1328 22.9585 43.3808C22.8201 43.6289 22.5958 43.8174 22.328 43.9107C22.0602 44.004 21.7676 43.9956 21.5056 43.887Z" fill="#A0616A"/>
<path d="M19.9878 41.1188C19.9084 41.1165 19.8308 41.095 19.7614 41.0563C19.692 41.0175 19.6329 40.9627 19.5891 40.8963L19.5811 40.8841C17.0661 37.0685 14.4655 33.1229 11.8298 29.1897L11.8015 29.1473L11.8377 29.1114C12.0689 28.8951 12.3413 28.7279 12.6386 28.6199C12.9359 28.5118 13.2519 28.4651 13.5677 28.4826C13.8928 28.4885 14.2129 28.5631 14.5073 28.7015C14.8016 28.8399 15.0635 29.039 15.2759 29.2858C17.5792 32.0949 20.8664 37.9253 21.819 39.6455C21.8791 39.7523 21.8969 39.8779 21.8688 39.9972C21.8407 40.1166 21.7688 40.221 21.6674 40.2896C21.1997 40.6088 20.6986 40.876 20.1731 41.0864C20.1142 41.1096 20.0511 41.1207 19.9878 41.1188Z" fill="#A38E23"/>
<path d="M19.1435 48.5263C17.637 48.5273 12.2473 38.1244 11.1821 36.039L11.1729 36.0137L9.99462 29.6324C9.97318 29.5163 9.97482 29.3971 9.99946 29.2816C10.0241 29.1661 10.0713 29.0566 10.1382 28.9595C10.2052 28.8623 10.2906 28.7793 10.3896 28.7154C10.4887 28.6514 10.5993 28.6076 10.7152 28.5866L11.3289 28.4754C12.0484 28.3432 12.7912 28.4587 13.437 28.803C14.0827 29.1474 14.5934 29.7004 14.8861 30.3724L16.4257 36.8595L21.5739 45.6275C21.743 46.0031 21.7678 46.4281 21.6437 46.821C21.5196 47.2138 21.2552 47.547 20.9012 47.7566C20.3779 48.0738 19.819 48.3278 19.2361 48.5133C19.206 48.5221 19.1748 48.5265 19.1435 48.5263Z" fill="#A38E23"/>
<path d="M10.9687 24.8816H4.88861V24.1428C4.88953 23.3267 5.21335 22.5443 5.78903 21.9673C6.36471 21.3902 7.14524 21.0656 7.95938 21.0647H8.4507C9.26484 21.0656 10.0454 21.3902 10.6211 21.9673C11.1967 22.5443 11.5206 23.3267 11.5215 24.1428V24.3275C11.5213 24.4744 11.463 24.6152 11.3594 24.7191C11.2558 24.823 11.1153 24.8814 10.9687 24.8816Z" fill="#2F2E41"/>
</g>
<defs>
<clipPath id="clip0_303_108">
<rect width="91" height="63" fill="white"/>
</clipPath>
</defs>
</svg>
