<svg width="22" height="25" viewBox="0 0 22 25" fill="none" xmlns="http://www.w3.org/2000/svg">
<path d="M19.8125 23.4375V23.9375H20.3125H21.2891C21.3365 23.9375 21.375 23.976 21.375 24.0234V24.5H0.5V24.0234C0.5 23.976 0.538496 23.9375 0.585938 23.9375H1.5625H2.0625V23.4375V1.17188C2.0625 0.800801 2.3633 0.5 2.73438 0.5H19.1406C19.5117 0.5 19.8125 0.800801 19.8125 1.17188V23.4375ZM12.5 23.9375H13V23.4375V19.3359C13 18.7362 12.5138 18.25 11.9141 18.25H9.96094C9.36121 18.25 8.875 18.7362 8.875 19.3359V23.4375V23.9375H9.375H12.5ZM6.83594 2.625C6.23621 2.625 5.75 3.11121 5.75 3.71094V5.66406C5.75 6.26379 6.23621 6.75 6.83594 6.75H8.78906C9.38879 6.75 9.875 6.26379 9.875 5.66406V3.71094C9.875 3.11121 9.38879 2.625 8.78906 2.625H6.83594ZM6.83594 7.3125C6.23621 7.3125 5.75 7.79871 5.75 8.39844V10.3516C5.75 10.9513 6.23621 11.4375 6.83594 11.4375H8.78906C9.38879 11.4375 9.875 10.9513 9.875 10.3516V8.39844C9.875 7.79871 9.38879 7.3125 8.78906 7.3125H6.83594ZM6.83594 16.125H8.78906C9.38879 16.125 9.875 15.6388 9.875 15.0391V13.0859C9.875 12.4862 9.38879 12 8.78906 12H6.83594C6.23621 12 5.75 12.4862 5.75 13.0859V15.0391C5.75 15.6388 6.23621 16.125 6.83594 16.125ZM15.0391 16.125C15.6388 16.125 16.125 15.6388 16.125 15.0391V13.0859C16.125 12.4862 15.6388 12 15.0391 12H13.0859C12.4862 12 12 12.4862 12 13.0859V15.0391C12 15.6388 12.4862 16.125 13.0859 16.125H15.0391ZM15.0391 11.4375C15.6388 11.4375 16.125 10.9513 16.125 10.3516V8.39844C16.125 7.79871 15.6388 7.3125 15.0391 7.3125H13.0859C12.4862 7.3125 12 7.79871 12 8.39844V10.3516C12 10.9513 12.4862 11.4375 13.0859 11.4375H15.0391ZM15.0391 6.75C15.6388 6.75 16.125 6.26379 16.125 5.66406V3.71094C16.125 3.11121 15.6388 2.625 15.0391 2.625H13.0859C12.4862 2.625 12 3.11121 12 3.71094V5.66406C12 6.26379 12.4862 6.75 13.0859 6.75H15.0391Z" fill="white" stroke="#BBAA52"/>
</svg>
