<svg width="111" height="84" viewBox="0 0 111 84" fill="none" xmlns="http://www.w3.org/2000/svg">
<g clip-path="url(#clip0_767_283)">
<path d="M44.4167 17.4197H44.0118V6.386C44.0118 5.54738 43.8457 4.71697 43.5231 3.94218C43.2004 3.1674 42.7275 2.46341 42.1313 1.87042C41.5351 1.27742 40.8273 0.807034 40.0484 0.486107C39.2694 0.16518 38.4346 7.10545e-07 37.5914 0H14.0893C12.3865 -3.22871e-06 10.7535 0.6728 9.54943 1.8704C8.34538 3.06801 7.66895 4.69231 7.66895 6.38597V66.9176C7.66894 67.7562 7.83501 68.5866 8.15766 69.3614C8.48032 70.1362 8.95323 70.8402 9.54942 71.4332C10.1456 72.0261 10.8534 72.4965 11.6323 72.8175C12.4113 73.1384 13.2462 73.3036 14.0893 73.3036H37.5914C39.2942 73.3036 40.9272 72.6308 42.1313 71.4332C43.3353 70.2356 44.0118 68.6113 44.0118 66.9176V25.2736H44.4167V17.4197Z" fill="#3F3D56"/>
<path d="M37.8504 1.66138H34.7826C34.9237 2.00541 34.9775 2.37867 34.9394 2.74828C34.9013 3.11789 34.7724 3.47251 34.564 3.78089C34.3556 4.08927 34.0742 4.34195 33.7446 4.51667C33.4149 4.69139 33.0471 4.78279 32.6735 4.78282H19.2095C18.8359 4.7828 18.4681 4.6914 18.1384 4.51667C17.8088 4.34195 17.5274 4.08927 17.319 3.78089C17.1106 3.47251 16.9817 3.1179 16.9436 2.74828C16.9055 2.37867 16.9593 2.00541 17.1004 1.66138H14.2351C13.6054 1.66138 12.982 1.78473 12.4002 2.02439C11.8185 2.26406 11.29 2.61534 10.8448 3.05818C10.3995 3.50102 10.0464 4.02675 9.8054 4.60535C9.56445 5.18395 9.44043 5.80409 9.44043 6.43036V66.8731C9.44043 67.4994 9.56445 68.1196 9.8054 68.6982C10.0464 69.2767 10.3995 69.8025 10.8447 70.2453C11.29 70.6882 11.8185 71.0395 12.4002 71.2791C12.982 71.5188 13.6054 71.6421 14.2351 71.6421H37.8504C38.48 71.6421 39.1035 71.5188 39.6852 71.2791C40.2669 71.0395 40.7955 70.6882 41.2407 70.2453C41.6859 69.8025 42.0391 69.2768 42.2801 68.6982C42.521 68.1196 42.645 67.4994 42.645 66.8731V6.43036C42.645 5.80409 42.521 5.18395 42.2801 4.60535C42.0391 4.02675 41.6859 3.50102 41.2407 3.05818C40.7955 2.61534 40.2669 2.26406 39.6852 2.02439C39.1035 1.78473 38.48 1.66138 37.8504 1.66138Z" fill="white"/>
<path d="M51.9495 73.314H0.135994C0.0999258 73.314 0.0653352 73.2997 0.0398315 73.2744C0.0143277 73.249 0 73.2146 0 73.1787C0 73.1428 0.0143277 73.1084 0.0398315 73.0831C0.0653352 73.0577 0.0999258 73.0435 0.135994 73.0435H51.9495C51.9856 73.0435 52.0202 73.0577 52.0457 73.0831C52.0712 73.1084 52.0855 73.1428 52.0855 73.1787C52.0855 73.2146 52.0712 73.249 52.0457 73.2744C52.0202 73.2997 51.9856 73.314 51.9495 73.314Z" fill="#CBCBCB"/>
<path d="M26.0427 46.7587C32.3852 46.7587 37.5269 41.6446 37.5269 35.336C37.5269 29.0274 32.3852 23.9133 26.0427 23.9133C19.7002 23.9133 14.5586 29.0274 14.5586 35.336C14.5586 41.6446 19.7002 46.7587 26.0427 46.7587Z" fill="#A38E23"/>
<path d="M24.9048 39.6934C24.6464 39.6938 24.3949 39.6107 24.1882 39.4565L24.1754 39.4469L21.4765 37.3934C21.3515 37.2981 21.2466 37.1792 21.1678 37.0436C21.089 36.9079 21.0378 36.7582 21.0172 36.6028C20.9965 36.4475 21.0069 36.2897 21.0476 36.1384C21.0883 35.987 21.1585 35.8451 21.2544 35.7208C21.3502 35.5965 21.4697 35.4921 21.6061 35.4137C21.7425 35.3354 21.893 35.2845 22.0492 35.2639C22.2053 35.2434 22.364 35.2537 22.5161 35.2942C22.6683 35.3347 22.811 35.4046 22.9359 35.4999L24.6841 36.8333L28.8151 31.4728C28.9108 31.3485 29.0303 31.2442 29.1666 31.1659C29.3029 31.0875 29.4534 31.0366 29.6095 31.0161C29.7656 30.9956 29.9242 31.0059 30.0763 31.0464C30.2284 31.0868 30.371 31.1567 30.4959 31.252L30.4963 31.2522L30.4706 31.2876L30.497 31.2522C30.7491 31.4449 30.914 31.7292 30.9556 32.0427C30.9971 32.3562 30.912 32.6733 30.7187 32.9245L25.8598 39.2267C25.7474 39.3719 25.6029 39.4894 25.4374 39.5701C25.272 39.6508 25.0901 39.6925 24.9058 39.6919L24.9048 39.6934Z" fill="white"/>
<path d="M94.4129 74.4367C94.5526 74.212 94.7171 74.0035 94.9032 73.8151C94.98 73.7359 95.061 73.6613 95.1445 73.5887C95.6523 73.1392 96.2713 72.8323 96.9378 72.6996C97.6044 72.5669 98.2944 72.6131 98.937 72.8336C99.5797 73.0541 100.152 73.4409 100.594 73.9541C101.037 74.4674 101.334 75.0886 101.455 75.7539C102.016 73.6908 100.556 71.6587 99.0878 70.0977C97.6191 68.5373 95.9405 66.8255 95.9489 64.6873C95.953 63.4976 96.5381 62.4361 97.4216 61.6492C97.4488 61.6254 97.4761 61.6016 97.5039 61.5786C98.5717 60.6682 99.9455 60.192 101.351 60.2451C103.962 60.3842 106.242 62.1296 107.825 64.1999C110.373 67.5312 111.49 72.2072 109.706 75.9993C108.137 79.3345 104.79 81.315 101.374 82.9072C100.897 83.1296 100.421 83.3452 99.9461 83.5542C99.943 83.555 99.9396 83.5573 99.9364 83.5581C99.9136 83.5681 99.8907 83.5781 99.8693 83.5884C99.7712 83.6314 99.6731 83.6744 99.5759 83.7169L99.621 83.7462L99.7614 83.8367C99.7127 83.8073 99.6645 83.7789 99.6158 83.7495C99.6014 83.7407 99.586 83.7323 99.5716 83.7234C97.894 82.7222 96.1931 81.663 95.0341 80.0999C93.8322 78.477 93.3489 76.1524 94.4129 74.4367Z" fill="#F1F1F1"/>
<path d="M105.606 70.6677C105.977 71.5082 106.223 72.3982 106.337 73.3094C106.426 74.1219 106.392 74.9432 106.237 75.7459C105.904 77.3954 105.178 78.9412 104.119 80.2533C103.32 81.2494 102.398 82.1411 101.374 82.9072C100.897 83.1295 100.421 83.3452 99.9462 83.5542C99.9431 83.555 99.9396 83.5572 99.9365 83.5581C99.9136 83.568 99.8907 83.578 99.8693 83.5883C99.7713 83.6314 99.6732 83.6744 99.576 83.7169L99.621 83.7462L99.7615 83.8366C99.7128 83.8073 99.6646 83.7788 99.6159 83.7495C99.6014 83.7406 99.5861 83.7323 99.5717 83.7233C99.9409 82.4389 99.9951 81.0851 99.7299 79.7755C99.4648 78.4658 98.8878 77.2385 98.0476 76.1963C97.2027 75.1672 96.1254 74.3513 94.9033 73.8151C94.9801 73.7359 95.061 73.6613 95.1445 73.5887C95.6153 73.8037 96.066 74.0596 96.4914 74.3536C98.0128 75.3995 99.1552 76.9049 99.7496 78.6469C100.28 80.2273 100.346 81.9254 99.9406 83.542C100.025 83.4872 100.109 83.431 100.192 83.3751C101.754 82.3268 103.195 81.0679 104.28 79.524C105.215 78.2192 105.814 76.7056 106.023 75.1164C106.231 73.3804 105.795 71.6733 105.015 70.1244C104.155 68.4672 103.071 66.9349 101.793 65.57C100.509 64.1673 99.058 62.9262 97.4714 61.8742C97.4357 61.8502 97.4106 61.8135 97.4013 61.7716C97.392 61.7297 97.3993 61.6859 97.4216 61.6492C97.4386 61.6158 97.4682 61.5904 97.504 61.5786C97.5221 61.5739 97.5411 61.5735 97.5594 61.5772C97.5778 61.5809 97.595 61.5886 97.61 61.5999C97.8058 61.7299 98 61.861 98.1919 61.9961C99.7897 63.1214 101.241 64.4398 102.512 65.921C103.74 67.3487 104.858 68.9349 105.606 70.6677Z" fill="white"/>
<path d="M71.4023 5.30387C72.7493 5.30387 73.8412 4.21778 73.8412 2.87801C73.8412 1.53824 72.7493 0.452148 71.4023 0.452148C70.0553 0.452148 68.9634 1.53824 68.9634 2.87801C68.9634 4.21778 70.0553 5.30387 71.4023 5.30387Z" fill="#F1F1F1"/>
<path d="M101.729 37.7676C102.55 37.7676 103.216 37.1054 103.216 36.2886C103.216 35.4717 102.55 34.8096 101.729 34.8096C100.908 34.8096 100.242 35.4717 100.242 36.2886C100.242 37.1054 100.908 37.7676 101.729 37.7676Z" fill="#F1F1F1"/>
<path d="M58.2108 41.8256C59.0321 41.8256 59.6978 41.1634 59.6978 40.3466C59.6978 39.5297 59.0321 38.8676 58.2108 38.8676C57.3896 38.8676 56.7239 39.5297 56.7239 40.3466C56.7239 41.1634 57.3896 41.8256 58.2108 41.8256Z" fill="#F1F1F1"/>
<path d="M59.0505 84H110.864C110.9 84 110.935 83.9858 110.96 83.9604C110.986 83.935 111 83.9006 111 83.8648C111 83.8289 110.986 83.7945 110.96 83.7691C110.935 83.7437 110.9 83.7295 110.864 83.7295H59.0505C59.0145 83.7295 58.9799 83.7437 58.9544 83.7691C58.9289 83.7945 58.9146 83.8289 58.9146 83.8648C58.9146 83.9006 58.9289 83.935 58.9544 83.9604C58.9799 83.9858 59.0145 84 59.0505 84Z" fill="#CBCBCB"/>
<path d="M105.146 13.0715C105.214 12.591 105.103 12.1024 104.833 11.6983C104.563 11.2942 104.153 11.0026 103.682 10.8787C103.21 10.7549 102.709 10.8075 102.274 11.0265C101.838 11.2455 101.499 11.6157 101.32 12.0669L97.1152 16.8613L98.3489 20.2885L102.577 14.6865C102.853 14.7744 103.145 14.8011 103.433 14.7646C103.72 14.7282 103.996 14.6295 104.241 14.4755C104.486 14.3215 104.694 14.116 104.85 13.8734C105.007 13.6308 105.108 13.3571 105.146 13.0715Z" fill="#FFB7B7"/>
<path d="M87.7176 31.7264L101.674 16.9109L99.7919 13.934L82.2864 28.6595L87.7176 31.7264Z" fill="#3F3D56"/>
<path d="M84.6026 22.7246C87.3064 22.7246 89.4983 20.5444 89.4983 17.855C89.4983 15.1657 87.3064 12.9855 84.6026 12.9855C81.8987 12.9855 79.7068 15.1657 79.7068 17.855C79.7068 20.5444 81.8987 22.7246 84.6026 22.7246Z" fill="#2F2E41"/>
<path d="M84.9961 15.1042C86.0496 14.0416 87.3244 13.2216 88.7309 12.702C89.6337 12.3693 90.6164 12.1638 91.5602 12.3527C92.5041 12.5416 93.3967 13.1911 93.66 14.1122C93.8753 14.8654 93.653 15.6764 93.3189 16.3854C92.9847 17.0945 92.5386 17.7519 92.2684 18.4874C91.9926 19.2379 91.9097 20.045 92.0271 20.8354C92.1445 21.6258 92.4586 22.3745 92.9407 23.0136C93.4228 23.6527 94.0578 24.1619 94.788 24.495C95.5181 24.8281 96.3204 24.9745 97.1219 24.921C96.1945 25.0447 95.3396 25.4781 94.4331 25.7089C93.5267 25.9396 92.4568 25.924 91.7832 25.278C91.0704 24.5946 91.0561 23.4834 91.0906 22.4993C91.1418 21.0364 91.1931 19.5736 91.2443 18.1107C91.2704 17.3646 91.2927 16.5946 91.0222 15.8983C90.7517 15.202 90.1089 14.5922 89.3584 14.5986C88.7896 14.6034 88.2861 14.9461 87.83 15.2841C87.3738 15.6221 86.891 15.9827 86.3245 16.033C85.7579 16.0833 85.111 15.6662 85.1534 15.102L84.9961 15.1042Z" fill="#2F2E41"/>
<path d="M66.0081 50.5519C65.5381 50.6817 65.0365 50.6356 64.5984 50.4222C64.1603 50.2089 63.8162 49.843 63.6311 49.3941C63.4461 48.9452 63.433 48.4443 63.5944 47.9865C63.7558 47.5286 64.0805 47.1455 64.5069 46.9099L68.7363 42.1372L72.3136 42.9059L67.2822 47.8077C67.4059 48.0683 67.4707 48.3527 67.4719 48.6409C67.4731 48.9291 67.4108 49.214 67.2893 49.4757C67.1678 49.7373 66.9901 49.9692 66.7688 50.1552C66.5474 50.3411 66.2878 50.4765 66.0081 50.5519Z" fill="#FFB7B7"/>
<path d="M79.923 33.4654L69.3815 46.6268L66.1682 45.1594L78.5586 25.9727L79.923 33.4654Z" fill="#3F3D56"/>
<path d="M71.5119 73.2073L68.9995 73.1681L69.3017 81.6852H71.5114L71.5119 73.2073Z" fill="#FFB7B7"/>
<path d="M72.0752 80.9676L67.7233 80.9674H67.7231C66.9876 80.9674 66.2822 81.2581 65.7621 81.7754C65.242 82.2927 64.9498 82.9943 64.9497 83.7259V83.8156L72.0751 83.8158L72.0752 80.9676Z" fill="#2F2E41"/>
<path d="M88.1463 70.9484L85.4019 72.7009L90.8916 79.27L92.7512 78.0825L88.1463 70.9484Z" fill="#FFB7B7"/>
<path d="M92.8357 77.1758L89.1735 79.5143L89.1734 79.5144C88.5545 79.9097 88.1187 80.5334 87.9621 81.2482C87.8054 81.963 87.9407 82.7104 88.338 83.3261L88.3867 83.4015L94.3827 79.5726L92.8357 77.1758Z" fill="#2F2E41"/>
<path d="M89.124 44.9407C89.124 44.9407 83.0261 24.7959 81.0664 24.5237C79.1067 24.2515 75.9492 29.6926 75.9492 29.6926C71.8554 34.8879 67.634 51.7167 67.634 51.7167C67.634 51.7167 74.6712 52.1547 79.8154 54.8769C84.9596 57.5992 91.0305 54.7391 91.0305 54.7391L89.124 44.9407Z" fill="#3F3D56"/>
<path opacity="0.1" d="M89.124 44.9407C89.124 44.9407 83.0261 24.7959 81.0664 24.5237C79.1067 24.2515 76.7512 29.7478 76.7512 29.7478C74.7113 38.1343 67.634 51.7167 67.634 51.7167C67.634 51.7167 74.6712 52.1547 79.8154 54.877C84.9596 57.5992 91.0305 54.7392 91.0305 54.7392L89.124 44.9407Z" fill="black"/>
<path d="M84.1211 38.9135V49.0361L85.3188 63.6994L91.3025 74.7912L88.4466 76.8202L80.287 66.2695L77.0598 55.7933L71.9914 78.9845L68.1836 78.7139L70.8281 46.5598L75.8464 37.5092L84.1211 38.9135Z" fill="#2F2E41"/>
<path d="M77.973 29.1227C76.0691 31.0164 77.837 33.0454 77.837 33.0454L75.6611 37.915L84.2287 40.2145L87.2228 26.9073L85.1829 24.743C81.1031 24.6078 81.1009 24.5237 81.1009 24.5237C80.3861 25.2195 77.973 29.1227 77.973 29.1227Z" fill="#A38E23"/>
<path d="M87.5678 25.5286C87.1786 25.2429 86.7364 25.0369 86.2666 24.9224C85.7969 24.8079 85.309 24.7872 84.8311 24.8616C84.3533 24.936 83.895 25.104 83.4829 25.3558C83.0708 25.6075 82.713 25.9382 82.4303 26.3285C80.2764 29.3114 78.2849 34.128 81.0289 40.1353C85.435 49.781 89.2692 54.7189 90.8279 54.7183C90.896 54.7189 90.9637 54.7083 91.0283 54.687C91.9877 54.3633 93.375 52.7484 93.6261 51.3253C93.716 50.816 93.6946 50.1065 93.0822 49.6193C91.323 48.2198 88.165 43.8622 87.1798 38.1266C86.6354 34.9574 87.6912 32.0705 88.6728 30.2068C89.0874 29.4357 89.2087 28.5418 89.0144 27.6889C88.8201 26.8361 88.3233 26.0814 87.6151 25.5633L87.5678 25.5286Z" fill="#3F3D56"/>
<path d="M84.8543 22.2462C86.6008 21.2967 87.2426 19.1187 86.2879 17.3816C85.3332 15.6445 83.1435 15.0061 81.3971 15.9557C79.6506 16.9053 79.0088 19.0832 79.9635 20.8203C80.9182 22.5574 83.1079 23.1958 84.8543 22.2462Z" fill="#FFB7B7"/>
<path d="M78.0576 18.8299H83.2615L83.3149 18.0868L83.5817 18.8299H84.383L84.4887 17.3571L85.0175 18.8299H86.568V18.7569C86.5668 17.7316 86.1568 16.7485 85.4278 16.0235C84.6989 15.2984 83.7105 14.8906 82.6797 14.8894H81.946C80.9151 14.8906 79.9267 15.2984 79.1978 16.0235C78.4688 16.7485 78.0588 17.7316 78.0576 18.7569V18.8299Z" fill="#2F2E41"/>
<path d="M85.7818 21.5011L88.0025 20.7843V15.4203H83.8079L83.9117 15.5234C85.3566 16.9587 86.9636 22.0509 85.7818 21.5011Z" fill="#2F2E41"/>
</g>
<defs>
<clipPath id="clip0_767_283">
<rect width="111" height="84" fill="white"/>
</clipPath>
</defs>
</svg>
