<svg width="27" height="24" viewBox="0 0 27 24" fill="none" xmlns="http://www.w3.org/2000/svg">
<path d="M8.4375 13.5H7.59375C5.72959 13.5 4.21875 15.0135 4.21875 16.8813V20.2437C4.21875 22.111 5.72959 23.625 7.59375 23.625H8.4375C9.36932 23.625 10.125 22.8677 10.125 21.9343V15.1907C10.125 14.2567 9.36932 13.5 8.4375 13.5ZM19.4062 13.5H18.5625C17.6307 13.5 16.875 14.2567 16.875 15.1907V21.9343C16.875 22.8677 17.6307 23.625 18.5625 23.625H19.4062C21.2704 23.625 22.7812 22.111 22.7812 20.2437V16.8813C22.7812 15.014 21.2704 13.5 19.4062 13.5ZM13.5 0C5.95424 0 0.240996 6.28225 0 13.5V19.4062C0 19.8724 0.377578 20.25 0.84375 20.25H1.6875C2.15367 20.25 2.53125 19.8724 2.53125 19.4062V13.5C2.53125 7.45295 7.45295 2.5418 13.5 2.54074C19.5471 2.5418 24.4688 7.45295 24.4688 13.5V19.4062C24.4688 19.8724 24.8463 20.25 25.3125 20.25H26.1562C26.6224 20.25 27 19.8724 27 19.4062V13.5C26.759 6.28225 21.0458 0 13.5 0Z" fill="#A38E23"/>
</svg>
