<svg width="133" height="67" viewBox="0 0 133 67" fill="none" xmlns="http://www.w3.org/2000/svg">
<g clip-path="url(#clip0_804_180)">
<path d="M43.5433 66.2823C39.5537 66.2823 35.5699 66.2109 31.5921 66.068C25.9084 65.8638 20.0311 65.6529 14.5684 62.6231C10.747 60.5038 7.36255 57.1037 4.78105 52.7899C3.05561 49.8661 1.79045 46.6942 1.02999 43.3855C-0.388548 37.3616 -0.340231 31.0851 1.17088 25.0837C1.70043 23.0261 2.43046 21.0253 3.35047 19.1102C7.33421 10.8607 14.6003 5.32299 23.2856 3.91718C23.3573 3.90787 23.4298 3.90632 23.5019 3.91256C23.541 3.91466 23.5799 3.91689 23.6196 3.91523L23.6707 3.89899C23.8017 3.85346 23.9363 3.81893 24.073 3.79575C37.4681 1.80161 51.6286 5.83645 65.0227 15.4638C75.3789 22.9086 89.1039 26.9175 106.982 27.7196L107.236 27.7329C112.213 28.0188 117.027 30.0706 121.158 33.6669C125.236 37.2163 128.298 41.952 130.013 47.3621C130.223 48.0217 130.417 48.7083 130.587 49.4026C130.745 50.048 130.734 50.7234 130.554 51.3631C130.375 52.0028 130.032 52.5851 129.561 53.0533V53.0546L129.516 53.1004C129.409 53.2069 129.296 53.3092 129.181 53.4043L129.045 53.5161C127.903 54.4572 127 55.2007 125.92 55.7781C125.2 56.1606 124.434 56.4499 123.641 56.6389C119.284 57.701 114.86 58.6858 110.491 59.566C102.006 61.2768 93.2975 62.6881 84.6074 63.7605C70.9839 65.4403 57.2701 66.2825 43.5433 66.2823ZM23.4003 4.20474C23.3736 4.20449 23.347 4.2063 23.3206 4.21016C14.7164 5.60282 7.51918 11.0861 3.57495 19.254C2.66401 21.1502 1.94121 23.1311 1.41692 25.1683C-0.0804208 31.1165 -0.128137 37.3372 1.27779 43.3077C2.0308 46.5847 3.28369 49.7263 4.99248 52.6222C7.54871 56.8936 10.8985 60.2597 14.6799 62.3565C20.0936 65.3592 25.9431 65.5693 31.6002 65.7723C49.2933 66.4045 67.0087 65.6335 84.58 63.4665C93.2644 62.3947 101.967 60.9844 110.446 59.2746C114.812 58.3951 119.234 57.4111 123.587 56.3495C124.362 56.1653 125.109 55.8831 125.812 55.5099C126.87 54.9441 127.764 54.2077 128.896 53.2755L129.031 53.1639C129.13 53.0821 129.228 52.9946 129.321 52.9036L129.348 52.8756C130.277 51.9383 130.639 50.7017 130.34 49.4831V49.4829C130.171 48.7959 129.98 48.1167 129.771 47.4639C126.269 36.412 117.207 28.6017 107.224 28.0283L106.971 28.015C98.8046 27.6486 91.6584 26.6335 85.1248 24.9115C77.3253 22.8559 70.5163 19.7615 64.8866 15.7146C51.5436 6.12415 37.4423 2.10433 24.1057 4.08901C23.9811 4.1105 23.8585 4.14228 23.7392 4.18402L23.6471 4.20979C23.5948 4.21213 23.5424 4.21151 23.4901 4.20792C23.4593 4.20633 23.4295 4.20474 23.4003 4.20474Z" fill="#F0F0F0"/>
<path d="M41.3007 21.5956C40.9314 21.2412 40.5536 19.2651 40.0821 19.0645C40.4345 19.8435 40.1786 20.0497 40.1767 20.9047C40.1812 21.3901 40.1245 21.8742 40.008 22.3455H32.0201V16.1115C32.0201 15.5514 32.1304 14.9967 32.3447 14.4792C32.5591 13.9617 32.8733 13.4915 33.2693 13.0954C33.6654 12.6994 34.1356 12.3852 34.6531 12.1708C35.1706 11.9565 35.7253 11.8462 36.2854 11.8462C36.4992 11.8504 36.7116 11.8815 36.9176 11.9387C37.6042 12.1241 38.23 12.4868 38.7322 12.9903C39.2344 13.4939 39.5953 14.1207 39.7788 14.8078C40.3878 17.0336 41.3562 20.7386 41.3007 21.5956Z" fill="#2F2E41"/>
<path d="M32.4888 29.2645L32.4927 24.4055L29.6365 24.6608L30.6445 27.7253L30.1727 35.4282C29.9439 35.4796 29.735 35.5964 29.5714 35.7644C29.4078 35.9324 29.2967 36.1444 29.2515 36.3746C29.2064 36.6047 29.2291 36.8429 29.317 37.0603C29.4049 37.2777 29.5542 37.4649 29.7466 37.5989C29.9391 37.7329 30.1663 37.8081 30.4007 37.8152C30.6351 37.8223 30.8665 37.761 31.0667 37.6389C31.2669 37.5167 31.4272 37.339 31.5281 37.1273C31.629 36.9156 31.6662 36.6792 31.635 36.4467L32.4888 29.2645Z" fill="#FFB6B6"/>
<path d="M38.1099 63.9871L39.2637 63.987L39.8127 59.5361H38.1096L38.1099 63.9871Z" fill="#FFB6B6"/>
<path d="M37.719 63.418L39.5431 63.3091V64.0906L41.2774 65.2884C41.3631 65.3475 41.4276 65.4325 41.4615 65.5309C41.4955 65.6293 41.4971 65.736 41.4661 65.8354C41.4351 65.9348 41.3732 66.0216 41.2893 66.0833C41.2055 66.145 41.1041 66.1783 41 66.1783H38.8283L38.454 65.4052L38.3078 66.1783H37.489L37.719 63.418Z" fill="#2F2E41"/>
<path d="M31.4376 63.9871L32.5916 63.987L33.1405 59.5361H31.4374L31.4376 63.9871Z" fill="#FFB6B6"/>
<path d="M31.0469 63.418L32.871 63.3091V64.0906L34.6053 65.2884C34.6909 65.3475 34.7554 65.4325 34.7894 65.5309C34.8233 65.6293 34.8249 65.736 34.7939 65.8354C34.763 65.9348 34.701 66.0216 34.6172 66.0833C34.5333 66.145 34.4319 66.1783 34.3278 66.1783H32.1562L31.7818 65.4052L31.6357 66.1783H30.8168L31.0469 63.418Z" fill="#2F2E41"/>
<path d="M37.0822 19.1582L34.6918 19.2051L33.0044 20.9862L31.6516 21.1846C31.0396 21.2744 30.477 21.5714 30.0578 22.0262C29.6386 22.4809 29.3882 23.0658 29.3484 23.683L29.5827 24.9703H30.9889L31.8023 29.7466C31.486 30.5526 31.4645 31.1888 32.1138 31.4387L34.1293 35.2353L40.082 32.5636C40.3839 32.0446 40.4807 31.5233 40.1721 31.0164L40.5976 23.7048H42.0285C42.0285 22.3373 41.566 21.1844 40.207 21.0323C39.6673 20.9739 39.125 20.9428 38.5821 20.9393L37.0822 19.1582Z" fill="#E6E6E6"/>
<path d="M40.0821 32.5636C40.0821 32.5636 34.2699 33.5948 32.1138 31.4387C32.1138 31.4387 31.8949 31.8103 31.5651 32.4266C31.4702 32.6039 31.287 32.7239 31.1764 32.9386C31.0758 33.1337 30.8172 33.3736 30.7077 33.5949C30.6195 33.7729 30.7609 34.0056 30.6692 34.1979C29.565 36.5139 28.275 39.7808 28.5515 41.938C28.7299 43.3292 29.0983 46.5663 29.4862 50.0431C29.5166 50.3147 29.271 50.6637 29.3015 50.9375C29.3302 51.1957 29.6349 51.3786 29.6637 51.6374C29.6828 51.8092 29.47 51.9845 29.489 52.1561C29.5099 52.3444 29.7626 52.529 29.7833 52.7166C30.3148 57.5173 30.8014 61.9993 30.8014 61.9993H33.52L34.0329 51.7628L33.6137 48.0314L34.598 40.485L35.9573 47.6564L36.1322 51.6925L37.5687 62.1868H40.0821V52.0277L40.2695 51.4999L40.0821 50.8231L40.2695 50.0938L40.0821 49.2995V32.5636Z" fill="#2F2E41"/>
<path d="M37.816 17.7719C37.4457 18.2638 36.9189 18.6149 36.3224 18.7675C35.7259 18.92 35.0952 18.8648 34.5343 18.611C33.9733 18.3572 33.5155 17.92 33.2363 17.3712C32.957 16.8225 32.8729 16.1951 32.9979 15.5922C33.1229 14.9893 33.4495 14.447 33.9239 14.0545C34.3983 13.662 34.9922 13.4428 35.6078 13.433C36.2234 13.4231 36.824 13.6232 37.3107 14.0003C37.7974 14.3774 38.1412 14.909 38.2854 15.5076C38.2932 15.54 38.2998 15.5723 38.3062 15.6059C38.3824 15.981 38.378 16.3681 38.2935 16.7415C38.209 17.1149 38.0463 17.4661 37.816 17.7719Z" fill="#FFB6B6"/>
<path d="M37.251 16.226C37.1935 15.9375 37.0481 15.6739 36.8347 15.4714C36.8558 15.7478 36.8174 16.0256 36.7222 16.286C36.0096 16.3491 35.2937 16.2073 34.659 15.8773C34.1809 15.5529 33.5725 15.581 32.8638 15.8773C32.8637 15.5326 32.9316 15.1912 33.0635 14.8727C33.1954 14.5543 33.3887 14.2649 33.6325 14.0211C33.8762 13.7774 34.1656 13.5841 34.4841 13.4522C34.8025 13.3203 35.1439 13.2524 35.4886 13.2524H35.9573C36.6534 13.2526 37.321 13.5292 37.8132 14.0214C38.3054 14.5136 38.582 15.1812 38.5821 15.8773C38.1495 16.0324 37.7041 16.1491 37.251 16.226Z" fill="#2F2E41"/>
<path d="M16.7448 49.6804C20.9094 49.6804 24.2856 46.3043 24.2856 42.1396C24.2856 37.975 20.9094 34.5989 16.7448 34.5989C12.5801 34.5989 9.20402 37.975 9.20402 42.1396C9.20402 46.3043 12.5801 49.6804 16.7448 49.6804Z" fill="#F0F0F0"/>
<path d="M64.7987 15.0815C68.9634 15.0815 72.3395 11.7054 72.3395 7.54077C72.3395 3.37612 68.9634 0 64.7987 0C60.6341 0 57.2579 3.37612 57.2579 7.54077C57.2579 11.7054 60.6341 15.0815 64.7987 15.0815Z" fill="#F0F0F0"/>
<path d="M124.681 50.8633C128.846 50.8633 132.222 47.4872 132.222 43.3225C132.222 39.1579 128.846 35.7817 124.681 35.7817C120.517 35.7817 117.14 39.1579 117.14 43.3225C117.14 47.4872 120.517 50.8633 124.681 50.8633Z" fill="#F0F0F0"/>
<path d="M78.4016 8.36313V25.4623C78.4017 25.8175 78.2616 26.1584 78.0118 26.4108C77.7619 26.6633 77.4226 26.807 77.0674 26.8107C77.0625 26.8112 77.0576 26.8114 77.0527 26.8113H75.0625C73.4702 26.8113 71.943 26.1788 70.817 25.0528C69.6911 23.9268 69.0585 22.3997 69.0585 20.8073V8.36313C69.0585 8.00536 69.2006 7.66224 69.4536 7.40926C69.7066 7.15628 70.0497 7.01416 70.4075 7.01416H71.2139C70.8403 8.10397 75.9107 8.56279 76.189 7.01416H77.0527C77.4104 7.01416 77.7536 7.15629 78.0065 7.40927C78.2595 7.66225 78.4016 8.00536 78.4016 8.36313Z" fill="#A38E23"/>
<path d="M72.4958 5.73562C72.4958 5.68875 72.5145 5.64382 72.5476 5.61068C72.5807 5.57754 72.6257 5.55889 72.6725 5.55884H73.8747C73.9215 5.55897 73.9663 5.57766 73.9994 5.6108C74.0324 5.64394 74.051 5.68883 74.051 5.73562C74.051 5.78242 74.0324 5.82731 73.9994 5.86045C73.9663 5.89359 73.9215 5.91228 73.8747 5.91241H72.6725C72.6257 5.91236 72.5807 5.89372 72.5476 5.86057C72.5145 5.82743 72.4958 5.78249 72.4958 5.73562Z" fill="#3F3D56"/>
<path d="M77.4657 28.9802H69.8634C69.2736 28.9796 68.7081 28.745 68.2911 28.3279C67.874 27.9109 67.6394 27.3454 67.6387 26.7556V14.8025C67.5969 14.7726 67.563 14.7331 67.5395 14.6873C67.5161 14.6416 67.5039 14.5909 67.504 14.5395V13.3374C67.5039 13.286 67.5161 13.2353 67.5395 13.1896C67.563 13.1439 67.597 13.1044 67.6387 13.0744V12.7518C67.597 12.7218 67.563 12.6823 67.5395 12.6366C67.5161 12.5909 67.5039 12.5402 67.504 12.4889V11.2866C67.5039 11.2353 67.5161 11.1846 67.5395 11.1389C67.563 11.0931 67.597 11.0537 67.6387 11.0237V10.4406C67.5871 10.4129 67.5441 10.3717 67.5141 10.3215C67.4842 10.2712 67.4684 10.2138 67.4686 10.1552V8.95311C67.4684 8.8946 67.4842 8.83713 67.5141 8.78687C67.5441 8.7366 67.5871 8.69541 67.6387 8.66772V7.06986C67.6394 6.48005 67.874 5.91458 68.2911 5.49753C68.7081 5.08047 69.2736 4.84588 69.8634 4.84521H77.4657C78.0555 4.84588 78.621 5.08048 79.038 5.49754C79.4551 5.9146 79.6897 6.48006 79.6904 7.06987V10.5528C79.7304 10.5779 79.7635 10.6127 79.7864 10.6541C79.8093 10.6954 79.8213 10.7419 79.8213 10.7891V13.0814C79.8213 13.1286 79.8093 13.1751 79.7864 13.2165C79.7635 13.2578 79.7304 13.2927 79.6904 13.3177V26.7556C79.6897 27.3454 79.4551 27.9109 79.038 28.3279C78.621 28.745 78.0555 28.9796 77.4657 28.9802ZM69.8634 5.14093C69.352 5.1415 68.8617 5.34491 68.5001 5.70654C68.1384 6.06816 67.935 6.55846 67.9344 7.06987V8.91926L67.7922 8.92474C67.7848 8.92501 67.7778 8.9281 67.7726 8.93338C67.7674 8.93865 67.7644 8.94572 67.7643 8.95312V10.1552C67.7645 10.1626 67.7674 10.1697 67.7726 10.175C67.7778 10.1802 67.7848 10.1833 67.7922 10.1836L67.9344 10.189V11.2313L67.8219 11.2591C67.8157 11.2606 67.8101 11.2641 67.8061 11.2691C67.8021 11.2741 67.7998 11.2802 67.7997 11.2866V12.4889C67.7998 12.4953 67.8021 12.5014 67.8061 12.5064C67.8101 12.5114 67.8157 12.5149 67.8219 12.5164L67.9344 12.5442V13.2821L67.8219 13.3098C67.8157 13.3113 67.8101 13.3148 67.8061 13.3198C67.8021 13.3248 67.7998 13.331 67.7997 13.3374V14.5395C67.7998 14.5459 67.8021 14.5521 67.8061 14.5571C67.8101 14.5621 67.8157 14.5657 67.8219 14.5672L67.9344 14.5949V26.7556C67.935 27.267 68.1384 27.7573 68.5001 28.1189C68.8617 28.4805 69.352 28.684 69.8634 28.6845H77.4657C77.9771 28.6839 78.4674 28.4805 78.829 28.1189C79.1906 27.7573 79.3941 27.267 79.3946 26.7556V13.0645H79.5256V10.806H79.3946V7.06986C79.3941 6.55846 79.1906 6.06816 78.829 5.70654C78.4674 5.34493 77.9771 5.14151 77.4657 5.14093L69.8634 5.14093Z" fill="#3F3D56"/>
<path d="M74.5465 5.91241C74.6441 5.91241 74.7233 5.83326 74.7233 5.73562C74.7233 5.63799 74.6441 5.55884 74.5465 5.55884C74.4488 5.55884 74.3697 5.63799 74.3697 5.73562C74.3697 5.83326 74.4488 5.91241 74.5465 5.91241Z" fill="#3F3D56"/>
<path d="M36.0892 39.9813H16.3077C16.0268 39.9805 15.7576 39.8686 15.5589 39.67C15.3603 39.4714 15.2483 39.2022 15.2476 38.9213V29.2825C15.2483 29.0016 15.3602 28.7324 15.5588 28.5338C15.7574 28.3351 16.0266 28.2232 16.3076 28.2224H36.0891C36.37 28.2231 36.6392 28.335 36.8378 28.5337C37.0365 28.7323 37.1484 29.0015 37.1492 29.2824V38.9211C37.1485 39.202 37.0366 39.4713 36.838 39.6699C36.6393 39.8686 36.3701 39.9805 36.0892 39.9813Z" fill="white"/>
<path d="M36.0892 39.9813H16.3077C16.0268 39.9805 15.7576 39.8686 15.5589 39.67C15.3603 39.4714 15.2483 39.2022 15.2476 38.9213V29.2825C15.2483 29.0016 15.3602 28.7324 15.5588 28.5338C15.7574 28.3351 16.0266 28.2232 16.3076 28.2224H36.0891C36.37 28.2231 36.6392 28.335 36.8378 28.5337C37.0365 28.7323 37.1484 29.0015 37.1492 29.2824V38.9211C37.1485 39.202 37.0366 39.4713 36.838 39.6699C36.6393 39.8686 36.3701 39.9805 36.0892 39.9813ZM16.3077 28.5181C16.1051 28.5187 15.911 28.5995 15.7678 28.7427C15.6246 28.886 15.5438 29.0801 15.5433 29.2827V38.9211C15.5439 39.1237 15.6246 39.3178 15.7679 39.4611C15.9111 39.6043 16.1053 39.685 16.3078 39.6855H36.0889C36.2915 39.685 36.4857 39.6043 36.6289 39.461C36.7722 39.3177 36.8529 39.1236 36.8535 38.921V29.2826C36.8529 29.08 36.7721 28.8859 36.6289 28.7426C36.4856 28.5994 36.2915 28.5187 36.0889 28.5181L16.3077 28.5181Z" fill="#3F3D56"/>
<path d="M27.2587 38.5567C23.3573 38.5567 19.2893 38.5194 17.7714 38.4953C17.5717 38.4911 17.3816 38.4091 17.2415 38.2667C17.1015 38.1243 17.0226 37.9328 17.0219 37.733V29.7543C17.022 29.6828 17.0504 29.6142 17.1009 29.5636C17.1514 29.513 17.2199 29.4844 17.2914 29.4841H35.1047C35.1763 29.4842 35.2448 29.5126 35.2955 29.5631C35.3461 29.6136 35.3747 29.6821 35.3749 29.7536V35.167C35.3716 36.0507 35.0221 36.8978 34.4013 37.5267C33.7805 38.1557 32.938 38.5162 32.0545 38.5311C30.6399 38.5495 28.9648 38.5567 27.2587 38.5567Z" fill="#A38E23"/>
<path d="M34.0474 34.6697H17.9516C17.8168 34.6694 17.6854 34.6275 17.5753 34.5498C17.4651 34.4722 17.3816 34.3625 17.3359 34.2357L15.5141 29.1248C15.479 29.0262 15.4681 28.9206 15.4822 28.8169C15.4964 28.7133 15.5352 28.6145 15.5954 28.5289C15.6556 28.4434 15.7355 28.3735 15.8283 28.3252C15.9212 28.2769 16.0242 28.2516 16.1289 28.2514L36.2483 28.2234C36.3439 28.2233 36.4384 28.2442 36.5251 28.2845C36.6118 28.3249 36.6886 28.3838 36.75 28.4571C36.8115 28.5304 36.8561 28.6163 36.8808 28.7087C36.9055 28.8011 36.9096 28.8978 36.8928 28.9919L36.9084 28.9985L36.8506 29.1333L36.85 29.1346L34.6477 34.2735C34.5975 34.3912 34.5138 34.4914 34.4071 34.5619C34.3004 34.6323 34.1753 34.6698 34.0474 34.6697ZM36.2492 28.5191L16.1294 28.5471C16.0721 28.5472 16.0157 28.5611 15.9648 28.5875C15.914 28.614 15.8702 28.6522 15.8372 28.6991C15.8042 28.746 15.7829 28.8001 15.7752 28.8569C15.7674 28.9137 15.7734 28.9715 15.7926 29.0255L17.6144 34.1362C17.6394 34.2057 17.6852 34.2658 17.7456 34.3083C17.806 34.3509 17.878 34.3738 17.9518 34.374H34.0474C34.1173 34.3741 34.1858 34.3535 34.2442 34.315C34.3026 34.2764 34.3484 34.2215 34.3759 34.1571L36.5783 29.0181C36.6016 28.9637 36.6111 28.9043 36.6058 28.8453C36.6005 28.7863 36.5807 28.7295 36.5481 28.68C36.5155 28.6306 36.4711 28.59 36.4189 28.5619C36.3668 28.5338 36.3084 28.5191 36.2492 28.5191Z" fill="#3F3D56"/>
<path d="M26.1684 35.7824C26.8644 35.7824 27.4287 35.2181 27.4287 34.5221C27.4287 33.826 26.8644 33.2617 26.1684 33.2617C25.4723 33.2617 24.908 33.826 24.908 34.5221C24.908 35.2181 25.4723 35.7824 26.1684 35.7824Z" fill="white"/>
<path d="M73.7787 24.8408C74.4748 24.8408 75.0391 24.2765 75.0391 23.5804C75.0391 22.8843 74.4748 22.3201 73.7787 22.3201C73.0827 22.3201 72.5184 22.8843 72.5184 23.5804C72.5184 24.2765 73.0827 24.8408 73.7787 24.8408Z" fill="white"/>
<path d="M121.448 41.8616L118.081 38.5377C117.917 38.3746 117.723 38.2455 117.509 38.1577C117.295 38.0699 117.066 38.0252 116.834 38.0261H116.823C116.59 38.0268 116.359 38.0737 116.144 38.164C115.93 38.2544 115.735 38.3864 115.572 38.5525C114.819 39.3144 114.391 40.3384 114.377 41.4093C114.364 42.4802 114.766 43.5147 115.499 44.2953C115.535 44.3338 115.572 44.3707 115.609 44.4077C115.813 44.6112 116.039 44.7922 116.283 44.9474C116.948 45.3774 117.725 45.605 118.517 45.6024H118.542C119.086 45.6005 119.624 45.4909 120.125 45.2797C120.627 45.0685 121.081 44.7601 121.462 44.3722C121.793 44.037 121.977 43.5845 121.974 43.1138C121.971 42.6432 121.782 42.1929 121.448 41.8616ZM121.252 44.1637C120.627 44.7934 119.804 45.1884 118.922 45.2822C118.04 45.3759 117.152 45.1626 116.409 44.6783C116.196 44.5376 115.997 44.3766 115.816 44.1977C115.09 43.4813 114.679 42.506 114.673 41.4864C114.666 40.4668 115.065 39.4865 115.782 38.761C115.918 38.6222 116.08 38.5119 116.259 38.4365C116.439 38.3611 116.631 38.3222 116.826 38.3219H116.834C117.027 38.3212 117.218 38.3584 117.396 38.4315C117.574 38.5046 117.736 38.612 117.872 38.7477L121.239 42.073C121.518 42.3487 121.676 42.7236 121.678 43.1156C121.681 43.5076 121.528 43.8846 121.252 44.1637Z" fill="#3F3D56"/>
<path d="M110.401 30.9527L107.034 27.6273C106.703 27.2985 106.255 27.1146 105.788 27.1157H105.778C105.544 27.1167 105.314 27.1638 105.099 27.2544C104.884 27.345 104.689 27.4773 104.525 27.6436C103.903 28.2756 103.499 29.0904 103.374 29.9685C103.248 30.8465 103.407 31.7417 103.827 32.5229L103.829 32.5244C104.002 32.8439 104.217 33.1388 104.469 33.4012C104.497 33.4337 104.53 33.4662 104.562 33.4988C105.335 34.2662 106.381 34.6958 107.471 34.6935H107.497C108.041 34.6912 108.579 34.5812 109.08 34.3698C109.582 34.1584 110.036 33.8498 110.417 33.4618C110.581 33.296 110.711 33.0995 110.798 32.8837C110.886 32.6679 110.93 32.4368 110.929 32.2038C110.927 31.9708 110.88 31.7404 110.789 31.5257C110.699 31.3111 110.567 31.1163 110.401 30.9527ZM110.206 33.2548C109.852 33.6148 109.43 33.9012 108.965 34.0974C108.5 34.2935 108.001 34.3956 107.496 34.3977H107.471C106.712 34.3975 105.971 34.173 105.34 33.7526C104.709 33.3322 104.217 32.7346 103.925 32.035C103.632 31.3354 103.554 30.565 103.698 29.8207C103.843 29.0765 104.204 28.3915 104.737 27.8521C105.012 27.5734 105.387 27.4154 105.779 27.413C106.171 27.4105 106.548 27.5636 106.827 27.8388L110.194 31.1626C110.473 31.4387 110.63 31.8141 110.633 32.2063C110.635 32.5985 110.481 32.9755 110.206 33.2548Z" fill="#3F3D56"/>
<path d="M121.663 42.9066L117.951 39.2407C117.708 39.0008 117.379 38.8673 117.037 38.8694C116.696 38.8715 116.369 39.0091 116.128 39.252C115.828 39.5558 115.59 39.9159 115.428 40.3117C115.267 40.7075 115.185 41.1313 115.187 41.5587C115.19 41.9862 115.276 42.409 115.442 42.803C115.608 43.1969 115.85 43.5543 116.154 43.8547C116.459 44.1551 116.819 44.3926 117.215 44.5536C117.611 44.7147 118.035 44.796 118.462 44.7932C118.89 44.7903 119.312 44.7031 119.706 44.5368C120.1 44.3704 120.457 44.1281 120.757 43.8236L121.663 42.9066Z" fill="#A38E23"/>
<path d="M110.617 31.9969L106.905 28.331C106.662 28.0911 106.333 27.9576 105.992 27.9597C105.65 27.9619 105.323 28.0994 105.083 28.3423C104.782 28.6461 104.544 29.0062 104.382 29.402C104.221 29.7978 104.139 30.2216 104.142 30.6491C104.144 31.0765 104.231 31.4993 104.397 31.8933C104.562 32.2873 104.804 32.6447 105.109 32.945C105.413 33.2454 105.773 33.4829 106.169 33.644C106.565 33.805 106.989 33.8864 107.416 33.8835C107.844 33.8806 108.267 33.7935 108.66 33.6271C109.054 33.4608 109.411 33.2184 109.711 32.9139L110.617 31.9969Z" fill="#A38E23"/>
<path d="M117.584 45.1898L117.495 45.4234C117.078 45.2652 116.674 45.1065 116.283 44.9473C109.351 42.1188 106.042 38.8083 103.829 32.5243L103.827 32.5228C103.722 32.2271 103.62 31.9245 103.521 31.615L103.755 31.5396C103.833 31.8372 103.947 32.1242 104.095 32.3942C104.216 32.7387 104.341 33.0743 104.469 33.4011C106.549 38.7048 109.617 41.7359 115.499 44.2953C115.795 44.4239 116.098 44.5516 116.409 44.6782C116.769 44.9131 117.166 45.0861 117.584 45.1898Z" fill="#3F3D56"/>
<path d="M106.973 34.4243L106.765 34.6348L114.444 42.2196L114.652 42.0091L106.973 34.4243Z" fill="#3F3D56"/>
<path d="M41.9569 28.1395L41.9609 23.2805L39.1046 23.5358L40.1126 26.6003L36.4536 32.1471C36.2248 32.1985 36.0158 32.3153 35.8523 32.4833C35.6887 32.6513 35.5775 32.8633 35.5324 33.0934C35.4872 33.3236 35.51 33.5618 35.5979 33.7792C35.6858 33.9966 35.8351 34.1837 36.0275 34.3178C36.2199 34.4518 36.4472 34.5269 36.6816 34.534C36.916 34.5411 37.1474 34.4799 37.3475 34.3578C37.5477 34.2356 37.7081 34.0579 37.809 33.8462C37.9099 33.6345 37.947 33.3981 37.9159 33.1656L41.9569 28.1395Z" fill="#FFB6B6"/>
</g>
<defs>
<clipPath id="clip0_804_180">
<rect width="132.222" height="66.2822" fill="white"/>
</clipPath>
</defs>
</svg>
