<svg width="82" height="116" viewBox="0 0 82 116" fill="none" xmlns="http://www.w3.org/2000/svg">
<path d="M52.1329 8.53177H35.9243V18.1001H52.1329V8.53177Z" fill="#2F2E41"/>
<path d="M19.8665 10.0746H11.5096V7.16926C11.5096 6.06441 11.9499 5.00481 12.7335 4.22357C13.5171 3.44232 14.5799 3.00342 15.688 3.00342C16.7962 3.00342 17.859 3.44232 18.6426 4.22357C19.4263 5.00481 19.8665 6.06441 19.8665 7.16926V10.0746ZM11.6947 9.89013H19.6815V7.16926C19.6815 6.11333 19.2607 5.10065 18.5118 4.354C17.7629 3.60734 16.7472 3.18788 15.688 3.18788C14.6289 3.18788 13.6132 3.60734 12.8643 4.354C12.1154 5.10065 11.6947 6.11333 11.6947 7.16926V9.89013Z" fill="#3F3D56"/>
<path d="M23.9987 9.67504V8.5396L2.74627 9.10732L2.07361 37.8675L5.21892 41.7412L23.9987 9.67504Z" fill="#3F3D56"/>
<path d="M27.7607 9.2753L4.72559 9.79794L5.21888 41.7412L27.4489 39.3523L27.7607 9.2753Z" fill="#A38E23"/>
<path d="M47.3454 112.769H44.7307L43.4869 102.714H47.3459L47.3454 112.769Z" fill="#FFB6B6"/>
<path d="M48.0122 115.296L39.5814 115.295V115.189C39.5815 114.321 39.9272 113.489 40.5426 112.876C41.158 112.262 41.9926 111.918 42.8629 111.918L48.0123 111.918L48.0122 115.296Z" fill="#2F2E41"/>
<path d="M37.7483 112.769H35.1336L33.8898 102.714H37.7487L37.7483 112.769Z" fill="#FFB6B6"/>
<path d="M38.415 115.296L29.9843 115.295V115.189C29.9843 114.321 30.3301 113.489 30.9454 112.876C31.5608 112.262 32.3955 111.918 33.2657 111.918L38.4152 111.918L38.415 115.296Z" fill="#2F2E41"/>
<path d="M30.0695 49.8103C30.0695 49.8103 26.2493 58.0124 29.7006 74.5222C33.1518 91.0319 33.1804 109.157 33.1804 109.157L38.4575 109.243L41.4219 70.221L42.974 108.692H48.1731L52.7551 70.8291C52.7551 70.8291 55.7703 53.9223 49.0464 50.8952L30.0695 49.8103Z" fill="#2F2E41"/>
<path d="M48.3553 20.8643L36.8008 19.8024C33.1774 22.4355 31.1437 27.1647 31.5612 32.0442C32.1272 38.6601 31.9357 47.7647 27.3934 51.7201C27.3934 51.7201 39.7737 61.4619 50.7711 52.2198C50.7711 52.2198 47.0106 42.1757 49.5925 38.1646C52.1744 34.1536 53.1058 22.8843 48.3553 20.8643Z" fill="#E4E4E4"/>
<path d="M13.975 4.51662C13.9396 4.84868 13.9776 5.18445 14.0864 5.50028C14.1952 5.8161 14.3722 6.1043 14.6048 6.34457C14.8374 6.58485 15.12 6.77135 15.4327 6.89095C15.7454 7.01054 16.0807 7.06033 16.4148 7.03678L31.6707 21.2314L34.405 17.0788L18.5491 4.43172C18.4723 3.87474 18.1931 3.36523 17.7647 2.99973C17.3362 2.63423 16.7881 2.43813 16.2242 2.44859C15.6604 2.45906 15.1201 2.67536 14.7055 3.05651C14.291 3.43766 14.031 3.95718 13.975 4.51662Z" fill="#FFB6B6"/>
<path d="M28.8218 19.0386L32.441 15.3321C32.544 15.2266 32.6685 15.1445 32.8062 15.0914C32.9439 15.0383 33.0914 15.0153 33.2388 15.0242C33.3861 15.033 33.5298 15.0734 33.6601 15.1426C33.7904 15.2118 33.9042 15.3082 33.9938 15.4252L37.1314 19.5253C37.6695 20.0536 37.9756 20.7731 37.9824 21.5261C37.9893 22.2791 37.6964 23.004 37.168 23.542C36.6396 24.08 35.9187 24.3872 35.1635 24.3961C34.4083 24.4051 33.6804 24.1152 33.1392 23.5899L28.9569 20.5836C28.8372 20.4975 28.7375 20.3867 28.6646 20.2587C28.5917 20.1307 28.5473 19.9886 28.5345 19.842C28.5217 19.6953 28.5407 19.5477 28.5903 19.409C28.6399 19.2704 28.7189 19.1441 28.8218 19.0386Z" fill="#E4E4E4"/>
<path d="M70.6532 39.0837C70.67 38.7502 70.6134 38.4171 70.4871 38.1078C70.3609 37.7985 70.1682 37.5205 69.9225 37.2935C69.6769 37.0665 69.3843 36.8959 69.0654 36.7938C68.7465 36.6917 68.409 36.6606 68.0767 36.7026L52.0534 23.3749L49.5547 27.6726L66.0908 39.4219C66.1986 39.9737 66.5057 40.467 66.9539 40.8082C67.4021 41.1494 67.9603 41.3148 68.5226 41.2732C69.085 41.2315 69.6125 40.9856 70.0052 40.5821C70.3978 40.1785 70.6284 39.6454 70.6532 39.0837Z" fill="#FFB6B6"/>
<path d="M55.02 25.4065L51.613 29.3078C51.5161 29.4188 51.3963 29.5077 51.2618 29.5683C51.1273 29.629 50.9812 29.6601 50.8336 29.6594C50.686 29.6588 50.5402 29.6264 50.4063 29.5645C50.2724 29.5026 50.1534 29.4127 50.0574 29.3008L46.6962 25.3809C46.1293 24.8832 45.7836 24.1817 45.7347 23.4302C45.6859 22.6788 45.9379 21.9387 46.4356 21.3722C46.9332 20.8057 47.6359 20.4591 48.3895 20.4083C49.1431 20.3576 49.8861 20.6068 50.4557 21.1015L54.7991 23.8714C54.9234 23.9507 55.0291 24.0558 55.109 24.1796C55.1889 24.3034 55.2412 24.4428 55.2621 24.5885C55.2831 24.7342 55.2723 24.8827 55.2305 25.0238C55.1888 25.165 55.117 25.2955 55.02 25.4065Z" fill="#E4E4E4"/>
<path d="M72.2811 44.7192H65.951V42.5185C65.951 41.6816 66.2845 40.879 66.8781 40.2872C67.4716 39.6954 68.2767 39.3629 69.1161 39.3629C69.9555 39.3629 70.7605 39.6954 71.3541 40.2872C71.9477 40.879 72.2811 41.6816 72.2811 42.5185L72.2811 44.7192ZM66.0912 44.5794H72.141V42.5185C72.141 41.7186 71.8223 40.9516 71.255 40.386C70.6877 39.8204 69.9183 39.5027 69.1161 39.5027C68.3138 39.5027 67.5444 39.8204 66.9772 40.386C66.4099 40.9516 66.0912 41.7186 66.0912 42.5185V44.5794Z" fill="#3F3D56"/>
<path d="M75.4112 44.4165V43.5564L59.3131 43.9866L58.8036 65.7715L61.186 68.7058L75.4112 44.4165Z" fill="#3F3D56"/>
<path d="M78.2609 44.1137L60.8124 44.5096L61.186 68.7057L78.0248 66.8962L78.2609 44.1137Z" fill="#A38E23"/>
<path d="M43.3887 17.8875C47.1579 17.8875 50.2134 14.8412 50.2134 11.0834C50.2134 7.32555 47.1579 4.27924 43.3887 4.27924C39.6196 4.27924 36.5641 7.32555 36.5641 11.0834C36.5641 14.8412 39.6196 17.8875 43.3887 17.8875Z" fill="#FFB6B6"/>
<path d="M40.2466 8.05086C42.6075 10.3575 46.7159 10.5786 49.3122 8.53868C50.0328 11.0165 50.1116 13.636 49.5415 16.1524C48.9713 18.6689 47.7706 21.0002 46.0517 22.9286C47.4959 23.4488 49.1584 23.1065 50.4493 22.2773C51.7401 21.4481 52.6961 20.182 53.4175 18.8305C55.2033 15.4849 55.6505 11.3997 54.387 7.82528C53.1236 4.25083 50.0967 1.28687 46.4193 0.327118C42.7419 -0.632634 38.5254 0.552898 36.0685 3.44481C33.4994 6.46885 33.0831 10.8999 34.209 14.7006C35.3348 18.5014 37.8042 21.7654 40.5173 24.6618C39.2141 21.3208 38.3499 17.8259 37.9463 14.2638C37.8083 13.0439 37.7276 11.7865 38.0733 10.6082C38.419 9.4299 39.2697 8.33238 40.4554 8.00131" fill="#2F2E41"/>
<path d="M81.4693 115.697H0.213271C0.156708 115.697 0.102465 115.674 0.0624686 115.635C0.0224726 115.595 0 115.541 0 115.484C0 115.428 0.0224726 115.374 0.0624686 115.334C0.102465 115.294 0.156708 115.272 0.213271 115.272H81.4693C81.5259 115.272 81.5801 115.294 81.6201 115.334C81.6601 115.374 81.6826 115.428 81.6826 115.484C81.6826 115.541 81.6601 115.595 81.6201 115.635C81.5801 115.674 81.5259 115.697 81.4693 115.697Z" fill="#CACACA"/>
</svg>
