<svg width="47" height="122" viewBox="0 0 47 122" fill="none" xmlns="http://www.w3.org/2000/svg">
<path d="M36.6055 66.8633C36.9764 68.7 38.2998 69.8913 39.5618 69.5231C40.8238 69.1549 41.5459 67.3658 41.175 65.529C41.0367 64.7926 40.7119 64.1168 40.2268 63.5645L38.5522 55.8104L34.6367 57.0839L36.7042 64.5933C36.4826 65.3536 36.4496 66.1333 36.6099 66.8633H36.6055Z" fill="#F8A8AB"/>
<path d="M27.7803 117.848H32.3761V111.413H27.7803V117.848Z" fill="#F8A8AB"/>
<path d="M31.8669 121.534C31.0812 121.604 27.1482 121.911 26.9506 121.021C26.7707 120.204 27.0362 119.351 27.0735 119.234C27.451 115.522 27.5915 115.48 27.6771 115.457C27.811 115.418 28.2017 115.602 28.836 116.005L28.8755 116.031L28.8842 116.076C28.8952 116.135 29.1761 117.497 30.5084 117.287C31.4214 117.144 31.7177 116.945 31.8121 116.847C31.7353 116.813 31.6387 116.752 31.5707 116.648C31.4719 116.496 31.4543 116.301 31.5202 116.067C31.6914 115.45 32.2049 114.538 32.2269 114.501L32.2861 114.397L37.5097 117.876L40.736 118.786C40.9797 118.855 41.175 119.026 41.2738 119.256C41.4098 119.576 41.3264 119.949 41.0631 120.183C40.4771 120.703 39.3138 121.593 38.0913 121.703C37.7665 121.734 37.3363 121.744 36.8535 121.744C34.8365 121.744 31.8911 121.539 31.8691 121.534H31.8669Z" fill="#2F2E43"/>
<path d="M15.0484 117.848H19.6442V111.413H15.0484V117.848Z" fill="#F8A8AB"/>
<path d="M19.135 121.534C18.3493 121.604 14.4163 121.911 14.2187 121.021C14.0388 120.204 14.3043 119.351 14.3416 119.234C14.7191 115.522 14.8596 115.48 14.9452 115.457C15.0791 115.418 15.4698 115.602 16.1041 116.005L16.1436 116.031L16.1523 116.076C16.1633 116.135 16.4442 117.497 17.7765 117.287C18.6895 117.144 18.9858 116.945 19.0802 116.847C19.0034 116.813 18.9068 116.752 18.8387 116.648C18.74 116.496 18.7224 116.301 18.7883 116.067C18.9595 115.45 19.473 114.538 19.495 114.501L19.5542 114.397L24.7778 117.876L28.0041 118.786C28.2478 118.855 28.4431 119.026 28.5419 119.256C28.6779 119.576 28.5945 119.949 28.3312 120.183C27.7452 120.703 26.5819 121.593 25.3594 121.703C25.0346 121.734 24.6044 121.744 24.1216 121.744C22.1046 121.744 19.1592 121.539 19.1372 121.534H19.135Z" fill="#2F2E43"/>
<path d="M18.7729 21.7203L25.8993 24.0313V13.9076H19.4335L18.7729 21.7203Z" fill="#F8A8AB"/>
<path d="M25.017 16.7104C28.9383 16.7104 32.1171 13.5733 32.1171 9.70351C32.1171 5.83372 28.9383 2.69662 25.017 2.69662C21.0958 2.69662 17.9169 5.83372 17.9169 9.70351C17.9169 13.5733 21.0958 16.7104 25.017 16.7104Z" fill="#F8A8AB"/>
<path d="M23.2085 10.2515L24.1874 11.4233L25.9586 8.36494C25.9586 8.36494 28.2192 8.47974 28.2192 6.82494C28.2192 5.17015 30.2933 5.12249 30.2933 5.12249C30.2933 5.12249 33.2277 0.0649716 27.1482 1.39704C27.1482 1.39704 22.932 -1.45337 20.8338 0.98334C20.8338 0.98334 14.4031 4.17813 16.2445 9.74249L19.3018 15.478L19.9954 14.1805C19.9954 14.1805 19.5762 8.73099 23.2107 10.2493L23.2085 10.2515Z" fill="#2F2E43"/>
<path d="M44.1643 75.5943L30.7476 71.3381C29.0927 70.814 27.315 71.6912 26.7509 73.3157L20.6889 90.7603C20.07 92.5407 21.163 94.4555 23.0264 94.8583L38.4469 98.1874C40.1412 98.5535 41.8224 97.516 42.2307 95.8525L46.2888 79.3349C46.6817 77.7321 45.7555 76.0989 44.1643 75.5943Z" fill="#E2E3E4"/>
<path d="M42.8035 79.2742L41.9388 79.1226C42.4918 76.0209 43.2556 67.7513 40.172 66.7376C38.6773 66.246 37.1717 67.1058 35.699 69.2956C34.5424 71.0176 33.8664 72.9236 33.8598 72.9431L33.0302 72.6594C33.1487 72.3236 35.969 64.4417 40.4485 65.9146C44.8754 67.3701 42.8891 78.7869 42.8013 79.272L42.8035 79.2742Z" fill="#2F2E43"/>
<path d="M32.6307 55.0566H8.64838L14.5172 114.77L21.321 114.337L21.6568 71.3338L25.9388 90.2058L27.192 114.012L33.3923 114.337L34.1122 87.2558L32.6307 55.0566Z" fill="#2F2E43"/>
<path d="M18.3844 18.0186L26.5051 19.968L33.4472 49.5746L32.6307 55.0566L12.2961 58.4528L8.64838 55.0566L18.3844 18.0186Z" fill="#BBAA52"/>
<path d="M18.3712 16.5371L15.5948 19.6106L9.96305 20.9449L0.360901 63.0772L18.8629 66.1702L24.0162 23.2603L18.3712 16.5371Z" fill="#2F2E43"/>
<path d="M26.5007 18.0728L25.0522 23.1671L31.7572 68.8516H35.2162L33.6206 24.1461L28.9237 20.464L26.5007 18.0728Z" fill="#2F2E43"/>
<path d="M30.8354 23.5808L33.6206 24.1462C33.6206 24.1462 34.8409 24.588 35.2842 28.0102C35.7253 31.4325 35.8044 42.9251 35.8044 42.9251L40.5407 61.4657L35.1613 63.2158L32.6285 53.2394L30.8332 23.5787L30.8354 23.5808Z" fill="#2F2E43"/>
<path d="M26.1891 21.2026L24.8415 23.6415L27.5366 52.2495L24.3915 55.1324L21.4703 52.4726L23.6058 23.7519L20.4936 21.2026L21.5822 20.425L22.7059 21.7549L24.9534 21.3131L25.8511 19.981L26.1891 21.2026Z" fill="#2F2E43"/>
<path d="M12.9523 59.6744C14.0827 61.1798 15.7946 61.6974 16.7756 60.8332C17.7567 59.969 17.636 58.0478 16.5057 56.5403C16.0623 55.9317 15.4763 55.4595 14.796 55.1649L9.92355 48.8598L6.93427 51.6625L12.0547 57.58C12.1842 58.3619 12.4914 59.0788 12.9523 59.6723V59.6744Z" fill="#F8A8AB"/>
<path d="M12.1886 21.6358L9.96307 20.9449C9.96307 20.9449 6.94744 21.6834 5.94882 25.4002L1.07422 43.5077L9.34194 57.829L13.76 52.5354L9.59873 39.388L12.1908 21.6358H12.1886Z" fill="#2F2E43"/>
</svg>
