<svg width="69" height="73" viewBox="0 0 69 73" fill="none" xmlns="http://www.w3.org/2000/svg">
<g clip-path="url(#clip0_92_84)">
<path d="M32.4045 41.7898C27.5719 41.7898 22.0179 36.4635 17.1041 38.9942C2.22626 46.6562 4.27428 33.835 0 29.0666L0.140325 28.7871C4.8565 32.987 10.7448 36.4042 17.1687 38.669C22.9739 40.7159 28.8226 41.6643 34.0804 41.414L34.0895 41.75C33.5343 41.7766 32.9726 41.7899 32.4045 41.7898Z" fill="#F2F2F2"/>
<path d="M67.6809 10.8328C63.8285 13.7307 56.1633 12.8152 53.7845 17.7791C46.5823 32.8084 40.4207 21.3597 34.1147 20.1216L34.0566 19.8146C40.3694 20.3346 47.1407 19.5278 53.6384 17.4811C59.5104 15.6318 64.7493 12.8806 68.7885 9.52831L69 9.79068C68.5736 10.1449 68.1339 10.4922 67.6809 10.8328Z" fill="#F2F2F2"/>
<path d="M10.708 19.4367C11.2659 19.4367 11.7182 18.8344 11.7182 18.0914C11.7182 17.3484 11.2659 16.7461 10.708 16.7461C10.1501 16.7461 9.69788 17.3484 9.69788 18.0914C9.69788 18.8344 10.1501 19.4367 10.708 19.4367Z" fill="#E6E6E6"/>
<path d="M53.1597 32.026C53.7176 32.026 54.1698 31.4237 54.1698 30.6807C54.1698 29.9377 53.7176 29.3354 53.1597 29.3354C52.6018 29.3354 52.1495 29.9377 52.1495 30.6807C52.1495 31.4237 52.6018 32.026 53.1597 32.026Z" fill="#E6E6E6"/>
<path d="M25.4167 2.69065C25.9745 2.69065 26.4268 2.08833 26.4268 1.34533C26.4268 0.602323 25.9745 0 25.4167 0C24.8588 0 24.4065 0.602323 24.4065 1.34533C24.4065 2.08833 24.8588 2.69065 25.4167 2.69065Z" fill="#E6E6E6"/>
<path d="M43.5266 49.66L42.3519 42.6438C42.3283 42.5018 42.3624 42.3563 42.4467 42.2391C42.531 42.122 42.6586 42.0429 42.8016 42.0191L48.1367 41.138C48.2797 41.1146 48.4263 41.1484 48.5442 41.2321C48.6621 41.3158 48.7418 41.4426 48.7657 41.5846L49.9404 48.6008C49.964 48.7428 49.93 48.8884 49.8457 49.0055C49.7614 49.1226 49.6338 49.2017 49.4908 49.2255L44.1556 50.1066C44.0126 50.1301 43.8661 50.0962 43.7482 50.0125C43.6302 49.9288 43.5506 49.802 43.5266 49.66Z" fill="#3F3D56"/>
<path d="M43.581 47.4733L42.8258 42.9626C42.8037 42.8296 42.8356 42.6933 42.9146 42.5836C42.9935 42.4739 43.113 42.3998 43.2469 42.3776L47.8321 41.6203C47.966 41.5983 48.1032 41.63 48.2137 41.7084C48.3241 41.7868 48.3987 41.9055 48.4211 42.0385L49.4665 48.282C49.4886 48.415 49.4567 48.5513 49.3777 48.661C49.2988 48.7707 49.1792 48.8448 49.0454 48.867L46.205 49.3361C45.6084 49.434 44.9971 49.2928 44.5052 48.9436C44.0132 48.5943 43.6809 48.0655 43.581 47.4733Z" fill="white"/>
<path d="M43.7789 44.0986C43.7573 43.9686 43.7885 43.8354 43.8656 43.7282C43.9428 43.621 44.0596 43.5486 44.1904 43.5268L47.3711 43.0015C47.4359 42.9908 47.5022 42.9929 47.5662 43.0077C47.6302 43.0224 47.6907 43.0495 47.7441 43.0875C47.7976 43.1254 47.843 43.1735 47.8778 43.2288C47.9125 43.2842 47.936 43.3459 47.9467 43.4102C47.9575 43.4746 47.9554 43.5404 47.9406 43.604C47.9257 43.6676 47.8984 43.7276 47.8602 43.7807C47.822 43.8338 47.7736 43.8789 47.7179 43.9134C47.6621 43.9479 47.6001 43.9712 47.5352 43.9819L44.3545 44.5072C44.2237 44.5287 44.0896 44.4977 43.9816 44.4211C43.8737 44.3445 43.8008 44.2285 43.7789 44.0986Z" fill="#BBAA52"/>
<path d="M44.0343 45.6236C44.0127 45.4936 44.0439 45.3604 44.121 45.2532C44.1981 45.146 44.3149 45.0736 44.4458 45.0519L47.6265 44.5266C47.6913 44.5159 47.7576 44.518 47.8216 44.5327C47.8856 44.5475 47.9461 44.5746 47.9995 44.6125C48.053 44.6505 48.0984 44.6985 48.1331 44.7539C48.1679 44.8093 48.1913 44.8709 48.2021 44.9353C48.2129 44.9996 48.2108 45.0655 48.1959 45.1291C48.1811 45.1926 48.1538 45.2527 48.1156 45.3058C48.0774 45.3588 48.029 45.4039 47.9732 45.4385C47.9175 45.473 47.8554 45.4963 47.7906 45.507L44.6099 46.0323C44.479 46.0537 44.3449 46.0228 44.237 45.9461C44.1291 45.8695 44.0562 45.7535 44.0343 45.6236Z" fill="#BBAA52"/>
<path d="M44.2897 47.1486C44.268 47.0186 44.2992 46.8854 44.3764 46.7783C44.4535 46.6711 44.5703 46.5987 44.7011 46.5769L47.8818 46.0516C48.0127 46.03 48.1469 46.0609 48.2549 46.1376C48.3628 46.2142 48.4357 46.3303 48.4575 46.4603C48.4792 46.5903 48.4481 46.7236 48.3709 46.8308C48.2938 46.938 48.1769 47.0104 48.046 47.032L44.8653 47.5573C44.7344 47.5788 44.6003 47.5478 44.4924 47.4712C44.3845 47.3946 44.3116 47.2786 44.2897 47.1486Z" fill="#BBAA52"/>
<path d="M41.1177 43.047C40.9788 42.8917 40.8758 42.708 40.8161 42.5089C40.7563 42.3098 40.7412 42.1001 40.7719 41.8946C40.8026 41.689 40.8783 41.4927 40.9936 41.3193C41.109 41.146 41.2612 40.9999 41.4396 40.8913L39.5786 32.0906L42.0452 33.0325L43.4731 41.4402C43.6369 41.7499 43.6806 42.1085 43.596 42.4481C43.5114 42.7877 43.3043 43.0846 43.014 43.2827C42.7237 43.4807 42.3703 43.5661 42.0208 43.5227C41.6713 43.4793 41.35 43.31 41.1177 43.047Z" fill="#FFB8B8"/>
<path d="M40.2966 70.8818L42.3268 70.8817L43.2926 63.1042L40.2963 63.1043L40.2966 70.8818Z" fill="#FFB6B6"/>
<path d="M39.7787 70.2234L40.3501 70.2234L42.5812 69.3223L43.777 70.2233H43.7771C44.4529 70.2233 45.1009 70.49 45.5788 70.9645C46.0566 71.4391 46.3251 72.0827 46.3251 72.7539V72.8361L39.7788 72.8364L39.7787 70.2234Z" fill="#2F2E41"/>
<path d="M21.952 68.2602L23.7691 69.1596L28.1268 62.6268L25.445 61.2994L21.952 68.2602Z" fill="#FFB6B6"/>
<path d="M21.7842 67.4416L22.2957 67.6947L24.6972 67.8767L25.3627 69.2129L25.3628 69.2129C25.9676 69.5124 26.4279 70.0381 26.6424 70.6746C26.8569 71.311 26.808 72.006 26.5066 72.6067L26.4697 72.6803L20.6107 69.7801L21.7842 67.4416Z" fill="#2F2E41"/>
<path d="M41.1961 35.5591L28.2873 35.8936L28.5118 42.1367C28.5118 42.1367 28.2873 43.809 28.7363 44.2549C29.1853 44.7009 29.4098 44.7009 29.1853 45.4812C28.9608 46.2616 28.3804 53.718 28.3804 53.718C28.3804 53.718 23.0822 63.0222 23.3067 63.2451C23.5312 63.4681 23.7557 63.2451 23.5312 63.8026C23.3067 64.36 23.0822 64.137 23.3067 64.36C23.5056 64.5729 23.6929 64.7962 23.868 65.0289H27.5269C27.5269 65.0289 27.7316 63.914 27.7316 63.8026C27.7316 63.6911 27.9561 63.0222 27.9561 62.9107C27.9561 62.7992 34.3488 56.0723 34.3488 56.0723L35.6958 44.9238L38.951 55.8493C38.951 55.8493 38.9511 65.437 39.1756 65.66C39.4001 65.883 39.4 65.7715 39.2878 66.2174C39.1755 66.6634 38.7266 66.5519 39.0633 66.8863C39.4001 67.2208 39.5123 66.6633 39.4001 67.2208L39.2878 67.7782L43.6004 67.826C43.6004 67.826 44.0494 66.8863 43.8249 66.5519C43.6004 66.2174 43.6138 66.3087 43.8877 65.7614C44.1616 65.2141 44.2739 65.1026 44.1616 64.9911C44.0494 64.8796 44.0494 64.2866 44.0494 64.2866C44.0494 64.2866 42.4308 42.3597 42.4308 42.0252C42.4223 41.8531 42.4543 41.6814 42.5241 41.5237V41.0697L42.0941 39.4611L41.1961 35.5591Z" fill="#2F2E41"/>
<path d="M52.8328 66.6918L52.9441 64.2045C54.1053 63.588 55.4003 63.2624 56.7169 63.2559C54.9049 64.7273 55.1314 67.5635 53.9029 69.5421C53.515 70.1563 52.9928 70.6759 52.3752 71.0625C51.7576 71.449 51.0604 71.6926 50.3351 71.7751L48.8188 72.6972C48.6107 71.5452 48.6566 70.362 48.9532 69.2293C49.2499 68.0966 49.7903 67.0412 50.5371 66.1358C50.9612 65.6321 51.4474 65.1833 51.9844 64.8002C52.3476 65.7513 52.8328 66.6918 52.8328 66.6918Z" fill="#F2F2F2"/>
<path d="M34.5119 13.6643L40.9778 26.6517L39.7128 42.4135L31.4504 41.6637L29.9688 15.561L34.5119 13.6643Z" fill="#2F2E41"/>
<path d="M43.5912 40.6734L39.813 40.3304L39.8071 40.2828L37.2716 19.4322L37.839 17.8697C37.9748 17.4987 38.2049 17.169 38.5069 16.9124C38.809 16.6559 39.1727 16.4813 39.5627 16.4057C39.8598 16.3489 40.1654 16.3509 40.4617 16.4119C40.758 16.4728 41.0393 16.5914 41.2892 16.7608C41.5392 16.9301 41.7529 17.147 41.9182 17.3988C42.0834 17.6506 42.1968 17.9323 42.2519 18.2278L42.9305 21.8679L43.8931 34.1724L43.5912 40.6734Z" fill="#2F2E41"/>
<path d="M33.7542 15.5903L34.5161 13.7797L36.8745 13.8208L39.3337 17.2757L41.9149 28.0565C41.9149 28.0565 42.8419 35.9318 41.9149 36.3476C40.9878 36.7633 37.8456 36.2499 37.8456 36.2499L33.7542 15.5903Z" fill="#BBAA52"/>
<path d="M36.8745 13.8208C36.8745 13.8208 41.9547 16.7374 42.1534 18.2599C42.3521 19.7824 43.0174 38.4168 43.0174 38.4168L41.2209 37.2639L40.7299 30.4723L38.5373 16.5673L36.8745 13.8208Z" fill="#2F2E41"/>
<path d="M35.6752 12.9725C37.5874 12.9725 39.1376 11.4329 39.1376 9.53373C39.1376 7.63457 37.5874 6.095 35.6752 6.095C33.763 6.095 32.2129 7.63457 32.2129 9.53373C32.2129 11.4329 33.763 12.9725 35.6752 12.9725Z" fill="#FFB8B8"/>
<path d="M31.7481 7.27425C32.1369 6.67688 32.8664 6.27875 33.5737 6.39063C33.6395 5.94234 33.8279 5.52057 34.1184 5.17126C34.4089 4.82195 34.7902 4.55849 35.221 4.40955C35.6518 4.26061 36.1155 4.23191 36.5616 4.32657C37.0077 4.42123 37.419 4.63563 37.7509 4.94641C37.8601 4.87009 37.9872 4.82305 38.12 4.80985C38.2528 4.79665 38.3868 4.81773 38.509 4.87106C38.7525 4.98099 38.9642 5.14981 39.125 5.36208C39.5308 5.86474 39.7918 6.46729 39.8802 7.10559C39.9686 7.74389 39.8811 8.39405 39.627 8.98687C39.7134 8.67478 39.3985 8.38118 39.0803 8.31114C38.7621 8.24111 38.4284 8.30736 38.1057 8.26176C37.6922 8.20332 37.3204 7.96505 36.9062 7.91143C36.5581 7.86636 36.2081 7.955 35.8686 8.04385C35.5292 8.13269 35.18 8.2233 34.8314 8.18219C34.4828 8.14108 34.0338 9.45318 34.0398 10.3773C34.0409 10.5525 34.0046 10.7773 33.8323 10.8145C33.6201 10.8603 33.4971 10.5694 33.2951 10.4901C33.202 10.4636 33.1022 10.474 33.0167 10.5192C32.9312 10.5643 32.8666 10.6407 32.8367 10.7322C32.8113 10.8252 32.8085 10.9229 32.8288 11.0171C32.849 11.1114 32.8916 11.1995 32.953 11.2741C33.0772 11.4219 33.2246 11.5489 33.3895 11.6501L33.3063 11.7188C33.168 11.9004 32.8809 11.9083 32.6814 11.7959C32.4907 11.6676 32.3363 11.493 32.2328 11.2886C31.8638 10.679 31.5401 10.0295 31.4098 9.33006C31.2796 8.63064 31.3593 7.87162 31.7481 7.27425Z" fill="#2F2E41"/>
<path d="M24.2065 32.7412L31.1238 25.3706C31.2639 25.2216 31.4579 25.1339 31.6631 25.1267C31.8683 25.1195 32.068 25.1935 32.2184 25.3324L37.8231 30.5208C37.9731 30.6601 38.0615 30.8527 38.0687 31.0565C38.0759 31.2603 38.0014 31.4587 37.8616 31.608L30.9443 38.9786C30.8041 39.1277 30.6101 39.2154 30.4049 39.2225C30.1997 39.2297 30 39.1557 29.8497 39.0169L24.245 33.8284C24.0949 33.6892 24.0066 33.4965 23.9994 33.2927C23.9922 33.0889 24.0667 32.8906 24.2065 32.7412Z" fill="#E6E6E6"/>
<path d="M26.7257 30.913L31.1728 26.1745C31.304 26.0349 31.4857 25.9527 31.6779 25.946C31.8701 25.9393 32.0571 26.0086 32.1979 26.1387L37.0147 30.5977C37.1552 30.7281 37.2379 30.9085 37.2447 31.0994C37.2515 31.2903 37.1817 31.476 37.0507 31.6159L30.8953 38.1748C30.764 38.3143 30.5824 38.3965 30.3902 38.4032C30.198 38.4099 30.0109 38.3406 29.8701 38.2105L26.8862 35.4482C26.2603 34.8675 25.8918 34.0638 25.8617 33.2136C25.8316 32.3633 26.1424 31.536 26.7257 30.913Z" fill="white"/>
<path d="M30.7118 28.2186C30.8401 28.0822 31.0176 28.0019 31.2054 27.9953C31.3932 27.9888 31.576 28.0565 31.7136 28.1836L35.055 31.2768C35.1925 31.4041 35.2735 31.5805 35.2801 31.767C35.2867 31.9536 35.2184 32.1352 35.0902 32.2718C34.962 32.4083 34.7845 32.4887 34.5966 32.4953C34.4087 32.5019 34.2259 32.434 34.0884 32.3067L30.747 29.2135C30.6097 29.0861 30.5289 28.9098 30.5223 28.7233C30.5157 28.5367 30.5839 28.3552 30.7118 28.2186Z" fill="#E6E6E6"/>
<path d="M29.2083 29.8206C29.3366 29.6843 29.5141 29.604 29.7019 29.5974C29.8897 29.5909 30.0725 29.6586 30.2101 29.7857L33.5515 32.8789C33.6195 32.9419 33.6745 33.0177 33.7131 33.1018C33.7517 33.1859 33.7733 33.2767 33.7765 33.3691C33.7798 33.4615 33.7647 33.5536 33.7321 33.6402C33.6996 33.7268 33.6501 33.8062 33.5867 33.8738C33.5232 33.9415 33.4469 33.996 33.3623 34.0344C33.2776 34.0727 33.1861 34.0941 33.0931 34.0974C33.0001 34.1006 32.9073 34.0856 32.8201 34.0533C32.7329 34.0209 32.653 33.9718 32.5849 33.9088L29.2435 30.8156C29.1062 30.6882 29.0254 30.5119 29.0187 30.3253C29.0121 30.1388 29.0803 29.9573 29.2083 29.8206Z" fill="#E6E6E6"/>
<path d="M27.7048 31.4227C27.833 31.2863 28.0106 31.2061 28.1984 31.1995C28.3862 31.1929 28.5689 31.2606 28.7065 31.3878L32.0479 34.481C32.1854 34.6083 32.2664 34.7846 32.273 34.9712C32.2796 35.1578 32.2113 35.3393 32.0831 35.4759C31.955 35.6125 31.7774 35.6929 31.5895 35.6995C31.4017 35.706 31.2189 35.6382 31.0814 35.5109L27.74 32.4177C27.6026 32.2903 27.5218 32.114 27.5152 31.9274C27.5086 31.7409 27.5768 31.5594 27.7048 31.4227Z" fill="#E6E6E6"/>
<path d="M35.8348 40.2079L33.4433 43.6089L33.3318 43.7423C33.1381 43.9736 32.8706 44.1322 32.5736 44.1918C32.5316 44.2002 32.4893 44.2065 32.4469 44.2107C32.3945 44.216 32.3419 44.2181 32.2892 44.2171C32.2591 44.2166 32.229 44.2149 32.199 44.2123C32.0245 44.1974 31.8547 44.1483 31.6995 44.0678L30.6792 43.36C30.5979 43.3038 30.54 43.2202 30.5161 43.1247C30.5042 43.0775 30.5008 43.0286 30.5061 42.9803C30.5136 42.9125 30.5382 42.8476 30.5776 42.7918L33.5223 38.604C33.5848 38.5153 33.6802 38.4549 33.7875 38.436C33.8948 38.4171 34.0052 38.4412 34.0946 38.503L35.7332 39.6396C35.7371 39.6423 35.7408 39.645 35.7447 39.6478C35.7471 39.6496 35.7495 39.6514 35.7519 39.6534C35.7552 39.6558 35.7583 39.6584 35.7614 39.661C35.7654 39.6642 35.7693 39.6675 35.773 39.6709C35.7765 39.674 35.7799 39.6772 35.7833 39.6804L35.7853 39.6823C35.7896 39.6864 35.7938 39.6906 35.7978 39.6949C35.8019 39.6992 35.8059 39.7036 35.8097 39.7081C35.8125 39.7113 35.8153 39.7146 35.818 39.7179L35.8183 39.7182C35.8261 39.728 35.8336 39.7381 35.8406 39.7487C35.8428 39.7519 35.8449 39.7553 35.8469 39.7586L35.8479 39.76C35.8496 39.7627 35.8512 39.7653 35.8527 39.7681C35.8575 39.7761 35.8619 39.7844 35.8661 39.7928C35.873 39.8067 35.8791 39.8209 35.8844 39.8355C35.8862 39.8402 35.8877 39.8449 35.8891 39.8496C35.8904 39.8534 35.8916 39.8573 35.8927 39.8614L35.893 39.8622L35.8934 39.8638C35.8945 39.8672 35.8954 39.8706 35.8962 39.874C35.8979 39.8805 35.8994 39.8872 35.9007 39.8938C35.9011 39.8956 35.9015 39.8974 35.9019 39.8993C35.9023 39.9011 35.9025 39.903 35.9029 39.9049C35.9033 39.9067 35.9035 39.9085 35.9038 39.9102L35.9043 39.9132C35.9052 39.9186 35.9058 39.924 35.9064 39.9294C35.9072 39.9361 35.9078 39.9429 35.9081 39.9496C35.9085 39.9552 35.9087 39.9608 35.9088 39.9663C35.9089 39.9714 35.9089 39.9763 35.9088 39.9814C35.9089 39.9826 35.9088 39.9839 35.9087 39.9852C35.9086 39.9904 35.9083 39.9955 35.9081 40.0007C35.9073 40.0137 35.9057 40.0266 35.9037 40.0393C35.9029 40.0441 35.9021 40.0488 35.9011 40.0534C35.9 40.0592 35.8988 40.0648 35.8974 40.0704C35.897 40.0725 35.8964 40.0746 35.8958 40.0767C35.895 40.0798 35.8941 40.0829 35.8933 40.086C35.8923 40.0894 35.8912 40.0928 35.8902 40.0962L35.8875 40.1043C35.8859 40.1091 35.8842 40.1138 35.8824 40.1185C35.8813 40.1214 35.8802 40.1242 35.879 40.127C35.8707 40.1473 35.8609 40.1669 35.8495 40.1856C35.848 40.1879 35.8466 40.1902 35.8452 40.1924C35.8419 40.1977 35.8384 40.2028 35.8348 40.2079Z" fill="white"/>
<path d="M34.2153 40.3371C34.4092 40.3371 34.5664 40.181 34.5664 39.9884C34.5664 39.7959 34.4092 39.6398 34.2153 39.6398C34.0214 39.6398 33.8643 39.7959 33.8643 39.9884C33.8643 40.181 34.0214 40.3371 34.2153 40.3371Z" fill="#BBAA52"/>
<path d="M30.2495 43.6728C30.1105 43.5175 30.0075 43.3338 29.9478 43.1347C29.888 42.9355 29.873 42.7258 29.9036 42.5203C29.9343 42.3148 30.01 42.1184 30.1254 41.9451C30.2407 41.7718 30.3929 41.6257 30.5713 41.5171L28.7103 32.7164L31.1769 33.6582L32.6048 42.066C32.7686 42.3757 32.8124 42.7343 32.7277 43.0738C32.6431 43.4134 32.436 43.7104 32.1457 43.9084C31.8554 44.1065 31.502 44.1919 31.1525 44.1485C30.803 44.105 30.4817 43.9358 30.2495 43.6728Z" fill="#FFB8B8"/>
<path d="M28.883 40.1016L27.8792 33.6779L27.502 21.3409L27.7823 17.6432C27.805 17.3435 27.8873 17.0512 28.0242 16.7832C28.1612 16.5153 28.3502 16.2768 28.5804 16.0817C28.8105 15.8866 29.0773 15.7387 29.3653 15.6464C29.6533 15.5542 29.9568 15.5194 30.2584 15.5442C30.6543 15.5777 31.0349 15.7124 31.3629 15.9351C31.691 16.1579 31.9555 16.4611 32.1307 16.8154L32.8641 18.3082L32.6022 39.3566L28.883 40.1016Z" fill="#2F2E41"/>
<path d="M60.4571 72.8155C60.4572 72.8398 60.4524 72.8638 60.4431 72.8862C60.4338 72.9086 60.4201 72.929 60.4029 72.9461C60.3856 72.9633 60.3651 72.9769 60.3425 72.9861C60.32 72.9953 60.2958 73.0001 60.2714 73H10.28C10.2307 73 10.1835 72.9806 10.1486 72.946C10.1138 72.9114 10.0942 72.8644 10.0942 72.8155C10.0942 72.7666 10.1138 72.7197 10.1486 72.6851C10.1835 72.6505 10.2307 72.6311 10.28 72.6311H60.2714C60.2958 72.631 60.32 72.6357 60.3425 72.6449C60.3651 72.6542 60.3856 72.6678 60.4029 72.6849C60.4201 72.7021 60.4338 72.7224 60.4431 72.7448C60.4524 72.7673 60.4572 72.7913 60.4571 72.8155Z" fill="#CCCCCC"/>
<path d="M32.964 10.9275C32.9662 10.8886 32.9779 10.8508 32.9983 10.8175C33.0187 10.7841 33.047 10.7563 33.0808 10.7364C33.1146 10.7165 33.1528 10.7052 33.192 10.7034C33.2312 10.7017 33.2703 10.7095 33.3057 10.7263C33.3412 10.7431 33.3719 10.7683 33.3952 10.7997C33.4185 10.831 33.4337 10.8676 33.4394 10.9062C33.4451 10.9448 33.4412 10.9842 33.4279 11.0209C33.4146 11.0576 33.3925 11.0905 33.3634 11.1167L33.7653 11.7728C33.7818 11.7997 33.7869 11.832 33.7794 11.8626C33.7719 11.8932 33.7525 11.9196 33.7254 11.936C33.6983 11.9523 33.6657 11.9574 33.6349 11.9499C33.6041 11.9425 33.5775 11.9232 33.561 11.8963L33.1091 11.1586C33.0639 11.1396 33.0257 11.1072 32.9998 11.0658C32.9738 11.0245 32.9613 10.9762 32.964 10.9275Z" fill="white"/>
<path d="M33.2461 11.3736C33.2609 11.4028 33.2969 11.4146 33.3264 11.3998C33.3559 11.3851 33.3677 11.3494 33.3528 11.3201L33.2451 11.108C33.2303 11.0787 33.1943 11.0669 33.1648 11.0817C33.1353 11.0965 33.1235 11.1322 33.1384 11.1615L33.2461 11.3736Z" fill="#2F2E41"/>
</g>
<defs>
<clipPath id="clip0_92_84">
<rect width="69" height="73" fill="white"/>
</clipPath>
</defs>
</svg>
