<svg width="51" height="51" viewBox="0 0 51 51" fill="none" xmlns="http://www.w3.org/2000/svg">
<rect x="0.5" y="0.5" width="46" height="46" rx="2" fill="white" stroke="#A38E23"/>
<path d="M37.4167 18.3334C37.4292 18.2434 37.4292 18.1521 37.4167 18.0621V17.9588C37.3945 17.8867 37.3641 17.8174 37.3262 17.7521C37.3095 17.7149 37.2878 17.6802 37.2617 17.6488L37.1325 17.4809L37.0292 17.4034L36.8742 17.2871L25.2492 10.8288C25.0528 10.7154 24.8301 10.6558 24.6033 10.6558C24.3766 10.6558 24.1539 10.7154 23.9575 10.8288L12.3325 17.2871L12.2162 17.3776L12.0742 17.4809C12.0366 17.5231 12.0061 17.5711 11.9837 17.623C11.9424 17.66 11.9075 17.7037 11.8804 17.7521C11.8469 17.8088 11.8208 17.8696 11.8029 17.933C11.7957 17.9757 11.7957 18.0194 11.8029 18.0621C11.7141 18.1387 11.6397 18.2306 11.5833 18.3334V28.6667C11.585 28.8969 11.6482 29.1224 11.7662 29.32C11.8843 29.5176 12.0531 29.68 12.255 29.7905L23.88 36.2488C23.9334 36.2799 23.9896 36.3059 24.0479 36.3263H24.1771C24.3893 36.3778 24.6107 36.3778 24.8229 36.3263H24.9521L25.1329 36.2488L36.7579 29.7905C36.9574 29.6783 37.1236 29.5152 37.2393 29.3177C37.3551 29.1203 37.4163 28.8956 37.4167 28.6667V18.3334ZM24.5 23.3321L15.5358 18.3334L19.1008 16.3701L27.9229 21.4076L24.5 23.3321ZM24.5 13.3605L33.4642 18.3334L30.5708 19.948L21.7487 14.8976L24.5 13.3605ZM14.1667 20.5292L23.2083 25.5926V32.9292L14.1667 27.9046V20.5292ZM25.7917 32.9292V25.5926L29.6667 23.4226V27.3751L32.25 26.0834V21.9759L34.8333 20.5421V27.9046L25.7917 32.9292Z" fill="#A38E23"/>
<g clip-path="url(#clip0_1038_294)">
<rect x="32" y="32" width="19" height="19" rx="2" fill="white"/>
<path d="M39.9167 44.3387L37.3097 41.7318L36.1903 42.8512L39.9167 46.5776L47.6014 38.8929L46.482 37.7734L39.9167 44.3387Z" fill="#107E0E"/>
</g>
<rect x="32.5" y="32.5" width="18" height="18" rx="1.5" stroke="#107E0E"/>
<defs>
<clipPath id="clip0_1038_294">
<rect x="32" y="32" width="19" height="19" rx="2" fill="white"/>
</clipPath>
</defs>
</svg>
