<svg width="58" height="109" viewBox="0 0 58 109" fill="none" xmlns="http://www.w3.org/2000/svg">
<path d="M57.6281 26.9251L57.6225 26.9623L57.6073 27.0697L56.042 38.3027L46.457 41.8195L46.3069 41.7477L40.9405 39.1992L38.1657 28.5524L37.9756 27.8215L38.0335 27.7993L49.9048 23.3393L57.621 26.9208L57.6281 26.9251Z" fill="#A38E23"/>
<path d="M46.3069 41.7478L40.9405 39.1992L37.9756 27.8216L38.0335 27.7994L45.7676 31.0624L46.3069 41.7478Z" fill="#A38E23"/>
<path opacity="0.2" d="M46.4414 41.6179L42.3596 33.7955L42.8838 31.5779L40.4148 28.6704L40.2045 28.849L42.5832 31.6501L40.8064 39.1674L41.0749 39.231L42.2626 34.2059L46.1968 41.7454L46.4414 41.6179Z" fill="black"/>
<path d="M57.6281 27.0629L57.6073 27.0697L45.7676 31.2003L38.1657 28.5524L37.9756 27.8215L38.0335 27.7993L49.9048 23.3393L57.621 26.9208L57.6225 26.9623L57.6281 27.0629Z" fill="#3F3D56"/>
<path d="M45.9744 31.4072L43.5609 29.5455L44.1125 27.4767L51.0081 24.9942L55.6971 25.27L57.559 26.8561L57.6968 27.2697L45.9744 31.4072Z" fill="#A38E23"/>
<path d="M38.1134 27.8216L43.5609 27.6146L46.512 26.613L51.113 24.9942L51.9736 23.7531L49.8264 23.3688L38.1134 27.8216Z" fill="#A38E23"/>
<path d="M48.9667 25.6023L46.1263 26.5991L46.2176 26.8593L49.058 25.8625L48.9667 25.6023Z" fill="#CCCCCC"/>
<path d="M11.5541 9.47385L10.2224 16.1316L16.4365 20.7923L19.3217 12.1369L11.5541 9.47385Z" fill="#9F616A"/>
<path d="M16.5474 15.5769C19.8568 15.5769 22.5396 12.8941 22.5396 9.58471C22.5396 6.27535 19.8568 3.59258 16.5474 3.59258C13.2381 3.59258 10.5553 6.27535 10.5553 9.58471C10.5553 12.8941 13.2381 15.5769 16.5474 15.5769Z" fill="#9F616A"/>
<path d="M3.56444 54.9863C3.59184 56.9195 12.0117 78.4353 10.8427 81.2369C8.99983 83.1207 5.03591 93.147 3.34237 95.8217C3.12058 95.8216 2.01093 99.1506 2.01093 99.1506C2.01093 99.1506 4.6741 103.367 7.55921 101.592C11.1869 93.0595 20.2723 88.3007 20.4328 77.1801C20.8713 80.6931 22.1658 103.242 22.1658 103.242C22.1658 103.242 21.9175 103.348 27.5069 103.883C28.3746 90.7959 31.9208 68.5304 23.9818 54.5422C21.5409 53.4328 3.56444 54.9863 3.56444 54.9863Z" fill="#2F2E41"/>
<path d="M22.1655 102.803C21.906 103.302 20.0453 107.908 21.7386 108.37C23.6913 108.902 25.5842 108.156 25.5842 108.156C25.5842 108.156 29.0025 109.224 31.0944 107.867C32.0708 106.89 31.8489 106.003 31.3829 105.359C31.1462 105.042 30.8431 104.781 30.4948 104.593C30.1465 104.405 29.7614 104.296 29.3664 104.272C28.3048 104.197 27.9677 104 27.8461 103.513C27.6686 102.803 22.1655 102.803 22.1655 102.803Z" fill="#2F2E41"/>
<path d="M3.90464 98.7815C3.90464 98.7815 -0.865295 100.288 0.138903 102.045C0.791075 103.134 1.74334 104.012 2.88169 104.574C2.88169 104.574 3.87651 108.675 6.63806 108.675C8.01884 108.675 8.48954 107.891 8.61507 107.106C8.67183 106.715 8.64242 106.316 8.52889 105.937C8.41536 105.558 8.22045 105.208 7.95777 104.912C7.26063 104.108 7.16137 103.73 7.41932 103.3C7.7959 102.673 3.90464 98.7815 3.90464 98.7815Z" fill="#2F2E41"/>
<path d="M25.0927 55.636C25.0927 55.636 24.2039 57.4114 20.6532 56.7448C17.1024 56.0803 3.12154 56.7448 3.12154 56.7448C3.12154 56.7448 3.89707 40.8774 2.12169 31.3339C0.346302 21.7905 7.33674 16.3532 7.33674 16.3532L9.5565 14.1335C11.7763 13.9134 16.4636 20.8013 16.4636 20.8013C18.0061 21.0598 19.4461 27.6165 20.6745 33.8208C20.7472 34.1754 20.8155 34.5258 20.8839 34.8762C21.4501 37.7689 22.2384 40.9885 22.7106 43.8791C22.7448 44.0842 22.7768 44.2872 22.8067 44.4902C23.368 48.2438 24.1311 51.9645 25.0927 55.636Z" fill="#E6E6E6"/>
<path d="M9.53748 5.8537C9.53748 5.8537 8.41715 3.38898 11.33 2.26866C11.33 2.26866 13.7947 -1.76452 18.7241 0.924271C18.7241 0.924271 22.0851 2.26866 22.0851 5.8537C22.0851 9.43874 23.2054 10.1109 23.2054 10.1109C23.2054 10.1109 21.5371 8.39935 21.089 7.05497C20.6408 5.71058 17.1557 5.40558 15.8113 6.74997C14.4669 8.09436 11.1059 7.87029 11.1059 7.87029L11.33 12.7997C11.33 12.7997 10.2097 9.88687 9.76155 9.88687C9.31342 9.88687 8.86529 5.8537 9.53748 5.8537Z" fill="#2F2E41"/>
<path opacity="0.2" d="M22.7107 43.8791C17.4166 41.0013 8.8409 34.6903 6.07421 31.2762C2.4273 26.779 6.40536 23.3607 6.40536 23.3607C10.9154 20.515 16.3078 30.2785 16.3078 30.2785L20.6746 33.8207C20.7473 34.1754 20.8157 34.5258 20.884 34.8761C21.4502 37.7689 22.2385 40.9885 22.7107 43.8791Z" fill="black"/>
<path d="M38.5146 40.5628C38.5146 40.5628 46.3852 43.7579 47.6807 40.1661C48.9761 36.5744 41.4666 36.636 41.4666 36.636L38.5186 37.0537L38.5146 40.5628Z" fill="#9F616A"/>
<path d="M5.39642 21.8992C5.39642 21.8992 1.42029 25.3195 5.06459 29.8152C8.70889 34.3109 25.4571 43.9166 25.4571 43.9166L36.3666 40.9674L39.4539 41.5324L40.036 35.7361L35.4878 36.1801L23.9422 33.7217L16.58 27.748C16.58 27.748 9.90526 19.0549 5.39642 21.8992Z" fill="#E6E6E6"/>
<path opacity="0.2" d="M19.8814 63.1024L20.577 79.3566L18.8132 63.1024H19.8814Z" fill="black"/>
</svg>
