<svg width="25" height="20" viewBox="0 0 25 20" fill="none" xmlns="http://www.w3.org/2000/svg">
<path d="M12.0052 19.5H1.875C1.11599 19.5 0.5 18.884 0.5 18.125V16.5C0.5 13.8777 2.6277 11.75 5.25 11.75H5.79536C6.70154 12.1486 7.69813 12.375 8.75 12.375C9.80119 12.375 10.8015 12.1489 11.705 11.75H12.25C13.4874 11.75 14.6072 12.2354 15.4503 13.0222L12.7793 15.6933L12.4707 16.0019L12.3461 16.1265L12.3271 16.3017L12.2804 16.7336L12.2802 16.7353L12.0148 19.1125L12.0147 19.1135C12.0004 19.2439 11.9976 19.373 12.0052 19.5ZM19.4061 12.2499L21.4999 14.3438L16.5907 19.253L14.3859 19.4992L14.3824 19.4996C14.3128 19.5079 14.2422 19.4472 14.251 19.3627C14.251 19.3625 14.251 19.3624 14.251 19.3622L14.497 17.1555L19.4061 12.2499ZM13.25 5C13.25 7.48558 11.2356 9.5 8.75 9.5C6.26442 9.5 4.25 7.48558 4.25 5C4.25 2.51442 6.26442 0.5 8.75 0.5C11.2356 0.5 13.25 2.51442 13.25 5ZM22.8925 9.37699L24.3711 10.8556C24.3714 10.8559 24.3717 10.8561 24.372 10.8564C24.5414 11.0286 24.5414 11.3035 24.372 11.4756C24.3717 11.4759 24.3714 11.4762 24.3711 11.4765L23.0935 12.7541L20.9964 10.6599L22.2793 9.37699C22.4474 9.20897 22.7245 9.20897 22.8925 9.37699Z" fill="white" stroke="#A38E23"/>
</svg>
