<svg width="119" height="80" viewBox="0 0 119 80" fill="none" xmlns="http://www.w3.org/2000/svg">
<g clip-path="url(#clip0_224_201)">
<path d="M119 42.5188C119 58.7005 108.774 72.4879 94.4518 77.7341C92.2729 78.5338 90.0239 79.1259 87.7343 79.5025C81.4356 80.5387 74.9777 79.9504 68.9682 77.7932C54.5549 72.5901 44.2546 58.7561 44.2614 42.5108C44.2614 21.8189 60.9926 5.03758 81.6307 5.03758C89.4305 5.0262 97.0366 7.47366 103.374 12.0341C112.835 18.8329 119 29.9535 119 42.5188Z" fill="#E5E5E5"/>
<path d="M94.4518 77.7341C92.2729 78.5337 90.0238 79.1258 87.7343 79.5025C81.4356 80.5386 74.9777 79.9504 68.9681 77.7931L70.6939 70.8477L70.7981 70.4309L74.3199 70.4445L92.0126 70.5081L92.239 71.1794L94.4518 77.7341Z" fill="#2F2E41"/>
<path d="M32.4605 0H0V36.8401H32.4605V0Z" fill="#E6E6E6"/>
<path d="M31.825 0.779358H0.578766V36.0608H31.825V0.779358Z" fill="white"/>
<path d="M16.2303 34.8063C17.1976 34.8063 17.9818 34.0198 17.9818 33.0496C17.9818 32.0794 17.1976 31.2928 16.2303 31.2928C15.263 31.2928 14.4788 32.0794 14.4788 33.0496C14.4788 34.0198 15.263 34.8063 16.2303 34.8063Z" fill="#E6E6E6"/>
<path d="M15.9344 13.2682H5.87445V14.3005H15.9344V13.2682Z" fill="#E6E6E6"/>
<path d="M21.0576 16.3613H5.87445V17.3935H21.0576V16.3613Z" fill="#A38E23"/>
<path d="M19.5673 19.4739H5.87445V20.5061H19.5673V19.4739Z" fill="#E6E6E6"/>
<path d="M27.019 22.5042H5.87445V23.5364H27.019V22.5042Z" fill="#A38E23"/>
<path d="M23.3266 25.3901H6.09427V26.4223H23.3266V25.3901Z" fill="#E6E6E6"/>
<path d="M46.1578 59.9462C46.2812 60.0733 46.3945 60.21 46.4965 60.355L62.3625 59.9657L64.2134 56.5733L69.6829 58.7059L66.9878 65.0308C66.7701 65.5417 66.393 65.9681 65.9132 66.2458C65.4333 66.5235 64.8766 66.6376 64.3266 66.571L46.4007 64.399C45.9778 64.936 45.402 65.331 44.7499 65.5317C44.0977 65.7324 43.4001 65.7291 42.7498 65.5224C42.0995 65.3157 41.5273 64.9154 41.1095 64.3746C40.6916 63.8338 40.4477 63.1782 40.4104 62.495C40.373 61.8118 40.5439 61.1334 40.9004 60.55C41.2568 59.9667 41.7819 59.5059 42.4057 59.2292C43.0296 58.9524 43.7227 58.8727 44.3928 59.0006C45.063 59.1286 45.6784 59.4582 46.1572 59.9455L46.1578 59.9462Z" fill="#9F616A"/>
<path d="M67.5127 40.5752L74.9377 38.1345L77.1185 35.1348L87.7309 35.7647L89.289 39.2652L94.9479 41.9471L94.0782 58.1463L92.5904 73.3065C84.9401 69.3332 70.6627 72.3624 70.5376 72.4117L67.5127 40.5752Z" fill="#A38E23"/>
<path d="M69.0999 62.5017L61.5475 59.4709L61.5796 59.3361C61.612 59.1998 64.8265 45.7273 65.2533 43.5623C65.6979 41.3067 67.3223 40.6831 67.3913 40.6577L67.4416 40.6391L70.4305 41.5516L71.7432 51.8965L69.0999 62.5017Z" fill="#A38E23"/>
<path d="M85.4071 72.6401C85.5842 72.6359 85.7613 72.6457 85.9368 72.6694L96.4395 60.7354L95.2178 57.0683L100.496 54.4955L103.288 60.778C103.513 61.2855 103.569 61.8527 103.445 62.3945C103.322 62.9362 103.027 63.4233 102.604 63.7825L88.8287 75.4895C88.9336 76.1655 88.8309 76.8576 88.5341 77.4736C88.2374 78.0897 87.7607 78.6005 87.1674 78.9382C86.5741 79.2759 85.8924 79.4244 85.2129 79.364C84.5334 79.3036 83.8884 79.0372 83.3635 78.6001C82.8387 78.1631 82.459 77.5761 82.2749 76.9173C82.0907 76.2585 82.1109 75.5591 82.3328 74.9121C82.5546 74.2651 82.9676 73.7012 83.5168 73.2953C84.0659 72.8895 84.7253 72.6609 85.4071 72.6401Z" fill="#9F616A"/>
<path d="M95.6011 61.8971L91.22 51.5607L92.9288 44.3608L94.7699 42.0277C94.9048 41.9699 95.0501 41.9408 95.1968 41.9421C95.3434 41.9435 95.4882 41.9753 95.622 42.0357C96.3014 42.3098 96.8789 43.1499 97.3406 44.5326L101.447 56.263L95.6011 61.8971Z" fill="#A38E23"/>
<path d="M72.8705 31.3046V23.5119C72.866 22.1406 73.1308 20.7818 73.6498 19.5132C74.1688 18.2446 74.9319 17.0909 75.8954 16.118C76.859 15.1451 78.0042 14.3722 79.2655 13.8432C80.5269 13.3142 81.8799 13.0396 83.2471 13.0351C84.6142 13.0305 85.969 13.2961 87.2338 13.8167C88.4987 14.3373 89.6489 15.1026 90.6189 16.0691C91.5888 17.0355 92.3595 18.1841 92.8869 19.4493C93.4143 20.7144 93.6881 22.0714 93.6926 23.4427C93.6927 23.4658 93.6927 23.4888 93.6926 23.5119V31.3046C93.6922 31.6765 93.5447 32.033 93.2825 32.296C93.0203 32.5589 92.6648 32.7069 92.2941 32.7073H74.269C73.8982 32.7069 73.5428 32.5589 73.2806 32.296C73.0184 32.033 72.8709 31.6765 72.8705 31.3046Z" fill="#2F2E41"/>
<path d="M81.1421 32.5257C85.3577 32.5257 88.7751 29.0981 88.7751 24.8699C88.7751 20.6417 85.3577 17.2141 81.1421 17.2141C76.9266 17.2141 73.5092 20.6417 73.5092 24.8699C73.5092 29.0981 76.9266 32.5257 81.1421 32.5257Z" fill="#9F616A"/>
<path d="M70.4075 24.1354C70.41 21.9453 71.2785 19.8457 72.8224 18.2972C74.3664 16.7486 76.4597 15.8775 78.6432 15.8751H80.1972C82.3806 15.8775 84.4739 16.7486 86.0179 18.2972C87.5618 19.8457 88.4303 21.9454 88.4327 24.1354V24.2912H85.1487L84.0286 21.145L83.8047 24.2912H82.1076L81.5426 22.704L81.4293 24.2912H70.4075V24.1354Z" fill="#2F2E41"/>
<path d="M80.391 33.5836C80.2369 33.3742 80.1448 33.1254 80.1254 32.8659C80.106 32.6063 80.1602 32.3465 80.2815 32.1164C81.9282 28.975 84.2336 23.1703 81.1735 19.5905L80.9541 19.3336H89.8384V32.7121L81.7677 34.1404C81.686 34.1549 81.6032 34.1622 81.5203 34.1623C81.2999 34.1623 81.0827 34.1099 80.8865 34.0094C80.6903 33.9088 80.5207 33.763 80.3916 33.584L80.391 33.5836Z" fill="#2F2E41"/>
<path d="M16.2021 2.86926C15.4654 2.86922 14.7453 3.08828 14.1328 3.49874C13.5202 3.9092 13.0428 4.49261 12.7609 5.17521C12.4789 5.85782 12.4051 6.60894 12.5488 7.33361C12.6925 8.05828 13.0472 8.72394 13.5681 9.24642C14.0889 9.7689 14.7526 10.1247 15.4751 10.2689C16.1975 10.4131 16.9464 10.3391 17.627 10.0564C18.3076 9.77372 18.8893 9.29493 19.2986 8.68062C19.7079 8.0663 19.9264 7.34405 19.9265 6.60519V6.60499C19.9265 6.11441 19.8301 5.62863 19.6429 5.17539C19.4558 4.72215 19.1814 4.31033 18.8356 3.96343C18.4897 3.61654 18.0791 3.34137 17.6272 3.15363C17.1753 2.96589 16.691 2.86926 16.2019 2.86926H16.2021ZM16.2021 3.98988C16.423 3.98988 16.6391 4.0556 16.8228 4.17874C17.0065 4.30187 17.1497 4.47689 17.2343 4.68165C17.3189 4.88642 17.341 5.11174 17.2979 5.32912C17.2548 5.5465 17.1484 5.74617 16.9921 5.90289C16.8359 6.05962 16.6368 6.16635 16.42 6.20959C16.2033 6.25283 15.9787 6.23064 15.7745 6.14582C15.5704 6.06101 15.3959 5.91737 15.2731 5.73309C15.1503 5.5488 15.0848 5.33214 15.0848 5.11051C15.0848 4.8133 15.2025 4.52826 15.412 4.31811C15.6216 4.10795 15.9057 3.98988 16.2021 3.98988ZM16.2021 9.38505C15.7607 9.38302 15.3264 9.27302 14.937 9.06457C14.5476 8.85612 14.2147 8.55552 13.9673 8.18886C13.9853 7.44171 15.4571 7.03045 16.2021 7.03045C16.947 7.03045 18.4189 7.44171 18.4368 8.18886C18.1892 8.55525 17.8562 8.85564 17.4669 9.06406C17.0775 9.27248 16.6434 9.38265 16.2021 9.38505Z" fill="#A38E23"/>
<path d="M16.2453 33.723C17.7798 30.9027 21.4555 29.1167 24.4624 30.7265C25.8159 31.4511 26.8918 32.7327 27.2333 34.2475C27.6296 36.0072 26.7945 37.6851 25.9324 39.1634C25.4645 39.9659 24.9517 40.752 24.5644 41.5984C24.1635 42.4748 23.8768 43.4879 24.1787 44.4414C24.4505 45.3004 25.132 45.9252 25.8783 46.3844C26.7019 46.872 27.578 47.2644 28.4897 47.5542C30.3665 48.1803 32.346 48.4372 34.3199 48.3108C35.3009 48.2439 36.2736 48.0862 37.2256 47.8397C38.2383 47.5807 39.2321 47.2525 40.2465 46.9992C41.9402 46.5772 43.8712 46.3674 45.4772 47.215C47.0374 48.0386 47.7357 49.7613 47.9516 51.4372C48.3505 54.5318 47.1271 57.7431 44.9184 59.9102C43.8587 60.9499 42.5252 61.8089 41.0727 62.1603C39.8055 62.467 38.1782 62.4473 37.1697 61.4971C36.0443 60.4366 36.3091 58.7361 37.2029 57.6173C38.3438 56.1897 40.2765 55.8468 42.0013 55.812C43.9633 55.7725 45.9235 56.0655 47.8844 55.8834C48.8415 55.8086 49.7806 55.5814 50.6665 55.2103C51.4452 54.8667 52.1556 54.3846 52.7631 53.7872C53.9736 52.6076 54.7901 51.0361 55.1961 49.4022C55.6849 47.4372 55.5784 45.3721 55.1989 43.3985C54.9967 42.3808 54.7362 41.3756 54.4189 40.3878C54.2879 39.971 53.6317 40.1493 53.7637 40.569C54.9323 44.2858 55.5839 48.5835 53.326 52.0344C52.3916 53.4978 50.936 54.5488 49.2558 54.973C47.3016 55.4602 45.2511 55.2194 43.2644 55.1469C41.3753 55.078 39.301 55.1524 37.6816 56.2559C36.3532 57.161 35.4241 58.8827 35.8256 60.508C36.2128 62.0754 37.7146 62.8704 39.2166 62.9929C40.7926 63.1217 42.3434 62.5911 43.667 61.7615C46.4202 60.0359 48.2508 57.0011 48.6339 53.7835C48.8335 52.107 48.6304 50.301 47.8724 48.7793C47.4729 47.9555 46.8512 47.2606 46.0778 46.7734C45.3067 46.2992 44.4159 46.0658 43.5213 45.9832C41.4889 45.7955 39.5362 46.4953 37.6081 47.0307C36.6232 47.3173 35.6137 47.5106 34.5928 47.6081C33.6019 47.6904 32.6054 47.6741 31.6177 47.5595C30.6377 47.4435 29.6719 47.2285 28.735 46.9177C27.8169 46.6331 26.9378 46.2344 26.1182 45.7312C25.3952 45.2674 24.7699 44.6032 24.7343 43.6981C24.6957 42.7167 25.1891 41.7986 25.6583 40.9712C26.5854 39.3366 27.7306 37.7379 27.9724 35.8244C28.1842 34.1506 27.5126 32.5009 26.3531 31.307C25.7719 30.7011 25.0723 30.222 24.298 29.8998C23.5237 29.5776 22.6914 29.4193 21.8532 29.4347C20.1328 29.4841 18.4855 30.2345 17.22 31.387C16.5924 31.9589 16.0642 32.6318 15.6573 33.378C15.4477 33.7632 16.0342 34.1075 16.244 33.722L16.2453 33.723Z" fill="#3F3D56"/>
</g>
<defs>
<clipPath id="clip0_224_201">
<rect width="119" height="80" fill="white"/>
</clipPath>
</defs>
</svg>
