<svg width="30" height="24" viewBox="0 0 30 24" fill="none" xmlns="http://www.w3.org/2000/svg">
<path d="M10.5004 12.0005C13.8146 12.0005 16.5006 9.31443 16.5006 6.00023C16.5006 2.68604 13.8146 0 10.5004 0C7.18622 0 4.50018 2.68604 4.50018 6.00023C4.50018 9.31443 7.18622 12.0005 10.5004 12.0005ZM14.7006 13.5005H13.9177C12.8771 13.9787 11.7192 14.2506 10.5004 14.2506C9.28161 14.2506 8.12844 13.9787 7.08309 13.5005H6.30025C2.82199 13.5005 0 16.3225 0 19.8008V21.7509C0 22.9931 1.00785 24.0009 2.25009 24.0009H15.1365C15.024 23.6822 14.9771 23.3447 15.0146 23.0025L15.3334 20.1477L15.3897 19.6273L15.76 19.257L19.3836 15.6334C18.2351 14.3349 16.571 13.5005 14.7006 13.5005ZM16.8241 20.3117L16.5053 23.1712C16.4538 23.6494 16.8569 24.0525 17.3304 23.9963L20.1852 23.6775L26.6495 17.2132L23.2884 13.8521L16.8241 20.3117ZM29.673 12.6052L27.8964 10.8285C27.4604 10.3926 26.7479 10.3926 26.312 10.8285L24.54 12.6005L24.3478 12.7927L27.7136 16.1538L29.673 14.1943C30.109 13.7537 30.109 13.0458 29.673 12.6052Z" fill="#A38E23"/>
</svg>
