<svg width="37" height="30" viewBox="0 0 37 30" fill="none" xmlns="http://www.w3.org/2000/svg">
<path d="M32.987 11.7168L32.2185 12.1774L28.0329 14.6864L28.0316 14.6872C26.6616 15.5057 24.8881 15.0432 24.0952 13.6543C24.0952 13.6542 24.0951 13.6541 24.0951 13.654C24.095 13.6539 24.0949 13.6538 24.0949 13.6537L19.3835 5.41027L18.9648 4.67769L19.6165 4.14171C20.0227 3.80769 20.275 3.31996 20.275 2.775C20.275 1.79525 19.4797 1 18.5 1C17.5203 1 16.725 1.79525 16.725 2.775C16.725 3.31996 16.9773 3.80769 17.3835 4.14171L18.0352 4.67769L17.6165 5.41027L12.9051 13.6537L32.987 11.7168ZM32.987 11.7168L32.6132 10.9025M32.987 11.7168L32.6132 10.9025M32.6132 10.9025C32.5066 10.6702 32.45 10.4303 32.45 10.175C32.45 9.19525 33.2453 8.4 34.225 8.4C35.2047 8.4 36 9.19525 36 10.175C36 11.1547 35.2047 11.95 34.225 11.95C34.1653 11.95 34.0897 11.9406 33.9378 11.9163L33.1306 11.7871L32.8435 12.5526L28.907 23.05H8.093L4.15649 12.5526L3.86943 11.7871L3.06216 11.9163C2.91032 11.9406 2.83469 11.95 2.775 11.95C1.79525 11.95 1 11.1547 1 10.175C1 9.19796 1.79832 8.4 2.78078 8.4C3.76053 8.4 4.55578 9.19525 4.55578 10.175C4.55578 10.4245 4.4961 10.6724 4.38948 10.9093L4.02481 11.7197M32.6132 10.9025L4.02481 11.7197M4.02481 11.7197L4.78674 12.1771M4.02481 11.7197L4.78674 12.1771M4.78674 12.1771L8.96593 14.6857M4.78674 12.1771L8.96593 14.6857M8.96593 14.6857L8.96658 14.6861C10.3326 15.507 12.1125 15.0422 12.9048 13.6543L8.96593 14.6857ZM6.55 28.6V26.9H30.45V28.6H6.55Z" fill="white" stroke="#BBAA52" stroke-width="2"/>
</svg>
