<svg width="38" height="37" viewBox="0 0 38 37" fill="none" xmlns="http://www.w3.org/2000/svg">
<path d="M18.7926 36.7889C9.81003 36.7889 0.119202 31.0304 0.119202 18.3945C0.119202 5.75855 9.81003 0 18.7926 0C23.7829 0 28.3868 1.67821 31.7995 4.73846C35.502 8.09487 37.4659 12.8333 37.4659 18.3945C37.4659 23.9556 35.502 28.6611 31.7995 32.0175C28.3868 35.0778 23.7507 36.7889 18.7926 36.7889Z" fill="url(#paint0_radial_832_308)"/>
<path d="M34.211 7.45996C35.927 10.2899 36.822 13.6595 36.822 17.4074C36.822 22.9686 34.8581 27.6741 31.1556 31.0305C27.7429 34.0908 23.1068 35.8019 18.1487 35.8019C12.3342 35.8019 6.23635 33.3833 2.6369 28.2533C6.10113 34.0645 12.6175 36.7891 18.7926 36.7891C23.7507 36.7891 28.3868 35.078 31.7995 32.0177C35.502 28.6613 37.4659 23.9557 37.4659 18.3946C37.4659 14.2024 36.3488 10.4774 34.211 7.45996Z" fill="#EB8F00"/>
<path d="M12.4823 11.168C11.1333 11.168 9.90663 12.3328 9.90663 14.2677C9.90663 16.2026 11.1333 17.3642 12.4823 17.3642C13.8345 17.3642 15.0579 16.1993 15.0579 14.2677C15.0579 12.3361 13.8474 11.168 12.4823 11.168Z" fill="#422B0D"/>
<path d="M12.3696 12.4614C11.9124 12.2376 11.3619 12.435 11.1397 12.9023C10.9691 13.2676 11.0463 13.7052 11.3329 13.9882C11.7901 14.212 12.3406 14.0145 12.5627 13.5473C12.7334 13.182 12.6561 12.7443 12.3696 12.4614Z" fill="#896024"/>
<path d="M24.8453 11.168C23.4963 11.168 22.2697 12.3328 22.2697 14.2677C22.2697 16.2026 23.4963 17.3642 24.8453 17.3642C26.1943 17.3642 27.4209 16.1993 27.4209 14.2677C27.4209 12.3361 26.1943 11.168 24.8453 11.168Z" fill="#422B0D"/>
<path d="M24.7165 12.4614C24.2594 12.2376 23.7088 12.435 23.4867 12.9023C23.316 13.2676 23.3933 13.7052 23.6798 13.9882C24.137 14.212 24.6876 14.0145 24.9097 13.5473C25.0803 13.182 25.0031 12.7443 24.7165 12.4614Z" fill="#896024"/>
<path d="M18.9793 23.4262C21.8994 23.3999 24.694 24.6569 26.6482 26.8747C26.7963 27.0491 26.8318 27.2959 26.7384 27.5065C26.645 27.7204 26.439 27.8586 26.2104 27.8619C26.1074 27.8619 26.0043 27.8323 25.9142 27.7796C24.3624 26.8682 21.7674 25.7362 18.9857 25.7362H18.9407C16.1622 25.7362 13.564 26.8682 12.0154 27.7796C11.9253 27.8323 11.8222 27.8619 11.7192 27.8619C11.4906 27.8586 11.2878 27.7204 11.1944 27.5065C11.0978 27.2959 11.1333 27.0491 11.2846 26.8747C13.2388 24.6569 16.0302 23.3999 18.9503 23.4262" fill="#422B0D"/>
<defs>
<radialGradient id="paint0_radial_832_308" cx="0" cy="0" r="1" gradientUnits="userSpaceOnUse" gradientTransform="translate(18.7926 18.3945) scale(18.3384 18.7432)">
<stop offset="0.5" stop-color="#FDE030"/>
<stop offset="0.92" stop-color="#F7C02B"/>
<stop offset="1" stop-color="#F4A223"/>
</radialGradient>
</defs>
</svg>
