<svg width="38" height="37" viewBox="0 0 38 37" fill="none" xmlns="http://www.w3.org/2000/svg">
<path d="M19.3257 36.7889C10.3431 36.7889 0.652313 31.0303 0.652313 18.3944C0.652313 5.75855 10.3431 0 19.3257 0C24.316 0 28.9199 1.67821 32.3326 4.73846C36.0351 8.09487 37.999 12.8333 37.999 18.3944C37.999 23.9556 36.0351 28.6611 32.3326 32.0175C28.9199 35.0778 24.2838 36.7889 19.3257 36.7889Z" fill="url(#paint0_radial_832_300)"/>
<path d="M34.7441 7.45996C36.4601 10.2899 37.3551 13.6594 37.3551 17.4074C37.3551 22.9686 35.3912 27.6741 31.6887 31.0305C28.276 34.0908 23.6399 35.8019 18.6818 35.8019C12.8673 35.8019 6.76946 33.3833 3.17001 28.2533C6.63424 34.0644 13.1506 36.7891 19.3257 36.7891C24.2838 36.7891 28.9199 35.078 32.3326 32.0177C36.0351 28.6613 37.999 23.9557 37.999 18.3946C37.999 14.2024 36.8818 10.4774 34.7441 7.45996Z" fill="#EB8F00"/>
<path d="M27.5033 26.654H11.4056C10.6941 26.654 10.1178 26.0649 10.1178 25.3377C10.1178 24.6105 10.6941 24.0215 11.4056 24.0215H27.5033C28.2148 24.0215 28.7911 24.6105 28.7911 25.3377C28.7911 26.0649 28.2148 26.654 27.5033 26.654Z" fill="#422B0D"/>
<path d="M13.2311 12.8135C11.8821 12.8135 10.6554 13.9783 10.6554 15.9132C10.6554 17.8481 11.8821 19.0097 13.2311 19.0097C14.5801 19.0097 15.8067 17.8448 15.8067 15.9132C15.8067 13.9816 14.5801 12.8135 13.2311 12.8135Z" fill="#422B0D"/>
<path d="M13.1055 14.1069C12.6483 13.8831 12.0978 14.0805 11.8756 14.5478C11.705 14.9131 11.7823 15.3507 12.0688 15.6337C12.526 15.8575 13.0765 15.66 13.2987 15.1928C13.4693 14.8275 13.3921 14.3899 13.1055 14.1069Z" fill="#896024"/>
<path d="M25.5716 12.8135C24.2226 12.8135 22.996 13.9783 22.996 15.9132C22.996 17.8481 24.2226 19.0097 25.5716 19.0097C26.9206 19.0097 28.1472 17.8448 28.1472 15.9132C28.1472 13.9816 26.927 12.8135 25.5716 12.8135Z" fill="#422B0D"/>
<path d="M25.4524 14.1069C24.9953 13.8831 24.4447 14.0805 24.2226 14.5478C24.0519 14.9131 24.1292 15.3507 24.4157 15.6337C24.8729 15.8575 25.4235 15.66 25.6456 15.1928C25.8162 14.8275 25.739 14.3899 25.4524 14.1069Z" fill="#896024"/>
<defs>
<radialGradient id="paint0_radial_832_300" cx="0" cy="0" r="1" gradientUnits="userSpaceOnUse" gradientTransform="translate(19.3257 18.3944) scale(18.3384 18.7432)">
<stop offset="0.5" stop-color="#FDE030"/>
<stop offset="0.92" stop-color="#F7C02B"/>
<stop offset="1" stop-color="#F4A223"/>
</radialGradient>
</defs>
</svg>
