<svg width="38" height="37" viewBox="0 0 38 37" fill="none" xmlns="http://www.w3.org/2000/svg">
<path d="M18.7562 36.7889C9.77362 36.7889 0.0827942 31.0303 0.0827942 18.3944C0.0827942 5.75855 9.77362 0 18.7562 0C23.7464 0 28.3504 1.67821 31.7631 4.73846C35.4656 8.09487 37.4295 12.8333 37.4295 18.3944C37.4295 23.9556 35.4656 28.6611 31.7631 32.0175C28.3504 35.0778 23.7143 36.7889 18.7562 36.7889Z" fill="url(#paint0_radial_832_292)"/>
<path d="M12.4458 11.168C11.0968 11.168 9.87015 12.3328 9.87015 14.2677C9.87015 16.2026 11.0968 17.3642 12.4458 17.3642C13.798 17.3642 15.0214 16.1993 15.0214 14.2677C15.0214 12.3361 13.8109 11.168 12.4458 11.168Z" fill="#422B0D"/>
<path d="M12.3331 12.4614C11.8759 12.2376 11.3254 12.435 11.1032 12.9023C10.9326 13.2676 11.0099 13.7052 11.2964 13.9882C11.7536 14.212 12.3041 14.0145 12.5263 13.5473C12.6969 13.182 12.6197 12.7443 12.3331 12.4614Z" fill="#896024"/>
<path d="M24.8089 11.168C23.4599 11.168 22.2333 12.3328 22.2333 14.2677C22.2333 16.2026 23.4599 17.3642 24.8089 17.3642C26.1579 17.3642 27.3846 16.1993 27.3846 14.2677C27.3846 12.3361 26.1579 11.168 24.8089 11.168Z" fill="#422B0D"/>
<path d="M24.6801 12.4614C24.2229 12.2376 23.6724 12.435 23.4502 12.9023C23.2796 13.2676 23.3569 13.7052 23.6434 13.9882C24.1006 14.212 24.6511 14.0145 24.8733 13.5473C25.0439 13.182 24.9666 12.7443 24.6801 12.4614Z" fill="#896024"/>
<path d="M18.563 27.842C15.6429 27.865 12.8548 26.6113 10.9005 24.3934C10.7524 24.219 10.717 23.9722 10.8104 23.7616C10.9037 23.5477 11.1098 23.4095 11.3384 23.4062C11.4414 23.4062 11.5444 23.4359 11.6346 23.4885C13.1864 24.4 15.7813 25.532 18.563 25.532H18.6081C21.3866 25.532 23.9847 24.4 25.5333 23.4885C25.6235 23.4359 25.7265 23.4062 25.8295 23.4062C26.0581 23.4095 26.2642 23.5477 26.3575 23.7616C26.4541 23.9722 26.4187 24.219 26.2674 24.3934C24.3131 26.6113 21.5186 27.8683 18.5984 27.842" fill="#422B0D"/>
<path d="M34.1745 7.45996C35.8906 10.2899 36.7856 13.6594 36.7856 17.4074C36.7856 22.9686 34.8217 27.6741 31.1192 31.0305C27.7065 34.0908 23.0703 35.8019 18.1122 35.8019C12.2978 35.8019 6.19994 33.3833 2.60049 28.2533C6.06472 34.0644 12.5811 36.7891 18.7562 36.7891C23.7143 36.7891 28.3504 35.078 31.7631 32.0177C35.4656 28.6613 37.4295 23.9557 37.4295 18.3946C37.4295 14.2024 36.3123 10.4774 34.1745 7.45996Z" fill="#EB8F00"/>
<defs>
<radialGradient id="paint0_radial_832_292" cx="0" cy="0" r="1" gradientUnits="userSpaceOnUse" gradientTransform="translate(18.7562 18.3944) scale(18.3384 18.7432)">
<stop offset="0.5" stop-color="#FDE030"/>
<stop offset="0.92" stop-color="#F7C02B"/>
<stop offset="1" stop-color="#F4A223"/>
</radialGradient>
</defs>
</svg>
