<svg width="38" height="37" viewBox="0 0 38 37" fill="none" xmlns="http://www.w3.org/2000/svg">
<path d="M19.2283 36.6688C10.2751 36.6688 0.615875 30.9291 0.615875 18.3344C0.615875 5.73975 10.2751 0 19.2283 0C24.2023 0 28.7912 1.67273 32.1928 4.72299C35.8832 8.06845 37.8407 12.7914 37.8407 18.3344C37.8407 23.8774 35.8832 28.5676 32.1928 31.913C28.7848 34.9633 24.1702 36.6688 19.2283 36.6688Z" fill="url(#paint0_radial_832_281)"/>
<path d="M13.0604 11.1318C11.7159 11.1318 10.4932 12.2929 10.4932 14.2215C10.4932 16.15 11.7159 17.3078 13.0604 17.3078C14.4082 17.3078 15.6277 16.1467 15.6277 14.2215C15.6277 12.2962 14.4211 11.1318 13.0604 11.1318Z" fill="#422B0D"/>
<path d="M12.9482 12.421C12.4925 12.198 11.9438 12.3948 11.7224 12.8605C11.5523 13.2246 11.6293 13.6608 11.9149 13.9429C12.3706 14.1659 12.9193 13.9691 13.1408 13.5034C13.3108 13.1393 13.2338 12.7031 12.9482 12.421Z" fill="#896024"/>
<path d="M25.3832 11.1318C24.0386 11.1318 22.8159 12.2929 22.8159 14.2215C22.8159 16.15 24.0386 17.3078 25.3832 17.3078C26.7278 17.3078 27.9504 16.1467 27.9504 14.2215C27.9504 12.2962 26.7278 11.1318 25.3832 11.1318Z" fill="#422B0D"/>
<path d="M25.2548 12.421C24.7991 12.198 24.2504 12.3948 24.029 12.8605C23.8589 13.2246 23.9359 13.6608 24.2215 13.9429C24.6772 14.1659 25.226 13.9691 25.4474 13.5034C25.6175 13.1393 25.5404 12.7031 25.2548 12.421Z" fill="#896024"/>
<path d="M34.7182 7.43555C36.4286 10.2562 37.3207 13.6148 37.3207 17.3506C37.3207 22.8935 35.3632 27.5837 31.6728 30.9292C28.2712 33.9794 23.6502 35.685 18.7083 35.685C12.9128 35.685 6.83492 33.2743 3.24722 28.161C6.70014 33.9532 13.1952 36.6689 19.3501 36.6689C24.292 36.6689 28.9131 34.9634 32.3146 31.9131C36.005 28.5677 37.9625 23.8775 37.9625 18.3345C37.9625 14.156 36.849 10.4432 34.7182 7.43555Z" fill="#EB8F00"/>
<path d="M31.6955 21.1944C31.2463 20.3646 30.2707 20.0005 29.4043 20.3351C26.1118 21.3157 22.6974 21.8044 19.2669 21.788C15.8365 21.8044 12.4221 21.3157 9.1296 20.3351C8.26637 20.0005 7.29083 20.3613 6.84156 21.1878C6.40513 22.0111 6.71962 22.9655 7.08866 23.7887C9.14886 28.4133 13.6896 31.1815 19.2413 31.1979H19.2926C24.8442 31.1979 29.385 28.4133 31.4484 23.7887C31.8143 22.9589 32.132 22.0176 31.6955 21.1944Z" fill="#422B0D"/>
<path d="M24.4045 29.8929C24.2858 29.7814 24.1638 29.6797 24.0419 29.5649C22.7326 28.3875 21.0382 27.7544 19.2925 27.7905C17.4954 27.761 15.7465 28.3711 14.3442 29.519C14.2222 29.6207 14.0939 29.7191 13.9751 29.847C13.8564 29.9749 13.7922 30.0667 13.7152 30.175C15.4802 30.8801 17.3607 31.2409 19.2572 31.2311H19.3085C21.1249 31.2311 22.9251 30.8998 24.6259 30.2471C24.5617 30.1225 24.4879 30.0044 24.4045 29.8929Z" fill="#ED7770"/>
<path d="M29.4041 20.3355C26.1116 21.3161 22.6972 21.8048 19.2668 21.7884C15.8363 21.8048 12.4219 21.3161 9.12944 20.3355C8.26621 20.0009 7.29067 20.3617 6.8414 21.1882C6.77722 21.3129 6.72588 21.4441 6.69379 21.5785C6.79968 21.6343 6.92163 21.6901 7.06603 21.7491C10.9297 23.7268 15.2009 24.7305 19.5203 24.678C23.6632 24.7272 27.7579 23.8056 31.4996 21.9885C31.6504 21.9229 31.7756 21.8606 31.8879 21.8016C31.8622 21.5884 31.7948 21.3785 31.6954 21.1882C31.2461 20.3617 30.2706 19.9976 29.4041 20.3355Z" fill="white"/>
<path d="M31.7084 21.1977C31.2527 20.3679 30.2739 20.0005 29.4011 20.3351C26.1086 21.3157 22.6942 21.8044 19.2669 21.788C15.8365 21.8044 12.4221 21.3157 9.1296 20.3351C8.26637 20.0005 7.29083 20.3613 6.84156 21.1878C6.40513 22.0111 6.71962 22.9655 7.08866 23.7888C7.25232 24.1594 7.43523 24.5234 7.6374 24.8744C7.6374 24.8744 6.96351 22.3227 7.54755 21.5814C7.74651 21.2665 8.08025 21.0697 8.44608 21.0501C8.5969 21.0501 8.74452 21.0763 8.88893 21.1222C12.2392 22.1291 15.7145 22.6375 19.2092 22.631H19.3215C22.8161 22.6375 26.2915 22.1291 29.6418 21.1222C29.7862 21.0763 29.9338 21.0501 30.0846 21.0501C30.4504 21.0697 30.7874 21.2665 30.9863 21.5814C31.58 22.3227 30.8965 24.8842 30.8965 24.8842C31.0954 24.5333 31.2944 24.1725 31.4613 23.7986C31.8271 22.9753 32.1448 22.0242 31.7084 21.1977Z" fill="#EB8F00"/>
<defs>
<radialGradient id="paint0_radial_832_281" cx="0" cy="0" r="1" gradientUnits="userSpaceOnUse" gradientTransform="translate(19.2283 18.3344) scale(18.2786 18.682)">
<stop offset="0.5" stop-color="#FDE030"/>
<stop offset="0.92" stop-color="#F7C02B"/>
<stop offset="1" stop-color="#F4A223"/>
</radialGradient>
</defs>
</svg>
