<svg width="38" height="39" viewBox="0 0 38 39" fill="none" xmlns="http://www.w3.org/2000/svg">
<path d="M19.2595 36.7889C10.2769 36.7889 0.58609 31.0304 0.58609 18.3945C0.58609 5.75855 10.2769 0 19.2595 0C24.2497 0 28.8537 1.67821 32.2664 4.73846C35.9689 8.09488 37.9328 12.8333 37.9328 18.3945C37.9328 23.9556 35.9689 28.6611 32.2664 32.0175C28.8537 35.0778 24.2176 36.7889 19.2595 36.7889Z" fill="url(#paint0_radial_832_316)"/>
<path d="M34.6778 7.45996C36.3939 10.2899 37.2889 13.6595 37.2889 17.4074C37.2889 22.9686 35.325 27.6741 31.6225 31.0305C28.2098 34.0908 23.5736 35.8019 18.6155 35.8019C12.801 35.8019 6.69035 33.3833 3.10378 28.2533C6.56801 34.0645 13.0811 36.7891 19.2594 36.7891C24.2175 36.7891 28.8537 35.078 32.2664 32.0177C35.9689 28.6613 37.9328 23.9557 37.9328 18.3946C37.9328 14.2024 36.8156 10.4774 34.6778 7.45996Z" fill="#EB8F00"/>
<path d="M19.2595 36.7889C10.2769 36.7889 0.58609 31.0304 0.58609 18.3945C0.58609 5.75855 10.2769 0 19.2595 0C24.2497 0 28.8537 1.67821 32.2664 4.73846C35.9689 8.09488 37.9328 12.8333 37.9328 18.3945C37.9328 23.9556 35.9689 28.6611 32.2664 32.0175C28.8537 35.0778 24.2176 36.7889 19.2595 36.7889Z" fill="url(#paint1_radial_832_316)"/>
<path d="M27.6754 23.7256C25.3186 22.9523 22.4565 22.541 19.3882 22.541C16.2717 22.541 13.3902 22.9918 10.9949 23.775C10.087 25.3117 9.53644 27.0919 9.53644 28.9906C9.53644 30.603 11.114 31.5573 12.4984 30.8991C14.237 30.0765 16.7804 29.2538 19.3882 29.2538C21.9961 29.2538 24.5717 30.0765 26.2781 30.8991C27.6625 31.5573 29.2401 30.603 29.2401 28.9906C29.2401 27.0722 28.638 25.2722 27.6754 23.7256Z" fill="#422B0D"/>
<path d="M27.6753 23.7254C25.7307 20.5993 22.3148 19.8096 19.3882 19.8096C16.2073 19.8096 12.8526 20.6223 10.9949 23.7747C13.3902 22.9916 16.2717 22.5408 19.3882 22.5408C22.4532 22.5408 25.3186 22.9521 27.6753 23.7254Z" fill="white"/>
<path d="M19.3689 19.3164C20.4958 19.346 21.6323 19.4513 22.7366 19.7442C23.8441 20.0206 24.9194 20.4944 25.8627 21.1723C26.7964 21.8666 27.582 22.7682 28.1197 23.7949C28.667 24.8051 29.0662 25.9009 29.2658 27.0362C29.3688 27.6021 29.4236 28.178 29.4236 28.7538C29.4332 29.0303 29.4075 29.356 29.327 29.6489C29.2433 29.945 29.0952 30.2182 28.9052 30.4551C28.5253 30.9322 27.9458 31.2152 27.3566 31.258C27.0636 31.2744 26.7674 31.235 26.4906 31.1428C26.2105 31.0375 25.9754 30.9092 25.7243 30.7973C23.7282 29.8957 21.5679 29.31 19.3689 29.2573C21.5711 29.2277 23.7668 29.7312 25.8209 30.5703C26.0785 30.6723 26.336 30.8006 26.5743 30.8796C26.8222 30.952 27.083 30.975 27.3341 30.952C27.8395 30.896 28.3225 30.6328 28.6251 30.2247C28.7764 30.0207 28.8923 29.7904 28.9503 29.5436C29.0082 29.2902 29.0211 29.05 29.005 28.767C28.9825 28.2175 28.9117 27.6712 28.7958 27.1382C28.5672 26.0687 28.1518 25.0421 27.6013 24.1075C27.0604 23.1697 26.3199 22.3865 25.4539 21.7876C24.5749 21.2052 23.5833 20.807 22.5466 20.5899C21.5131 20.3595 20.441 20.297 19.3689 20.3102V19.3164Z" fill="#EB8F00"/>
<path d="M19.4494 20.3033C18.3805 20.2902 17.3052 20.3527 16.2717 20.583C15.235 20.8002 14.2434 21.1984 13.3645 21.7808C12.4984 22.3797 11.7579 23.1629 11.217 24.1007C10.6633 25.0352 10.2512 26.0586 10.0226 27.1313C9.90669 27.6677 9.83264 28.2106 9.81332 28.7602C9.79401 29.0432 9.8101 29.2834 9.86806 29.5368C9.92923 29.7835 10.0451 30.0139 10.1932 30.2179C10.4959 30.6259 10.9788 30.8892 11.4843 30.9451C11.7386 30.9682 11.9962 30.9451 12.2441 30.8727C12.4823 30.7938 12.7399 30.6687 12.9975 30.5634C15.0483 29.7243 17.2473 29.2209 19.4494 29.2505C17.2473 29.3031 15.0869 29.8888 13.094 30.7905C12.8429 30.9024 12.6079 31.0307 12.3278 31.136C12.0509 31.2281 11.7547 31.2676 11.4617 31.2512C10.8758 31.2117 10.2963 30.9254 9.91313 30.4482C9.72318 30.2113 9.57508 29.9382 9.49137 29.6421C9.41088 29.3525 9.38512 29.0267 9.39478 28.747C9.398 28.1712 9.45273 27.5986 9.55254 27.0293C9.75537 25.8941 10.1514 24.7983 10.6987 23.7881C11.2396 22.7647 12.0252 21.8598 12.9556 21.1655C13.8989 20.4876 14.9743 20.0105 16.0818 19.7373C17.1893 19.4478 18.3258 19.3392 19.4494 19.3096V20.3033Z" fill="#EB8F00"/>
<path d="M34.6778 7.45996C36.3939 10.2899 37.2889 13.6595 37.2889 17.4074C37.2889 22.9686 35.325 27.6741 31.6225 31.0305C28.2098 34.0908 23.5736 35.8019 18.6155 35.8019C12.801 35.8019 6.69035 33.3833 3.10378 28.2533C6.56801 34.0645 13.0811 36.7891 19.2594 36.7891C24.2175 36.7891 28.8537 35.078 32.2664 32.0177C35.9689 28.6613 37.9328 23.9557 37.9328 18.3946C37.9328 14.2024 36.8156 10.4774 34.6778 7.45996Z" fill="#EB8F00"/>
<path d="M5.92732 12.8034C5.75991 12.833 5.58605 12.8067 5.43795 12.7343C5.14497 12.5895 4.92282 12.2374 5.09024 11.7767C5.70517 10.1511 6.97689 8.78884 8.58023 8.032C9.17584 7.74901 9.80043 7.56144 10.4411 7.4726C10.9208 7.41666 11.2009 7.7161 11.2685 8.03529C11.3426 8.39068 11.1848 8.82503 10.7341 8.9764L10.6955 8.98956C8.96013 9.60162 7.41153 10.8553 6.45211 12.425C6.32011 12.6487 6.12693 12.7672 5.92732 12.8034Z" fill="#422B0D"/>
<path d="M32.1151 12.425C31.1557 10.8554 29.6071 9.60168 27.8717 8.98963L27.8331 8.97646C27.3824 8.82839 27.2214 8.39074 27.2986 8.03535C27.3663 7.71287 27.6496 7.41672 28.1261 7.47266C28.7635 7.55821 29.3914 7.74907 29.987 8.03206C31.5903 8.7889 32.862 10.1512 33.477 11.7768C33.6444 12.2374 33.4222 12.5895 33.1292 12.7343C32.9844 12.8067 32.8105 12.833 32.6399 12.8034C32.4403 12.7672 32.2471 12.6488 32.1151 12.425Z" fill="#422B0D"/>
<path d="M34.7583 34.2227C34.7583 33.2125 32.9715 32.3734 30.7275 32.3208L30.0353 15.0287C29.9677 14.976 29.9 14.9135 29.8453 14.8444C29.8453 14.8444 29.826 14.8181 29.7874 14.772C29.768 14.749 29.7455 14.7193 29.7197 14.6831C29.6908 14.6469 29.6618 14.6075 29.636 14.5877C29.5813 14.5318 29.5137 14.4627 29.4364 14.3837C29.3559 14.3014 29.2594 14.2126 29.1595 14.1237C28.9535 13.946 28.7088 13.7815 28.4513 13.6663C28.1937 13.5578 27.9329 13.4919 27.6657 13.4952H27.6238L27.5305 13.4985C27.4468 13.4985 27.4629 13.5051 27.4371 13.5084C27.4146 13.5051 27.3244 13.5281 27.2632 13.538C27.1345 13.5709 26.9992 13.6104 26.8705 13.6663C26.6129 13.7815 25.2317 13.844 25.1416 13.9L24.9935 34.0549C23.535 34.5057 21.9381 35.2626 21.9381 36.1082C21.9381 37.487 24.459 38.6091 27.5691 38.6091C30.6792 38.6091 33.2001 37.4936 33.2001 36.1148C33.2001 35.9766 33.1679 35.845 33.1196 35.7134C34.1177 35.3646 34.7583 34.8282 34.7583 34.2227Z" fill="#29B6F6"/>
<path d="M26.5936 32.8637C26.6225 33.9331 25.9915 34.9006 25.0192 35.2987C23.8376 35.7825 22.7108 36.4636 24.3978 36.8716C24.3978 36.8716 25.6696 37.51 26.3167 37.1777C26.6064 37.0296 26.5066 36.7861 26.307 36.5656C26.0881 36.3254 26.1976 35.9371 26.5099 35.8647L26.7867 35.8022C27.4886 35.6443 27.9812 34.996 27.9619 34.2622L27.4435 12.666L26.3843 12.5771L26.5936 32.8637Z" fill="#81D4FA"/>
<path d="M13.8764 34.0543L13.7315 13.9389C13.5737 13.8665 13.3033 14.8174 13.2647 14.7681C13.2453 14.745 13.2228 14.7154 13.1971 14.6792C13.1681 14.643 13.1391 14.6036 13.1133 14.5838C13.0586 14.5279 12.991 14.4588 12.9137 14.3798C12.8332 14.2975 12.7367 14.2087 12.6369 14.1198C12.4308 13.9421 12.1861 13.7776 11.9286 13.6624C11.671 13.5539 11.4102 13.488 11.143 13.4913H11.1011L11.0078 13.4946C10.9241 13.4946 10.9402 13.5012 10.9144 13.5045C10.8919 13.5012 10.8017 13.5242 10.7405 13.5341C10.6118 13.567 10.4765 13.6065 10.3478 13.6624C10.0902 13.7776 9.84551 13.9421 9.63946 14.1198C9.43662 14.2975 9.26599 14.4719 9.15008 14.6036C9.03418 14.7385 8.96657 14.8141 8.96657 14.8141L8.86998 14.926C8.86033 14.9359 8.85067 14.9425 8.84101 14.9524L8.14559 32.3168C5.89834 32.3695 4.11472 33.202 4.11472 34.2122C4.11472 34.8177 4.75541 35.3607 5.75024 35.7062C5.70195 35.8378 5.66976 35.9727 5.66976 36.1109C5.66976 37.4897 8.19066 38.6085 11.3007 38.6085C14.4108 38.6085 16.9317 37.4831 16.9317 36.1043C16.9317 35.2586 15.3316 34.5051 13.8764 34.0543Z" fill="#29B6F6"/>
<path d="M10.132 13.8662L9.56861 32.05C9.55251 32.5798 9.11787 32.9944 8.60275 32.9714C7.93308 32.9418 7.01551 33.0208 6.26214 33.4979C5.85647 33.7546 5.68906 34.4094 6.05931 34.7747C6.46497 35.1728 7.52742 34.8273 8.05864 34.7714C8.29045 34.7483 8.59631 34.7714 8.65748 35.0017C8.69289 35.1333 8.61562 35.2748 8.50938 35.3538C8.40313 35.4361 8.27113 35.469 8.14235 35.5085C7.92986 35.571 7.71737 35.6467 7.54996 35.7947C7.38576 35.9428 7.27951 36.1797 7.33747 36.3969C7.41473 36.6766 7.71737 36.8115 7.98459 36.907C8.45465 37.0814 8.93436 37.2558 9.43339 37.2788C9.46237 36.9168 8.91182 36.6668 9.02129 36.3212C9.05992 36.1995 9.17261 36.1205 9.28529 36.0646C9.58793 35.9198 9.93242 35.8902 10.2576 35.8112C10.792 35.6829 11.7579 35.4065 11.5068 34.6562C11.4231 34.4094 11.2524 34.2087 11.1076 33.9915C10.5634 33.1688 10.4572 32.4449 10.5538 31.4577C10.6311 30.6877 10.8242 18.5026 10.953 13.4911C10.9852 12.29 10.6021 13.3956 10.219 13.4252C10.1868 13.468 10.1642 13.8267 10.132 13.8662Z" fill="#81D4FA"/>
<path d="M14.4301 15.6073L14.3657 15.5415C14.3335 15.5086 14.237 15.4099 14.2048 15.377C14.1404 15.3112 14.076 15.2783 13.9794 15.1796C13.8828 15.1138 13.7862 15.015 13.6574 14.9492C13.5287 14.8834 13.3999 14.7847 13.2711 14.7189C13.1423 14.6531 12.9813 14.5873 12.8204 14.5214C12.6594 14.4556 12.4984 14.4227 12.3374 14.3898C12.1764 14.3569 12.0155 14.3569 11.8223 14.3569H11.7579H11.6613C11.5647 14.3569 11.5647 14.3569 11.5325 14.3569C11.4681 14.3569 11.3716 14.3898 11.3072 14.3898C11.1462 14.4227 10.9852 14.4556 10.8242 14.5214C10.6633 14.5873 10.5023 14.6202 10.3735 14.7189C10.2447 14.7847 10.1159 14.8505 9.98716 14.9492C9.76179 15.1138 9.56862 15.2783 9.43984 15.377C9.31105 15.5086 9.24666 15.5744 9.24666 15.5744L9.18227 15.6403C8.79593 16.0351 8.15202 16.0351 7.70128 15.7061C7.37933 15.4428 7.28274 14.9821 7.44372 14.6531L7.47591 14.5544C7.50811 14.4885 7.54031 14.3898 7.6047 14.2911C7.73348 14.0608 7.95885 13.7317 8.313 13.3697C8.47397 13.2052 8.69934 13.0078 8.92471 12.8432C9.15008 12.6787 9.43984 12.5142 9.7296 12.3826C10.0194 12.2509 10.3735 12.1193 10.6955 12.0535C10.8564 12.0206 11.0496 11.9877 11.2428 11.9548C11.3394 11.9548 11.4682 11.9219 11.5003 11.9219H11.7579C12.1121 11.9219 12.4662 11.9548 12.8204 12.0206C13.1745 12.0864 13.4965 12.218 13.7862 12.3497C14.076 12.4813 14.3657 12.6458 14.5911 12.8103C14.8487 12.9749 15.0418 13.1394 15.2028 13.3368C15.3638 13.5014 15.5248 13.6659 15.6214 13.8304C15.6858 13.8962 15.7179 13.995 15.7823 14.0608C15.8145 14.1266 15.8789 14.1924 15.9111 14.2582C16.0077 14.3898 16.0077 14.4556 16.0399 14.5214C16.0721 14.5873 16.0721 14.5873 16.0721 14.5873C16.2975 15.0809 16.0399 15.6403 15.4926 15.8377C15.2028 16.0022 14.7199 15.9035 14.4301 15.6073Z" fill="#422B0D"/>
<path d="M29.533 15.4885C29.533 15.4885 29.5105 15.4655 29.4686 15.4227C29.4332 15.3865 29.3527 15.2944 29.3044 15.2582C29.2433 15.2055 29.1692 15.143 29.0823 15.0706C28.9889 14.9982 28.8827 14.9192 28.7668 14.837C28.6477 14.7613 28.5189 14.6823 28.3804 14.6132C28.2452 14.5375 28.0907 14.4849 27.9361 14.4256C27.7816 14.3697 27.6174 14.3401 27.4532 14.3039C27.289 14.2776 27.1184 14.2644 26.9477 14.2644H26.9928H26.9896H26.9831H26.9703H26.9445H26.893L26.7932 14.2677C26.7095 14.2677 26.6966 14.2743 26.6644 14.2776C26.6129 14.2776 26.5195 14.294 26.439 14.3072C26.2748 14.3434 26.1107 14.373 25.9561 14.4289C25.8048 14.4882 25.6503 14.5408 25.515 14.6165C25.3766 14.6889 25.2478 14.7646 25.1287 14.8403C24.8969 14.9982 24.7069 15.1562 24.5814 15.2746C24.4526 15.3931 24.3785 15.4655 24.3785 15.4655L24.298 15.5477C23.9085 15.9327 23.2517 15.9558 22.8267 15.6037C22.4919 15.324 22.4082 14.8929 22.5756 14.5342C22.5756 14.5342 22.5917 14.5013 22.6239 14.4355C22.6561 14.373 22.6947 14.2743 22.7655 14.1591C22.8975 13.9255 23.1165 13.5964 23.4642 13.2509C23.638 13.0798 23.8409 12.8988 24.0823 12.7343C24.3174 12.5632 24.591 12.4085 24.8937 12.2736C25.1963 12.142 25.5247 12.0268 25.8724 11.9544C26.0495 11.9215 26.2137 11.8886 26.4294 11.8688C26.5292 11.859 26.6483 11.8491 26.6998 11.8458L26.9477 11.8359C27.3115 11.8425 27.6721 11.882 28.0231 11.9511C28.3708 12.0235 28.6992 12.1387 29.0018 12.2703C29.3012 12.4052 29.5781 12.5599 29.8131 12.731C30.0546 12.8955 30.2542 13.0732 30.4281 13.2476C30.6019 13.4187 30.7404 13.5898 30.8563 13.7445C30.911 13.8235 30.9625 13.8959 31.0108 13.965C31.0559 14.0406 31.1009 14.1097 31.1364 14.1723C31.2233 14.3105 31.2297 14.3631 31.2619 14.4256C31.2845 14.4783 31.2973 14.5079 31.2973 14.5079C31.513 14.9982 31.2523 15.5543 30.7146 15.7518C30.2928 15.9064 29.8196 15.7879 29.533 15.4885Z" fill="#422B0D"/>
<defs>
<radialGradient id="paint0_radial_832_316" cx="0" cy="0" r="1" gradientUnits="userSpaceOnUse" gradientTransform="translate(19.2595 18.3944) scale(18.3384 18.7432)">
<stop offset="0.5" stop-color="#FDE030"/>
<stop offset="0.9188" stop-color="#F7C02B"/>
<stop offset="1" stop-color="#F4A223"/>
</radialGradient>
<radialGradient id="paint1_radial_832_316" cx="0" cy="0" r="1" gradientUnits="userSpaceOnUse" gradientTransform="translate(19.2595 18.3944) scale(18.3384 18.7432)">
<stop offset="0.5" stop-color="#FDE030"/>
<stop offset="0.9188" stop-color="#F7C02B"/>
<stop offset="1" stop-color="#F4A223"/>
</radialGradient>
</defs>
</svg>
