<svg width="22" height="21" viewBox="0 0 22 21" fill="none" xmlns="http://www.w3.org/2000/svg">
<path d="M10.8642 20.1425C5.94396 20.1425 0.635756 16.9883 0.635756 10.0669C0.635756 3.14549 5.94396 -0.00878906 10.8642 -0.00878906C13.5977 -0.00878906 16.1195 0.910457 17.9888 2.58673C20.0169 4.42522 21.0926 7.02074 21.0926 10.0669C21.0926 13.113 20.0169 15.6905 17.9888 17.529C16.116 19.2053 13.58 20.1425 10.8642 20.1425Z" fill="url(#paint0_radial_1049_316)"/>
<path d="M7.47467 6.1084C6.73575 6.1084 6.06385 6.74646 6.06385 7.8063C6.06385 8.86614 6.73575 9.5024 7.47467 9.5024C8.21534 9.5024 8.88548 8.86434 8.88548 7.8063C8.88548 6.74827 8.2224 6.1084 7.47467 6.1084Z" fill="#422B0D"/>
<path d="M7.41299 6.81711C7.16257 6.69455 6.86101 6.80269 6.73933 7.05864C6.64586 7.25871 6.68818 7.49844 6.84514 7.65345C7.09556 7.77601 7.39712 7.66787 7.5188 7.41192C7.61227 7.21185 7.56995 6.97212 7.41299 6.81711Z" fill="#896024"/>
<path d="M14.2466 6.1084C13.5077 6.1084 12.8358 6.74646 12.8358 7.8063C12.8358 8.86614 13.5077 9.5024 14.2466 9.5024C14.9855 9.5024 15.6574 8.86434 15.6574 7.8063C15.6574 6.74827 14.9855 6.1084 14.2466 6.1084Z" fill="#422B0D"/>
<path d="M14.1761 6.81711C13.9257 6.69455 13.6241 6.80269 13.5024 7.05864C13.409 7.25871 13.4513 7.49844 13.6082 7.65345C13.8586 7.77601 14.1602 7.66787 14.2819 7.41192C14.3754 7.21185 14.333 6.97212 14.1761 6.81711Z" fill="#896024"/>
<path d="M19.3767 4.07715C20.3166 5.62725 20.8069 7.47296 20.8069 9.52594C20.8069 12.5721 19.7311 15.1496 17.7031 16.9881C15.8338 18.6643 13.2943 19.6016 10.5785 19.6016C7.39354 19.6016 4.05343 18.2768 2.08181 15.4668C3.97936 18.6499 7.54873 20.1423 10.9312 20.1423C13.647 20.1423 16.1865 19.2051 18.0558 17.5288C20.0838 15.6903 21.1596 13.1128 21.1596 10.0667C21.1596 7.77036 20.5476 5.72999 19.3767 4.07715Z" fill="#EB8F00"/>
<path d="M17.7156 11.6386C17.4687 11.1826 16.9326 10.9825 16.4564 11.1664C14.647 11.7053 12.7706 11.9739 10.8854 11.9648C9.00023 11.9739 7.12385 11.7053 5.31447 11.1664C4.84008 10.9825 4.30397 11.1808 4.05708 11.635C3.81724 12.0874 3.99007 12.6119 4.19287 13.0643C5.32505 15.6058 7.82044 17.127 10.8713 17.136H10.8995C13.9504 17.136 16.4458 15.6058 17.5798 13.0643C17.7808 12.6083 17.9554 12.091 17.7156 11.6386Z" fill="#422B0D"/>
<path d="M13.7088 16.4189C13.6435 16.3576 13.5765 16.3017 13.5095 16.2386C12.79 15.5915 11.8588 15.2437 10.8995 15.2635C9.91192 15.2473 8.9508 15.5825 8.18014 16.2134C8.11313 16.2693 8.04258 16.3233 7.97733 16.3936C7.91208 16.4639 7.87681 16.5144 7.83449 16.5739C8.80443 16.9614 9.83785 17.1597 10.8801 17.1543H10.9083C11.9065 17.1543 12.8958 16.9722 13.8305 16.6135C13.7952 16.545 13.7546 16.4801 13.7088 16.4189Z" fill="#ED7770"/>
<path d="M16.4563 11.1661C14.6469 11.7051 12.7706 11.9736 10.8854 11.9646C9.00015 11.9736 7.12376 11.7051 5.31438 11.1661C4.84 10.9823 4.30388 11.1806 4.05699 11.6348C4.02172 11.7033 3.9935 11.7754 3.97587 11.8493C4.03407 11.8799 4.10108 11.9106 4.18044 11.943C6.30372 13.0299 8.65097 13.5814 11.0247 13.5526C13.3014 13.5796 15.5516 13.0731 17.6079 12.0746C17.6908 12.0385 17.7596 12.0043 17.8213 11.9718C17.8072 11.8547 17.7701 11.7393 17.7155 11.6348C17.4686 11.1806 16.9325 10.9805 16.4563 11.1661Z" fill="white"/>
<path d="M17.7226 11.6404C17.4722 11.1844 16.9343 10.9825 16.4546 11.1664C14.6453 11.7053 12.7689 11.9739 10.8854 11.9648C9.00024 11.9739 7.12385 11.7053 5.31447 11.1664C4.84008 10.9825 4.30397 11.1808 4.05708 11.635C3.81724 12.0874 3.99007 12.6119 4.19287 13.0643C4.28281 13.268 4.38333 13.4681 4.49443 13.6609C4.49443 13.6609 4.12409 12.2586 4.44505 11.8513C4.55439 11.6783 4.7378 11.5701 4.93884 11.5593C5.02173 11.5593 5.10285 11.5737 5.18221 11.5989C7.02333 12.1523 8.93322 12.4317 10.8537 12.4281H10.9154C12.8359 12.4317 14.7458 12.1523 16.5869 11.5989C16.6663 11.5737 16.7474 11.5593 16.8303 11.5593C17.0313 11.5701 17.2165 11.6783 17.3258 11.8513C17.6521 12.2586 17.2765 13.6663 17.2765 13.6663C17.3858 13.4735 17.4951 13.2752 17.5868 13.0697C17.7879 12.6173 17.9625 12.0946 17.7226 11.6404Z" fill="#EB8F00"/>
<defs>
<radialGradient id="paint0_radial_1049_316" cx="0" cy="0" r="1" gradientUnits="userSpaceOnUse" gradientTransform="translate(10.8642 10.0669) scale(10.045 10.2667)">
<stop offset="0.5" stop-color="#FDE030"/>
<stop offset="0.92" stop-color="#F7C02B"/>
<stop offset="1" stop-color="#F4A223"/>
</radialGradient>
</defs>
</svg>
