<svg width="26" height="20" viewBox="0 0 26 20" fill="none" xmlns="http://www.w3.org/2000/svg">
<path d="M0.354427 8.89497L8.89152 0.357883C9.65376 -0.404357 10.975 0.129209 10.975 1.22175V6.10009H17.886C18.5618 6.10009 19.1055 6.64382 19.1055 7.31968V12.198C19.1055 12.8739 18.5618 13.4176 17.886 13.4176H10.975V18.2959C10.975 19.3834 9.65884 19.922 8.89152 19.1598L0.354427 10.6227C-0.118163 10.145 -0.118163 9.37264 0.354427 8.89497ZM15.8533 0.611962V2.6446C15.8533 2.97999 16.1277 3.2544 16.4631 3.2544H20.7316C21.6311 3.2544 22.3578 3.98106 22.3578 4.88051V14.6372C22.3578 15.5366 21.6311 16.2633 20.7316 16.2633H16.4631C16.1277 16.2633 15.8533 16.5377 15.8533 16.8731V18.9057C15.8533 19.2411 16.1277 19.5155 16.4631 19.5155H20.7316C23.4249 19.5155 25.61 17.3304 25.61 14.6372V4.88051C25.61 2.18726 23.4249 0.00217173 20.7316 0.00217173H16.4631C16.1277 0.00217173 15.8533 0.276576 15.8533 0.611962Z" fill="#A38E23"/>
</svg>
