<svg width="25" height="20" viewBox="0 0 25 20" fill="none" xmlns="http://www.w3.org/2000/svg">
<path d="M18.0556 6.94457C18.0556 3.10776 14.0148 0.00012207 9.02778 0.00012207C4.0408 0.00012207 0 3.10776 0 6.94457C0 8.43328 0.611979 9.80481 1.64931 10.9376C1.06771 12.2484 0.108507 13.2901 0.0954861 13.3031C0 13.4029 -0.0260417 13.5505 0.0303819 13.6807C0.0868056 13.8109 0.208333 13.889 0.347222 13.889C1.93576 13.889 3.25087 13.3552 4.19705 12.8039C5.59462 13.4854 7.24826 13.889 9.02778 13.889C14.0148 13.889 18.0556 10.7814 18.0556 6.94457ZM23.3507 16.4932C24.388 15.3647 25 13.9888 25 12.5001C25 9.59647 22.678 7.1095 19.388 6.07217C19.4271 6.35863 19.4444 6.64943 19.4444 6.94457C19.4444 11.5409 14.77 15.2779 9.02778 15.2779C8.55903 15.2779 8.1033 15.2432 7.65191 15.1954C9.0191 17.6911 12.2309 19.4446 15.9722 19.4446C17.7517 19.4446 19.4054 19.0453 20.8029 18.3595C21.7491 18.9107 23.0642 19.4446 24.6528 19.4446C24.7917 19.4446 24.9175 19.3621 24.9696 19.2362C25.026 19.1104 25 18.9628 24.9045 18.8586C24.8915 18.8456 23.9323 17.8083 23.3507 16.4932Z" fill="#A38E23"/>
</svg>
