<svg width="68" height="68" viewBox="0 0 68 68" fill="none" xmlns="http://www.w3.org/2000/svg">
<path d="M58.2827 65.8833L56.4911 65.8831L55.6386 58.9727L58.283 58.9728L58.2827 65.8833Z" fill="#A0616A"/>
<path d="M58.2349 65.2977L56.3232 64.5212L56.2669 64.498L55.2112 65.2977C54.6319 65.2976 54.075 65.5212 53.6566 65.9219C53.2382 66.3225 52.9906 66.8692 52.9655 67.448C52.9626 67.4798 52.9626 67.513 52.9626 67.5463V67.6201H58.7396V65.2977H58.2349Z" fill="#2F2E41"/>
<path d="M54.0869 64.2162L52.3968 64.8108L49.299 58.5747L51.7935 57.6973L54.0869 64.2162Z" fill="#A0616A"/>
<path d="M53.8475 63.6792L51.7865 63.5812L51.7256 63.5781L50.9953 64.6828C50.4488 64.875 49.9976 65.2708 49.7359 65.7876C49.4742 66.3044 49.4221 66.9023 49.5906 67.4565C49.5984 67.4875 49.6094 67.5189 49.6205 67.5503L49.6449 67.6198L55.0944 65.7024L54.3236 63.5117L53.8475 63.6792Z" fill="#2F2E41"/>
<path d="M58.9158 36.086C60.5549 36.0225 58.5245 49.0845 58.5245 49.0845C58.5245 49.0845 59.1184 60.5524 58.9925 61.1542C58.8666 61.756 58.9766 63.3791 58.9766 63.3791C58.6555 62.7947 55.3424 63.2358 55.3424 63.2358L54.8917 51.6131L52.5905 42.3006L49.4003 48.5429L52.458 58.1245C52.458 58.1245 53.6963 59.2703 53.5646 59.7231C53.4329 60.1759 50.1894 61.1971 49.5934 61.2202C48.9974 61.2433 49.2665 60.4867 49.2376 59.7417C49.2087 58.9966 46.404 52.0914 45.4175 49.742C44.4309 47.3925 45.1979 44.0796 45.7015 41.6724C46.205 39.2651 48.8543 34.7475 48.8543 34.7475C52.1428 31.0384 57.2767 36.1496 58.9158 36.086Z" fill="#2F2E41"/>
<path d="M38.9405 25.5299C39.0303 25.7014 39.1566 25.8512 39.3105 25.9686C39.4645 26.0861 39.6423 26.1683 39.8314 26.2096C40.0206 26.2509 40.2165 26.2503 40.4054 26.2077C40.5942 26.165 40.7715 26.0815 40.9246 25.963L44.8662 28.5347L44.8542 26.089L41.113 24.0219C40.8969 23.7779 40.5987 23.6216 40.2751 23.5828C39.9514 23.5439 39.6247 23.6251 39.357 23.8109C39.0892 23.9968 38.8989 24.2745 38.8221 24.5913C38.7454 24.9081 38.7875 25.242 38.9405 25.5299Z" fill="#A0616A"/>
<path d="M58.0645 38.18C53.9997 38.1802 51.7597 37.3665 50.5702 36.6399C49.1156 35.7516 48.8667 34.8147 48.8569 34.7752L48.854 34.7639L48.9955 32.9823L49.0575 32.8437C49.3428 32.205 49.3806 31.4832 49.1637 30.8182L49.1592 30.8045L49.1603 30.7903L50.1108 18.4635L53.4742 17.3618L54.4527 16.3786L58.8093 16.3154L59.4163 17.546L62.8508 18.839L61.1635 28.8827L60.3546 30.2769L60.6801 31.7957L60.6778 31.8094L59.6167 38.143L59.5583 38.1456C59.0349 38.169 58.537 38.1805 58.0645 38.18Z" fill="#3F3D56"/>
<path d="M47.5486 30.4897L45.9539 29.5442L45.854 29.3999C45.651 29.1078 45.3823 28.8674 45.0696 28.6979C44.7568 28.5284 44.4087 28.4347 44.0531 28.4241L44.0345 28.4236L41.8382 27.1323L42.7486 24.4653L46.1916 25.4825L48.592 19.5183C48.7238 19.1908 48.9439 18.9062 49.2278 18.6963C49.5117 18.4863 49.8483 18.3593 50.2001 18.3292C50.5519 18.2991 50.9052 18.3672 51.2206 18.526C51.536 18.6847 51.8012 18.9278 51.9867 19.2282C52.1767 19.5422 52.2752 19.9031 52.2712 20.2701V24.1726L52.2568 24.1919L47.5486 30.4897Z" fill="#3F3D56"/>
<path d="M58.2099 35.8865C58.244 35.6959 58.3194 35.5151 58.4309 35.3568C58.5425 35.1986 58.6874 35.0667 58.8554 34.9705C59.0234 34.8743 59.2104 34.8161 59.4034 34.7999C59.5963 34.7838 59.7905 34.8102 59.9721 34.8773L62.959 31.2402L63.6824 33.5765L60.735 36.6721C60.6022 36.9698 60.3647 37.2084 60.0677 37.3427C59.7707 37.477 59.4347 37.4977 59.1235 37.4009C58.8122 37.3041 58.5473 37.0964 58.3789 36.8173C58.2105 36.5382 58.1504 36.207 58.2099 35.8865Z" fill="#A0616A"/>
<path d="M62.6758 35.4264L60.6924 33.4427L61.955 30.3664L63.7848 27.8678C61.835 26.9186 60.3713 24.6699 59.3108 22.8084L59.2989 22.7875L59.5629 20.7191C59.6247 20.2353 59.8185 19.7779 60.1231 19.397C60.3879 19.0657 60.7282 18.8027 61.1155 18.6299C61.5029 18.4571 61.9259 18.3795 62.3493 18.4037C62.7728 18.4279 63.1843 18.5532 63.5494 18.769C63.9145 18.9848 64.2226 19.2848 64.448 19.6441L68.0041 27.5494L67.964 27.6091L65.1037 32.485L64.3231 32.9913L62.6758 35.4264Z" fill="#3F3D56"/>
<path d="M59.759 12.1688C59.6282 13.122 59.1244 13.9843 58.3582 14.5662C57.592 15.1482 56.6262 15.4022 55.6729 15.2724C54.7195 15.1427 53.8567 14.6398 53.2739 13.8743C52.6912 13.1087 52.4361 12.1432 52.5648 11.1897L52.5718 11.1382C52.7222 10.1975 53.2364 9.35355 54.0034 8.78851C54.7704 8.22348 55.7288 7.9826 56.6719 8.11783C57.6149 8.25306 58.467 8.75357 59.0443 9.51139C59.6216 10.2692 59.8779 11.2236 59.7579 12.1687L59.759 12.1688Z" fill="#A0616A"/>
<path d="M58.835 14.0392C59.0215 13.6605 59.213 13.254 59.1606 12.8351C59.1082 12.4163 58.6974 12.016 58.2941 12.1404C58.0529 12.2149 57.8706 12.453 57.6185 12.4652C57.2717 12.482 57.0728 12.085 56.9648 11.7549L56.5251 10.4106C56.1028 10.7397 55.6131 10.9715 55.0909 11.0895C54.5687 11.2075 54.0269 11.2088 53.5041 11.0932C53.0958 10.9999 52.6834 10.8179 52.4439 10.4743C52.2044 10.1307 52.2058 9.59774 52.5343 9.33793C52.6954 9.21053 52.9097 9.16214 53.0637 9.0262C53.1592 8.94187 53.225 8.82904 53.2513 8.70441C53.2777 8.57978 53.2633 8.44996 53.2101 8.33418C53.157 8.21839 53.068 8.12279 52.9563 8.06151C52.8446 8.00023 52.7162 7.97654 52.59 7.99394L53.6972 7.85555L53.3673 7.2589C53.4927 7.34424 53.6346 7.40246 53.7838 7.42983C53.933 7.4572 54.0862 7.45312 54.2337 7.41785C54.5316 7.36421 54.8122 7.24155 55.1036 7.15976C55.81 6.97938 56.5559 7.0345 57.2281 7.31676C57.9003 7.59902 58.462 8.09299 58.8278 8.7236C59.1003 8.63262 59.394 8.62657 59.6699 8.70626C59.9459 8.78595 60.1912 8.94761 60.3732 9.16983C60.6696 9.54603 60.7502 10.0481 60.7617 10.5269C60.7832 11.4709 60.5774 12.4063 60.1615 13.2541C60.0423 13.5234 59.8709 13.7665 59.6574 13.9693C59.5498 14.0699 59.4216 14.1457 59.2817 14.1914C59.1418 14.2372 58.9935 14.2518 58.8474 14.2342" fill="#2F2E41"/>
<path d="M0.00851956 10.3036C0.0677537 11.1491 0.316841 11.9704 0.737256 12.7064C1.6233 14.2624 3.14275 15.3891 4.77923 16.0587C6.82377 16.8954 9.10289 16.9211 11.2727 16.7346C13.288 16.5613 15.2828 16.1597 17.3055 16.0769C18.8698 16.0268 20.4357 16.0642 21.9958 16.1888C25.0226 16.4036 28.0368 16.8022 31.0316 17.2854C31.8427 17.4147 32.652 17.5536 33.4597 17.7021C33.536 17.7088 33.6115 17.7229 33.6852 17.744C33.6999 17.75 33.7235 17.7453 33.7369 17.7538C33.7613 17.7691 33.6383 17.7148 33.7128 17.7765C33.8167 17.8855 33.9094 18.0047 33.9893 18.1323L35.0954 19.5557C35.4126 19.9639 35.707 20.4598 36.1169 20.7815C36.4059 21.0049 36.7546 21.1376 37.119 21.163C37.4834 21.1884 37.8471 21.1053 38.1644 20.9242C38.4958 20.7148 38.76 20.4146 38.9257 20.0594C39.1802 19.5928 39.4837 19.1546 39.8312 18.7525C41.147 17.2174 42.9759 16.2732 44.5055 14.9816C45.2464 14.3816 45.8787 13.6587 46.3749 12.8446C46.7982 12.1079 47.0614 11.2902 47.1473 10.4449C47.3305 8.7283 46.8037 6.97768 45.9178 5.51731C44.9541 3.94838 43.5696 2.6812 41.9218 1.85975C40.0705 0.916612 38.0221 0.457212 35.9687 0.228282C33.7886 -0.014778 31.5831 -0.0140203 29.3923 0.0105191C26.9337 0.0378869 24.4795 0.146007 22.0298 0.334877C19.5768 0.524748 17.1334 0.794634 14.6996 1.14454C12.3644 1.48029 10.0006 1.83023 7.71471 2.42432C5.69533 2.94914 3.68163 3.76946 2.17368 5.25579C0.832907 6.57735 -0.0996256 8.38582 0.00851956 10.3036Z" fill="#A38E23"/>
<path d="M11.2964 10.8494C11.1966 10.8449 11.0987 10.8198 11.0091 10.7757C10.9194 10.7315 10.8399 10.6693 10.7755 10.5929C10.711 10.5165 10.6631 10.4276 10.6348 10.3318C10.6064 10.236 10.5981 10.1353 10.6106 10.0361L10.6625 9.62765C10.6724 9.5493 10.6631 9.46971 10.6354 9.39573C10.6078 9.32176 10.5626 9.2556 10.5037 9.20295L10.1969 8.92878C10.0964 8.83903 10.0231 8.72295 9.98512 8.59368C9.94718 8.4644 9.94617 8.32709 9.9822 8.19727C10.0182 8.06745 10.0899 7.9503 10.189 7.85908C10.2882 7.76786 10.4109 7.7062 10.5432 7.68108L10.9477 7.60425C11.0253 7.58954 11.0981 7.55619 11.1599 7.50709C11.2217 7.45799 11.2706 7.3946 11.3025 7.32239L11.4685 6.94535C11.5228 6.8221 11.6106 6.71651 11.7218 6.64052C11.8331 6.56453 11.9633 6.52116 12.0979 6.51533C12.2325 6.50949 12.366 6.54142 12.4834 6.6075C12.6008 6.67358 12.6974 6.77118 12.7622 6.88926L12.9601 7.2502C12.9981 7.3195 13.0523 7.37852 13.1182 7.42217C13.1841 7.46582 13.2596 7.49278 13.3382 7.50074L13.7477 7.54211C13.8817 7.55567 14.0093 7.60647 14.116 7.68876C14.2227 7.77105 14.3042 7.88154 14.3513 8.00775C14.3985 8.13396 14.4094 8.27084 14.3828 8.40292C14.3562 8.535 14.2932 8.657 14.2009 8.75513L13.9188 9.05496C13.8647 9.11242 13.8254 9.18219 13.8042 9.25825C13.7831 9.33431 13.7808 9.41437 13.7976 9.49151L13.8846 9.89414C13.9131 10.0258 13.9041 10.1628 13.8588 10.2896C13.8135 10.4165 13.7336 10.5281 13.6282 10.6119C13.5228 10.6957 13.396 10.7484 13.2622 10.7639C13.1284 10.7795 12.9929 10.7573 12.8711 10.6998L12.4987 10.5244C12.4273 10.4905 12.3488 10.4746 12.2698 10.478C12.1909 10.4814 12.114 10.504 12.0458 10.5438L11.69 10.751C11.5709 10.8207 11.4343 10.8549 11.2964 10.8494Z" fill="white"/>
<path d="M17.0943 10.6816C16.9106 10.6731 16.7369 10.5956 16.608 10.4645C16.5301 10.382 16.472 10.2828 16.438 10.1745C16.4041 10.0662 16.3953 9.95159 16.4122 9.83937L16.4598 9.46457C16.47 9.38477 16.4605 9.30369 16.4324 9.22833C16.4042 9.15297 16.3582 9.08558 16.2982 9.03198L16.0136 8.77765C15.9296 8.706 15.8627 8.61653 15.8177 8.51576C15.7727 8.41499 15.7507 8.30544 15.7534 8.19511C15.7596 8.03167 15.8212 7.87519 15.928 7.7513C16.0347 7.62742 16.1804 7.54348 16.3412 7.51324L16.741 7.43731C16.82 7.4223 16.8943 7.38828 16.9572 7.33819C17.0202 7.2881 17.0701 7.22345 17.1025 7.14981L17.2515 6.81146C17.3048 6.68305 17.3924 6.57181 17.5048 6.49001C17.6173 6.40821 17.7501 6.35901 17.8886 6.34783C18.0245 6.34013 18.1597 6.37115 18.2785 6.43729C18.3974 6.50343 18.4951 6.60197 18.5601 6.72143L18.7558 7.07817C18.7945 7.14879 18.8498 7.20892 18.917 7.25339C18.9841 7.29786 19.061 7.32533 19.1412 7.33342L19.5207 7.37177C19.6308 7.38037 19.7376 7.41345 19.8333 7.46857C19.9289 7.5237 20.0111 7.59949 20.0738 7.69041C20.1647 7.82631 20.2068 7.98903 20.1932 8.15197C20.1795 8.3149 20.111 8.46838 19.9988 8.5873L19.7201 8.88365C19.665 8.94221 19.625 9.01328 19.6034 9.09073C19.5819 9.16819 19.5796 9.24972 19.5965 9.32829L19.6769 9.70004C19.7026 9.80734 19.7042 9.91902 19.6816 10.027C19.6589 10.135 19.6126 10.2366 19.5459 10.3245C19.4451 10.4537 19.3033 10.5446 19.1439 10.5824C18.9845 10.6201 18.817 10.6023 18.6691 10.532L18.3005 10.3583C18.2278 10.3241 18.1479 10.308 18.0676 10.3115C17.9873 10.315 17.9091 10.338 17.8396 10.3784L17.4879 10.5832C17.3688 10.6529 17.2322 10.687 17.0943 10.6816Z" fill="white"/>
<path d="M22.9073 10.6571C22.8075 10.6526 22.7097 10.6274 22.62 10.5833C22.5304 10.5391 22.4508 10.4769 22.3864 10.4005C22.322 10.3241 22.2741 10.2352 22.2457 10.1394C22.2173 10.0436 22.2091 9.94291 22.2215 9.84375L22.2734 9.43527C22.2833 9.35692 22.274 9.27733 22.2464 9.20335C22.2187 9.12937 22.1735 9.06322 22.1147 9.01057L21.8078 8.7364C21.7074 8.64664 21.634 8.53057 21.5961 8.40129C21.5581 8.27202 21.5571 8.13471 21.5931 8.00489C21.6292 7.87507 21.7008 7.75792 21.8 7.6667C21.8991 7.57547 22.0218 7.51381 22.1542 7.48869L22.5587 7.41186C22.6362 7.39715 22.709 7.36381 22.7708 7.31471C22.8326 7.26561 22.8815 7.20222 22.9134 7.13001L23.0794 6.75297C23.1338 6.62972 23.2215 6.52413 23.3328 6.44814C23.444 6.37214 23.5743 6.32878 23.7088 6.32294C23.8434 6.31711 23.977 6.34903 24.0943 6.41511C24.2117 6.48119 24.3083 6.57879 24.3731 6.69688L24.571 7.05781C24.609 7.12711 24.6633 7.18613 24.7291 7.22978C24.795 7.27343 24.8705 7.3004 24.9491 7.30836L25.3586 7.34973C25.4927 7.36329 25.6202 7.41408 25.7269 7.49637C25.8336 7.57866 25.9151 7.68916 25.9623 7.81537C26.0094 7.94157 26.0203 8.07846 25.9937 8.21053C25.9671 8.34261 25.9041 8.46462 25.8118 8.56274L25.5298 8.86258C25.4756 8.92003 25.4363 8.9898 25.4152 9.06586C25.394 9.14192 25.3918 9.22199 25.4085 9.29913L25.4955 9.70176C25.524 9.8334 25.5151 9.97039 25.4698 10.0972C25.4245 10.2241 25.3446 10.3357 25.2391 10.4195C25.1337 10.5034 25.0069 10.556 24.8731 10.5715C24.7393 10.5871 24.6039 10.5649 24.482 10.5074L24.1096 10.332C24.0383 10.2982 23.9597 10.2823 23.8808 10.2856C23.8019 10.289 23.7249 10.3116 23.6567 10.3514L23.3009 10.5586C23.1818 10.6283 23.0452 10.6625 22.9073 10.6571Z" fill="white"/>
<path opacity="0.2" d="M28.5615 10.5037C28.4617 10.4992 28.3638 10.4741 28.2742 10.43C28.1845 10.3858 28.105 10.3236 28.0406 10.2472C27.9761 10.1708 27.9282 10.0819 27.8999 9.98607C27.8715 9.89025 27.8633 9.78959 27.8757 9.69043L27.9276 9.28195C27.9375 9.2036 27.9282 9.12401 27.9006 9.05004C27.8729 8.97606 27.8277 8.9099 27.7688 8.85725L27.462 8.58308C27.3615 8.49332 27.2882 8.37725 27.2502 8.24797C27.2123 8.1187 27.2113 7.98138 27.2473 7.85157C27.2833 7.72175 27.355 7.6046 27.4541 7.51338C27.5533 7.42215 27.676 7.3605 27.8083 7.33538L28.2128 7.25855C28.2904 7.24383 28.3632 7.21049 28.425 7.16139C28.4868 7.11229 28.5357 7.0489 28.5676 6.97669L28.7336 6.59965C28.7879 6.4764 28.8757 6.37081 28.9869 6.29481C29.0982 6.21882 29.2284 6.17546 29.363 6.16962C29.4976 6.16379 29.6311 6.19572 29.7485 6.2618C29.8659 6.32788 29.9625 6.42547 30.0273 6.54356L30.2252 6.90449C30.2632 6.97379 30.3174 7.03281 30.3833 7.07646C30.4492 7.12011 30.5247 7.14708 30.6033 7.15504L31.0128 7.19641C31.1468 7.20997 31.2744 7.26077 31.3811 7.34305C31.4878 7.42534 31.5693 7.53584 31.6164 7.66205C31.6636 7.78826 31.6745 7.92514 31.6479 8.05722C31.6213 8.1893 31.5583 8.3113 31.466 8.40943L31.1839 8.70927C31.1298 8.76672 31.0905 8.83648 31.0693 8.91255C31.0482 8.98861 31.0459 9.06867 31.0627 9.14581L31.1497 9.54844C31.1782 9.68009 31.1692 9.81708 31.1239 9.94392C31.0786 10.0708 30.9988 10.1824 30.8933 10.2662C30.7879 10.35 30.6611 10.4027 30.5273 10.4182C30.3935 10.4338 30.258 10.4116 30.1362 10.3541L29.7638 10.1787C29.6924 10.1448 29.6139 10.1289 29.5349 10.1323C29.456 10.1357 29.3791 10.1583 29.3109 10.1981L28.9551 10.4053C28.836 10.475 28.6994 10.5092 28.5615 10.5037Z" fill="black"/>
<path opacity="0.2" d="M34.2156 10.3504C34.1158 10.3459 34.018 10.3208 33.9283 10.2767C33.8387 10.2325 33.7591 10.1703 33.6947 10.0939C33.6303 10.0175 33.5824 9.92857 33.554 9.83275C33.5256 9.73693 33.5174 9.63627 33.5298 9.53711L33.5817 9.12863C33.5916 9.05028 33.5823 8.97069 33.5547 8.89671C33.527 8.82273 33.4818 8.75658 33.4229 8.70393L33.1161 8.42976C33.0156 8.34 32.9423 8.22393 32.9043 8.09465C32.8664 7.96538 32.8654 7.82806 32.9014 7.69824C32.9375 7.56843 33.0091 7.45128 33.1082 7.36006C33.2074 7.26883 33.3301 7.20717 33.4625 7.18205L33.8669 7.10522C33.9445 7.09051 34.0173 7.05717 34.0791 7.00807C34.1409 6.95897 34.1898 6.89558 34.2217 6.82337L34.3877 6.44633C34.4421 6.32308 34.5298 6.21749 34.641 6.14149C34.7523 6.0655 34.8825 6.02214 35.0171 6.0163C35.1517 6.01047 35.2852 6.0424 35.4026 6.10848C35.52 6.17456 35.6166 6.27215 35.6814 6.39024L35.8793 6.75118C35.9173 6.82048 35.9715 6.8795 36.0374 6.92315C36.1033 6.9668 36.1788 6.99376 36.2574 7.00172L36.6669 7.0431C36.8009 7.05665 36.9285 7.10745 37.0352 7.18974C37.1419 7.27203 37.2234 7.38253 37.2705 7.50873C37.3177 7.63494 37.3286 7.77182 37.302 7.9039C37.2754 8.03598 37.2124 8.15798 37.1201 8.25611L36.838 8.55595C36.7839 8.6134 36.7446 8.68317 36.7234 8.75923C36.7023 8.83529 36.7 8.91535 36.7168 8.99249L36.8038 9.39513C36.8323 9.52677 36.8234 9.66376 36.7781 9.79061C36.7327 9.91745 36.6529 10.0291 36.5474 10.1129C36.442 10.1967 36.3152 10.2494 36.1814 10.2649C36.0476 10.2804 35.9122 10.2582 35.7903 10.2008L35.4179 10.0253C35.3465 9.99152 35.268 9.97562 35.1891 9.97901C35.1101 9.9824 35.0332 10.005 34.965 10.0448L34.6092 10.252C34.4901 10.3217 34.3535 10.3559 34.2156 10.3504Z" fill="black"/>
</svg>
