<svg width="22" height="29" viewBox="0 0 22 29" fill="none" xmlns="http://www.w3.org/2000/svg">
<path d="M10.5805 27.8471C9.08791 25.6832 7.82251 23.8807 6.74932 22.352C4.83998 19.6321 3.53906 17.779 2.64948 16.2998C1.96731 15.1655 1.56475 14.3095 1.32612 13.5037C1.08975 12.7056 1 11.9087 1 10.875C1 5.42117 5.42117 1 10.875 1C16.3288 1 20.75 5.42117 20.75 10.875C20.75 11.9087 20.6602 12.7056 20.4239 13.5037C20.1852 14.3095 19.7827 15.1655 19.1005 16.2998C18.2109 17.779 16.91 19.6321 15.0007 22.3519C13.9277 23.8805 12.6625 25.6827 11.1702 27.8461C11.0277 28.0514 10.7219 28.0513 10.5796 27.8457L9.75737 28.4149L10.5805 27.8471ZM10.875 16.4062C13.9298 16.4062 16.4062 13.9298 16.4062 10.875C16.4062 7.82016 13.9298 5.34375 10.875 5.34375C7.82016 5.34375 5.34375 7.82016 5.34375 10.875C5.34375 13.9298 7.82016 16.4062 10.875 16.4062Z" fill="white" stroke="#BBAA52" stroke-width="2"/>
</svg>
