<svg width="41" height="32" viewBox="0 0 41 32" fill="none" xmlns="http://www.w3.org/2000/svg">
<mask id="path-1-inside-1_1_40" fill="white">
<path d="M19.9564 8.27126L6.83387 19.0792V30.7441C6.83387 31.0461 6.95385 31.3358 7.16742 31.5493C7.38099 31.7629 7.67065 31.8829 7.97267 31.8829L15.9486 31.8622C16.2496 31.8607 16.5378 31.7401 16.7501 31.5267C16.9625 31.3133 17.0817 31.0245 17.0817 30.7234V23.9113C17.0817 23.6092 17.2016 23.3196 17.4152 23.106C17.6288 22.8925 17.9184 22.7725 18.2205 22.7725H22.7757C23.0777 22.7725 23.3674 22.8925 23.5809 23.106C23.7945 23.3196 23.9145 23.6092 23.9145 23.9113V30.7185C23.914 30.8683 23.9431 31.0168 24.0001 31.1554C24.0571 31.2939 24.141 31.4199 24.2468 31.526C24.3526 31.6321 24.4782 31.7163 24.6166 31.7738C24.755 31.8312 24.9034 31.8608 25.0533 31.8608L33.0263 31.8829C33.3283 31.8829 33.618 31.7629 33.8316 31.5493C34.0451 31.3358 34.1651 31.0461 34.1651 30.7441V19.0714L21.0454 8.27126C20.8912 8.14693 20.699 8.07914 20.5009 8.07914C20.3028 8.07914 20.1107 8.14693 19.9564 8.27126ZM40.6847 15.6172L34.7345 10.7126V0.854101C34.7345 0.627579 34.6445 0.410336 34.4843 0.250161C34.3242 0.0899856 34.1069 0 33.8804 0H29.8946C29.6681 0 29.4508 0.0899856 29.2907 0.250161C29.1305 0.410336 29.0405 0.627579 29.0405 0.854101V6.02213L22.6682 0.779367C22.0567 0.276145 21.2893 0.00100595 20.4974 0.00100595C19.7054 0.00100595 18.938 0.276145 18.3265 0.779367L0.309967 15.6172C0.22348 15.6887 0.151926 15.7765 0.0993931 15.8757C0.0468602 15.9748 0.0143779 16.0834 0.00380228 16.1951C-0.00677334 16.3068 0.00476493 16.4195 0.0377578 16.5267C0.0707507 16.634 0.124552 16.7337 0.196086 16.8201L2.01105 19.0265C2.08239 19.1133 2.17014 19.1851 2.26927 19.2379C2.36841 19.2907 2.47698 19.3234 2.58877 19.3342C2.70057 19.3449 2.81339 19.3336 2.92078 19.3007C3.02817 19.2678 3.12803 19.2141 3.21462 19.1425L19.9564 5.35308C20.1107 5.22875 20.3028 5.16096 20.5009 5.16096C20.699 5.16096 20.8912 5.22875 21.0454 5.35308L37.7879 19.1425C37.8744 19.2141 37.9741 19.2679 38.0813 19.3009C38.1885 19.3339 38.3012 19.3454 38.4129 19.3348C38.5246 19.3243 38.6332 19.2918 38.7323 19.2392C38.8315 19.1867 38.9193 19.1152 38.9908 19.0287L40.8057 16.8222C40.8772 16.7353 40.9308 16.6351 40.9634 16.5274C40.996 16.4197 41.007 16.3066 40.9957 16.1946C40.9845 16.0826 40.9512 15.974 40.8979 15.8749C40.8445 15.7758 40.7721 15.6882 40.6847 15.6172Z"/>
</mask>
<path d="M19.9564 8.27126L6.83387 19.0792V30.7441C6.83387 31.0461 6.95385 31.3358 7.16742 31.5493C7.38099 31.7629 7.67065 31.8829 7.97267 31.8829L15.9486 31.8622C16.2496 31.8607 16.5378 31.7401 16.7501 31.5267C16.9625 31.3133 17.0817 31.0245 17.0817 30.7234V23.9113C17.0817 23.6092 17.2016 23.3196 17.4152 23.106C17.6288 22.8925 17.9184 22.7725 18.2205 22.7725H22.7757C23.0777 22.7725 23.3674 22.8925 23.5809 23.106C23.7945 23.3196 23.9145 23.6092 23.9145 23.9113V30.7185C23.914 30.8683 23.9431 31.0168 24.0001 31.1554C24.0571 31.2939 24.141 31.4199 24.2468 31.526C24.3526 31.6321 24.4782 31.7163 24.6166 31.7738C24.755 31.8312 24.9034 31.8608 25.0533 31.8608L33.0263 31.8829C33.3283 31.8829 33.618 31.7629 33.8316 31.5493C34.0451 31.3358 34.1651 31.0461 34.1651 30.7441V19.0714L21.0454 8.27126C20.8912 8.14693 20.699 8.07914 20.5009 8.07914C20.3028 8.07914 20.1107 8.14693 19.9564 8.27126ZM40.6847 15.6172L34.7345 10.7126V0.854101C34.7345 0.627579 34.6445 0.410336 34.4843 0.250161C34.3242 0.0899856 34.1069 0 33.8804 0H29.8946C29.6681 0 29.4508 0.0899856 29.2907 0.250161C29.1305 0.410336 29.0405 0.627579 29.0405 0.854101V6.02213L22.6682 0.779367C22.0567 0.276145 21.2893 0.00100595 20.4974 0.00100595C19.7054 0.00100595 18.938 0.276145 18.3265 0.779367L0.309967 15.6172C0.22348 15.6887 0.151926 15.7765 0.0993931 15.8757C0.0468602 15.9748 0.0143779 16.0834 0.00380228 16.1951C-0.00677334 16.3068 0.00476493 16.4195 0.0377578 16.5267C0.0707507 16.634 0.124552 16.7337 0.196086 16.8201L2.01105 19.0265C2.08239 19.1133 2.17014 19.1851 2.26927 19.2379C2.36841 19.2907 2.47698 19.3234 2.58877 19.3342C2.70057 19.3449 2.81339 19.3336 2.92078 19.3007C3.02817 19.2678 3.12803 19.2141 3.21462 19.1425L19.9564 5.35308C20.1107 5.22875 20.3028 5.16096 20.5009 5.16096C20.699 5.16096 20.8912 5.22875 21.0454 5.35308L37.7879 19.1425C37.8744 19.2141 37.9741 19.2679 38.0813 19.3009C38.1885 19.3339 38.3012 19.3454 38.4129 19.3348C38.5246 19.3243 38.6332 19.2918 38.7323 19.2392C38.8315 19.1867 38.9193 19.1152 38.9908 19.0287L40.8057 16.8222C40.8772 16.7353 40.9308 16.6351 40.9634 16.5274C40.996 16.4197 41.007 16.3066 40.9957 16.1946C40.9845 16.0826 40.9512 15.974 40.8979 15.8749C40.8445 15.7758 40.7721 15.6882 40.6847 15.6172Z" fill="white"/>
<path d="M19.9564 8.27126L18.7013 6.71413L18.6931 6.72075L18.6849 6.72746L19.9564 8.27126ZM6.83387 19.0792L5.56238 17.5354L4.83387 18.1354V19.0792H6.83387ZM7.97267 31.8829V33.8829L7.97785 33.8829L7.97267 31.8829ZM15.9486 31.8622L15.9537 33.8622L15.9586 33.8622L15.9486 31.8622ZM17.0817 30.7234H15.0817V30.7235L17.0817 30.7234ZM23.9145 30.7185L25.9145 30.7247V30.7185H23.9145ZM25.0533 31.8608L25.0588 29.8608H25.0533L25.0533 31.8608ZM33.0263 31.8829L33.0208 33.8829H33.0263V31.8829ZM34.1651 19.0714H36.1651V18.1273L35.4362 17.5273L34.1651 19.0714ZM21.0454 8.27126L22.3165 6.72715L22.3086 6.7206L22.3005 6.71413L21.0454 8.27126ZM40.6847 15.6172L39.4126 17.1606L39.423 17.169L40.6847 15.6172ZM34.7345 10.7126H32.7345V11.6559L33.4624 12.2559L34.7345 10.7126ZM29.0405 6.02213L27.7698 7.56658L31.0405 10.2575V6.02213H29.0405ZM22.6682 0.779367L21.3974 2.32371L21.3975 2.32383L22.6682 0.779367ZM20.4974 0.00100595V2.00101V0.00100595ZM18.3265 0.779367L17.0557 -0.764971L17.0551 -0.764463L18.3265 0.779367ZM0.309967 15.6172L-0.961487 14.0734L-0.964203 14.0757L0.309967 15.6172ZM0.196086 16.8201L1.74067 15.5496L1.73692 15.545L0.196086 16.8201ZM2.01105 19.0265L3.55577 17.7562L3.55563 17.756L2.01105 19.0265ZM3.21462 19.1425L1.94309 17.5988L1.941 17.6005L3.21462 19.1425ZM19.9564 5.35308L18.7013 3.79595L18.6931 3.80259L18.6849 3.80931L19.9564 5.35308ZM21.0454 5.35308L22.3169 3.80929L22.3088 3.80258L22.3005 3.79595L21.0454 5.35308ZM37.7879 19.1425L39.063 17.6017L39.0594 17.5988L37.7879 19.1425ZM38.9908 19.0287L40.5324 20.3028L40.5354 20.2992L38.9908 19.0287ZM40.8057 16.8222L42.3503 18.0928L42.3508 18.0921L40.8057 16.8222ZM18.6849 6.72746L5.56238 17.5354L8.10537 20.623L21.2279 9.81505L18.6849 6.72746ZM4.83387 19.0792V30.7441H8.83387V19.0792H4.83387ZM4.83387 30.7441C4.83387 31.5765 5.16457 32.3749 5.75321 32.9636L8.58163 30.1351C8.74314 30.2966 8.83387 30.5157 8.83387 30.7441H4.83387ZM5.75321 32.9636C6.34185 33.5522 7.14022 33.8829 7.97267 33.8829V29.8829C8.20108 29.8829 8.42013 29.9736 8.58163 30.1351L5.75321 32.9636ZM7.97785 33.8829L15.9537 33.8622L15.9434 29.8623L7.9675 29.8829L7.97785 33.8829ZM15.9586 33.8622C16.7883 33.8581 17.5826 33.5255 18.1679 32.9374L15.3324 30.116C15.493 29.9546 15.7109 29.8634 15.9386 29.8623L15.9586 33.8622ZM18.1679 32.9374C18.7531 32.3492 19.0817 31.5532 19.0817 30.7234L15.0817 30.7235C15.0817 30.4958 15.1718 30.2774 15.3324 30.116L18.1679 32.9374ZM19.0817 30.7234V23.9113H15.0817V30.7234H19.0817ZM19.0817 23.9113C19.0817 24.1397 18.9909 24.3587 18.8294 24.5202L16.001 21.6918C15.4124 22.2804 15.0817 23.0788 15.0817 23.9113H19.0817ZM18.8294 24.5202C18.6679 24.6817 18.4489 24.7725 18.2205 24.7725V20.7725C17.388 20.7725 16.5896 21.1032 16.001 21.6918L18.8294 24.5202ZM18.2205 24.7725H22.7757V20.7725H18.2205V24.7725ZM22.7757 24.7725C22.5473 24.7725 22.3282 24.6817 22.1667 24.5202L24.9951 21.6918C24.4065 21.1032 23.6081 20.7725 22.7757 20.7725V24.7725ZM22.1667 24.5202C22.0052 24.3587 21.9145 24.1397 21.9145 23.9113H25.9145C25.9145 23.0788 25.5838 22.2804 24.9951 21.6918L22.1667 24.5202ZM21.9145 23.9113V30.7185H25.9145V23.9113H21.9145ZM21.9145 30.7122C21.9132 31.1252 21.9934 31.5344 22.1506 31.9164L25.8497 30.3943C25.8928 30.4991 25.9148 30.6114 25.9145 30.7247L21.9145 30.7122ZM22.1506 31.9164C22.3077 32.2984 22.5388 32.6455 22.8303 32.938L25.6632 30.114C25.7432 30.1943 25.8066 30.2895 25.8497 30.3943L22.1506 31.9164ZM22.8303 32.938C23.1219 33.2305 23.4684 33.4626 23.8498 33.621L25.3834 29.9266C25.4881 29.9701 25.5832 30.0338 25.6632 30.114L22.8303 32.938ZM23.8498 33.621C24.2313 33.7793 24.6403 33.8608 25.0533 33.8608L25.0533 29.8608C25.1666 29.8608 25.2788 29.8832 25.3834 29.9266L23.8498 33.621ZM25.0477 33.8608L33.0208 33.8829L33.0318 29.8829L25.0588 29.8608L25.0477 33.8608ZM33.0263 33.8829C33.8588 33.8829 34.6571 33.5522 35.2458 32.9636L32.4173 30.1351C32.5789 29.9736 32.7979 29.8829 33.0263 29.8829V33.8829ZM35.2458 32.9636C35.8344 32.3749 36.1651 31.5765 36.1651 30.7441H32.1651C32.1651 30.5157 32.2558 30.2966 32.4173 30.1351L35.2458 32.9636ZM36.1651 30.7441V19.0714H32.1651V30.7441H36.1651ZM35.4362 17.5273L22.3165 6.72715L19.7743 9.81537L32.894 20.6155L35.4362 17.5273ZM22.3005 6.71413C21.7907 6.30321 21.1557 6.07914 20.5009 6.07914V10.0791C20.2424 10.0791 19.9916 9.99066 19.7903 9.82839L22.3005 6.71413ZM20.5009 6.07914C19.8461 6.07914 19.2111 6.30321 18.7013 6.71413L21.2115 9.82839C21.0102 9.99065 20.7595 10.0791 20.5009 10.0791V6.07914ZM41.9568 14.0739L36.0066 9.16927L33.4624 12.2559L39.4126 17.1605L41.9568 14.0739ZM36.7345 10.7126V0.854101H32.7345V10.7126H36.7345ZM36.7345 0.854101C36.7345 0.0971502 36.4338 -0.628802 35.8986 -1.16405L33.0701 1.66437C32.8552 1.44947 32.7345 1.15801 32.7345 0.854101H36.7345ZM35.8986 -1.16405C35.3633 -1.6993 34.6374 -2 33.8804 -2V2C33.5765 2 33.285 1.87927 33.0701 1.66437L35.8986 -1.16405ZM33.8804 -2H29.8946V2H33.8804V-2ZM29.8946 -2C29.1376 -2 28.4117 -1.6993 27.8764 -1.16405L30.7049 1.66437C30.49 1.87927 30.1985 2 29.8946 2V-2ZM27.8764 -1.16405C27.3412 -0.628802 27.0405 0.0971502 27.0405 0.854101H31.0405C31.0405 1.15801 30.9198 1.44947 30.7049 1.66437L27.8764 -1.16405ZM27.0405 0.854101V6.02213H31.0405V0.854101H27.0405ZM30.3112 4.47767L23.9389 -0.76509L21.3975 2.32383L27.7698 7.56658L30.3112 4.47767ZM23.939 -0.764971C22.9695 -1.56279 21.7529 -1.99899 20.4974 -1.99899V2.00101C20.8257 2.00101 21.1438 2.11508 21.3974 2.32371L23.939 -0.764971ZM20.4974 -1.99899C19.2418 -1.99899 18.0252 -1.56279 17.0557 -0.764971L19.5973 2.32371C19.8509 2.11508 20.169 2.00101 20.4974 2.00101V-1.99899ZM17.0551 -0.764463L-0.961485 14.0734L1.58142 17.1611L19.598 2.3232L17.0551 -0.764463ZM-0.964203 14.0757C-1.25321 14.3145 -1.49232 14.608 -1.66786 14.9393L1.86665 16.8121C1.79617 16.9451 1.70017 17.0629 1.58414 17.1588L-0.964203 14.0757ZM-1.66786 14.9393C-1.84341 15.2706 -1.95195 15.6333 -1.98729 16.0066L1.9949 16.3836C1.98071 16.5334 1.93713 16.679 1.86665 16.8121L-1.66786 14.9393ZM-1.98729 16.0066C-2.02263 16.3798 -1.98408 16.7564 -1.87383 17.1148L1.94934 15.9386C1.99361 16.0825 2.00909 16.2337 1.9949 16.3836L-1.98729 16.0066ZM-1.87383 17.1148C-1.76357 17.4732 -1.58379 17.8063 -1.34475 18.0952L1.73692 15.545C1.83289 15.661 1.90508 15.7947 1.94934 15.9386L-1.87383 17.1148ZM-1.34849 18.0906L0.466471 20.2971L3.55563 17.756L1.74067 15.5496L-1.34849 18.0906ZM0.466336 20.2969C0.704728 20.5868 0.997952 20.8268 1.32922 21.0032L3.20932 17.4726C3.34233 17.5434 3.46005 17.6398 3.55577 17.7562L0.466336 20.2969ZM1.32922 21.0032C1.66048 21.1796 2.02329 21.2889 2.39688 21.3249L2.78067 17.3434C2.93067 17.3579 3.07633 17.4018 3.20932 17.4726L1.32922 21.0032ZM2.39688 21.3249C2.77045 21.361 3.14747 21.3229 3.50633 21.2131L2.33523 17.3883C2.47932 17.3442 2.63068 17.3289 2.78067 17.3434L2.39688 21.3249ZM3.50633 21.2131C3.8652 21.1032 4.19887 20.9236 4.48824 20.6846L1.941 17.6005C2.05718 17.5045 2.19114 17.4324 2.33523 17.3883L3.50633 21.2131ZM4.48615 20.6863L21.228 6.89685L18.6849 3.80931L1.94309 17.5988L4.48615 20.6863ZM21.2115 6.91021C21.0102 7.07247 20.7595 7.16096 20.5009 7.16096V3.16096C19.8461 3.16096 19.2111 3.38504 18.7013 3.79595L21.2115 6.91021ZM20.5009 7.16096C20.2424 7.16096 19.9916 7.07247 19.7903 6.91021L22.3005 3.79595C21.7907 3.38504 21.1557 3.16096 20.5009 3.16096V7.16096ZM19.7739 6.89687L36.5164 20.6863L39.0594 17.5988L22.3169 3.80929L19.7739 6.89687ZM36.5128 20.6834C36.8017 20.9224 37.1348 21.1022 37.4932 21.2125L38.6694 17.3893C38.8133 17.4336 38.947 17.5057 39.063 17.6017L36.5128 20.6834ZM37.4932 21.2125C37.8516 21.3227 38.2282 21.3613 38.6014 21.3259L38.2244 17.3437C38.3743 17.3295 38.5255 17.345 38.6694 17.3893L37.4932 21.2125ZM38.6014 21.3259C38.9747 21.2906 39.3374 21.182 39.6687 21.0065L37.7959 17.472C37.929 17.4015 38.0746 17.3579 38.2244 17.3437L38.6014 21.3259ZM39.6687 21.0065C40 20.8309 40.2935 20.5918 40.5324 20.3028L37.4492 17.7545C37.5451 17.6385 37.6629 17.5425 37.7959 17.472L39.6687 21.0065ZM40.5354 20.2992L42.3503 18.0928L39.2612 15.5517L37.4462 17.7581L40.5354 20.2992ZM42.3508 18.0921C42.5896 17.8016 42.7686 17.4668 42.8776 17.1068L39.0492 15.9479C39.0929 15.8034 39.1648 15.6689 39.2606 15.5523L42.3508 18.0921ZM42.8776 17.1068C42.9866 16.7468 43.0233 16.3689 42.9857 15.9948L39.0057 16.3944C38.9907 16.2442 39.0054 16.0925 39.0492 15.9479L42.8776 17.1068ZM42.9857 15.9948C42.9482 15.6206 42.837 15.2575 42.6587 14.9264L39.1371 16.8233C39.0655 16.6904 39.0208 16.5447 39.0057 16.3944L42.9857 15.9948ZM42.6587 14.9264C42.4803 14.5953 42.2383 14.3027 41.9465 14.0655L39.423 17.169C39.3058 17.0737 39.2087 16.9563 39.1371 16.8233L42.6587 14.9264Z" fill="#BBAA52" mask="url(#path-1-inside-1_1_40)"/>
</svg>
