<svg width="22" height="21" viewBox="0 0 22 21" fill="none" xmlns="http://www.w3.org/2000/svg">
<path d="M11.0732 20.2085C6.13685 20.2085 0.81126 17.0439 0.81126 10.0999C0.81126 3.15582 6.13685 -0.00878906 11.0732 -0.00878906C13.8156 -0.00878906 16.3457 0.913468 18.2212 2.59523C20.2559 4.43974 21.3351 7.04376 21.3351 10.0999C21.3351 13.156 20.2559 15.7419 18.2212 17.5864C16.3457 19.2682 13.7979 20.2085 11.0732 20.2085Z" fill="url(#paint0_radial_1049_327)"/>
<path d="M7.60534 6.12842C6.864 6.12842 6.1899 6.76857 6.1899 7.83188C6.1899 8.89519 6.864 9.53354 7.60534 9.53354C8.34844 9.53354 9.02078 8.89338 9.02078 7.83188C9.02078 6.77038 8.35552 6.12842 7.60534 6.12842Z" fill="#422B0D"/>
<path d="M7.54342 6.83925C7.29218 6.71628 6.98963 6.82478 6.86755 7.08157C6.77378 7.2823 6.81624 7.52281 6.97371 7.67832C7.22495 7.80129 7.5275 7.69279 7.64958 7.43601C7.74335 7.23528 7.70089 6.99477 7.54342 6.83925Z" fill="#896024"/>
<path d="M14.3995 6.12842C13.6582 6.12842 12.984 6.76857 12.984 7.83188C12.984 8.89519 13.6582 9.53354 14.3995 9.53354C15.1408 9.53354 15.8149 8.89338 15.8149 7.83188C15.8149 6.77038 15.1408 6.12842 14.3995 6.12842Z" fill="#422B0D"/>
<path d="M14.3287 6.83925C14.0775 6.71628 13.7749 6.82478 13.6528 7.08157C13.5591 7.2823 13.6015 7.52281 13.759 7.67832C14.0102 7.80129 14.3128 7.69279 14.4349 7.43601C14.5286 7.23528 14.4862 6.99477 14.3287 6.83925Z" fill="#896024"/>
<path d="M10.9671 15.2912C9.3623 15.3038 7.83009 14.6148 6.75613 13.396C6.67474 13.3002 6.65528 13.1646 6.70659 13.0488C6.75789 12.9313 6.87113 12.8553 6.99675 12.8535C7.05337 12.8535 7.10999 12.8698 7.15953 12.8987C8.01233 13.3996 9.43838 14.0217 10.9671 14.0217H10.9918C12.5187 14.0217 13.9466 13.3996 14.7976 12.8987C14.8471 12.8698 14.9038 12.8535 14.9604 12.8535C15.086 12.8553 15.1992 12.9313 15.2505 13.0488C15.3036 13.1646 15.2842 13.3002 15.201 13.396C14.127 14.6148 12.5913 15.3056 10.9865 15.2912" fill="#422B0D"/>
<path d="M19.5464 4.09033C20.4894 5.64551 20.9813 7.49726 20.9813 9.55696C20.9813 12.6131 19.902 15.199 17.8673 17.0435C15.9918 18.7253 13.4441 19.6656 10.7193 19.6656C7.52399 19.6656 4.17294 18.3365 2.19486 15.5173C4.09863 18.7108 7.67969 20.2081 11.0732 20.2081C13.7979 20.2081 16.3457 19.2678 18.2212 17.586C20.2559 15.7415 21.3351 13.1556 21.3351 10.0995C21.3351 7.79564 20.7212 5.74859 19.5464 4.09033Z" fill="#EB8F00"/>
<defs>
<radialGradient id="paint0_radial_1049_327" cx="0" cy="0" r="1" gradientUnits="userSpaceOnUse" gradientTransform="translate(11.0732 10.0999) scale(10.0779 10.3003)">
<stop offset="0.5" stop-color="#FDE030"/>
<stop offset="0.92" stop-color="#F7C02B"/>
<stop offset="1" stop-color="#F4A223"/>
</radialGradient>
</defs>
</svg>
