<svg width="25" height="22" viewBox="0 0 25 22" fill="none" xmlns="http://www.w3.org/2000/svg">
<path d="M2.06574 16.5757L2.05578 16.2783L1.78961 16.1452L1.08733 15.7941C1.08732 15.7941 1.08732 15.7941 1.08731 15.7941C0.910833 15.7058 0.762411 15.5702 0.658678 15.4024C0.554943 15.2345 0.499997 15.0411 0.5 14.8438V12.5C0.5 5.8668 5.86791 0.5 12.5 0.5C19.1332 0.5 24.5 5.86796 24.5 12.5V14.8438C24.5 15.0411 24.445 15.2345 24.3413 15.4023C24.2376 15.5702 24.0891 15.7058 23.9126 15.7941L23.9126 15.7941L23.2104 16.1452L22.9442 16.2783L22.9343 16.5757C22.8451 19.2412 20.6561 21.375 17.9688 21.375H16.7969C16.4258 21.375 16.125 21.0742 16.125 20.7031V12.1094C16.125 11.7383 16.4258 11.4375 16.7969 11.4375H17.9688C19.3592 11.4375 20.6153 12.0083 21.5179 12.9294L22.375 13.8042V12.5794V12.5C22.375 7.05447 17.9455 2.625 12.5 2.625C7.05447 2.625 2.625 7.05447 2.625 12.5V12.5794V13.8042L3.48214 12.9294C4.38466 12.0083 5.64078 11.4375 7.03125 11.4375H8.20312C8.5742 11.4375 8.875 11.7383 8.875 12.1094V20.7031C8.875 21.0742 8.5742 21.375 8.20312 21.375H7.03125C4.34389 21.375 2.15494 19.2413 2.06574 16.5757Z" fill="white" stroke="#A38E23"/>
</svg>
