<svg width="47" height="47" viewBox="0 0 47 47" fill="none" xmlns="http://www.w3.org/2000/svg">
<rect x="0.5" y="0.5" width="46" height="46" rx="2" fill="white" stroke="#A38E23"/>
<path d="M12.1576 16.6235L13.1217 15.6587L25.9565 17.1687L26.1971 17.197L26.3684 17.0257L30.1181 13.276L30.1182 13.2761L30.1242 13.2698C30.3164 13.0708 30.5463 12.9121 30.8005 12.8029L30.6031 12.3435L30.8005 12.8029C31.0546 12.6937 31.328 12.6363 31.6046 12.6339C31.8813 12.6315 32.1556 12.6842 32.4116 12.7889C32.6677 12.8937 32.9003 13.0484 33.0959 13.244C33.2915 13.4396 33.4462 13.6722 33.5509 13.9282C33.6557 14.1843 33.7084 14.4586 33.706 14.7352C33.7036 15.0118 33.6461 15.2852 33.5369 15.5394L33.9963 15.7367L33.5369 15.5394C33.4278 15.7936 33.269 16.0235 33.0701 16.2156L33.07 16.2156L33.0638 16.2218L29.411 19.8759L29.2397 20.0472L29.268 20.2878L30.7768 33.1227L29.7225 34.177L25.362 24.8713L25.0596 24.226L24.5557 24.7299L20.2764 29.0092L20.0872 29.1984L20.1396 29.4608L21.0004 33.7658L19.8853 34.8808L17.4353 29.1658L17.3566 28.982L17.1728 28.9032L11.4591 26.4545L12.574 25.3396L16.8789 26.2015L17.1414 26.2541L17.3306 26.0648L21.5324 21.863L22.0313 21.3641L21.3953 21.0587L12.1576 16.6235Z" fill="white" stroke="#A38E23"/>
</svg>
