<svg width="21" height="22" viewBox="0 0 21 22" fill="none" xmlns="http://www.w3.org/2000/svg">
<path d="M2.20571 3.13234L2.22383 3.12132L2.24095 3.10882C4.70833 1.30627 7.99556 0.5 10.9401 0.5C14.1554 0.5 16.373 1.16933 17.7768 2.24664C19.1607 3.30859 19.8129 4.81224 19.8151 6.64125V21.0856C19.7379 21.0886 19.6415 21.0912 19.5297 21.0934C19.2554 21.0988 18.901 21.1016 18.5361 21.1028C18.0039 21.1046 17.4578 21.1031 17.1118 21.1022C16.9826 21.1018 16.8813 21.1016 16.819 21.1016C16.6018 21.1016 15.9142 21.0895 15.2589 21.0712C14.932 21.0621 14.6168 21.0515 14.3751 21.0403C14.2613 21.035 14.1668 21.0297 14.0964 21.0246V19.8193V18.9808L13.3587 19.3795C11.478 20.3958 8.34184 21.375 6.11104 21.375C3.58493 21.375 2.21226 20.399 1.45526 19.374C0.675747 18.3185 0.512405 17.159 0.512405 16.7969C0.512405 16.7059 0.510233 16.5925 0.507712 16.461C0.496894 15.8964 0.479663 14.9972 0.600148 14.0971C0.674034 13.5451 0.796487 13.026 0.987834 12.6099C1.17758 12.1973 1.41471 11.9285 1.69821 11.7956C2.41591 11.4974 4.26291 11.0621 6.51765 10.6271C8.75769 10.1949 11.3378 9.7742 13.4603 9.49978L13.8962 9.44342V9.00391V7.12402C13.8962 6.58303 13.8937 6.05925 13.8413 5.59008C13.7889 5.12021 13.6828 4.66291 13.449 4.26675C12.9482 3.41824 11.9986 3.05469 10.5202 3.05469C7.6792 3.05469 4.45922 4.33454 2.80338 5.46975C2.75139 5.50412 2.68859 5.51425 2.64984 5.50648C2.63456 5.50341 2.62345 5.49798 2.61299 5.48912C2.60254 5.48028 2.57941 5.45667 2.55641 5.39946L2.55645 5.39944L2.5538 5.39309C2.36418 4.93949 2.20543 4.15085 2.12215 3.73711C2.10721 3.66288 2.0947 3.60072 2.08487 3.55472C2.05539 3.39121 2.07855 3.29824 2.09983 3.24977C2.12169 3.20001 2.15702 3.16193 2.20571 3.13234ZM13.9938 21.0148C13.994 21.0148 13.9959 21.0151 13.999 21.0156C13.9952 21.0151 13.9936 21.0148 13.9938 21.0148ZM13.6538 17.4177L13.8913 17.2712V16.9922V11.7822V11.2343L13.3456 11.2843C11.1094 11.4894 8.57005 12.2936 7.31366 12.9728C6.59294 13.3241 6.31861 14.0076 6.21312 14.5826C6.12767 15.0484 6.13865 15.5346 6.14539 15.8333C6.14687 15.899 6.14815 15.9556 6.14813 16.001L6.14817 16.0054C6.15122 16.3475 6.24301 17.0211 6.73934 17.6173C7.25198 18.2331 8.12643 18.6836 9.52901 18.6836C11.1357 18.6836 12.5597 18.0926 13.6538 17.4177Z" fill="white" stroke="#A38E23"/>
</svg>
