<svg width="19" height="25" viewBox="0 0 19 25" fill="none" xmlns="http://www.w3.org/2000/svg">
<path d="M8.8227 24.2111C7.54518 22.3591 6.45835 20.8109 5.53414 19.4943C3.88024 17.1383 2.7471 15.5241 1.97376 14.2382C1.3773 13.2464 1.01377 12.4792 0.796038 11.7439C0.579446 11.0126 0.5 10.2887 0.5 9.375C0.5 4.47346 4.47346 0.5 9.375 0.5C14.2765 0.5 18.25 4.47346 18.25 9.375C18.25 10.2887 18.1706 11.0126 17.954 11.7439C17.7362 12.4792 17.3727 13.2464 16.7762 14.2382C16.0029 15.5241 14.8698 17.1383 13.2159 19.4943C12.2917 20.8108 11.2049 22.359 9.92737 24.211C9.66065 24.5963 9.08944 24.5963 8.8227 24.2111ZM9.375 13.7812C11.8085 13.7812 13.7812 11.8085 13.7812 9.375C13.7812 6.94148 11.8085 4.96875 9.375 4.96875C6.94148 4.96875 4.96875 6.94148 4.96875 9.375C4.96875 11.8085 6.94148 13.7812 9.375 13.7812Z" fill="white" stroke="#A38E23"/>
</svg>
