<svg width="25" height="19" viewBox="0 0 25 19" fill="none" xmlns="http://www.w3.org/2000/svg">
<path d="M24.2694 10.2071L16.0657 18.4109C15.3332 19.1433 14.0636 18.6306 14.0636 17.5807V12.8929H7.42243C6.77297 12.8929 6.25047 12.3704 6.25047 11.7209V7.03306C6.25047 6.38359 6.77297 5.86109 7.42243 5.86109H14.0636V1.17324C14.0636 0.128245 15.3283 -0.389371 16.0657 0.343105L24.2694 8.54684C24.7235 9.00586 24.7235 9.7481 24.2694 10.2071ZM9.3757 18.1667V16.2134C9.3757 15.8911 9.11201 15.6274 8.78972 15.6274H4.68785C3.82353 15.6274 3.12523 14.9292 3.12523 14.0648V4.68913C3.12523 3.82481 3.82353 3.12652 4.68785 3.12652H8.78972C9.11201 3.12652 9.3757 2.86282 9.3757 2.54053V0.587264C9.3757 0.264974 9.11201 0.00128272 8.78972 0.00128272H4.68785C2.09977 0.00128272 0 2.10105 0 4.68913V14.0648C0 16.6529 2.09977 18.7527 4.68785 18.7527H8.78972C9.11201 18.7527 9.3757 18.489 9.3757 18.1667Z" fill="#A38E23"/>
</svg>
