<svg width="25" height="25" viewBox="0 0 25 25" fill="none" xmlns="http://www.w3.org/2000/svg">
<path d="M18.2245 16.2921L18.2253 16.2912C18.2488 16.2623 18.2811 16.2419 18.3173 16.233C18.3533 16.2241 18.3912 16.2271 18.4254 16.2416C18.4255 16.2416 18.4257 16.2417 18.4258 16.2418L23.8877 18.5826C23.8882 18.5828 23.8887 18.583 23.8891 18.5832C23.9282 18.6006 23.9601 18.6308 23.9794 18.669C23.9987 18.707 24.0044 18.7506 23.9954 18.7923C23.9953 18.7928 23.9952 18.7934 23.995 18.794L22.8245 23.8664C22.8245 23.8664 22.8244 23.8664 22.8244 23.8665C22.8157 23.9043 22.7943 23.9381 22.764 23.9622C22.7335 23.9864 22.6958 23.9996 22.6569 23.9996H22.6562C10.7031 23.9996 1 14.3149 1 2.34331V2.34308C0.999991 2.30421 1.01316 2.26649 1.03735 2.23607C1.06151 2.20568 1.09525 2.18437 1.13306 2.17561C1.13311 2.1756 1.13316 2.17559 1.1332 2.17558L6.20797 1.00447C6.20827 1.0044 6.20857 1.00433 6.20887 1.00427C6.2494 0.995276 6.29179 1.00059 6.32885 1.01932C6.36565 1.03792 6.39492 1.06861 6.41177 1.1062L8.75365 6.57059C8.76811 6.60435 8.77118 6.64189 8.76239 6.67755C8.75361 6.7132 8.73345 6.74502 8.70496 6.76819L8.70256 6.77015L5.74358 9.19202L5.1396 9.68637L5.47245 10.3923C7.36356 14.4032 10.5914 17.6311 14.6023 19.5222L15.3083 19.8551L15.8027 19.2511L18.2245 16.2921Z" fill="white" stroke="#BBAA52" stroke-width="2"/>
</svg>
