<svg width="127" height="102" viewBox="0 0 127 102" fill="none" xmlns="http://www.w3.org/2000/svg">
<g clip-path="url(#clip0_481_341)">
<path d="M66.9528 94.6211C55.9604 94.6211 45.5874 91.1793 36.9554 84.6676L37.2187 84.3441C45.7749 90.7984 56.0568 94.2101 66.9528 94.2101C77.8574 94.2101 88.1456 90.7936 96.7055 84.33L96.969 84.6535C88.3333 91.1743 77.9538 94.6211 66.9528 94.6211Z" fill="#3F3D56"/>
<path d="M115.81 80.6634C116.236 80.69 116.472 80.1625 116.149 79.8551L116.117 79.728C116.121 79.7179 116.126 79.7077 116.13 79.6975C116.561 78.6738 118.021 78.6808 118.448 79.7061C118.827 80.6161 119.31 81.5277 119.429 82.4899C119.482 82.9146 119.458 83.3473 119.364 83.7641C120.252 81.8302 120.72 79.7184 120.72 77.5947C120.72 77.0611 120.69 76.5275 120.631 75.9953C120.581 75.5599 120.513 75.1272 120.425 74.6985C119.95 72.381 118.92 70.1737 117.435 68.33C116.721 67.9411 116.126 67.3332 115.766 66.6045C115.637 66.3417 115.536 66.059 115.488 65.7709C115.569 65.7815 115.794 64.5485 115.733 64.4728C115.846 64.3016 116.049 64.2165 116.172 64.0494C116.787 63.2185 117.635 63.3635 118.077 64.4927C119.022 64.968 119.031 65.7562 118.451 66.5142C118.082 66.9965 118.032 67.6491 117.708 68.1654C117.741 68.2079 117.776 68.249 117.809 68.2915C118.42 69.072 118.948 69.9109 119.393 70.7922C119.268 69.8127 119.453 68.6327 119.77 67.8721C120.131 67.0054 120.806 66.2755 121.401 65.5263C122.116 64.6263 123.582 65.0191 123.708 66.1599C123.709 66.1709 123.71 66.182 123.711 66.193C123.623 66.2427 123.536 66.2955 123.452 66.3512C122.969 66.6692 123.136 67.4145 123.708 67.5024L123.721 67.5044C123.689 67.8216 123.634 68.1362 123.554 68.4455C124.318 71.3874 122.67 72.4589 120.316 72.5071C120.264 72.5336 120.214 72.5602 120.162 72.5854C120.4 73.2544 120.591 73.9406 120.732 74.6361C120.858 75.2506 120.946 75.8718 120.995 76.4957C121.057 77.2828 121.051 78.0738 120.985 78.8596L120.989 78.8317C121.158 77.9663 121.63 77.158 122.314 76.5979C123.334 75.763 124.775 75.4555 125.875 74.7845C126.405 74.4614 127.084 74.8789 126.991 75.4908L126.987 75.5201C126.823 75.5864 126.663 75.6634 126.509 75.7497C126.42 75.7994 126.334 75.8522 126.249 75.9079C125.767 76.2259 125.933 76.9712 126.505 77.0591L126.518 77.0611C126.527 77.0624 126.535 77.0638 126.545 77.0651C126.264 77.7301 125.872 78.3473 125.382 78.8795C124.904 81.4477 122.854 81.6914 120.661 80.9435H120.66C120.42 81.9841 120.07 83.0009 119.619 83.9698H115.903C115.89 83.9287 115.878 83.8862 115.866 83.845C116.21 83.8663 116.556 83.8464 116.894 83.784C116.618 83.4468 116.343 83.107 116.067 82.7699C116.06 82.7633 116.055 82.7566 116.05 82.75C115.91 82.5775 115.769 82.4062 115.629 82.2337L115.629 82.2335C115.62 81.7038 115.684 81.1757 115.81 80.6634Z" fill="#F2F2F2"/>
<path d="M11.1983 80.6634C10.7722 80.69 10.5368 80.1625 10.8591 79.8551L10.8912 79.728C10.887 79.7179 10.8827 79.7077 10.8784 79.6975C10.4476 78.6738 8.9873 78.6808 8.5601 79.7061C8.18092 80.6161 7.69817 81.5277 7.5793 82.4899C7.52602 82.9146 7.54999 83.3473 7.64457 83.7641C6.75611 81.8302 6.28856 79.7184 6.28856 77.5947C6.28856 77.0611 6.31787 76.5275 6.37781 75.9953C6.4271 75.5599 6.49503 75.1272 6.58295 74.6985C7.05847 72.381 8.08814 70.1737 9.57334 68.33C10.2873 67.9411 10.8827 67.3332 11.2424 66.6045C11.3716 66.3417 11.4728 66.059 11.5208 65.7709C11.4395 65.7815 11.2144 64.5485 11.2757 64.4728C11.1624 64.3016 10.9598 64.2165 10.8361 64.0494C10.2211 63.2185 9.37367 63.3635 8.9313 64.4927C7.9863 64.968 7.97715 65.7562 8.557 66.5142C8.92591 66.9965 8.97659 67.6491 9.30028 68.1654C9.26697 68.2079 9.23234 68.249 9.19904 68.2915C8.58837 69.072 8.06021 69.9109 7.61496 70.7922C7.7408 69.8127 7.55502 68.6327 7.2383 67.8721C6.87776 67.0054 6.202 66.2755 5.6069 65.5263C4.8921 64.6263 3.42633 65.0191 3.3004 66.1599C3.29918 66.1709 3.298 66.182 3.29683 66.193C3.38522 66.2427 3.47182 66.2955 3.5564 66.3512C4.03888 66.6692 3.87214 67.4145 3.30045 67.5024L3.28751 67.5044C3.31948 67.8216 3.37409 68.1362 3.45401 68.4455C2.69058 71.3874 4.33877 72.4589 6.69216 72.5071C6.74411 72.5336 6.79473 72.5602 6.84669 72.5854C6.60825 73.2544 6.41776 73.9406 6.27658 74.6361C6.15003 75.2506 6.06211 75.8718 6.01284 76.4957C5.95155 77.2828 5.95689 78.0738 6.02349 78.8596L6.0195 78.8317C5.85034 77.9663 5.37879 77.158 4.69412 76.5979C3.67418 75.763 2.23319 75.4555 1.13285 74.7845C0.603176 74.4614 -0.0755594 74.8789 0.0168822 75.4908L0.0213822 75.5201C0.185219 75.5864 0.345058 75.6634 0.499575 75.7497C0.587966 75.7994 0.674559 75.8522 0.759147 75.9079C1.24163 76.2259 1.07488 76.9712 0.503199 77.0591L0.490243 77.0611C0.480921 77.0624 0.472926 77.0638 0.463617 77.0651C0.744674 77.7301 1.13628 78.3473 1.62647 78.8795C2.10382 81.4477 4.15406 81.6914 6.34717 80.9435H6.34851C6.58827 81.9841 6.93859 83.0009 7.38882 83.9698H11.1052C11.1185 83.9287 11.1305 83.8862 11.1425 83.845C10.7988 83.8663 10.4525 83.8464 10.1141 83.784C10.3899 83.4468 10.6656 83.107 10.9413 82.7699C10.948 82.7633 10.9533 82.7566 10.9587 82.75C11.0985 82.5775 11.2397 82.4062 11.3796 82.2337L11.3796 82.2335C11.3884 81.7038 11.3246 81.1757 11.1983 80.6634Z" fill="#F2F2F2"/>
<path d="M31.072 84.4876L30.8987 84.69C24.1299 78.9376 20.2478 70.5578 20.2478 61.6992C20.2478 53.6298 23.4012 46.0436 29.127 40.338C34.8529 34.6324 42.466 31.4901 50.564 31.4901C58.6619 31.4901 66.275 34.6324 72.0009 40.338C77.7267 46.0436 80.8801 53.6298 80.8801 61.6992C80.8801 70.5578 76.998 78.9376 70.2293 84.69L70.0559 84.4876" fill="#F2F2F2"/>
<path d="M97.4301 84.3699L97.1624 84.0573C107.523 75.2525 113.465 62.426 113.465 48.867C113.465 23.3711 92.6489 2.62871 67.0625 2.62871C41.4762 2.62871 20.6603 23.3711 20.6603 48.867C20.6603 62.426 26.6022 75.2525 36.9627 84.0573L36.695 84.3699C26.2426 75.4869 20.2478 62.5466 20.2478 48.867C20.2478 36.4061 25.1173 24.6914 33.9592 15.8807C42.8012 7.07001 54.5575 2.2177 67.0625 2.2177C79.5676 2.2177 91.3239 7.07001 100.166 15.8807C109.008 24.6914 113.877 36.4061 113.877 48.867C113.877 62.5466 107.882 75.4869 97.4301 84.3699Z" fill="#3F3D56"/>
<path d="M81.4618 84.2876C81.4618 84.4233 81.5711 84.5322 81.7072 84.5322H126.726C126.862 84.5322 126.971 84.4233 126.971 84.2876C126.971 84.152 126.862 84.0431 126.726 84.0431H81.7072C81.5711 84.0431 81.4618 84.152 81.4618 84.2876Z" fill="#CCCCCC"/>
<path d="M67.2688 2.4232H66.8563V16.6855H67.2688V2.4232Z" fill="#3F3D56"/>
<path d="M35.0348 48.1891H20.722V48.6001H35.0348V48.1891Z" fill="#3F3D56"/>
<path d="M36.506 13.7638L36.1864 14.0237L45.2361 25.0733L45.5557 24.8133L36.506 13.7638Z" fill="#3F3D56"/>
<path d="M40.5095 67.358L29.4228 76.3785L29.6836 76.6968L40.7703 67.6763L40.5095 67.358Z" fill="#3F3D56"/>
<path d="M113.403 48.1891H99.0903V48.6001H113.403V48.1891Z" fill="#3F3D56"/>
<path d="M97.6188 13.7635L88.5698 24.8136L88.8894 25.0735L97.9384 14.0234L97.6188 13.7635Z" fill="#3F3D56"/>
<path d="M93.6145 67.3593L93.3538 67.6776L104.443 76.6955L104.703 76.3772L93.6145 67.3593Z" fill="#3F3D56"/>
<path d="M67.0625 53.1826C70.2517 53.1826 72.837 50.6064 72.837 47.4285C72.837 44.2506 70.2517 41.6744 67.0625 41.6744C63.8734 41.6744 61.288 44.2506 61.288 47.4285C61.288 50.6064 63.8734 53.1826 67.0625 53.1826Z" fill="#3F3D56"/>
<path d="M93.6664 69.4174C94.8054 69.4174 95.7288 68.4973 95.7288 67.3623C95.7288 66.2274 94.8054 65.3073 93.6664 65.3073C92.5275 65.3073 91.6041 66.2274 91.6041 67.3623C91.6041 68.4973 92.5275 69.4174 93.6664 69.4174Z" fill="#3F3D56"/>
<path d="M98.2036 50.922C99.3425 50.922 100.266 50.002 100.266 48.867C100.266 47.732 99.3425 46.812 98.2036 46.812C97.0646 46.812 96.1412 47.732 96.1412 48.867C96.1412 50.002 97.0646 50.922 98.2036 50.922Z" fill="#3F3D56"/>
<path d="M88.3045 27.0836C89.4435 27.0836 90.3668 26.1636 90.3668 25.0286C90.3668 23.8936 89.4435 22.9736 88.3045 22.9736C87.1655 22.9736 86.2422 23.8936 86.2422 25.0286C86.2422 26.1636 87.1655 27.0836 88.3045 27.0836Z" fill="#3F3D56"/>
<path d="M66.8563 19.2745C67.9953 19.2745 68.9186 18.3544 68.9186 17.2194C68.9186 16.0845 67.9953 15.1644 66.8563 15.1644C65.7173 15.1644 64.7939 16.0845 64.7939 17.2194C64.7939 18.3544 65.7173 19.2745 66.8563 19.2745Z" fill="#3F3D56"/>
<path d="M45.6144 27.0836C46.7534 27.0836 47.6767 26.1636 47.6767 25.0286C47.6767 23.8936 46.7534 22.9736 45.6144 22.9736C44.4754 22.9736 43.5521 23.8936 43.5521 25.0286C43.5521 26.1636 44.4754 27.0836 45.6144 27.0836Z" fill="#3F3D56"/>
<path d="M35.0965 50.3055C36.2355 50.3055 37.1588 49.3855 37.1588 48.2505C37.1588 47.1155 36.2355 46.1955 35.0965 46.1955C33.9575 46.1955 33.0342 47.1155 33.0342 48.2505C33.0342 49.3855 33.9575 50.3055 35.0965 50.3055Z" fill="#3F3D56"/>
<path d="M40.871 69.2119C42.01 69.2119 42.9334 68.2918 42.9334 67.1568C42.9334 66.0219 42.01 65.1018 40.871 65.1018C39.732 65.1018 38.8087 66.0219 38.8087 67.1568C38.8087 68.2918 39.732 69.2119 40.871 69.2119Z" fill="#3F3D56"/>
<path d="M55.7324 49.9032C56.8714 49.9032 57.7947 48.9832 57.7947 47.8482C57.7947 46.7132 56.8714 45.7932 55.7324 45.7932C54.5934 45.7932 53.67 46.7132 53.67 47.8482C53.67 48.9832 54.5934 49.9032 55.7324 49.9032Z" fill="#3F3D56"/>
<path d="M103.328 44.295L57.1749 46.2755C56.3783 46.3097 55.7604 46.9809 55.7947 47.7746L55.7947 47.7746C55.829 48.5684 56.5026 49.1841 57.2991 49.1499L103.452 47.1694C104.249 47.1352 104.867 46.464 104.833 45.6703C104.798 44.8766 104.125 44.2608 103.328 44.295Z" fill="#A38E23"/>
<path d="M82.9192 100.228L80.514 100.228L79.3698 90.9833L82.9197 90.9836L82.9192 100.228Z" fill="#A0616A"/>
<path d="M74.6785 100.174C74.6036 100.3 74.5641 100.705 74.5641 100.852C74.5641 101.301 74.9296 101.665 75.3804 101.665H82.8293C83.1369 101.665 83.3862 101.417 83.3862 101.11V100.801C83.3862 100.801 83.7547 99.8722 82.996 98.7275C82.996 98.7275 82.0531 99.6238 80.6442 98.2199L80.2287 97.4699L77.2212 99.6616L75.5542 99.8661C75.1895 99.9108 74.8661 99.8592 74.6785 100.174Z" fill="#2F2E41"/>
<path d="M95.5849 100.228L93.1796 100.228L92.0354 90.9833L95.5854 90.9836L95.5849 100.228Z" fill="#A0616A"/>
<path d="M87.3441 100.174C87.2693 100.3 87.2297 100.705 87.2297 100.852C87.2297 101.301 87.5952 101.665 88.0461 101.665H95.4949C95.8025 101.665 96.0519 101.417 96.0519 101.11V100.801C96.0519 100.801 96.4204 99.8722 95.6617 98.7275C95.6617 98.7275 94.7188 99.6238 93.3098 98.2199L92.8944 97.4699L89.8868 99.6616L88.2198 99.8661C87.8551 99.9108 87.5317 99.8592 87.3441 100.174Z" fill="#2F2E41"/>
<path d="M101.176 25.8094L101.431 36.6669L99.0726 46.4391L96.8771 45.7121L97.5166 36.8098L96.954 24.8143L101.176 25.8094Z" fill="#A0616A"/>
<path d="M99.12 47.9994C99.3237 46.5992 98.8123 45.3664 97.978 45.2459C97.1436 45.1254 96.3022 46.1629 96.0985 47.5632C95.8949 48.9635 96.4062 50.1963 97.2406 50.3167C98.075 50.4372 98.9164 49.3997 99.12 47.9994Z" fill="#A0616A"/>
<path d="M95.6259 15.9871C95.6259 15.9871 99.6724 15.9779 100.356 18.3406C101.066 20.7973 102.2 29.9601 101.71 29.9607L96.6575 30.5969L95.6259 15.9871Z" fill="#A38E23"/>
<path d="M79.988 26.9665L77.7582 37.5973L73.2316 46.5791L71.2595 45.3737L73.9138 36.8495L77.3408 25.0408L79.988 26.9665Z" fill="#A0616A"/>
<path d="M72.9218 48.1093C73.4396 46.7919 73.223 45.4755 72.438 45.1691C71.653 44.8627 70.5968 45.6824 70.079 46.9998C69.5611 48.3173 69.7777 49.6337 70.5627 49.94C71.3478 50.2464 72.4039 49.4268 72.9218 48.1093Z" fill="#A0616A"/>
<path d="M79.2669 16.4242C79.2669 16.4242 81.4796 17.4076 82.0984 19.7879C82.6612 21.9531 84.0528 31.4813 79.9641 31.034L74.8083 30.623C74.7717 25.566 76.9626 20.798 79.2669 16.4242Z" fill="#A38E23"/>
<path d="M78.6116 47.4285L77.7866 54.8266L78.1991 75.6148L79.024 95.1053H83.3874L88.3045 59.5532L91.4938 95.1053H96.5603L97.9974 71.0614C97.9974 71.0614 99.0286 48.6615 97.1725 46.812C95.3164 44.9624 78.6116 47.4285 78.6116 47.4285Z" fill="#2F2E41"/>
<path d="M92.326 12.1846H85.5699L84.0767 14.2397C84.0767 14.2397 81.1895 14.6507 79.3334 16.5002L79.1271 36.2285L77.7866 49.1291L97.9958 48.5587L96.76 41.4689L97.5833 16.5851C97.5833 16.5851 95.4195 14.0341 93.9759 14.4452L92.326 12.1846Z" fill="#A38E23"/>
<path d="M87.2332 11.0859C90.025 11.0859 92.2883 8.83058 92.2883 6.04856C92.2883 3.26653 90.025 1.01125 87.2332 1.01125C84.4413 1.01125 82.178 3.26653 82.178 6.04856C82.178 8.83058 84.4413 11.0859 87.2332 11.0859Z" fill="#A0616A"/>
<path d="M91.5762 1.35791C91.0107 0.861613 90.2346 0.575905 89.494 0.626541C89.0452 0.657231 88.6093 0.516572 88.2108 0.308399C88.1839 0.294306 88.1563 0.281474 88.1284 0.269976C87.8771 0.166517 87.5979 0.154925 87.3261 0.161489C86.8307 0.173459 86.2449 -0.321584 85.857 0.364952C84.3888 0.0894248 84.2533 0.939618 83.57 1.44061C83.3764 1.32682 82.1242 1.53412 81.9924 1.73886C81.892 1.89477 81.8223 2.05362 81.775 2.20786C81.7447 2.3068 81.9279 2.6678 81.914 2.76097C81.9001 2.85414 81.6891 2.67948 81.6874 2.76291C81.6827 2.98621 81.7139 3.16747 81.7402 3.26855C81.8073 3.52655 81.1198 3.19602 80.8942 3.33919C80.6686 3.48236 80.8986 4.14479 80.6779 4.29544C80.4147 4.47517 80.589 4.67384 80.8185 4.90875C80.9766 5.07065 81.1609 5.24976 81.2462 5.45175C81.4553 5.94686 80.3064 6.38558 80.8352 6.28096C81.3809 6.17299 81.5588 7.01938 82.018 6.70626C83.0567 5.99792 83.0191 6.05604 83.9257 6.92609C84.1774 7.16768 84.6719 6.22159 85.0047 6.32777C85.6319 6.52785 86.1443 7.19839 86.5584 8.21201C86.617 8.35546 86.0614 10.6961 86.0359 10.8488C85.9764 11.2048 87.6394 10.4017 87.635 10.7899C87.6292 11.3022 88.5431 10.6564 88.8061 11.1054C88.8392 11.0645 90.6932 10.2243 90.782 10.1591L92.0666 8.92186C92.9086 7.48593 93.2302 5.75412 92.9594 4.11304C92.7888 3.07946 92.3651 2.0502 91.5762 1.35791Z" fill="#2F2E41"/>
<path d="M66.8193 101.755C66.8193 101.891 66.9286 102 67.0648 102H112.083C112.219 102 112.329 101.891 112.329 101.755C112.329 101.62 112.219 101.511 112.083 101.511H67.0648C66.9286 101.511 66.8193 101.62 66.8193 101.755Z" fill="#CCCCCC"/>
<path d="M0 84.2876C0 84.4233 0.109309 84.5322 0.245429 84.5322H45.2639C45.4 84.5322 45.5093 84.4233 45.5093 84.2876C45.5093 84.152 45.4 84.0431 45.2639 84.0431H0.245429C0.109309 84.0431 0 84.152 0 84.2876Z" fill="#CCCCCC"/>
</g>
<defs>
<clipPath id="clip0_481_341">
<rect width="127" height="102" fill="white"/>
</clipPath>
</defs>
</svg>
