<svg width="43" height="39" viewBox="0 0 43 39" fill="none" xmlns="http://www.w3.org/2000/svg">
<path d="M37.6785 23.8889H15.7944L16.283 26.2778H36.3212C37.4709 26.2778 38.3231 27.3454 38.0683 28.4665L37.6564 30.2788C39.0518 30.9561 40.0139 32.3865 40.0139 34.0417C40.0139 36.371 38.1088 38.2554 35.7718 38.2218C33.5455 38.1898 31.7144 36.383 31.6544 34.1572C31.6215 32.9413 32.1086 31.8393 32.9087 31.0555H17.2579C18.0326 31.8144 18.5139 32.8716 18.5139 34.0417C18.5139 36.4166 16.5335 38.3291 14.134 38.2176C12.0034 38.1187 10.2707 36.3972 10.1587 34.2672C10.0722 32.6223 10.9378 31.1725 12.2528 30.4162L7.00863 4.77778H1.79167C0.802144 4.77778 0 3.97563 0 2.98611V1.79167C0 0.802144 0.802144 0 1.79167 0H9.44574C10.2969 0 11.0305 0.59879 11.2011 1.43259L11.8853 4.77778H41.2076C42.3573 4.77778 43.2095 5.84539 42.9547 6.96652L39.4256 22.4943C39.2403 23.31 38.5151 23.8889 37.6785 23.8889ZM30.0872 14.3333H26.875V9.85417C26.875 9.35945 26.4739 8.95834 25.9792 8.95834H24.1875C23.6928 8.95834 23.2917 9.35945 23.2917 9.85417V14.3333H20.0794C19.2813 14.3333 18.8816 15.2983 19.446 15.8626L24.4499 20.8665C24.7997 21.2163 25.3669 21.2163 25.7168 20.8665L30.7207 15.8626C31.285 15.2983 30.8854 14.3333 30.0872 14.3333Z" fill="#A38E23"/>
</svg>
