<svg width="256" height="143" viewBox="0 0 256 143" fill="none" xmlns="http://www.w3.org/2000/svg">
<g clip-path="url(#clip0_582_230)">
<path d="M53.8755 142.376H14.7649C14.7649 142.376 13.9721 130.778 18.6626 130.646C23.3531 130.514 22.8246 135.786 28.7045 128.537C34.5845 121.289 41.7192 121.684 42.6441 125.967C43.569 130.251 40.8605 133.677 45.8153 132.623C50.77 131.569 57.9053 134.336 53.8755 142.376Z" fill="#E6E6E6"/>
<path d="M33.6601 142.379L33.528 142.374C33.8359 134.738 35.439 129.832 36.73 127.06C38.1314 124.051 39.4819 122.833 39.4955 122.821L39.5834 122.92C39.5701 122.932 38.2354 124.138 36.8452 127.126C35.5614 129.885 33.9669 134.772 33.6601 142.379Z" fill="white"/>
<path d="M47.815 142.394L47.6882 142.358C48.6718 139.121 50.4448 136.179 52.8485 133.794L52.9372 133.892C50.5514 136.26 48.7915 139.181 47.815 142.394Z" fill="white"/>
<path d="M20.9253 142.385L20.7942 142.367C21.2207 139.504 20.7695 136.58 19.4999 133.977C18.9795 132.886 18.2905 131.882 17.4582 131.004L17.5497 130.909C18.3933 131.798 19.0917 132.813 19.6195 133.919C20.9006 136.545 21.3557 139.496 20.9253 142.385Z" fill="white"/>
<path d="M59.1832 142.552H10.5468L10.5356 142.388C10.5078 141.979 9.88723 132.336 13.0197 128.895C13.3305 128.532 13.7141 128.237 14.1459 128.03C14.5777 127.824 15.0481 127.709 15.5268 127.695C17.5686 127.637 18.8518 128.4 19.8868 129.012C21.8376 130.166 23.1261 130.929 27.8119 125.153C32.8876 118.895 38.3645 117.548 41.5128 118.297C43.5471 118.781 44.949 120.148 45.3593 122.048C45.7488 123.848 45.6242 125.538 45.5246 126.897C45.418 128.351 45.334 129.499 45.9326 130.019C46.4333 130.453 47.4295 130.493 49.0707 130.143C52.4087 129.433 57.0675 130.041 59.4055 133.054C60.6634 134.676 61.6545 137.622 59.2322 142.455L59.1832 142.552ZM10.8786 142.2H58.9643C60.7693 138.547 60.8258 135.461 59.1259 133.27C56.981 130.506 52.481 129.778 49.1444 130.488C47.361 130.868 46.2987 130.805 45.7004 130.285C44.9685 129.649 45.0584 128.423 45.1718 126.872C45.2698 125.536 45.3913 123.873 45.0136 122.123C44.633 120.361 43.327 119.092 41.4305 118.641C38.3826 117.916 33.0576 119.245 28.0864 125.375C23.209 131.388 21.7395 130.519 19.7063 129.315C18.6585 128.695 17.469 127.992 15.5366 128.047C15.1056 128.061 14.6822 128.165 14.2938 128.351C13.9054 128.538 13.5604 128.804 13.2812 129.132C10.4667 132.224 10.8099 140.896 10.8789 142.2H10.8786Z" fill="#2F2E41"/>
<path d="M218.101 142.748H170.196L170.187 142.48L167.899 77.2254H220.397L218.101 142.748ZM170.733 142.193H217.564L219.822 77.7804H168.475L170.733 142.193Z" fill="#3F3D56"/>
<path d="M181.623 89.3161H177.98V134.293H181.623V89.3161Z" fill="#3F3D56"/>
<path d="M195.97 89.3161H192.327V134.293H195.97V89.3161Z" fill="#3F3D56"/>
<path d="M210.317 89.3161H206.673V134.293H210.317V89.3161Z" fill="#3F3D56"/>
<path d="M250.839 96.3876L250.603 96.2394L191.099 58.7303L196.261 50.5833L196.496 50.7315L256 88.2405L250.839 96.3876ZM191.867 58.5577L250.665 95.6218L255.232 88.4133L196.434 51.3488L191.867 58.5577Z" fill="#3F3D56"/>
<path d="M236.472 55.7072C234.742 54.6153 232.735 54.0413 230.688 54.0533C228.641 54.0653 226.641 54.6628 224.924 55.7748C223.207 56.8869 221.847 58.4668 221.003 60.3272C220.16 62.1875 219.869 64.2502 220.166 66.2704L223.003 68.059C222.29 66.4075 222.126 64.5717 222.534 62.8204C222.943 61.069 223.903 59.4942 225.274 58.3264C226.644 57.1586 228.354 56.4592 230.152 56.3307C231.95 56.2021 233.742 56.6512 235.266 57.612C236.79 58.5729 237.965 59.9951 238.62 61.6704C239.274 63.3457 239.374 65.1861 238.905 66.9222C238.435 68.6582 237.42 70.1986 236.01 71.318C234.599 72.4373 232.866 73.0767 231.064 73.1425L233.902 74.931C235.858 74.3318 237.602 73.1853 238.925 71.6273C240.248 70.0694 241.095 68.1656 241.366 66.1418C241.637 64.118 241.32 62.0591 240.453 60.2096C239.586 58.36 238.205 56.7974 236.474 55.7072H236.472Z" fill="#3F3D56"/>
<path d="M252.856 142.365H0V142.92H252.856V142.365Z" fill="#3F3D56"/>
<path d="M110.443 138.579H106.392L104.464 122.992H110.444L110.443 138.579Z" fill="#FEB8B8"/>
<path d="M98.5792 142.331H111.311V137.424H103.43C102.144 137.424 100.91 137.934 100 138.841C99.0903 139.749 98.5792 140.979 98.5792 142.263V142.331Z" fill="#2F2E41"/>
<path d="M109.019 114.426L111.814 117.352L124.457 107.994L120.333 103.676L109.019 114.426Z" fill="#FEB8B8"/>
<path d="M114.693 118.693L109.255 113.001L105.693 116.387L114.478 125.582L114.528 125.535C114.989 125.096 115.359 124.572 115.617 123.991C115.875 123.409 116.016 122.783 116.031 122.148C116.046 121.513 115.936 120.881 115.706 120.288C115.477 119.695 115.132 119.153 114.693 118.693Z" fill="#2F2E41"/>
<path d="M80.8214 71.7246C80.565 71.3132 80.4022 70.8506 80.3443 70.3696C80.2865 69.8886 80.335 69.4008 80.4866 68.9405C80.6382 68.4803 80.889 68.0587 81.2215 67.7056C81.554 67.3525 81.9601 67.0764 82.4112 66.8967L98.3166 26.462L104.516 30.1649L86.8477 68.9549C87.1002 69.731 87.0584 70.5725 86.7304 71.3199C86.4024 72.0673 85.8109 72.6687 85.0681 73.0102C84.3252 73.3516 83.4825 73.4093 82.6998 73.1724C81.9171 72.9354 81.2488 72.4203 80.8214 71.7246Z" fill="#FEB8B8"/>
<path d="M141.193 74.6228C140.708 74.5882 140.237 74.4481 139.813 74.2122C139.388 73.9763 139.021 73.6505 138.736 73.2576C138.452 72.8648 138.257 72.4144 138.166 71.9384C138.075 71.4624 138.09 70.9722 138.209 70.5024L114.744 33.9129L121.39 31.0827L142.485 68.1311C143.264 68.3823 143.924 68.9101 144.338 69.6143C144.753 70.3184 144.894 71.15 144.735 71.951C144.575 72.752 144.126 73.4667 143.474 73.9594C142.821 74.4522 142.009 74.6886 141.193 74.6239V74.6228Z" fill="#FEB8B8"/>
<path d="M98.4732 67.6758L102.627 129.25L112.552 128.376L114.596 82.9485L120.142 102.458L132.111 103.332L127.374 64.7638L98.4732 67.6758Z" fill="#2F2E41"/>
<path d="M121.894 99.5467L120.141 102.459L107.882 110.903L116.64 115.562C116.64 115.562 133.571 106.244 132.112 103.332L121.894 99.5467Z" fill="#2F2E41"/>
<path d="M89.7815 42.7636L93.2366 33.0522C94.0053 30.8914 95.196 28.9041 96.7398 27.2053C98.2836 25.5065 100.15 24.13 102.23 23.1554C106.907 21.4369 111.993 21.1592 116.83 22.3583L118.087 22.6696C121.44 23.4802 124.581 24.9936 127.302 27.1091C129.431 28.7833 131.347 30.9032 131.517 33.1834C131.518 33.1883 131.52 33.193 131.522 33.1976C132.111 35.7758 132.403 49.1706 132.403 49.1706H127.201L128.024 67.2246L127.958 67.094C127.958 67.094 97.9555 72.7574 97.9555 69.8453V51.2083L97.3405 44.4603L89.7815 42.7636Z" fill="#CCCCCC"/>
<path d="M117.786 19.8339C122.377 19.8339 126.1 16.1209 126.1 11.5406C126.1 6.96039 122.377 3.24738 117.786 3.24738C113.194 3.24738 109.471 6.96039 109.471 11.5406C109.471 16.1209 113.194 19.8339 117.786 19.8339Z" fill="#FEB8B8"/>
<path d="M119.031 7.82144L125.487 8.07948C126.299 8.07698 127.186 8.04841 127.804 7.52455C128.736 6.73404 128.58 5.24237 128.081 4.12806C126.69 1.0254 123.588 -0.0861333 120.181 0.00515382C116.774 0.0964409 113.205 1.24821 111.37 4.11168C109.536 6.97516 109.04 10.5911 109.731 13.9185C110.53 12.2266 111.76 10.7732 113.297 9.70357C114.835 8.63389 116.628 7.9853 118.496 7.82255L119.031 7.82144Z" fill="#2F2E41"/>
<path d="M157.367 88.941L134 72.6056C133.783 72.4533 133.635 72.2213 133.589 71.9605C133.543 71.6997 133.603 71.4313 133.755 71.2142L152.095 45.112C152.247 44.8954 152.48 44.7481 152.742 44.7022C153.003 44.6564 153.272 44.7157 153.49 44.8672L176.856 61.2026C177.073 61.355 177.221 61.587 177.267 61.8478C177.313 62.1086 177.254 62.3769 177.102 62.5941L158.762 88.6956C158.609 88.9124 158.377 89.06 158.115 89.106C157.854 89.152 157.584 89.0927 157.367 88.941Z" fill="#A38E23"/>
<path d="M162.622 71.216L148.91 61.6307C148.752 61.5199 148.617 61.3789 148.513 61.216C148.409 61.0531 148.338 60.8713 148.304 60.6811C148.271 60.4908 148.275 60.2959 148.317 60.1074C148.359 59.9188 148.438 59.7404 148.549 59.5822C148.66 59.424 148.802 59.2892 148.965 59.1855C149.128 59.0818 149.311 59.0112 149.501 58.9778C149.692 58.9443 149.887 58.9487 150.076 58.9906C150.265 59.0324 150.444 59.111 150.603 59.2219L164.314 68.8072C164.634 69.0311 164.852 69.3727 164.92 69.7569C164.988 70.141 164.9 70.5363 164.675 70.8557C164.451 71.1752 164.108 71.3926 163.723 71.4601C163.338 71.5277 162.942 71.4399 162.622 71.216Z" fill="white"/>
<path d="M159.475 75.6946L145.764 66.1093C145.605 65.9985 145.47 65.8576 145.365 65.6947C145.261 65.5317 145.19 65.3499 145.157 65.1596C145.123 64.9692 145.127 64.7742 145.169 64.5855C145.211 64.3969 145.29 64.2183 145.401 64.0601C145.513 63.9018 145.654 63.767 145.817 63.6632C145.981 63.5595 146.163 63.4889 146.354 63.4555C146.545 63.4221 146.74 63.4266 146.929 63.4686C147.119 63.5106 147.298 63.5894 147.456 63.7005L161.167 73.2858C161.487 73.5098 161.705 73.8514 161.772 74.2353C161.84 74.6193 161.752 75.0144 161.527 75.3336C161.303 75.6528 160.961 75.8702 160.576 75.9379C160.191 76.0056 159.795 75.9181 159.475 75.6946Z" fill="white"/>
<path d="M156.294 80.2214L142.583 70.636C142.424 70.5252 142.289 70.3843 142.185 70.2213C142.081 70.0584 142.011 69.8766 141.977 69.6864C141.944 69.4962 141.948 69.3012 141.99 69.1127C142.032 68.9241 142.111 68.7457 142.222 68.5875C142.333 68.4293 142.474 68.2946 142.638 68.1909C142.801 68.0872 142.983 68.0166 143.174 67.9831C143.365 67.9496 143.56 67.954 143.749 67.9959C143.938 68.0377 144.117 68.1164 144.275 68.2272L157.987 77.8125C158.307 78.0364 158.525 78.378 158.593 78.7622C158.66 79.1463 158.572 79.5416 158.348 79.861C158.123 80.1805 157.781 80.3979 157.396 80.4655C157.011 80.533 156.614 80.4452 156.294 80.2214Z" fill="white"/>
<path d="M162.583 62.3565L157.272 58.6438C157.114 58.533 156.978 58.3921 156.874 58.2292C156.77 58.0662 156.699 57.8844 156.665 57.694C156.632 57.5037 156.636 57.3087 156.678 57.12C156.72 56.9313 156.799 56.7528 156.91 56.5945C157.021 56.4363 157.163 56.3014 157.326 56.1977C157.49 56.094 157.672 56.0234 157.863 55.99C158.054 55.9566 158.249 55.9611 158.438 56.0031C158.627 56.0451 158.806 56.1239 158.965 56.235L164.275 59.9477C164.596 60.1715 164.814 60.5131 164.881 60.8973C164.949 61.2815 164.861 61.6767 164.637 61.9962C164.412 62.3156 164.07 62.533 163.685 62.6006C163.3 62.6681 162.903 62.5803 162.583 62.3565Z" fill="white"/>
</g>
<defs>
<clipPath id="clip0_582_230">
<rect width="256" height="142.92" fill="white"/>
</clipPath>
</defs>
</svg>
