<svg width="82" height="67" viewBox="0 0 82 67" fill="none" xmlns="http://www.w3.org/2000/svg">
<g clip-path="url(#clip0_581_129)">
<path d="M42.0563 15.9047H41.6869V5.8306C41.6869 4.28423 41.069 2.80119 39.9691 1.70774C38.8692 0.614293 37.3775 7.60569e-10 35.822 7.60569e-10H14.3527C13.5826 -1.2366e-05 12.8199 0.150788 12.1084 0.443792C11.3968 0.736795 10.7502 1.16626 10.2056 1.70768C9.66103 2.24909 9.22901 2.89184 8.93426 3.59924C8.63952 4.30663 8.48781 5.06482 8.48779 5.8305V61.0979C8.48779 61.8636 8.63949 62.6218 8.93423 63.3292C9.22897 64.0366 9.66097 64.6794 10.2056 65.2208C10.7502 65.7622 11.3967 66.1917 12.1083 66.4847C12.8198 66.7777 13.5825 66.9285 14.3527 66.9285H35.8217C37.3772 66.9285 38.8689 66.3142 39.9688 65.2208C41.0687 64.1273 41.6866 62.6443 41.6866 61.0979V23.0757H42.056L42.0563 15.9047Z" fill="#3F3D56"/>
<path d="M40.4908 5.4401V61.4883C40.4906 62.6607 40.0221 63.7851 39.1883 64.6143C38.3544 65.4434 37.2235 65.9094 36.0442 65.9098H14.1345C12.9547 65.91 11.8232 65.4443 10.9887 64.6151C10.1543 63.7859 9.68535 62.6612 9.685 61.4883V5.4401C9.68535 4.26724 10.1543 3.14256 10.9887 2.3134C11.8231 1.48425 12.9545 1.01853 14.1343 1.01868H16.7921C16.6616 1.33773 16.6119 1.68376 16.6474 2.02637C16.6829 2.36897 16.8026 2.69765 16.9958 2.98353C17.189 3.2694 17.4499 3.50371 17.7556 3.66587C18.0612 3.82802 18.4023 3.91306 18.7487 3.91349H31.2398C31.5862 3.91306 31.9273 3.82802 32.2329 3.66587C32.5386 3.50371 32.7995 3.2694 32.9927 2.98353C33.1859 2.69765 33.3055 2.36897 33.3411 2.02637C33.3766 1.68376 33.3269 1.33773 33.1964 1.01868H36.0434C37.2227 1.01888 38.3536 1.48465 39.1876 2.3136C40.0216 3.14255 40.4903 4.26682 40.4908 5.43925V5.4401Z" fill="white"/>
<path d="M35.4046 53.8856H15.1704C14.4426 53.8848 13.7449 53.597 13.2303 53.0855C12.7158 52.5739 12.4263 51.8803 12.4255 51.1568V22.858C12.4255 15.9871 18.0482 10.3972 24.9594 10.3972H35.4046C36.1324 10.398 36.83 10.6858 37.3446 11.1974C37.8592 11.7089 38.1486 12.4025 38.1495 13.126V51.1568C38.1487 51.8803 37.8592 52.5739 37.3446 53.0855C36.83 53.5971 36.1323 53.8848 35.4046 53.8856Z" fill="#E6E6E6"/>
<path d="M13.9583 60.6976C14.7628 60.6976 15.4151 60.0492 15.4151 59.2494C15.4151 58.4495 14.7628 57.8011 13.9583 57.8011C13.1538 57.8011 12.5016 58.4495 12.5016 59.2494C12.5016 60.0492 13.1538 60.6976 13.9583 60.6976Z" fill="#E6E6E6"/>
<path d="M36.6454 60.6976C37.4499 60.6976 38.1021 60.0492 38.1021 59.2494C38.1021 58.4495 37.4499 57.8011 36.6454 57.8011C35.8409 57.8011 35.1887 58.4495 35.1887 59.2494C35.1887 60.0492 35.8409 60.6976 36.6454 60.6976Z" fill="#E6E6E6"/>
<path d="M36.8428 53.8299L35.9397 54.8084L31.7142 51.8111L33.047 50.3671L36.8428 53.8299Z" fill="#FFB6B6"/>
<path d="M38.0271 54.4506L35.1153 57.6053L35.0751 57.5686C34.7476 57.2698 34.5529 56.8539 34.5338 56.4123C34.5147 55.9707 34.6728 55.5397 34.9733 55.2141L34.9734 55.214L35.0655 54.2366L36.4977 53.5626L36.7518 53.2872L38.0271 54.4506Z" fill="#2F2E41"/>
<path d="M37.4332 64.7481L36.0976 64.748L35.4622 59.6263L37.4335 59.6264L37.4332 64.7481Z" fill="#FFB6B6"/>
<path d="M37.7739 66.0352L33.4672 66.035V65.9809C33.4673 65.5389 33.6439 65.115 33.9582 64.8025C34.2726 64.49 34.6989 64.3144 35.1435 64.3144H35.1436L35.9303 63.7211L37.3981 64.3145L37.774 64.3145L37.7739 66.0352Z" fill="#2F2E41"/>
<path d="M30.9833 38.8928C30.9833 38.8928 22.8239 46.7247 27.9821 49.149H29.5764C29.5764 49.149 30.0555 47.4568 31.1524 46.0298C31.303 45.8338 31.8673 45.8736 32.024 45.6826C32.9809 44.5165 34.0182 43.515 34.7346 43.5548L35.2035 48.9625L34.9722 50.5475C34.8265 51.5453 34.8649 52.5612 35.0853 53.5453L34.9222 59.8713L37.7831 59.8729C37.7831 59.8729 37.8986 58.3903 37.9953 56.536C38.0212 56.0392 38.2361 55.6931 38.2567 55.1644C38.3061 53.8967 38.1424 52.4212 38.1109 51.3867L40.268 40.0117L30.9833 38.8928Z" fill="#2F2E41"/>
<path d="M34.7519 22.2987L33.4215 24.0681L30.2328 25.9326L32.1083 30.7809L32.1795 34.3883L32.0049 34.8234L32.2021 35.5361C32.2021 35.5361 32.1111 36.3701 31.626 36.9894C30.7779 38.072 29.4828 39.2487 30.7954 39.5453C32.8586 40.0116 40.1739 41.0371 40.549 40.198C40.6788 39.9078 40.6627 38.6804 40.5861 37.1989C40.5717 36.9219 40.2639 36.6205 40.2459 36.3302C40.2324 36.1123 40.5094 35.9074 40.4944 35.6865C40.327 33.2244 40.0801 30.6878 40.0801 30.6878L40.8143 23.8996L37.8778 23.1463L37.5482 22.3107L34.7519 22.2987Z" fill="#A38E23"/>
<path d="M27.5904 48.6837L28.0265 49.2316C28.0265 49.2316 32.0376 52.0214 32.1753 52.2821L32.8092 52.8784L34.343 51.2484L33.5454 50.2545C32.9071 49.4591 32.0823 48.8314 31.1434 48.4264L29.921 47.3481L27.5904 48.6837Z" fill="#2F2E41"/>
<path d="M30.139 40.8536L30.8695 33.8248L31.0623 30.932L29.0178 30.5645C29.0178 30.5645 28.7117 32.5531 28.4438 33.7202C28.1795 34.8718 28.7959 40.6993 28.8123 40.853C28.6621 40.9865 28.5563 41.1621 28.5087 41.3567C28.4612 41.5513 28.4742 41.7556 28.546 41.9427C28.6178 42.1298 28.7451 42.2908 28.9109 42.4044C29.0768 42.518 29.2734 42.5789 29.4748 42.579C29.6762 42.5791 29.8729 42.5184 30.0389 42.405C30.2049 42.2915 30.3323 42.1306 30.4043 41.9436C30.4763 41.7566 30.4894 41.5523 30.4421 41.3576C30.3947 41.163 30.289 40.9873 30.139 40.8536Z" fill="#FFB9B9"/>
<path d="M27.4976 35.0056L31.0269 35.8963L31.0024 34.9115L31.2702 34.629L31.8054 31.8418L32.5733 30.2091L32.3737 24.6257L30.4234 25.654L30.4211 25.6559C30.0805 26.0283 29.7957 26.4476 29.5754 26.9008C28.8402 28.3867 28.1339 31.6595 27.7642 33.5605C27.7515 33.6003 27.727 33.6355 27.6939 33.6612C27.5105 33.8286 27.3908 34.0538 27.355 34.2987C27.3193 34.5436 27.3696 34.7933 27.4976 35.0056Z" fill="#A38E23"/>
<path d="M48.4563 36.8001C48.4563 36.8001 44.1598 32.2968 44.1197 32.2119C43.8196 29.9461 42.9563 28.9466 42.8269 29.0551L40.5989 29.8224C40.5989 29.8224 41.2617 31.9088 41.7104 33.148C42.1391 34.3321 47.0805 37.2245 47.163 37.3673C47.0744 37.5616 47.0473 37.7781 47.0853 37.9881C47.1232 38.1981 47.2243 38.3917 47.3753 38.5433C47.5263 38.6949 47.72 38.7973 47.9309 38.8371C48.1417 38.8768 48.3597 38.852 48.5561 38.7659C48.7524 38.6798 48.9178 38.5365 49.0305 38.3549C49.1431 38.1733 49.1976 37.962 49.1868 37.7489C49.176 37.5358 49.1004 37.331 48.9699 37.1616C48.8395 36.9922 48.6604 36.8661 48.4563 36.8001Z" fill="#FFB9B9"/>
<path d="M38.7998 24.0546C38.7998 24.0546 40.9869 22.989 41.8352 25.0819C42.3002 26.2635 43.4896 29.1311 44.0823 30.8963C44.0863 30.9075 44.0917 30.9182 44.0985 30.928C44.257 31.1621 44.3426 31.4376 44.3444 31.7199C44.3442 31.7404 44.3464 31.7609 44.3508 31.781C44.3508 31.781 41.9474 32.2465 41.2326 33.4989L40.949 33.193L40.8986 32.9787L38.8251 27.4781L38.7998 24.0546Z" fill="#A38E23"/>
<path d="M74.5169 32.5966H48.9108C48.6826 32.5964 48.4639 32.5061 48.3026 32.3457C48.1412 32.1854 48.0505 31.9679 48.0502 31.7411V28.0128C48.0505 27.7859 48.1412 27.5685 48.3026 27.4081C48.4639 27.2477 48.6826 27.1575 48.9108 27.1572H74.5169C74.745 27.1575 74.9638 27.2477 75.1251 27.4081C75.2864 27.5685 75.3772 27.7859 75.3775 28.0128V31.7411C75.3772 31.9679 75.2864 32.1854 75.1251 32.3457C74.9638 32.5061 74.745 32.5964 74.5169 32.5966Z" fill="#E6E6E6"/>
<path d="M72.029 32.0195H49.4914C49.2633 32.0193 49.0445 31.929 48.8832 31.7687C48.7219 31.6083 48.6311 31.3908 48.6309 31.164V28.5903C48.6311 28.3635 48.7219 28.146 48.8832 27.9856C49.0445 27.8252 49.2633 27.735 49.4914 27.7347H73.9365C74.1646 27.735 74.3834 27.8252 74.5447 27.9856C74.706 28.146 74.7968 28.3635 74.797 28.5903V29.2676C74.7962 29.9972 74.5043 30.6967 73.9854 31.2126C73.4664 31.7285 72.7629 32.0187 72.029 32.0195Z" fill="white"/>
<path d="M64.2548 29.6117H53.9631C53.9042 29.6117 53.8478 29.5884 53.8062 29.5471C53.7645 29.5057 53.7411 29.4496 53.7411 29.3911C53.7411 29.3325 53.7645 29.2764 53.8062 29.235C53.8478 29.1937 53.9042 29.1704 53.9631 29.1704H64.2548C64.3136 29.1704 64.3701 29.1937 64.4117 29.235C64.4533 29.2764 64.4767 29.3325 64.4767 29.3911C64.4767 29.4496 64.4533 29.5057 64.4117 29.5471C64.3701 29.5884 64.3136 29.6117 64.2548 29.6117Z" fill="#A38E23"/>
<path d="M69.4646 30.5142H53.9631C53.9042 30.5142 53.8478 30.4909 53.8062 30.4495C53.7645 30.4082 53.7411 30.352 53.7411 30.2935C53.7411 30.235 53.7645 30.1789 53.8062 30.1375C53.8478 30.0961 53.9042 30.0729 53.9631 30.0729H69.4646C69.5235 30.0729 69.5799 30.0961 69.6216 30.1375C69.6632 30.1789 69.6866 30.235 69.6866 30.2935C69.6866 30.352 69.6632 30.4082 69.6216 30.4495C69.5799 30.4909 69.5235 30.5142 69.4646 30.5142Z" fill="#E6E6E6"/>
<path d="M74.5169 40.507H48.9108C48.6826 40.5068 48.4639 40.4165 48.3026 40.2561C48.1412 40.0958 48.0505 39.8783 48.0502 39.6515V35.9232C48.0505 35.6963 48.1412 35.4789 48.3026 35.3185C48.4639 35.1581 48.6826 35.0679 48.9108 35.0676H74.5169C74.745 35.0679 74.9638 35.1581 75.1251 35.3185C75.2864 35.4789 75.3772 35.6963 75.3775 35.9232V39.6515C75.3772 39.8783 75.2864 40.0958 75.1251 40.2561C74.9638 40.4165 74.745 40.5068 74.5169 40.507Z" fill="#E6E6E6"/>
<path d="M72.029 39.9299H49.4914C49.2633 39.9297 49.0445 39.8394 48.8832 39.6791C48.7219 39.5187 48.6311 39.3012 48.6309 39.0744V36.5007C48.6311 36.2739 48.7219 36.0564 48.8832 35.896C49.0445 35.7356 49.2633 35.6454 49.4914 35.6451H73.9365C74.1646 35.6454 74.3834 35.7356 74.5447 35.896C74.706 36.0564 74.7968 36.2739 74.797 36.5007V37.178C74.7962 37.9076 74.5043 38.6071 73.9854 39.123C73.4664 39.6389 72.7629 39.9291 72.029 39.9299Z" fill="white"/>
<path d="M64.2548 37.5221H53.9631C53.9339 37.5221 53.9051 37.5164 53.8782 37.5053C53.8512 37.4942 53.8268 37.478 53.8062 37.4575C53.7855 37.437 53.7692 37.4127 53.758 37.3859C53.7469 37.3591 53.7411 37.3304 53.7411 37.3015C53.7411 37.2725 53.7469 37.2438 53.758 37.217C53.7692 37.1902 53.7855 37.1659 53.8062 37.1454C53.8268 37.1249 53.8512 37.1087 53.8782 37.0976C53.9051 37.0865 53.9339 37.0808 53.9631 37.0808H64.2548C64.3136 37.0808 64.3701 37.1041 64.4117 37.1454C64.4533 37.1868 64.4767 37.2429 64.4767 37.3015C64.4767 37.36 64.4533 37.4161 64.4117 37.4575C64.3701 37.4988 64.3136 37.5221 64.2548 37.5221Z" fill="#A38E23"/>
<path d="M69.4646 38.4244H53.9631C53.9339 38.4244 53.9051 38.4187 53.8782 38.4076C53.8512 38.3966 53.8268 38.3803 53.8062 38.3598C53.7855 38.3393 53.7692 38.315 53.758 38.2882C53.7469 38.2615 53.7411 38.2328 53.7411 38.2038C53.7411 38.1748 53.7469 38.1461 53.758 38.1194C53.7692 38.0926 53.7855 38.0683 53.8062 38.0478C53.8268 38.0273 53.8512 38.011 53.8782 37.9999C53.9051 37.9889 53.9339 37.9832 53.9631 37.9832H69.4646C69.5235 37.9832 69.5799 38.0064 69.6216 38.0478C69.6632 38.0892 69.6866 38.1453 69.6866 38.2038C69.6866 38.2623 69.6632 38.3184 69.6216 38.3598C69.5799 38.4012 69.5235 38.4244 69.4646 38.4244Z" fill="#E6E6E6"/>
<path d="M74.5169 48.4173H48.9108C48.6826 48.417 48.4639 48.3268 48.3026 48.1664C48.1412 48.006 48.0505 47.7886 48.0502 47.5618V43.8335C48.0505 43.6066 48.1412 43.3892 48.3026 43.2288C48.4639 43.0684 48.6826 42.9782 48.9108 42.9779H74.5169C74.745 42.9782 74.9638 43.0684 75.1251 43.2288C75.2864 43.3892 75.3772 43.6066 75.3775 43.8335V47.5618C75.3772 47.7886 75.2864 48.006 75.1251 48.1664C74.9638 48.3268 74.745 48.417 74.5169 48.4173Z" fill="#E6E6E6"/>
<path d="M72.029 47.8402H49.4914C49.2633 47.8399 49.0445 47.7497 48.8832 47.5893C48.7219 47.4289 48.6311 47.2115 48.6309 46.9847V44.411C48.6311 44.1841 48.7219 43.9667 48.8832 43.8063C49.0445 43.6459 49.2633 43.5557 49.4914 43.5554H73.9365C74.1646 43.5557 74.3834 43.6459 74.5447 43.8063C74.706 43.9667 74.7968 44.1841 74.797 44.411V45.0883C74.7962 45.8179 74.5043 46.5174 73.9854 47.0333C73.4664 47.5492 72.7629 47.8394 72.029 47.8402Z" fill="white"/>
<path d="M64.2548 45.4324H53.9631C53.9042 45.4324 53.8478 45.4091 53.8062 45.3677C53.7645 45.3264 53.7411 45.2703 53.7411 45.2117C53.7411 45.1532 53.7645 45.0971 53.8062 45.0557C53.8478 45.0143 53.9042 44.9911 53.9631 44.9911H64.2548C64.3136 44.9911 64.3701 45.0143 64.4117 45.0557C64.4533 45.0971 64.4767 45.1532 64.4767 45.2117C64.4767 45.2703 64.4533 45.3264 64.4117 45.3677C64.3701 45.4091 64.3136 45.4324 64.2548 45.4324Z" fill="#A38E23"/>
<path d="M69.4646 46.3348H53.9631C53.9042 46.3348 53.8478 46.3116 53.8062 46.2702C53.7645 46.2288 53.7411 46.1727 53.7411 46.1142C53.7411 46.0557 53.7645 45.9996 53.8062 45.9582C53.8478 45.9168 53.9042 45.8936 53.9631 45.8936H69.4646C69.5235 45.8936 69.5799 45.9168 69.6216 45.9582C69.6632 45.9996 69.6866 46.0557 69.6866 46.1142C69.6866 46.1727 69.6632 46.2288 69.6216 46.2702C69.5799 46.3116 69.5235 46.3348 69.4646 46.3348Z" fill="#E6E6E6"/>
<path d="M36.1538 21.7307C37.6329 21.7307 38.8319 20.5387 38.8319 19.0683C38.8319 17.5979 37.6329 16.4059 36.1538 16.4059C34.6748 16.4059 33.4758 17.5979 33.4758 19.0683C33.4758 20.5387 34.6748 21.7307 36.1538 21.7307Z" fill="#FFB9B9"/>
<path d="M34.1847 20.7805C34.1526 20.7807 34.1207 20.7755 34.0902 20.7654C33.9707 20.7133 33.8708 20.625 33.8047 20.5131C33.3437 19.8538 33.121 18.9748 33.1431 17.9005C33.1524 17.446 33.2042 16.8649 33.5243 16.4017C33.7936 16.0122 34.3382 15.7031 34.8458 15.8582C34.84 15.7573 34.8625 15.6568 34.9109 15.5679C34.9592 15.479 35.0314 15.4052 35.1195 15.3547C35.3118 15.2376 35.5432 15.2161 35.7473 15.197C36.2629 15.149 36.7958 15.0993 37.3177 15.1977C37.903 15.308 38.3816 15.6079 38.6307 16.0205L38.6358 16.0334L38.6865 16.2779C38.6933 16.3108 38.7071 16.3418 38.7272 16.3688C38.7472 16.3958 38.7728 16.4182 38.8024 16.4344C38.8319 16.4506 38.8647 16.4603 38.8983 16.4627C38.932 16.4651 38.9658 16.4602 38.9974 16.4484C39.0318 16.4355 39.0691 16.4318 39.1055 16.4376C39.1419 16.4434 39.1761 16.4585 39.2048 16.4814C39.2335 16.5044 39.2557 16.5344 39.2692 16.5685C39.2827 16.6026 39.287 16.6395 39.2817 16.6758L39.2676 16.773L39.4148 16.7457C39.4516 16.7388 39.4896 16.7418 39.5249 16.7543C39.5602 16.7669 39.5915 16.7885 39.6157 16.8169C39.6398 16.8454 39.656 16.8797 39.6624 16.9164C39.6689 16.9531 39.6655 16.9909 39.6525 17.0258L39.6109 17.1376C39.6414 17.1378 39.6715 17.1442 39.6993 17.1564C39.7272 17.1686 39.7523 17.1864 39.773 17.2086C39.8028 17.2404 39.8215 17.2809 39.8265 17.3241C39.8315 17.3673 39.8225 17.4109 39.8008 17.4486C39.6363 17.7283 39.4029 17.9618 39.1225 18.1271C38.9693 18.2187 38.8018 18.2842 38.6269 18.3209C37.4916 18.5644 36.3211 18.5994 35.1732 18.4241C35.2412 18.6492 35.2673 18.8847 35.2504 19.1191C35.2137 19.4122 35.0406 19.6541 34.8094 19.7353C34.7568 19.7523 34.7029 19.7652 34.6482 19.7739C34.596 19.782 34.5445 19.7944 34.4944 19.8111C34.42 19.8382 34.3542 19.8844 34.3035 19.9449C34.2529 20.0054 34.2192 20.0781 34.2058 20.1557C34.1924 20.2333 34.1999 20.3131 34.2274 20.3869C34.2549 20.4607 34.3015 20.526 34.3625 20.5762L34.4765 20.4581L34.4395 20.6082C34.4317 20.6375 34.4179 20.6647 34.3988 20.6883C34.3798 20.7119 34.356 20.7312 34.329 20.745C34.2846 20.7685 34.235 20.7808 34.1847 20.7805Z" fill="#2F2E41"/>
<path d="M71.4392 60.981L71.5475 58.559C72.677 57.9588 73.9369 57.6417 75.2176 57.6354C73.4549 59.0681 73.6752 61.8298 72.4802 63.7565C72.1028 64.3545 71.5949 64.8605 70.9941 65.2369C70.3933 65.6133 69.715 65.8504 69.0095 65.9308L67.5344 66.8286C67.332 65.7069 67.3767 64.5548 67.6652 63.4518C67.9538 62.3488 68.4795 61.3212 69.206 60.4396C69.6186 59.9491 70.0916 59.5121 70.6139 59.1391C70.9672 60.0652 71.4392 60.981 71.4392 60.981Z" fill="#F2F2F2"/>
<path d="M82 66.8879C82 66.9027 81.9972 66.9173 81.9915 66.9309C81.9859 66.9445 81.9776 66.9569 81.9671 66.9673C81.9566 66.9777 81.9442 66.9859 81.9305 66.9916C81.9168 66.9972 81.9021 67.0001 81.8873 67H0.112722C0.0828264 67 0.0541562 66.9882 0.0330168 66.9672C0.0118773 66.9462 0 66.9177 0 66.8879C0 66.8582 0.0118773 66.8297 0.0330168 66.8087C0.0541562 66.7877 0.0828264 66.7759 0.112722 66.7759H81.8873C81.9021 66.7758 81.9168 66.7787 81.9305 66.7843C81.9442 66.7899 81.9566 66.7982 81.9671 66.8086C81.9775 66.819 81.9859 66.8314 81.9915 66.845C81.9972 66.8586 82 66.8732 82 66.8879Z" fill="#CCCCCC"/>
</g>
<defs>
<clipPath id="clip0_581_129">
<rect width="82" height="67" fill="white"/>
</clipPath>
</defs>
</svg>
