<svg width="19" height="22" viewBox="0 0 19 22" fill="none" xmlns="http://www.w3.org/2000/svg">
<path d="M9.44 21.5771C10.9285 21.5771 12.1359 20.3697 12.1359 18.8799H6.74413C6.74413 20.3697 7.95152 21.5771 9.44 21.5771ZM18.5171 15.2679C17.7029 14.393 16.1795 13.0769 16.1795 8.76569C16.1795 5.4912 13.8835 2.86992 10.7877 2.22682V1.34857C10.7877 0.603905 10.1842 0 9.44 0C8.69576 0 8.09228 0.603905 8.09228 1.34857V2.22682C4.99647 2.86992 2.70054 5.4912 2.70054 8.76569C2.70054 13.0769 1.17708 14.393 0.362878 15.2679C0.110022 15.5397 -0.002078 15.8646 2.9137e-05 16.1828C0.00466484 16.874 0.547042 17.5314 1.35281 17.5314H17.5272C18.333 17.5314 18.8758 16.874 18.88 16.1828C18.8821 15.8646 18.77 15.5393 18.5171 15.2679Z" fill="#A38E23"/>
</svg>
