<svg width="25" height="18" viewBox="0 0 25 18" fill="none" xmlns="http://www.w3.org/2000/svg">
<path d="M12.502 4.64192L14.5841 8.09375C14.5843 8.09406 14.5845 8.09437 14.5847 8.09468C15.0116 8.80878 15.796 9.25144 16.6306 9.25144C16.849 9.25144 17.0726 9.22253 17.2908 9.15704L22.0017 7.81255V14.103C22.0017 14.4428 21.7681 14.7441 21.4342 14.8291C21.4339 14.8292 21.4337 14.8292 21.4335 14.8293L12.9831 16.9419C12.983 16.9419 12.9829 16.9419 12.9828 16.9419C12.668 17.0198 12.3326 17.0202 12.0123 16.9419C12.012 16.9418 12.0116 16.9417 12.0113 16.9416L3.56834 14.8289L3.56662 14.8285C3.23664 14.7471 3.00165 14.4486 3.00165 14.103V7.81301L7.71237 9.1609C7.93061 9.22643 8.15424 9.25535 8.37275 9.25535C9.20827 9.25535 9.99187 8.81192 10.4222 8.09534C10.4223 8.0951 10.4224 8.09487 10.4226 8.09463L12.502 4.64192ZM16.5118 6.9346L13.326 1.65035L22.3344 0.501334L22.3359 0.50115C22.3927 0.493741 22.4498 0.523523 22.4763 0.576613L22.4765 0.576961L24.4861 4.58832C24.4863 4.58877 24.4865 4.58922 24.4867 4.58966C24.5256 4.67095 24.4843 4.76465 24.3973 4.79081C24.397 4.79092 24.3966 4.79103 24.3962 4.79114L16.6708 6.99674C16.6706 6.99679 16.6704 6.99684 16.6702 6.99689C16.609 7.01384 16.5436 6.98718 16.5119 6.93469C16.5119 6.93466 16.5118 6.93463 16.5118 6.9346ZM2.66874 0.501814L11.6766 1.65031L8.48772 6.93045L8.48757 6.9307C8.45588 6.98324 8.39039 7.00995 8.3292 6.99299C8.32901 6.99294 8.32882 6.99288 8.32863 6.99283L0.599951 4.78631C0.599919 4.7863 0.599887 4.78629 0.599855 4.78628C0.517115 4.76258 0.476164 4.67069 0.515193 4.5924C0.51522 4.59235 0.515246 4.59229 0.515273 4.59224L2.52682 0.576961L2.52699 0.576613C2.55195 0.526699 2.60494 0.495149 2.66874 0.501814Z" fill="white" stroke="#A38E23"/>
</svg>
