<svg width="30" height="27" viewBox="0 0 30 27" fill="none" xmlns="http://www.w3.org/2000/svg">
<path d="M27.5063 15.6937L29.9684 4.86041C30.1462 4.07822 29.5516 3.33338 28.7495 3.33338H8.29208L7.81469 0.999525C7.69573 0.417806 7.18386 4.57764e-05 6.59005 4.57764e-05H1.25C0.559636 4.57764e-05 0 0.559681 0 1.25005V2.08338C0 2.77374 0.559636 3.33338 1.25 3.33338H4.88974L8.54849 21.2206C7.67318 21.724 7.08333 22.6679 7.08333 23.7501C7.08333 25.3609 8.38917 26.6667 10 26.6667C11.6108 26.6667 12.9167 25.3609 12.9167 23.7501C12.9167 22.9337 12.5809 22.1961 12.0404 21.6667H22.9595C22.4191 22.1961 22.0833 22.9337 22.0833 23.7501C22.0833 25.3609 23.3892 26.6667 25 26.6667C26.6108 26.6667 27.9167 25.3609 27.9167 23.7501C27.9167 22.5953 27.2454 21.5973 26.2719 21.1248L26.5593 19.8604C26.737 19.0782 26.1425 18.3334 25.3404 18.3334H11.3603L11.0194 16.6667H26.2873C26.871 16.6667 27.3769 16.2629 27.5063 15.6937Z" fill="#A38E23"/>
</svg>
