<svg width="92" height="72" viewBox="0 0 92 72" fill="none" xmlns="http://www.w3.org/2000/svg">
<g clip-path="url(#clip0_312_234)">
<path d="M22.0875 39.0372C21.3532 35.1328 22.5092 30.691 25.7222 28.3276C25.5401 32.6432 26.9003 36.8837 29.562 40.2988C30.5934 41.6121 31.8781 42.9662 31.8382 44.6316C31.8134 45.6678 31.2494 46.6331 30.5061 47.3604C29.7627 48.0876 28.8471 48.612 27.9424 49.1281L27.8015 49.3458C25.1495 46.3737 22.8217 42.9416 22.0875 39.0372Z" fill="#F0F0F0"/>
<path d="M25.7808 28.3875C24.4309 31.3891 24.0672 34.737 24.7415 37.9557C24.8742 38.6512 25.1165 39.3215 25.4594 39.942C25.813 40.5357 26.3202 41.0245 26.9283 41.3576C27.489 41.6795 28.1001 41.9443 28.5723 42.396C28.8105 42.6308 28.9961 42.913 29.1169 43.224C29.2377 43.5351 29.2909 43.868 29.2731 44.2009C29.2505 45.0316 28.9288 45.8047 28.5878 46.5499C28.2092 47.3772 27.8027 48.2306 27.8272 49.1608C27.8302 49.2735 27.654 49.2715 27.6511 49.159C27.6083 47.5406 28.786 46.2409 29.0484 44.688C29.1708 43.9634 29.0742 43.1978 28.5614 42.6361C28.1131 42.1449 27.4832 41.8714 26.9126 41.5503C26.3146 41.234 25.8037 40.777 25.4244 40.2193C25.0508 39.6182 24.783 38.9582 24.6323 38.2678C24.268 36.7187 24.1512 35.1224 24.2861 33.5373C24.4299 31.7274 24.8843 29.9552 25.6296 28.2976C25.6757 28.195 25.8266 28.2856 25.7808 28.3875Z" fill="white"/>
<path d="M24.4629 36.932C23.9041 36.9711 23.3494 36.8115 22.898 36.4818C22.4466 36.1521 22.1279 35.6736 21.9987 35.132C21.973 35.0223 22.1433 34.9774 22.1691 35.0872C22.2884 35.5918 22.5854 36.0374 23.0063 36.3436C23.4273 36.6498 23.9446 36.7964 24.4648 36.7569C24.5778 36.7485 24.5754 36.9236 24.4629 36.932Z" fill="white"/>
<path d="M26.6224 41.2316C27.3811 40.3792 27.7885 39.2739 27.7635 38.1363C27.7609 38.0236 27.9371 38.0256 27.9397 38.1381C27.9635 39.322 27.5371 40.4713 26.7456 41.3567C26.6701 41.441 26.5473 41.3154 26.6224 41.2316Z" fill="white"/>
<path d="M24.6363 31.8362C24.8557 31.8659 25.0791 31.8409 25.2864 31.7636C25.4937 31.6862 25.6785 31.559 25.824 31.3932C25.8984 31.3079 26.0212 31.4336 25.9473 31.5182C25.7856 31.7007 25.5814 31.841 25.3526 31.9269C25.1237 32.0129 24.8772 32.0418 24.6345 32.0113C24.6114 32.0103 24.5895 32.0006 24.5733 31.9842C24.5571 31.9677 24.5478 31.9458 24.5473 31.9228C24.5477 31.8996 24.5572 31.8776 24.5739 31.8613C24.5906 31.8451 24.613 31.8361 24.6363 31.8362Z" fill="white"/>
<path d="M38.8616 31.5573C38.8167 31.6118 38.7718 31.6664 38.7272 31.7223C38.1271 32.4587 37.5881 33.2422 37.1157 34.0653C37.0782 34.1284 37.0411 34.1928 37.0054 34.2568C35.8885 36.2518 35.1541 38.4355 34.8396 40.6968C34.7152 41.5968 34.66 42.5048 34.6743 43.4131C34.6941 44.6675 34.8161 46.026 34.4291 47.1797C34.3901 47.3005 34.3436 47.4188 34.2899 47.5339L28.0797 49.4997C28.0633 49.4972 28.0473 49.496 28.0309 49.4935L27.7866 49.5832C27.7825 49.5364 27.7794 49.4878 27.7753 49.441C27.7729 49.4139 27.7718 49.3863 27.7694 49.3592C27.7682 49.341 27.767 49.3227 27.7649 49.3063C27.7645 49.3003 27.7641 49.2942 27.7642 49.2895C27.762 49.2731 27.7618 49.2577 27.7601 49.2427C27.7416 48.971 27.7246 48.6988 27.7104 48.4258C27.7099 48.4244 27.7099 48.4244 27.7109 48.4225C27.6043 46.3427 27.6715 44.2359 28.0584 42.2061C28.0701 42.145 28.0812 42.0826 28.0957 42.0206C28.2753 41.1067 28.5297 40.2088 28.8564 39.336C29.0369 38.8587 29.2416 38.3907 29.4697 37.934C30.0613 36.7549 30.836 35.6756 31.7652 34.7356C33.6178 32.8621 36.053 31.5982 38.6622 31.5584C38.729 31.5574 38.7944 31.5568 38.8616 31.5573Z" fill="#F0F0F0"/>
<path d="M38.8728 31.64C35.976 33.2291 33.6569 35.6847 32.2448 38.658C31.9294 39.2927 31.7166 39.9728 31.6144 40.6733C31.5369 41.3589 31.6457 42.0526 31.9294 42.6823C32.182 43.2748 32.5095 43.8517 32.6128 44.4948C32.6607 44.8248 32.6379 45.1611 32.5459 45.4817C32.4538 45.8023 32.2946 46.1 32.0786 46.3552C31.5572 47.0049 30.8319 47.4298 30.108 47.8208C29.3043 48.2549 28.4626 48.6931 27.9186 49.4505C27.8526 49.5423 27.7132 49.4353 27.779 49.3436C28.7256 48.0259 30.4535 47.6926 31.604 46.6097C32.1408 46.1044 32.5277 45.4352 32.4586 44.6801C32.3983 44.0197 32.0611 43.4245 31.8001 42.8268C31.5143 42.2166 31.3832 41.546 31.4184 40.8739C31.4844 40.1704 31.6705 39.4833 31.9685 38.8418C32.6164 37.3871 33.4905 36.0427 34.5587 34.8577C35.7703 33.4986 37.2069 32.3555 38.8065 31.4777C38.9056 31.4235 38.9711 31.5861 38.8728 31.64Z" fill="white"/>
<path d="M32.6428 37.6739C32.1729 37.3708 31.8267 36.9116 31.6661 36.3783C31.5055 35.845 31.5409 35.2724 31.766 34.7626C31.8119 34.6596 31.9752 34.7257 31.9292 34.8288C31.7187 35.3031 31.6857 35.8365 31.8363 36.3328C31.9869 36.8291 32.3111 37.2556 32.7503 37.5352C32.8457 37.5961 32.7376 37.7344 32.6428 37.6739Z" fill="white"/>
<path d="M31.7615 42.3989C32.8838 42.1722 33.8789 41.5335 34.5483 40.6101C34.6145 40.5186 34.754 40.6256 34.6878 40.717C33.9894 41.6765 32.9526 42.3391 31.7841 42.5726C31.6727 42.5947 31.6507 42.421 31.7615 42.3989Z" fill="white"/>
<path d="M35.8692 33.7089C36.0265 33.8639 36.2199 33.9776 36.4323 34.0398C36.6447 34.1021 36.8693 34.111 37.086 34.0657C37.1971 34.0421 37.219 34.2159 37.1087 34.2393C36.869 34.2882 36.621 34.2781 36.3862 34.2098C36.1514 34.1416 35.9369 34.0172 35.7617 33.8476C35.7438 33.833 35.7322 33.8122 35.7292 33.7894C35.7263 33.7666 35.7321 33.7435 35.7457 33.7248C35.76 33.7066 35.781 33.6946 35.8042 33.6916C35.8273 33.6887 35.8507 33.6949 35.8692 33.7089Z" fill="white"/>
<path d="M48.6164 10.2069C48.6372 10.2977 48.6508 10.3901 48.657 10.4831L55.9382 14.6565L57.708 13.6442L59.5947 16.0982L56.6369 18.1928C56.3979 18.362 56.1102 18.4496 55.8168 18.4425C55.5235 18.4354 55.2404 18.334 55.01 18.1534L47.5018 12.2684C47.163 12.393 46.794 12.4122 46.4439 12.3233C46.0938 12.2345 45.7793 12.0419 45.5421 11.7711C45.3049 11.5003 45.1563 11.1642 45.116 10.8075C45.0758 10.4507 45.1458 10.0902 45.3168 9.774C45.4877 9.45775 45.7516 9.20072 46.0732 9.0371C46.3948 8.87347 46.7589 8.81099 47.1171 8.85799C47.4753 8.90498 47.8106 9.05921 48.0784 9.30016C48.3463 9.54112 48.5339 9.85737 48.6164 10.2069Z" fill="#FFB6B6"/>
<path d="M56.0393 14.1957C56.0624 14.0892 56.1083 13.9889 56.174 13.9017C56.2396 13.8145 56.3234 13.7424 56.4197 13.6903L59.7813 11.8706C60.2289 11.5349 60.7923 11.3893 61.3479 11.4657C61.9034 11.5421 62.4058 11.8343 62.7448 12.2782C63.0839 12.7221 63.2319 13.2815 63.1564 13.8336C63.0809 14.3858 62.7882 14.8857 62.3423 15.2237L59.648 17.9431C59.5711 18.0207 59.4783 18.0809 59.3759 18.1196C59.2734 18.1584 59.1638 18.1747 59.0544 18.1676C58.945 18.1604 58.8385 18.1299 58.7421 18.0782C58.6456 18.0265 58.5615 17.9547 58.4955 17.8677L56.1758 14.812C56.1098 14.7251 56.0634 14.625 56.0398 14.5186C56.0163 14.4123 56.0161 14.3021 56.0393 14.1957Z" fill="#3F3D56"/>
<path d="M62.0449 3.61617C62.5286 2.08468 63.6284 0.680061 65.1495 0.162336C66.6707 -0.355387 68.8981 0.433274 70.0417 1.56565C72.1336 3.63698 72.6441 10.7528 71.2069 13.0014C70.921 12.9864 69.9346 12.9753 69.6453 12.9645L69.236 11.6092V12.9512C66.9777 12.8818 64.6267 12.9252 62.2743 12.9701C62.0635 11.378 61.5612 5.14765 62.0449 3.61617Z" fill="#2F2E41"/>
<path d="M61.3977 67.8999H59.338L58.3582 60.0063L61.3981 60.0065L61.3977 67.8999Z" fill="#FFB6B6"/>
<path d="M79.4287 66.6271L77.4356 67.1431L74.4834 59.7504L77.4251 58.9888L79.4287 66.6271Z" fill="#FFB6B6"/>
<path d="M68.0778 19.4188L68.5446 20.6244L68.4512 21.83L59.3172 24.9732L59.7704 19.697L60.7971 18.4912L68.0778 19.4188Z" fill="#FFB6B6"/>
<path d="M65.1898 8.56901C66.9916 8.56901 68.4522 7.11783 68.4522 5.32772C68.4522 3.5376 66.9916 2.08643 65.1898 2.08643C63.3881 2.08643 61.9275 3.5376 61.9275 5.32772C61.9275 7.11783 63.3881 8.56901 65.1898 8.56901Z" fill="#FFB7B7"/>
<path d="M62.9482 1.10724C63.575 0.727559 64.293 0.522176 65.0271 0.512561C65.7612 0.502946 66.4844 0.689451 67.1211 1.05258C67.7578 1.41571 68.2846 1.94212 68.6464 2.57677C69.0083 3.21142 69.1919 3.93101 69.178 4.66028C67.3997 5.11186 65.5046 5.30075 63.4964 4.76904L63.0374 3.65278L62.7667 4.76987C62.1523 5.19926 61.5593 5.19848 60.9877 4.76755C60.9635 4.04033 61.1318 3.31953 61.4758 2.6772C61.8199 2.03487 62.3276 1.49351 62.9482 1.10724Z" fill="#2F2E41"/>
<path d="M62.3191 71.7857H60.8575L60.5967 70.4147L59.9285 71.7857H56.052C55.8662 71.7857 55.6853 71.7267 55.5356 71.6173C55.3859 71.5079 55.2754 71.3538 55.2201 71.1775C55.1648 71.0013 55.1676 70.8121 55.2282 70.6376C55.2888 70.4631 55.404 70.3123 55.5569 70.2075L58.6525 68.0833V66.6973L61.9086 66.8904L62.3191 71.7857Z" fill="#2F2E41"/>
<path d="M81.4875 70.1097L80.0732 70.476L79.4727 69.2147L79.1742 70.7088L75.4231 71.6803C75.2433 71.7269 75.0532 71.7151 74.8806 71.6468C74.708 71.5784 74.5619 71.457 74.4636 71.3003C74.3654 71.1436 74.3201 70.9599 74.3344 70.7758C74.3487 70.5917 74.4219 70.417 74.5432 70.2772L76.9995 67.4459L76.6476 66.1047L79.8474 65.4756L81.4875 70.1097Z" fill="#2F2E41"/>
<path d="M79.176 61.6633L73.1384 49.3343L71.2431 34.3283C72.5499 31.9171 70.123 27.0107 70.123 27.0107V24.9507L60.7218 26.7128C58.7989 31.9235 57.8665 37.4436 57.9719 42.9925L58.3507 62.9396H58.2318C58.0346 62.9396 57.8455 63.0174 57.7061 63.156C57.5666 63.2945 57.4883 63.4824 57.4883 63.6783C57.4883 63.8743 57.5666 64.0622 57.7061 64.2007C57.8455 64.3392 58.0346 64.4171 58.2318 64.4171H61.9495C62.1467 64.4171 62.3358 64.3392 62.4752 64.2007C62.6146 64.0622 62.693 63.8743 62.693 63.6783C62.693 63.4824 62.6146 63.2945 62.4752 63.156C62.3358 63.0174 62.1467 62.9396 61.9495 62.9396H61.8536L64.5224 37.5634L67.6256 50.0859L75.1247 61.6159C74.9334 61.6307 74.7554 61.7186 74.6279 61.8611C74.5005 62.0036 74.4336 62.1896 74.4413 62.3801C74.449 62.5705 74.5307 62.7506 74.6692 62.8825C74.8077 63.0144 74.9923 63.0878 75.1842 63.0874H78.9018C79.0747 63.0875 79.2423 63.0278 79.3756 62.9184C79.5089 62.809 79.5996 62.6568 79.6321 62.4881C79.6646 62.3193 79.6368 62.1446 79.5536 61.994C79.4703 61.8435 79.3368 61.7265 79.176 61.6633Z" fill="#2F2E41"/>
<path d="M70.9729 28.2736C70.9421 28.153 70.8735 28.0453 70.7772 27.9658C70.6809 27.8863 70.5618 27.8392 70.4368 27.8311C70.3129 26.4235 69.4941 17.396 69.463 17.1312L69.4618 17.12L69.2247 12.0881C69.2161 11.9054 69.14 11.7322 69.011 11.6016C68.882 11.4711 68.7092 11.3923 68.5254 11.3804L67.2732 11.2991C67.256 11.2985 67.2397 11.2913 67.2278 11.279C67.2158 11.2667 67.2092 11.2503 67.2092 11.2333C67.2092 11.0959 67.1819 10.9598 67.129 10.8329C67.0761 10.7059 66.9985 10.5906 66.9007 10.4935C66.803 10.3963 66.6869 10.3192 66.5591 10.2667C66.4314 10.2141 66.2944 10.187 66.1561 10.187H62.4488C62.2086 10.1871 61.9768 10.2743 61.7967 10.4322C61.6167 10.59 61.5009 10.8078 61.4709 11.0445C61.4693 11.0608 61.4615 11.0759 61.4492 11.0867C61.4368 11.0976 61.4208 11.1034 61.4043 11.103L61.4039 11.103C60.9826 11.0944 60.5722 11.2361 60.2471 11.5024C59.922 11.7687 59.7038 12.142 59.632 12.5545C59.1251 15.4845 58.1094 22.1343 58.6116 25.8312C58.7864 27.1182 58.7069 29.0538 58.6408 30.1306C58.6343 30.2347 58.6484 30.339 58.6825 30.4376C58.7166 30.5362 58.7699 30.6272 58.8395 30.7053C58.6916 30.7476 58.5661 30.8453 58.4893 30.9779C58.4126 31.1104 58.3906 31.2673 58.4281 31.4156C58.4666 31.5676 58.5644 31.6981 58.6998 31.7785C58.8353 31.8589 58.9973 31.8825 59.1503 31.8442L70.5416 28.9911C70.6945 28.9528 70.8259 28.8557 70.9068 28.7211C70.9877 28.5865 71.0115 28.4256 70.9729 28.2736Z" fill="#3F3D56"/>
<path d="M52.1461 49.4283C52.144 49.0979 52.0241 48.7789 51.8079 48.5279C51.5916 48.2768 51.2928 48.11 50.9646 48.057L30.7683 44.7619C30.5746 44.7301 30.3764 44.7388 30.1863 44.7876L25.4532 46.0036L22.7375 46.7021L17.7257 47.9893C17.4232 48.0673 17.1553 48.243 16.964 48.4886C16.7728 48.7342 16.6689 49.036 16.6689 49.3465V70.3728C16.6704 70.6934 16.7818 71.0038 16.9849 71.2529C17.188 71.502 17.4704 71.6749 17.7857 71.7429L38.357 71.5115C38.4536 71.5321 38.5522 71.5423 38.6509 71.5419C38.7949 71.5421 38.938 71.5205 39.0753 71.4776L51.2973 71.7798C51.5857 71.6904 51.8374 71.5109 52.0151 71.2681C52.1928 71.0253 52.287 70.732 52.2836 70.4318L52.1461 49.4283Z" fill="white"/>
<path d="M52.1461 49.4283C52.144 49.0979 52.0241 48.7789 51.8079 48.5279C51.5916 48.2768 51.2928 48.11 50.9646 48.057L30.7683 44.7619C30.5746 44.7301 30.3764 44.7388 30.1863 44.7876L25.4532 46.0036L22.7375 46.7021L17.7257 47.9893C17.4232 48.0673 17.1553 48.243 16.964 48.4886C16.7728 48.7342 16.6689 49.036 16.6689 49.3465V70.3728C16.6704 70.6934 16.7818 71.0038 16.9849 71.2529C17.188 71.502 17.4704 71.6749 17.7857 71.7429L38.357 71.5115C38.4536 71.5321 38.5522 71.5423 38.6509 71.5419C38.7949 71.5421 38.938 71.5205 39.0753 71.4776L51.2973 71.7798C51.5857 71.6904 51.8374 71.5109 52.0151 71.2681C52.1928 71.0253 52.287 70.732 52.2836 70.4318L52.1461 49.4283ZM51.1915 71.4457L38.9695 71.7346C38.7952 71.7885 38.6098 71.7974 38.4311 71.7602L17.8586 71.4007C17.6222 71.3495 17.4105 71.2198 17.2583 71.0329C17.1061 70.846 17.0226 70.6132 17.0215 70.3728V49.3465C17.0217 49.1313 17.0883 48.9213 17.2123 48.7448C17.3363 48.5683 17.5118 48.4338 17.7152 48.3595C17.7475 48.3475 17.7804 48.3374 17.8139 48.3292L23.1161 46.9672L26.2515 46.1613L30.2745 45.1275C30.3608 45.1047 30.4497 45.0933 30.539 45.0937C30.5965 45.0936 30.6539 45.0983 30.7107 45.1077L50.9069 48.4028C51.0695 48.4292 51.2236 48.493 51.357 48.5889C51.4905 48.6848 51.5996 48.8102 51.6758 48.9552C51.7521 49.1023 51.7924 49.2652 51.7934 49.4306L51.9309 70.4342C51.9335 70.6594 51.8629 70.8794 51.7297 71.0616C51.5965 71.2438 51.4078 71.3785 51.1915 71.4457Z" fill="#CCCCCC"/>
<path d="M51.6758 48.9553C51.6621 48.9642 51.647 48.9709 51.6311 48.9751L45.6906 50.5707L43.8414 51.0671L38.5816 52.4793C38.5666 52.483 38.5512 52.4849 38.5357 52.4851C38.5251 52.4849 38.5145 52.4842 38.504 52.4828L17.2955 48.6411L17.2249 48.6282C17.179 48.6196 17.1383 48.5933 17.1118 48.5551C17.0854 48.5168 17.0752 48.4697 17.0836 48.424C17.092 48.3783 17.1182 48.3377 17.1566 48.3112C17.195 48.2847 17.2424 48.2744 17.2884 48.2825L17.7152 48.3596L38.5287 52.13L43.0619 50.9129L45.5978 50.232L51.4466 48.6609L51.5394 48.6364C51.5796 48.6259 51.6222 48.6297 51.6598 48.6472C51.6974 48.6647 51.7276 48.6948 51.7452 48.7322C51.7497 48.7411 51.7533 48.7505 51.7558 48.7602C51.7655 48.7969 51.7629 48.8358 51.7485 48.871C51.7341 48.9061 51.7086 48.9357 51.6758 48.9553Z" fill="#CCCCCC"/>
<path d="M38.7121 71.5828C38.6154 71.5828 38.5366 71.5055 38.5357 72.0002L38.3594 52.9025C38.3584 52.2148 38.4367 52.1357 38.5341 52.1348H38.5357C38.6324 52.1348 38.7111 52.2121 38.7121 52.8994L38.8884 71.997C38.8893 71.5028 38.811 71.5819 38.7137 71.5828H38.7121Z" fill="#CCCCCC"/>
<path d="M45.7407 71.8042L43.8414 71.8242L43.0619 50.9128L23.1737 46.9811C23.1542 46.9776 23.1349 46.973 23.1161 46.9671C22.9633 46.9238 22.8298 46.8304 22.7375 46.7019L25.4532 46.0034L26.2515 46.1611L45.1228 49.8907C45.2221 49.9102 45.3159 49.9507 45.3979 50.0096C45.4798 50.0685 45.548 50.1443 45.5978 50.2318C45.6565 50.3334 45.7395 71.6827 45.7407 71.8042Z" fill="#CCCCCC"/>
<path d="M60.9536 11.153C60.952 10.904 60.8617 10.6636 60.6987 10.4744C60.5357 10.2852 60.3105 10.1595 60.0631 10.1196L44.8421 7.63622C44.6962 7.61221 44.5468 7.61881 44.4035 7.65559L40.8364 8.57199L38.7897 9.0984L35.0126 10.0685C34.7846 10.1273 34.5826 10.2597 34.4385 10.4448C34.2943 10.6299 34.2161 10.8574 34.216 11.0914V23.4861C34.2172 23.7277 34.3012 23.9617 34.4542 24.1494C34.6073 24.3371 34.8201 24.4674 35.0578 24.5187L50.5614 27.7961C50.6342 27.8117 50.7084 27.8193 50.7829 27.819C50.8914 27.8192 50.9992 27.8029 51.1028 27.7706L60.3138 24.8805C60.5312 24.8131 60.7209 24.6779 60.8549 24.4949C60.9888 24.3119 61.0597 24.0909 61.0572 23.8647L60.9536 11.153Z" fill="white"/>
<path d="M44.6698 8.54639C44.6586 8.54637 44.6476 8.54779 44.6368 8.5506L35.2458 10.9635C35.2173 10.9709 35.1921 10.9874 35.1741 11.0105C35.1561 11.0336 35.1464 11.062 35.1463 11.0912V23.4857C35.1465 23.5159 35.1569 23.5451 35.176 23.5686C35.1952 23.5921 35.2217 23.6084 35.2514 23.6148L50.7551 26.8921C50.7775 26.8968 50.8008 26.8957 50.8227 26.8888L60.034 23.9989C60.0611 23.9904 60.0848 23.9736 60.1015 23.9507C60.1182 23.9278 60.127 23.9002 60.1267 23.872L60.0234 11.1604C60.0232 11.1293 60.0119 11.0993 59.9915 11.0757C59.9712 11.052 59.9431 11.0364 59.9122 11.0314L44.6912 8.5481C44.6841 8.54698 44.6769 8.5464 44.6698 8.54639Z" fill="#A38E23"/>
<path d="M60.9536 11.153C60.952 10.904 60.8617 10.6636 60.6987 10.4744C60.5357 10.2852 60.3105 10.1595 60.0631 10.1196L44.8421 7.63622C44.6962 7.61221 44.5468 7.61881 44.4035 7.65559L40.8364 8.57199L38.7897 9.0984L35.0126 10.0685C34.7846 10.1273 34.5826 10.2597 34.4385 10.4448C34.2943 10.6299 34.2161 10.8574 34.216 11.0914V23.4861C34.2172 23.7277 34.3012 23.9617 34.4542 24.1494C34.6073 24.3371 34.8201 24.4674 35.0578 24.5187L50.5614 27.7961C50.6342 27.8117 50.7084 27.8193 50.7829 27.819C50.8914 27.8192 50.9992 27.8029 51.1028 27.7706L60.3138 24.8805C60.5312 24.8131 60.7209 24.6779 60.8549 24.4949C60.9888 24.3119 61.0597 24.0909 61.0572 23.8647L60.9536 11.153ZM60.2341 24.6288L51.023 27.5188C50.8916 27.5595 50.7519 27.5661 50.6172 27.5382L35.1127 24.2608C34.9345 24.2222 34.775 24.1244 34.6603 23.9836C34.5456 23.8428 34.4826 23.6673 34.4818 23.4861V11.0914C34.482 10.9292 34.5321 10.7709 34.6256 10.6379C34.7191 10.5049 34.8514 10.4036 35.0046 10.3476C35.0289 10.3385 35.0538 10.3308 35.079 10.3247L39.075 9.29824L41.438 8.69083L44.47 7.91176C44.535 7.89452 44.602 7.88593 44.6693 7.88623C44.7127 7.88621 44.7559 7.88974 44.7987 7.89679L60.0197 10.3801C60.1422 10.4001 60.2583 10.4481 60.3589 10.5204C60.4594 10.5927 60.5417 10.6872 60.5991 10.7965C60.6566 10.9074 60.687 11.0301 60.6877 11.1548L60.7914 23.8664C60.7933 24.0361 60.7401 24.2019 60.6398 24.3393C60.5394 24.4766 60.3971 24.5781 60.2341 24.6288Z" fill="#3F3D56"/>
<path d="M60.5991 10.7967C60.5888 10.8035 60.5774 10.8085 60.5655 10.8117L56.0884 12.0142L54.6947 12.3883L50.7306 13.4526C50.7193 13.4553 50.7077 13.4568 50.6961 13.457C50.6881 13.4568 50.6801 13.4562 50.6721 13.4552L34.6883 10.5599L34.6351 10.5502C34.6005 10.5438 34.5698 10.524 34.5498 10.4951C34.5298 10.4663 34.5221 10.4307 34.5285 10.3963C34.5348 10.3618 34.5546 10.3312 34.5836 10.3113C34.6125 10.2913 34.6483 10.2835 34.683 10.2896L35.0046 10.3477L50.6907 13.1894L54.1072 12.2721L56.0184 11.7589L60.4264 10.5749L60.4963 10.5564C60.5266 10.5485 60.5587 10.5513 60.5871 10.5645C60.6154 10.5777 60.6382 10.6004 60.6514 10.6286C60.6548 10.6353 60.6575 10.6424 60.6594 10.6497C60.6667 10.6774 60.6648 10.7067 60.6539 10.7332C60.643 10.7597 60.6238 10.782 60.5991 10.7967Z" fill="#3F3D56"/>
<path d="M50.829 27.85C50.7939 27.85 50.7603 27.8362 50.7354 27.8117C50.7105 27.7872 50.6964 27.7539 50.696 27.7191L50.5631 13.3261C50.5628 13.2911 50.5765 13.2574 50.6012 13.2324C50.6259 13.2074 50.6596 13.1932 50.6948 13.1929H50.696C50.7311 13.1929 50.7647 13.2066 50.7896 13.2311C50.8145 13.2556 50.8286 13.2889 50.829 13.3237L50.9619 27.7167C50.9622 27.7517 50.9485 27.7855 50.9238 27.8104C50.8991 27.8354 50.8654 27.8496 50.8302 27.85H50.829Z" fill="#3F3D56"/>
<path d="M56.0884 26.0992L54.6947 26.4733L54.1072 12.2722L39.1184 9.30908C39.1037 9.30649 39.0892 9.30296 39.075 9.29851C38.9598 9.26593 38.8592 9.19548 38.7897 9.09868L40.8364 8.57227L41.438 8.6911L55.6604 11.5019C55.7352 11.5166 55.8059 11.5472 55.8677 11.5915C55.9295 11.6359 55.9809 11.693 56.0184 11.759C56.0627 11.8356 56.0875 26.0076 56.0884 26.0992Z" fill="#3F3D56"/>
<path d="M55.464 18.002C55.5353 18.0626 55.6016 18.1287 55.6625 18.1996L64.0117 17.2308L64.8237 15.3691L67.8116 16.2195L66.6965 19.654C66.6064 19.9314 66.4282 20.1724 66.1886 20.3406C65.9489 20.5088 65.6608 20.5953 65.3675 20.587L55.808 20.317C55.611 20.6179 55.3264 20.8521 54.9922 20.9884C54.6579 21.1247 54.2898 21.1567 53.9368 21.0801C53.5838 21.0035 53.2627 20.8219 53.0161 20.5595C52.7695 20.2971 52.6092 19.9664 52.5564 19.6113C52.5036 19.2561 52.5609 18.8934 52.7207 18.5715C52.8804 18.2495 53.1351 17.9834 53.4507 17.8087C53.7664 17.6341 54.1281 17.559 54.4877 17.5935C54.8473 17.628 55.1879 17.7705 55.464 18.002Z" fill="#FFB6B6"/>
<path d="M63.816 16.8013C63.7706 16.7022 63.7472 16.5945 63.7475 16.4856C63.7478 16.3767 63.7718 16.2692 63.8177 16.1703L65.4219 12.7169C65.5795 12.1821 65.9441 11.7313 66.4357 11.4632C66.9274 11.1951 67.506 11.1317 68.0446 11.2868C68.5832 11.442 69.038 11.803 69.3091 12.2908C69.5802 12.7785 69.6456 13.3532 69.4909 13.8888L68.9626 17.6683C68.9475 17.7762 68.9092 17.8796 68.8503 17.9714C68.7914 18.0632 68.7133 18.1413 68.6212 18.2005C68.5291 18.2596 68.4254 18.2983 68.3169 18.314C68.2084 18.3296 68.0978 18.3219 67.9926 18.2913L64.2958 17.2149C64.1906 17.1843 64.0933 17.1315 64.0105 17.0602C63.9277 16.9888 63.8613 16.9005 63.816 16.8013Z" fill="#3F3D56"/>
<path d="M91.8229 71.9583H0.177057C0.130187 71.9581 0.0852811 71.9395 0.0521866 71.9066C0.0190921 71.8736 0.000511169 71.8289 0.000511169 71.7824C0.000511169 71.7358 0.0190921 71.6911 0.0521866 71.6582C0.0852811 71.6252 0.130187 71.6066 0.177057 71.6064H91.8229C91.8699 71.6064 91.9149 71.625 91.9481 71.658C91.9813 71.691 92 71.7357 92 71.7824C92 71.829 91.9813 71.8738 91.9481 71.9068C91.9149 71.9397 91.8699 71.9583 91.8229 71.9583Z" fill="#CACACA"/>
<path d="M17.8613 53.2659C20.8024 53.2659 23.1866 50.8971 23.1866 47.975C23.1866 45.0529 20.8024 42.6841 17.8613 42.6841C14.9203 42.6841 12.5361 45.0529 12.5361 47.975C12.5361 50.8971 14.9203 53.2659 17.8613 53.2659Z" fill="#A38E23"/>
<path d="M17.1349 50.7287C17.0429 50.7287 16.9522 50.7074 16.87 50.6665C16.7877 50.6257 16.7162 50.5663 16.661 50.4932L15.2082 48.5686C15.1139 48.4437 15.0735 48.2868 15.0957 48.1323C15.1179 47.9777 15.201 47.8383 15.3267 47.7447C15.4524 47.651 15.6104 47.6108 15.7659 47.6329C15.9214 47.655 16.0617 47.7375 16.156 47.8624L17.1065 49.1214L19.5476 45.4833C19.5907 45.4188 19.6461 45.3633 19.7108 45.32C19.7755 45.2768 19.8481 45.2466 19.9245 45.2313C20.0009 45.216 20.0796 45.2159 20.1561 45.2308C20.2325 45.2458 20.3053 45.2756 20.3701 45.3186C20.435 45.3615 20.4907 45.4168 20.534 45.4812C20.5773 45.5455 20.6074 45.6178 20.6226 45.6938C20.6378 45.7697 20.6377 45.8479 20.6224 45.9238C20.6071 45.9998 20.5768 46.072 20.5334 46.1363L17.6278 50.4666C17.5752 50.5449 17.5045 50.6096 17.4216 50.6551C17.3387 50.7007 17.246 50.7259 17.1513 50.7285C17.1458 50.7286 17.1404 50.7287 17.1349 50.7287Z" fill="white"/>
<path d="M40.5361 19.872C40.5196 19.872 40.503 19.8702 40.4869 19.8665L35.877 18.8323C35.8194 18.8193 35.7693 18.7841 35.7378 18.7344C35.7062 18.6848 35.6958 18.6247 35.7088 18.5674C35.7218 18.5101 35.7572 18.4603 35.8071 18.4289C35.8571 18.3975 35.9175 18.3871 35.9752 18.3999L40.5851 19.4341C40.6386 19.4461 40.6858 19.4773 40.7176 19.5217C40.7494 19.5661 40.7637 19.6206 40.7576 19.6748C40.7516 19.729 40.7256 19.779 40.6848 19.8154C40.6439 19.8518 40.591 19.872 40.5361 19.872Z" fill="white"/>
<path d="M22.7947 61.4972C22.7785 61.5005 22.762 61.5021 22.7454 61.5018L18.0202 61.4227C17.9611 61.4216 17.9049 61.3973 17.8638 61.3551C17.8228 61.3128 17.8003 61.2561 17.8013 61.1974C17.8023 61.1387 17.8266 61.0828 17.8691 61.042C17.9115 61.0011 17.9685 60.9787 18.0276 60.9795L22.7528 61.0586C22.8077 61.0595 22.8603 61.0805 22.9005 61.1175C22.9408 61.1545 22.9659 61.205 22.9711 61.2593C22.9763 61.3135 22.9612 61.3678 22.9286 61.4117C22.8961 61.4556 22.8484 61.486 22.7947 61.4972Z" fill="#E6E6E6"/>
<path d="M24.4305 64.0084C24.4142 64.0117 24.3977 64.0133 24.3811 64.013L19.6559 63.934C19.5968 63.9329 19.5406 63.9085 19.4996 63.8663C19.4585 63.8241 19.436 63.7674 19.437 63.7087C19.438 63.65 19.4624 63.5941 19.5048 63.5532C19.5472 63.5124 19.6042 63.4899 19.6633 63.4907L24.3885 63.5698C24.4434 63.5707 24.496 63.5917 24.5363 63.6287C24.5765 63.6658 24.6017 63.7162 24.6069 63.7705C24.612 63.8248 24.5969 63.879 24.5644 63.9229C24.5318 63.9668 24.4842 63.9972 24.4305 64.0084Z" fill="#E6E6E6"/>
</g>
<defs>
<clipPath id="clip0_312_234">
<rect width="92" height="72" fill="white"/>
</clipPath>
</defs>
</svg>
