<svg width="50" height="35" viewBox="0 0 50 35" fill="none" xmlns="http://www.w3.org/2000/svg">
<path d="M33.259 17.5018C31.9388 17.5018 30.6967 16.7987 30.0249 15.6738L25.0017 7.34617L19.9864 15.6738C19.3068 16.8065 18.0647 17.5096 16.7444 17.5096C16.3929 17.5096 16.0414 17.4627 15.7054 17.3612L5.00299 14.2989V28.2042C5.00299 29.3526 5.78419 30.3525 6.8935 30.6259L23.7831 34.8522C24.5799 35.0475 25.4158 35.0475 26.2048 34.8522L43.11 30.6259C44.2193 30.3447 45.0005 29.3448 45.0005 28.2042V14.2989L34.298 17.3534C33.9621 17.4549 33.6106 17.5018 33.259 17.5018ZM49.8674 8.73671L45.8442 0.705968C45.602 0.221624 45.0786 -0.0596085 44.5396 0.0106995L25.0017 2.50273L32.1653 14.3848C32.4622 14.8769 33.0559 15.1113 33.6106 14.9551L49.0705 10.5413C49.8439 10.3147 50.2189 9.45541 49.8674 8.73671ZM4.1593 0.705968L0.136111 8.73671C-0.223242 9.45541 0.159547 10.3147 0.925124 10.5335L16.3851 14.9473C16.9397 15.1035 17.5335 14.8691 17.8303 14.377L25.0017 2.50273L5.45609 0.0106995C4.91706 -0.0517965 4.40147 0.221624 4.1593 0.705968Z" fill="#A38E23"/>
</svg>
