<svg width="234" height="236" viewBox="0 0 234 236" fill="none" xmlns="http://www.w3.org/2000/svg">
<g clip-path="url(#clip0_65_61)">
<path d="M116.868 235.689C181.413 235.689 233.736 232.616 233.736 228.825C233.736 225.033 181.413 221.96 116.868 221.96C52.3237 221.96 0 225.033 0 228.825C0 232.616 52.3237 235.689 116.868 235.689Z" fill="#E6E6E6"/>
<path d="M132.485 54.3775H131.228V19.9345C131.228 14.6476 129.127 9.57714 125.389 5.83869C121.65 2.10024 116.58 0 111.293 0H38.3214C33.0344 0 27.964 2.10024 24.2255 5.83869C20.4871 9.57714 18.3868 14.6476 18.3868 19.9345V208.89C18.3868 214.177 20.4871 219.248 24.2255 222.986C27.964 226.725 33.0344 228.825 38.3214 228.825H111.293C116.58 228.825 121.65 226.725 125.389 222.986C129.127 219.248 131.228 214.177 131.228 208.89V78.8944H132.485V54.3775Z" fill="#3F3D56"/>
<path d="M126.985 20.0739V208.751C126.985 212.7 125.416 216.486 122.624 219.278C119.832 222.07 116.046 223.639 112.097 223.639H38.7755C34.8272 223.639 31.0408 222.07 28.2489 219.278C25.4571 216.486 23.8886 212.7 23.8884 208.752V20.0739C23.8885 16.1255 25.457 12.3389 28.2489 9.547C31.0409 6.75509 34.8275 5.18657 38.7758 5.18648H47.6708C47.2337 6.2605 47.0672 7.42548 47.186 8.57895C47.3048 9.73242 47.7053 10.839 48.3521 11.8014C48.9989 12.7638 49.8724 13.5525 50.8956 14.0981C51.9188 14.6437 53.0604 14.9295 54.2199 14.9303H96.0248C97.1844 14.9295 98.326 14.6438 99.3492 14.0982C100.372 13.5526 101.246 12.7639 101.893 11.8016C102.54 10.8392 102.94 9.73254 103.059 8.57904C103.178 7.42555 103.011 6.26053 102.574 5.18648H112.097C116.046 5.18657 119.832 6.75509 122.624 9.547C125.416 12.3389 126.985 16.1255 126.985 20.0739Z" fill="white"/>
<path d="M57.76 162.927H56.2179L56.7327 132.807H57.2476L57.76 162.927Z" fill="#E6E6E6"/>
<path d="M59.0447 113.843L61.5338 109.997C60.7956 107.958 59.9431 105.962 58.9802 104.019L57.3708 105.319L58.6452 103.35C57.4305 100.959 56.475 99.453 56.475 99.453C56.475 99.453 51.4838 107.319 49.8154 115.648L53.0094 120.584L49.4742 117.728C49.3483 118.699 49.2835 119.676 49.2803 120.654C49.2803 130.518 52.5018 138.514 56.4757 138.514C60.4495 138.514 63.671 130.517 63.671 120.654C63.671 117.596 62.9791 114.397 62.0235 111.437L59.0447 113.843Z" fill="#CCCCCC"/>
<path d="M97.9032 162.927H96.3611L96.8759 132.807H97.3908L97.9032 162.927Z" fill="#E6E6E6"/>
<path d="M99.1879 113.843L101.677 109.997C100.939 107.958 100.086 105.962 99.1234 104.019L97.514 105.319L98.7884 103.35C97.5737 100.959 96.6182 99.453 96.6182 99.453C96.6182 99.453 91.6263 107.319 89.9596 115.648L93.1513 120.584L89.616 117.728C89.4901 118.698 89.4254 119.675 89.4221 120.653C89.4221 130.517 92.6436 138.513 96.6175 138.513C100.591 138.513 103.813 130.516 103.813 120.653C103.813 117.596 103.121 114.396 102.165 111.437L99.1879 113.843Z" fill="#CCCCCC"/>
<path d="M56.5866 63.0841C64.4115 63.0841 70.7549 56.7407 70.7549 48.9158C70.7549 41.0908 64.4115 34.7474 56.5866 34.7474C48.7616 34.7474 42.4182 41.0908 42.4182 48.9158C42.4182 56.7407 48.7616 63.0841 56.5866 63.0841Z" fill="#E6E6E6"/>
<path d="M76.2108 158.541H73.0315L74.0914 96.4363H75.1509L76.2108 158.541Z" fill="#E6E6E6"/>
<path d="M78.8601 57.3361L83.9923 49.4056C82.4703 45.2013 80.7124 41.0863 78.7269 37.08L75.4083 39.7602L78.036 35.6992C75.5304 30.7698 73.5614 27.664 73.5614 27.664C73.5614 27.664 63.2687 43.8834 59.8299 61.0563L66.414 71.2347L59.1232 65.346C58.8636 67.3464 58.7301 69.3613 58.7234 71.3785C58.7234 91.717 65.3658 108.205 73.5596 108.205C81.7535 108.205 88.3959 91.717 88.3959 71.3785C88.3959 65.0734 86.9695 58.477 85.0018 52.3748L78.8601 57.3361Z" fill="#CCCCCC"/>
<path d="M126.985 167.493V209.713C126.985 218.276 120.32 225.218 112.097 225.218H38.7756C30.5536 225.218 23.8882 218.276 23.8878 209.713V171.609C36.6002 156.067 54.9803 146.779 74.5692 145.996C94.1581 145.214 113.167 153.01 126.985 167.493Z" fill="#E6E6E6"/>
<path opacity="0.2" d="M75.5164 209.14C87.4979 209.14 97.2109 199.427 97.2109 187.446C97.2109 175.464 87.4979 165.751 75.5164 165.751C63.5348 165.751 53.8218 175.464 53.8218 187.446C53.8218 199.427 63.5348 209.14 75.5164 209.14Z" fill="#A38E23"/>
<path d="M75.5164 204.914C85.164 204.914 92.9849 197.093 92.9849 187.446C92.9849 177.798 85.164 169.977 75.5164 169.977C65.8689 169.977 58.048 177.798 58.048 187.446C58.048 197.093 65.8689 204.914 75.5164 204.914Z" fill="#A38E23"/>
<path d="M73.4789 194.914L67.3225 186.999L70.9027 184.215L73.8174 187.962L83.6642 177.568L86.9571 180.687L73.4789 194.914Z" fill="white"/>
<path d="M168.347 160.276C174.603 160.276 179.674 155.205 179.674 148.949C179.674 142.694 174.603 137.623 168.347 137.623C162.092 137.623 157.021 142.694 157.021 148.949C157.021 155.205 162.092 160.276 168.347 160.276Z" fill="#2F2E41"/>
<path d="M172.937 212.534L173.81 216.65L190.103 215.243L188.815 209.168L172.937 212.534Z" fill="#FFB8B8"/>
<path d="M171.668 225.398L168.927 212.461L173.925 211.402L175.608 219.34C175.747 219.997 175.755 220.674 175.633 221.334C175.51 221.994 175.259 222.623 174.893 223.185C174.527 223.748 174.054 224.233 173.501 224.612C172.947 224.992 172.325 225.259 171.668 225.398Z" fill="#2F2E41"/>
<path d="M162.73 212.314L160.896 216.102L145.417 210.831L148.123 205.242L162.73 212.314Z" fill="#FFB8B8"/>
<path d="M158.506 218.286L162.042 210.982L166.641 213.209L160.878 225.111C159.658 224.521 158.723 223.47 158.278 222.19C157.834 220.91 157.915 219.506 158.506 218.286Z" fill="#2F2E41"/>
<path d="M132.231 204.834C132.76 204.933 133.306 204.914 133.828 204.78C134.349 204.645 134.835 204.397 135.251 204.054C135.667 203.711 136.003 203.281 136.235 202.795C136.466 202.308 136.589 201.776 136.593 201.237L162.12 177.702L155.78 172.792L132.669 197.485C131.762 197.537 130.907 197.921 130.264 198.562C129.622 199.204 129.237 200.059 129.183 200.965C129.129 201.871 129.41 202.766 129.972 203.479C130.533 204.192 131.337 204.674 132.231 204.834L132.231 204.834Z" fill="#FFB8B8"/>
<path d="M166.925 160.787C171.581 160.787 175.355 157.013 175.355 152.357C175.355 147.701 171.581 143.927 166.925 143.927C162.27 143.927 158.495 147.701 158.495 152.357C158.495 157.013 162.27 160.787 166.925 160.787Z" fill="#FFB8B8"/>
<path d="M174.491 201.91C168.577 201.91 161.456 200.665 157.062 195.568L156.963 195.453L157.066 195.341C157.101 195.304 160.332 191.61 157.104 185.023L152.667 186.388L148.249 180.557L150.696 173.216L160.711 165.15C162.145 164 163.892 163.308 165.725 163.162C169.042 162.841 172.273 161.921 175.261 160.446C176.629 159.782 178.135 159.452 179.655 159.485L179.852 159.491C180.314 159.504 180.769 159.61 181.189 159.804C181.608 159.998 181.984 160.276 182.294 160.619C182.603 160.963 182.839 161.366 182.989 161.804C183.138 162.241 183.196 162.705 183.161 163.166C182.482 171.963 181.283 193.213 184.806 200.53L184.896 200.719L184.693 200.77C181.345 201.524 177.924 201.906 174.492 201.91L174.491 201.91Z" fill="#A38E23"/>
<path d="M158.222 195.456C158.222 195.456 135.912 193.397 133.51 199.918C131.107 206.439 133.853 209.528 137.972 210.901C142.09 212.274 152.044 213.99 152.044 213.99L156.506 208.499L168.175 209.185C168.175 209.185 181.179 216.727 184.774 224.793C185.545 226.538 186.775 228.042 188.333 229.144C189.891 230.246 191.718 230.906 193.621 231.052C196.504 231.253 199.066 230.164 199.066 225.659C199.066 215.363 184.65 200.604 184.65 200.604L158.222 195.456Z" fill="#2F2E41"/>
<path d="M141.232 205.581C141.232 205.581 147.067 203.865 156.334 208.327L141.232 205.581Z" fill="#2F2E41"/>
<path d="M158.516 146.981C161.808 148.99 165.52 150.213 169.362 150.554L168.219 149.185C169.051 149.492 169.927 149.666 170.814 149.699C171.258 149.712 171.699 149.621 172.101 149.433C172.503 149.244 172.856 148.964 173.131 148.615C173.355 148.253 173.488 147.841 173.519 147.416C173.55 146.991 173.477 146.564 173.308 146.173C172.959 145.393 172.417 144.715 171.733 144.203C170.519 143.244 169.087 142.599 167.564 142.327C166.041 142.054 164.475 142.163 163.004 142.643C161.995 142.945 161.091 143.524 160.396 144.316C160.054 144.714 159.817 145.191 159.705 145.704C159.594 146.217 159.611 146.75 159.756 147.254" fill="#2F2E41"/>
<path d="M168.286 140.243C169.784 136.765 172.026 133.657 174.855 131.139C176.671 129.526 178.793 128.138 181.186 127.72C183.579 127.301 186.277 128.018 187.745 129.954C188.946 131.538 189.17 133.659 189.038 135.641C188.906 137.624 188.463 139.588 188.505 141.574C188.548 143.6 189.097 145.584 190.102 147.345C191.106 149.106 192.535 150.589 194.258 151.658C195.98 152.727 197.943 153.348 199.967 153.466C201.99 153.585 204.012 153.195 205.847 152.334C203.78 153.477 202.17 155.286 200.253 156.661C198.335 158.037 195.803 158.982 193.624 158.072C191.319 157.111 190.261 154.496 189.435 152.138L185.751 141.621C185.125 139.833 184.468 137.993 183.19 136.595C181.912 135.197 179.839 134.344 178.08 135.047C176.747 135.58 175.879 136.852 175.118 138.068C174.357 139.283 173.554 140.58 172.269 141.218C170.984 141.856 169.077 141.463 168.657 140.09" fill="#2F2E41"/>
<path d="M171.179 201.939C171.033 201.939 170.888 201.931 170.744 201.915C169.784 201.807 168.903 201.336 168.28 200.598C167.658 199.861 167.341 198.912 167.396 197.949C167.451 196.985 167.873 196.079 168.576 195.416C169.278 194.754 170.208 194.386 171.173 194.388C171.341 194.389 171.509 194.401 171.676 194.425L183.201 182.157L181.998 178.146L188.039 175.438L189.732 179.577C190.3 180.979 190.401 182.527 190.019 183.991C189.637 185.454 188.794 186.756 187.614 187.703L174.928 197.794C174.941 197.917 174.948 198.04 174.948 198.164C174.948 198.695 174.836 199.22 174.619 199.705C174.403 200.19 174.086 200.624 173.691 200.978C173.002 201.6 172.107 201.942 171.179 201.939Z" fill="#FFB8B8"/>
<path d="M180.188 161.134C180.588 160.956 181.019 160.861 181.457 160.854C181.894 160.848 182.328 160.929 182.733 161.095C183.138 161.26 183.505 161.505 183.812 161.816C184.12 162.127 184.362 162.497 184.523 162.903L190.485 177.952L181.218 184.13L180.188 161.134Z" fill="#A38E23"/>
</g>
<defs>
<clipPath id="clip0_65_61">
<rect width="233.736" height="235.689" fill="white"/>
</clipPath>
</defs>
</svg>
