<svg width="127" height="63" viewBox="0 0 127 63" fill="none" xmlns="http://www.w3.org/2000/svg">
<g clip-path="url(#clip0_1763_404)">
<path d="M29.6837 54.8209C29.3599 57.3725 28.23 59.7251 26.9701 61.9884C26.9078 62.1014 26.8454 62.2127 26.7813 62.3257H10.4595C10.1695 62.2228 9.88441 62.1098 9.60113 61.9884C8.55679 61.5494 7.56509 60.9944 6.64469 60.334C1.33566 56.509 -0.708281 49.2808 0.215905 42.8047C0.787562 38.7791 2.55499 34.6708 5.99374 32.5037C7.86098 31.3675 10.088 30.9773 12.2303 31.4109C12.286 31.421 12.3417 31.4328 12.3973 31.4463C14.1951 31.851 15.7972 32.8562 16.7096 34.4769C18.3489 37.3894 17.3724 40.9968 16.5663 44.2382C15.7618 47.4813 15.3268 51.3602 17.6591 53.7516C17.3169 52.7519 17.2472 51.679 17.4572 50.6434C17.6671 49.6077 18.1491 48.6467 18.8536 47.8591C19.5581 47.0715 20.4596 46.4857 21.4655 46.162C22.4715 45.8384 23.5454 45.7885 24.577 46.0175C24.7457 46.0529 24.9127 46.0934 25.0779 46.1439C25.4741 46.26 25.8559 46.42 26.2163 46.6212C28.967 48.1576 30.08 51.6958 29.6837 54.8209Z" fill="#F2F2F2"/>
<path d="M19.042 61.9886C19.4063 62.1117 19.7739 62.223 20.1433 62.3259H18.5462C18.2494 62.2213 17.9548 62.1089 17.6625 61.9886C17.5984 61.9633 17.5326 61.9363 17.4685 61.9093C15.0586 60.8991 12.8392 59.3813 11.1611 57.3609C10.3388 56.3833 9.66803 55.2878 9.17112 54.111C8.63071 52.7818 8.28754 51.3807 8.15249 49.9522C7.84888 47.0211 8.15752 44.009 8.73766 41.1302C9.33608 38.1463 10.3025 35.2481 11.6148 32.5022C11.7733 32.1734 11.9363 31.8462 12.1039 31.5207C12.1157 31.4943 12.1331 31.4708 12.155 31.4519C12.1768 31.4329 12.2025 31.419 12.2303 31.4111C12.2591 31.4056 12.2887 31.406 12.3174 31.412C12.3461 31.4181 12.3732 31.4298 12.3973 31.4465C12.4553 31.4797 12.4983 31.5339 12.5175 31.598C12.5366 31.662 12.5304 31.7309 12.5002 31.7905C11.1477 34.4278 10.1225 37.2205 9.44766 40.1065C8.78657 42.923 8.41049 45.8692 8.54035 48.7632C8.66173 51.4683 9.36844 54.1279 10.9722 56.3406C12.4659 58.351 14.431 59.9634 16.6945 61.0357C17.4552 61.4046 18.2394 61.7229 19.042 61.9886Z" fill="white"/>
<path d="M25.4793 62.3258H24.8604C24.7727 62.2145 24.6884 62.1015 24.6057 61.9885C23.3882 60.3338 22.5582 58.4266 22.1772 56.408C21.6581 53.5807 22.0626 50.6615 23.3308 48.0818C23.685 47.3586 24.102 46.6678 24.577 46.0176C24.7457 46.053 24.9127 46.0935 25.0779 46.1441C23.8268 47.8012 22.9853 49.7308 22.6224 51.7752C22.3202 53.5637 22.3939 55.3955 22.8387 57.1539C23.2835 58.9124 24.0898 60.5589 25.2061 61.9885C25.2955 62.1032 25.3866 62.2162 25.4793 62.3258Z" fill="white"/>
<path d="M57.1195 31.412C57.1853 31.1555 57.1941 30.8876 57.1453 30.6273C57.0964 30.367 56.9911 30.1205 56.8366 29.9053C56.6822 29.6901 56.4825 29.5114 56.2515 29.3818C56.0206 29.2521 55.764 29.1747 55.4999 29.1549L45.1929 16.2686L42.6426 18.6456L53.5308 30.955C53.527 31.4009 53.6869 31.8327 53.9802 32.1686C54.2735 32.5045 54.6798 32.7212 55.1222 32.7775C55.5645 32.8338 56.0122 32.7259 56.3803 32.4743C56.7484 32.2226 57.0114 31.8446 57.1195 31.412Z" fill="#FFB8B8"/>
<path d="M47.1701 18.3159L43.9128 20.8105C43.8201 20.8815 43.7132 20.9316 43.5994 20.9576C43.4856 20.9835 43.3675 20.9846 43.2532 20.9608C43.1389 20.937 43.0311 20.8889 42.9371 20.8196C42.8432 20.7504 42.7652 20.6617 42.7085 20.5597L40.7243 16.9828C40.3639 16.5065 40.207 15.9068 40.2881 15.3151C40.3691 14.7233 40.6816 14.1879 41.1568 13.8261C41.632 13.4644 42.2313 13.3059 42.8233 13.3853C43.4152 13.4647 43.9515 13.7756 44.3146 14.2499L47.2419 17.0879C47.3257 17.1692 47.3909 17.2676 47.4333 17.3764C47.4756 17.4852 47.494 17.6018 47.4872 17.7183C47.4804 17.8349 47.4485 17.9486 47.3938 18.0517C47.3391 18.1548 47.2628 18.2449 47.1701 18.3159Z" fill="#CCCCCC"/>
<path d="M41.6997 10.5363C43.9874 10.5363 45.8419 8.68177 45.8419 6.39411C45.8419 4.10646 43.9874 2.25195 41.6997 2.25195C39.4121 2.25195 37.5576 4.10646 37.5576 6.39411C37.5576 8.68177 39.4121 10.5363 41.6997 10.5363Z" fill="#FFB8B8"/>
<path d="M50.5417 60.1237H52.6093L52.4124 56.2539L49.3608 56.2541L50.5417 60.1237Z" fill="#FFB8B8"/>
<path d="M50.0143 59.4494L54.0861 59.4492H54.0863C54.427 59.4492 54.7645 59.5163 55.0793 59.6467C55.3941 59.7771 55.6802 59.9682 55.9212 60.2092C56.1621 60.4502 56.3533 60.7362 56.4837 61.051C56.6141 61.3659 56.6812 61.7033 56.6812 62.0441V62.1284L50.0144 62.1286L50.0143 59.4494Z" fill="#2F2E41"/>
<path d="M28.4973 57.1964L30.2562 58.283L32.1227 54.8873L29.994 53.5557L28.4973 57.1964Z" fill="#FFB8B8"/>
<path d="M28.4034 56.3447L31.8675 58.4846C32.1574 58.6637 32.4094 58.8982 32.6087 59.1746C32.808 59.451 32.9509 59.7639 33.0293 60.0956C33.1076 60.4272 33.1199 60.771 33.0654 61.1074C33.0109 61.4438 32.8906 61.7661 32.7115 62.056L32.6672 62.1278L26.9953 58.6242L28.4034 56.3447Z" fill="#2F2E41"/>
<path d="M50.3922 58.9897C50.2385 58.9896 50.0885 58.9428 49.962 58.8554C49.8356 58.768 49.7387 58.6442 49.6843 58.5004L42.2054 40.6193C42.1893 40.5756 42.1615 40.5372 42.125 40.5083C42.0885 40.4795 42.0447 40.4612 41.9985 40.4556C41.9523 40.45 41.9055 40.4572 41.8631 40.4765C41.8207 40.4958 41.7845 40.5264 41.7584 40.5649L31.4839 56.7503C31.3834 56.9011 31.2321 57.0107 31.0576 57.0592C30.8831 57.1078 30.6969 57.0921 30.533 57.015L29.1271 56.3589C28.947 56.274 28.8073 56.122 28.7379 55.9354C28.6685 55.7488 28.6748 55.5424 28.7556 55.3605L37.1732 36.597C36.9894 36.1498 35.1966 31.5584 37.9512 29.2901L37.9704 29.2781L45.4397 25.9463L45.6281 31.676L53.0729 57.507C53.1009 57.6042 53.1092 57.706 53.0974 57.8064C53.0855 57.9069 53.0536 58.004 53.0037 58.0919C52.9537 58.1799 52.8867 58.257 52.8065 58.3187C52.7263 58.3804 52.6346 58.4254 52.5368 58.4511L50.5867 58.9643C50.5232 58.9811 50.4579 58.9897 50.3922 58.9897Z" fill="#2F2E41"/>
<path d="M45.5527 17.5649C45.2683 16.4234 44.8651 15.2728 44.3249 14.7416C44.1262 14.5479 43.9395 14.3424 43.7658 14.126C43.4024 13.6682 42.9452 13.2936 42.4249 13.0272C42.6153 12.9213 42.7269 12.795 42.7269 12.659C42.7269 12.2864 41.8963 11.9844 40.8718 11.9844C39.8472 11.9844 39.0166 12.2864 39.0166 12.659C39.0192 12.7022 39.0302 12.7446 39.0491 12.7836C39.068 12.8226 39.0945 12.8575 39.1269 12.8862C38.4579 13.1589 37.8765 13.61 37.4462 14.1904C37.0158 14.7707 36.753 15.458 36.6863 16.1774C36.4467 18.7435 36.3767 22.0236 37.2164 24.0985C37.9207 25.8142 37.9767 27.7275 37.374 29.4815C37.3331 29.6036 37.3281 29.7349 37.3596 29.8598C37.3911 29.9847 37.4577 30.098 37.5515 30.1862C37.6454 30.2744 37.7626 30.3338 37.8892 30.3574C38.0158 30.3811 38.1465 30.3679 38.2659 30.3195L45.6774 27.3329C45.8022 27.2826 45.9091 27.1962 45.9844 27.0847C46.0596 26.9732 46.0999 26.8417 46.0999 26.7072V22.1711C46.1058 20.6191 45.9221 19.0723 45.5527 17.5649Z" fill="#CCCCCC"/>
<path d="M31.372 36.2475C31.63 36.1876 31.8717 36.0718 32.0801 35.9084C32.2885 35.745 32.4586 35.5378 32.5783 35.3015C32.698 35.0653 32.7644 34.8056 32.7729 34.5409C32.7814 34.2762 32.7318 34.0128 32.6275 33.7693L38.4264 18.477L35.4857 17.7178L30.122 32.8526C29.7246 33.0549 29.4152 33.396 29.2525 33.8112C29.0898 34.2264 29.085 34.6868 29.2391 35.1053C29.3932 35.5237 29.6954 35.8711 30.0885 36.0817C30.4816 36.2922 30.9383 36.3512 31.372 36.2475Z" fill="#FFB8B8"/>
<path d="M38.4022 21.3786L34.6863 19.6393C34.5806 19.5898 34.4868 19.5181 34.4113 19.4291C34.3358 19.3401 34.2803 19.2358 34.2487 19.1234C34.2171 19.011 34.2101 18.8932 34.2282 18.7778C34.2462 18.6625 34.2889 18.5524 34.3534 18.4551L36.6117 15.0446C36.8682 14.5055 37.3279 14.09 37.8902 13.8892C38.4524 13.6884 39.0713 13.7187 39.6113 13.9734C40.1513 14.2281 40.5683 14.6864 40.771 15.248C40.9736 15.8096 40.9455 16.4286 40.6926 16.9694L39.5249 20.8758C39.4914 20.9876 39.4342 21.0909 39.3572 21.1787C39.2802 21.2664 39.1852 21.3366 39.0787 21.3843C38.9721 21.432 38.8566 21.4562 38.7398 21.4552C38.6231 21.4542 38.508 21.4281 38.4022 21.3786Z" fill="#CCCCCC"/>
<path d="M45.5045 5.37509C45.6914 5.39722 45.8806 5.36302 46.0479 5.27687C46.3534 5.07692 46.3233 4.6224 46.22 4.27218C45.9623 3.43266 45.4974 2.67156 44.868 2.05911C44.2386 1.44667 43.4652 1.00262 42.6189 0.767941C42.0292 0.611218 41.2831 0.617276 40.9457 1.12571C40.098 0.560974 39.0759 0.318731 38.0649 0.442915C37.0538 0.567099 36.1208 1.04949 35.4349 1.80261C34.7431 2.56222 34.3465 3.55244 34.1411 4.55912C33.7871 6.2932 32.2713 9.87025 33.111 11.4282C33.6697 12.465 36.2411 11.6572 37.3288 12.1087C38.4166 12.5603 39.7386 12.5097 40.7048 11.8362C41.6709 11.1628 42.1784 9.83303 41.7642 8.73054C41.604 8.30418 41.3263 7.93391 41.1072 7.53462C40.8881 7.13532 40.7242 6.67374 40.822 6.2289C40.9743 5.53619 44.2436 5.34912 45.5045 5.37509Z" fill="#2F2E41"/>
<path d="M80.445 62.1569C80.445 62.1791 80.4407 62.2011 80.4323 62.2216C80.4238 62.2421 80.4114 62.2607 80.3957 62.2764C80.3801 62.292 80.3614 62.3045 80.3409 62.3129C80.3204 62.3214 80.2985 62.3257 80.2763 62.3256H0.168648C0.12392 62.3256 0.0810232 62.3078 0.0493956 62.2762C0.0177681 62.2446 0 62.2017 0 62.1569C0 62.1122 0.0177681 62.0693 0.0493956 62.0377C0.0810232 62.0061 0.12392 61.9883 0.168648 61.9883H80.2763C80.2985 61.9882 80.3204 61.9925 80.3409 62.001C80.3614 62.0094 80.3801 62.0218 80.3957 62.0375C80.4114 62.0532 80.4238 62.0718 80.4323 62.0923C80.4407 62.1128 80.445 62.1348 80.445 62.1569Z" fill="#3F3D56"/>
<path d="M126.011 62.3998H103.412C103.368 62.3998 103.325 62.382 103.293 62.3504C103.261 62.3188 103.244 62.2759 103.244 62.2311C103.244 62.1864 103.261 62.1435 103.293 62.1119C103.325 62.0803 103.368 62.0625 103.412 62.0625H126.011C126.056 62.0625 126.099 62.0803 126.13 62.1119C126.162 62.1435 126.18 62.1864 126.18 62.2311C126.18 62.2759 126.162 62.3188 126.13 62.3504C126.099 62.382 126.056 62.3998 126.011 62.3998Z" fill="#3F3D56"/>
<path d="M92.5623 63.0003C95.8223 63.0003 98.465 62.5473 98.465 61.9884C98.465 61.4296 95.8223 60.9766 92.5623 60.9766C89.3024 60.9766 86.6596 61.4296 86.6596 61.9884C86.6596 62.5473 89.3024 63.0003 92.5623 63.0003Z" fill="#A38E23"/>
<path d="M88.1749 18.0899C88.1752 16.2526 88.8053 14.4709 89.96 13.0418C91.1148 11.6127 92.7244 10.6225 94.5207 10.2364C93.3495 9.98508 92.1369 9.99887 90.9717 10.2768C89.8065 10.5547 88.7182 11.0897 87.7866 11.8427C86.8549 12.5956 86.1034 13.5474 85.5872 14.6284C85.071 15.7093 84.803 16.892 84.803 18.0899C84.803 19.2878 85.071 20.4705 85.5872 21.5514C86.1034 22.6324 86.8549 23.5842 87.7866 24.3371C88.7182 25.0901 89.8065 25.6251 90.9717 25.903C92.1369 26.1809 93.3495 26.1947 94.5207 25.9434C92.7244 25.5573 91.1148 24.5671 89.96 23.138C88.8053 21.7089 88.1752 19.9272 88.1749 18.0899Z" fill="#A38E23"/>
<path d="M79.4332 18.0903C79.4336 13.7081 81.0363 9.47731 83.9395 6.19485C86.8427 2.91239 90.846 0.804838 95.1953 0.269209C92.6716 -0.0401807 90.1109 0.189786 87.6827 0.943898C85.2544 1.69801 83.014 2.95908 81.1095 4.6437C79.205 6.32832 77.6799 8.3981 76.635 10.7161C75.5902 13.0342 75.0494 15.5476 75.0484 18.0903C75.0484 26.1441 86.8927 48.8558 91.3412 57.1018C91.5028 57.4019 91.7425 57.6526 92.0351 57.8274C92.3277 58.0021 92.6621 58.0944 93.0029 58.0944C93.3437 58.0944 93.6781 58.0021 93.9707 57.8274C94.2633 57.6526 94.5031 57.4019 94.6646 57.1018C94.8311 56.7932 95.0091 56.462 95.1953 56.1143C90.4064 47.1739 79.4332 25.8427 79.4332 18.0903Z" fill="#A38E23"/>
<path d="M93.0182 58.2959C92.6464 58.2989 92.2809 58.1997 91.9617 58.009C91.6425 57.8183 91.3818 57.5435 91.2082 57.2147C86.3033 48.1227 74.8952 26.113 74.8952 18.1232C74.8952 13.3166 76.8046 8.70692 80.2034 5.30816C83.6021 1.9094 88.2118 0 93.0184 0C97.825 0 102.435 1.9094 105.833 5.30816C109.232 8.70692 111.142 13.3166 111.142 18.1232C111.142 26.1137 99.7334 48.1229 94.8284 57.2147C94.6548 57.5436 94.3941 57.8184 94.0749 58.009C93.7556 58.1997 93.3901 58.299 93.0182 58.2959ZM93.0184 0.337295C88.3029 0.342614 83.7821 2.21819 80.4478 5.55254C77.1134 8.8869 75.2378 13.4077 75.2325 18.1232C75.2325 26.0361 86.6124 47.9851 91.505 57.0546C91.6521 57.3279 91.8705 57.5563 92.1369 57.7154C92.4034 57.8746 92.708 57.9586 93.0183 57.9586C93.3287 57.9586 93.6333 57.8746 93.8997 57.7154C94.1661 57.5563 94.3845 57.3279 94.5316 57.0546C99.4244 47.9854 110.804 26.0369 110.804 18.1232C110.799 13.4077 108.923 8.8869 105.589 5.55254C102.255 2.21819 97.7339 0.342615 93.0184 0.337295Z" fill="#3F3D56"/>
<path d="M93.0184 26.3238C91.3964 26.3238 89.8108 25.8428 88.4622 24.9417C87.1135 24.0406 86.0623 22.7598 85.4416 21.2613C84.8209 19.7627 84.6585 18.1138 84.9749 16.523C85.2913 14.9321 86.0724 13.4708 87.2193 12.3239C88.3662 11.177 89.8275 10.3959 91.4183 10.0795C93.0092 9.76302 94.6581 9.92543 96.1566 10.5461C97.6552 11.1669 98.936 12.218 99.8371 13.5666C100.738 14.9153 101.219 16.5009 101.219 18.1229C101.217 20.2971 100.352 22.3816 98.8145 23.919C97.2771 25.4565 95.1926 26.3213 93.0184 26.3238ZM93.0184 10.2592C91.4631 10.2592 89.9427 10.7203 88.6495 11.5844C87.3564 12.4484 86.3484 13.6766 85.7532 15.1134C85.158 16.5503 85.0023 18.1315 85.3057 19.6569C85.6091 21.1823 86.358 22.5834 87.4578 23.6832C88.5575 24.783 89.9587 25.5319 91.4841 25.8354C93.0095 26.1388 94.5906 25.9831 96.0275 25.3879C97.4644 24.7927 98.6926 23.7848 99.5566 22.4917C100.421 21.1985 100.882 19.6782 100.882 18.1229C100.88 16.038 100.05 14.0393 98.5762 12.565C97.102 11.0908 95.1032 10.2616 93.0184 10.2592Z" fill="#3F3D56"/>
</g>
<defs>
<clipPath id="clip0_1763_404">
<rect width="126.18" height="63" fill="white"/>
</clipPath>
</defs>
</svg>
