<svg width="133" height="72" viewBox="0 0 133 72" fill="none" xmlns="http://www.w3.org/2000/svg">
<g clip-path="url(#clip0_1165_190)">
<path d="M71.7383 37.8403V37.9957C71.7381 39.4223 71.1707 40.7905 70.161 41.7991C69.1514 42.8077 67.7821 43.3743 66.3545 43.3741H5.587C4.15963 43.3739 2.79077 42.8072 1.78147 41.7986C0.772169 40.79 0.205092 39.422 0.204956 37.9957V37.8403H71.7383Z" fill="#F2F2F2"/>
<path d="M12.9146 12.2371C8.52321 13.321 4.58102 9.94479 3.8927 6.81265L4.19844 6.75804C7.89979 5.94044 12.0316 8.5844 12.9146 12.2371Z" fill="#A38E23"/>
<path d="M119.063 70.2425C117.793 69.6944 117.505 67.6978 118.568 66.8131C119.631 65.9284 121.544 66.5732 121.853 67.9206L120.668 59.4513C120.396 57.5042 120.178 55.3276 121.356 53.7526C122.458 52.2777 124.612 51.8052 126.342 52.4401C128.071 53.075 129.349 54.6588 129.891 56.4183C130.434 58.1778 130.306 60.0899 129.832 61.8691C129.359 63.6483 128.554 65.3195 127.741 66.9714C126.907 68.664 125.896 70.4983 124.114 71.1214C122.412 71.7165 119.063 70.2425 119.063 70.2425Z" fill="#F2F2F2"/>
<path d="M124.629 52.2795C125.408 54.7077 125.778 57.248 125.726 59.7973C125.677 62.3352 125.221 64.8489 124.375 67.2423C123.893 68.6002 123.283 69.909 122.552 71.151C122.521 71.2095 122.513 71.2779 122.531 71.3419C122.549 71.4058 122.591 71.4603 122.649 71.4939C122.706 71.5274 122.774 71.5373 122.839 71.5216C122.903 71.5058 122.959 71.4656 122.995 71.4094C124.307 69.1697 125.238 66.7287 125.753 64.1851C126.275 61.6295 126.38 59.0063 126.063 56.4173C125.884 54.9664 125.57 53.5355 125.123 52.1433C125.023 51.8309 124.528 51.9645 124.629 52.2795Z" fill="white"/>
<path d="M118.31 67.1248L122.366 71.3837C122.594 71.623 122.956 71.2605 122.728 71.0217L118.673 66.7627C118.445 66.5235 118.083 66.886 118.31 67.1248Z" fill="white"/>
<path d="M114.865 51.0441C114.721 51.0443 114.581 50.9924 114.472 50.8979C111.968 49.2685 109.739 47.2515 107.868 44.9224C107.754 44.8139 107.686 44.665 107.68 44.5075C107.675 44.3499 107.73 44.1963 107.836 44.0795L109.066 42.7229L109.319 42.9521L108.09 44.3087C108.043 44.3602 108.019 44.4282 108.022 44.4976C108.025 44.5671 108.056 44.6323 108.108 44.679L108.126 44.6979C109.978 47.0061 112.186 49.0045 114.667 50.6177L114.69 50.6348C114.741 50.6815 114.809 50.7058 114.879 50.7023C114.948 50.6989 115.014 50.668 115.06 50.6165L117.459 47.9695C117.503 47.9203 117.528 47.856 117.527 47.7896C117.526 47.7232 117.499 47.6596 117.453 47.6118C116.898 47.3091 116.355 46.9792 115.841 46.6309L116.033 46.3484C116.544 46.6947 117.084 47.0225 117.637 47.3227L117.67 47.3462C117.728 47.3994 117.776 47.4637 117.81 47.5353C117.844 47.6069 117.864 47.6846 117.868 47.7637C117.871 47.8429 117.86 47.922 117.833 47.9967C117.806 48.0713 117.765 48.1399 117.712 48.1987L115.313 50.8457C115.26 50.9046 115.196 50.9524 115.124 50.9863C115.053 51.0203 114.975 51.0396 114.896 51.0433C114.885 51.0438 114.875 51.0441 114.865 51.0441Z" fill="#3F3D56"/>
<path d="M112.221 46.5881C112.974 47.2691 113.748 47.6429 113.95 47.421C113.976 47.3834 113.992 47.3399 113.998 47.2943C114.003 47.2488 113.997 47.2026 113.98 47.1599C113.899 46.9086 113.768 46.676 113.596 46.4754C112.926 45.9992 112.276 45.4854 111.644 44.9341C111.446 44.8693 111.293 44.871 111.22 44.9529C111.21 44.9646 111.201 44.9778 111.194 44.9921C111.068 45.2499 111.507 45.9412 112.221 46.5881Z" fill="#A38E23"/>
<path d="M107.681 41.1002C107.687 41.2556 107.755 41.4022 107.869 41.5082C108.881 42.7578 109.993 43.9229 111.194 44.9919C112.074 45.7757 113.004 46.4999 113.98 47.1597C114.143 47.2706 114.307 47.3781 114.472 47.484C114.581 47.5791 114.721 47.6313 114.865 47.6308C114.875 47.6308 114.886 47.6291 114.896 47.6291C114.975 47.6254 115.053 47.606 115.125 47.572C115.197 47.538 115.261 47.4901 115.314 47.4311L117.712 44.7854C117.82 44.6665 117.876 44.5099 117.868 44.3498C117.86 44.1898 117.789 44.0395 117.67 43.9319L117.637 43.908C115.019 42.4948 112.781 40.4705 111.114 38.0073L111.089 37.9766C110.97 37.8692 110.813 37.8133 110.653 37.8213C110.493 37.8293 110.342 37.9005 110.235 38.0193L107.836 40.665C107.783 40.7237 107.742 40.7924 107.715 40.8671C107.689 40.9418 107.677 41.021 107.681 41.1002ZM108.023 41.0832C108.021 41.049 108.026 41.0149 108.037 40.9826C108.049 40.9504 108.066 40.9208 108.089 40.8954L110.487 38.248C110.511 38.2223 110.539 38.2016 110.57 38.1869C110.601 38.1722 110.635 38.164 110.67 38.1627C110.733 38.1589 110.795 38.1783 110.844 38.2173C112.536 40.711 114.802 42.7622 117.453 44.1982C117.499 44.2458 117.525 44.309 117.526 44.3752C117.528 44.4414 117.504 44.5057 117.46 44.555L115.06 47.2023C115.037 47.2281 115.009 47.249 114.978 47.2637C114.947 47.2783 114.913 47.2865 114.879 47.2877C114.809 47.2911 114.741 47.2672 114.689 47.2211L114.667 47.2041C114.305 46.9719 113.948 46.729 113.596 46.4752C112.926 45.999 112.276 45.4852 111.644 44.9339C110.367 43.8214 109.19 42.6004 108.125 41.2846L108.108 41.2658C108.057 41.2184 108.026 41.1528 108.023 41.0832Z" fill="#3F3D56"/>
<path d="M113.949 44.0077C114.15 43.7862 113.702 43.0538 112.948 42.3719C112.195 41.6899 111.421 41.3167 111.22 41.5382C111.02 41.7597 111.468 42.492 112.221 43.174C112.975 43.8559 113.749 44.2292 113.949 44.0077Z" fill="#A38E23"/>
<path d="M98.88 69.3935L96.7861 69.3933L95.7898 61.3218L98.8803 61.3219L98.88 69.3935Z" fill="#FFB8B8"/>
<path d="M99.4141 71.4218L92.6621 71.4216V71.3362C92.6621 70.9913 92.7301 70.6498 92.8621 70.3312C92.9942 70.0125 93.1878 69.723 93.4318 69.4791C93.6759 69.2353 93.9656 69.0418 94.2845 68.9099C94.6033 68.7779 94.9451 68.71 95.2902 68.71H95.2904L99.4143 68.7101L99.4141 71.4218Z" fill="#2F2E41"/>
<path d="M105.029 69.3935L102.935 69.3933L101.939 61.3218L105.029 61.3219L105.029 69.3935Z" fill="#FFB8B8"/>
<path d="M105.563 71.4218L98.811 71.4216V71.3362C98.811 70.9913 98.879 70.6498 99.0111 70.3312C99.1431 70.0125 99.3367 69.723 99.5808 69.4791C99.8248 69.2353 100.115 69.0418 100.433 68.9099C100.752 68.7779 101.094 68.71 101.439 68.71H101.439L105.563 68.7101L105.563 71.4218Z" fill="#2F2E41"/>
<path d="M106.434 36.7735L105.934 66.4211C105.933 66.515 105.912 66.6075 105.873 66.693C105.834 66.7784 105.778 66.8549 105.708 66.9176C105.638 66.9803 105.556 67.028 105.467 67.0576C105.377 67.0872 105.283 67.098 105.189 67.0895L102.739 66.8669C102.578 66.8523 102.428 66.7813 102.315 66.6665C102.201 66.5517 102.132 66.4005 102.12 66.2397L100.685 47.7465C100.682 47.703 100.662 47.6625 100.63 47.6332C100.597 47.604 100.555 47.5881 100.511 47.589C100.468 47.5898 100.426 47.6073 100.395 47.6379C100.364 47.6684 100.346 47.7096 100.344 47.7532L99.6271 66.6699C99.6204 66.8463 99.5455 67.0134 99.4182 67.1359C99.2909 67.2583 99.1211 67.3268 98.9444 67.3268H96.3164C96.1424 67.3268 95.975 67.2604 95.8483 67.1413C95.7215 67.0222 95.6451 66.8592 95.6345 66.6857L93.7948 36.6028L104.726 33.8718L106.434 36.7735Z" fill="#2F2E41"/>
<path d="M98.5055 8.93486C100.822 8.93486 102.701 7.05791 102.701 4.74258C102.701 2.42724 100.822 0.550293 98.5055 0.550293C96.1885 0.550293 94.3103 2.42724 94.3103 4.74258C94.3103 7.05791 96.1885 8.93486 98.5055 8.93486Z" fill="#FFB8B8"/>
<path d="M93.4205 37.6554C93.3478 37.5853 93.2898 37.5014 93.2498 37.4087C93.2098 37.3159 93.1886 37.2162 93.1875 37.1152L92.9045 16.8985C92.8875 15.87 93.1971 14.8627 93.7888 14.0211C94.3805 13.1796 95.224 12.5471 96.198 12.2145C96.591 10.4326 98.6828 10.2094 99.9023 10.2361C100.207 10.2426 100.505 10.3224 100.772 10.4687C101.039 10.615 101.267 10.8234 101.436 11.0764L102.31 12.3867L104.237 13.5154C105.128 14.0354 105.832 14.8251 106.245 15.7705C106.659 16.7159 106.761 17.7681 106.537 18.7754L106.241 20.1237C105.196 24.896 105.296 29.8476 106.531 34.5742L107.128 36.8485C107.159 36.967 107.161 37.0911 107.134 37.2106C107.108 37.3301 107.053 37.4416 106.974 37.5356C106.896 37.6296 106.796 37.7034 106.683 37.751C106.57 37.7986 106.447 37.8185 106.325 37.8091L105.632 37.7558C105.452 37.7422 105.283 37.6656 105.153 37.5396C105.024 37.4135 104.944 37.246 104.926 37.0665L104.811 35.9201C104.809 35.899 104.799 35.8795 104.784 35.8653C104.768 35.8511 104.748 35.8432 104.726 35.8432C104.705 35.8432 104.685 35.8511 104.669 35.8653C104.653 35.8795 104.644 35.899 104.641 35.9201L104.53 37.03C104.512 37.2175 104.425 37.3916 104.286 37.5192C104.147 37.6467 103.966 37.7187 103.777 37.7216L93.9678 37.8725C93.9638 37.8725 93.9597 37.8726 93.9556 37.8726C93.7557 37.873 93.5636 37.795 93.4205 37.6554Z" fill="#3F3D56"/>
<path d="M98.8336 7.15904C98.8508 7.75168 99.2625 8.09453 99.768 8.40494C100.273 8.71536 100.864 8.84995 101.443 8.97978C101.521 9.02104 101.608 9.04159 101.696 9.03943C101.784 9.03727 101.87 9.01248 101.946 8.96746C102.021 8.92243 102.084 8.85869 102.128 8.78238C102.172 8.70607 102.195 8.61976 102.196 8.53179L102.727 6.5137C102.914 5.86904 103.051 5.2106 103.135 4.54447C103.263 3.26275 102.959 1.88394 102.064 0.957222C101.169 0.030506 99.6162 -0.298695 98.5434 0.415324C97.2703 -1.20959 91.451 2.38046 92.8865 3.51038C93.1419 3.7114 93.5323 3.45704 93.8564 3.43239C94.1806 3.40774 94.5438 3.46472 94.7497 3.71611C95.0187 4.04455 94.9016 4.5338 95.0124 4.94351C95.0583 5.08767 95.1323 5.22133 95.2301 5.33679C95.3279 5.45225 95.4476 5.54721 95.5823 5.61621C95.717 5.68521 95.864 5.72687 96.0149 5.73881C96.1658 5.75074 96.3176 5.7327 96.4615 5.68573C96.7295 5.55376 96.9816 5.39178 97.213 5.20291C97.4617 5.03742 97.7758 4.91513 98.0557 5.01951C98.4246 5.1571 98.5557 5.60846 98.589 6.00055C98.6453 6.39162 98.727 6.7786 98.8336 7.15904Z" fill="#2F2E41"/>
<path opacity="0.2" d="M97.8539 18.3948L97.1707 26.7585L93.5837 35.4636L98.8787 26.9292L97.8539 18.3948Z" fill="black"/>
<path d="M92.745 38.7055C92.9408 38.5484 93.0997 38.3503 93.2106 38.1252C93.3215 37.9 93.3817 37.6534 93.3869 37.4025C93.392 37.1516 93.3421 36.9026 93.2406 36.6731C93.139 36.4436 92.9884 36.2392 92.7992 36.0742L95.0844 30.4182L91.9753 31.0456L90.282 36.3204C90.0256 36.6563 89.9015 37.0746 89.9331 37.4958C89.9646 37.9171 90.1498 38.3122 90.4534 38.6062C90.757 38.9002 91.1579 39.0727 91.5803 39.091C92.0027 39.1093 92.4171 38.9721 92.745 38.7055Z" fill="#FFB8B8"/>
<path d="M92.5786 36.2109L90.8187 35.5771C90.6374 35.5108 90.4875 35.3791 90.3985 35.2079C90.3095 35.0367 90.2879 34.8384 90.3379 34.652L93.2411 24.0319L93.6837 14.4336C93.6971 14.1439 93.7679 13.8598 93.8921 13.5977C94.0164 13.3356 94.1915 13.1007 94.4073 12.9069C94.6232 12.713 94.8755 12.564 95.1495 12.4684C95.4235 12.3728 95.7138 12.3327 96.0034 12.3502C96.2931 12.3678 96.5764 12.4427 96.8369 12.5706C97.0973 12.6986 97.3297 12.877 97.5206 13.0955C97.7114 13.314 97.8569 13.5682 97.9485 13.8434C98.0401 14.1186 98.0761 14.4092 98.0543 14.6984L97.2637 25.2083L93.5645 35.7429C93.5084 35.902 93.4015 36.0384 93.2603 36.1309C93.1191 36.2234 92.9513 36.2669 92.7829 36.2549C92.7131 36.2495 92.6444 36.2347 92.5786 36.2109Z" fill="#3F3D56"/>
<path d="M110.716 39.2601C110.836 39.0397 110.906 38.7958 110.922 38.5453C110.937 38.2949 110.897 38.0441 110.806 37.8106C110.714 37.5771 110.572 37.3665 110.389 37.1939C110.207 37.0212 109.989 36.8905 109.751 36.811L109.679 30.7119L107.052 32.4879L107.523 38.0075C107.416 38.4162 107.463 38.8499 107.654 39.2265C107.846 39.6031 108.169 39.8964 108.563 40.0508C108.956 40.2052 109.393 40.21 109.789 40.0643C110.186 39.9185 110.516 39.6324 110.716 39.2601Z" fill="#FFB8B8"/>
<path d="M109.6 37.0223L107.732 37.115C107.539 37.1236 107.35 37.0598 107.202 36.936C107.054 36.8123 106.957 36.6376 106.932 36.4464L105.516 25.5284L102.224 16.5007C102.125 16.2283 102.08 15.9388 102.094 15.6491C102.108 15.3594 102.179 15.0753 102.303 14.8133C102.428 14.5513 102.603 14.3166 102.819 14.1229C103.035 13.9293 103.287 13.7804 103.561 13.6851C103.836 13.5897 104.126 13.5498 104.415 13.5676C104.705 13.5854 104.988 13.6605 105.249 13.7887C105.509 13.9168 105.741 14.0954 105.932 14.3141C106.123 14.5327 106.268 14.7871 106.359 15.0623L109.682 25.0652L110.33 36.2108C110.339 36.3792 110.293 36.5462 110.199 36.6859C110.104 36.8257 109.966 36.9304 109.806 36.9841C109.739 37.0061 109.67 37.0189 109.6 37.0223Z" fill="#3F3D56"/>
<path d="M132.029 71.5084H66.9523C66.907 71.5084 66.8635 71.4904 66.8315 71.4584C66.7995 71.4264 66.7815 71.383 66.7815 71.3377C66.7815 71.2924 66.7995 71.249 66.8315 71.217C66.8635 71.185 66.907 71.167 66.9523 71.167H132.029C132.075 71.167 132.118 71.185 132.15 71.217C132.182 71.249 132.2 71.2924 132.2 71.3377C132.2 71.383 132.182 71.4264 132.15 71.4584C132.118 71.4904 132.075 71.5084 132.029 71.5084Z" fill="#3F3D56"/>
<path d="M55.2075 34.657C54.2265 34.657 53.4464 34.3655 52.8885 33.7904C51.6277 32.4906 51.7067 29.9852 51.7701 27.972C51.7886 27.3864 51.806 26.8331 51.7884 26.3697L51.7883 26.3627C51.7927 25.4573 52.1545 24.5903 52.795 23.9499C53.4355 23.3095 54.3029 22.9475 55.209 22.9426H63.342C64.3217 22.9426 65.1011 23.2337 65.6586 23.8081C66.9194 25.1068 66.8413 27.6116 66.7785 29.6243C66.7602 30.2112 66.7429 30.7656 66.7609 31.2299C66.7577 32.1366 66.3964 33.0054 65.7555 33.6472C65.1145 34.289 64.2459 34.652 63.3386 34.657H55.2075ZM52.1299 26.3603C52.1477 26.8348 52.1302 27.3924 52.1115 27.9828C52.0501 29.9315 51.9737 32.3568 53.1338 33.5528C53.6317 34.0661 54.3101 34.3157 55.2075 34.3157H63.3381C64.154 34.3113 64.9354 33.9855 65.5123 33.4088C66.0893 32.8322 66.4152 32.0513 66.4194 31.2359C66.4011 30.7669 66.4186 30.2067 66.4371 29.6136C66.4978 27.6654 66.5734 25.2407 65.4134 24.0458C64.9159 23.5332 64.2382 23.284 63.342 23.284H55.2095C54.3943 23.2885 53.6138 23.6141 53.0373 24.19C52.4608 24.7659 52.1347 25.5457 52.1299 26.3603Z" fill="#3F3D56"/>
<path d="M11.1177 12.5513C9.69162 12.5426 8.29655 12.1343 7.09114 11.3727C5.32523 10.2761 3.99185 8.5199 3.61138 6.7896L3.57324 6.61616L4.05046 6.53081C7.80702 5.70229 12.0559 8.37222 12.9662 12.1356L13.0061 12.3006L12.8411 12.3414C12.2773 12.4808 11.6986 12.5513 11.1177 12.5513ZM3.98635 6.88912C4.39624 8.4764 5.64026 10.0698 7.27145 11.0827C8.8486 12.0914 10.7599 12.4386 12.5913 12.0493C11.639 8.54308 7.65122 6.08268 4.12089 6.86496L3.98635 6.88912Z" fill="#3F3D56"/>
<path d="M6.37916 31.9487C5.26165 31.9487 4.35375 31.4489 3.82073 30.5373C3.52197 30.007 3.36494 29.4086 3.36475 28.8C3.36456 28.1914 3.52122 27.593 3.81964 27.0625C4.36119 26.1353 5.29074 25.6323 6.43873 25.6499H17.2753C18.4194 25.6353 19.3496 26.136 19.8915 27.0643C20.19 27.5947 20.3467 28.193 20.3466 28.8015C20.3466 29.41 20.1897 30.0083 19.8912 30.5387C19.3495 31.4648 18.4196 31.9594 17.2727 31.9483H6.43596C6.41697 31.9485 6.39803 31.9486 6.37916 31.9487ZM6.3855 25.9908C5.3889 25.9908 4.58387 26.4312 4.11468 27.2346C3.84583 27.7125 3.7047 28.2516 3.70488 28.7999C3.70506 29.3482 3.84654 29.8873 4.1157 30.365C4.5928 31.1812 5.41432 31.6229 6.4334 31.6069H17.2753C18.2954 31.6231 19.1195 31.1816 19.5963 30.3664C19.8652 29.8886 20.0065 29.3496 20.0065 28.8014C20.0066 28.2532 19.8653 27.7142 19.5964 27.2363C19.1194 26.419 18.2951 25.979 17.2777 25.9912H6.43515C6.41859 25.991 6.40196 25.9908 6.3855 25.9908Z" fill="#3F3D56"/>
<path d="M57.9885 27.0018H54.5724C54.3459 27.0018 54.1287 26.9119 53.9685 26.7518C53.8084 26.5918 53.7184 26.3747 53.7184 26.1484C53.7184 25.922 53.8084 25.7049 53.9685 25.5449C54.1287 25.3848 54.3459 25.2949 54.5724 25.2949H57.9885C58.215 25.2949 58.4322 25.3848 58.5924 25.5449C58.7526 25.7049 58.8426 25.922 58.8426 26.1484C58.8426 26.3747 58.7526 26.5918 58.5924 26.7518C58.4322 26.9119 58.215 27.0018 57.9885 27.0018Z" fill="#A38E23"/>
<path d="M57.9885 29.7328H54.5724C54.3459 29.7328 54.1287 29.6429 53.9685 29.4828C53.8084 29.3227 53.7184 29.1057 53.7184 28.8793C53.7184 28.653 53.8084 28.4359 53.9685 28.2758C54.1287 28.1158 54.3459 28.0259 54.5724 28.0259H57.9885C58.215 28.0259 58.4322 28.1158 58.5924 28.2758C58.7526 28.4359 58.8426 28.653 58.8426 28.8793C58.8426 29.1057 58.7526 29.3227 58.5924 29.4828C58.4322 29.6429 58.215 29.7328 57.9885 29.7328Z" fill="#A38E23"/>
<path d="M57.9885 32.4637H54.5724C54.3459 32.4637 54.1287 32.3738 53.9685 32.2138C53.8084 32.0537 53.7184 31.8366 53.7184 31.6103C53.7184 31.3839 53.8084 31.1669 53.9685 31.0068C54.1287 30.8468 54.3459 30.7568 54.5724 30.7568H57.9885C58.215 30.7568 58.4322 30.8468 58.5924 31.0068C58.7526 31.1669 58.8426 31.3839 58.8426 31.6103C58.8426 31.8366 58.7526 32.0537 58.5924 32.2138C58.4322 32.3738 58.215 32.4637 57.9885 32.4637Z" fill="#A38E23"/>
<path d="M63.9667 27.0018H60.5506C60.3241 27.0018 60.1068 26.9119 59.9467 26.7518C59.7865 26.5918 59.6965 26.3747 59.6965 26.1484C59.6965 25.922 59.7865 25.7049 59.9467 25.5449C60.1068 25.3848 60.3241 25.2949 60.5506 25.2949H63.9667C64.1932 25.2949 64.4104 25.3848 64.5706 25.5449C64.7307 25.7049 64.8207 25.922 64.8207 26.1484C64.8207 26.3747 64.7307 26.5918 64.5706 26.7518C64.4104 26.9119 64.1932 27.0018 63.9667 27.0018Z" fill="#A38E23"/>
<path d="M63.9667 29.7328H60.5506C60.3241 29.7328 60.1068 29.6429 59.9467 29.4828C59.7865 29.3227 59.6965 29.1057 59.6965 28.8793C59.6965 28.653 59.7865 28.4359 59.9467 28.2758C60.1068 28.1158 60.3241 28.0259 60.5506 28.0259H63.9667C64.1932 28.0259 64.4104 28.1158 64.5706 28.2758C64.7307 28.4359 64.8207 28.653 64.8207 28.8793C64.8207 29.1057 64.7307 29.3227 64.5706 29.4828C64.4104 29.6429 64.1932 29.7328 63.9667 29.7328Z" fill="#A38E23"/>
<path d="M63.9667 32.4637H60.5506C60.3241 32.4637 60.1068 32.3738 59.9467 32.2138C59.7865 32.0537 59.6965 31.8366 59.6965 31.6103C59.6965 31.3839 59.7865 31.1669 59.9467 31.0068C60.1068 30.8468 60.3241 30.7568 60.5506 30.7568H63.9667C64.1932 30.7568 64.4104 30.8468 64.5706 31.0068C64.7307 31.1669 64.8207 31.3839 64.8207 31.6103C64.8207 31.8366 64.7307 32.0537 64.5706 32.2138C64.4104 32.3738 64.1932 32.4637 63.9667 32.4637Z" fill="#A38E23"/>
<path d="M71.7383 14.8728H0.204956V15.2142H71.7383V14.8728Z" fill="#3F3D56"/>
<path d="M66.1018 43.4732H5.63658C4.14219 43.4715 2.70948 42.8776 1.65278 41.8216C0.596083 40.7656 0.00168807 39.3339 0 37.8405V8.48209C0.00168807 6.98871 0.596083 5.55699 1.65278 4.50101C2.70948 3.44504 4.14219 2.85105 5.63658 2.84937H66.1018C67.5962 2.85105 69.0289 3.44504 70.0856 4.50101C71.1423 5.55699 71.7367 6.98871 71.7383 8.48209V37.8405C71.7367 39.3339 71.1423 40.7656 70.0856 41.8216C69.0289 42.8776 67.5962 43.4715 66.1018 43.4732ZM5.63658 3.19074C4.23276 3.19234 2.88689 3.75033 1.89423 4.74231C0.901579 5.73428 0.343206 7.07922 0.341611 8.48209V37.8405C0.343207 39.2434 0.901581 40.5883 1.89424 41.5803C2.88689 42.5723 4.23276 43.1303 5.63658 43.1319H66.1018C67.5056 43.1303 68.8515 42.5723 69.8441 41.5803C70.8368 40.5883 71.3951 39.2434 71.3967 37.8405V8.48209C71.3951 7.07922 70.8368 5.73428 69.8441 4.7423C68.8515 3.75033 67.5056 3.19233 66.1018 3.19074H5.63658Z" fill="#3F3D56"/>
</g>
<defs>
<clipPath id="clip0_1165_190">
<rect width="132.2" height="71.5329" fill="white"/>
</clipPath>
</defs>
</svg>
