<svg width="25" height="17" viewBox="0 0 25 17" fill="none" xmlns="http://www.w3.org/2000/svg">
<path d="M12.5 0.5C17.634 0.5 22.1286 3.48934 24.4033 7.92644C24.4669 8.05259 24.5 8.19186 24.5 8.33312C24.5 8.47443 24.4668 8.61377 24.4032 8.73996C22.1298 13.1753 17.6339 16.1667 12.5 16.1667C7.36601 16.1667 2.87137 13.1774 0.596676 8.74032C0.533114 8.61415 0.5 8.47484 0.5 8.33355C0.5 8.19225 0.533119 8.05293 0.596692 7.92675C2.8701 3.49142 7.36606 0.5 12.5 0.5ZM8.74988 13.9458C9.85984 14.6874 11.1648 15.0833 12.4997 15.0833L19.25 8.33309C19.2499 6.99815 18.8541 5.6932 18.1124 4.58323C17.3707 3.4732 16.3165 2.60804 15.0831 2.09715C13.8497 1.58625 12.4925 1.45258 11.1831 1.71303C9.87374 1.97348 8.67101 2.61636 7.72701 3.56036C6.783 4.50437 6.14013 5.7071 5.87968 7.01647C5.61923 8.32584 5.7529 9.68304 6.26379 10.9164C6.77468 12.1498 7.63984 13.2041 8.74988 13.9458ZM12.5 15.0833C13.3865 15.0837 14.2644 14.9094 15.0834 14.5704C15.9026 14.2313 16.6469 13.7341 17.2738 13.1072C17.9007 12.4803 18.3979 11.736 18.737 10.9168C19.0761 10.0977 19.2504 9.21983 19.25 8.33333L12.5 15.0833ZM8.86783 7.99083C9.2034 8.10977 9.56261 8.15881 9.92309 8.13154C10.5376 8.08506 11.115 7.8199 11.5508 7.38415C11.9865 6.94841 12.2517 6.37093 12.2982 5.75644C12.3258 5.39155 12.2752 5.02795 12.1531 4.68885C12.2695 4.67581 12.3867 4.66839 12.5041 4.66666C13.2681 4.66547 14.0133 4.90357 14.635 5.34758C15.2576 5.79215 15.7251 6.42076 15.9717 7.14493C16.2183 7.8691 16.2316 8.65237 16.0097 9.38449C15.7878 10.1166 15.3419 10.7607 14.7348 11.2262C14.1277 11.6916 13.3899 11.9549 12.6252 11.9791C11.8606 12.0032 11.1077 11.787 10.4724 11.3608C9.83708 10.9346 9.35143 10.3199 9.08378 9.60328C8.8907 9.0863 8.81808 8.53504 8.86783 7.99083Z" fill="white" stroke="#A38E23"/>
</svg>
