<svg width="31" height="21" viewBox="0 0 31 21" fill="none" xmlns="http://www.w3.org/2000/svg">
<path d="M10.6388 17.6087C12.0775 18.5701 13.7691 19.0833 15.4995 19.0834L24.25 10.3329C24.2499 8.60245 23.7367 6.9109 22.7754 5.47211C21.8139 4.03317 20.4473 2.91166 18.8485 2.24939C17.2496 1.58713 15.4903 1.41385 13.793 1.75147C12.0956 2.08909 10.5365 2.92245 9.31281 4.14616C8.08909 5.36987 7.25574 6.92897 6.91811 8.62631C6.58049 10.3236 6.75377 12.083 7.41604 13.6818C8.07831 15.2807 9.19982 16.6473 10.6388 17.6087ZM15.5 1C21.7129 1 27.1607 4.61701 29.9213 10.0007C29.973 10.1039 30 10.2177 30 10.3331C30 10.4485 29.973 10.5623 29.9213 10.6655C27.1623 16.0471 21.7128 19.6667 15.5 19.6667C9.28713 19.6667 3.83929 16.0497 1.0787 10.666C1.02695 10.5628 1 10.449 1 10.3336C1 10.2182 1.02696 10.1044 1.07871 10.0013C3.83771 4.61965 9.2872 1 15.5 1ZM15.5 19.0834C16.6491 19.0839 17.7871 18.8579 18.8488 18.4184C19.9108 17.9789 20.8756 17.3343 21.6883 16.5217C22.501 15.709 23.1455 14.7441 23.5851 13.6822C24.0246 12.6204 24.2505 11.4825 24.25 10.3334L15.5 19.0834ZM15.6287 7.16667C15.6542 6.82947 15.6316 6.49307 15.5636 6.16698C16.4112 6.17747 17.236 6.44705 17.9266 6.94025C18.6339 7.44533 19.165 8.15949 19.4452 8.98222C19.7254 9.80494 19.7405 10.6948 19.4884 11.5266C19.2363 12.3583 18.7297 13.0901 18.04 13.6189C17.3502 14.1477 16.512 14.4468 15.6433 14.4743C14.7746 14.5017 13.9192 14.256 13.1975 13.7719C12.4757 13.2877 11.924 12.5893 11.6199 11.7751C11.4547 11.3328 11.3671 10.8684 11.3581 10.4019C11.6765 10.466 12.0045 10.4869 12.3333 10.462C13.1859 10.3976 13.9871 10.0297 14.5917 9.42507C15.1963 8.82048 15.5642 8.01925 15.6287 7.16667Z" fill="white" stroke="#BBAA52" stroke-width="2"/>
</svg>
