<svg width="24" height="24" viewBox="0 0 24 24" fill="none" xmlns="http://www.w3.org/2000/svg">
<g clip-path="url(#clip0_1547_342)">
<g clip-path="url(#clip1_1547_342)">
<path d="M11.9184 6.63805L7.59696 11.2723C6.60459 12.3365 6.08754 13.7464 6.1404 15.2441C6.19271 16.7423 6.80687 18.1128 7.87047 19.1046C8.93465 20.097 10.3446 20.614 11.8423 20.5612C13.3399 20.5094 14.7104 19.8953 15.7028 18.8311L20.0221 14.1992L18.8641 13.1194L14.5448 17.7513C13.8413 18.5057 12.8618 18.9421 11.787 18.979C10.7123 19.0171 9.70472 18.6501 8.9503 17.9466C8.19646 17.2437 7.76007 16.2641 7.72252 15.1888C7.68444 14.1141 8.05143 13.1065 8.75493 12.3521L13.0743 7.7202L13.0764 7.71789C13.503 7.26048 14.0891 6.99636 14.7281 6.97516C15.367 6.95285 15.9719 7.17595 16.4321 7.60406C16.6593 7.81628 16.8421 8.07151 16.9699 8.35493C17.0977 8.63835 17.1679 8.94433 17.1765 9.25511C17.1893 9.56662 17.1403 9.87759 17.0325 10.1701C16.9247 10.4627 16.7601 10.731 16.5482 10.9597L12.2289 15.5916C12.1576 15.6662 12.0722 15.726 11.9777 15.7676C11.8833 15.8092 11.7815 15.8316 11.6783 15.8338C11.5749 15.8391 11.4714 15.8239 11.3738 15.7891C11.2763 15.7542 11.1866 15.7004 11.11 15.6307C10.9641 15.4946 10.8758 15.2932 10.8683 15.0795C10.8628 14.9762 10.8779 14.8728 10.9127 14.7753C10.9474 14.6779 11.0012 14.5883 11.0709 14.5118L15.3902 9.87986L14.2322 8.80003L9.91291 13.4319C9.48638 13.8893 9.26328 14.4942 9.28625 15.1359C9.3086 15.7759 9.57331 16.3627 10.0301 16.7887C10.487 17.2146 11.0913 17.4383 11.7336 17.4159C12.0447 17.4072 12.351 17.337 12.6347 17.2092C12.9185 17.0814 13.1741 16.8986 13.3868 16.6714L17.7067 12.0389C18.0607 11.6588 18.3359 11.2123 18.5165 10.7252C18.697 10.2381 18.7794 9.72005 18.7587 9.20098C18.7427 8.68195 18.6242 8.17122 18.4098 7.69826C18.1954 7.2253 17.8895 6.79948 17.5097 6.44539C17.1298 6.0913 16.6837 5.81595 16.1968 5.63523C15.71 5.45451 15.1922 5.37199 14.6734 5.39246C14.1546 5.40729 13.6439 5.52504 13.1709 5.73887C12.698 5.9527 12.2723 6.25834 11.9184 6.63805Z" fill="#E10F0F"/>
</g>
</g>
<defs>
<clipPath id="clip0_1547_342">
<rect width="24" height="24" fill="white"/>
</clipPath>
<clipPath id="clip1_1547_342">
<rect width="19" height="19" fill="white" transform="translate(-0.157227 13.7837) rotate(-47)"/>
</clipPath>
</defs>
</svg>
