<svg width="47" height="113" viewBox="0 0 47 113" fill="none" xmlns="http://www.w3.org/2000/svg">
<path d="M18.5284 18.4165H17.5353L13.3146 33.68C13.3146 33.68 13.2319 43.8281 14.225 48.7785C14.225 48.7785 15.8802 46.6333 17.0388 46.6333C18.1974 46.6333 19.2732 35.8251 19.2732 35.8251C19.2732 35.8251 23.8249 20.3966 18.5284 18.4165Z" fill="#E6E6E6"/>
<path d="M40.3766 47.6234C40.3766 47.6234 37.7283 55.0489 40.2111 55.5439C42.6938 56.039 44.0179 49.7685 43.3559 48.9435C42.6938 48.1184 40.3766 47.6234 40.3766 47.6234Z" fill="#FEB8B8"/>
<path d="M13.9557 46.0893C13.9557 46.0893 14.7002 53.9352 17.1604 53.3387C19.6206 52.7423 18.1651 46.5009 17.2155 46.0317C16.2659 45.5626 13.9557 46.0893 13.9557 46.0893Z" fill="#FEB8B8"/>
<path d="M20.3491 92.0113C20.3491 92.0113 21.5077 97.6217 19.5215 99.1068C17.5353 100.592 20.1836 103.727 20.1836 103.727L26.4732 97.1267C26.4732 97.1267 23.8249 93.0014 23.9905 90.5262L20.3491 92.0113Z" fill="#FEB8B8"/>
<path d="M30.2801 97.1267L29.6181 101.582L29.4525 104.717L33.0938 104.387L33.5904 97.9518L30.2801 97.1267Z" fill="#FEB8B8"/>
<path d="M16.2662 46.8757C16.2662 46.8757 14.225 47.6234 14.3905 49.7685C14.556 51.9137 15.0526 58.6791 15.0526 58.6791C15.0526 58.6791 13.5629 73.2001 15.0526 78.1504C16.5422 83.1008 19.356 93.0014 19.356 93.0014C19.356 93.0014 23.6594 93.8265 24.6525 90.6912C24.6525 90.6912 24.487 79.9655 22.6663 77.6554C20.8456 75.3452 22.1698 74.6852 22.3353 74.3552C22.5008 74.0252 22.9973 73.5301 22.9973 73.0351C22.9973 72.5401 23.1629 70.7249 23.1629 70.0649C23.1629 69.4048 22.9973 69.5699 23.3284 68.5798C23.6594 67.5897 23.9904 67.2597 23.9904 67.0947C23.9904 66.9297 26.8042 58.1841 26.8042 58.1841L30.4456 78.4804C30.4456 78.4804 29.618 98.4468 29.949 98.4468C30.2801 98.4468 33.9214 99.7669 35.2456 98.4468C35.2456 98.4468 38.5559 81.2856 37.8938 80.2956C37.2317 79.3055 37.0662 79.1405 37.2317 78.1504C37.3973 77.1604 37.7283 76.6653 37.3973 76.1703C37.0662 75.6753 36.5697 74.0252 37.0662 73.5301C37.5628 73.0351 37.7283 70.7249 37.7283 70.7249C37.7283 70.7249 40.5421 54.5539 38.7214 52.2437C36.9007 49.9336 16.2662 46.8757 16.2662 46.8757Z" fill="#2F2E41"/>
<path d="M21.8387 99.2718C21.8387 99.2718 19.8525 96.7966 19.1905 97.9517C18.5284 99.1068 17.5353 100.922 17.5353 100.922C17.5353 100.922 10.0871 107.357 14.225 107.522C18.3629 107.687 21.0112 104.717 21.0112 104.717C21.0112 104.717 21.6732 101.417 23.6594 101.417L23.9904 102.242L27.6318 99.9318C27.6318 99.9318 27.119 95.5506 25.6375 95.6786L21.8387 99.2718Z" fill="#2F2E41"/>
<path d="M28.7904 104.222C28.7904 104.222 33.0938 102.572 33.5904 104.222C34.0869 105.872 34.0869 106.697 34.0869 106.697C34.0869 106.697 37.7283 112.638 34.0869 112.968C30.4456 113.298 28.7904 110.988 28.7904 110.988C28.7904 110.988 29.287 108.182 28.7904 107.852C28.2939 107.522 28.7904 104.222 28.7904 104.222Z" fill="#2F2E41"/>
<path d="M31.7697 13.1361C34.9691 13.1361 37.5628 10.5504 37.5628 7.36074C37.5628 4.17108 34.9691 1.58536 31.7697 1.58536C28.5703 1.58536 25.9767 4.17108 25.9767 7.36074C25.9767 10.5504 28.5703 13.1361 31.7697 13.1361Z" fill="#FEB8B8"/>
<path d="M27.4663 8.68082L26.3077 15.1163L34.418 17.0964C34.418 17.0964 32.5145 12.3936 34.5835 10.3309C35.1069 9.80912 27.4663 8.68082 27.4663 8.68082Z" fill="#FEB8B8"/>
<path d="M26.8013 12.3746C26.6059 12.4113 26.4248 12.5022 26.2789 12.6369C26.133 12.7717 26.0283 12.9447 25.9766 13.1361C25.8322 13.6102 25.6083 14.0565 25.3146 14.4562C25.3146 14.4562 17.5353 18.0865 17.5353 18.5815C17.5353 19.0765 20.6801 29.6372 20.6801 29.6372C20.6801 29.6372 20.8456 36.2377 19.5215 37.7228C18.1974 39.2079 16.8733 44.6532 17.2043 45.1482C17.5353 45.6433 14.8871 46.7983 15.8802 47.6234C16.8733 48.4485 30.7766 56.369 39.0524 52.7387C39.0524 52.7387 39.218 51.2537 39.0524 50.2636C38.8869 49.2735 40.0455 45.9733 39.7145 44.8182C39.3835 43.6631 39.7145 31.7824 39.7145 31.7824L41.4203 17.7141C41.4529 17.4469 41.39 17.1767 41.2426 16.9512C41.0953 16.7256 40.8729 16.559 40.6146 16.4806C38.707 15.9026 34.2829 13.536 33.6732 14.0437C32.8836 14.701 27.9569 14.2533 26.8013 12.3746Z" fill="#E6E6E6"/>
<path d="M39.88 16.4363L39.8906 16.4321C40.1273 16.3375 40.3889 16.3241 40.6341 16.3941C40.8792 16.4641 41.0941 16.6135 41.2446 16.8188C42.2702 18.218 44.4287 21.3628 44.68 23.3668C45.011 26.007 46.0041 33.1024 45.8386 34.0925C45.6731 35.0826 45.5075 35.2476 45.8386 35.7426C46.1696 36.2376 46.0041 36.0726 45.8386 36.5677C45.6731 37.0627 43.6869 50.7586 43.6869 50.7586C43.6869 50.7586 42.3627 47.7884 39.88 48.7785C39.88 48.7785 40.211 46.1383 39.88 45.3132C39.549 44.4882 39.2179 43.9932 39.549 43.3331C39.88 42.6731 39.549 36.2376 39.3834 35.5776C39.2179 34.9176 39.3834 31.4523 39.3834 31.4523L37.8938 24.6869L39.88 16.4363Z" fill="#E6E6E6"/>
<path d="M30.6877 8.344L30.8834 6.98412C30.929 6.66715 31.1151 6.25039 31.4244 6.3366C31.6875 6.40991 32.2607 6.63444 32.3567 6.56667C32.7161 6.31285 33.26 6.75667 33.6379 6.53119C33.7962 6.43673 33.8995 6.23434 34.0836 6.22083C34.207 6.22869 34.3234 6.28124 34.4107 6.3686C34.656 6.58129 34.9451 6.73784 35.2576 6.82727C35.4144 6.86983 35.5798 6.86981 35.7365 6.82721C35.8933 6.78461 36.0358 6.70098 36.1492 6.58499C36.1893 6.52321 36.2433 6.47161 36.3069 6.43432C36.3816 6.41287 36.4612 6.41652 36.5336 6.44471L37.4992 6.70682C37.6412 6.19347 37.6704 5.6556 37.5847 5.12997C37.4991 4.60435 37.3006 4.10336 37.0028 3.66126C36.6111 3.13115 36.1361 2.66747 35.5964 2.28808C34.9984 1.83453 34.3812 1.40794 33.7449 1.0083C33.0486 0.569718 32.31 0.155998 31.4956 0.0327095C30.6813 -0.0905668 29.7695 0.129989 29.2574 0.773031C29.0164 0.599199 28.8353 0.355316 28.7389 0.0748297C28.6815 0.126923 28.6362 0.190949 28.6063 0.262388C28.5764 0.333827 28.5626 0.410935 28.5659 0.488274C28.5692 0.565612 28.5894 0.641296 28.6252 0.709979C28.661 0.778661 28.7115 0.838669 28.7732 0.885769L27.9565 0.365855C27.7269 0.606168 28.1755 1.04193 27.9799 1.31047C27.9207 1.37688 27.8448 1.42629 27.76 1.45358C27.3166 1.62588 26.9102 1.88089 26.5625 2.20496C26.0932 2.67419 25.8383 3.31113 25.6195 3.93689C25.1328 5.32874 24.7791 6.92493 25.4706 8.2278C25.549 8.3755 26.5836 10.8134 26.7215 10.9085C27.1875 11.2299 26.8841 10.4521 27.218 10.9085C27.4799 11.2664 27.4309 9.89667 27.82 10.1973C27.9726 10.3061 28.1535 10.3685 28.3409 10.3769C28.5283 10.3853 28.7141 10.3394 28.8759 10.2447C29.0372 10.1331 28.9852 9.51371 28.8982 8.9449C28.8815 8.83655 28.8918 8.72579 28.9281 8.62232C28.9643 8.51885 29.0255 8.42583 29.1062 8.35141C29.187 8.277 29.2848 8.22346 29.3911 8.19549C29.4974 8.16751 29.6089 8.16597 29.716 8.19098C30.2006 8.30461 30.6794 8.40174 30.6877 8.344Z" fill="#2F2E41"/>
<path opacity="0.1" d="M38.664 21.4876L40.1283 37.9703C40.1283 37.9703 37.0342 24.1461 38.664 21.4876Z" fill="black"/>
<path d="M11.4643 78.55C9.09495 81.889 8.46908 100.893 8.3296 106.985C8.32602 107.122 8.32245 107.252 8.32066 107.375H2.32304C2.24973 107.245 2.18177 107.117 2.1174 106.985C-1.43754 99.9892 0.534841 91.6014 0.638557 91.1771C0.368539 92.5106 1.58988 96.3756 2.97037 100.119C3.81259 88.6082 11.0137 79.1312 11.4643 78.55Z" fill="#E6E6E6"/>
</svg>
