<svg width="103" height="69" viewBox="0 0 103 69" fill="none" xmlns="http://www.w3.org/2000/svg">
<g clip-path="url(#clip0_140_26)">
<path d="M103 36.6724C103 50.6291 94.1493 62.5208 81.7524 67.0457C79.8665 67.7354 77.9198 68.246 75.9381 68.5709C70.4863 69.4646 64.8967 68.9572 59.6951 67.0966C47.2198 62.6089 38.3044 50.6771 38.3102 36.6656C38.3102 18.8188 52.7919 4.3449 70.6551 4.3449C77.4062 4.33509 83.9896 6.44602 89.475 10.3794C97.6641 16.2434 103 25.8349 103 36.6724Z" fill="#E5E5E5"/>
<path d="M81.7524 67.0456C79.8665 67.7354 77.9198 68.246 75.9381 68.5709C70.4863 69.4646 64.8967 68.9572 59.6951 67.0966L61.1888 61.1062L61.279 60.7467L64.3273 60.7584L79.6411 60.8133L79.8372 61.3922L81.7524 67.0456Z" fill="#2F2E41"/>
<path d="M28.096 0H0V31.7746H28.096V0Z" fill="#E6E6E6"/>
<path d="M27.546 0.672218H0.500954V31.1024H27.546V0.672218Z" fill="white"/>
<path d="M14.0481 30.0204C14.8853 30.0204 15.5641 29.3421 15.5641 28.5053C15.5641 27.6684 14.8853 26.9901 14.0481 26.9901C13.2108 26.9901 12.5321 27.6684 12.5321 28.5053C12.5321 29.3421 13.2108 30.0204 14.0481 30.0204Z" fill="#E6E6E6"/>
<path d="M13.792 11.4439H5.08461V12.3341H13.792V11.4439Z" fill="#E6E6E6"/>
<path d="M18.2263 14.1117H5.08461V15.0019H18.2263V14.1117Z" fill="#BBAA52"/>
<path d="M16.9364 16.7962H5.08461V17.6865H16.9364V16.7962Z" fill="#E6E6E6"/>
<path d="M23.3862 19.4099H5.08461V20.3001H23.3862V19.4099Z" fill="#BBAA52"/>
<path d="M20.1903 21.899H5.27486V22.7893H20.1903V21.899Z" fill="#E6E6E6"/>
<path d="M39.9517 51.7036C40.0585 51.8133 40.1566 51.9312 40.2449 52.0562L53.9776 51.7204L55.5797 48.7945L60.3138 50.6338L57.981 56.0891C57.7926 56.5298 57.4662 56.8975 57.0509 57.137C56.6356 57.3765 56.1537 57.475 55.6777 57.4175L40.1619 55.5442C39.796 56.0073 39.2976 56.348 38.7331 56.5211C38.1686 56.6942 37.5648 56.6914 37.0019 56.5131C36.4391 56.3349 35.9438 55.9895 35.5821 55.5231C35.2204 55.0567 35.0094 54.4912 34.9771 53.902C34.9447 53.3127 35.0927 52.7276 35.4012 52.2244C35.7097 51.7213 36.1642 51.3239 36.7041 51.0852C37.2441 50.8465 37.844 50.7777 38.4241 50.8881C39.0041 50.9984 39.5368 51.2827 39.9512 51.703L39.9517 51.7036Z" fill="#9F616A"/>
<path d="M58.4353 34.9961L64.8621 32.891L66.7496 30.3037L75.9352 30.847L77.2838 33.8662L82.1818 36.1794L81.429 50.1512L80.1413 63.2269C73.5196 59.7999 61.1618 62.4126 61.0536 62.4551L58.4353 34.9961Z" fill="#BBAA52"/>
<path d="M59.8092 53.9077L53.2722 51.2937L53.3 51.1774C53.3281 51.0598 56.1103 39.4399 56.4797 37.5725C56.8645 35.6271 58.2706 35.0892 58.3303 35.0673L58.3739 35.0512L60.9609 35.8383L62.0971 44.7608L59.8092 53.9077Z" fill="#BBAA52"/>
<path d="M73.9238 62.6521C74.0771 62.6485 74.2303 62.6569 74.3822 62.6774L83.4728 52.3843L82.4154 49.2215L86.9837 47.0025L89.4003 52.421C89.5955 52.8588 89.6434 53.348 89.5367 53.8153C89.4301 54.2825 89.1747 54.7026 88.8088 55.0124L76.8854 65.1097C76.9762 65.6928 76.8873 66.2897 76.6304 66.8211C76.3735 67.3524 75.9609 67.793 75.4474 68.0842C74.9339 68.3755 74.3438 68.5036 73.7557 68.4515C73.1676 68.3994 72.6093 68.1696 72.155 67.7926C71.7007 67.4157 71.3721 66.9094 71.2127 66.3412C71.0533 65.773 71.0708 65.1698 71.2628 64.6117C71.4548 64.0537 71.8123 63.5673 72.2876 63.2173C72.763 62.8672 73.3337 62.6701 73.9238 62.6521Z" fill="#9F616A"/>
<path d="M82.7472 53.3863L78.9551 44.4711L80.4342 38.2612L82.0278 36.2489C82.1445 36.1991 82.2703 36.1739 82.3972 36.1751C82.5242 36.1763 82.6495 36.2037 82.7652 36.2558C83.3533 36.4922 83.8532 37.2168 84.2528 38.4094L87.8067 48.5268L82.7472 53.3863Z" fill="#BBAA52"/>
<path d="M63.0728 27.0002V20.279C63.0689 19.0963 63.2981 17.9244 63.7473 16.8302C64.1966 15.736 64.857 14.7409 65.691 13.9018C66.525 13.0627 67.5162 12.396 68.608 11.9398C69.6998 11.4835 70.8708 11.2467 72.0542 11.2428C73.2376 11.2389 74.4101 11.468 75.5049 11.9169C76.5997 12.3659 77.5953 13.0261 78.4348 13.8596C79.2744 14.6932 79.9414 15.6838 80.3979 16.775C80.8544 17.8662 81.0914 19.0366 81.0953 20.2194C81.0953 20.2393 81.0953 20.2591 81.0953 20.279V27.0002C81.0949 27.321 80.9673 27.6285 80.7403 27.8553C80.5134 28.0821 80.2057 28.2097 79.8848 28.2101H64.2833C63.9624 28.2097 63.6547 28.0821 63.4277 27.8553C63.2008 27.6285 63.0732 27.321 63.0728 27.0002Z" fill="#2F2E41"/>
<path d="M70.2323 28.0535C73.8811 28.0535 76.839 25.0971 76.839 21.4503C76.839 17.8035 73.8811 14.8472 70.2323 14.8472C66.5835 14.8472 63.6256 17.8035 63.6256 21.4503C63.6256 25.0971 66.5835 28.0535 70.2323 28.0535Z" fill="#9F616A"/>
<path d="M60.941 20.8167C60.9431 18.9279 61.6948 17.117 63.0312 15.7813C64.3675 14.4457 66.1794 13.6944 68.0693 13.6922H69.4144C71.3042 13.6944 73.1161 14.4457 74.4525 15.7813C75.7888 17.117 76.5405 18.9279 76.5426 20.8167V20.9511H73.7001L72.7307 18.2376L72.5368 20.9511H71.068L70.5789 19.5822L70.4809 20.9511H60.941V20.8167Z" fill="#2F2E41"/>
<path d="M69.5822 28.9659C69.4487 28.7853 69.369 28.5707 69.3523 28.3468C69.3355 28.1229 69.3823 27.8989 69.4874 27.7004C70.9126 24.991 72.9081 19.9844 70.2594 16.8969L70.0695 16.6753H77.7593V28.2142L70.7737 29.4461C70.703 29.4586 70.6314 29.465 70.5596 29.465C70.3689 29.465 70.1809 29.4198 70.0111 29.3331C69.8412 29.2464 69.6944 29.1207 69.5827 28.9662L69.5822 28.9659Z" fill="#2F2E41"/>
<path d="M14.0236 2.47473C13.386 2.4747 12.7627 2.66364 12.2326 3.01766C11.7024 3.37167 11.2892 3.87487 11.0451 4.46361C10.8011 5.05236 10.7372 5.7002 10.8616 6.32523C10.9859 6.95026 11.2929 7.52439 11.7438 7.97503C12.1946 8.42566 12.769 8.73257 13.3944 8.85692C14.0197 8.98128 14.6679 8.91751 15.257 8.67367C15.8461 8.42983 16.3496 8.01687 16.7039 7.48702C17.0581 6.95718 17.2472 6.33423 17.2473 5.69697V5.6968C17.2473 5.27367 17.1639 4.85469 17.0019 4.46377C16.8399 4.07285 16.6024 3.71765 16.303 3.41845C16.0037 3.11926 15.6483 2.88192 15.2572 2.72C14.866 2.55807 14.4468 2.47473 14.0235 2.47473H14.0236ZM14.0236 3.44126C14.2149 3.44126 14.4019 3.49795 14.5609 3.60415C14.7199 3.71036 14.8439 3.86131 14.9171 4.03792C14.9903 4.21453 15.0094 4.40887 14.9721 4.59636C14.9348 4.78385 14.8427 4.95607 14.7074 5.09124C14.5722 5.22641 14.3999 5.31847 14.2123 5.35576C14.0247 5.39306 13.8303 5.37392 13.6536 5.30076C13.4769 5.22761 13.3258 5.10373 13.2196 4.94478C13.1133 4.78583 13.0566 4.59897 13.0566 4.4078C13.0566 4.15146 13.1585 3.90562 13.3398 3.72436C13.5212 3.5431 13.7672 3.44127 14.0236 3.44126ZM14.0236 8.0946C13.6416 8.09285 13.2657 7.99797 12.9286 7.81818C12.5916 7.63839 12.3035 7.37913 12.0894 7.06288C12.1049 6.41847 13.3789 6.06375 14.0236 6.06375C14.6684 6.06375 15.9424 6.41847 15.9579 7.06288C15.7435 7.3789 15.4554 7.63799 15.1184 7.81774C14.7814 7.9975 14.4056 8.09252 14.0236 8.0946Z" fill="#BBAA52"/>
<path d="M14.0611 29.0861C15.3892 26.6536 18.5708 25.1131 21.1733 26.5016C22.3448 27.1265 23.2761 28.2319 23.5717 29.5385C23.9147 31.0562 23.1919 32.5034 22.4457 33.7785C22.0407 34.4706 21.5969 35.1486 21.2617 35.8786C20.9146 36.6346 20.6665 37.5083 20.9278 38.3307C21.1631 39.0716 21.7529 39.6105 22.3988 40.0065C23.1117 40.4271 23.87 40.7656 24.6591 41.0155C26.2836 41.5555 27.997 41.777 29.7054 41.6681C30.5545 41.6104 31.3965 41.4744 32.2205 41.2617C33.097 41.0384 33.9572 40.7552 34.8352 40.5368C36.3011 40.1729 37.9726 39.9919 39.3626 40.7229C40.7131 41.4333 41.3174 42.9191 41.5044 44.3646C41.8496 47.0336 40.7907 49.8034 38.8789 51.6726C37.9617 52.5693 36.8075 53.3102 35.5504 53.6133C34.4535 53.8778 33.045 53.8608 32.1721 53.0413C31.198 52.1266 31.4272 50.6599 32.2008 49.6949C33.1883 48.4636 34.8612 48.1679 36.3541 48.1379C38.0523 48.1038 39.7489 48.3565 41.4461 48.1994C42.2746 48.135 43.0874 47.939 43.8542 47.6189C44.5282 47.3225 45.143 46.9067 45.6689 46.3915C46.7167 45.3741 47.4234 44.0187 47.7748 42.6094C48.1979 40.9146 48.1057 39.1335 47.7772 37.4312C47.6021 36.5534 47.3767 35.6864 47.1021 34.8345C46.9887 34.475 46.4207 34.6288 46.535 34.9908C47.5465 38.1965 48.1105 41.9033 46.1561 44.8796C45.3474 46.1419 44.0875 47.0483 42.6332 47.4142C40.9418 47.8344 39.1669 47.6267 37.4473 47.5642C35.8122 47.5047 34.0168 47.5689 32.6152 48.5207C31.4654 49.3014 30.6612 50.7863 31.0087 52.1881C31.3439 53.54 32.6437 54.2257 33.9438 54.3313C35.3079 54.4424 36.6502 53.9848 37.7958 53.2693C40.1788 51.781 41.7633 49.1634 42.0949 46.3883C42.2677 44.9422 42.0919 43.3846 41.4357 42.0721C41.09 41.3617 40.5519 40.7623 39.8825 40.342C39.215 39.933 38.444 39.7317 37.6697 39.6605C35.9106 39.4986 34.2204 40.1022 32.5516 40.564C31.6991 40.8112 30.8253 40.9779 29.9417 41.062C29.084 41.133 28.2215 41.1189 27.3666 41.02C26.5184 40.92 25.6824 40.7346 24.8714 40.4665C24.0768 40.221 23.3159 39.8772 22.6065 39.4431C21.9807 39.0432 21.4395 38.4703 21.4087 37.6896C21.3753 36.8431 21.8023 36.0513 22.2085 35.3376C23.0109 33.9279 24.0022 32.5489 24.2114 30.8986C24.3947 29.4549 23.8135 28.032 22.8098 27.0023C22.3068 26.4797 21.7012 26.0665 21.031 25.7886C20.3608 25.5107 19.6404 25.3741 18.915 25.3874C17.4259 25.43 16 26.0773 14.9047 27.0713C14.3615 27.5646 13.9043 28.145 13.5521 28.7886C13.3707 29.1208 13.8783 29.4177 14.0599 29.0852L14.0611 29.0861Z" fill="#3F3D56"/>
</g>
<defs>
<clipPath id="clip0_140_26">
<rect width="103" height="69" fill="white"/>
</clipPath>
</defs>
</svg>
