<svg width="22" height="21" viewBox="0 0 22 21" fill="none" xmlns="http://www.w3.org/2000/svg">
<path d="M11.0302 20.2085C6.09381 20.2085 0.768219 17.0439 0.768219 10.0999C0.768219 3.15582 6.09381 -0.00878906 11.0302 -0.00878906C13.7726 -0.00878906 16.3027 0.913468 18.1781 2.59523C20.2128 4.43975 21.2921 7.04377 21.2921 10.0999C21.2921 13.156 20.2128 15.7419 18.1781 17.5864C16.3027 19.2682 13.7549 20.2085 11.0302 20.2085Z" fill="url(#paint0_radial_1049_343)"/>
<path d="M19.5033 4.09033C20.4464 5.64551 20.9382 7.49726 20.9382 9.55697C20.9382 12.6131 19.859 15.199 17.8243 17.0435C15.9488 18.7253 13.401 19.6656 10.6763 19.6656C7.48095 19.6656 4.12989 18.3365 2.15182 15.5173C4.05558 18.7108 7.63665 20.2081 11.0302 20.2081C13.7549 20.2081 16.3027 19.2678 18.1781 17.586C20.2128 15.7415 21.2921 13.1556 21.2921 10.0995C21.2921 7.79564 20.6782 5.74859 19.5033 4.09033Z" fill="#EB8F00"/>
<path d="M7.56234 6.12842C6.821 6.12842 6.1469 6.76857 6.1469 7.83188C6.1469 8.89519 6.821 9.53354 7.56234 9.53354C8.30544 9.53354 8.97778 8.89338 8.97778 7.83188C8.97778 6.77038 8.31252 6.12842 7.56234 6.12842Z" fill="#422B0D"/>
<path d="M7.5004 6.83925C7.24916 6.71628 6.94661 6.82478 6.82453 7.08157C6.73075 7.2823 6.77322 7.52281 6.93068 7.67832C7.18192 7.80129 7.48447 7.69279 7.60656 7.43601C7.70033 7.23528 7.65787 6.99477 7.5004 6.83925Z" fill="#896024"/>
<path d="M14.3564 6.12842C13.6151 6.12842 12.941 6.76857 12.941 7.83188C12.941 8.89519 13.6151 9.53354 14.3564 9.53354C15.0978 9.53354 15.7719 8.89338 15.7719 7.83188C15.7719 6.77038 15.0978 6.12842 14.3564 6.12842Z" fill="#422B0D"/>
<path d="M14.2857 6.83925C14.0344 6.71628 13.7319 6.82478 13.6098 7.08157C13.516 7.2823 13.5585 7.52281 13.716 7.67832C13.9672 7.80129 14.2697 7.69279 14.3918 7.43601C14.4856 7.23528 14.4431 6.99477 14.2857 6.83925Z" fill="#896024"/>
<path d="M11.1328 12.865C12.7375 12.8505 14.2733 13.5413 15.3472 14.7601C15.4286 14.856 15.4481 14.9916 15.3968 15.1073C15.3455 15.2249 15.2322 15.3008 15.1066 15.3026C15.05 15.3026 14.9934 15.2863 14.9438 15.2574C14.091 14.7565 12.665 14.1344 11.1363 14.1344H11.1115C9.58463 14.1344 8.15681 14.7565 7.30578 15.2574C7.25624 15.2863 7.19962 15.3026 7.143 15.3026C7.01738 15.3008 6.90591 15.2249 6.8546 15.1073C6.80153 14.9916 6.82099 14.856 6.90414 14.7601C7.97811 13.5413 9.51209 12.8505 11.1168 12.865" fill="#422B0D"/>
<defs>
<radialGradient id="paint0_radial_1049_343" cx="0" cy="0" r="1" gradientUnits="userSpaceOnUse" gradientTransform="translate(11.0302 10.0999) scale(10.0779 10.3003)">
<stop offset="0.5" stop-color="#FDE030"/>
<stop offset="0.92" stop-color="#F7C02B"/>
<stop offset="1" stop-color="#F4A223"/>
</radialGradient>
</defs>
</svg>
