<svg width="148" height="135" viewBox="0 0 148 135" fill="none" xmlns="http://www.w3.org/2000/svg">
<g clip-path="url(#clip0_403_15)">
<path d="M20.1414 10.3589C20.0812 10.2962 19.9996 10.261 19.9145 10.261C19.8294 10.261 19.7478 10.2962 19.6877 10.3589L18.3103 11.7936V8.25564C18.3096 8.16748 18.2755 8.08319 18.2154 8.02111C18.1553 7.95903 18.0741 7.92419 17.9895 7.92419C17.9049 7.92419 17.8237 7.95903 17.7636 8.02111C17.7035 8.08319 17.6694 8.16748 17.6687 8.25564V11.7936L16.2914 10.3589C16.2313 10.2963 16.1498 10.261 16.0649 10.2609C15.9799 10.2608 15.8984 10.2958 15.8381 10.3582C15.7779 10.4206 15.7439 10.5054 15.7436 10.5939C15.7433 10.6824 15.7767 10.7674 15.8365 10.8303L15.8376 10.8315L17.7626 12.8369C17.8228 12.8995 17.9044 12.9348 17.9895 12.9348C18.0746 12.9348 18.1562 12.8995 18.2164 12.8369L20.1414 10.8315C20.2016 10.7688 20.2353 10.6838 20.2353 10.5952C20.2353 10.5066 20.2016 10.4216 20.1414 10.3589Z" fill="white"/>
<path d="M41.2077 42.0495C41.2375 42.0806 41.2728 42.1052 41.3118 42.122C41.3507 42.1388 41.3924 42.1474 41.4345 42.1474C41.4767 42.1474 41.5184 42.1388 41.5573 42.122C41.5962 42.1052 41.6316 42.0806 41.6614 42.0495L43.0387 40.6148V44.1528C43.0387 44.2414 43.0725 44.3264 43.1327 44.3891C43.1929 44.4518 43.2745 44.487 43.3596 44.487C43.4447 44.487 43.5263 44.4518 43.5864 44.3891C43.6466 44.3264 43.6804 44.2414 43.6804 44.1528V40.6148L45.0577 42.0495C45.0875 42.0806 45.1229 42.1052 45.1618 42.122C45.2007 42.1388 45.2424 42.1474 45.2846 42.1474C45.3267 42.1474 45.3684 42.1388 45.4074 42.122C45.4463 42.1052 45.4817 42.0806 45.5115 42.0495C45.5412 42.0185 45.5649 41.9817 45.581 41.9411C45.5971 41.9006 45.6054 41.8571 45.6054 41.8132C45.6054 41.7693 45.5971 41.7258 45.581 41.6853C45.5649 41.6447 45.5412 41.6079 45.5114 41.5769L43.5864 39.5715C43.5263 39.5088 43.4447 39.4736 43.3596 39.4736C43.2745 39.4736 43.1929 39.5088 43.1327 39.5715L41.2077 41.5769C41.1475 41.6395 41.1137 41.7246 41.1137 41.8132C41.1137 41.9018 41.1475 41.9868 41.2077 42.0495Z" fill="white"/>
<path d="M6.76077 92.944C6.55907 92.9442 6.36569 93.0278 6.22307 93.1763C6.08045 93.3249 6.00022 93.5264 6 93.7365V120.767C6.00022 120.977 6.08045 121.179 6.22307 121.327C6.36569 121.476 6.55907 121.56 6.76077 121.56H95.2392C95.4409 121.56 95.6343 121.476 95.7769 121.327C95.9195 121.179 95.9998 120.977 96 120.767V93.7365C95.9998 93.5264 95.9195 93.3249 95.7769 93.1763C95.6343 93.0278 95.4409 92.9442 95.2392 92.944H6.76077Z" fill="#E6E6E6"/>
<path d="M7.90656 119.574H94.0938V94.9299H7.90656V119.574Z" fill="white"/>
<path d="M83.2143 114.462C82.8801 114.462 82.5595 114.6 82.3232 114.846C82.0868 115.092 81.954 115.426 81.954 115.774C81.954 116.123 82.0868 116.457 82.3232 116.703C82.5595 116.949 82.8801 117.087 83.2143 117.087H88.2551C88.5893 117.087 88.9099 116.949 89.1463 116.703C89.3826 116.457 89.5154 116.123 89.5154 115.774C89.5154 115.426 89.3826 115.092 89.1463 114.846C88.9099 114.6 88.5893 114.462 88.2551 114.462H83.2143Z" fill="#A38E23"/>
<path d="M89.5155 111.915H31.3248V112.261H89.5155V111.915Z" fill="#E6E6E6"/>
<path d="M19.1612 114.898C23.215 114.898 26.5013 111.475 26.5013 107.252C26.5013 103.029 23.215 99.6056 19.1612 99.6056C15.1074 99.6056 11.8211 103.029 11.8211 107.252C11.8211 111.475 15.1074 114.898 19.1612 114.898Z" fill="#A38E23"/>
<path d="M31.4168 109.986L31.233 109.699L37.2798 105.499L41.4261 107.573L47.3906 103.602L59.2549 108.874L68.7029 104.039L77.8764 107.915L89.4045 103.091L89.6243 103.349L77.9436 108.316L68.716 104.419L59.2646 109.255L47.4216 103.992L41.4496 107.967L37.3068 105.896L31.4168 109.986Z" fill="#3F3D56"/>
<path d="M32.4024 114.642C32.1196 114.647 31.8499 114.767 31.6516 114.977C31.4532 115.187 31.342 115.47 31.342 115.765C31.342 116.059 31.4532 116.342 31.6516 116.552C31.8499 116.762 32.1196 116.882 32.4024 116.887H43.6757C43.8172 116.889 43.9578 116.863 44.0894 116.809C44.2211 116.754 44.3411 116.674 44.4428 116.571C44.5445 116.469 44.6258 116.346 44.6821 116.211C44.7384 116.076 44.7685 115.93 44.7708 115.783C44.7731 115.635 44.7475 115.489 44.6955 115.352C44.6435 115.215 44.5661 115.09 44.4676 114.984C44.3692 114.878 44.2517 114.793 44.1219 114.734C43.992 114.676 43.8523 114.644 43.7108 114.642C43.6991 114.642 43.6874 114.642 43.6757 114.642H32.4024Z" fill="#E6E6E6"/>
<path d="M16.2087 107.347C16.2496 107.389 16.2981 107.423 16.3515 107.446C16.4049 107.469 16.4622 107.481 16.52 107.481C16.5778 107.481 16.635 107.469 16.6884 107.446C16.7418 107.423 16.7904 107.389 16.8312 107.347L18.721 105.378V110.233C18.7215 110.354 18.7679 110.47 18.8501 110.555C18.9323 110.641 19.0436 110.689 19.1598 110.689C19.276 110.69 19.3876 110.642 19.4703 110.557C19.553 110.472 19.6001 110.357 19.6014 110.236V105.378L21.4911 107.347C21.5735 107.433 21.6853 107.482 21.8021 107.482C21.9188 107.482 22.0309 107.434 22.1137 107.349C22.1965 107.263 22.2431 107.146 22.2434 107.025C22.2437 106.903 22.1976 106.786 22.1153 106.7L22.1137 106.698L19.4725 103.947C19.3899 103.861 19.278 103.813 19.1612 103.813C19.0445 103.813 18.9325 103.861 18.8499 103.947L16.2087 106.698C16.1678 106.741 16.1354 106.791 16.1133 106.847C16.0912 106.903 16.0798 106.962 16.0798 107.023C16.0798 107.083 16.0912 107.142 16.1133 107.198C16.1354 107.254 16.1678 107.304 16.2087 107.347Z" fill="white"/>
<path d="M50.1294 45C50.0257 45.0001 49.9263 45.0431 49.853 45.1194C49.7797 45.1958 49.7385 45.2994 49.7383 45.4074V59.3017C49.7385 59.4097 49.7797 59.5132 49.853 59.5896C49.9263 59.666 50.0257 59.7089 50.1294 59.7091H95.609C95.7127 59.7089 95.812 59.666 95.8854 59.5896C95.9587 59.5132 95.9999 59.4097 96 59.3017V45.4074C95.9999 45.2994 95.9587 45.1958 95.8854 45.1194C95.812 45.0431 95.7127 45.0001 95.609 45H50.1294Z" fill="#E6E6E6"/>
<path d="M50.7183 58.6884H95.0202V46.0208H50.7183V58.6884Z" fill="white"/>
<path d="M89.428 56.0604C89.2561 56.0604 89.0914 56.1315 88.9699 56.2581C88.8484 56.3846 88.7802 56.5563 88.7802 56.7353C88.7802 56.9142 88.8484 57.0859 88.9699 57.2124C89.0914 57.339 89.2561 57.4101 89.428 57.4101H92.019C92.1908 57.4101 92.3556 57.339 92.4771 57.2124C92.5986 57.0859 92.6668 56.9142 92.6668 56.7353C92.6668 56.5563 92.5986 56.3846 92.4771 56.2581C92.3556 56.1315 92.1908 56.0604 92.019 56.0604H89.428Z" fill="#A38E23"/>
<path d="M92.6669 54.7516H62.7557V54.9292H92.6669V54.7516Z" fill="#E6E6E6"/>
<path d="M56.5035 56.285C58.5872 56.285 60.2764 54.5253 60.2764 52.3546C60.2764 50.1839 58.5872 48.4242 56.5035 48.4242C54.4197 48.4242 52.7305 50.1839 52.7305 52.3546C52.7305 54.5253 54.4197 56.285 56.5035 56.285Z" fill="#A38E23"/>
<path d="M62.8031 53.76L62.7086 53.6122L65.8167 51.4535L67.948 52.5194L71.0139 50.4783L77.1123 53.1883L81.9688 50.703L86.6842 52.6953L92.6098 50.2156L92.7228 50.3485L86.7187 52.9013L81.9755 50.8981L77.1173 53.3841L71.0298 50.6789L67.9601 52.7222L65.8306 51.6574L62.8031 53.76Z" fill="#3F3D56"/>
<path d="M63.3097 56.1532C63.1643 56.1556 63.0257 56.2174 62.9238 56.3254C62.8218 56.4333 62.7646 56.5787 62.7646 56.7301C62.7646 56.8816 62.8218 57.0269 62.9238 57.1349C63.0257 57.2428 63.1643 57.3047 63.3097 57.3071H69.1044C69.1771 57.3084 69.2494 57.2947 69.317 57.2668C69.3847 57.2389 69.4464 57.1975 69.4987 57.1448C69.551 57.0921 69.5928 57.0292 69.6217 56.9596C69.6506 56.8901 69.6661 56.8153 69.6673 56.7395C69.6685 56.6638 69.6553 56.5885 69.6286 56.518C69.6018 56.4475 69.562 56.3832 69.5115 56.3288C69.4609 56.2743 69.4005 56.2308 69.3337 56.2007C69.267 56.1705 69.1952 56.1544 69.1224 56.1532C69.1164 56.1531 69.1104 56.1531 69.1044 56.1532H63.3097Z" fill="#E6E6E6"/>
<path d="M54.9858 52.4033C55.0068 52.4252 55.0318 52.4426 55.0592 52.4544C55.0867 52.4663 55.1161 52.4724 55.1458 52.4724C55.1755 52.4724 55.205 52.4663 55.2324 52.4544C55.2599 52.4426 55.2848 52.4252 55.3058 52.4034L56.2772 51.3915V53.8867C56.2775 53.9489 56.3013 54.0084 56.3436 54.0524C56.3858 54.0964 56.443 54.1211 56.5027 54.1213C56.5625 54.1215 56.6198 54.0971 56.6623 54.0535C56.7049 54.0098 56.7291 53.9504 56.7297 53.8882V51.3915L57.7011 52.4033C57.7434 52.4477 57.8009 52.4726 57.8609 52.4728C57.9209 52.473 57.9786 52.4483 58.0211 52.4042C58.0636 52.3601 58.0876 52.3002 58.0878 52.2377C58.0879 52.1752 58.0642 52.1152 58.0219 52.0708L58.0211 52.07L56.6635 50.6557C56.621 50.6115 56.5635 50.5867 56.5035 50.5867C56.4435 50.5867 56.3859 50.6115 56.3435 50.6557L54.9858 52.07C54.9648 52.0919 54.9482 52.1179 54.9368 52.1465C54.9254 52.1751 54.9196 52.2057 54.9196 52.2367C54.9196 52.2676 54.9254 52.2983 54.9368 52.3269C54.9482 52.3555 54.9648 52.3815 54.9858 52.4033Z" fill="white"/>
<path d="M26.777 65.0281C26.6206 65.0283 26.4706 65.0931 26.3599 65.2083C26.2493 65.3236 26.1871 65.4798 26.1869 65.6428V86.6106C26.1871 86.7736 26.2493 86.9299 26.3599 87.0451C26.4706 87.1604 26.6206 87.2252 26.777 87.2254H95.4099C95.5663 87.2252 95.7163 87.1604 95.8269 87.0451C95.9376 86.9299 95.9998 86.7736 96 86.6106V65.6428C95.9998 65.4798 95.9376 65.3236 95.8269 65.2083C95.7163 65.0931 95.5663 65.0283 95.4099 65.0281H26.777Z" fill="#E6E6E6"/>
<path d="M26.777 65.0281C26.6206 65.0283 26.4706 65.0931 26.3599 65.2083C26.2493 65.3236 26.1871 65.4798 26.1869 65.6428V86.6106C26.1871 86.7736 26.2493 86.9299 26.3599 87.0451C26.4706 87.1604 26.6206 87.2252 26.777 87.2254H95.4099C95.5663 87.2252 95.7163 87.1604 95.8269 87.0451C95.9376 86.9299 95.9998 86.7736 96 86.6106V65.6428C95.9998 65.4798 95.9376 65.3236 95.8269 65.2083C95.7163 65.0931 95.5663 65.0283 95.4099 65.0281H26.777Z" fill="#E6E6E6"/>
<path d="M27.6658 85.6852H94.5213V66.5686H27.6658V85.6852Z" fill="white"/>
<path d="M86.0821 81.7192C85.8228 81.7192 85.5742 81.8265 85.3908 82.0175C85.2075 82.2085 85.1045 82.4675 85.1045 82.7376C85.1045 83.0077 85.2075 83.2667 85.3908 83.4577C85.5742 83.6487 85.8228 83.756 86.0821 83.756H89.9922C90.2515 83.756 90.5002 83.6487 90.6835 83.4577C90.8668 83.2667 90.9698 83.0077 90.9698 82.7376C90.9698 82.4675 90.8668 82.2085 90.6835 82.0175C90.5002 81.8265 90.2515 81.7192 89.9922 81.7192H86.0821Z" fill="#A38E23"/>
<path d="M90.9699 79.7441H45.8313V80.0122H90.9699V79.7441Z" fill="#E6E6E6"/>
<path d="M36.3961 82.0582C39.5406 82.0582 42.0898 79.4027 42.0898 76.1269C42.0898 72.8511 39.5406 70.1956 36.3961 70.1956C33.2515 70.1956 30.7023 72.8511 30.7023 76.1269C30.7023 79.4027 33.2515 82.0582 36.3961 82.0582Z" fill="#A38E23"/>
<path d="M45.9027 78.2479L45.7601 78.0249L50.4506 74.7672L53.667 76.3757L58.2936 73.2956L67.4967 77.3851L74.8256 73.6346L81.9415 76.6412L90.8838 72.899L91.0543 73.0997L81.9936 76.9521L74.8358 73.929L67.5043 77.6807L58.3177 73.5983L53.6852 76.6818L50.4716 75.0749L45.9027 78.2479Z" fill="#3F3D56"/>
<path d="M46.6673 81.8592C46.4479 81.8629 46.2388 81.9563 46.0849 82.1192C45.931 82.2821 45.8448 82.5014 45.8448 82.73C45.8448 82.9585 45.931 83.1779 46.0849 83.3408C46.2388 83.5037 46.4479 83.597 46.6673 83.6007H55.4121C55.5218 83.6026 55.6309 83.5819 55.733 83.5398C55.835 83.4978 55.9282 83.4352 56.0071 83.3557C56.086 83.2762 56.149 83.1812 56.1927 83.0763C56.2363 82.9714 56.2597 82.8585 56.2615 82.7441C56.2633 82.6298 56.2435 82.5162 56.2031 82.4099C56.1627 82.3035 56.1027 82.2065 56.0263 82.1243C55.95 82.0421 55.8588 81.9764 55.7581 81.9309C55.6574 81.8855 55.549 81.8611 55.4393 81.8592C55.4302 81.8591 55.4211 81.8591 55.4121 81.8592H46.6673Z" fill="#E6E6E6"/>
<path d="M34.1058 76.2004C34.1375 76.2334 34.1752 76.2596 34.2166 76.2775C34.258 76.2954 34.3024 76.3046 34.3473 76.3046C34.3921 76.3046 34.4365 76.2954 34.4779 76.2775C34.5194 76.2596 34.557 76.2334 34.5887 76.2004L36.0546 74.6734V78.4389C36.055 78.5327 36.091 78.6226 36.1548 78.689C36.2185 78.7553 36.3049 78.7927 36.395 78.793C36.4851 78.7933 36.5717 78.7565 36.6358 78.6906C36.7 78.6247 36.7366 78.535 36.7375 78.4411V74.6734L38.2034 76.2004C38.2673 76.2673 38.354 76.305 38.4446 76.3052C38.5352 76.3055 38.6221 76.2682 38.6863 76.2017C38.7505 76.1351 38.7867 76.0448 38.7869 75.9504C38.7872 75.8561 38.7514 75.7655 38.6876 75.6986L38.6863 75.6973L36.6375 73.563C36.5735 73.4963 36.4866 73.4589 36.3961 73.4589C36.3055 73.4589 36.2187 73.4963 36.1546 73.563L34.1058 75.6973C34.0741 75.7304 34.049 75.7696 34.0318 75.8127C34.0146 75.8559 34.0058 75.9021 34.0058 75.9489C34.0058 75.9956 34.0146 76.0418 34.0318 76.085C34.049 76.1281 34.0741 76.1674 34.1058 76.2004Z" fill="white"/>
<path d="M132.248 131.739L129.151 131.739L127.678 119.297L132.248 119.298L132.248 131.739Z" fill="#FFB7B7"/>
<path d="M133.037 134.865L123.054 134.865V134.733C123.054 133.66 123.463 132.63 124.192 131.871C124.921 131.112 125.909 130.685 126.94 130.685H126.94L133.038 130.686L133.037 134.865Z" fill="#2F2E41"/>
<path d="M120.883 131.739L117.786 131.739L116.313 119.297L120.883 119.298L120.883 131.739Z" fill="#FFB7B7"/>
<path d="M121.672 134.865L111.689 134.865V134.733C111.689 133.66 112.098 132.63 112.827 131.871C113.556 131.112 114.544 130.685 115.575 130.685H115.575L121.673 130.686L121.672 134.865Z" fill="#2F2E41"/>
<path d="M115.047 91.3851C115.315 91.1569 115.532 90.8703 115.682 90.5454C115.832 90.2206 115.913 89.8653 115.917 89.5046C115.921 89.144 115.849 88.7868 115.707 88.4581C115.564 88.1295 115.354 87.8374 115.092 87.6024L116.775 82.2443L113.898 80.3848L111.624 87.9862C111.274 88.4721 111.108 89.0747 111.156 89.6798C111.204 90.2849 111.464 90.8506 111.886 91.2695C112.308 91.6885 112.863 91.9317 113.445 91.953C114.028 91.9742 114.598 91.7722 115.047 91.3851Z" fill="#FFB7B7"/>
<path d="M118.115 87.8479C118.115 87.8479 115.225 104.145 115.261 107.308C115.304 111.126 116.935 127.486 116.935 127.486L121.086 126.405L121.871 107.442L125.154 95.3399L126.417 110.863L127.685 127.191H132.5L133.579 86.2262L117.856 85.6857L118.115 87.8479Z" fill="#2F2E41"/>
<path d="M132.515 55.0085L124.212 55.2788L119.023 88.7939C119.023 88.7939 130.05 94.0645 134.72 90.2805C139.39 86.4965 132.515 55.0085 132.515 55.0085Z" fill="#CBCBCB"/>
<path d="M125.38 62.1711L118.374 104.065L113.964 102.714L117.077 87.5777L118.634 72.4418L118.374 57.306L123.823 54.8734L125.38 52.9814C125.38 52.9814 128.493 57.0357 125.38 62.1711Z" fill="#2F2E41"/>
<path d="M129.012 61.1485L129.531 105.146L140.169 103.254L139.39 62.4414L140.428 56.7654L135.239 54.3329L133.138 52.9814C133.138 52.9814 128.493 54.4499 129.012 61.1485Z" fill="#2F2E41"/>
<path d="M120.71 58.1167L118.375 57.3059L115.002 72.9823L112.147 85.4154L116.299 86.2262L120.191 72.712L120.71 58.1167Z" fill="#2F2E41"/>
<path d="M144.101 94.016C143.833 93.7879 143.616 93.5013 143.466 93.1764C143.315 92.8515 143.235 92.4963 143.231 92.1356C143.227 91.775 143.298 91.4178 143.441 91.0891C143.584 90.7604 143.794 90.4684 144.056 90.2334L142.373 84.8753L145.25 83.0157L147.524 90.6172C147.874 91.103 148.04 91.7056 147.992 92.3108C147.944 92.9159 147.684 93.4815 147.262 93.9005C146.84 94.3194 146.285 94.5626 145.703 94.5839C145.12 94.6052 144.55 94.4032 144.101 94.016Z" fill="#FFB7B7"/>
<path d="M138.186 57.5906L140.521 56.7798L143.894 72.4562L147 88.0463L142.328 88.7624L138.705 72.1859L138.186 57.5906Z" fill="#2F2E41"/>
<path d="M131.699 50.7708C134.494 49.1794 135.521 45.5293 133.993 42.6181C132.466 39.7068 128.962 38.6369 126.167 40.2283C123.373 41.8198 122.345 45.4699 123.873 48.3811C125.401 51.2923 128.905 52.3622 131.699 50.7708Z" fill="#FFB7B7"/>
<path d="M143.307 135H96.5422C96.4883 135 96.4366 134.978 96.3984 134.938C96.3603 134.898 96.3389 134.844 96.3389 134.788C96.3389 134.732 96.3603 134.678 96.3984 134.638C96.4366 134.599 96.4883 134.576 96.5422 134.576H143.307C143.361 134.576 143.413 134.599 143.451 134.638C143.489 134.678 143.511 134.732 143.511 134.788C143.511 134.844 143.489 134.898 143.451 134.938C143.413 134.978 143.361 135 143.307 135Z" fill="#CBCBCB"/>
<path d="M126.922 37.6386C132.435 35.9825 134 40.7424 134 40.7424C136.657 42.579 134.994 44.8815 134.994 44.8815C135.664 45.0367 134.324 49.1242 133.877 49.0207C133.638 48.9655 133.025 49.7282 132.504 50.4516C132.326 50.4513 132.148 50.4692 131.973 50.5048L132.982 46.6149C132.982 46.6149 129.58 46.0719 128.537 44.3646C127.539 42.7312 124.254 42.2155 123.319 43.3065C123.264 42.9928 123.15 42.6933 122.985 42.4246C122.858 42.2205 122.691 42.0461 122.495 41.9126C123.322 38.253 126.922 37.6386 126.922 37.6386Z" fill="#2F2E41"/>
</g>
<defs>
<clipPath id="clip0_403_15">
<rect width="148" height="135" fill="white"/>
</clipPath>
</defs>
</svg>
