<svg width="43" height="33" viewBox="0 0 43 33" fill="none" xmlns="http://www.w3.org/2000/svg">
<path d="M0 28.7126C0 30.6148 1.60503 32.1581 3.58333 32.1581H39.4167C41.395 32.1581 43 30.6148 43 28.7126V16.0791H0V28.7126ZM14.3333 23.8315C14.3333 23.3577 14.7365 22.9701 15.2292 22.9701H25.3819C25.8747 22.9701 26.2778 23.3577 26.2778 23.8315V26.7027C26.2778 27.1765 25.8747 27.5641 25.3819 27.5641H15.2292C14.7365 27.5641 14.3333 27.1765 14.3333 26.7027V23.8315ZM4.77778 23.8315C4.77778 23.3577 5.1809 22.9701 5.67361 22.9701H11.0486C11.5413 22.9701 11.9444 23.3577 11.9444 23.8315V26.7027C11.9444 27.1765 11.5413 27.5641 11.0486 27.5641H5.67361C5.1809 27.5641 4.77778 27.1765 4.77778 26.7027V23.8315ZM43 3.44551V6.89103H0V3.44551C0 1.5433 1.60503 0 3.58333 0H39.4167C41.395 0 43 1.5433 43 3.44551Z" fill="#A38E23"/>
</svg>
