<svg width="151" height="98" viewBox="0 0 151 98" fill="none" xmlns="http://www.w3.org/2000/svg">
<g clip-path="url(#clip0_135_2)">
<path d="M4.76096 74.7582C5.50542 67.1594 10.005 59.5741 17.1643 56.9209C14.5188 64.7912 14.7424 73.3437 17.7955 81.065C18.9838 84.0385 20.6151 87.2221 19.6499 90.2754C19.0493 92.1752 17.4977 93.6572 15.7448 94.6043C13.9917 95.5513 12.0314 96.032 10.0954 96.5035L9.72052 96.8304C6.4479 89.9321 4.0165 82.3571 4.76096 74.7582Z" fill="#F0F0F0"/>
<path d="M17.2397 57.0623C13.1974 61.8334 10.6533 67.9269 10.2084 74.1737C10.1123 75.5242 10.1322 76.9026 10.4613 78.2227C10.792 79.5071 11.4606 80.6794 12.3975 81.618C13.2536 82.5106 14.2326 83.3246 14.8568 84.4098C15.5147 85.5537 15.5732 86.8714 15.1756 88.115C14.6892 89.6366 13.6851 90.8926 12.6604 92.0869C11.5227 93.4128 10.32 94.772 9.86684 96.5024C9.81193 96.712 9.48983 96.6146 9.54465 96.4052C10.3331 93.3947 13.1893 91.6219 14.5024 88.8947C15.1151 87.6221 15.348 86.1571 14.7084 84.8473C14.149 83.702 13.1401 82.8617 12.2655 81.9654C11.3472 81.0242 10.6348 79.9839 10.2487 78.7161C9.8537 77.4193 9.77979 76.0388 9.84101 74.6917C10.0026 71.6381 10.6434 68.6289 11.7397 65.7743C12.973 62.5094 14.7556 59.4795 17.0105 56.8158C17.1502 56.651 17.3784 56.8985 17.2397 57.0623Z" fill="white"/>
<path d="M10.2459 72.1355C9.19982 71.9103 8.26788 71.3205 7.61651 70.4715C6.96514 69.6226 6.63676 68.5697 6.68999 67.501C6.69256 67.4575 6.71194 67.4166 6.74405 67.387C6.77616 67.3575 6.81849 67.3415 6.86212 67.3426C6.90574 67.3436 6.94727 67.3616 6.97793 67.3926C7.00859 67.4237 7.026 67.4654 7.02649 67.509C6.97508 68.5042 7.28107 69.4848 7.88924 70.2742C8.49741 71.0635 9.3677 71.6094 10.343 71.8134C10.5549 71.8579 10.4566 72.1799 10.2459 72.1355Z" fill="white"/>
<path d="M11.9039 81.2225C13.7521 80.0526 15.0914 78.229 15.6548 76.1154C15.7105 75.9059 16.0326 76.0033 15.977 76.2125C15.3866 78.4109 13.989 80.3058 12.063 81.519C11.8793 81.6346 11.7212 81.3374 11.9039 81.2225Z" fill="white"/>
<path d="M13.2934 62.8202C13.68 62.9917 14.1031 63.0644 14.5248 63.032C14.9464 62.9996 15.3534 62.8629 15.7092 62.6343C15.8913 62.5165 16.0493 62.8138 15.8684 62.9308C15.4741 63.1815 15.0244 63.3319 14.5586 63.3688C14.0928 63.4057 13.625 63.3279 13.1962 63.1423C13.1543 63.1282 13.1194 63.0987 13.0985 63.0598C13.0776 63.0208 13.0723 62.9754 13.0837 62.9327C13.0968 62.8901 13.1261 62.8544 13.1654 62.8333C13.2046 62.8122 13.2506 62.8075 13.2934 62.8202Z" fill="white"/>
<path d="M39.5355 69.8758C39.4239 69.9525 39.3123 70.0293 39.2006 70.109C37.7054 71.149 36.2971 72.3088 34.9897 73.5769C34.8871 73.6733 34.7845 73.7726 34.6849 73.8718C31.5677 76.9605 29.051 80.6011 27.2627 84.6085C26.5526 86.2038 25.9649 87.8508 25.5047 89.5353C24.8692 91.8616 24.3653 94.4346 23.0375 96.3585C22.9012 96.5608 22.7526 96.7544 22.5924 96.9383L10.1484 97.2628C10.1197 97.2493 10.091 97.2387 10.0622 97.2252L9.56597 97.2609C9.58364 97.1724 9.60387 97.0809 9.62154 96.9924C9.63157 96.941 9.64438 96.8895 9.65441 96.8381C9.66198 96.8038 9.66969 96.7695 9.67456 96.7382C9.67703 96.7267 9.67965 96.7153 9.6822 96.7067C9.68707 96.6753 9.69492 96.6467 9.69987 96.6182C9.81152 96.1067 9.92697 95.5952 10.0462 95.0835C10.0461 95.0806 10.0461 95.0806 10.0488 95.0777C10.9673 91.1814 12.2191 87.3275 14.016 83.7862C14.0701 83.6796 14.124 83.5703 14.1838 83.4636C15.0026 81.8718 15.9502 80.3496 17.017 78.9122C17.6037 78.127 18.2298 77.372 18.8928 76.6501C20.6096 74.7882 22.6086 73.2078 24.8165 71.967C29.2182 69.4942 34.3618 68.4566 39.1692 69.7717C39.2922 69.8054 39.4125 69.8392 39.5355 69.8758Z" fill="#F0F0F0"/>
<path d="M39.5116 70.0345C33.4116 71.4102 27.7115 74.7437 23.5953 79.4636C22.7054 80.484 21.8915 81.5967 21.3594 82.8489C20.8502 84.0734 20.6782 85.412 20.8612 86.7255C21.0073 87.9536 21.2989 89.193 21.1439 90.4353C20.9805 91.7447 20.2339 92.832 19.1677 93.5856C17.8632 94.5076 16.3052 94.906 14.7681 95.2426C13.0614 95.6163 11.2828 95.9774 9.87916 97.0862C9.70909 97.2205 9.51059 96.9488 9.6804 96.8146C12.1225 94.8856 15.4704 95.1898 18.1608 93.8028C19.4161 93.1556 20.4841 92.1261 20.762 90.6952C21.0049 89.444 20.7053 88.1657 20.5466 86.9234C20.3801 85.619 20.4376 84.3594 20.8926 83.1148C21.358 81.8415 22.1301 80.6948 22.9901 79.656C24.9576 77.3152 27.2809 75.2983 29.875 73.6791C32.8254 71.8148 36.0729 70.4689 39.4771 69.6997C39.6878 69.6521 39.721 69.9872 39.5116 70.0345Z" fill="white"/>
<path d="M24.8523 77.8587C24.1527 77.049 23.7637 76.0171 23.7548 74.9471C23.7458 73.877 24.1175 72.8387 24.8035 72.0174C24.9428 71.8517 25.2068 72.0605 25.0673 72.2264C24.4271 72.99 24.081 73.9573 24.0914 74.9537C24.1017 75.95 24.4679 76.9099 25.1239 77.66C25.2662 77.8231 24.9939 78.021 24.8523 77.8587Z" fill="white"/>
<path d="M20.7051 86.1123C22.8852 86.2909 25.0525 85.6413 26.7749 84.2929C26.9455 84.1592 27.144 84.4309 26.9737 84.5644C25.1787 85.9642 22.9219 86.6357 20.6537 86.4449C20.4375 86.4265 20.4901 86.0941 20.7051 86.1123Z" fill="white"/>
<path d="M32.8942 72.2553C33.0996 72.625 33.3936 72.9379 33.7499 73.1658C34.1061 73.3938 34.5133 73.5297 34.9351 73.5614C35.1514 73.577 35.0985 73.9095 34.8836 73.894C34.4178 73.8568 33.9682 73.7061 33.5741 73.4551C33.18 73.2041 32.8533 72.8604 32.6227 72.4541C32.5977 72.4176 32.5876 72.373 32.5944 72.3293C32.6011 72.2856 32.6243 72.2462 32.6591 72.2189C32.6952 72.1928 32.7401 72.1819 32.7841 72.1888C32.8282 72.1956 32.8677 72.2195 32.8942 72.2553Z" fill="white"/>
<path d="M112.571 6.66702C112.385 6.11841 110.055 4.25353 111.483 3.94008L112.653 5.50124L118.036 0.118408L118.578 0.659797L112.571 6.66702Z" fill="#BBAA52"/>
<path d="M112.571 24.971C112.385 24.4224 110.055 22.5575 111.483 22.244L112.653 23.8052L118.036 18.4224L118.578 18.9637L112.571 24.971Z" fill="#BBAA52"/>
<path d="M112.571 43.5364C112.385 42.9878 110.055 41.1229 111.483 40.8095L112.653 42.3706L118.036 36.9878L118.578 37.5292L112.571 43.5364Z" fill="#BBAA52"/>
<path d="M107.614 28.5267C108.531 28.5267 109.275 27.783 109.275 26.8657C109.275 25.9483 108.531 25.2046 107.614 25.2046C106.696 25.2046 105.953 25.9483 105.953 26.8657C105.953 27.783 106.696 28.5267 107.614 28.5267Z" fill="#3F3D56"/>
<path d="M107.614 10.4212C108.531 10.4212 109.275 9.67756 109.275 8.76018C109.275 7.8428 108.531 7.09912 107.614 7.09912C106.696 7.09912 105.953 7.8428 105.953 8.76018C105.953 9.67756 106.696 10.4212 107.614 10.4212Z" fill="#3F3D56"/>
<path d="M150.22 4.9397H123.477V5.27191H150.22V4.9397Z" fill="#3F3D56"/>
<path d="M108.444 47.8273C109.362 47.8273 110.105 47.0836 110.105 46.1662C110.105 45.2488 109.362 44.5051 108.444 44.5051C107.527 44.5051 106.783 45.2488 106.783 46.1662C106.783 47.0836 107.527 47.8273 108.444 47.8273Z" fill="#3F3D56"/>
<path d="M150.22 23.2437H123.477V23.5759H150.22V23.2437Z" fill="#3F3D56"/>
<path d="M150.22 41.8091H123.477V42.1413H150.22V41.8091Z" fill="#3F3D56"/>
<path d="M116.766 46.0115H108.461V37.54H114.108V37.8723H108.793V45.6792H116.434V41.8588H116.766V46.0115Z" fill="#3F3D56"/>
<path d="M116.766 27.4074H108.461V18.936H114.108V19.2682H108.793V27.0752H116.434V23.2548H116.766V27.4074Z" fill="#3F3D56"/>
<path d="M116.766 8.47141H108.461V0H114.108V0.332212H108.793V8.1392H116.434V4.31876H116.766V8.47141Z" fill="#3F3D56"/>
<path d="M62.5398 30.1934C62.5398 30.1934 60.3201 39.5653 63.033 39.5653C65.7459 39.5653 72.1583 28.9602 72.1583 28.9602L69.9386 26.2473L65.9546 31.7786L65.7459 28.9602L62.5398 30.1934Z" fill="#A0616A"/>
<path d="M71.5668 29.3676C72.7594 29.3676 73.7262 28.4008 73.7262 27.2082C73.7262 26.0156 72.7594 25.0488 71.5668 25.0488C70.3742 25.0488 69.4074 26.0156 69.4074 27.2082C69.4074 28.4008 70.3742 29.3676 71.5668 29.3676Z" fill="#A0616A"/>
<path d="M60.6578 94.0241L63.5319 94.0239L64.8995 82.937L60.6571 82.9372L60.6578 94.0241Z" fill="#A0616A"/>
<path d="M60.5565 97.0224L69.3955 97.0221V96.9103C69.3954 95.9979 69.0329 95.1229 68.3877 94.4777C67.7426 93.8325 66.8675 93.47 65.9551 93.47H65.9549L64.3404 92.2451L61.3279 93.4702L60.5564 93.4702L60.5565 97.0224Z" fill="#2F2E41"/>
<path d="M29.7393 90.4382L32.3111 91.7215L38.4856 82.4121L34.6898 80.5178L29.7393 90.4382Z" fill="#A0616A"/>
<path d="M28.3097 93.0756L36.2185 97.0225L36.2684 96.9225C36.6758 96.1061 36.7422 95.1613 36.4531 94.2959C36.1639 93.4305 35.5428 92.7154 34.7265 92.3079L34.7263 92.3078L33.8286 90.4909L30.5862 90.2418L29.8958 89.8972L28.3097 93.0756Z" fill="#2F2E41"/>
<path d="M94.6556 97.0334H0V97.4056H94.6556V97.0334Z" fill="#CCCCCC"/>
<path d="M42.0744 47.1954C42.0744 47.1954 40.9257 61.0068 40.6791 63.9664C40.51 65.8216 40.0953 67.6462 39.4459 69.3922C39.4459 69.3922 38.9527 70.3788 38.9527 71.3653L33.3624 81.525C33.3624 81.525 31.6541 82.7806 31.9008 83.7671C32.1474 84.7537 30.8708 85.3454 30.8708 85.3454L36.7579 86.4801C36.7579 86.4801 36.5113 85.7402 37.2511 85.4935C37.991 85.2469 38.58 83.1078 38.58 83.1078L46.8448 69.6389L52.7639 57.3074C52.7639 57.3074 56.2167 68.4057 56.9566 69.6389C56.9566 69.6389 59.6695 83.4501 60.1628 84.6833C60.656 85.9164 60.9027 85.9164 60.656 86.4097C60.4094 86.9029 60.4094 87.3962 60.656 87.6428C60.9027 87.8894 65.5886 87.6428 65.5886 87.6428L64.3555 70.1321L62.1358 49.1686L50.7909 45.7158L42.0744 47.1954Z" fill="#2F2E41"/>
<path d="M53.1817 14.2239C56.0421 14.2239 58.3609 11.9051 58.3609 9.04469C58.3609 6.18429 56.0421 3.86548 53.1817 3.86548C50.3213 3.86548 48.0025 6.18429 48.0025 9.04469C48.0025 11.9051 50.3213 14.2239 53.1817 14.2239Z" fill="#A0616A"/>
<path d="M62.6291 21.7927L56.4636 18.0572C56.4636 18.0572 56.2927 15.7376 54.5359 15.6284C53.654 15.5736 52.3305 15.4899 50.3443 15.3618C49.9246 15.3347 49.6413 17.6312 49.1603 17.6L42.6521 19.3264L43.6386 36.0972C43.6386 36.0972 42.1589 42.7562 42.6521 43.9894C43.1454 45.2225 41.419 45.7158 41.9122 45.9624C42.4055 46.209 41.9122 47.9354 41.9122 47.9354C41.9122 47.9354 51.5308 52.868 62.1358 49.1686L61.1493 45.9624C61.2836 45.5433 61.3087 45.0968 61.2224 44.6653C61.1361 44.2337 60.9412 43.8313 60.656 43.4961C60.656 43.4961 61.6425 42.0163 60.4094 40.7832C60.4094 40.7832 60.9027 38.5635 59.6695 37.577L59.4229 34.1242L60.1628 32.3978L62.6291 21.7927Z" fill="#E6E6E6"/>
<path d="M48.6875 12.0033L48.5427 11.667C48.524 11.6236 46.6924 7.29362 48.3159 4.62279C49.0675 3.38632 50.434 2.68823 52.3775 2.54808C55.4184 2.3282 57.4997 3.04955 58.5651 4.69059C58.7438 4.96871 58.8442 5.28983 58.8558 5.62018C58.8674 5.95053 58.7898 6.27791 58.6311 6.56789C58.4725 6.85787 58.2386 7.09975 57.9541 7.26809C57.6696 7.43643 57.3451 7.52501 57.0145 7.52453H56.9736L56.4149 6.79903L56.3824 6.86959C56.1801 7.30724 55.7155 7.54683 55.1714 7.49436C55.0788 7.48771 54.9968 7.5676 54.931 7.73857C54.9088 7.81336 54.8669 7.88081 54.8097 7.93382C54.7525 7.98684 54.6821 8.02348 54.6058 8.03989C54.2038 8.11815 53.6307 7.61172 53.3741 7.35932C53.3642 7.41741 53.342 7.4727 53.3089 7.52145C53.2758 7.5702 53.2326 7.61128 53.1822 7.6419C52.9119 7.79787 52.4912 7.59413 52.3704 7.52924C51.4084 7.73363 50.7857 7.67896 50.5189 7.36695C50.3381 8.64656 49.9499 10.9498 49.4844 11.0775C49.4358 11.0887 49.3848 11.0839 49.3391 11.0639C49.2933 11.0439 49.2552 11.0098 49.2304 10.9665C49.1183 10.8209 49.0182 10.7484 48.9556 10.7688C48.8042 10.817 48.7148 11.3156 48.702 11.6374L48.6875 12.0033Z" fill="#2F2E41"/>
<path d="M59.9162 22.0394L62.3764 21.6396C64.1487 23.3425 65.3559 25.5479 65.8353 27.9585C66.5752 31.9045 66.8218 32.6444 66.8218 32.6444L60.9027 34.1242L57.6965 27.9585L59.9162 22.0394Z" fill="#E6E6E6"/>
<path d="M48.9992 27.1721L47.4788 46.446L86.2787 49.5067L87.7991 30.2327L48.9992 27.1721Z" fill="white"/>
<path d="M53.1445 28.6651C52.1949 27.9871 50.9894 27.938 50.5289 27.9478C50.6694 28.3863 51.106 29.5111 52.0555 30.1895C53.0073 30.8692 54.2114 30.9168 54.6712 30.9073C54.5308 30.4689 54.0941 29.3437 53.1445 28.6651Z" fill="#BBAA52"/>
<path d="M56.8902 40.9299L50.6601 40.4384C50.476 40.4239 50.2909 40.4458 50.1152 40.5028C49.9396 40.5599 49.7769 40.6509 49.6365 40.7708C49.4961 40.8907 49.3806 41.0371 49.2968 41.2016C49.2129 41.3661 49.1623 41.5456 49.1477 41.7296C49.1332 41.9137 49.1551 42.0989 49.2121 42.2745C49.2692 42.4501 49.3602 42.6128 49.4801 42.7532C49.6 42.8937 49.7464 43.0091 49.9109 43.093C50.0754 43.1768 50.2549 43.2275 50.4389 43.242L56.6691 43.7335C57.0409 43.7628 57.4091 43.6432 57.6927 43.4011C57.9763 43.1589 58.1521 42.814 58.1815 42.4423C58.2108 42.0705 58.0912 41.7023 57.8491 41.4187C57.6069 41.135 57.262 40.9592 56.8902 40.9299Z" fill="#BBAA52"/>
<path d="M86.2695 28.3593L51.339 25.6036C50.9328 25.5716 50.5242 25.6199 50.1366 25.7458C49.749 25.8718 49.3899 26.0728 49.08 26.3375C48.7701 26.6022 48.5154 26.9253 48.3304 27.2884C48.1454 27.6515 48.0337 28.0475 48.0017 28.4538L46.6583 45.4715C46.5937 46.2923 46.8578 47.1051 47.3923 47.7312C47.9269 48.3573 48.6882 48.7456 49.509 48.8105L84.4394 51.5662C84.8457 51.5982 85.2543 51.5498 85.6419 51.4239C86.0295 51.298 86.3885 51.097 86.6984 50.8323C87.0083 50.5676 87.2631 50.2445 87.4481 49.8814C87.6331 49.5183 87.7448 49.1222 87.7768 48.716L89.0534 32.5413L89.0791 32.2109L89.1198 31.6966C89.1517 31.2903 89.1034 30.8817 88.9775 30.4941C88.8515 30.1065 88.6505 29.7475 88.3858 29.4376C88.1212 29.1277 87.798 28.873 87.4349 28.688C87.0718 28.5029 86.6758 28.3913 86.2695 28.3593ZM85.238 43.1656L85.0167 45.9693C84.9763 46.4644 84.7414 46.9234 84.3635 47.2459C83.9855 47.5684 83.4953 47.7282 82.9999 47.6903L78.3268 47.322C77.8316 47.2816 77.3726 47.0467 77.0501 46.6688C76.7276 46.2909 76.5679 45.8006 76.6058 45.3052L76.8271 42.5016C76.8678 42.0065 77.1027 41.5476 77.4806 41.2251C77.8584 40.9027 78.3486 40.7429 78.8439 40.7806L83.5154 41.1492C84.0106 41.1899 84.4696 41.4247 84.7923 41.8024C85.115 42.1802 85.2752 42.6702 85.238 43.1656ZM48.8386 41.7037C48.8749 41.25 49.0896 40.8293 49.4357 40.5337C49.7818 40.2382 50.231 40.092 50.6848 40.1272L56.9147 40.619C57.1397 40.6363 57.3591 40.6979 57.5604 40.8001C57.7616 40.9023 57.9408 41.0432 58.0875 41.2147C58.2343 41.3862 58.3459 41.5849 58.4158 41.7995C58.4858 42.0141 58.5127 42.2404 58.4952 42.4654C58.4776 42.6905 58.4159 42.9098 58.3135 43.111C58.2111 43.3122 58.0701 43.4912 57.8985 43.6378C57.7269 43.7845 57.5281 43.8958 57.3134 43.9656C57.0988 44.0354 56.8725 44.0622 56.6474 44.0444L56.6442 44.0452L50.4143 43.5535C50.1893 43.5357 49.97 43.4737 49.769 43.3711C49.568 43.2685 49.3892 43.1272 49.2428 42.9554C49.0965 42.7836 48.9854 42.5846 48.9161 42.3698C48.8467 42.155 48.8204 41.9287 48.8386 41.7037ZM50.1723 27.8369L50.1297 27.6626L50.3089 27.6462C50.379 27.6386 52.0362 27.4899 53.3262 28.4113C54.6163 29.3328 55.0118 30.9496 55.029 31.0172L55.07 31.1919L54.8912 31.2099C54.6374 31.2288 54.3825 31.2271 54.129 31.2049C53.3225 31.1577 52.5435 30.8946 51.8735 30.4431C50.5835 29.5217 50.1879 27.9049 50.1723 27.8369Z" fill="#BBAA52"/>
<path d="M79.9973 45.0251L77.9725 44.8654C77.8281 44.8543 77.6851 44.9009 77.575 44.995C77.4649 45.0892 77.3967 45.2232 77.3853 45.3676C77.3739 45.512 77.4203 45.655 77.5143 45.7653C77.6082 45.8755 77.7421 45.944 77.8865 45.9557L79.9113 46.1154C80.0557 46.1265 80.1987 46.0799 80.3088 45.9857C80.4188 45.8916 80.4871 45.7576 80.4985 45.6132C80.5099 45.4688 80.4635 45.3257 80.3695 45.2155C80.2755 45.1052 80.1417 45.0368 79.9973 45.0251Z" fill="#BBAA52"/>
<path d="M83.7354 45.32L81.7106 45.1603C81.5662 45.1492 81.4233 45.1959 81.3133 45.2901C81.2033 45.3842 81.1352 45.5182 81.1238 45.6625C81.1124 45.8069 81.1587 45.9498 81.2526 46.0601C81.3465 46.1703 81.4802 46.2388 81.6246 46.2506L83.6494 46.4103C83.7937 46.4213 83.9366 46.3746 84.0466 46.2805C84.1566 46.1863 84.2248 46.0524 84.2361 45.908C84.2475 45.7637 84.2012 45.6207 84.1073 45.5105C84.0134 45.4003 83.8797 45.3318 83.7354 45.32Z" fill="#BBAA52"/>
<path d="M80.1079 43.6232L78.0831 43.4635C77.9387 43.4525 77.7958 43.4992 77.6858 43.5933C77.5758 43.6875 77.5076 43.8214 77.4963 43.9657C77.4849 44.1101 77.5312 44.2531 77.6251 44.3633C77.719 44.4735 77.8527 44.542 77.9971 44.5538L80.0218 44.7135C80.1663 44.7246 80.3092 44.678 80.4193 44.5839C80.5294 44.4897 80.5976 44.3557 80.609 44.2113C80.6204 44.0669 80.5741 43.9238 80.4801 43.8136C80.3861 43.7033 80.2522 43.6349 80.1079 43.6232Z" fill="#BBAA52"/>
<path d="M83.846 43.9182L81.8212 43.7585C81.6767 43.7473 81.5338 43.794 81.4237 43.8881C81.3136 43.9823 81.2454 44.1163 81.234 44.2607C81.2226 44.4051 81.269 44.5481 81.3629 44.6584C81.4569 44.7686 81.5908 44.8371 81.7352 44.8487L83.76 45.0085C83.9044 45.0196 84.0473 44.973 84.1574 44.8788C84.2675 44.7847 84.3358 44.6507 84.3471 44.5062C84.3585 44.3618 84.3122 44.2188 84.2182 44.1085C84.1242 43.9983 83.9904 43.9298 83.846 43.9182Z" fill="#BBAA52"/>
<path d="M80.2184 42.2214L78.1936 42.0617C78.0492 42.0505 77.9062 42.0972 77.7961 42.1913C77.686 42.2855 77.6178 42.4195 77.6064 42.5639C77.595 42.7083 77.6414 42.8513 77.7354 42.9616C77.8293 43.0719 77.9632 43.1403 78.1076 43.152L80.1324 43.3117C80.2768 43.3227 80.4196 43.276 80.5297 43.1819C80.6397 43.0877 80.7078 42.9538 80.7192 42.8094C80.7306 42.6651 80.6843 42.5221 80.5904 42.4119C80.4965 42.3016 80.3627 42.2331 80.2184 42.2214Z" fill="#BBAA52"/>
<path d="M83.9565 42.5163L81.9317 42.3566C81.7873 42.3455 81.6445 42.3922 81.5345 42.4864C81.4245 42.5805 81.3563 42.7145 81.3449 42.8588C81.3335 43.0032 81.3799 43.1461 81.4737 43.2564C81.5676 43.3666 81.7014 43.4351 81.8457 43.4468L83.8705 43.6066C84.0149 43.6176 84.1577 43.5709 84.2677 43.4768C84.3778 43.3826 84.4459 43.2487 84.4573 43.1043C84.4687 42.96 84.4224 42.817 84.3285 42.7068C84.2346 42.5965 84.1008 42.528 83.9565 42.5163Z" fill="#BBAA52"/>
<path d="M47.4825 33.8235L47.4565 34.1548L88.4602 37.3758L88.4862 37.0445L47.4825 33.8235Z" fill="white"/>
<path d="M89.0791 32.2109L89.0533 32.5414L87.6263 32.4295L72.4221 31.2352L72.4495 30.9043L87.6521 32.0989L89.0791 32.2109Z" fill="#3F3D56"/>
<path d="M38.9527 28.6985C38.9527 28.6985 36.733 38.0704 39.4459 38.0704C42.1589 38.0704 48.5712 27.4654 48.5712 27.4654L46.3515 24.7524L42.3675 30.2838L42.1588 27.4654L38.9527 28.6985Z" fill="#A0616A"/>
<path d="M47.9798 27.8727C49.1723 27.8727 50.1391 26.9059 50.1391 25.7133C50.1391 24.5207 49.1723 23.554 47.9798 23.554C46.7872 23.554 45.8204 24.5207 45.8204 25.7133C45.8204 26.9059 46.7872 27.8727 47.9798 27.8727Z" fill="#A0616A"/>
<path d="M44.4487 20.8062L42.969 19.3264C42.969 19.3264 40.0094 21.0528 39.7628 22.7792C39.5161 24.5056 38.283 29.9315 38.283 29.9315L42.8456 30.3014L44.3254 28.0818L44.4487 20.8062Z" fill="#E6E6E6"/>
</g>
<defs>
<clipPath id="clip0_135_2">
<rect width="150.22" height="97.4056" fill="white"/>
</clipPath>
</defs>
</svg>
