<svg width="101" height="119" viewBox="0 0 101 119" fill="none" xmlns="http://www.w3.org/2000/svg">
<g clip-path="url(#clip0_181_2)">
<path d="M97.7356 43.8602H3.17785C2.33532 43.8593 1.52758 43.5207 0.931818 42.9189C0.336058 42.3171 0.000934706 41.5012 -3.8147e-05 40.6501V3.21014C0.000934706 2.35906 0.336058 1.54312 0.931818 0.941312C1.52758 0.339507 2.33532 0.000982725 3.17785 0H97.7356C98.5781 0.000982725 99.3858 0.339507 99.9816 0.941312C100.577 1.54312 100.912 2.35906 100.913 3.21014V40.6501C100.912 41.5012 100.577 42.3171 99.9816 42.9189C99.3858 43.5207 98.5781 43.8593 97.7356 43.8602Z" fill="#F2F2F2"/>
<path d="M75.6826 41.8129H18.1875C13.903 41.808 9.79542 40.0866 6.76585 37.0263C3.73627 33.966 2.03214 29.8167 2.02731 25.4888V18.3733C2.03214 14.0454 3.73626 9.8961 6.76583 6.83577C9.7954 3.77543 13.903 2.05398 18.1875 2.04907H82.7265C87.011 2.05398 91.1186 3.77543 94.1482 6.83577C97.1777 9.8961 98.8819 14.0454 98.8867 18.3733C98.8797 24.5877 96.4328 30.5456 92.0827 34.9399C87.7326 39.3341 81.8346 41.8059 75.6826 41.8129Z" fill="white"/>
<path d="M60.8512 12.7669H22.8462C22.6289 12.7669 22.4204 12.6797 22.2667 12.5244C22.113 12.3691 22.0266 12.1586 22.0266 11.939C22.0266 11.7194 22.113 11.5088 22.2667 11.3536C22.4204 11.1983 22.6289 11.1111 22.8462 11.1111H60.8512C61.0686 11.1111 61.277 11.1983 61.4307 11.3536C61.5844 11.5088 61.6708 11.7194 61.6708 11.939C61.6708 12.1586 61.5844 12.3691 61.4307 12.5244C61.277 12.6797 61.0686 12.7669 60.8512 12.7669Z" fill="#E6E6E6"/>
<path d="M80.09 21.5999H22.8462C22.6289 21.5999 22.4204 21.5127 22.2667 21.3574C22.113 21.2021 22.0266 20.9916 22.0266 20.772C22.0266 20.5524 22.113 20.3418 22.2667 20.1866C22.4204 20.0313 22.6289 19.9441 22.8462 19.9441H80.09C80.3074 19.9441 80.5158 20.0313 80.6695 20.1866C80.8232 20.3418 80.9096 20.5524 80.9096 20.772C80.9096 20.9916 80.8232 21.2021 80.6695 21.3574C80.5158 21.5127 80.3074 21.5999 80.09 21.5999Z" fill="#E6E6E6"/>
<path d="M80.09 30.4331H22.8462C22.6289 30.4331 22.4204 30.3459 22.2667 30.1906C22.113 30.0354 22.0266 29.8248 22.0266 29.6052C22.0266 29.3857 22.113 29.1751 22.2667 29.0198C22.4204 28.8646 22.6289 28.7773 22.8462 28.7773H80.09C80.3074 28.7773 80.5158 28.8646 80.6695 29.0198C80.8232 29.1751 80.9096 29.3857 80.9096 29.6052C80.9096 29.8248 80.8232 30.0354 80.6695 30.1906C80.5158 30.3459 80.3074 30.4331 80.09 30.4331Z" fill="#E6E6E6"/>
<path d="M80.09 30.4331H22.8462C22.6289 30.4331 22.4204 30.3459 22.2667 30.1906C22.113 30.0354 22.0266 29.8248 22.0266 29.6052C22.0266 29.3857 22.113 29.1751 22.2667 29.0198C22.4204 28.8646 22.6289 28.7773 22.8462 28.7773H80.09C80.3074 28.7773 80.5158 28.8646 80.6695 29.0198C80.8232 29.1751 80.9096 29.3857 80.9096 29.6052C80.9096 29.8248 80.8232 30.0354 80.6695 30.1906C80.5158 30.3459 80.3074 30.4331 80.09 30.4331Z" fill="#E6E6E6"/>
<path d="M56.8407 22.6138C56.8498 22.8632 56.9129 23.1075 57.0256 23.3296C57.1383 23.5517 57.2979 23.7461 57.493 23.8991C57.6881 24.0522 57.9141 24.1601 58.155 24.2154C58.3959 24.2707 58.6459 24.272 58.8873 24.2191L62.0128 29.3986L63.3431 26.5472L60.1711 22.0658C60.0563 21.662 59.7988 21.3147 59.4475 21.0898C59.0962 20.8649 58.6754 20.778 58.2649 20.8456C57.8544 20.9131 57.4827 21.1304 57.2202 21.4563C56.9577 21.7823 56.8227 22.1941 56.8407 22.6138Z" fill="#FFB6B6"/>
<path d="M80.296 37.4581L69.5247 31.5562L66.1272 28.3363C66.1272 28.3363 64.6502 27.9369 65.1939 27.4518C65.7375 26.9666 64.1883 26.4988 64.1883 26.4988L62.3644 24.7703L59.7728 26.6226L60.5228 27.7971C60.5228 27.7971 60.4712 29.7414 61.5256 29.3674C62.5801 28.9933 62.3166 30.6058 62.3166 30.6058L68.6102 40.4608L80.296 37.4581Z" fill="#3F3D56"/>
<path d="M48.5004 31.8975C54.3109 31.8975 59.0213 27.1393 59.0213 21.2698C59.0213 15.4003 54.3109 10.6421 48.5004 10.6421C42.6898 10.6421 37.9794 15.4003 37.9794 21.2698C37.9794 27.1393 42.6898 31.8975 48.5004 31.8975Z" fill="#BBAA52"/>
<path d="M80.3293 114.868H78.1417L77.1007 106.344H80.3293V114.868Z" fill="#FFB6B6"/>
<path d="M81.484 118.697H79.9152L79.6351 117.201L78.918 118.697H74.7571C74.5577 118.697 74.3635 118.632 74.2028 118.513C74.0421 118.394 73.9235 118.225 73.8641 118.033C73.8048 117.841 73.8078 117.634 73.8729 117.444C73.9379 117.253 74.0615 117.089 74.2256 116.974L77.5484 114.656V113.144L81.0433 113.355L81.484 118.697Z" fill="#2F2E41"/>
<path d="M62.8331 114.868H60.6454L59.6044 106.344H62.8331V114.868Z" fill="#FFB6B6"/>
<path d="M63.9877 118.697H62.4189L62.1389 117.201L61.4217 118.697H57.2609C57.0614 118.697 56.8672 118.632 56.7065 118.513C56.5459 118.394 56.4272 118.225 56.3679 118.033C56.3085 117.841 56.3116 117.634 56.3766 117.444C56.4416 117.253 56.5653 117.089 56.7294 116.974L60.0521 114.656V113.144L63.547 113.355L63.9877 118.697Z" fill="#2F2E41"/>
<path d="M78.0082 50.406H66.9668V63.1037H78.0082V50.406Z" fill="#FFB6B6"/>
<path d="M67.2216 56.6692L65.3531 58.8999L62.1256 65.7635L53.9932 85.3093L52.2733 89.443L53.6623 96.7504C53.6623 96.7504 53.8871 101.899 53.8871 102.741C53.8871 104.457 55.3078 105.408 55.3078 105.408L56.3501 110.892L66.4572 110.463C66.4572 110.463 66.1046 104.418 63.9877 102.893C61.8708 101.369 60.8977 93.422 60.8977 93.422L59.7475 89.8963L70.9587 76.4717L71.031 81.1643L71.0661 83.4356C71.0661 83.4356 69.4243 98.2084 71.3381 101.075C73.2519 103.942 71.3771 103.605 71.3771 103.605L71.4683 109.519L83.4439 109.605L80.8019 92.5783C80.8019 92.5783 79.4604 91.5083 80.1781 90.4328C80.8959 89.3572 79.4825 88.0399 79.4825 88.0399L80.1164 74.7477C80.1164 74.7477 79.4145 72.4518 80.2401 72.1534C81.0657 71.8549 80.3485 69.8806 80.3485 69.8806L80.4712 67.3078L78.0081 59.3288L67.2216 56.6692Z" fill="#2F2E41"/>
<path d="M78.178 50.4061L79.3671 46.8027L80.2164 45.6016L80.5562 42.1697C80.5562 32.9039 78.5101 34.4468 78.5101 34.4468L77.3287 31.1879L71.893 31.0164L68.4107 34.3624L65.5229 35.3919L64.3921 41.3273L66.4572 47.6606L66.9668 51.0924C65.9947 52.9053 66.0769 52.0478 66.8819 53.4089L76.4794 56.0686C79.8767 57.2697 79.8767 54.1811 79.1954 53.4089C78.5142 52.6368 78.178 50.4061 78.178 50.4061Z" fill="#3F3D56"/>
<path d="M73.9086 29.8646C76.6916 29.8646 78.9477 27.5856 78.9477 24.7743C78.9477 21.9631 76.6916 19.6841 73.9086 19.6841C71.1256 19.6841 68.8695 21.9631 68.8695 24.7743C68.8695 27.5856 71.1256 29.8646 73.9086 29.8646Z" fill="#FFB6B6"/>
<path d="M80.636 31.5688C80.6835 31.6497 80.7122 31.7404 80.7202 31.8341C80.7282 31.9278 80.7151 32.0222 80.6819 32.1101C80.6488 32.198 80.5964 32.2772 80.5288 32.3418C80.4611 32.4064 80.3799 32.4548 80.2912 32.4833C79.6151 32.7098 79.1989 33.3705 78.7131 33.899C78.229 34.4258 77.4493 34.8633 76.831 34.5047C76.2144 34.1478 76.1719 33.2366 75.6555 32.7424C75.1527 32.262 74.3169 32.3203 73.7258 32.6858L73.7081 32.6968C73.6061 32.764 73.4868 32.7995 73.365 32.799C73.2432 32.7984 73.1242 32.7618 73.0228 32.6937C72.9213 32.6255 72.8419 32.5288 72.7943 32.4156C72.7467 32.3023 72.733 32.1775 72.7549 32.0564C72.962 30.9437 73.169 29.8311 73.3759 28.7186C72.8322 30.0417 72.0428 31.2473 71.0504 32.2706C70.777 32.5892 70.4306 32.8355 70.0414 32.9878C69.6881 33.1011 69.3449 32.7322 69.0018 32.7991C69.8545 32.0458 72.7219 27.2172 72.2089 23.9896C71.6059 24.0582 71.0028 24.1269 70.3998 24.1955C70.3346 23.9072 70.1951 23.6415 69.9955 23.4251C70.0199 23.7056 69.9846 23.9882 69.8919 24.2539C69.6405 24.283 69.3874 24.3105 69.136 24.3397C68.7861 24.3791 68.4056 24.4134 68.1049 24.2281C67.6038 23.9193 67.5885 23.1883 67.7312 22.6117C68.1491 20.9353 69.4163 19.5334 70.9672 18.799C72.5181 18.0663 72.9767 19.6981 74.6108 19.1765C77.8383 18.147 80.3115 19.9075 81.183 23.1746C81.9151 25.9149 81.3834 28.8233 80.636 31.5688Z" fill="#2F2E41"/>
<path d="M94.5866 118.807H88.4163L88.3898 118.759C88.3109 118.614 88.2347 118.461 88.1635 118.304C87.5279 116.929 87.2593 115.357 87.0223 113.97L86.8438 112.925C86.8222 112.798 86.8384 112.668 86.8905 112.551C86.9426 112.434 87.0282 112.335 87.1362 112.267C87.2442 112.199 87.3698 112.165 87.4969 112.17C87.624 112.175 87.7469 112.218 87.8497 112.293C88.7874 112.983 89.7255 113.671 90.6639 114.359C91.0193 114.62 91.4251 114.923 91.8137 115.249C91.8512 115.065 91.8905 114.881 91.9297 114.699C91.9567 114.573 92.0203 114.459 92.1122 114.37C92.2041 114.281 92.3202 114.222 92.4456 114.2C92.571 114.178 92.7 114.194 92.8161 114.247C92.9323 114.299 93.0302 114.386 93.0974 114.495L93.8194 115.667C94.3459 116.522 94.8107 117.365 94.716 118.275C94.7164 118.286 94.7156 118.297 94.7135 118.308C94.6946 118.457 94.6594 118.604 94.6088 118.745L94.5866 118.807Z" fill="#F0F0F0"/>
<path d="M100.78 118.942L42.1458 119C42.0873 119 42.0313 118.976 41.99 118.934C41.9487 118.892 41.9255 118.836 41.9255 118.776C41.9255 118.717 41.9487 118.661 41.99 118.619C42.0313 118.577 42.0873 118.553 42.1458 118.553L100.78 118.495C100.838 118.495 100.894 118.519 100.936 118.561C100.977 118.603 101 118.66 101 118.719C101 118.778 100.977 118.835 100.936 118.876C100.894 118.918 100.838 118.942 100.78 118.942Z" fill="#CACACA"/>
<path d="M47.544 35.574L41.0945 30.0722C40.874 29.8837 40.7366 29.6146 40.7124 29.3239C40.6881 29.0332 40.779 28.7446 40.9651 28.5215L42.1521 27.1016C42.3387 26.8789 42.6051 26.7401 42.8929 26.7156C43.1807 26.6911 43.4664 26.7829 43.6872 26.9709L50.1367 32.4727C50.3572 32.6612 50.4946 32.9303 50.5189 33.221C50.5432 33.5117 50.4523 33.8003 50.2662 34.0234L49.0791 35.4433C48.8925 35.666 48.6261 35.8048 48.3383 35.8293C48.0505 35.8538 47.7649 35.762 47.544 35.574Z" fill="#3F3D56"/>
<path d="M41.4329 28.6359C41.3327 28.7561 41.2837 28.9116 41.2968 29.0682C41.3098 29.2249 41.3839 29.3699 41.5027 29.4715L47.9522 34.9733C48.0712 35.0746 48.2251 35.1241 48.3802 35.1109C48.5353 35.0977 48.6789 35.0229 48.7794 34.9029L49.9665 33.483C50.0667 33.3628 50.1157 33.2073 50.1026 33.0506C50.0896 32.8939 50.0155 32.7489 49.8967 32.6473L43.4472 27.1455C43.3282 27.0442 43.1743 26.9948 43.0192 27.008C42.8641 27.0212 42.7205 27.096 42.62 27.216L41.4329 28.6359Z" fill="white"/>
<path d="M45.2192 30.7747C45.1968 30.8064 45.1674 30.8323 45.1334 30.8505C45.0994 30.8687 45.0616 30.8786 45.0231 30.8795L44.0098 30.903C43.9772 30.9037 43.9449 30.898 43.9145 30.8861C43.8841 30.8742 43.8564 30.8564 43.8328 30.8337C43.8093 30.811 43.7904 30.7838 43.7773 30.7537C43.7641 30.7236 43.7569 30.6912 43.7562 30.6583C43.7555 30.6254 43.7611 30.5927 43.7729 30.562C43.7847 30.5314 43.8023 30.5033 43.8248 30.4795C43.8473 30.4558 43.8742 30.4367 43.904 30.4234C43.9338 30.4101 43.9659 30.4029 43.9984 30.4021L44.6614 30.3867L44.0085 28.6466C43.9854 28.5845 43.9876 28.5157 44.0146 28.4552C44.0416 28.3948 44.0913 28.3476 44.1527 28.3241C44.2141 28.3006 44.2822 28.3027 44.3421 28.3298C44.402 28.357 44.4488 28.407 44.4722 28.469L45.2493 30.5403C45.2634 30.5777 45.2684 30.6181 45.2638 30.6579C45.2592 30.6977 45.2453 30.7358 45.2231 30.769L45.2192 30.7747Z" fill="#BBAA52"/>
<path d="M45.3492 31.212C45.5936 31.2483 45.8272 31.3382 46.0335 31.4755C46.2397 31.6128 46.4137 31.7942 46.5431 32.0068C46.6725 32.2193 46.7542 32.458 46.7824 32.7059C46.8106 32.9538 46.7846 33.205 46.7064 33.4417L51.4636 37.1434L48.5129 38.1691L44.4477 34.4966C44.0628 34.3374 43.7491 34.0412 43.566 33.6639C43.3828 33.2867 43.3431 32.8547 43.4542 32.4499C43.5653 32.045 43.8196 31.6954 44.1688 31.4672C44.5181 31.2391 44.9381 31.1483 45.3492 31.212Z" fill="#FFB6B6"/>
<path d="M70.1164 33.0422L57.9364 40.607C57.9364 40.607 53.0255 38.7716 53.9852 37.9219C54.945 37.0722 51.8897 36.4977 51.8897 36.4977L48.5145 34.2039L46.5559 36.5032C46.5559 36.5032 46.9128 40.238 47.52 39.5913C48.1272 38.9446 49.0348 40.7112 49.0348 40.7112C49.0348 40.7112 49.303 42.6837 51.0315 42.1873C52.76 41.6909 57.3981 46.894 57.3981 46.894L72.3881 41.2466L70.1164 33.0422Z" fill="#3F3D56"/>
<path d="M48.1304 25.5331C47.9892 25.5331 47.8499 25.4999 47.7237 25.4361C47.5974 25.3723 47.4875 25.2796 47.4028 25.1655L45.1721 22.1609C45.1004 22.0644 45.0483 21.9546 45.0186 21.8377C44.989 21.7208 44.9824 21.5992 44.9993 21.4797C45.0162 21.3603 45.0562 21.2454 45.1171 21.1416C45.178 21.0378 45.2585 20.9471 45.354 20.8747C45.547 20.7285 45.7896 20.6657 46.0284 20.7002C46.1466 20.7172 46.2604 20.7577 46.3631 20.8191C46.4659 20.8806 46.5557 20.9619 46.6274 21.0585L48.0868 23.024L51.8352 17.3444C51.969 17.1417 52.1771 17.0009 52.4136 16.9531C52.6502 16.9054 52.8958 16.9544 53.0965 17.0896C53.2973 17.2248 53.4366 17.435 53.4839 17.6739C53.5312 17.9129 53.4826 18.161 53.3488 18.3638L48.8873 25.1239C48.8066 25.2462 48.698 25.3471 48.5708 25.4183C48.4435 25.4894 48.3011 25.5287 48.1557 25.5328C48.1473 25.533 48.1388 25.5331 48.1304 25.5331Z" fill="white"/>
</g>
<defs>
<clipPath id="clip0_181_2">
<rect width="101" height="119" fill="white"/>
</clipPath>
</defs>
</svg>
