<svg width="25" height="22" viewBox="0 0 25 22" fill="none" xmlns="http://www.w3.org/2000/svg">
<path d="M20.9369 6.02199L20.5638 6.75H21.3818H23.4375C24.0256 6.75 24.5 7.22438 24.5 7.8125V11.7188C24.5 11.8723 24.3723 12 24.2188 12H0.78125C0.627705 12 0.5 11.8723 0.5 11.7188V7.8125C0.5 7.22438 0.974384 6.75 1.5625 6.75H3.71582H4.53986L4.15931 6.01909C3.88404 5.49041 3.72266 4.91475 3.72266 4.29688C3.72266 2.20485 5.42751 0.5 7.51953 0.5C8.43691 0.5 9.17348 0.730944 9.88029 1.21847C10.6037 1.71742 11.3137 2.49723 12.1458 3.63083L12.5488 4.17993L12.9519 3.63083C13.784 2.49723 14.494 1.71742 15.2174 1.21847C15.9242 0.730944 16.6607 0.5 17.5781 0.5C19.6701 0.5 21.375 2.20485 21.375 4.29688C21.375 4.91267 21.2098 5.48926 20.9369 6.02199ZM11.7188 6.75H12.4357H12.6567H13.374H17.5781C18.9334 6.75 20.0312 5.65212 20.0312 4.29688C20.0312 2.94163 18.9334 1.84375 17.5781 1.84375C17.317 1.84375 17.0262 1.85389 16.7085 1.95042C16.3872 2.04809 16.0702 2.22372 15.724 2.51169C15.0504 3.07187 14.214 4.1033 12.959 5.97115L12.5462 6.58546L12.1339 5.97128C10.8757 4.09755 10.0331 3.06609 9.3566 2.50703C9.00912 2.21989 8.69206 2.04556 8.3727 1.94889C8.05676 1.85325 7.76945 1.84375 7.51465 1.84375C6.1594 1.84375 5.06152 2.94163 5.06152 4.29688C5.06152 5.65212 6.1594 6.75 7.51465 6.75H11.7188ZM3.125 21.375C2.53688 21.375 2.0625 20.9006 2.0625 20.3125V14.5625H10.4375V21.375H3.125ZM21.875 21.375H14.5625V14.5625H22.9375V20.3125C22.9375 20.9006 22.4631 21.375 21.875 21.375Z" fill="white" stroke="#A38E23"/>
</svg>
