<svg width="101" height="72" viewBox="0 0 101 72" fill="none" xmlns="http://www.w3.org/2000/svg">
<g clip-path="url(#clip0_50_171)">
<path d="M74.1021 0.041626H0.0315933V47.1204H74.1021V0.041626Z" fill="#E6E6E6"/>
<path d="M71.984 5.94641H2.14965V44.3351H71.984V5.94641Z" fill="white"/>
<path d="M74.0705 0H0V3.12293H74.0705V0Z" fill="#A38E23"/>
<path d="M2.33852 2.17555C2.66066 2.17555 2.9218 1.91638 2.9218 1.59669C2.9218 1.27699 2.66066 1.01782 2.33852 1.01782C2.01639 1.01782 1.75524 1.27699 1.75524 1.59669C1.75524 1.91638 2.01639 2.17555 2.33852 2.17555Z" fill="white"/>
<path d="M4.55228 2.17555C4.87442 2.17555 5.13556 1.91638 5.13556 1.59669C5.13556 1.27699 4.87442 1.01782 4.55228 1.01782C4.23015 1.01782 3.969 1.27699 3.969 1.59669C3.969 1.91638 4.23015 2.17555 4.55228 2.17555Z" fill="white"/>
<path d="M6.76604 2.17555C7.08817 2.17555 7.34932 1.91638 7.34932 1.59669C7.34932 1.27699 7.08817 1.01782 6.76604 1.01782C6.4439 1.01782 6.18275 1.27699 6.18275 1.59669C6.18275 1.91638 6.4439 2.17555 6.76604 2.17555Z" fill="white"/>
<path d="M24.4005 9.104H10.7419V23.8101H24.4005V9.104Z" fill="#E6E6E6"/>
<path d="M43.896 9.104H30.2374V23.8101H43.896V9.104Z" fill="#E6E6E6"/>
<path d="M63.3914 9.104H49.7328V23.8101H63.3914V9.104Z" fill="#E6E6E6"/>
<path d="M24.4005 26.472H10.7419V41.1782H24.4005V26.472Z" fill="#E6E6E6"/>
<path d="M43.896 26.472H30.2374V41.1782H43.896V26.472Z" fill="#E6E6E6"/>
<path d="M63.3914 26.472H49.7328V41.1782H63.3914V26.472Z" fill="#E6E6E6"/>
<path d="M33.5387 30.2515L36.0343 29.2723L36.3245 34.1681C36.3245 34.1681 36.8468 35.6656 36.6727 36.2416C36.6727 36.2416 36.7888 37.2208 36.4986 37.2784C36.2083 37.336 35.3956 37.4512 35.3382 37.3935C35.2808 37.3359 35.2802 37.1631 35.2802 37.1631C35.2802 37.1631 34.6998 37.5663 34.6417 38.027C34.6417 38.027 32.2042 38.7758 32.1462 38.0846C32.0882 37.3934 33.3649 36.8174 33.3649 36.8174L34.3515 35.3199L33.5387 30.2515Z" fill="white"/>
<path d="M38.8203 30.2515L41.3155 29.2723L41.6058 34.1681C41.6058 34.1681 42.128 35.6656 41.954 36.2416C41.954 36.2416 42.07 37.2208 41.7798 37.2784C41.4896 37.336 40.6769 37.4512 40.6194 37.3935C40.562 37.3359 40.5614 37.1631 40.5614 37.1631C40.5614 37.1631 39.981 37.5663 39.923 38.027C39.923 38.027 37.4854 38.7758 37.4274 38.0846C37.3694 37.3934 38.6461 36.8174 38.6461 36.8174L39.6328 35.3199L38.8203 30.2515Z" fill="white"/>
<path d="M39.0641 11.3459C39.0641 11.3459 38.5327 12.8194 39.1484 13.4839L38.6351 15.2344C38.6351 15.2344 40.4588 20.6642 39.9378 21.4226C39.9378 21.4226 37.9925 22.3879 34.1015 21.0778L35.682 14.9931L35.4563 12.4247L35.7689 11.2181L36.4636 11.1497C36.4636 11.1497 36.0468 12.701 36.811 12.9423C37.5753 13.1837 38.3208 11.1884 38.3208 11.1884L39.0641 11.3459Z" fill="#3F3D56"/>
<path d="M14.5241 20.8579L15.1947 21.1302L18.3952 16.9557L19.4011 21.8561L20.0717 21.7352C20.5018 17.5103 20.8529 13.201 20.4222 11.1628L17.938 11.0569L16.8103 14.6269L16.2616 17.0469L14.5241 20.8579Z" fill="white"/>
<path d="M55.2236 11.1294C55.2236 11.1294 54.3084 12.392 54.3531 12.9016C54.3978 13.4111 54.9781 21.7182 54.9781 21.7182L56.3398 21.7846L55.9377 15.8035L56.2724 14.1864L57.0984 21.7182L58.7725 21.7625L57.277 11.9934L56.9868 11.1295L55.2236 11.1294Z" fill="white"/>
<path d="M60.3961 31.4708C60.1531 31.1814 59.7354 31.025 59.3343 30.9404C59.3458 30.9042 58.1144 30.6517 58.0935 30.7037L57.6293 30.3367L56.2027 31.0717L55.4011 30.5302L55.0288 30.6613C55.044 30.5961 53.8729 30.7974 53.8729 30.7974C53.6492 30.8054 53.3635 30.8193 53.0437 30.8437C51.9236 30.9292 51.8373 33.8081 51.8373 33.8081C52.3527 33.5989 52.9021 33.4848 53.4587 33.4712L53.7615 36.9145C55.3185 36.7821 56.9515 36.9362 58.6442 37.3136L59.4379 34.6068L61.2863 33.8934C61.2863 33.8934 60.9705 32.1548 60.3961 31.4708Z" fill="#3F3D56"/>
<path d="M20.7303 29.8311C20.5301 29.5927 20.186 29.4637 19.8554 29.3941C19.8653 29.3642 18.8503 29.1562 18.833 29.1991L18.4504 28.8967L17.2752 29.5024L16.6147 29.0562L16.308 29.1643C16.3205 29.1106 15.3556 29.2764 15.3556 29.2764C15.1717 29.283 14.9358 29.2944 14.6723 29.3146C13.7494 29.3851 13.6784 31.757 13.6784 31.757C14.1031 31.5846 14.5558 31.4905 15.0145 31.4793L15.2639 38.4246C16.5468 38.3153 17.8924 38.4425 19.2866 38.7534L19.9406 32.4152L21.4636 31.8274C21.4636 31.8274 21.2035 30.3949 20.7303 29.8311Z" fill="white"/>
<path d="M86.102 31.6798H92.6506V28.2022C92.6506 27.3404 92.3056 26.5139 91.6916 25.9045C91.0775 25.2951 90.2447 24.9528 89.3763 24.9528C88.5079 24.9528 87.6751 25.2951 87.0611 25.9045C86.447 26.5139 86.102 27.3404 86.102 28.2022V31.6798Z" fill="#2F2E41"/>
<path d="M83.1787 70.3707H81.7703L81.1002 64.9786H83.179L83.1787 70.3707Z" fill="#FFB6B6"/>
<path d="M83.538 69.9143H80.764C80.2953 69.9143 79.8457 70.0992 79.5142 70.4281C79.1827 70.7571 78.9965 71.2032 78.9964 71.6685V71.7255H83.538V69.9143Z" fill="#2F2E41"/>
<path d="M100.016 68.5053L98.7893 69.1925L95.5348 64.8244L97.3451 63.8102L100.016 68.5053Z" fill="#FFB6B6"/>
<path d="M100.103 67.9326L97.6871 69.2855C97.2789 69.5143 96.9789 69.8946 96.8532 70.3429C96.7275 70.7911 96.7864 71.2705 97.0169 71.6757L97.0451 71.7253L101 69.5096L100.103 67.9326Z" fill="#2F2E41"/>
<path d="M91.014 46.1226L91.1227 46.6619C91.1227 46.6619 91.4488 46.9855 91.2857 47.1473C91.1227 47.3091 91.1771 48.0642 91.1771 48.0642C91.2683 49.4411 93.0811 57.1782 93.4053 58.6893C93.4053 58.6893 95.9052 60.3073 97.8616 63.4894C99.818 66.6715 99.8722 67.4806 99.8722 67.4806L97.6987 68.3976L92.2646 61.8715C92.2646 61.8715 90.7429 60.9546 90.1994 60.1457C89.6558 59.3367 86.2859 50.9766 86.2859 50.9766L84.3833 59.7141C84.3833 59.7141 84.492 62.8962 84.0029 64.9458C83.7022 66.2392 83.5203 67.557 83.4595 68.883L80.9052 68.6134C80.9052 68.6134 81.0683 60.9546 81.34 60.1456C81.34 60.1456 80.1987 50.8149 82.4813 47.0933L84.3208 42.2263L86.1225 41.5381L91.014 46.1226Z" fill="#2F2E41"/>
<path d="M89.4101 25.8029C85.9811 25.861 85.9816 30.923 89.4101 30.9806C92.8389 30.9225 92.8384 25.8604 89.4101 25.8029Z" fill="#FFB8B8"/>
<path d="M86.771 28.2574H87.3538L87.5125 27.8636L87.4331 28.2574H90.6207L90.5173 27.4334L91.2921 28.2574H92.0649V27.811C92.0651 27.466 91.9969 27.1244 91.8642 26.8056C91.7314 26.4868 91.5366 26.1971 91.291 25.953C91.0454 25.7089 90.7538 25.5153 90.4327 25.383C90.1117 25.2508 89.7676 25.1826 89.42 25.1824C89.0724 25.1821 88.7282 25.2498 88.407 25.3816C88.0858 25.5134 87.7939 25.7067 87.5479 25.9504C87.302 26.1942 87.1068 26.4836 86.9736 26.8022C86.8403 27.1208 86.7716 27.4623 86.7714 27.8072V27.811L86.771 28.2574Z" fill="#2F2E41"/>
<path d="M85.8741 32.4922L92.3537 32.5443L90.9847 46.3309C90.9847 46.3309 83.4069 45.934 83.4022 43.6385L84.1121 41.5986L85.8741 32.4922Z" fill="#3F3D56"/>
<path d="M92.6322 47.6636C92.5326 47.5426 92.461 47.4013 92.4223 47.2498C92.3837 47.0983 92.379 46.9402 92.4086 46.7867C92.4381 46.6332 92.5013 46.488 92.5935 46.3613C92.6857 46.2346 92.8048 46.1296 92.9424 46.0535L92.6608 43.6264L94.1053 43.0968L94.4544 46.53C94.5672 46.7677 94.5882 47.0383 94.5136 47.2904C94.439 47.5425 94.274 47.7588 94.0496 47.8984C93.8253 48.0379 93.5572 48.0911 93.2961 48.0479C93.0349 48.0046 92.7987 47.8679 92.6322 47.6636Z" fill="#FFB6B6"/>
<path d="M91.5017 33.7321L92.3543 32.5494C92.3543 32.5494 92.9378 32.4209 93.6271 33.219C94.3164 34.0171 94.7186 43.9936 94.7186 43.9936L92.191 44.5637L90.6975 37.4946L91.5017 33.7321Z" fill="#3F3D56"/>
<path d="M77.2195 44.5509L77.4075 53.4142L83.1892 56.4465L93.7183 54.5805L93.977 45.3672L87.3021 43.0347L77.2195 44.5509Z" fill="white"/>
<path d="M83.1741 56.5422L77.3164 53.47L77.1255 44.4723L87.3111 42.9407L87.3328 42.9482L94.0711 45.3029L93.8086 54.6575L83.1741 56.5422ZM77.4987 53.3583L83.2042 56.3507L93.6282 54.5033L93.8828 45.4314L87.2932 43.1287L77.3135 44.6293L77.4987 53.3583Z" fill="#CACACA"/>
<path d="M83.0602 46.954L83.0375 46.9451L77.1854 44.6359L77.2536 44.4657L83.0831 46.7659L93.9643 45.2765L93.9896 45.458L83.0602 46.954Z" fill="#CACACA"/>
<path d="M83.164 46.8589L82.9793 46.8611L83.0968 56.4476L83.2815 56.4453L83.164 46.8589Z" fill="#CACACA"/>
<path d="M82.3206 46.4952L80.2111 45.6465L90.3665 44.0405L92.4761 44.8892L82.3206 46.4952Z" fill="#CACACA"/>
<path d="M77.256 47.1221L77.183 47.2904L79.6297 48.3359L79.7027 48.1675L77.256 47.1221Z" fill="#CACACA"/>
<path d="M78.3639 50.1458L78.2909 50.3141L80.7376 51.3595L80.8106 51.1912L78.3639 50.1458Z" fill="#A38E23"/>
<path d="M45.0512 56.8647L45.2392 65.7281L51.0208 68.7603L61.55 66.8943L61.8086 57.6811L55.1338 55.3485L45.0512 56.8647Z" fill="white"/>
<path d="M51.0058 68.8561L45.148 65.784L44.9571 56.7862L55.1428 55.2546L55.1645 55.2622L61.9028 57.6169L61.6403 66.9715L51.0058 68.8561ZM45.3303 65.6723L51.0359 68.6646L61.4599 66.8173L61.7144 57.7454L55.1249 55.4426L45.1452 56.9433L45.3303 65.6723Z" fill="#CACACA"/>
<path d="M50.8918 59.2678L50.8692 59.259L45.0171 56.9498L45.0852 56.7795L50.9148 59.0797L61.796 57.5903L61.8213 57.7718L50.8918 59.2678Z" fill="#CACACA"/>
<path d="M50.9957 59.1727L50.811 59.1749L50.9285 68.7614L51.1132 68.7592L50.9957 59.1727Z" fill="#CACACA"/>
<path d="M49.6413 58.6004L48.0427 57.9603L58.1982 56.3544L59.7966 56.9945L49.6413 58.6004Z" fill="#CACACA"/>
<path d="M45.0877 59.4359L45.0146 59.6042L47.4613 60.6497L47.5343 60.4814L45.0877 59.4359Z" fill="#CACACA"/>
<path d="M46.1956 62.4596L46.1226 62.6279L48.5692 63.6734L48.6423 63.5051L46.1956 62.4596Z" fill="#A38E23"/>
<path d="M55.0955 58.0799L55.3138 68.3689L62.0254 71.8889L74.2481 69.7228L74.5482 59.0276L66.7999 56.3199L55.0955 58.0799Z" fill="#A38E23"/>
<path d="M62.0079 71.9999L55.208 68.4337L54.9864 57.9888L66.8103 56.2108L66.8355 56.2196L74.6575 58.953L74.3528 69.8122L62.0079 71.9999ZM55.4196 68.3041L62.0428 71.7777L74.1434 69.6332L74.4389 59.1022L66.7895 56.4291L55.2046 58.1711L55.4196 68.3041Z" fill="#3F3D56"/>
<path d="M61.8756 60.8697L61.8494 60.8593L55.0559 58.1788L55.1351 57.9811L61.9023 60.6512L74.5335 58.9223L74.5628 59.133L61.8756 60.8697Z" fill="#3F3D56"/>
<path d="M61.9961 60.7593L61.7818 60.7618L61.9182 71.8902L62.1325 71.8876L61.9961 60.7593Z" fill="#3F3D56"/>
<path d="M60.5326 60.0998L58.5682 59.352L70.357 57.4877L72.3215 58.2355L60.5326 60.0998Z" fill="#3F3D56"/>
<path d="M55.1379 61.0646L55.0531 61.26L57.8933 62.4736L57.9781 62.2782L55.1379 61.0646Z" fill="#3F3D56"/>
<path d="M56.424 64.5748L56.3392 64.7701L59.1794 65.9837L59.2642 65.7883L56.424 64.5748Z" fill="white"/>
<path d="M80.4976 46.0164C80.6402 45.95 80.7663 45.8534 80.8672 45.7334C80.968 45.6134 81.0411 45.4729 81.0814 45.3218C81.1216 45.1707 81.128 45.0127 81.1 44.8589C81.0721 44.7051 81.0105 44.5592 80.9196 44.4316L82.2318 42.3645L81.1606 41.2667L79.3487 44.2117C79.1429 44.3775 79.0055 44.6125 78.9625 44.8721C78.9195 45.1317 78.974 45.398 79.1156 45.6204C79.2572 45.8429 79.4761 46.006 79.7308 46.079C79.9855 46.1521 80.2583 46.1298 80.4976 46.0166V46.0164Z" fill="#FFB6B6"/>
<path d="M86.8698 33.0357L85.9297 32.4209C85.9297 32.4209 85.2042 32.5823 84.4326 34.0552C83.661 35.5281 80.5494 42.113 80.5494 42.113L81.8285 43.4014L85.2406 38.2354L86.8698 33.0357Z" fill="#3F3D56"/>
</g>
<defs>
<clipPath id="clip0_50_171">
<rect width="101" height="72" fill="white"/>
</clipPath>
</defs>
</svg>
