<svg width="48" height="48" viewBox="0 0 48 48" fill="none" xmlns="http://www.w3.org/2000/svg">
<path d="M30.9662 7.00375L34.3451 10.3933L26.1865 18.5733V7.00375H30.9662ZM13.6012 10.3933L21.7597 18.5733V7.00375H16.9801L13.6012 10.3933ZM18.0386 5.94517H22.8183V19.6212L23.9731 20.776L25.1279 19.6212V5.94517H29.9076L23.9731 0L18.0386 5.94517ZM20.8401 23.9197L19.6853 22.7649H5.93447V17.9745L0 23.9197L5.93447 29.8648V25.0745H19.6853L20.8401 23.9197ZM29.3195 21.7063H40.8569V16.9159L37.478 13.5263L29.3195 21.7063ZM47.85 23.9197L41.9155 17.9745V22.7649H28.2609L27.1061 23.9197L28.2609 25.0745H41.9155V29.8648L47.85 23.9197ZM6.99305 15.4189L10.4682 12.0293L20.1237 21.7063H21.7597V20.0703L12.1042 10.3933L15.4831 7.00375H6.99305V15.4189ZM40.8569 7.00375H32.4632L35.8421 10.3933L26.1865 20.0703V21.7063H27.8225L37.478 12.0293L40.8569 15.4189V7.00375ZM21.7597 40.8356V29.2767L13.6012 37.4567L16.9801 40.8463H21.7597V40.8356ZM6.99305 21.7063H18.6267L10.4682 13.5263L6.99305 16.9159V21.7063ZM40.8569 32.4204L37.478 35.81L27.8225 26.1331H26.1865V27.7691L35.8421 37.446L32.4632 40.8356H40.8569V32.4204ZM40.8569 26.1331H29.3195L37.478 34.313L40.8569 30.9234V26.1331ZM34.3451 37.446L26.1865 29.266V40.8249H30.9662L34.3451 37.446ZM10.4682 34.313L18.6267 26.1331H6.99305V30.9234L10.4682 34.313ZM29.9076 41.8942H25.1279V28.2182L23.9731 27.0633L22.8183 28.2182V41.8942H18.0386L23.9731 47.8393L29.9076 41.8942ZM12.1042 37.446L21.7597 27.7691V26.1331H20.1237L10.4682 35.81L6.99305 32.4204V40.8356H15.4831L12.1042 37.446Z" fill="#A38E23"/>
</svg>
