<svg width="21" height="24" viewBox="0 0 21 24" fill="none" xmlns="http://www.w3.org/2000/svg">
<path d="M16.4057 14.9145C15.352 14.9145 14.3836 15.2789 13.6191 15.8883L8.84249 12.903C8.98395 12.2631 8.98395 11.6001 8.84249 10.9602L13.6191 7.97486C14.3836 8.58434 15.352 8.94876 16.4057 8.94876C18.8768 8.94876 20.88 6.94554 20.88 4.47447C20.88 2.00341 18.8768 0.000183105 16.4057 0.000183105C13.9346 0.000183105 11.9314 2.00341 11.9314 4.47447C11.9314 4.80808 11.9682 5.13303 12.0375 5.44581L7.26093 8.43119C6.49643 7.82175 5.52798 7.45733 4.47429 7.45733C2.00322 7.45733 0 9.46055 0 11.9316C0 14.4027 2.00322 16.4059 4.47429 16.4059C5.52798 16.4059 6.49643 16.0415 7.26093 15.432L12.0375 18.4174C11.9669 18.7364 11.9313 19.0621 11.9314 19.3888C11.9314 21.8598 13.9346 23.8631 16.4057 23.8631C18.8768 23.8631 20.88 21.8598 20.88 19.3888C20.88 16.9177 18.8768 14.9145 16.4057 14.9145Z" fill="#A38E23"/>
</svg>
