<svg width="161" height="161" viewBox="0 0 161 161" fill="none" xmlns="http://www.w3.org/2000/svg">
<path d="M161 123.133H0V123.213H161V123.133Z" fill="#EBEBEB"/>
<path d="M144.868 128.314H134.203V128.394H144.868V128.314Z" fill="#EBEBEB"/>
<path d="M106.653 129.19H103.855V129.27H106.653V129.19Z" fill="#EBEBEB"/>
<path d="M133.881 125.326H127.702V125.406H133.881V125.326Z" fill="#EBEBEB"/>
<path d="M30.7993 125.867H16.8921V125.947H30.7993V125.867Z" fill="#EBEBEB"/>
<path d="M35.7065 125.867H33.6682V125.947H35.7065V125.867Z" fill="#EBEBEB"/>
<path d="M72.4982 127.225H42.3333V127.306H72.4982V127.225Z" fill="#EBEBEB"/>
<path d="M97.0024 72.5209H129.08V37.0461L97.0024 37.0461V72.5209Z" fill="#E0E0E0"/>
<path d="M95.9785 72.5209H129.248V37.0461L95.9785 37.0461V72.5209Z" fill="#F0F0F0"/>
<path d="M97.389 70.8915H127.895V38.1763L97.389 38.1763V70.8915Z" fill="white"/>
<path d="M97.3858 70.8915H98.2681V38.1763H97.3858V70.8915Z" fill="#E0E0E0"/>
<path d="M98.1746 61.7016V62.5839H127.972V61.7016H98.1746Z" fill="#E0E0E0"/>
<path d="M97.389 61.7017L128.369 61.7017V60.2205L97.389 60.2205V61.7017Z" fill="#F0F0F0"/>
<path d="M63.2584 46.1728C66.7288 45.1217 68.6901 41.4563 67.639 37.986C66.5879 34.5156 62.9225 32.5543 59.4522 33.6054C55.9818 34.6565 54.0205 38.3219 55.0716 41.7922C56.1227 45.2626 59.7881 47.2239 63.2584 46.1728Z" fill="#E0E0E0"/>
<path d="M62.2486 45.4038C65.2924 44.9097 67.3594 42.0417 66.8653 38.9979C66.3712 35.954 63.5032 33.8871 60.4593 34.3811C57.4155 34.8752 55.3485 37.7433 55.8426 40.7871C56.3367 43.8309 59.2047 45.8979 62.2486 45.4038Z" fill="#F0F0F0"/>
<path d="M61.093 43.7244V39.8218L58.5042 41.2869" fill="#F0F0F0"/>
<path d="M61.0931 44.0045C61.0563 44.0045 61.0199 43.9972 60.9859 43.9831C60.9519 43.9691 60.9211 43.9484 60.895 43.9224C60.869 43.8964 60.8484 43.8655 60.8343 43.8315C60.8202 43.7975 60.813 43.7611 60.813 43.7243V40.3015L58.6427 41.5379C58.6108 41.5562 58.5757 41.5679 58.5392 41.5725C58.5028 41.577 58.4658 41.5742 58.4305 41.5643C58.3951 41.5544 58.3621 41.5376 58.3333 41.5149C58.3045 41.4921 58.2805 41.4638 58.2627 41.4317C58.2268 41.3671 58.2177 41.291 58.2376 41.2198C58.2575 41.1487 58.3048 41.0882 58.369 41.0517L60.945 39.5898C60.9873 39.5661 61.035 39.5537 61.0835 39.5537C61.132 39.5537 61.1796 39.5661 61.2219 39.5898C61.2643 39.6143 61.2994 39.6495 61.3237 39.6919C61.348 39.7343 61.3607 39.7824 61.3604 39.8313V43.734C61.358 43.8044 61.3292 43.8714 61.2797 43.9215C61.2301 43.9716 61.1635 44.0013 61.0931 44.0045Z" fill="#E0E0E0"/>
<path d="M31.0343 120.38H24.0791V123.13H31.0343V120.38Z" fill="#F5F5F5"/>
<path d="M23.4674 120.38H20.2957V123.13H23.4674V120.38Z" fill="#F5F5F5"/>
<path d="M38.5948 120.38H31.6396V123.13H38.5948V120.38Z" fill="#F5F5F5"/>
<path d="M46.1588 120.38H39.2036V123.13H46.1588V120.38Z" fill="#F5F5F5"/>
<path d="M53.7225 120.38H46.7673V123.13H53.7225V120.38Z" fill="#F5F5F5"/>
<path d="M61.2831 120.38H54.3279V123.13H61.2831V120.38Z" fill="#F5F5F5"/>
<path d="M68.8468 120.38H61.8916V123.13H68.8468V120.38Z" fill="#F5F5F5"/>
<path d="M76.4105 120.38H69.4553V123.13H76.4105V120.38Z" fill="#F5F5F5"/>
<path d="M83.9711 120.38H77.0159V123.13H83.9711V120.38Z" fill="#F5F5F5"/>
<path d="M91.535 120.38H84.5798V123.13H91.535V120.38Z" fill="#F5F5F5"/>
<path d="M99.0988 120.38H92.1436V123.13H99.0988V120.38Z" fill="#F5F5F5"/>
<path d="M106.659 120.38H99.7041V123.13H106.659V120.38Z" fill="#F5F5F5"/>
<path d="M114.223 120.38H107.268V123.13H114.223V120.38Z" fill="#F5F5F5"/>
<path d="M121.787 120.38H114.832V123.13H121.787V120.38Z" fill="#F5F5F5"/>
<path d="M129.347 120.38H122.392V123.13H129.347V120.38Z" fill="#F5F5F5"/>
<path d="M136.911 120.38H129.956V123.13H136.911V120.38Z" fill="#F5F5F5"/>
<path d="M140.691 120.38H137.52V123.13H140.691V120.38Z" fill="#F5F5F5"/>
<path d="M27.2509 116.934H20.2957V119.684H27.2509V116.934Z" fill="#F5F5F5"/>
<path d="M34.8146 116.934H27.8594V119.684H34.8146V116.934Z" fill="#F5F5F5"/>
<path d="M42.3785 116.934H35.4233V119.684H42.3785V116.934Z" fill="#F5F5F5"/>
<path d="M49.9391 116.934H42.9839V119.684H49.9391V116.934Z" fill="#F5F5F5"/>
<path d="M57.5028 116.934H50.5476V119.684H57.5028V116.934Z" fill="#F5F5F5"/>
<path d="M65.0665 116.934H58.1113V119.684H65.0665V116.934Z" fill="#F5F5F5"/>
<path d="M72.6271 116.934H65.6719V119.684H72.6271V116.934Z" fill="#F5F5F5"/>
<path d="M80.1908 116.934H73.2356V119.684H80.1908V116.934Z" fill="#F5F5F5"/>
<path d="M87.7548 116.934H80.7996V119.684H87.7548V116.934Z" fill="#F5F5F5"/>
<path d="M95.3153 116.934H88.3601V119.684H95.3153V116.934Z" fill="#F5F5F5"/>
<path d="M102.879 116.934H95.9238V119.684H102.879V116.934Z" fill="#F5F5F5"/>
<path d="M110.443 116.934H103.488V119.684H110.443V116.934Z" fill="#F5F5F5"/>
<path d="M118.003 116.934H111.048V119.684H118.003V116.934Z" fill="#F5F5F5"/>
<path d="M125.567 116.934H118.612V119.684H125.567V116.934Z" fill="#F5F5F5"/>
<path d="M133.131 116.934H126.176V119.684H133.131V116.934Z" fill="#F5F5F5"/>
<path d="M140.692 116.934H133.736V119.684H140.692V116.934Z" fill="#F5F5F5"/>
<path d="M31.0343 113.489H24.0791V116.239H31.0343V113.489Z" fill="#F5F5F5"/>
<path d="M23.4674 113.489H20.2957V116.239H23.4674V113.489Z" fill="#F5F5F5"/>
<path d="M38.5948 113.489H31.6396V116.239H38.5948V113.489Z" fill="#F5F5F5"/>
<path d="M46.1588 113.489H39.2036V116.239H46.1588V113.489Z" fill="#F5F5F5"/>
<path d="M53.7225 113.489H46.7673V116.239H53.7225V113.489Z" fill="#F5F5F5"/>
<path d="M61.2831 113.489H54.3279V116.239H61.2831V113.489Z" fill="#F5F5F5"/>
<path d="M68.8468 113.489H61.8916V116.239H68.8468V113.489Z" fill="#F5F5F5"/>
<path d="M76.4105 113.489H69.4553V116.239H76.4105V113.489Z" fill="#F5F5F5"/>
<path d="M83.9711 113.489H77.0159V116.239H83.9711V113.489Z" fill="#F5F5F5"/>
<path d="M91.535 113.489H84.5798V116.239H91.535V113.489Z" fill="#F5F5F5"/>
<path d="M99.0988 113.489H92.1436V116.239H99.0988V113.489Z" fill="#F5F5F5"/>
<path d="M106.659 113.489H99.7041V116.239H106.659V113.489Z" fill="#F5F5F5"/>
<path d="M114.223 113.489H107.268V116.239H114.223V113.489Z" fill="#F5F5F5"/>
<path d="M121.787 113.489H114.832V116.239H121.787V113.489Z" fill="#F5F5F5"/>
<path d="M129.347 113.489H122.392V116.239H129.347V113.489Z" fill="#F5F5F5"/>
<path d="M136.911 113.489H129.956V116.239H136.911V113.489Z" fill="#F5F5F5"/>
<path d="M140.691 113.489H137.52V116.239H140.691V113.489Z" fill="#F5F5F5"/>
<path d="M27.2509 110.043H20.2957V112.793H27.2509V110.043Z" fill="#F5F5F5"/>
<path d="M34.8146 110.043H27.8594V112.793H34.8146V110.043Z" fill="#F5F5F5"/>
<path d="M42.3785 110.043H35.4233V112.793H42.3785V110.043Z" fill="#F5F5F5"/>
<path d="M49.9391 110.043H42.9839V112.793H49.9391V110.043Z" fill="#F5F5F5"/>
<path d="M57.5028 110.043H50.5476V112.793H57.5028V110.043Z" fill="#F5F5F5"/>
<path d="M65.0665 110.043H58.1113V112.793H65.0665V110.043Z" fill="#F5F5F5"/>
<path d="M72.6271 110.043H65.6719V112.793H72.6271V110.043Z" fill="#F5F5F5"/>
<path d="M80.1908 110.043H73.2356V112.793H80.1908V110.043Z" fill="#F5F5F5"/>
<path d="M87.7548 110.043H80.7996V112.793H87.7548V110.043Z" fill="#F5F5F5"/>
<path d="M95.3153 110.043H88.3601V112.793H95.3153V110.043Z" fill="#F5F5F5"/>
<path d="M102.879 110.043H95.9238V112.793H102.879V110.043Z" fill="#F5F5F5"/>
<path d="M110.443 110.043H103.488V112.793H110.443V110.043Z" fill="#F5F5F5"/>
<path d="M118.003 110.043H111.048V112.793H118.003V110.043Z" fill="#F5F5F5"/>
<path d="M125.567 110.043H118.612V112.793H125.567V110.043Z" fill="#F5F5F5"/>
<path d="M133.131 110.043H126.176V112.793H133.131V110.043Z" fill="#F5F5F5"/>
<path d="M140.692 110.043H133.736V112.793H140.692V110.043Z" fill="#F5F5F5"/>
<path d="M31.0343 106.598H24.0791V109.348H31.0343V106.598Z" fill="#F5F5F5"/>
<path d="M23.4674 106.598H20.2957V109.348H23.4674V106.598Z" fill="#F5F5F5"/>
<path d="M38.5948 106.598H31.6396V109.348H38.5948V106.598Z" fill="#F5F5F5"/>
<path d="M46.1588 106.598H39.2036V109.348H46.1588V106.598Z" fill="#F5F5F5"/>
<path d="M53.7225 106.598H46.7673V109.348H53.7225V106.598Z" fill="#F5F5F5"/>
<path d="M61.2831 106.598H54.3279V109.348H61.2831V106.598Z" fill="#F5F5F5"/>
<path d="M68.8468 106.598H61.8916V109.348H68.8468V106.598Z" fill="#F5F5F5"/>
<path d="M76.4105 106.598H69.4553V109.348H76.4105V106.598Z" fill="#F5F5F5"/>
<path d="M83.9711 106.598H77.0159V109.348H83.9711V106.598Z" fill="#F5F5F5"/>
<path d="M91.535 106.598H84.5798V109.348H91.535V106.598Z" fill="#F5F5F5"/>
<path d="M99.0988 106.598H92.1436V109.348H99.0988V106.598Z" fill="#F5F5F5"/>
<path d="M106.659 106.598H99.7041V109.348H106.659V106.598Z" fill="#F5F5F5"/>
<path d="M114.223 106.598H107.268V109.348H114.223V106.598Z" fill="#F5F5F5"/>
<path d="M121.787 106.598H114.832V109.348H121.787V106.598Z" fill="#F5F5F5"/>
<path d="M129.347 106.598H122.392V109.348H129.347V106.598Z" fill="#F5F5F5"/>
<path d="M136.911 106.598H129.956V109.348H136.911V106.598Z" fill="#F5F5F5"/>
<path d="M140.691 106.598H137.52V109.348H140.691V106.598Z" fill="#F5F5F5"/>
<path d="M27.2509 103.153H20.2957V105.903H27.2509V103.153Z" fill="#F5F5F5"/>
<path d="M34.8146 103.153H27.8594V105.903H34.8146V103.153Z" fill="#F5F5F5"/>
<path d="M42.3785 103.153H35.4233V105.903H42.3785V103.153Z" fill="#F5F5F5"/>
<path d="M49.9391 103.153H42.9839V105.903H49.9391V103.153Z" fill="#F5F5F5"/>
<path d="M57.5028 103.153H50.5476V105.903H57.5028V103.153Z" fill="#F5F5F5"/>
<path d="M65.0665 103.153H58.1113V105.903H65.0665V103.153Z" fill="#F5F5F5"/>
<path d="M72.6271 103.153H65.6719V105.903H72.6271V103.153Z" fill="#F5F5F5"/>
<path d="M80.1908 103.153H73.2356V105.903H80.1908V103.153Z" fill="#F5F5F5"/>
<path d="M87.7548 103.153H80.7996V105.903H87.7548V103.153Z" fill="#F5F5F5"/>
<path d="M95.3153 103.153H88.3601V105.903H95.3153V103.153Z" fill="#F5F5F5"/>
<path d="M102.879 103.153H95.9238V105.903H102.879V103.153Z" fill="#F5F5F5"/>
<path d="M110.443 103.153H103.488V105.903H110.443V103.153Z" fill="#F5F5F5"/>
<path d="M118.003 103.153H111.048V105.903H118.003V103.153Z" fill="#F5F5F5"/>
<path d="M125.567 103.153H118.612V105.903H125.567V103.153Z" fill="#F5F5F5"/>
<path d="M133.131 103.153H126.176V105.903H133.131V103.153Z" fill="#F5F5F5"/>
<path d="M140.692 103.153H133.736V105.903H140.692V103.153Z" fill="#F5F5F5"/>
<path d="M31.0343 99.7073H24.0791V102.457H31.0343V99.7073Z" fill="#F5F5F5"/>
<path d="M23.4674 99.7073H20.2957V102.457H23.4674V99.7073Z" fill="#F5F5F5"/>
<path d="M38.5948 99.7073H31.6396V102.457H38.5948V99.7073Z" fill="#F5F5F5"/>
<path d="M46.1588 99.7073H39.2036V102.457H46.1588V99.7073Z" fill="#F5F5F5"/>
<path d="M53.7225 99.7073H46.7673V102.457H53.7225V99.7073Z" fill="#F5F5F5"/>
<path d="M61.2831 99.7073H54.3279V102.457H61.2831V99.7073Z" fill="#F5F5F5"/>
<path d="M68.8468 99.7073H61.8916V102.457H68.8468V99.7073Z" fill="#F5F5F5"/>
<path d="M76.4105 99.7073H69.4553V102.457H76.4105V99.7073Z" fill="#F5F5F5"/>
<path d="M83.9711 99.7073H77.0159V102.457H83.9711V99.7073Z" fill="#F5F5F5"/>
<path d="M91.535 99.7073H84.5798V102.457H91.535V99.7073Z" fill="#F5F5F5"/>
<path d="M99.0988 99.7073H92.1436V102.457H99.0988V99.7073Z" fill="#F5F5F5"/>
<path d="M106.659 99.7073H99.7041V102.457H106.659V99.7073Z" fill="#F5F5F5"/>
<path d="M114.223 99.7073H107.268V102.457H114.223V99.7073Z" fill="#F5F5F5"/>
<path d="M121.787 99.7073H114.832V102.457H121.787V99.7073Z" fill="#F5F5F5"/>
<path d="M129.347 99.7073H122.392V102.457H129.347V99.7073Z" fill="#F5F5F5"/>
<path d="M136.911 99.7073H129.956V102.457H136.911V99.7073Z" fill="#F5F5F5"/>
<path d="M140.691 99.7073H137.52V102.457H140.691V99.7073Z" fill="#F5F5F5"/>
<path d="M27.2509 96.2618H20.2957V99.0117H27.2509V96.2618Z" fill="#F5F5F5"/>
<path d="M34.8146 96.2618H27.8594V99.0117H34.8146V96.2618Z" fill="#F5F5F5"/>
<path d="M42.3785 96.2618H35.4233V99.0117H42.3785V96.2618Z" fill="#F5F5F5"/>
<path d="M49.9391 96.2618H42.9839V99.0117H49.9391V96.2618Z" fill="#F5F5F5"/>
<path d="M57.5028 96.2618H50.5476V99.0117H57.5028V96.2618Z" fill="#F5F5F5"/>
<path d="M65.0665 96.2618H58.1113V99.0117H65.0665V96.2618Z" fill="#F5F5F5"/>
<path d="M72.6271 96.2618H65.6719V99.0117H72.6271V96.2618Z" fill="#F5F5F5"/>
<path d="M80.1908 96.2618H73.2356V99.0117H80.1908V96.2618Z" fill="#F5F5F5"/>
<path d="M87.7548 96.2618H80.7996V99.0117H87.7548V96.2618Z" fill="#F5F5F5"/>
<path d="M95.3153 96.2618H88.3601V99.0117H95.3153V96.2618Z" fill="#F5F5F5"/>
<path d="M102.879 96.2618H95.9238V99.0117H102.879V96.2618Z" fill="#F5F5F5"/>
<path d="M110.443 96.2618H103.488V99.0117H110.443V96.2618Z" fill="#F5F5F5"/>
<path d="M118.003 96.2618H111.048V99.0117H118.003V96.2618Z" fill="#F5F5F5"/>
<path d="M125.567 96.2618H118.612V99.0117H125.567V96.2618Z" fill="#F5F5F5"/>
<path d="M133.131 96.2618H126.176V99.0117H133.131V96.2618Z" fill="#F5F5F5"/>
<path d="M140.692 96.2618H133.736V99.0117H140.692V96.2618Z" fill="#F5F5F5"/>
<path d="M31.0343 92.8165H24.0791V95.5664H31.0343V92.8165Z" fill="#F5F5F5"/>
<path d="M23.4674 92.8165H20.2957V95.5664H23.4674V92.8165Z" fill="#F5F5F5"/>
<path d="M38.5948 92.8165H31.6396V95.5664H38.5948V92.8165Z" fill="#F5F5F5"/>
<path d="M46.1588 92.8165H39.2036V95.5664H46.1588V92.8165Z" fill="#F5F5F5"/>
<path d="M53.7225 92.8165H46.7673V95.5664H53.7225V92.8165Z" fill="#F5F5F5"/>
<path d="M61.2831 92.8165H54.3279V95.5664H61.2831V92.8165Z" fill="#F5F5F5"/>
<path d="M68.8468 92.8165H61.8916V95.5664H68.8468V92.8165Z" fill="#F5F5F5"/>
<path d="M76.4105 92.8165H69.4553V95.5664H76.4105V92.8165Z" fill="#F5F5F5"/>
<path d="M83.9711 92.8165H77.0159V95.5664H83.9711V92.8165Z" fill="#F5F5F5"/>
<path d="M91.535 92.8165H84.5798V95.5664H91.535V92.8165Z" fill="#F5F5F5"/>
<path d="M99.0988 92.8165H92.1436V95.5664H99.0988V92.8165Z" fill="#F5F5F5"/>
<path d="M106.659 92.8165H99.7041V95.5664H106.659V92.8165Z" fill="#F5F5F5"/>
<path d="M114.223 92.8165H107.268V95.5664H114.223V92.8165Z" fill="#F5F5F5"/>
<path d="M121.787 92.8165H114.832V95.5664H121.787V92.8165Z" fill="#F5F5F5"/>
<path d="M129.347 92.8165H122.392V95.5664H129.347V92.8165Z" fill="#F5F5F5"/>
<path d="M136.911 92.8165H129.956V95.5664H136.911V92.8165Z" fill="#F5F5F5"/>
<path d="M140.691 92.8165H137.52V95.5664H140.691V92.8165Z" fill="#F5F5F5"/>
<path d="M27.2509 89.3711H20.2957V92.121H27.2509V89.3711Z" fill="#F5F5F5"/>
<path d="M34.8146 89.3711H27.8594V92.121H34.8146V89.3711Z" fill="#F5F5F5"/>
<path d="M42.3785 89.3711H35.4233V92.121H42.3785V89.3711Z" fill="#F5F5F5"/>
<path d="M49.9391 89.3711H42.9839V92.121H49.9391V89.3711Z" fill="#F5F5F5"/>
<path d="M57.5028 89.3711H50.5476V92.121H57.5028V89.3711Z" fill="#F5F5F5"/>
<path d="M65.0665 89.3711H58.1113V92.121H65.0665V89.3711Z" fill="#F5F5F5"/>
<path d="M72.6271 89.3711H65.6719V92.121H72.6271V89.3711Z" fill="#F5F5F5"/>
<path d="M80.1908 89.3711H73.2356V92.121H80.1908V89.3711Z" fill="#F5F5F5"/>
<path d="M87.7548 89.3711H80.7996V92.121H87.7548V89.3711Z" fill="#F5F5F5"/>
<path d="M95.3153 89.3711H88.3601V92.121H95.3153V89.3711Z" fill="#F5F5F5"/>
<path d="M102.879 89.3711H95.9238V92.121H102.879V89.3711Z" fill="#F5F5F5"/>
<path d="M110.443 89.3711H103.488V92.121H110.443V89.3711Z" fill="#F5F5F5"/>
<path d="M118.003 89.3711H111.048V92.121H118.003V89.3711Z" fill="#F5F5F5"/>
<path d="M125.567 89.3711H118.612V92.121H125.567V89.3711Z" fill="#F5F5F5"/>
<path d="M133.131 89.3711H126.176V92.121H133.131V89.3711Z" fill="#F5F5F5"/>
<path d="M140.692 89.3711H133.736V92.121H140.692V89.3711Z" fill="#F5F5F5"/>
<path d="M31.0343 85.9225H24.0791V88.6724H31.0343V85.9225Z" fill="#F5F5F5"/>
<path d="M23.4674 85.9225H20.2957V88.6724H23.4674V85.9225Z" fill="#F5F5F5"/>
<path d="M38.5948 85.9225H31.6396V88.6724H38.5948V85.9225Z" fill="#F5F5F5"/>
<path d="M46.1588 85.9225H39.2036V88.6724H46.1588V85.9225Z" fill="#F5F5F5"/>
<path d="M53.7225 85.9225H46.7673V88.6724H53.7225V85.9225Z" fill="#F5F5F5"/>
<path d="M61.2831 85.9225H54.3279V88.6724H61.2831V85.9225Z" fill="#F5F5F5"/>
<path d="M68.8468 85.9225H61.8916V88.6724H68.8468V85.9225Z" fill="#F5F5F5"/>
<path d="M76.4105 85.9225H69.4553V88.6724H76.4105V85.9225Z" fill="#F5F5F5"/>
<path d="M83.9711 85.9225H77.0159V88.6724H83.9711V85.9225Z" fill="#F5F5F5"/>
<path d="M91.535 85.9225H84.5798V88.6724H91.535V85.9225Z" fill="#F5F5F5"/>
<path d="M99.0988 85.9225H92.1436V88.6724H99.0988V85.9225Z" fill="#F5F5F5"/>
<path d="M106.659 85.9225H99.7041V88.6724H106.659V85.9225Z" fill="#F5F5F5"/>
<path d="M114.223 85.9225H107.268V88.6724H114.223V85.9225Z" fill="#F5F5F5"/>
<path d="M121.787 85.9225H114.832V88.6724H121.787V85.9225Z" fill="#F5F5F5"/>
<path d="M129.347 85.9225H122.392V88.6724H129.347V85.9225Z" fill="#F5F5F5"/>
<path d="M136.911 85.9225H129.956V88.6724H136.911V85.9225Z" fill="#F5F5F5"/>
<path d="M140.691 85.9225H137.52V88.6724H140.691V85.9225Z" fill="#F5F5F5"/>
<path d="M27.2509 82.4771H20.2957V85.2269H27.2509V82.4771Z" fill="#F5F5F5"/>
<path d="M34.8146 82.4771H27.8594V85.2269H34.8146V82.4771Z" fill="#F5F5F5"/>
<path d="M42.3785 82.4771H35.4233V85.2269H42.3785V82.4771Z" fill="#F5F5F5"/>
<path d="M49.9391 82.4771H42.9839V85.2269H49.9391V82.4771Z" fill="#F5F5F5"/>
<path d="M57.5028 82.4771H50.5476V85.2269H57.5028V82.4771Z" fill="#F5F5F5"/>
<path d="M65.0665 82.4771H58.1113V85.2269H65.0665V82.4771Z" fill="#F5F5F5"/>
<path d="M72.6271 82.4771H65.6719V85.2269H72.6271V82.4771Z" fill="#F5F5F5"/>
<path d="M80.1908 82.4771H73.2356V85.2269H80.1908V82.4771Z" fill="#F5F5F5"/>
<path d="M87.7548 82.4771H80.7996V85.2269H87.7548V82.4771Z" fill="#F5F5F5"/>
<path d="M95.3153 82.4771H88.3601V85.2269H95.3153V82.4771Z" fill="#F5F5F5"/>
<path d="M102.879 82.4771H95.9238V85.2269H102.879V82.4771Z" fill="#F5F5F5"/>
<path d="M110.443 82.4771H103.488V85.2269H110.443V82.4771Z" fill="#F5F5F5"/>
<path d="M118.003 82.4771H111.048V85.2269H118.003V82.4771Z" fill="#F5F5F5"/>
<path d="M125.567 82.4771H118.612V85.2269H125.567V82.4771Z" fill="#F5F5F5"/>
<path d="M133.131 82.4771H126.176V85.2269H133.131V82.4771Z" fill="#F5F5F5"/>
<path d="M140.692 82.4771H133.736V85.2269H140.692V82.4771Z" fill="#F5F5F5"/>
<path d="M80.5 137.674C114.981 137.674 142.933 136.042 142.933 134.029C142.933 132.016 114.981 130.384 80.5 130.384C46.0194 130.384 18.0674 132.016 18.0674 134.029C18.0674 136.042 46.0194 137.674 80.5 137.674Z" fill="#F5F5F5"/>
<path d="M80.3551 59.4122C80.3551 59.4122 79.0478 61.2766 77.573 61.2766C76.0983 61.2766 74.4528 59.4122 74.4528 59.4122C74.4528 59.4122 70.5888 62.2394 69.9191 63.1474C69.2493 64.0555 68.8404 74.2693 69.1559 78.6839C69.4715 83.0986 64.0297 118.071 64.4837 121.149C64.9377 124.228 73.0586 123.133 77.8467 123.171C82.6349 123.21 89.3164 124.949 90.0827 122.354C90.8491 119.758 89.6255 105.668 87.9575 98.5449C86.2896 91.4223 86.1833 75.1194 85.8549 71.6354C85.5264 68.1513 85.2688 64.2519 85.0144 63.1474C84.7601 62.043 80.3551 59.4122 80.3551 59.4122Z" fill="#A38E23"/>
<path d="M71.162 98.5546C71.2396 100.944 71.0973 103.336 70.737 105.7C70.4794 107.29 70.2314 107.674 68.557 107.336C67.4977 107.12 66.4125 106.569 65.3177 106.92C64.9506 107.039 64.6222 107.242 64.268 107.406C63.4501 107.761 62.5292 107.767 61.6373 107.77H55.3583C53.8996 107.77 52.4828 108.092 52.3315 106.334C51.7358 99.3886 51.9032 92.3979 52.412 85.4524C52.5408 83.7136 52.6921 81.978 52.8563 80.2392C52.998 78.7484 53.4102 77.0707 53.1783 75.5831C52.7533 72.9073 52.7629 70.2282 52.8273 67.5009C52.8531 66.3353 52.5343 63.8043 53.3007 62.7932C53.9833 61.8884 58.3496 59.4026 58.3496 59.4026C58.3496 59.4026 59.9918 61.267 61.4666 61.267C62.9414 61.267 64.2519 59.4026 64.2519 59.4026C64.2519 59.4026 69.5424 62.3006 69.7967 63.4179C70.0511 64.5353 69.4168 68.1449 69.7452 71.6257C70.1445 75.8342 69.8064 79.9752 70.0672 84.1837C70.328 88.3923 70.8948 92.5557 71.1073 96.7417C71.1287 97.3514 71.147 97.9557 71.162 98.5546Z" fill="#A38E23"/>
<path d="M54.096 97.5886C54.1736 99.9783 54.0313 102.37 53.671 104.734C53.4134 106.324 53.1654 106.708 51.491 106.369C50.4284 106.154 49.3465 105.6 48.2485 105.954C47.8814 106.073 47.553 106.276 47.1988 106.44C46.3809 106.795 45.46 106.801 44.568 106.801H38.289C36.8304 106.801 35.4168 107.123 35.2622 105.365C34.6665 98.4193 34.8372 91.4287 35.346 84.4832C35.4748 82.7444 35.6218 81.0066 35.7871 79.27C35.9288 77.7791 36.3442 76.1015 36.1091 74.6139C35.6841 71.938 36.6629 69.903 36.7273 67.1756C36.7531 66.01 36.4343 63.4791 37.2007 62.468C37.8833 61.5632 41.2836 58.4333 41.2836 58.4333C41.2836 58.4333 42.9258 60.2945 44.4006 60.2945C45.8754 60.2945 47.1859 58.4333 47.1859 58.4333C47.1859 58.4333 51.8324 61.9754 52.0867 63.0927C52.3411 64.21 52.3508 67.1756 52.6792 70.6565C53.0753 74.865 52.7404 79.0059 53.0012 83.2145C53.262 87.423 53.8288 91.5865 54.0413 95.7725C54.0445 96.3875 54.0703 96.9896 54.096 97.5886Z" fill="#A38E23"/>
<path opacity="0.7" d="M54.096 97.5886C54.1736 99.9783 54.0313 102.37 53.671 104.734C53.4134 106.324 53.1654 106.708 51.491 106.369C50.4284 106.154 49.3465 105.6 48.2485 105.954C47.8814 106.073 47.553 106.276 47.1988 106.44C46.3809 106.795 45.46 106.801 44.568 106.801H38.289C36.8304 106.801 35.4168 107.123 35.2622 105.365C34.6665 98.4193 34.8372 91.4287 35.346 84.4832C35.4748 82.7444 35.6218 81.0066 35.7871 79.27C35.9288 77.7791 36.3442 76.1015 36.1091 74.6139C35.6841 71.938 36.6629 69.903 36.7273 67.1756C36.7531 66.01 36.4343 63.4791 37.2007 62.468C37.8833 61.5632 41.2836 58.4333 41.2836 58.4333C41.2836 58.4333 42.9258 60.2945 44.4006 60.2945C45.8754 60.2945 47.1859 58.4333 47.1859 58.4333C47.1859 58.4333 51.8324 61.9754 52.0867 63.0927C52.3411 64.21 52.3508 67.1756 52.6792 70.6565C53.0753 74.865 52.7404 79.0059 53.0012 83.2145C53.262 87.423 53.8288 91.5865 54.0413 95.7725C54.0445 96.3875 54.0703 96.9896 54.096 97.5886Z" fill="white"/>
<path opacity="0.7" d="M71.162 98.5546C71.2396 100.944 71.0973 103.336 70.737 105.7C70.4794 107.29 70.2314 107.674 68.557 107.336C67.4977 107.12 66.4125 106.569 65.3177 106.92C64.9506 107.039 64.6222 107.242 64.268 107.406C63.4501 107.761 62.5292 107.767 61.6373 107.77H55.3583C53.8996 107.77 52.4828 108.092 52.3315 106.334C51.7358 99.3886 51.9032 92.3979 52.412 85.4524C52.5408 83.7136 52.6921 81.978 52.8563 80.2392C52.998 78.7484 53.4102 77.0707 53.1783 75.5831C52.7533 72.9073 52.7629 70.2282 52.8273 67.5009C52.8531 66.3353 52.5343 63.8043 53.3007 62.7932C53.9833 61.8884 58.3496 59.4026 58.3496 59.4026C58.3496 59.4026 59.9918 61.267 61.4666 61.267C62.9414 61.267 64.2519 59.4026 64.2519 59.4026C64.2519 59.4026 69.5424 62.3006 69.7967 63.4179C70.0511 64.5353 69.4168 68.1449 69.7452 71.6257C70.1445 75.8342 69.8064 79.9752 70.0672 84.1837C70.328 88.3923 70.8948 92.5557 71.1073 96.7417C71.1287 97.3514 71.147 97.9557 71.162 98.5546Z" fill="white"/>
<path opacity="0.7" d="M80.3551 59.4122C80.3551 59.4122 79.0478 61.2766 77.573 61.2766C76.0983 61.2766 74.4528 59.4122 74.4528 59.4122C74.4528 59.4122 70.5888 62.2394 69.9191 63.1474C69.2493 64.0555 68.8404 74.2693 69.1559 78.6839C69.4715 83.0986 64.0297 118.071 64.4837 121.149C64.9377 124.228 73.0586 123.133 77.8467 123.171C82.6349 123.21 89.3164 124.949 90.0827 122.354C90.8491 119.758 89.6255 105.668 87.9575 98.5449C86.2896 91.4223 86.1833 75.1194 85.8549 71.6354C85.5264 68.1513 85.2688 64.2519 85.0144 63.1474C84.7601 62.043 80.3551 59.4122 80.3551 59.4122Z" fill="white"/>
<path d="M29.6529 130.088H30.7992V55.1394C30.7992 55.0113 30.8501 54.8884 30.9407 54.7978C31.0313 54.7073 31.1541 54.6564 31.2822 54.6564H91.2129C91.341 54.6564 91.4638 54.7073 91.5544 54.7978C91.645 54.8884 91.6959 55.0113 91.6959 55.1394V130.088H92.7778C92.9059 130.088 93.0288 130.139 93.1193 130.23C93.2099 130.32 93.2608 130.443 93.2608 130.571C93.2608 130.699 93.2099 130.822 93.1193 130.913C93.0288 131.003 92.9059 131.054 92.7778 131.054H89.2165C89.0884 131.054 88.9655 131.003 88.875 130.913C88.7844 130.822 88.7335 130.699 88.7335 130.571C88.7335 130.443 88.7844 130.32 88.875 130.23C88.9655 130.139 89.0884 130.088 89.2165 130.088H90.7299V55.6224H31.7652V130.088H33.2142C33.3423 130.088 33.4652 130.139 33.5558 130.23C33.6464 130.32 33.6972 130.443 33.6972 130.571C33.6972 130.699 33.6464 130.822 33.5558 130.913C33.4652 131.003 33.3423 131.054 33.2142 131.054H29.6529C29.5248 131.054 29.402 131.003 29.3114 130.913C29.2208 130.822 29.1699 130.699 29.1699 130.571C29.1699 130.443 29.2208 130.32 29.3114 130.23C29.402 130.139 29.5248 130.088 29.6529 130.088Z" fill="#263238"/>
<path opacity="0.4" d="M29.6529 130.088H30.7992V55.1394C30.7992 55.0113 30.8501 54.8884 30.9407 54.7978C31.0313 54.7073 31.1541 54.6564 31.2822 54.6564H91.2129C91.341 54.6564 91.4638 54.7073 91.5544 54.7978C91.645 54.8884 91.6959 55.0113 91.6959 55.1394V130.088H92.7778C92.9059 130.088 93.0288 130.139 93.1193 130.23C93.2099 130.32 93.2608 130.443 93.2608 130.571C93.2608 130.699 93.2099 130.822 93.1193 130.913C93.0288 131.003 92.9059 131.054 92.7778 131.054H89.2165C89.0884 131.054 88.9655 131.003 88.875 130.913C88.7844 130.822 88.7335 130.699 88.7335 130.571C88.7335 130.443 88.7844 130.32 88.875 130.23C88.9655 130.139 89.0884 130.088 89.2165 130.088H90.7299V55.6224H31.7652V130.088H33.2142C33.3423 130.088 33.4652 130.139 33.5558 130.23C33.6464 130.32 33.6972 130.443 33.6972 130.571C33.6972 130.699 33.6464 130.822 33.5558 130.913C33.4652 131.003 33.3423 131.054 33.2142 131.054H29.6529C29.5248 131.054 29.402 131.003 29.3114 130.913C29.2208 130.822 29.1699 130.699 29.1699 130.571C29.1699 130.443 29.2208 130.32 29.3114 130.23C29.402 130.139 29.5248 130.088 29.6529 130.088Z" fill="white"/>
<path d="M70.7273 63.3567C70.686 63.242 70.6834 63.1168 70.7201 63.0005C70.7567 62.8842 70.8305 62.7831 70.9302 62.7127L77.2994 58.0373C77.3266 58.0179 77.3593 58.0074 77.3927 58.0074C77.4262 58.0074 77.4588 58.0179 77.4861 58.0373L84.2674 62.7063C84.3664 62.7756 84.4408 62.8745 84.4799 62.9888C84.519 63.1031 84.5207 63.2269 84.4849 63.3423C84.4491 63.4576 84.3775 63.5586 84.2805 63.6307C84.1836 63.7027 84.0662 63.7421 83.9454 63.7431H71.2651C71.146 63.7442 71.0297 63.7074 70.933 63.6379C70.8363 63.5684 70.7643 63.4699 70.7273 63.3567ZM71.1202 62.9832C71.0779 63.0132 71.0465 63.0561 71.0308 63.1055C71.0151 63.1549 71.016 63.208 71.0332 63.2569C71.0484 63.3065 71.0792 63.3498 71.1209 63.3806C71.1627 63.4113 71.2132 63.4278 71.2651 63.4276H83.9454C83.9984 63.4288 84.0502 63.4124 84.0928 63.3809C84.1353 63.3494 84.1662 63.3047 84.1805 63.2537C84.1965 63.2033 84.1957 63.1491 84.1783 63.0992C84.1609 63.0492 84.1277 63.0063 84.0839 62.9768L77.3992 58.3722L71.1202 62.9832Z" fill="#263238"/>
<path d="M77.3958 58.3368C77.4385 58.3368 77.4794 58.3199 77.5096 58.2897C77.5398 58.2595 77.5568 58.2185 77.5568 58.1758V56.5111C77.721 56.2471 78.4068 55.0685 78.0816 54.4728C78.0092 54.36 77.9064 54.2699 77.7851 54.213C77.6638 54.156 77.5288 54.1345 77.3958 54.1508C76.8419 54.1508 76.4845 54.2829 76.3364 54.5437C76.2858 54.6514 76.262 54.7697 76.267 54.8886C76.2721 55.0074 76.3058 55.1233 76.3654 55.2263C76.3763 55.2446 76.3907 55.2605 76.4078 55.2731C76.4249 55.2858 76.4444 55.2949 76.465 55.3C76.4857 55.3051 76.5071 55.3061 76.5282 55.3028C76.5492 55.2996 76.5694 55.2922 76.5875 55.2811C76.6225 55.258 76.647 55.2222 76.6561 55.1814C76.6651 55.1405 76.6578 55.0977 76.6358 55.0621C76.6046 55.0078 76.5861 54.9472 76.5817 54.8847C76.5772 54.8223 76.5869 54.7596 76.6101 54.7015C76.697 54.5533 76.9739 54.4728 77.3893 54.4728C77.7113 54.4728 77.7693 54.5984 77.7918 54.6371C77.985 54.9913 77.5632 55.8993 77.2541 56.3887C77.2379 56.4137 77.229 56.4427 77.2283 56.4725V58.1855C77.2308 58.2276 77.2498 58.2671 77.2811 58.2954C77.3124 58.3237 77.3536 58.3386 77.3958 58.3368Z" fill="#263238"/>
<path d="M81.2019 65.6591L81.4466 60.4749L82.6606 61.3797L82.2162 65.8201L81.2019 65.6591Z" fill="#A38E23"/>
<path d="M73.7927 65.8201L73.3065 60.4749L72.2117 61.3797L72.495 65.8201H73.7927Z" fill="#A38E23"/>
<path opacity="0.2" d="M81.2019 65.6591L81.4466 60.4749L82.6606 61.3797L82.2162 65.8201L81.2019 65.6591Z" fill="black"/>
<path opacity="0.2" d="M73.7927 65.8201L73.3065 60.4749L72.2117 61.3797L72.495 65.8201H73.7927Z" fill="black"/>
<path d="M68.032 119.951C69.0495 119.929 70.0928 119.571 71.0588 119.887C71.5482 120.045 71.9701 120.364 72.4434 120.563C73.6058 121.043 74.9421 120.737 76.1142 120.277C77.2863 119.816 78.4165 119.195 79.6562 119.037C81.936 118.757 84.1642 120.067 86.4504 119.961C87.4872 119.913 89.6543 119.414 89.8829 118.271C89.8742 117.998 89.8276 117.728 89.7445 117.469C89.606 116.648 89.474 115.823 89.3355 114.999L87.9928 106.881L84.4669 85.5779C83.9195 82.2807 83.3731 78.9834 82.8279 75.6861L82.6057 74.3434C82.6057 74.2693 82.5832 74.1985 82.5703 74.1244L82.7732 72.8364C83.0479 71.0869 83.3206 69.3384 83.591 67.591L83.913 65.4884C83.9679 65.3058 83.9822 65.1135 83.9549 64.9249C83.9428 64.885 83.9232 64.8478 83.8969 64.8154C83.5395 64.371 82.258 64.4064 81.7653 64.4773C80.9506 64.59 80.2036 64.9667 79.4244 65.2211C77.7226 65.7479 75.9042 65.7669 74.1919 65.2758C73.668 65.1 73.1291 64.9728 72.5819 64.8959C71.9379 64.8411 71.0652 64.9603 71.1103 65.7202C71.1421 66.0047 71.1883 66.2873 71.2488 66.5671C71.7296 69.4479 72.2073 72.3287 72.6817 75.2095V75.2611C72.6366 75.5509 72.5883 75.8439 72.54 76.1337L70.8688 86.2831C69.7161 93.2791 68.5644 100.275 67.4138 107.271C66.9715 109.961 66.5293 112.651 66.0871 115.34C65.7844 117.208 64.8861 120.022 68.032 119.951Z" fill="#A38E23"/>
<path opacity="0.2" d="M72.5466 76.1176C73.1713 76.3784 74.5688 76.8357 75.8407 76.3913C77.5376 75.7988 79.3827 77.6149 81.4725 76.5781C81.9643 76.3411 82.4232 76.0413 82.8378 75.6861L82.6156 74.3434C82.0038 74.9262 81.07 75.5219 79.9623 75.2868C77.9627 74.8618 76.987 74.543 75.3512 75.3416C74.4078 75.7988 73.3838 75.5444 72.6883 75.245C72.6432 75.5348 72.5949 75.8278 72.5466 76.1176Z" fill="black"/>
<path d="M54.492 63.3567C54.4506 63.242 54.4481 63.1168 54.4847 63.0005C54.5214 62.8842 54.5952 62.7831 54.6948 62.7127L61.064 58.0373C61.0913 58.0179 61.1239 58.0074 61.1574 58.0074C61.1908 58.0074 61.2235 58.0179 61.2508 58.0373L68.0321 62.7063C68.131 62.7756 68.2054 62.8745 68.2445 62.9888C68.2836 63.1031 68.2854 63.2269 68.2495 63.3423C68.2137 63.4576 68.1422 63.5586 68.0452 63.6307C67.9482 63.7027 67.8309 63.7421 67.7101 63.7431H55.0297C54.9107 63.7442 54.7944 63.7074 54.6977 63.6379C54.601 63.5684 54.5289 63.4699 54.492 63.3567ZM54.8848 62.9832C54.8425 63.0132 54.8112 63.0561 54.7955 63.1055C54.7798 63.1549 54.7806 63.208 54.7979 63.2569C54.8131 63.3065 54.8438 63.3498 54.8856 63.3806C54.9273 63.4113 54.9779 63.4278 55.0297 63.4276H67.7101C67.7624 63.4267 67.8132 63.4093 67.855 63.3779C67.8969 63.3464 67.9277 63.3025 67.943 63.2525C67.9584 63.2024 67.9575 63.1488 67.9406 63.0993C67.9236 63.0497 67.8914 63.0069 67.8485 62.9768L61.1799 58.3722L54.8848 62.9832Z" fill="#263238"/>
<path d="M61.1606 58.3368C61.2033 58.3368 61.2443 58.3199 61.2745 58.2897C61.3047 58.2595 61.3216 58.2185 61.3216 58.1758V56.5111C61.4859 56.2471 62.1717 55.0685 61.8465 54.4728C61.7741 54.36 61.6713 54.2699 61.55 54.213C61.4286 54.156 61.2937 54.1345 61.1606 54.1508C60.6068 54.1508 60.2494 54.2829 60.1013 54.5437C60.0507 54.6514 60.0269 54.7697 60.0319 54.8886C60.037 55.0074 60.0707 55.1233 60.1302 55.2263C60.1524 55.2622 60.1878 55.288 60.2288 55.2981C60.2698 55.3082 60.3131 55.3018 60.3494 55.2803C60.3857 55.2588 60.4121 55.2238 60.4229 55.183C60.4337 55.1422 60.4281 55.0988 60.4072 55.0621C60.376 55.0078 60.3574 54.9472 60.353 54.8847C60.3485 54.8223 60.3582 54.7596 60.3814 54.7015C60.4683 54.5533 60.7453 54.4728 61.1606 54.4728C61.4826 54.4728 61.5406 54.5984 61.5631 54.6371C61.7563 54.9913 61.3345 55.8993 61.0254 56.3887C61.0092 56.4137 61.0003 56.4427 60.9996 56.4725V58.1855C61.0021 58.2265 61.0202 58.265 61.0501 58.2931C61.08 58.3213 61.1196 58.3369 61.1606 58.3368Z" fill="#263238"/>
<path d="M64.4451 59.9823C64.4451 59.9823 62.1654 61.6277 60.9804 61.6277C59.7955 61.6277 58.1855 59.8148 58.1855 59.8148L55.3164 61.7726C54.8946 62.0592 53.9962 62.4391 53.7064 62.8674C53.2556 63.5404 54.1766 65.0988 54.6274 65.7267C54.7449 65.8678 54.8375 66.0278 54.9011 66.2001C54.9286 66.3411 54.9415 66.4846 54.9397 66.6283C55.0009 67.6684 55.9347 68.2158 56.1118 69.1528C56.2052 69.6487 56.0152 70.2444 55.9701 70.7628C55.8993 71.571 55.8349 72.3728 55.7672 73.1907C55.5676 75.5842 55.369 77.9767 55.1715 80.3681C54.6971 86.0288 54.2259 91.6875 53.758 97.3439C53.5733 99.5335 53.3909 101.722 53.2106 103.91C53.1784 104.289 52.9723 105.04 53.188 105.346C53.4871 105.531 53.8043 105.685 54.1347 105.806C54.8881 106.115 55.686 106.301 56.4982 106.357C58.7522 106.63 61.0963 106.904 63.2956 106.302C63.6629 106.187 64.0358 106.092 64.4129 106.015C65.4594 105.854 66.5253 106.215 67.5814 106.131C68.4798 106.064 69.0787 105.449 69.8902 105.278C69.5682 102.438 69.3202 99.5367 69.024 96.6709C68.4508 91.1046 67.8766 85.5383 67.3013 79.972L66.5864 73.0297L66.3449 70.6952C66.2842 70.3286 66.2455 69.9587 66.229 69.5875C66.258 68.7246 67.0727 67.9936 67.604 67.3335C67.7288 67.1918 67.8368 67.0363 67.926 66.8698C67.9972 66.706 68.0481 66.5341 68.0773 66.3579C68.3188 65.2631 68.8404 64.3679 69.3943 63.418C68.0773 62.0527 66.0326 61.0642 64.4451 59.9823Z" fill="#263238"/>
<path opacity="0.5" d="M53.1912 105.333C53.4897 105.518 53.807 105.671 54.1378 105.79C54.8905 106.101 55.6887 106.289 56.5013 106.344C58.7553 106.618 61.0963 106.891 63.2987 106.289C63.666 106.174 64.0389 106.079 64.4161 106.003C65.4626 105.842 66.5284 106.202 67.5846 106.118C68.4829 106.051 69.0786 105.436 69.8933 105.265C69.5713 102.425 69.3201 99.5239 69.0271 96.6581C68.454 91.0918 67.8797 85.5255 67.3044 79.9591L66.5896 73.0168L66.3481 70.6823C66.2858 70.316 66.247 69.946 66.2322 69.5746C66.2427 69.3285 66.3076 69.0876 66.4221 68.8695C66.7594 68.3135 67.1568 67.7962 67.6071 67.3271C67.7319 67.1854 67.8399 67.0298 67.9291 66.8634C67.9989 66.6991 68.0497 66.5273 68.0804 66.3514C68.3219 65.2566 68.8404 64.3615 69.3974 63.4116C68.0611 62.0527 66.0164 61.0642 64.4322 59.9823C64.4322 59.9823 62.1524 61.6277 60.9675 61.6277C59.7825 61.6277 58.1725 59.8148 58.1725 59.8148L55.3003 61.7726C54.8784 62.0592 53.9801 62.4391 53.6903 62.8674C53.2395 63.5404 54.1604 65.0988 54.6112 65.7267C54.7287 65.8672 54.8203 66.0275 54.8817 66.2001C54.9118 66.3408 54.9259 66.4845 54.9235 66.6283C54.9783 67.5428 55.706 68.0741 56.0022 68.8276C56.0419 68.9323 56.0731 69.04 56.0956 69.1496C56.189 69.6455 55.999 70.2412 55.9539 70.7596C55.8831 71.5678 55.8187 72.3696 55.7511 73.1875C55.5514 75.581 55.3529 77.9735 55.1554 80.3649C54.681 86.0256 54.2098 91.6842 53.7418 97.3407C53.5572 99.5303 53.3747 101.719 53.1944 103.906C53.1815 104.277 52.9722 105.027 53.1912 105.333Z" fill="white"/>
<path opacity="0.2" d="M53.191 105.333C53.4895 105.518 53.8069 105.671 54.1377 105.79C54.8903 106.101 55.6886 106.288 56.5012 106.344C58.7552 106.617 61.0961 106.891 63.2986 106.289C63.6659 106.174 64.0388 106.079 64.416 106.002C65.4625 105.841 66.5283 106.202 67.5844 106.118C68.4828 106.051 69.0785 105.436 69.8932 105.265C69.5712 102.425 69.32 99.5238 69.027 96.658C68.4538 91.0917 67.8796 85.5254 67.3043 79.9591L66.5895 73.0168L66.348 70.6823C66.2856 70.3159 66.2469 69.9459 66.232 69.5746C66.2426 69.3284 66.3075 69.0876 66.422 68.8694C65.5211 68.936 64.6161 68.9241 63.7172 68.834C62.5902 68.6633 61.943 68.4089 60.5262 68.834C59.2768 69.2075 57.3287 68.7084 56.0182 68.834C56.0578 68.9387 56.0891 69.0463 56.1116 69.156C56.205 69.6519 56.015 70.2476 55.9699 70.766C55.8991 71.5742 55.8347 72.376 55.767 73.1939C55.5674 75.5874 55.3688 77.9799 55.1713 80.3713C54.6969 86.032 54.2257 91.6906 53.7578 97.3471C53.5731 99.5367 53.3907 101.725 53.2104 103.913C53.1814 104.277 52.9721 105.027 53.191 105.333Z" fill="black"/>
<path d="M37.6127 63.3567C37.5708 63.242 37.568 63.1167 37.6047 63.0002C37.6414 62.8838 37.7155 62.7827 37.8156 62.7127L44.1848 58.0373C44.212 58.0179 44.2447 58.0074 44.2781 58.0074C44.3116 58.0074 44.3443 58.0179 44.3715 58.0373L51.1528 62.7063C51.2518 62.7756 51.3262 62.8745 51.3653 62.9888C51.4044 63.1031 51.4061 63.2269 51.3703 63.3423C51.3345 63.4576 51.2629 63.5586 51.166 63.6307C51.069 63.7027 50.9516 63.7421 50.8308 63.7431H38.1505C38.0313 63.7447 37.9148 63.7081 37.818 63.6385C37.7212 63.569 37.6492 63.4702 37.6127 63.3567ZM37.9959 62.9832C37.9532 63.0128 37.9215 63.0557 37.9058 63.1052C37.8901 63.1548 37.8912 63.2081 37.909 63.2569C37.9237 63.3067 37.9544 63.3504 37.9962 63.3812C38.0381 63.412 38.0889 63.4283 38.1408 63.4276H50.8212C50.8735 63.4267 50.9243 63.4093 50.9661 63.3779C51.008 63.3464 51.0388 63.3025 51.0541 63.2525C51.0695 63.2024 51.0687 63.1488 51.0517 63.0993C51.0347 63.0497 51.0025 63.0069 50.9596 62.9768L44.2749 58.3722L37.9959 62.9832Z" fill="#263238"/>
<path d="M44.2815 58.3368C44.3242 58.3368 44.3651 58.3198 44.3953 58.2896C44.4255 58.2595 44.4425 58.2185 44.4425 58.1758V56.5111C44.6035 56.247 45.2926 55.0685 44.9641 54.4728C44.8925 54.36 44.7904 54.2698 44.6695 54.2128C44.5487 54.1558 44.4141 54.1343 44.2815 54.1508C43.7276 54.1508 43.3702 54.2828 43.2189 54.5436C43.1693 54.6517 43.1463 54.7701 43.1519 54.8889C43.1576 55.0076 43.1916 55.1233 43.2511 55.2263C43.2732 55.2622 43.3086 55.288 43.3496 55.2981C43.3906 55.3082 43.4339 55.3018 43.4702 55.2802C43.5066 55.2587 43.533 55.2238 43.5438 55.183C43.5546 55.1422 43.5489 55.0987 43.528 55.0621C43.4969 55.0078 43.4782 54.9473 43.4732 54.885C43.4682 54.8226 43.477 54.76 43.499 54.7014C43.586 54.5533 43.8629 54.4728 44.2815 54.4728C44.6035 54.4728 44.6614 54.5984 44.684 54.637C44.8772 54.9912 44.4554 55.8993 44.1462 56.3887C44.1301 56.4137 44.1212 56.4427 44.1205 56.4724V58.1855C44.123 58.2265 44.141 58.265 44.1709 58.2931C44.2009 58.3212 44.2404 58.3369 44.2815 58.3368Z" fill="#263238"/>
<path d="M49.5235 61.2122C49.5622 61.2412 49.3561 64.0201 49.4334 64.3421C49.6201 65.1213 50.1546 65.7299 50.3382 66.4673C50.6151 67.5975 50.4895 69.0046 50.5604 70.1703C50.8502 75.0582 51.1045 79.9462 51.3589 84.8374C51.4201 86.0416 51.4845 87.2459 51.5457 88.4502C51.6326 90.1085 51.3976 91.77 51.4362 93.4315C51.4652 94.6004 51.9095 97.0025 51.2945 98.0361C50.6795 99.0697 47.2405 98.5127 46.12 98.5063L41.5154 98.4644C40.5268 98.4644 39.5286 98.4966 38.5433 98.4418C37.8381 98.4032 37.7963 98.4805 37.4904 97.8719C37.1845 97.2633 37.2682 96.1202 37.265 95.4473C37.2231 86.8466 37.8253 78.1848 38.041 69.5585L38.1054 67.0436C38.1054 67.0436 39.9601 63.6079 39.1744 61.5407L41.1258 59.7214C41.1258 59.7214 43.3347 61.3314 44.4907 61.1317C45.6466 60.9321 47.218 59.4122 47.218 59.4122L49.5235 61.2122Z" fill="#A38E23"/>
<path opacity="0.2" d="M49.5235 61.2122C49.5622 61.2412 49.3561 64.0201 49.4334 64.3421C49.6201 65.1213 50.1546 65.7299 50.3382 66.4673C50.6151 67.5975 50.4895 69.0046 50.5604 70.1703C50.8502 75.0582 51.1045 79.9462 51.3589 84.8374C51.4201 86.0416 51.4845 87.2459 51.5457 88.4502C51.6326 90.1085 51.3976 91.77 51.4362 93.4315C51.4652 94.6004 51.9095 97.0025 51.2945 98.0361C50.6795 99.0697 47.2405 98.5127 46.12 98.5063L41.5154 98.4644C40.5268 98.4644 39.5286 98.4966 38.5433 98.4418C37.8381 98.4032 37.7963 98.4805 37.4904 97.8719C37.1845 97.2633 37.2682 96.1202 37.265 95.4473C37.2231 86.8466 37.8253 78.1848 38.041 69.5585L38.1054 67.0436C38.1054 67.0436 39.9601 63.6079 39.1744 61.5407L41.1258 59.7214C41.1258 59.7214 43.3347 61.3314 44.4907 61.1317C45.6466 60.9321 47.218 59.4122 47.218 59.4122L49.5235 61.2122Z" fill="black"/>
<path d="M44.275 61.1479C44.275 61.1479 43.2221 63.7239 42.6296 63.7496C42.0371 63.7754 39.6543 60.8999 39.6543 60.8999C39.6543 60.8999 40.6203 59.1965 41.0131 59.1965C41.406 59.1965 44.275 61.1479 44.275 61.1479Z" fill="#A38E23"/>
<path d="M44.2749 61.1479C44.2749 61.1479 46.7479 59.1096 47.1729 59.1966C47.5979 59.2835 48.8215 60.6617 48.8215 60.6617C48.8215 60.6617 46.6641 63.7174 45.9847 63.7496C45.3053 63.7818 44.2749 61.1479 44.2749 61.1479Z" fill="#A38E23"/>
<path opacity="0.2" d="M54.096 97.5886C54.1736 99.9783 54.0313 102.37 53.671 104.734C53.4134 106.324 53.1654 106.708 51.491 106.369C50.4284 106.154 49.3465 105.6 48.2485 105.954C47.8814 106.073 47.553 106.276 47.1988 106.44C46.3809 106.795 45.46 106.801 44.568 106.801H38.289C36.8304 106.801 35.4168 107.123 35.2622 105.365C34.6665 98.4193 34.8372 91.4287 35.346 84.4832C35.4748 82.7444 35.6218 81.0066 35.7871 79.27C35.9288 77.7791 36.3442 76.1015 36.1091 74.6139C35.6841 71.938 36.6629 69.903 36.7273 67.1756C36.7531 66.01 36.4343 63.4791 37.2007 62.468C37.8833 61.5632 41.2836 58.4333 41.2836 58.4333C41.2836 58.4333 42.9258 60.2945 44.4006 60.2945C45.8754 60.2945 47.1859 58.4333 47.1859 58.4333C47.1859 58.4333 51.8324 61.9754 52.0867 63.0927C52.3411 64.21 52.3508 67.1756 52.6792 70.6565C53.0753 74.865 52.7404 79.0059 53.0012 83.2145C53.262 87.423 53.8288 91.5865 54.0413 95.7725C54.0445 96.3875 54.0703 96.9896 54.096 97.5886Z" fill="white"/>
<path opacity="0.2" d="M71.162 98.5546C71.2396 100.944 71.0973 103.336 70.737 105.7C70.4794 107.29 70.2314 107.674 68.557 107.336C67.4977 107.12 66.4125 106.569 65.3177 106.92C64.9506 107.039 64.6222 107.242 64.268 107.406C63.4501 107.761 62.5292 107.767 61.6373 107.77H55.3583C53.8996 107.77 52.4828 108.092 52.3315 106.334C51.7358 99.3886 51.9032 92.3979 52.412 85.4524C52.5408 83.7136 52.6921 81.978 52.8563 80.2392C52.998 78.7484 53.4102 77.0707 53.1783 75.5831C52.7533 72.9073 52.7629 70.2282 52.8273 67.5009C52.8531 66.3353 52.5343 63.8043 53.3007 62.7932C53.9833 61.8884 58.3496 59.4026 58.3496 59.4026C58.3496 59.4026 59.9918 61.267 61.4666 61.267C62.9414 61.267 64.2519 59.4026 64.2519 59.4026C64.2519 59.4026 69.5424 62.3006 69.7967 63.4179C70.0511 64.5353 69.4168 68.1449 69.7452 71.6257C70.1445 75.8342 69.8064 79.9752 70.0672 84.1837C70.328 88.3923 70.8948 92.5557 71.1073 96.7417C71.1287 97.3514 71.147 97.9557 71.162 98.5546Z" fill="white"/>
<path opacity="0.2" d="M80.3551 59.4122C80.3551 59.4122 79.0478 61.2766 77.573 61.2766C76.0983 61.2766 74.4528 59.4122 74.4528 59.4122C74.4528 59.4122 70.5888 62.2394 69.9191 63.1474C69.2493 64.0555 68.8404 74.2693 69.1559 78.6839C69.4715 83.0986 64.0297 118.071 64.4837 121.149C64.9377 124.228 73.0586 123.133 77.8467 123.171C82.6349 123.21 89.3164 124.949 90.0827 122.354C90.8491 119.758 89.6255 105.668 87.9575 98.5449C86.2896 91.4223 86.1833 75.1194 85.8549 71.6354C85.5264 68.1513 85.2688 64.2519 85.0144 63.1474C84.7601 62.043 80.3551 59.4122 80.3551 59.4122Z" fill="white"/>
<path d="M59.4798 134.174H106.978V92.1048H59.4798L59.4798 134.174Z" fill="#A38E23"/>
<path opacity="0.6" d="M59.4798 134.174H106.978V92.1048H59.4798L59.4798 134.174Z" fill="#FAFAFA"/>
<path opacity="0.3" d="M59.4766 134.174H86.7178V92.1048H59.4766V134.174Z" fill="white"/>
<path opacity="0.2" d="M86.7209 96.1073H59.4797V96.6611H86.7209V96.1073Z" fill="black"/>
<path opacity="0.2" d="M106.978 127.953H59.4797V128.665H106.978V127.953Z" fill="black"/>
<path opacity="0.2" d="M79.8561 94.0851C79.8561 94.1819 79.8274 94.2766 79.7736 94.3571C79.7198 94.4375 79.6434 94.5003 79.5539 94.5373C79.4645 94.5744 79.3661 94.5841 79.2711 94.5652C79.1762 94.5463 79.089 94.4997 79.0205 94.4312C78.9521 94.3628 78.9055 94.2756 78.8866 94.1806C78.8677 94.0857 78.8774 93.9873 78.9145 93.8978C78.9515 93.8084 79.0142 93.732 79.0947 93.6782C79.1752 93.6244 79.2698 93.5957 79.3666 93.5957C79.4964 93.5957 79.6209 93.6473 79.7127 93.7391C79.8045 93.8308 79.8561 93.9553 79.8561 94.0851Z" fill="black"/>
<path opacity="0.2" d="M81.7495 94.0852C81.7501 94.1829 81.7217 94.2786 81.6678 94.3601C81.6139 94.4416 81.537 94.5052 81.4468 94.5429C81.3567 94.5806 81.2574 94.5906 81.1615 94.5717C81.0656 94.5528 80.9775 94.5058 80.9085 94.4367C80.8394 94.3676 80.7924 94.2795 80.7735 94.1837C80.7546 94.0878 80.7646 93.9885 80.8023 93.8983C80.84 93.8082 80.9036 93.7313 80.9851 93.6774C81.0666 93.6235 81.1623 93.5951 81.26 93.5957C81.3898 93.5957 81.5143 93.6473 81.6061 93.7391C81.6979 93.8309 81.7495 93.9553 81.7495 94.0852Z" fill="black"/>
<path opacity="0.2" d="M64.342 94.5746C64.6123 94.5746 64.8314 94.3554 64.8314 94.0851C64.8314 93.8148 64.6123 93.5957 64.342 93.5957C64.0717 93.5957 63.8525 93.8148 63.8525 94.0851C63.8525 94.3554 64.0717 94.5746 64.342 94.5746Z" fill="black"/>
<path opacity="0.2" d="M66.7184 94.0851C66.7184 94.1819 66.6897 94.2766 66.6359 94.3571C66.5821 94.4375 66.5057 94.5003 66.4162 94.5373C66.3268 94.5744 66.2284 94.5841 66.1335 94.5652C66.0385 94.5463 65.9513 94.4997 65.8829 94.4312C65.8144 94.3628 65.7678 94.2756 65.7489 94.1806C65.73 94.0857 65.7397 93.9873 65.7768 93.8978C65.8138 93.8084 65.8765 93.732 65.957 93.6782C66.0375 93.6244 66.1321 93.5957 66.2289 93.5957C66.3587 93.5957 66.4832 93.6473 66.575 93.7391C66.6668 93.8308 66.7184 93.9553 66.7184 94.0851Z" fill="black"/>
<path opacity="0.2" d="M76.8227 92.897H68.7823C68.5903 92.897 68.4346 93.0527 68.4346 93.2447V94.9256C68.4346 95.1176 68.5903 95.2733 68.7823 95.2733H76.8227C77.0147 95.2733 77.1704 95.1176 77.1704 94.9256V93.2447C77.1704 93.0527 77.0147 92.897 76.8227 92.897Z" fill="black"/>
<path opacity="0.3" d="M62.5583 97.7688H61.1125C60.8884 97.7688 60.7068 97.9504 60.7068 98.1745V100.689C60.7068 100.913 60.8884 101.095 61.1125 101.095H62.5583C62.7824 101.095 62.964 100.913 62.964 100.689V98.1745C62.964 97.9504 62.7824 97.7688 62.5583 97.7688Z" fill="white"/>
<path opacity="0.1" d="M62.5485 99.1759C62.5485 99.7169 62.2265 100.142 61.8337 100.142C61.4408 100.142 61.1221 99.704 61.1221 99.1759C61.1221 98.6479 61.4441 98.1938 61.8337 98.1938C62.2233 98.1938 62.5485 98.6285 62.5485 99.1759Z" fill="black"/>
<path opacity="0.1" d="M62.587 100.435H61.0801V100.683H62.587V100.435Z" fill="black"/>
<path d="M72.801 124.292C77.7163 124.292 81.701 118.863 81.701 112.165C81.701 105.468 77.7163 100.039 72.801 100.039C67.8856 100.039 63.9009 105.468 63.9009 112.165C63.9009 118.863 67.8856 124.292 72.801 124.292Z" fill="#263238"/>
<path opacity="0.2" d="M81.7011 112.165C81.7011 118.863 77.7179 124.292 72.801 124.292H72.6497C77.499 124.186 81.4016 118.799 81.4016 112.169C81.4016 105.539 77.499 100.142 72.6497 100.042H72.801C77.7179 100.039 81.7011 105.468 81.7011 112.165Z" fill="black"/>
<path opacity="0.3" d="M72.801 124.292C77.7163 124.292 81.701 118.863 81.701 112.165C81.701 105.468 77.7163 100.039 72.801 100.039C67.8856 100.039 63.9009 105.468 63.9009 112.165C63.9009 118.863 67.8856 124.292 72.801 124.292Z" fill="white"/>
<path opacity="0.3" d="M80.2005 112.165C80.2005 117.504 77.4441 121.935 73.8699 122.679C73.5183 122.752 73.1601 122.79 72.8009 122.791C71.8327 122.786 70.8835 122.523 70.051 122.028C69.8387 121.907 69.6343 121.773 69.4392 121.626C68.2071 120.67 67.2367 119.419 66.6185 117.987C66.343 117.385 66.1158 116.761 65.9391 116.123C65.8618 115.849 65.791 115.572 65.7298 115.286C65.5128 114.26 65.4048 113.214 65.4078 112.165C65.4078 106.308 68.7244 101.539 72.8138 101.539C73.1729 101.54 73.531 101.577 73.8828 101.649C74.4281 101.766 74.9533 101.962 75.4413 102.232C75.6152 102.325 75.7826 102.431 75.9533 102.554C76.3574 102.827 76.7329 103.141 77.0738 103.491C78.0727 104.535 78.8407 105.778 79.3278 107.139C79.4287 107.394 79.5189 107.655 79.5983 107.921C80.0075 109.299 80.2104 110.729 80.2005 112.165Z" fill="white"/>
<path d="M80.2005 112.165C80.2005 117.504 77.4442 121.935 73.87 122.679C70.299 121.932 67.5427 117.501 67.5427 112.165C67.5427 106.83 70.299 102.399 73.87 101.652C77.4442 102.396 80.2005 106.83 80.2005 112.165Z" fill="#263238"/>
<path d="M57.1905 124.292C62.4206 124.292 66.6605 118.863 66.6605 112.165C66.6605 105.468 62.4206 100.039 57.1905 100.039C51.9603 100.039 47.7205 105.468 47.7205 112.165C47.7205 118.863 51.9603 124.292 57.1905 124.292Z" fill="#A38E23"/>
<path opacity="0.2" d="M47.7236 112.165C47.7236 118.863 51.9611 124.292 57.1936 124.292H57.3514C52.1994 124.186 48.0424 118.799 48.0424 112.169C48.0424 105.539 52.193 100.155 57.3514 100.045H57.1936C51.9611 100.039 47.7236 105.468 47.7236 112.165Z" fill="black"/>
<path opacity="0.2" d="M57.8313 123.39C62.5315 123.39 66.3417 118.365 66.3417 112.165C66.3417 105.966 62.5315 100.941 57.8313 100.941C53.1311 100.941 49.3208 105.966 49.3208 112.165C49.3208 118.365 53.1311 123.39 57.8313 123.39Z" fill="black"/>
<path d="M59.0354 122.727C63.3408 122.727 66.831 117.998 66.831 112.165C66.831 106.332 63.3408 101.604 59.0354 101.604C54.73 101.604 51.2397 106.332 51.2397 112.165C51.2397 117.998 54.73 122.727 59.0354 122.727Z" fill="#A38E23"/>
<path opacity="0.5" d="M65.5559 112.165C65.5559 117.076 62.7159 121.223 59.3542 121.223C58.4166 121.211 57.506 120.908 56.7492 120.354C56.5365 120.206 56.3343 120.043 56.1439 119.868C54.9168 118.681 54.0419 117.177 53.6162 115.524C53.4098 114.787 53.2729 114.032 53.2072 113.27C53.1793 112.929 53.1632 112.584 53.1589 112.236V112.162C53.1589 107.252 55.9958 103.104 59.3542 103.104C59.7499 103.103 60.1436 103.16 60.5231 103.272C60.7337 103.333 60.9393 103.411 61.1381 103.504C61.6053 103.72 62.039 104.002 62.4261 104.341C63.5322 105.344 64.3635 106.613 64.8411 108.028C64.9377 108.295 65.0246 108.572 65.1019 108.852C65.4025 109.931 65.5552 111.046 65.5559 112.165Z" fill="white"/>
<path opacity="0.2" d="M65.8748 112.165C65.8748 117.076 63.038 121.223 59.6731 121.223C59.4575 121.224 59.2422 121.208 59.0291 121.175C62.1009 120.689 64.5868 116.76 64.5868 112.159C64.5868 107.558 62.1009 103.636 59.0291 103.143C59.2419 103.108 59.4573 103.091 59.6731 103.091C63.038 103.108 65.8748 107.255 65.8748 112.165Z" fill="black"/>
<path opacity="0.1" d="M60.536 103.275C57.784 106.006 55.3166 109.01 53.1719 112.239V112.165C53.1719 107.255 56.0087 103.108 59.3672 103.108C59.7628 103.106 60.1566 103.163 60.536 103.275Z" fill="white"/>
<path opacity="0.1" d="M62.4326 104.344C59.041 107.69 56.0794 111.446 53.6162 115.524C53.4099 114.787 53.273 114.032 53.2073 113.27C55.4861 109.734 58.1456 106.46 61.1381 103.504C61.6078 103.72 62.0437 104.003 62.4326 104.344Z" fill="white"/>
<path opacity="0.1" d="M65.1085 108.855C61.8488 112.323 59.0363 116.184 56.7365 120.351C56.5237 120.203 56.3215 120.04 56.1311 119.864C58.5065 115.56 61.4287 111.582 64.8251 108.028C64.9442 108.298 65.0441 108.575 65.1085 108.855Z" fill="white"/>
<path d="M47.6946 101.211C48.0005 101.713 48.3386 102.261 48.6606 102.773C48.9826 103.285 49.34 103.803 49.691 104.293C50.0328 104.772 50.3993 105.233 50.789 105.674C50.9649 105.87 51.1508 106.057 51.346 106.234C51.429 106.309 51.5161 106.379 51.6069 106.443L51.6874 106.501L51.7646 106.54C52.1999 106.67 52.659 106.7 53.1074 106.627C53.691 106.563 54.2691 106.456 54.8365 106.305C56.0367 105.985 57.2191 105.601 58.3785 105.155H58.4043C58.5789 105.09 58.7726 105.096 58.9428 105.172C59.113 105.249 59.2459 105.39 59.3123 105.564C59.3674 105.714 59.371 105.877 59.3225 106.029C59.2741 106.181 59.1765 106.312 59.0451 106.402C57.9317 107.156 56.745 107.796 55.5031 108.311C54.8509 108.583 54.1765 108.799 53.4873 108.955C53.1101 109.037 52.7267 109.088 52.341 109.106C51.8885 109.132 51.4349 109.083 50.9983 108.962C50.8705 108.926 50.7457 108.881 50.6248 108.826C50.5054 108.776 50.3892 108.717 50.277 108.652C50.0933 108.548 49.9159 108.433 49.7457 108.308C49.4384 108.081 49.1468 107.834 48.8731 107.567C48.3698 107.076 47.8997 106.552 47.4659 105.999C46.625 104.936 45.8712 103.806 45.2119 102.621C45.0367 102.299 44.9937 101.92 45.0919 101.566C45.1902 101.212 45.422 100.911 45.7386 100.724C46.0552 100.538 46.4317 100.482 46.7888 100.568C47.1459 100.654 47.4556 100.875 47.6527 101.185L47.6946 101.211Z" fill="#EABDBD"/>
<path opacity="0.2" d="M47.6946 101.211C48.0005 101.713 48.3386 102.261 48.6606 102.773C48.9826 103.285 49.34 103.803 49.691 104.293C50.0328 104.772 50.3993 105.233 50.789 105.674C50.9649 105.87 51.1508 106.057 51.346 106.234C51.429 106.309 51.5161 106.379 51.6069 106.443L51.6874 106.501L51.7646 106.54C52.1999 106.67 52.659 106.7 53.1074 106.627C53.691 106.563 54.2691 106.456 54.8365 106.305C56.0367 105.985 57.2191 105.601 58.3785 105.155H58.4043C58.5789 105.09 58.7726 105.096 58.9428 105.172C59.113 105.249 59.2459 105.39 59.3123 105.564C59.3674 105.714 59.371 105.877 59.3225 106.029C59.2741 106.181 59.1765 106.312 59.0451 106.402C57.9317 107.156 56.745 107.796 55.5031 108.311C54.8509 108.583 54.1765 108.799 53.4873 108.955C53.1101 109.037 52.7267 109.088 52.341 109.106C51.8885 109.132 51.4349 109.083 50.9983 108.962C50.8705 108.926 50.7457 108.881 50.6248 108.826C50.5054 108.776 50.3892 108.717 50.277 108.652C50.0933 108.548 49.9159 108.433 49.7457 108.308C49.4384 108.081 49.1468 107.834 48.8731 107.567C48.3698 107.076 47.8997 106.552 47.4659 105.999C46.625 104.936 45.8712 103.806 45.2119 102.621C45.0367 102.299 44.9937 101.92 45.0919 101.566C45.1902 101.212 45.422 100.911 45.7386 100.724C46.0552 100.538 46.4317 100.482 46.7888 100.568C47.1459 100.654 47.4556 100.875 47.6527 101.185L47.6946 101.211Z" fill="black"/>
<path d="M47.2728 100.532C47.9941 101.018 49.0245 102.898 49.0245 102.898L46.4485 104.978L45.4116 104.206L47.2728 100.532Z" fill="#263238"/>
<path opacity="0.3" d="M49.0245 102.898L47.3726 104.238L46.4614 104.978L46.31 104.866L45.4277 104.206L46.5225 102.019L47.2696 100.532C47.8427 100.915 48.6091 102.177 48.8989 102.686L49.0245 102.898Z" fill="white"/>
<path d="M49.3206 103.069L47.4112 104.502L46.4581 105.217L46.2842 104.888L46.3099 104.866L47.3275 104.009L48.902 102.686L49.0244 102.583L49.3206 103.069Z" fill="#263238"/>
<path opacity="0.2" d="M47.4112 104.502L46.4452 105.217L46.2649 104.895L46.2939 104.872L45.4116 104.212L46.5064 102.026C46.8697 102.646 47.148 103.312 47.334 104.006C47.3533 104.083 47.3662 104.16 47.379 104.235C47.3944 104.323 47.4051 104.412 47.4112 104.502Z" fill="black"/>
<path d="M57.815 105.484L59.454 104.309L59.8533 106.633C59.8533 106.633 58.5653 107.081 57.522 106.292L57.815 105.484Z" fill="#FFC3BD"/>
<path d="M61.4376 104.408L61.4119 106.192L59.8534 106.633L59.4541 104.309L61.4376 104.408Z" fill="#FFC3BD"/>
<path d="M36.8465 129.573L35.5907 132.361L32.7893 131.959L30.6641 131.65L28.0366 131.27L29.3922 130.12L31.4981 129.966L33.5203 129.817L36.8465 129.573Z" fill="#EEC1BB"/>
<path opacity="0.2" d="M33.5202 129.818L32.7893 131.959L30.6641 131.65L31.498 129.966L33.5202 129.818Z" fill="black"/>
<path d="M30.59 130.191C30.7252 130.329 28.951 131.923 28.951 131.923C28.951 131.923 26.8612 131.923 25.628 132.706C24.3947 133.488 24.34 132.323 25.4541 131.186L28.2072 128.381C28.98 127.573 29.1732 128.752 30.59 130.191Z" fill="#A38E23"/>
<path d="M28.8126 131.875H28.8383H28.8576V131.894C29.0004 132.164 29.0492 132.473 28.9961 132.773C28.9765 132.823 28.9465 132.868 28.9082 132.905C28.8699 132.942 28.8241 132.971 28.7739 132.989C28.7341 133.01 28.6887 133.019 28.6438 133.014C28.5989 133.009 28.5567 132.99 28.5228 132.96C28.439 132.867 28.468 132.657 28.5228 132.448C28.4174 132.596 28.2739 132.713 28.1074 132.786C28.0734 132.797 28.0374 132.801 28.0019 132.797C27.9664 132.793 27.9321 132.782 27.9013 132.764C27.8582 132.746 27.8217 132.716 27.7968 132.677C27.772 132.637 27.7601 132.591 27.7628 132.545C27.777 132.472 27.8143 132.405 27.8691 132.355C28.1532 132.141 28.4725 131.979 28.8126 131.875ZM28.6902 132.059C28.336 132.207 27.9367 132.426 27.9271 132.571C27.9271 132.571 27.9271 132.622 28.0043 132.67C28.0385 132.683 28.0764 132.683 28.1106 132.67C28.2003 132.634 28.2806 132.578 28.3457 132.506C28.4751 132.369 28.5905 132.219 28.6902 132.059ZM28.9124 132.741C28.9545 132.523 28.9263 132.298 28.8319 132.097C28.6805 132.442 28.5743 132.815 28.6483 132.893C28.6709 132.918 28.7288 132.893 28.7643 132.893C28.797 132.88 28.827 132.861 28.8524 132.836C28.8779 132.812 28.8982 132.783 28.9124 132.751V132.741Z" fill="#A38E23"/>
<path d="M55.429 130.088C54.8429 132.342 53.175 133.05 51.478 133.131C49.4333 133.234 31.4368 132.11 31.4368 132.11L32.3834 129.344L48.2323 128.719L39.4868 123.873C39.4868 123.873 31.2339 122.682 31.9004 116.786C32.1898 114.541 32.8003 112.35 33.7133 110.278C33.7809 110.114 33.855 109.956 33.9258 109.795L42.4492 109.306L42.5103 109.715L42.9869 112.784L43.9529 115.36C43.9529 115.36 56.6719 125.277 55.429 130.088Z" fill="#263238"/>
<path opacity="0.2" d="M44.3393 115.682L33.3494 121.024C35.568 123.313 39.4868 123.873 39.4868 123.873L48.2323 128.726L32.3834 129.351L31.4368 132.117C31.4368 132.117 49.4333 133.24 51.478 133.137C53.1589 133.057 54.8429 132.358 55.429 130.094C56.5431 125.783 46.4613 117.388 44.3393 115.682Z" fill="black"/>
<path d="M52.573 124.83L52.1415 125.712L50.3512 129.344L48.899 132.294L47.5144 132.226L48.3033 128.996L49.2017 125.306L49.4013 124.485L52.573 124.83Z" fill="#EEC1BB"/>
<path opacity="0.2" d="M52.1415 125.712L50.3511 129.344L48.3032 128.996L49.2016 125.306L52.1415 125.712Z" fill="black"/>
<path d="M47.2759 100.532C47.2759 100.532 46.4709 107.013 42.8871 112.14C42.8871 112.14 35.2492 111.174 33.5491 110.681C34.6085 107.551 35.2396 105.465 35.6775 99.5946C35.7838 98.1778 37.0653 97.3631 38.4628 97.6143C39.8378 97.7096 41.1954 97.9768 42.5039 98.4096C44.2202 98.9635 47.2759 100.532 47.2759 100.532Z" fill="#263238"/>
<path d="M32.0681 116.242C32.0681 116.242 31.1021 122.289 35.5328 122.895C42.8068 123.886 49.5816 116.715 50.4221 116.731C51.2625 116.748 48.0038 128.381 48.0038 128.381L51.2593 128.868C51.2593 128.868 57.139 114.535 55.7125 111.447C54.2861 108.359 37.2201 116.355 32.0681 116.242Z" fill="#263238"/>
<path d="M47.334 131.205C47.334 131.012 49.72 131.16 49.72 131.16C49.72 131.16 51.1851 132.648 52.618 132.983C54.0509 133.318 53.262 134.171 51.652 134.171H47.7075C46.5773 134.177 47.2825 133.215 47.334 131.205Z" fill="#A38E23"/>
<path d="M49.7651 131.279H49.7458C49.7458 131.279 49.7458 131.279 49.7458 131.26C49.7444 131.254 49.7444 131.247 49.7458 131.241C49.7442 131.232 49.7442 131.223 49.7458 131.215C49.7458 131.186 49.9551 130.635 50.2771 130.5C50.3273 130.476 50.3824 130.463 50.4381 130.463C50.4939 130.463 50.5489 130.476 50.5991 130.5C50.7054 130.552 50.7601 130.619 50.7537 130.7C50.7472 130.78 50.5766 130.951 50.3834 131.054C50.5635 131.024 50.7484 131.044 50.9179 131.112C50.9491 131.129 50.9765 131.152 50.9986 131.179C51.0208 131.207 51.0371 131.239 51.0467 131.273C51.0637 131.316 51.0672 131.364 51.0569 131.409C51.0466 131.454 51.0228 131.496 50.9887 131.527C50.9278 131.57 50.8538 131.591 50.7794 131.585C50.4256 131.545 50.082 131.442 49.7651 131.279ZM49.9841 131.241C50.3351 131.389 50.7698 131.521 50.8825 131.427C50.8825 131.427 50.9211 131.395 50.8825 131.302C50.8777 131.284 50.8692 131.267 50.8576 131.253C50.8459 131.238 50.8314 131.227 50.8148 131.218C50.7271 131.178 50.6309 131.161 50.5347 131.167C50.3491 131.172 50.1646 131.197 49.9841 131.241ZM50.3061 130.597C50.1185 130.719 49.9751 130.899 49.8972 131.109C50.2514 130.977 50.5894 130.787 50.5959 130.684C50.5959 130.651 50.5444 130.619 50.5122 130.603C50.4778 130.587 50.4405 130.579 50.4027 130.577C50.3713 130.58 50.3408 130.589 50.3125 130.603L50.3061 130.597Z" fill="#A38E23"/>
<path d="M48.725 105.317C48.2645 104.705 49.8809 102.541 50.8985 102.67C51.916 102.798 54.0412 103.314 55.1134 102.605C56.1857 101.897 58.2626 102.58 59.0354 103.069C59.8082 103.558 60.1624 102.605 61.122 104.309C62.0815 106.012 62.6611 105.568 62.9638 108.759C63.2665 111.95 66.596 117.002 69.1494 117.417C71.7029 117.833 72.5304 119.794 73.8699 119.082C75.2095 118.37 78.291 118.837 78.291 118.837C78.291 118.837 76.6359 122.238 73.0939 122.36C73.0939 122.36 71.0556 127.966 66.7119 127.332C62.3681 126.697 58.6039 123.477 56.8394 115.92C56.2942 113.687 55.2916 111.592 53.8948 109.767C52.4981 107.942 50.7377 106.426 48.725 105.317Z" fill="#A38E23"/>
<path opacity="0.9" d="M78.291 118.837C78.291 118.837 76.636 122.234 73.094 122.36C73.094 122.36 71.0557 127.969 66.7119 127.332C62.3681 126.694 58.604 123.481 56.8394 115.92C55.2294 109.007 49.7554 105.854 48.8538 105.371L48.725 105.307C48.6859 105.243 48.6598 105.172 48.6482 105.098C48.6366 105.024 48.6397 104.948 48.6574 104.875C48.8023 104.022 50.0549 102.554 50.9114 102.663C51.6262 102.753 52.8788 103.034 53.9318 102.95C54.3527 102.932 54.7629 102.812 55.1264 102.599C55.3223 102.473 55.5412 102.388 55.7704 102.348C56.8845 102.129 58.4011 102.67 59.0354 103.063C59.1594 103.144 59.3004 103.196 59.4476 103.214C59.8598 103.265 60.1785 103.063 60.668 103.632C60.8407 103.839 60.9918 104.062 61.1188 104.299C62.0848 105.999 62.6579 105.561 62.9638 108.752C63.1184 110.362 64.0264 112.417 65.2178 114.133C66.2482 115.617 67.4718 116.838 68.631 117.269C68.7981 117.332 68.9706 117.379 69.1462 117.411C71.2199 117.749 72.1537 119.101 73.1487 119.217C73.3971 119.25 73.6494 119.2 73.8668 119.076C74.0423 118.986 74.2269 118.916 74.4174 118.866C75.9179 118.477 78.291 118.837 78.291 118.837Z" fill="white"/>
<path opacity="0.1" d="M78.2911 118.837C78.2911 118.837 76.6361 122.234 73.094 122.36C73.094 122.36 71.0558 127.969 66.712 127.332C62.3682 126.694 58.6041 123.48 56.8395 115.92C55.2295 109.007 49.7555 105.854 48.8539 105.371C48.7509 105.117 48.6865 104.946 48.6575 104.875C48.7798 104.946 49.7008 103.761 51.2335 104.057C52.8821 104.379 55.3357 106.592 56.3275 110.951C57.3193 115.311 59.1869 124.099 63.463 126.159C67.7392 128.22 71.4615 125.648 72.054 124.005C72.6465 122.363 75.1742 118.554 78.2911 118.837Z" fill="black"/>
<path opacity="0.1" d="M74.4335 118.87C73.0521 119.478 71.3101 122.376 69.1688 122.354C67.0275 122.331 64.8476 119.642 65.4046 119.916C65.9617 120.19 67.9806 121.745 69.874 120.612C71.7673 119.478 74.4335 118.87 74.4335 118.87Z" fill="black"/>
<path opacity="0.1" d="M57.1905 106.762C56.1987 104.405 55.0492 103.401 53.9189 102.956C54.3399 102.939 54.7501 102.818 55.1136 102.605C55.3095 102.48 55.5284 102.394 55.7576 102.354C57.8409 103.855 58.3786 109.57 57.1905 106.762Z" fill="black"/>
<path opacity="0.1" d="M60.6681 103.639C60.5522 105.088 59.8599 106.881 59.8535 105.217C59.8743 104.529 59.7354 103.845 59.4478 103.22C59.8599 103.272 60.1787 103.069 60.6681 103.639Z" fill="black"/>
<path opacity="0.1" d="M68.6343 117.276C64.0587 117.884 59.8437 113.498 58.7296 110.752C58.3207 109.741 61.9496 113.218 63.9009 114.03C64.5095 114.287 64.9281 114.274 65.2211 114.139C66.2515 115.624 67.488 116.844 68.6343 117.276Z" fill="black"/>
<path d="M47.891 105.632L49.5718 104.515L49.8938 106.856C49.8938 106.856 48.5833 107.255 47.5754 106.424L47.891 105.632Z" fill="#FFC3BD"/>
<path d="M51.5491 104.689L51.4589 106.469L49.8844 106.856L49.572 104.515L51.5491 104.689Z" fill="#FFC3BD"/>
<path opacity="0.3" d="M47.2727 100.532C47.0335 102.153 46.6586 103.751 46.1522 105.31C45.4087 107.736 44.3083 110.038 42.8871 112.14C42.8871 112.14 35.2492 111.174 33.5491 110.681C33.7487 110.092 33.9323 109.541 34.1029 108.994C34.6878 107.136 35.0943 105.226 35.3169 103.291C35.436 102.377 35.5358 101.359 35.6389 100.148C35.6389 99.9681 35.6646 99.7846 35.6807 99.5946C35.787 98.1778 37.0685 97.3631 38.4692 97.6175C38.6657 97.6529 39.0875 97.6626 39.7572 97.756C39.8177 97.7601 39.8779 97.7676 39.9376 97.7785C40.8118 97.9253 41.6731 98.1406 42.5136 98.4225C42.9354 98.5577 43.4377 98.7445 43.9561 98.9796C45.5436 99.6397 47.2727 100.532 47.2727 100.532Z" fill="white"/>
<path d="M43.924 98.0651C43.6359 98.3892 43.4412 98.7853 43.3605 99.2114C43.3399 99.3081 43.3435 99.4084 43.371 99.5033C43.3985 99.5983 43.4491 99.685 43.5183 99.7556C43.367 100.722 42.0854 100.631 42.0854 100.631C40.5237 99.1084 40.5623 97.9782 40.5623 97.9782C40.9539 97.9201 41.3253 97.7667 41.6436 97.5315C41.962 97.2962 42.2176 96.9863 42.3881 96.629C42.6171 96.2113 42.7832 95.7621 42.8807 95.2959L44.6646 97.2504C44.398 97.5033 44.1504 97.7756 43.924 98.0651Z" fill="#EEC1BB"/>
<path opacity="0.2" d="M44.6647 97.244C44.398 97.4969 44.1505 97.7692 43.9241 98.0587C43.6359 98.3827 43.4412 98.7789 43.3606 99.205C43.0378 98.8604 42.7863 98.4554 42.6205 98.0134C42.4547 97.5713 42.3779 97.1008 42.3946 96.629C42.6236 96.2113 42.7896 95.7621 42.8872 95.2959L44.6647 97.244Z" fill="black"/>
<path d="M44.4747 89.0909C44.4747 89.0909 44.6228 87.394 42.9452 87.1589C41.2676 86.9238 39.6479 89.7735 42.3592 90.2179C45.0704 90.6623 44.4747 89.0909 44.4747 89.0909Z" fill="#263238"/>
<path d="M45.3312 89.4516C45.3312 89.4516 44.7613 88.6659 43.3831 89.1296C42.0049 89.5933 41.9116 91.0036 42.1949 91.0133C42.4783 91.023 45.08 90.0988 45.3312 89.4516Z" fill="#A38E23"/>
<path d="M43.6279 96.1427C43.6279 96.1427 40.614 96.0944 41.287 92.1081C41.9599 88.1217 48.2261 88.1571 48.049 91.7861C47.8719 95.415 43.6279 96.1427 43.6279 96.1427Z" fill="#263238"/>
<path d="M42.6361 91.9052C42.166 94.1302 41.918 95.0608 42.6844 96.542C43.8404 98.767 46.6031 98.9924 47.7108 96.9831C48.7058 95.1767 49.3208 91.8311 47.4629 90.2726C47.0803 89.9177 46.6089 89.6727 46.0986 89.5635C45.5882 89.4542 45.0579 89.4848 44.5635 89.652C44.0691 89.8193 43.6291 90.1169 43.2898 90.5134C42.9506 90.91 42.7247 91.3909 42.6361 91.9052Z" fill="#EEC1BB"/>
<path d="M45.0317 91.1517C43.28 92.1467 44.9158 94.8128 42.6167 93.7277C40.3176 92.6426 42.6425 89.7478 44.3426 89.5739C46.0428 89.4 45.0317 91.1517 45.0317 91.1517Z" fill="#263238"/>
<path d="M44.3395 89.6157C44.0497 91.1452 44.1238 91.6057 45.5341 91.7441C45.464 91.3837 45.5221 91.0101 45.6983 90.688C45.6792 91.0843 45.8155 91.4725 46.0783 91.7699C46.474 91.7655 46.8691 91.8033 47.2568 91.8826C47.2693 91.6561 47.3344 91.4356 47.4468 91.2386C47.4491 91.5135 47.5307 91.7818 47.6819 92.0114C48.0648 92.1763 48.4182 92.4025 48.7284 92.6811C49.3402 91.1871 47.4887 88.5499 44.3395 89.6157Z" fill="#263238"/>
<path d="M45.7626 93.6086C45.7143 93.7954 45.7626 93.9757 45.885 94.0143C46.0073 94.053 46.1329 93.9338 46.1812 93.7471C46.2295 93.5603 46.1812 93.38 46.0589 93.3414C45.9365 93.3027 45.8109 93.4251 45.7626 93.6086Z" fill="#263238"/>
<path d="M47.9233 94.3621C47.875 94.5456 47.9233 94.7259 48.0456 94.7646C48.168 94.8032 48.2936 94.6841 48.3419 94.5005C48.3902 94.317 48.3419 94.1334 48.2195 94.0948C48.0971 94.0562 47.978 94.1753 47.9233 94.3621Z" fill="#263238"/>
<path d="M48.1648 94.0884H48.622C48.622 94.0884 48.3161 94.375 48.1648 94.0884Z" fill="#263238"/>
<path d="M47.2407 94.4651C47.2878 94.9396 47.396 95.4061 47.5627 95.8529C47.4535 95.8899 47.3373 95.9016 47.223 95.8871C47.1086 95.8726 46.9991 95.8323 46.9026 95.7692L47.2407 94.4651Z" fill="#D4827D"/>
<path d="M45.724 96.117C45.8165 96.1677 45.9135 96.2097 46.0138 96.2426C46.0205 96.245 46.0278 96.246 46.0349 96.2453C46.0421 96.2446 46.049 96.2423 46.0552 96.2386C46.0614 96.2349 46.0666 96.2299 46.0706 96.2239C46.0746 96.2179 46.0772 96.211 46.0782 96.2039C46.0824 96.1898 46.081 96.1747 46.0745 96.1615C46.0679 96.1483 46.0565 96.1382 46.0428 96.1331C45.8162 96.0603 45.6092 95.937 45.4374 95.7725C45.2655 95.6079 45.1334 95.4064 45.051 95.1832C45.0472 95.1689 45.0381 95.1566 45.0255 95.1488C45.0129 95.141 44.9979 95.1384 44.9834 95.1413C44.9696 95.1464 44.9583 95.1566 44.9517 95.1697C44.9451 95.1829 44.9438 95.1981 44.948 95.2122C45.085 95.5998 45.3617 95.9225 45.724 96.117Z" fill="#263238"/>
<path d="M41.6056 93.8115C41.6145 94.0295 41.669 94.2433 41.7655 94.4391C41.862 94.6348 41.9983 94.8082 42.1658 94.9481C42.5909 95.2701 43.0288 94.8097 43.0996 94.1947C43.1608 93.6376 43.0127 92.8004 42.4943 92.7231C41.9759 92.6458 41.5669 93.2287 41.6056 93.8115Z" fill="#EEC1BB"/>
<path d="M45.563 92.414C45.5766 92.4203 45.5915 92.4236 45.6065 92.4236C45.6215 92.4236 45.6363 92.4203 45.65 92.414C45.7704 92.3529 45.9042 92.3229 46.0392 92.3268C46.1742 92.3308 46.3061 92.3685 46.4227 92.4365C46.4346 92.4446 46.448 92.4501 46.4621 92.4526C46.4762 92.4552 46.4907 92.4548 46.5046 92.4515C46.5186 92.4482 46.5317 92.442 46.5431 92.4333C46.5545 92.4246 46.5639 92.4136 46.5709 92.4011C46.5848 92.3746 46.5886 92.3439 46.5815 92.3149C46.5744 92.2858 46.5569 92.2603 46.5322 92.2433C46.3868 92.1581 46.2225 92.11 46.0541 92.1032C45.8856 92.0965 45.718 92.1313 45.5662 92.2047C45.5404 92.219 45.5211 92.2426 45.5121 92.2708C45.5031 92.2989 45.5052 92.3294 45.5179 92.356C45.5261 92.3798 45.5419 92.4002 45.563 92.414Z" fill="#263238"/>
<path d="M48.8151 93.5538C48.8278 93.5594 48.8415 93.5623 48.8554 93.5623C48.8693 93.5623 48.883 93.5594 48.8956 93.5538C48.9092 93.5488 48.9216 93.5412 48.9321 93.5312C48.9426 93.5213 48.951 93.5094 48.9567 93.4961C48.9624 93.4829 48.9654 93.4686 48.9654 93.4541C48.9654 93.4397 48.9625 93.4254 48.9568 93.4121C48.9043 93.2402 48.8128 93.0827 48.6894 92.9519C48.5659 92.8212 48.4139 92.7208 48.2452 92.6586C48.2314 92.6548 48.217 92.6539 48.2029 92.656C48.1888 92.658 48.1752 92.663 48.1631 92.6706C48.151 92.6781 48.1406 92.6881 48.1325 92.6999C48.1245 92.7117 48.119 92.7251 48.1164 92.7391C48.1102 92.7681 48.115 92.7983 48.1299 92.8239C48.1448 92.8495 48.1687 92.8686 48.1969 92.8776C48.3297 92.9292 48.4491 93.0101 48.5461 93.1144C48.6431 93.2187 48.7153 93.3436 48.7572 93.4797C48.7609 93.4955 48.7681 93.5103 48.7781 93.5231C48.7881 93.5359 48.8007 93.5464 48.8151 93.5538Z" fill="#263238"/>
<path d="M46.0042 93.3348H46.4614C46.4614 93.3348 46.1555 93.6246 46.0042 93.3348Z" fill="#263238"/>
<path d="M48.036 111.908C47.7591 112.062 38.3084 117.33 35.6969 116.738C33.0855 116.145 32.9954 112.133 32.9954 112.133L33.8326 109.071C33.9263 109.056 34.0174 109.028 34.103 108.987C35.6197 108.276 38.3889 103.546 38.3889 103.546C38.3889 103.546 38.9395 99.1567 39.7445 97.7495C39.805 97.7536 39.8652 97.7612 39.9248 97.7721C39.7801 98.1669 39.6723 98.5744 39.6028 98.9892C39.474 99.7298 39.2067 102.476 39.2067 102.476L45.1476 103.584C44.6582 100.042 43.9852 99.0214 43.9466 98.9602C45.3151 99.9906 46.1394 105.304 46.1394 105.304C45.782 107.535 44.2396 111.032 43.763 111.795C43.2865 112.558 43.5151 112.896 43.5151 112.896L48.036 111.908Z" fill="#A38E23"/>
<path opacity="0.2" d="M39.1326 100.957C39.1326 100.957 36.5115 103.001 35.3169 103.291C35.436 102.377 35.5359 101.359 35.6389 100.148C36.3151 99.4271 37.3552 98.973 38.8235 99.3659C38.9931 99.881 39.0969 100.415 39.1326 100.957Z" fill="black"/>
<path d="M38.2761 99.5302C38.4725 100.274 38.6625 101.047 38.8718 101.784C39.0811 102.522 39.2743 103.304 39.4932 104.038C39.7122 104.772 39.9376 105.526 40.1952 106.218C40.324 106.563 40.4528 106.904 40.5913 107.184C40.6235 107.255 40.6589 107.319 40.6911 107.381L40.7362 107.458C40.6846 107.41 40.6492 107.413 40.6911 107.435C40.9116 107.504 41.1435 107.529 41.3737 107.509C41.7134 107.491 42.0513 107.448 42.3848 107.381C43.122 107.231 43.8499 107.038 44.5647 106.804C45.3021 106.576 46.0363 106.311 46.7672 106.025C47.4982 105.738 48.2388 105.452 48.9568 105.159H48.9729C49.1333 105.102 49.309 105.105 49.4674 105.167C49.6258 105.229 49.7563 105.347 49.8347 105.498C49.9132 105.649 49.9344 105.824 49.8944 105.989C49.8543 106.155 49.7558 106.3 49.6169 106.398C48.9246 106.856 48.2259 107.255 47.511 107.661C46.7962 108.066 46.0588 108.417 45.3053 108.759C44.5336 109.113 43.7373 109.411 42.9225 109.651C42.4808 109.779 42.0297 109.873 41.5734 109.931C41.0076 110.016 40.4303 109.98 39.8796 109.825C39.4801 109.704 39.1186 109.482 38.8299 109.181L38.7172 109.045L38.6657 108.981L38.6367 108.939L38.5144 108.765C38.4435 108.656 38.3759 108.546 38.3147 108.443C38.0926 108.052 37.8926 107.649 37.7158 107.236C37.3777 106.447 37.0911 105.671 36.8367 104.888C36.5824 104.106 36.3409 103.33 36.1187 102.547C35.8965 101.765 35.6969 100.986 35.523 100.174C35.4346 99.8095 35.4947 99.4247 35.69 99.1043C35.8854 98.784 36.2 98.5544 36.5646 98.466C36.9293 98.3776 37.3141 98.4377 37.6345 98.633C37.9548 98.8284 38.1845 99.143 38.2729 99.5076L38.2761 99.5302Z" fill="#EABDBD"/>
<path d="M38.0732 97.7914C36.8013 97.2826 34.6858 98.2486 35.2782 101.436L38.8202 100.883C38.8202 100.883 39.11 98.21 38.0732 97.7914Z" fill="#263238"/>
<path opacity="0.3" d="M38.0732 97.7914C36.8013 97.2826 34.6858 98.2486 35.2782 101.436L38.8202 100.883C38.8202 100.883 39.11 98.21 38.0732 97.7914Z" fill="white"/>
<path d="M35.1206 101.127L38.9041 100.512L38.9234 100.921L35.1753 101.71L35.1206 101.127Z" fill="#263238"/>
<path d="M89.2391 134.174H136.737V92.1049H89.2391V134.174Z" fill="#A38E23"/>
<path opacity="0.6" d="M89.2391 134.174H136.737V92.1049H89.2391V134.174Z" fill="#FAFAFA"/>
<path opacity="0.3" d="M89.2359 134.174H116.477V92.1049H89.2359V134.174Z" fill="white"/>
<path opacity="0.2" d="M116.48 96.1073H89.239V96.6611H116.48V96.1073Z" fill="black"/>
<path opacity="0.2" d="M136.737 127.953H89.239V128.665H136.737V127.953Z" fill="black"/>
<path opacity="0.2" d="M109.622 94.0851C109.622 94.1819 109.593 94.2766 109.539 94.3571C109.485 94.4375 109.409 94.5003 109.32 94.5373C109.23 94.5744 109.132 94.5841 109.037 94.5652C108.942 94.5463 108.855 94.4997 108.786 94.4312C108.718 94.3628 108.671 94.2756 108.652 94.1806C108.633 94.0857 108.643 93.9873 108.68 93.8978C108.717 93.8084 108.78 93.732 108.86 93.6782C108.941 93.6244 109.035 93.5957 109.132 93.5957C109.262 93.5957 109.387 93.6473 109.478 93.7391C109.57 93.8308 109.622 93.9553 109.622 94.0851Z" fill="black"/>
<path opacity="0.2" d="M111.508 94.0852C111.509 94.1829 111.481 94.2786 111.427 94.3601C111.373 94.4416 111.296 94.5052 111.206 94.5429C111.116 94.5806 111.016 94.5906 110.921 94.5717C110.825 94.5528 110.737 94.5058 110.667 94.4367C110.598 94.3676 110.551 94.2795 110.533 94.1837C110.514 94.0878 110.524 93.9885 110.561 93.8983C110.599 93.8082 110.663 93.7313 110.744 93.6774C110.826 93.6235 110.921 93.5951 111.019 93.5957C111.149 93.5957 111.273 93.6473 111.365 93.7391C111.457 93.8309 111.508 93.9553 111.508 94.0852Z" fill="black"/>
<path opacity="0.2" d="M94.1013 94.5746C94.3716 94.5746 94.5907 94.3554 94.5907 94.0851C94.5907 93.8148 94.3716 93.5957 94.1013 93.5957C93.8309 93.5957 93.6118 93.8148 93.6118 94.0851C93.6118 94.3554 93.8309 94.5746 94.1013 94.5746Z" fill="black"/>
<path opacity="0.2" d="M96.4777 94.0851C96.4777 94.1819 96.449 94.2766 96.3952 94.3571C96.3414 94.4375 96.265 94.5003 96.1755 94.5373C96.0861 94.5744 95.9877 94.5841 95.8927 94.5652C95.7978 94.5463 95.7106 94.4997 95.6421 94.4312C95.5737 94.3628 95.5271 94.2756 95.5082 94.1806C95.4893 94.0857 95.499 93.9873 95.536 93.8978C95.5731 93.8084 95.6358 93.732 95.7163 93.6782C95.7968 93.6244 95.8914 93.5957 95.9882 93.5957C96.118 93.5957 96.2425 93.6473 96.3343 93.7391C96.4261 93.8308 96.4777 93.9553 96.4777 94.0851Z" fill="black"/>
<path opacity="0.2" d="M106.582 92.897H98.5416C98.3495 92.897 98.1938 93.0527 98.1938 93.2447V94.9256C98.1938 95.1176 98.3495 95.2733 98.5416 95.2733H106.582C106.774 95.2733 106.93 95.1176 106.93 94.9256V93.2447C106.93 93.0527 106.774 92.897 106.582 92.897Z" fill="black"/>
<path opacity="0.3" d="M92.3141 97.7688H90.8684C90.6443 97.7688 90.4626 97.9504 90.4626 98.1745V100.689C90.4626 100.913 90.6443 101.095 90.8684 101.095H92.3141C92.5382 101.095 92.7199 100.913 92.7199 100.689V98.1745C92.7199 97.9504 92.5382 97.7688 92.3141 97.7688Z" fill="white"/>
<path opacity="0.1" d="M92.3078 99.1759C92.3078 99.7169 91.9858 100.142 91.593 100.142C91.2001 100.142 90.8813 99.704 90.8813 99.1759C90.8813 98.6479 91.2034 98.1938 91.593 98.1938C91.9826 98.1938 92.3078 98.6285 92.3078 99.1759Z" fill="black"/>
<path opacity="0.1" d="M92.3463 100.435H90.8394V100.683H92.3463V100.435Z" fill="black"/>
<path d="M102.56 124.292C107.476 124.292 111.46 118.863 111.46 112.165C111.46 105.468 107.476 100.039 102.56 100.039C97.6449 100.039 93.6602 105.468 93.6602 112.165C93.6602 118.863 97.6449 124.292 102.56 124.292Z" fill="#A38E23"/>
<path opacity="0.3" d="M109.96 112.165C109.96 117.504 107.204 121.935 103.629 122.679C103.278 122.752 102.92 122.79 102.56 122.791C101.596 122.787 100.651 122.527 99.8201 122.038C99.6077 121.917 99.4034 121.783 99.2083 121.635C97.9761 120.68 97.0058 119.428 96.3875 117.997C96.112 117.394 95.8848 116.771 95.7081 116.132C95.6276 115.859 95.56 115.582 95.4988 115.295C95.2818 114.269 95.1739 113.224 95.1768 112.175C95.1768 106.318 98.4934 101.549 102.583 101.549C102.942 101.55 103.3 101.586 103.652 101.659C104.197 101.775 104.722 101.972 105.21 102.241C105.384 102.335 105.552 102.441 105.722 102.563C106.126 102.838 106.501 103.152 106.843 103.5C107.841 104.546 108.608 105.789 109.097 107.149C109.198 107.404 109.288 107.665 109.367 107.931C109.771 109.306 109.97 110.733 109.96 112.165Z" fill="white"/>
<path opacity="0.2" d="M109.96 112.165C109.96 117.504 107.203 121.935 103.629 122.679C100.055 121.932 97.302 117.501 97.302 112.165C97.302 106.83 100.055 102.399 103.629 101.652C107.203 102.396 109.96 106.83 109.96 112.165Z" fill="black"/>
<path opacity="0.1" d="M105.188 102.235C101.351 106.099 98.0855 110.49 95.4891 115.276C95.2721 114.25 95.1641 113.204 95.1671 112.156C95.1671 106.299 98.4836 101.53 102.573 101.53C102.932 101.53 103.29 101.567 103.642 101.639C104.184 101.761 104.704 101.962 105.188 102.235Z" fill="white"/>
<path opacity="0.1" d="M106.82 103.484C102.599 107.735 99.0753 112.625 96.3779 117.974C96.1024 117.372 95.8752 116.748 95.6985 116.11C98.3432 111.115 101.714 106.541 105.7 102.534C106.104 102.813 106.479 103.131 106.82 103.484Z" fill="white"/>
<path opacity="0.1" d="M109.342 107.915C105.481 112.121 102.272 116.882 99.8201 122.038C99.6077 121.917 99.4034 121.783 99.2083 121.636C101.735 116.327 105.065 111.44 109.081 107.146C109.175 107.392 109.262 107.649 109.342 107.915Z" fill="white"/>
<path opacity="0.2" d="M111.46 112.165C111.46 118.863 107.477 124.292 102.56 124.292H102.396C107.245 124.186 111.148 118.799 111.148 112.169C111.148 105.539 107.258 100.142 102.396 100.042H102.547C107.477 100.039 111.46 105.468 111.46 112.165Z" fill="black"/>
<path d="M100.309 128.272C102.261 126.662 102.016 124.769 99.6011 123.416C97.1861 122.064 96.8898 122.038 94.9804 122.45C93.0709 122.862 93.5861 121.929 90.8781 122.363C88.1701 122.798 86.2155 123.667 86.676 124.897C87.1365 126.127 97.244 130.78 100.309 128.272Z" fill="#263238"/>
<path opacity="0.3" d="M100.309 128.272C102.261 126.662 102.016 124.769 99.6011 123.416C97.1861 122.064 96.8898 122.038 94.9804 122.45C93.0709 122.862 93.5861 121.929 90.8781 122.363C88.1701 122.798 86.2155 123.667 86.676 124.897C87.1365 126.127 97.244 130.78 100.309 128.272Z" fill="white"/>
<path d="M95.1318 126.63C96.0141 124.917 93.8728 124.827 92.0889 123.429C90.305 122.032 89.0621 120.013 87.3426 121.149C85.6231 122.286 85.797 123.014 83.0214 123.429C80.2457 123.844 79.5728 123.941 78.3331 124.517C77.0934 125.094 76.356 124.839 76.3399 126.063C76.3238 127.287 74.585 128.262 79.5599 128.381C84.5348 128.501 94.3236 128.201 95.1318 126.63Z" fill="#A38E23"/>
<path opacity="0.5" d="M95.1318 126.63C96.0141 124.917 93.8728 124.827 92.0889 123.429C90.305 122.032 89.0621 120.013 87.3426 121.149C85.6231 122.286 85.797 123.014 83.0214 123.429C80.2457 123.844 79.5728 123.941 78.3331 124.517C77.0934 125.094 76.356 124.839 76.3399 126.063C76.3238 127.287 74.585 128.262 79.5599 128.381C84.5348 128.501 94.3236 128.201 95.1318 126.63Z" fill="white"/>
<path d="M92.2466 131.418C92.4076 130.387 90.3146 129.07 88.5532 127.67C86.7919 126.269 86.8724 126.266 84.1611 126.427C81.4499 126.588 81.2213 126.617 79.5372 126.282C77.8532 125.947 77.5022 125.992 76.095 126.427C74.6879 126.862 73.841 126.836 73.6833 127.889C73.5255 128.942 72.2471 133.263 75.3705 133.54C78.4939 133.817 92.0566 132.664 92.2466 131.418Z" fill="#A38E23"/>
<path opacity="0.3" d="M92.2466 131.418C92.4076 130.387 90.3146 129.07 88.5532 127.67C86.7919 126.269 86.8724 126.266 84.1611 126.427C81.4499 126.588 81.2213 126.617 79.5372 126.282C77.8532 125.947 77.5022 125.992 76.095 126.427C74.6879 126.862 73.841 126.836 73.6833 127.889C73.5255 128.942 72.2471 133.263 75.3705 133.54C78.4939 133.817 92.0566 132.664 92.2466 131.418Z" fill="white"/>
<path d="M100.538 132.413C100.406 131.656 98.7059 130.98 96.9575 130.822C95.4711 130.723 94.0326 130.256 92.7715 129.463C91.3031 128.623 90.6173 128.584 89.4452 129.463C88.2731 130.342 87.7676 130.568 86.0481 130.429C85.1111 130.318 84.166 130.291 83.2242 130.349C81.685 130.397 81.5369 130.204 80.4743 130.78C79.4117 131.357 78.9673 130.603 78.0657 131.408C77.1641 132.213 76.5266 132.223 76.3495 132.616C76.1724 133.009 75.6411 133.286 76.562 133.53C77.4829 133.775 99.7106 133.955 100.029 133.53C100.348 133.105 100.583 132.664 100.538 132.413Z" fill="#263238"/>
<path d="M99.2374 132.319C100.979 131.817 100.941 131.753 101.356 129.821C101.771 127.889 103.079 127.966 101.095 127.293C99.1118 126.62 98.1651 126.362 96.5873 126.282C95.0095 126.201 93.7795 126.713 92.4013 126.459C91.0231 126.205 91.5383 126.33 89.5033 125.886C87.4683 125.442 86.8854 125.074 85.3946 125.757C83.9037 126.44 82.2422 125.593 82.9731 127.299C83.7041 129.006 95.0739 133.517 99.2374 132.319Z" fill="#A38E23"/>
<path opacity="0.4" d="M82.9826 127.299C83.3465 128.146 86.3218 129.682 89.7446 130.87C91.5853 131.528 93.4807 132.02 95.4086 132.342C96.922 132.574 98.2744 132.6 99.2372 132.323L99.6654 132.197C100.976 131.795 100.982 131.582 101.356 129.827C101.445 129.415 101.596 129.019 101.804 128.652C102.235 127.885 102.544 127.792 101.095 127.299C99.1116 126.626 98.1649 126.369 96.5871 126.288C95.747 126.282 94.9079 126.346 94.0788 126.482C93.5228 126.559 92.9584 126.552 92.4043 126.462C91.0326 126.208 91.5414 126.337 89.5063 125.889C87.964 125.567 87.2523 125.261 86.3572 125.438C86.023 125.505 85.6984 125.613 85.3912 125.76C83.9132 126.44 82.2485 125.58 82.9826 127.299Z" fill="black"/>
<path opacity="0.3" d="M88.6821 126.546C89.8928 127.106 89.8606 127.29 90.8781 127.303C91.8956 127.316 92.3142 127.193 93.203 127.892C94.0917 128.591 94.8935 128.626 94.6391 127.448C94.5544 127.078 94.3616 126.742 94.0852 126.482C93.5293 126.559 92.9649 126.552 92.4108 126.462C91.0391 126.208 91.5479 126.337 89.5128 125.889C87.9705 125.567 87.2588 125.261 86.3637 125.438C85.5039 126.111 87.6066 126.044 88.6821 126.546Z" fill="white"/>
<path opacity="0.3" d="M96.5357 126.968C96.6452 127.892 97.9428 128.304 98.2809 129.26C98.619 130.217 97.4212 130.091 98.6512 131.106C99.026 131.431 99.3659 131.795 99.6655 132.191C100.976 131.788 100.983 131.576 101.356 129.821C101.445 129.409 101.596 129.012 101.804 128.645C100.912 127.972 100.01 128.369 98.7607 127.889C97.0251 127.222 96.4262 126.044 96.5357 126.968Z" fill="white"/>
<path opacity="0.3" d="M89.0556 129.743C89.3301 130.089 89.5605 130.468 89.7414 130.87C91.5831 131.528 93.4797 132.02 95.4086 132.342C95.6373 131.273 94.9643 131.054 93.7536 130.236C92.282 129.235 91.725 128.79 90.6656 128.855C89.6062 128.919 89.6384 129.177 88.5533 128.311C87.4681 127.444 86.6953 126.845 86.1608 126.845C85.6263 126.845 87.803 128.188 89.0556 129.743Z" fill="white"/>
<path d="M75.728 123.593C75.6997 123.544 75.6848 123.489 75.6848 123.432C75.6848 123.376 75.6997 123.32 75.728 123.271L76.5587 121.806C76.673 121.608 76.8379 121.444 77.0366 121.331C77.2352 121.218 77.4603 121.16 77.6889 121.162H80.9089C81.103 121.161 81.2947 121.204 81.4697 121.288C81.6448 121.372 81.7988 121.494 81.92 121.645L83.1565 123.178C83.1944 123.225 83.2184 123.281 83.2258 123.341C83.2332 123.401 83.2237 123.461 83.1984 123.516C83.1727 123.571 83.1319 123.618 83.0806 123.651C83.0292 123.685 82.9696 123.702 82.9086 123.703L76.0049 123.764C75.9477 123.763 75.892 123.746 75.8433 123.716C75.7946 123.686 75.7548 123.644 75.728 123.593ZM81.4209 122.038C81.3603 121.961 81.2829 121.899 81.1948 121.857C81.1066 121.815 81.01 121.793 80.9122 121.793H77.6922C77.5774 121.793 77.4644 121.822 77.3645 121.879C77.2645 121.935 77.181 122.017 77.1222 122.115L76.5652 123.081L82.2452 123.03L81.4209 122.038Z" fill="#A38E23"/>
<path d="M99.9844 123.751L93.0807 123.69C93.0196 123.689 92.96 123.672 92.9087 123.639C92.8574 123.605 92.8165 123.558 92.7909 123.503C92.7655 123.448 92.756 123.388 92.7634 123.328C92.7708 123.268 92.7948 123.212 92.8327 123.165L94.0724 121.632C94.1934 121.481 94.3468 121.359 94.5212 121.276C94.6957 121.192 94.8868 121.149 95.0803 121.149H98.3003C98.5289 121.147 98.754 121.205 98.9527 121.318C99.1513 121.431 99.3162 121.595 99.4305 121.793L100.264 123.258C100.293 123.307 100.308 123.363 100.308 123.419C100.308 123.476 100.293 123.531 100.264 123.58C100.236 123.628 100.195 123.668 100.147 123.696C100.098 123.724 100.043 123.738 99.9876 123.738L99.9844 123.751ZM95.0803 121.793C94.9825 121.793 94.8858 121.814 94.7977 121.857C94.7095 121.899 94.6322 121.961 94.5715 122.038L93.7536 123.052L99.4305 123.104L98.8734 122.138C98.8146 122.039 98.7312 121.958 98.6312 121.901C98.5313 121.845 98.4183 121.815 98.3035 121.816L95.0803 121.793Z" fill="#A38E23"/>
<g opacity="0.2">
<path d="M75.728 123.593C75.6997 123.544 75.6848 123.489 75.6848 123.432C75.6848 123.376 75.6997 123.32 75.728 123.271L76.5587 121.806C76.673 121.608 76.8379 121.444 77.0366 121.331C77.2352 121.218 77.4603 121.16 77.6889 121.162H80.9089C81.103 121.161 81.2947 121.204 81.4697 121.288C81.6448 121.372 81.7988 121.494 81.92 121.645L83.1565 123.178C83.1944 123.225 83.2184 123.281 83.2258 123.341C83.2332 123.401 83.2237 123.461 83.1984 123.516C83.1727 123.571 83.1319 123.618 83.0806 123.651C83.0292 123.685 82.9696 123.702 82.9086 123.703L76.0049 123.764C75.9477 123.763 75.892 123.746 75.8433 123.716C75.7946 123.686 75.7548 123.644 75.728 123.593ZM81.4209 122.038C81.3603 121.961 81.2829 121.899 81.1948 121.857C81.1066 121.815 81.01 121.793 80.9122 121.793H77.6922C77.5774 121.793 77.4644 121.822 77.3645 121.879C77.2645 121.935 77.181 122.017 77.1222 122.115L76.5652 123.081L82.2452 123.03L81.4209 122.038Z" fill="black"/>
</g>
<g opacity="0.2">
<path d="M99.9844 123.751L93.0807 123.69C93.0196 123.689 92.96 123.672 92.9087 123.639C92.8574 123.605 92.8165 123.558 92.7909 123.503C92.7655 123.448 92.756 123.388 92.7634 123.328C92.7708 123.268 92.7948 123.212 92.8327 123.165L94.0724 121.632C94.1934 121.481 94.3468 121.359 94.5212 121.276C94.6957 121.192 94.8868 121.149 95.0803 121.149H98.3003C98.5289 121.147 98.754 121.205 98.9527 121.318C99.1513 121.431 99.3162 121.595 99.4305 121.793L100.264 123.258C100.293 123.307 100.308 123.363 100.308 123.419C100.308 123.476 100.293 123.531 100.264 123.58C100.236 123.628 100.195 123.668 100.147 123.696C100.098 123.724 100.043 123.738 99.9876 123.738L99.9844 123.751ZM95.0803 121.793C94.9825 121.793 94.8858 121.814 94.7977 121.857C94.7095 121.899 94.6322 121.961 94.5715 122.038L93.7536 123.052L99.4305 123.104L98.8734 122.138C98.8146 122.039 98.7312 121.958 98.6312 121.901C98.5313 121.845 98.4183 121.815 98.3035 121.816L95.0803 121.793Z" fill="black"/>
</g>
<path d="M71.233 123.667L73.809 133.701C73.8459 133.835 73.9255 133.954 74.0359 134.04C74.1462 134.125 74.2813 134.172 74.4208 134.174H100.718C100.858 134.172 100.993 134.125 101.103 134.04C101.214 133.954 101.293 133.835 101.33 133.701L103.906 123.667C103.928 123.592 103.933 123.513 103.919 123.436C103.904 123.358 103.873 123.286 103.825 123.223C103.778 123.16 103.717 123.11 103.646 123.075C103.576 123.04 103.499 123.023 103.42 123.023H71.7224C71.6439 123.023 71.5664 123.041 71.496 123.075C71.4255 123.11 71.3642 123.16 71.3167 123.223C71.2692 123.285 71.2369 123.358 71.2224 123.435C71.2078 123.512 71.2115 123.592 71.233 123.667ZM98.9443 132.603L101.198 124.514C101.209 124.473 101.229 124.435 101.255 124.402C101.28 124.368 101.313 124.34 101.35 124.319C101.386 124.298 101.427 124.285 101.469 124.28C101.511 124.274 101.554 124.278 101.594 124.289C101.635 124.3 101.673 124.319 101.707 124.345C101.74 124.371 101.768 124.403 101.789 124.44C101.81 124.477 101.824 124.517 101.829 124.559C101.834 124.601 101.831 124.644 101.82 124.685L99.5657 132.773C99.5463 132.843 99.5039 132.904 99.4455 132.947C99.3871 132.989 99.316 133.011 99.2437 133.009H99.1568C99.1161 132.996 99.0782 132.976 99.0454 132.948C99.0126 132.921 98.9856 132.888 98.9658 132.85C98.946 132.812 98.934 132.771 98.9303 132.729C98.9266 132.686 98.9313 132.643 98.9443 132.603ZM96.9672 132.603L98.9668 124.514C98.9756 124.472 98.9928 124.432 99.0175 124.396C99.0422 124.36 99.0738 124.33 99.1105 124.307C99.1472 124.284 99.1881 124.268 99.2309 124.261C99.2737 124.255 99.3174 124.256 99.3595 124.267C99.4016 124.277 99.4411 124.296 99.4757 124.322C99.5104 124.348 99.5394 124.381 99.561 124.418C99.5827 124.456 99.5966 124.497 99.6018 124.54C99.607 124.583 99.6035 124.627 99.5915 124.669L97.5919 132.757C97.5742 132.829 97.5327 132.892 97.4741 132.937C97.4155 132.981 97.3434 133.004 97.2699 133.002H97.1926C97.1109 132.98 97.0414 132.926 96.9992 132.852C96.957 132.778 96.9455 132.691 96.9672 132.609V132.603ZM94.9901 132.603L96.7289 124.514C96.7468 124.429 96.798 124.354 96.871 124.306C96.9441 124.259 97.0331 124.242 97.1185 124.26C97.2039 124.278 97.2787 124.329 97.3264 124.402C97.3741 124.475 97.3908 124.564 97.3729 124.649L95.6341 132.754C95.6184 132.827 95.5777 132.893 95.5189 132.939C95.4601 132.986 95.387 133.01 95.3121 133.009C95.2886 133.012 95.2648 133.012 95.2413 133.009C95.1988 133 95.1585 132.983 95.1227 132.959C95.0869 132.935 95.0564 132.903 95.0329 132.867C95.0095 132.831 94.9936 132.79 94.9863 132.747C94.9789 132.705 94.9802 132.661 94.9901 132.619V132.603ZM93.013 132.603L94.4942 124.514C94.5099 124.431 94.5579 124.357 94.6279 124.308C94.6979 124.26 94.7841 124.242 94.8678 124.257C94.9097 124.264 94.9498 124.28 94.9857 124.303C95.0216 124.326 95.0526 124.355 95.0769 124.39C95.1011 124.426 95.1182 124.465 95.1271 124.507C95.136 124.548 95.1365 124.591 95.1286 124.633L93.6442 132.722C93.6298 132.796 93.5896 132.863 93.5307 132.911C93.4718 132.959 93.3979 132.984 93.3222 132.983H93.2642C93.1857 132.966 93.1164 132.92 93.0699 132.854C93.0235 132.789 93.0032 132.708 93.013 132.629V132.603ZM91.0327 132.603L92.2596 124.514C92.2719 124.429 92.3177 124.352 92.3869 124.3C92.456 124.249 92.5428 124.226 92.6282 124.239C92.7136 124.251 92.7906 124.297 92.8423 124.366C92.8939 124.435 92.9159 124.522 92.9036 124.608L91.68 132.696C91.6683 132.773 91.6293 132.843 91.5701 132.893C91.511 132.944 91.4356 132.971 91.358 132.97H91.3097C91.2312 132.959 91.1595 132.919 91.1084 132.859C91.0573 132.798 91.0304 132.721 91.0327 132.641V132.603ZM89.0557 132.603L90.0217 124.514C90.0265 124.472 90.0397 124.431 90.0603 124.394C90.081 124.357 90.1088 124.324 90.1422 124.297C90.1755 124.271 90.2137 124.251 90.2546 124.24C90.2956 124.228 90.3384 124.224 90.3807 124.229C90.423 124.234 90.4639 124.247 90.5011 124.268C90.5383 124.289 90.5711 124.316 90.5975 124.35C90.624 124.383 90.6436 124.421 90.6553 124.462C90.667 124.503 90.6705 124.546 90.6657 124.588L89.6997 132.677C89.6902 132.755 89.6521 132.828 89.5927 132.88C89.5333 132.932 89.4568 132.961 89.3777 132.96H89.339C89.2647 132.951 89.1958 132.917 89.1441 132.863C89.0924 132.809 89.0611 132.739 89.0557 132.664V132.603ZM84.435 132.625L84.757 124.537C84.7604 124.451 84.7976 124.371 84.8604 124.313C84.9232 124.255 85.0064 124.224 85.0918 124.228C85.1772 124.231 85.2578 124.268 85.3157 124.331C85.3737 124.394 85.4044 124.477 85.401 124.562L85.079 132.651C85.079 132.737 85.045 132.818 84.9846 132.879C84.9243 132.939 84.8424 132.973 84.757 132.973C84.6737 132.973 84.5937 132.941 84.5337 132.883C84.4737 132.826 84.4383 132.747 84.435 132.664V132.625ZM82.5223 124.614C82.5223 124.529 82.5562 124.447 82.6166 124.386C82.677 124.326 82.7589 124.292 82.8443 124.292C82.9297 124.292 83.0116 124.326 83.072 124.386C83.1324 124.447 83.1663 124.529 83.1663 124.614L83.2307 132.703C83.2307 132.788 83.1967 132.87 83.1364 132.93C83.076 132.991 82.9941 133.025 82.9087 133.025C82.8233 133.025 82.7414 132.991 82.681 132.93C82.6206 132.87 82.5867 132.788 82.5867 132.703L82.5223 124.614ZM80.2908 124.63C80.2861 124.545 80.3155 124.461 80.3726 124.397C80.4297 124.334 80.5097 124.295 80.5951 124.29C80.6805 124.286 80.7643 124.315 80.828 124.372C80.8917 124.429 80.9301 124.509 80.9348 124.595L81.3856 132.683C81.3878 132.726 81.3816 132.768 81.3674 132.808C81.3532 132.848 81.3312 132.884 81.3028 132.916C81.2744 132.947 81.2401 132.973 81.2018 132.991C81.1635 133.009 81.122 133.019 81.0797 133.021H81.0636C80.9815 133.022 80.9024 132.99 80.8425 132.934C80.7826 132.878 80.7465 132.801 80.7416 132.719L80.2908 124.63ZM78.0561 124.646C78.0517 124.604 78.0557 124.561 78.0679 124.52C78.0801 124.48 78.1002 124.442 78.1272 124.409C78.1541 124.376 78.1873 124.348 78.2249 124.328C78.2624 124.308 78.3036 124.296 78.3459 124.292C78.4304 124.284 78.5146 124.309 78.5804 124.363C78.6461 124.417 78.688 124.494 78.6969 124.579L79.5341 132.664C79.5386 132.706 79.5346 132.749 79.5224 132.79C79.5102 132.831 79.49 132.869 79.4631 132.902C79.4361 132.934 79.4029 132.962 79.3654 132.982C79.3278 133.002 79.2867 133.014 79.2443 133.018H79.2121C79.1325 133.019 79.0556 132.99 78.9961 132.937C78.9366 132.884 78.8989 132.811 78.8901 132.732L78.0561 124.646ZM77.0515 132.748L75.8247 124.659C75.8127 124.575 75.8344 124.49 75.885 124.421C75.9357 124.353 76.0112 124.308 76.0952 124.295C76.137 124.289 76.1797 124.291 76.2209 124.301C76.262 124.311 76.3007 124.329 76.3348 124.354C76.3689 124.379 76.3977 124.411 76.4196 124.447C76.4414 124.484 76.4559 124.524 76.4622 124.566L77.6858 132.654C77.6978 132.738 77.6761 132.824 77.6255 132.892C77.5748 132.96 77.4993 133.005 77.4154 133.018H77.3671C77.2891 133.017 77.2141 132.988 77.156 132.936C77.098 132.884 77.0608 132.812 77.0515 132.735V132.748ZM73.5932 124.675C73.585 124.633 73.5851 124.589 73.5937 124.547C73.6023 124.505 73.6191 124.465 73.6431 124.429C73.6672 124.393 73.6981 124.363 73.734 124.339C73.7699 124.315 73.8101 124.299 73.8524 124.29C73.8947 124.282 73.9382 124.282 73.9804 124.291C74.0227 124.299 74.0628 124.316 74.0985 124.34C74.1342 124.364 74.1649 124.395 74.1887 124.431C74.2125 124.467 74.229 124.507 74.2372 124.55L75.8472 132.638C75.8556 132.68 75.8557 132.723 75.8475 132.765C75.8392 132.806 75.8228 132.846 75.7992 132.881C75.7755 132.917 75.7451 132.947 75.7097 132.97C75.6743 132.994 75.6346 133.01 75.5928 133.018H75.5317C75.4563 133.02 75.3828 132.995 75.324 132.948C75.2652 132.901 75.2247 132.834 75.2097 132.761L73.5932 124.675Z" fill="#A38E23"/>
<path opacity="0.2" d="M71.2329 123.667L73.8089 133.701C73.8458 133.835 73.9255 133.954 74.0358 134.04C74.1461 134.125 74.2812 134.172 74.4207 134.174H86.1415C86.2959 134.172 86.4443 134.114 86.5596 134.011C86.6749 133.908 86.7493 133.767 86.7694 133.614L87.906 123.597C87.9137 123.526 87.9065 123.455 87.8847 123.387C87.863 123.319 87.8273 123.257 87.7799 123.204C87.7325 123.151 87.6745 123.109 87.6097 123.08C87.5449 123.051 87.4747 123.036 87.4037 123.036H71.7223C71.6453 123.036 71.5692 123.054 71.5 123.088C71.4308 123.122 71.3703 123.171 71.3231 123.232C71.2759 123.293 71.2432 123.364 71.2276 123.439C71.2119 123.515 71.2137 123.593 71.2329 123.667ZM84.4349 132.683L84.7569 124.595C84.7603 124.509 84.7975 124.429 84.8603 124.371C84.9231 124.313 85.0064 124.282 85.0918 124.286C85.1772 124.289 85.2577 124.326 85.3157 124.389C85.3737 124.452 85.4043 124.535 85.4009 124.62L85.0789 132.709C85.0789 132.795 85.045 132.876 84.9846 132.937C84.9242 132.997 84.8423 133.031 84.7569 133.031C84.7105 133.032 84.6646 133.022 84.6223 133.003C84.58 132.984 84.5422 132.956 84.5116 132.921C84.4811 132.887 84.4584 132.846 84.4451 132.801C84.4319 132.757 84.4284 132.71 84.4349 132.664V132.683ZM82.5222 124.614C82.5222 124.529 82.5561 124.447 82.6165 124.386C82.6769 124.326 82.7588 124.292 82.8442 124.292C82.9296 124.292 83.0115 124.326 83.0719 124.386C83.1323 124.447 83.1662 124.529 83.1662 124.614L83.2306 132.703C83.2306 132.788 83.1967 132.87 83.1363 132.93C83.0759 132.991 82.994 133.025 82.9086 133.025C82.8232 133.025 82.7413 132.991 82.6809 132.93C82.6205 132.87 82.5866 132.788 82.5866 132.703L82.5222 124.614ZM80.2907 124.63C80.2861 124.545 80.3155 124.461 80.3725 124.397C80.4296 124.334 80.5096 124.295 80.595 124.29C80.6804 124.286 80.7642 124.315 80.8279 124.372C80.8916 124.429 80.9301 124.509 80.9347 124.595L81.3855 132.683C81.3877 132.726 81.3815 132.768 81.3673 132.808C81.3531 132.848 81.3312 132.884 81.3027 132.916C81.2743 132.947 81.24 132.973 81.2017 132.991C81.1634 133.009 81.1219 133.019 81.0796 133.021H81.0635C80.9814 133.022 80.9023 132.99 80.8424 132.934C80.7826 132.878 80.7465 132.801 80.7415 132.719L80.2907 124.63ZM78.0561 124.646C78.0516 124.604 78.0556 124.561 78.0678 124.52C78.08 124.48 78.1001 124.442 78.1271 124.409C78.154 124.376 78.1872 124.349 78.2248 124.328C78.2624 124.308 78.3035 124.296 78.3459 124.292C78.4303 124.284 78.5146 124.309 78.5803 124.363C78.646 124.417 78.6879 124.494 78.6968 124.579L79.534 132.664C79.5385 132.706 79.5345 132.749 79.5223 132.79C79.5101 132.831 79.49 132.869 79.463 132.902C79.4361 132.935 79.4029 132.962 79.3653 132.982C79.3278 133.002 79.2866 133.014 79.2442 133.018H79.212C79.1324 133.019 79.0555 132.99 78.996 132.937C78.9366 132.884 78.8988 132.811 78.89 132.732L78.0561 124.646ZM77.0514 132.748L75.8246 124.659C75.8126 124.575 75.8343 124.49 75.885 124.422C75.9356 124.353 76.0111 124.308 76.0951 124.295C76.137 124.289 76.1797 124.291 76.2208 124.301C76.2619 124.311 76.3006 124.329 76.3347 124.354C76.3688 124.379 76.3977 124.411 76.4195 124.447C76.4414 124.484 76.4559 124.524 76.4622 124.566L77.6858 132.654C77.6978 132.738 77.6761 132.824 77.6254 132.892C77.5748 132.96 77.4992 133.006 77.4153 133.018H77.367C77.289 133.017 77.214 132.988 77.156 132.936C77.0979 132.884 77.0608 132.812 77.0514 132.735V132.748ZM73.5931 124.675C73.5849 124.633 73.5851 124.589 73.5936 124.547C73.6022 124.505 73.619 124.465 73.6431 124.429C73.6671 124.393 73.698 124.363 73.7339 124.339C73.7698 124.315 73.8101 124.299 73.8524 124.29C73.8946 124.282 73.9381 124.282 73.9804 124.291C74.0226 124.299 74.0627 124.316 74.0984 124.34C74.1342 124.364 74.1648 124.395 74.1886 124.431C74.2124 124.467 74.2289 124.507 74.2371 124.55L75.8471 132.638C75.8556 132.68 75.8557 132.723 75.8474 132.765C75.8392 132.806 75.8228 132.846 75.7991 132.881C75.7755 132.917 75.745 132.947 75.7096 132.97C75.6742 132.994 75.6345 133.01 75.5928 133.018H75.5316C75.4563 133.02 75.3828 132.995 75.3239 132.948C75.2651 132.901 75.2246 132.834 75.2096 132.761L73.5931 124.675Z" fill="black"/>
</svg>
