<svg width="29" height="23" viewBox="0 0 29 23" fill="none" xmlns="http://www.w3.org/2000/svg">
<path d="M27.2997 0.00294783C24.5407 0.15953 19.0568 0.729471 15.6713 2.8018C15.4377 2.94479 15.3053 3.19905 15.3053 3.46488V21.785C15.3053 22.3666 15.9412 22.7341 16.4774 22.4642C19.9605 20.7111 24.9978 20.2328 27.4885 20.1019C28.3389 20.0571 29 19.3754 29 18.5582V1.54863C29.0005 0.65697 28.2272 -0.0494142 27.2997 0.00294783ZM13.3287 2.8018C9.94375 0.729471 4.45983 0.160034 1.70076 0.00294783C0.773347 -0.0494142 0 0.65697 0 1.54863V18.5587C0 19.3764 0.661071 20.0581 1.51145 20.1024C4.00318 20.2333 9.04302 20.7121 12.5261 22.4663C13.0608 22.7356 13.6947 22.3686 13.6947 21.7886V3.45582C13.6947 3.18948 13.5628 2.94529 13.3287 2.8018Z" fill="#A38E23"/>
</svg>
