<svg width="69" height="63" viewBox="0 0 69 63" fill="none" xmlns="http://www.w3.org/2000/svg">
<g clip-path="url(#clip0_1809_179)">
<path d="M31.405 34.6619C31.3928 34.6619 31.3851 34.6616 31.3824 34.6614L29.92 34.6616V34.4459H31.3877C31.4217 34.4471 32.115 34.4667 32.7538 33.6916C33.7058 32.5364 34.4875 29.6767 32.8057 22.6133C30.5443 13.1155 32.4304 4.72473 33.3463 1.55807C33.3914 1.4014 33.3995 1.23638 33.3699 1.07606C33.3402 0.915733 33.2738 0.764494 33.1756 0.634287C33.0775 0.50408 32.9505 0.398474 32.8045 0.325814C32.6586 0.253154 32.4977 0.215431 32.3347 0.215625H10.4946C10.3285 0.215848 10.1649 0.255218 10.0169 0.330541C9.86893 0.405863 9.7408 0.515016 9.64291 0.649139C9.25493 1.18283 8.7225 2.2081 8.38933 4.06196L8.17712 4.02385C8.51751 2.12971 9.06726 1.07428 9.4685 0.522375C9.58642 0.360764 9.74079 0.229237 9.91907 0.138474C10.0974 0.0477107 10.2945 0.000268539 10.4946 5.86716e-07H32.3347C32.5312 -0.000188466 32.725 0.0453125 32.9008 0.132908C33.0767 0.220504 33.2298 0.347796 33.348 0.504725C33.4662 0.661655 33.5463 0.843923 33.5819 1.03713C33.6176 1.23034 33.6078 1.42919 33.5534 1.61797C32.6423 4.76822 30.766 13.1154 33.0155 22.5634C34.7209 29.7261 33.9011 32.6478 32.913 33.8375C32.2613 34.6221 31.5432 34.6619 31.405 34.6619Z" fill="#E6E6E6"/>
<path d="M27.4699 38.5974C27.4577 38.5974 27.45 38.5971 27.4473 38.5969L25.9849 38.5971V38.3815H27.4526C27.4868 38.3825 28.1799 38.4023 28.8187 37.6272C29.7706 36.472 30.5524 33.6123 28.8706 26.5488C26.6092 17.051 28.4953 8.66028 29.4111 5.49361C29.4563 5.33694 29.4643 5.17193 29.4347 5.0116C29.4051 4.85128 29.3386 4.70004 29.2405 4.56983C29.1424 4.43963 29.0153 4.33402 28.8694 4.26136C28.7234 4.1887 28.5626 4.15098 28.3995 4.15117H6.55945C6.3934 4.15139 6.22975 4.19076 6.08177 4.26609C5.93379 4.34141 5.80566 4.45056 5.70777 4.58469C5.31979 5.11838 4.78736 6.14365 4.4542 7.99751L4.24197 7.9594C4.58237 6.06526 5.13212 5.00983 5.53336 4.45792C5.65128 4.29631 5.80565 4.16478 5.98393 4.07402C6.16222 3.98326 6.35939 3.93582 6.55945 3.93555H28.3995C28.596 3.93536 28.7898 3.98086 28.9657 4.06846C29.1416 4.15605 29.2946 4.28334 29.4128 4.44027C29.5311 4.5972 29.6111 4.77947 29.6468 4.97268C29.6825 5.16588 29.6727 5.36474 29.6183 5.55352C28.7072 8.70376 26.8308 17.051 29.0804 26.4989C30.7858 33.6617 29.9659 36.5834 28.9779 37.773C28.3262 38.5577 27.6081 38.5974 27.4699 38.5974Z" fill="#CCCCCC"/>
<path d="M23.5348 42.532C23.5225 42.532 23.5149 42.5317 23.5122 42.5315L2.00871 42.5317C1.80168 42.5319 1.59774 42.4814 1.41475 42.3846C1.23176 42.2878 1.07528 42.1476 0.959019 41.9763C0.842757 41.805 0.770252 41.6078 0.747846 41.402C0.725441 41.1962 0.75382 40.988 0.830499 40.7957C1.61072 38.8464 2.66124 34.1696 0.930928 24.749C-1.11226 13.6249 0.716936 9.60464 1.59821 8.39249C1.71614 8.23088 1.87051 8.09935 2.04879 8.00859C2.22708 7.91782 2.42426 7.87038 2.62432 7.87012H24.4644C24.6609 7.86993 24.8547 7.91543 25.0306 8.00303C25.2064 8.09062 25.3595 8.21791 25.4777 8.37484C25.5959 8.53177 25.676 8.71404 25.7117 8.90725C25.7473 9.10045 25.7376 9.29931 25.6832 9.48809C24.772 12.6383 22.8957 20.9856 25.1452 30.4335C26.8506 37.5963 26.0308 40.5179 25.0427 41.7076C24.391 42.4922 23.6729 42.532 23.5348 42.532ZM2.62432 8.08574C2.45827 8.08596 2.29462 8.12533 2.14663 8.20066C1.99865 8.27598 1.87051 8.38513 1.77262 8.51926C0.907686 9.70893 -0.885112 13.6681 1.143 24.71C2.79596 33.7095 1.99428 38.4683 1.03067 40.8758C0.965726 41.0346 0.94135 41.2071 0.95974 41.3778C0.97813 41.5484 1.03871 41.7117 1.13601 41.8531C1.23249 41.9957 1.36251 42.1126 1.51466 42.1933C1.66682 42.274 1.83646 42.3162 2.0087 42.316H23.5175C23.5514 42.3177 24.2447 42.3369 24.8835 41.5617C25.8355 40.4065 26.6172 37.5468 24.9354 30.4834C22.6741 20.9856 24.5602 12.5948 25.476 9.42818C25.5211 9.27151 25.5292 9.1065 25.4996 8.94617C25.47 8.78585 25.4035 8.63461 25.3054 8.5044C25.2072 8.3742 25.0802 8.26859 24.9342 8.19593C24.7883 8.12327 24.6274 8.08555 24.4644 8.08574H2.62432Z" fill="#3F3D56"/>
<path d="M20.7496 17.5736H3.60749C3.37874 17.5736 3.15936 17.4828 2.99761 17.321C2.83586 17.1593 2.745 16.9399 2.745 16.7111C2.745 16.4824 2.83586 16.263 2.99761 16.1013C3.15936 15.9395 3.37874 15.8486 3.60749 15.8486H20.7496C20.9784 15.8486 21.1978 15.9395 21.3595 16.1013C21.5213 16.263 21.6121 16.4824 21.6121 16.7111C21.6121 16.9399 21.5213 17.1593 21.3595 17.321C21.1978 17.4828 20.9784 17.5736 20.7496 17.5736Z" fill="#A38E23"/>
<path d="M20.7496 21.2387H3.60749C3.37874 21.2387 3.15936 21.1478 2.99761 20.986C2.83586 20.8243 2.745 20.6049 2.745 20.3762C2.745 20.1474 2.83586 19.928 2.99761 19.7663C3.15936 19.6045 3.37874 19.5137 3.60749 19.5137H20.7496C20.9784 19.5137 21.1978 19.6045 21.3595 19.7663C21.5213 19.928 21.6121 20.1474 21.6121 20.3762C21.6121 20.6049 21.5213 20.8243 21.3595 20.986C21.1978 21.1478 20.9784 21.2387 20.7496 21.2387Z" fill="#CCCCCC"/>
<path d="M20.7496 24.9047H3.60749C3.37874 24.9047 3.15936 24.8138 2.99761 24.6521C2.83586 24.4903 2.745 24.2709 2.745 24.0422C2.745 23.8134 2.83586 23.5941 2.99761 23.4323C3.15936 23.2706 3.37874 23.1797 3.60749 23.1797H20.7496C20.9784 23.1797 21.1978 23.2706 21.3595 23.4323C21.5213 23.5941 21.6121 23.8134 21.6121 24.0422C21.6121 24.2709 21.5213 24.4903 21.3595 24.6521C21.1978 24.8138 20.9784 24.9047 20.7496 24.9047Z" fill="#CCCCCC"/>
<path d="M22.0434 28.5707H4.90125C4.67251 28.5707 4.45313 28.4798 4.29138 28.3181C4.12963 28.1563 4.03876 27.9369 4.03876 27.7082C4.03876 27.4795 4.12963 27.2601 4.29138 27.0983C4.45313 26.9366 4.67251 26.8457 4.90125 26.8457H22.0434C22.2721 26.8457 22.4915 26.9366 22.6533 27.0983C22.815 27.2601 22.9059 27.4795 22.9059 27.7082C22.9059 27.9369 22.815 28.1563 22.6533 28.3181C22.4915 28.4798 22.2721 28.5707 22.0434 28.5707Z" fill="#CCCCCC"/>
<path d="M22.0434 32.2357H4.90125C4.67251 32.2357 4.45313 32.1449 4.29138 31.9831C4.12963 31.8214 4.03876 31.602 4.03876 31.3732C4.03876 31.1445 4.12963 30.9251 4.29138 30.7634C4.45313 30.6016 4.67251 30.5107 4.90125 30.5107H22.0434C22.2721 30.5107 22.4915 30.6016 22.6533 30.7634C22.815 30.9251 22.9059 31.1445 22.9059 31.3732C22.9059 31.602 22.815 31.8214 22.6533 31.9831C22.4915 32.1449 22.2721 32.2357 22.0434 32.2357Z" fill="#CCCCCC"/>
<path d="M11.6934 13.9076H3.60749C3.37874 13.9076 3.15936 13.8167 2.99761 13.655C2.83586 13.4932 2.745 13.2739 2.745 13.0451C2.745 12.8164 2.83586 12.597 2.99761 12.4352C3.15936 12.2735 3.37874 12.1826 3.60749 12.1826H11.6934C11.9222 12.1826 12.1415 12.2735 12.3033 12.4352C12.465 12.597 12.5559 12.8164 12.5559 13.0451C12.5559 13.2739 12.465 13.4932 12.3033 13.655C12.1415 13.8167 11.9222 13.9076 11.6934 13.9076Z" fill="#A38E23"/>
<path d="M10.6493 38.1462C10.8234 37.4094 11.641 37.1678 12.3095 37.1948C12.7318 37.2233 13.1507 37.2896 13.5613 37.3929C13.9908 37.489 14.4161 37.6028 14.8394 37.7235C15.6154 37.9448 16.3835 38.2125 17.1724 38.3855C17.8291 38.5296 18.5428 38.6141 19.1977 38.4152C19.8273 38.224 20.3614 37.7547 20.5327 37.1058C20.6941 36.4944 20.4725 35.8258 19.88 35.5464C19.3396 35.2916 18.6571 35.4211 18.3893 35.9974C18.0874 36.6472 18.3891 37.3558 18.8672 37.8259C19.1389 38.0811 19.4366 38.3072 19.7553 38.5005C20.0788 38.721 20.4389 38.8823 20.8187 38.9768C21.4424 39.1101 22.1854 38.9138 22.507 38.3179C22.5785 38.183 22.6215 38.0349 22.6334 37.8827C22.6524 37.6755 22.3289 37.6768 22.3099 37.8827C22.2554 38.476 21.5606 38.7539 21.041 38.6888C20.6902 38.6307 20.3552 38.5007 20.0571 38.3069C19.7694 38.1392 19.4968 37.9468 19.2423 37.732C18.8015 37.3506 18.3884 36.723 18.6844 36.1278C18.9254 35.6432 19.5537 35.648 19.9359 35.9606C20.3987 36.3391 20.3161 37.026 20.0109 37.4755C19.6729 37.9732 19.0603 38.1818 18.4828 38.2043C17.8552 38.2288 17.2329 38.0848 16.6331 37.9145C15.8878 37.7028 15.15 37.466 14.4011 37.2667C13.976 37.1536 13.5476 37.0515 13.1148 36.9721C12.7056 36.8819 12.2852 36.8528 11.8675 36.8858C11.1926 36.9637 10.5036 37.3565 10.3375 38.0603C10.2897 38.2627 10.6014 38.3491 10.6493 38.1462Z" fill="#3F3D56"/>
<path d="M43.6937 56.4329C43.7123 58.5557 43.8678 60.6752 44.1592 62.7781C44.1694 62.852 44.1805 62.9258 44.1908 62.9996L64.0716 62.8886C64.13 62.8152 64.1874 62.741 64.2431 62.6659C64.4287 62.4173 64.6027 62.1617 64.7624 61.8972C65.5299 60.6232 65.8813 59.1315 65.5292 58.1024L65.5229 58.0864C65.4469 57.861 65.3271 57.6529 65.1704 57.474C64.3675 56.5702 62.7442 56.7209 61.2711 57.4503C62.5924 56.004 63.6445 54.179 63.7244 52.55C63.8028 50.961 62.972 49.8259 62.0708 48.8613C62.0412 48.8294 62.0117 48.7984 61.9821 48.7674C61.9678 48.7514 61.9525 48.7364 61.9382 48.7204C61.2351 47.9853 60.4154 47.2606 59.229 47.3483C57.9277 47.4446 56.4851 48.5345 55.4735 49.8046C54.462 51.0737 53.7898 52.5155 53.1084 53.9227C52.4262 55.3289 51.6881 56.7711 50.5933 57.973C52.0761 56.0975 53.2716 53.9636 53.7132 51.8882C54.1548 49.8128 53.7662 47.8196 52.4447 46.8421C52.0435 46.5545 51.5793 46.3672 51.0908 46.2958C51.0338 46.2864 50.9759 46.2787 50.9171 46.2719C49.6937 46.1327 48.2331 46.5558 46.9904 47.5671C45.6218 48.6807 44.6729 50.3315 44.2008 51.8986C43.7288 53.4658 43.6785 54.9744 43.6937 56.4329Z" fill="#F2F2F2"/>
<path d="M56.7009 62.9298L57.0811 62.9277C57.2018 62.8523 57.323 62.7777 57.4449 62.704C57.5203 62.6564 57.5966 62.6105 57.673 62.5638C58.934 61.7937 60.2028 61.0549 61.4796 60.3476C62.7552 59.6397 64.0372 58.9644 65.3256 58.3218C65.3598 58.3069 65.3877 58.2805 65.4044 58.2473C65.4211 58.214 65.4257 58.1759 65.4172 58.1396C65.4159 58.1349 65.4137 58.1304 65.4109 58.1263C65.3929 58.0926 65.3528 58.0785 65.2941 58.1074C65.1361 58.1866 64.9772 58.2658 64.8191 58.3469C63.5272 59.0005 62.2408 59.6868 60.9599 60.4057C59.68 61.1243 58.4073 61.8747 57.1419 62.6567C57.1153 62.6729 57.0886 62.6899 57.062 62.7061C56.9414 62.7807 56.8216 62.8553 56.7009 62.9298Z" fill="white"/>
<path d="M51.7992 62.9571L52.0343 62.9558C52.0873 62.8816 52.1394 62.8074 52.1925 62.7332C53.4382 60.9863 54.6836 59.2395 55.9288 57.4926C57.9679 54.6328 60.0064 51.7729 62.0444 48.913C62.0564 48.8976 62.0654 48.88 62.0708 48.8612C62.0882 48.7979 62.0417 48.7608 61.9821 48.7673C61.957 48.7709 61.9329 48.7798 61.9115 48.7935C61.8901 48.8071 61.8718 48.8251 61.8579 48.8464C60.7147 50.4502 59.5717 52.0534 58.429 53.6561C56.4005 56.5016 54.3723 59.3469 52.3443 62.1919C52.2153 62.3724 52.0864 62.5539 51.9574 62.7345C51.9044 62.8087 51.8513 62.8829 51.7992 62.9571Z" fill="white"/>
<path d="M46.5621 61.5925C46.5741 61.9886 46.6003 62.3785 46.6346 62.7647C46.6412 62.8386 46.6479 62.9125 46.6545 62.9863L46.9012 62.985C46.8936 62.9111 46.8861 62.8372 46.8794 62.7634C46.8273 62.2054 46.7904 61.641 46.7853 61.0614C46.7788 59.4544 46.9354 57.8508 47.2528 56.2754C47.5901 54.5791 48.0745 52.9155 48.7004 51.3032C49.3574 49.6028 50.1495 47.9577 51.0691 46.3837C51.0864 46.3581 51.0941 46.3271 51.0908 46.2963C51.0807 46.226 50.9871 46.2052 50.9171 46.2724C50.9033 46.2855 50.8914 46.3006 50.8817 46.3171C50.7679 46.5127 50.6563 46.7089 50.5466 46.9057C49.661 48.4885 48.9029 50.1393 48.2796 51.8425C47.6859 53.46 47.2343 55.1262 46.9299 56.8222C46.6448 58.3955 46.5216 59.994 46.5621 61.5925Z" fill="white"/>
<path d="M22.5332 38.2226C22.4924 38.1885 22.4625 38.1432 22.4473 38.0921C22.4322 38.0411 22.4325 37.9868 22.4482 37.9359C22.4639 37.8851 22.4943 37.84 22.5356 37.8064C22.5768 37.7729 22.6271 37.7522 22.6801 37.7472C23.2681 37.6904 23.8616 37.7512 24.4259 37.9261L30.1739 39.7013C30.2483 39.7243 30.3175 39.7617 30.3774 39.8114C30.4373 39.8611 30.4869 39.9221 30.5233 39.991C30.5596 40.0598 30.5821 40.1352 30.5893 40.2127C30.5966 40.2902 30.5885 40.3684 30.5655 40.4428C30.5425 40.5172 30.5051 40.5864 30.4554 40.6463C30.4057 40.7063 30.3447 40.7559 30.2758 40.7922C30.207 40.8286 30.1316 40.851 30.0541 40.8583C29.9766 40.8655 29.8984 40.8574 29.824 40.8344L24.0759 39.0592C23.5113 38.8855 22.9869 38.6011 22.5332 38.2226Z" fill="#3F3D56"/>
<path d="M46.0953 45.5977C45.9391 45.5322 45.7993 45.4332 45.6855 45.3078C45.5717 45.1824 45.4868 45.0336 45.4368 44.8719C45.3867 44.7101 45.3728 44.5393 45.3959 44.3716C45.419 44.2039 45.4786 44.0432 45.5704 43.901L44.5852 38.7485L47.0963 38.5527L47.2479 43.5926C47.4766 43.7628 47.6349 44.011 47.6928 44.2901C47.7507 44.5693 47.7042 44.8599 47.5622 45.1071C47.4201 45.3542 47.1923 45.5407 46.9219 45.6311C46.6516 45.7215 46.3574 45.7096 46.0953 45.5977Z" fill="#FFB8B8"/>
<path d="M44.4302 42.9382L41.8726 31.0269C41.7676 30.5376 41.8612 30.0267 42.1329 29.6065C42.4045 29.1863 42.832 28.8912 43.3212 28.7862C43.8105 28.6811 44.3214 28.7748 44.7416 29.0464C45.1618 29.3181 45.4569 29.7456 45.5619 30.2348L48.1196 42.146C48.1464 42.2718 48.1223 42.4031 48.0525 42.5112C47.9826 42.6192 47.8728 42.6951 47.7471 42.7223L45.0064 43.3107C44.9441 43.3241 44.8798 43.3251 44.8171 43.3136C44.7544 43.3022 44.6946 43.2785 44.6411 43.2439C44.5876 43.2093 44.5415 43.1645 44.5053 43.112C44.4691 43.0596 44.4436 43.0005 44.4302 42.9382Z" fill="#A38E23"/>
<path d="M40.2323 61.6754H38.9106L38.2817 56.5771L40.2326 56.5773L40.2323 61.6754Z" fill="#FFB8B8"/>
<path d="M37.9664 61.2979H40.5155V62.9028H36.3615C36.3615 62.6921 36.403 62.4834 36.4836 62.2886C36.5643 62.0939 36.6825 61.917 36.8315 61.7679C36.9806 61.6189 37.1575 61.5007 37.3522 61.42C37.547 61.3394 37.7557 61.2979 37.9664 61.2979Z" fill="#2F2E41"/>
<path d="M44.6526 61.568H43.3309L42.702 56.4697L44.6529 56.4698L44.6526 61.568Z" fill="#FFB8B8"/>
<path d="M42.3867 61.1895H44.9358V62.7944H40.7817C40.7817 62.5837 40.8233 62.375 40.9039 62.1802C40.9846 61.9855 41.1028 61.8086 41.2518 61.6595C41.4009 61.5105 41.5778 61.3923 41.7725 61.3116C41.9672 61.231 42.176 61.1895 42.3867 61.1895Z" fill="#2F2E41"/>
<path d="M38.6487 60.7248C38.5991 60.6841 38.5582 60.634 38.5283 60.5773C38.4983 60.5206 38.48 60.4585 38.4744 60.3946L36.9378 43.4919C36.9319 43.4263 36.9393 43.3602 36.9598 43.2975C36.9802 43.2349 37.0132 43.1771 37.0567 43.1276C37.1002 43.0781 37.1533 43.0381 37.2128 43.0098C37.2723 42.9815 37.337 42.9656 37.4028 42.9632L45.1092 42.6742C45.1759 42.6717 45.2424 42.683 45.3045 42.7074C45.3666 42.7317 45.423 42.7687 45.4703 42.8158C45.5175 42.863 45.5544 42.9194 45.5789 42.9815C45.6033 43.0436 45.6146 43.1101 45.6122 43.1768L44.9962 60.0145C44.9917 60.1324 44.9444 60.2446 44.8633 60.3302C44.7822 60.4158 44.6727 60.469 44.5553 60.4799L43.0014 60.6212C42.937 60.6271 42.872 60.62 42.8104 60.6004C42.7487 60.5807 42.6916 60.549 42.6424 60.507C42.5932 60.4649 42.5529 60.4135 42.5239 60.3557C42.4949 60.2979 42.4777 60.2348 42.4734 60.1703L41.7603 49.4735C41.7598 49.4529 41.7552 49.4327 41.7468 49.4139C41.7384 49.3952 41.7263 49.3783 41.7113 49.3642C41.6963 49.3502 41.6786 49.3393 41.6593 49.3321C41.6401 49.325 41.6196 49.3217 41.599 49.3226H41.5984C41.5778 49.3218 41.5572 49.3251 41.5379 49.3324C41.5186 49.3396 41.5009 49.3507 41.4859 49.3648C41.4709 49.379 41.4589 49.396 41.4506 49.4149C41.4423 49.4338 41.4378 49.4541 41.4375 49.4748L40.7993 60.2436C40.7929 60.359 40.7454 60.4682 40.6654 60.5514C40.5854 60.6347 40.4782 60.6866 40.3633 60.6976L39.0058 60.8335C38.9421 60.84 38.8776 60.8338 38.8163 60.8151C38.755 60.7965 38.698 60.7658 38.6487 60.7248Z" fill="#2F2E41"/>
<path d="M41.613 26.2549C43.0754 26.2549 44.261 25.0694 44.261 23.607C44.261 22.1445 43.0754 20.959 41.613 20.959C40.1506 20.959 38.965 22.1445 38.965 23.607C38.965 25.0694 40.1506 26.2549 41.613 26.2549Z" fill="#FFB8B8"/>
<path d="M36.5137 43.6058C36.4665 43.5523 36.4319 43.4889 36.4123 43.4203C36.3926 43.3517 36.3885 43.2796 36.4002 43.2092C36.8891 40.2378 36.6135 35.87 36.2963 32.7291C36.2135 31.896 36.3517 31.0557 36.6969 30.2929C37.0422 29.5301 37.5823 28.8718 38.2629 28.3841L39.6458 27.1988C39.7377 27.1209 39.855 27.0794 39.9754 27.0822L43.411 27.1803C43.5349 27.1837 43.6527 27.2345 43.7402 27.3223L44.271 28.4979L44.2765 28.5019C44.9091 28.9669 45.4167 29.5815 45.7537 30.2906C46.0908 30.9997 46.2468 31.7812 46.208 32.5654L45.7023 43.0164C45.6958 43.1379 45.6441 43.2526 45.5574 43.338C45.4707 43.4233 45.3552 43.4732 45.2336 43.4778L36.8946 43.7708C36.8893 43.7709 36.8839 43.771 36.8785 43.771C36.8095 43.7711 36.7412 43.7564 36.6782 43.7279C36.6153 43.6994 36.5592 43.6578 36.5137 43.6058Z" fill="#A38E23"/>
<path d="M26.5113 39.2445C26.5071 39.0753 26.5402 38.9071 26.608 38.752C26.6759 38.5969 26.7769 38.4585 26.904 38.3467C27.0311 38.2348 27.1812 38.1522 27.3437 38.1046C27.5062 38.057 27.6771 38.0456 27.8445 38.0713L32.1424 35.0635L33.3488 37.2745L28.8124 39.4755C28.7507 39.7539 28.5891 39.9999 28.3581 40.167C28.1271 40.334 27.8429 40.4106 27.5593 40.3821C27.2756 40.3537 27.0123 40.2221 26.8191 40.0125C26.626 39.8028 26.5165 39.5296 26.5113 39.2445Z" fill="#FFB8B8"/>
<path d="M30.1283 39.7674C30.0653 39.7579 30.0047 39.736 29.9502 39.7029C29.8957 39.6699 29.8483 39.6264 29.8107 39.5749L28.1521 37.3152C28.0761 37.2114 28.0444 37.0817 28.0639 36.9545C28.0834 36.8274 28.1525 36.7132 28.2561 36.6369L38.0772 29.4282C38.4806 29.1322 38.9851 29.0084 39.4797 29.0843C39.7246 29.1219 39.9597 29.2073 40.1716 29.3358C40.3835 29.4642 40.568 29.6331 40.7146 29.8329C40.8612 30.0326 40.9671 30.2593 41.0261 30.4999C41.0851 30.7405 41.0961 30.9904 41.0586 31.2354C41.021 31.4803 40.9355 31.7154 40.8071 31.9272C40.6787 32.1391 40.5098 32.3236 40.31 32.4703L30.4889 39.6789C30.4061 39.7401 30.3058 39.773 30.2029 39.7731C30.1779 39.773 30.153 39.7711 30.1283 39.7674Z" fill="#A38E23"/>
<path d="M41.7485 25.9639C42.0997 25.5334 42.0613 24.8775 41.7794 24.3987C41.4976 23.9199 41.0191 23.5901 40.5268 23.3325C40.0345 23.075 39.5116 22.8724 39.0483 22.5657C38.585 22.259 38.6052 20.9607 38.4818 20.4189L38.776 20.5169C38.663 20.3723 38.6267 19.9448 38.5136 19.8001C38.8461 19.833 39.1017 20.1486 39.4342 20.1815L39.2423 19.6665C40.3824 19.5962 41.0912 20.3885 42.2312 20.3182C42.7961 20.2833 43.4095 20.2613 43.8738 20.5848C44.2774 20.8659 44.4816 21.3525 44.6156 21.8256C44.9034 22.8416 44.9481 23.9796 44.4511 24.9112C43.9541 25.8428 42.8084 26.4705 41.8075 26.1342L41.7485 25.9639Z" fill="#2F2E41"/>
<path d="M27.2104 62.9627H68.2869C68.3155 62.9627 68.3429 62.9513 68.3631 62.9311C68.3833 62.9109 68.3947 62.8835 68.3947 62.8549C68.3947 62.8263 68.3833 62.7989 68.3631 62.7786C68.3429 62.7584 68.3155 62.7471 68.2869 62.7471H27.2104C27.1818 62.7471 27.1544 62.7584 27.1342 62.7786C27.114 62.7989 27.1026 62.8263 27.1026 62.8549C27.1026 62.8835 27.114 62.9109 27.1342 62.9311C27.1544 62.9513 27.1818 62.9627 27.2104 62.9627Z" fill="#3F3D56"/>
</g>
<defs>
<clipPath id="clip0_1809_179">
<rect width="68.3947" height="63" fill="white"/>
</clipPath>
</defs>
</svg>
