<svg width="103" height="96" viewBox="0 0 103 96" fill="none" xmlns="http://www.w3.org/2000/svg">
<g clip-path="url(#clip0_481_433)">
<path d="M95.2136 73.4428L99.8342 74.1624C101.398 72.2753 102.477 70.0362 102.975 67.6395C99.5965 70.3956 94.4584 68.931 90.3615 70.4357C89.0873 70.9147 87.9376 71.6734 86.9977 72.6554C86.0577 73.6374 85.3515 74.8177 84.9315 76.1086L82.6733 78.5297C84.7174 79.3361 86.9127 79.6913 89.1078 79.5709C91.3029 79.4505 93.4458 78.8572 95.3887 77.8321C96.4729 77.2462 97.4788 76.5266 98.3826 75.6902C96.7658 74.6757 95.2136 73.4428 95.2136 73.4428Z" fill="#F2F2F2"/>
<path d="M93.5732 66.0786L98.0309 64.6691C98.5863 62.2849 98.5493 59.8016 97.923 57.4349C96.1324 61.4033 90.8781 62.3759 87.8846 65.5435C86.9585 66.5385 86.269 67.7285 85.8672 69.0252C85.4654 70.3219 85.3616 71.6921 85.5634 73.0342L84.6257 76.2048C86.8162 76.0181 88.94 75.3604 90.8508 74.2771C92.7617 73.1937 94.4141 71.7104 95.6943 69.9293C96.4025 68.9231 96.9808 67.8319 97.4155 66.6817C95.5143 66.4922 93.5732 66.0786 93.5732 66.0786Z" fill="#F2F2F2"/>
<path d="M103 79.9963C103 80.0201 102.995 80.0436 102.986 80.0656C102.977 80.0876 102.964 80.1075 102.947 80.1243C102.93 80.1411 102.91 80.1544 102.888 80.1635C102.866 80.1725 102.842 80.1772 102.819 80.1771H0.181405C0.133294 80.1771 0.0871521 80.1581 0.0531321 80.1242C0.019112 80.0902 0 80.0443 0 79.9963C0 79.9484 0.019112 79.9024 0.0531321 79.8685C0.0871521 79.8346 0.133294 79.8156 0.181405 79.8156H102.819C102.842 79.8155 102.866 79.8201 102.888 79.8292C102.91 79.8382 102.93 79.8515 102.947 79.8683C102.964 79.8851 102.977 79.9051 102.986 79.9271C102.995 79.949 103 79.9726 103 79.9963Z" fill="#CCCCCC"/>
<path d="M42.5307 72.2895C60.6318 72.2895 75.3056 57.6667 75.3056 39.6285C75.3056 21.5904 60.6318 6.96756 42.5307 6.96756C24.4297 6.96756 9.75586 21.5904 9.75586 39.6285C9.75586 57.6667 24.4297 72.2895 42.5307 72.2895Z" fill="#E6E6E6"/>
<path d="M70.7324 39.6285C70.7357 44.0137 69.7077 48.3387 67.731 52.2565C65.7542 56.1744 62.8837 59.5761 59.3496 62.1889C59.1133 62.3651 58.8724 62.5368 58.6301 62.7039C53.9041 65.9776 48.2863 67.7322 42.5307 67.7322C36.7752 67.7322 31.1574 65.9776 26.4314 62.7039C26.189 62.5368 25.9482 62.3651 25.7119 62.1889C22.1802 59.5738 19.3115 56.1716 17.335 52.2543C15.3585 48.337 14.3291 44.0131 14.3291 39.6285C14.3291 35.2439 15.3585 30.9201 17.335 27.0028C19.3115 23.0854 22.1802 19.6832 25.7119 17.0682C25.9482 16.8919 26.189 16.7203 26.4314 16.5532C31.1574 13.2795 36.7752 11.5249 42.5307 11.5249C48.2863 11.5249 53.9041 13.2795 58.6301 16.5532C58.8724 16.7203 59.1133 16.8919 59.3496 17.0682C62.8837 19.6809 65.7542 23.0827 67.731 27.0005C69.7077 30.9184 70.7357 35.2433 70.7324 39.6285Z" fill="white"/>
<path d="M42.5308 65.3016C56.759 65.3016 68.2933 53.8074 68.2933 39.6285C68.2933 25.4497 56.759 13.9555 42.5308 13.9555C28.3025 13.9555 16.7682 25.4497 16.7682 39.6285C16.7682 53.8074 28.3025 65.3016 42.5308 65.3016Z" fill="#A38E23"/>
<path opacity="0.2" d="M42.598 14.0273C42.2074 14.0273 41.8193 14.0374 41.433 14.0546C47.9443 14.6248 53.9947 17.6401 58.3584 22.4898C62.722 27.3395 65.0726 33.6608 64.9339 40.173C64.7952 46.6853 62.1775 52.9015 57.6113 57.5623C53.0451 62.2231 46.8718 64.9799 40.342 65.2743C41.0856 65.3386 41.8377 65.3733 42.598 65.3733C49.4306 65.3733 55.9834 62.6685 60.8149 57.8539C65.6463 53.0392 68.3605 46.5092 68.3605 39.7003C68.3605 32.8914 65.6463 26.3613 60.8149 21.5467C55.9834 16.7321 49.4306 14.0273 42.598 14.0273Z" fill="black"/>
<path d="M42.607 12.1326C42.3847 12.1329 42.1717 12.2211 42.0146 12.3777C41.8574 12.5343 41.7689 12.7466 41.7686 12.9681V16.6139C41.7686 16.8355 41.8569 17.048 42.0141 17.2047C42.1714 17.3614 42.3846 17.4495 42.607 17.4495C42.8293 17.4495 43.0426 17.3614 43.1998 17.2047C43.3571 17.048 43.4454 16.8355 43.4454 16.6139V12.9681C43.445 12.7466 43.3566 12.5343 43.1994 12.3777C43.0423 12.2211 42.8292 12.1329 42.607 12.1326Z" fill="white"/>
<path d="M59.3496 17.0682C59.1133 16.8919 58.8724 16.7203 58.6301 16.5532C58.4846 16.5437 58.3392 16.5722 58.2082 16.6359C58.0772 16.6996 57.9652 16.7962 57.8831 16.9162L55.8236 19.9286C55.6985 20.1118 55.6515 20.3369 55.6929 20.5546C55.7344 20.7722 55.8609 20.9646 56.0447 21.0893C56.2284 21.2139 56.4543 21.2608 56.6728 21.2195C56.8912 21.1782 57.0842 21.0521 57.2093 20.869L59.2688 17.8566C59.3471 17.7423 59.3956 17.6103 59.4097 17.4726C59.4238 17.3349 59.4031 17.1959 59.3496 17.0682Z" fill="white"/>
<path d="M68.7065 30.804C68.6651 30.7024 68.604 30.61 68.5267 30.5319C68.4495 30.4539 68.3575 30.3918 68.2561 30.3492C68.1548 30.3066 68.046 30.2843 67.936 30.2836C67.826 30.283 67.7169 30.3039 67.615 30.3452L64.2247 31.717C64.0189 31.8005 63.8548 31.9621 63.7685 32.1661C63.6822 32.3701 63.6807 32.6 63.7643 32.8051C63.8479 33.0103 64.0099 33.174 64.2146 33.2602C64.4192 33.3464 64.6499 33.3481 64.8558 33.265L68.2461 31.8932C68.4518 31.8092 68.6157 31.6475 68.702 31.4433C68.7883 31.2392 68.7899 31.0093 68.7065 30.804Z" fill="white"/>
<path d="M29.2379 19.9287L27.1784 16.9162C27.0963 16.7962 26.9842 16.6996 26.8532 16.6359C26.7222 16.5722 26.5769 16.5437 26.4314 16.5532C26.189 16.7203 25.9482 16.8919 25.7119 17.0682C25.6583 17.1959 25.6377 17.3349 25.6518 17.4726C25.6659 17.6103 25.7143 17.7423 25.7927 17.8566L27.8522 20.869C27.9773 21.0521 28.1703 21.1782 28.3887 21.2195C28.6071 21.2608 28.8331 21.2139 29.0168 21.0893C29.2006 20.9646 29.3271 20.7722 29.3685 20.5546C29.41 20.3369 29.363 20.1118 29.2379 19.9287Z" fill="white"/>
<path d="M20.8369 31.717L17.4466 30.3452C17.2406 30.2619 17.0098 30.2635 16.805 30.3496C16.6002 30.4358 16.4382 30.5995 16.3545 30.8048C16.2708 31.01 16.2724 31.24 16.3588 31.4441C16.4453 31.6482 16.6095 31.8098 16.8155 31.8932L20.2058 33.2649C20.4117 33.3481 20.6424 33.3464 20.8471 33.2602C21.0517 33.1739 21.2137 33.0103 21.2973 32.8051C21.381 32.6 21.3794 32.3701 21.2931 32.1661C21.2068 31.962 21.0427 31.8005 20.8369 31.717Z" fill="white"/>
<path d="M42.607 61.8076C42.3847 61.808 42.1717 61.8962 42.0146 62.0528C41.8574 62.2094 41.7689 62.4217 41.7686 62.6431V66.289C41.7686 66.5106 41.8569 66.7231 42.0141 66.8798C42.1714 67.0365 42.3846 67.1245 42.607 67.1245C42.8293 67.1245 43.0426 67.0365 43.1998 66.8798C43.3571 66.7231 43.4454 66.5106 43.4454 66.289V62.6431C43.445 62.4217 43.3566 62.2094 43.1994 62.0528C43.0423 61.8962 42.8292 61.808 42.607 61.8076Z" fill="white"/>
<path d="M59.2688 61.4005L57.2093 58.3881C57.1473 58.2974 57.0681 58.2198 56.976 58.1596C56.884 58.0995 56.7809 58.058 56.6728 58.0376C56.5646 58.0171 56.4535 58.0181 56.3457 58.0404C56.2379 58.0628 56.1356 58.1061 56.0447 58.1678C55.9537 58.2295 55.8758 58.3085 55.8154 58.4003C55.7551 58.492 55.7134 58.5947 55.6929 58.7025C55.6724 58.8103 55.6734 58.921 55.6958 59.0284C55.7182 59.1358 55.7617 59.2377 55.8236 59.3284L57.8831 62.3408C57.9652 62.4608 58.0772 62.5575 58.2082 62.6211C58.3392 62.6848 58.4846 62.7133 58.6301 62.7039C58.8724 62.5368 59.1133 62.3651 59.3496 62.1889C59.4031 62.0612 59.4238 61.9222 59.4097 61.7845C59.3956 61.6468 59.3472 61.5148 59.2688 61.4005Z" fill="white"/>
<path d="M68.2461 47.3639L64.8558 45.9921C64.6498 45.9088 64.419 45.9103 64.2142 45.9965C64.0094 46.0827 63.8474 46.2464 63.7637 46.4517C63.68 46.6569 63.6816 46.8869 63.768 47.091C63.8545 47.2951 64.0187 47.4567 64.2247 47.5401L67.615 48.9118C67.8209 48.995 68.0516 48.9933 68.2562 48.9071C68.4609 48.8208 68.6229 48.6572 68.7065 48.452C68.7901 48.2469 68.7886 48.017 68.7023 47.813C68.616 47.6089 68.4519 47.4474 68.2461 47.3639Z" fill="white"/>
<path d="M29.0168 58.1678C28.833 58.0432 28.6071 57.9963 28.3887 58.0377C28.1703 58.079 27.9773 58.205 27.8522 58.3881L25.7927 61.4005C25.7143 61.5148 25.6659 61.6468 25.6518 61.7845C25.6377 61.9222 25.6583 62.0612 25.7119 62.1889C25.9482 62.3651 26.189 62.5368 26.4314 62.7039C26.5769 62.7133 26.7222 62.6848 26.8532 62.6211C26.9842 62.5575 27.0963 62.4608 27.1784 62.3408L29.2379 59.3284C29.2998 59.2377 29.3433 59.1358 29.3657 59.0284C29.3881 58.921 29.3891 58.8103 29.3686 58.7025C29.348 58.5947 29.3064 58.492 29.2461 58.4003C29.1857 58.3085 29.1078 58.2295 29.0168 58.1678Z" fill="white"/>
<path d="M21.2972 46.4509C21.2558 46.3493 21.1947 46.2569 21.1174 46.1788C21.0401 46.1008 20.9482 46.0387 20.8468 45.9961C20.7455 45.9535 20.6367 45.9312 20.5267 45.9305C20.4167 45.9298 20.3076 45.9508 20.2057 45.9921L16.8154 47.3639C16.6096 47.4474 16.4455 47.6089 16.3592 47.813C16.2729 48.017 16.2714 48.2469 16.355 48.452C16.4386 48.6572 16.6006 48.8208 16.8053 48.9071C17.0099 48.9933 17.2406 48.995 17.4465 48.9118L20.8368 47.5401C21.0425 47.4561 21.2064 47.2944 21.2927 47.0902C21.379 46.8861 21.3806 46.6562 21.2972 46.4509Z" fill="white"/>
<path d="M43.6949 39.214C43.7723 39.6707 43.6648 40.1393 43.3959 40.5171C43.127 40.8949 42.7187 41.151 42.2606 41.2292L27.3826 43.7511C27.1557 43.7896 26.9233 43.7831 26.6989 43.7321C26.4744 43.6811 26.2622 43.5865 26.0745 43.4538C25.8867 43.3211 25.727 43.1528 25.6044 42.9586C25.4819 42.7643 25.399 42.548 25.3604 42.3218C25.3218 42.0956 25.3283 41.8641 25.3795 41.6404C25.4306 41.4167 25.5255 41.2053 25.6587 41.0182C25.7919 40.831 25.9608 40.6719 26.1557 40.5498C26.3506 40.4277 26.5677 40.3451 26.7947 40.3066L41.6727 37.7847C42.1309 37.7075 42.6012 37.8147 42.9803 38.0826C43.3595 38.3506 43.6164 38.7574 43.6949 39.214Z" fill="#3F3D56"/>
<path d="M59.3535 55.6403C59.1398 55.8545 58.8495 55.9755 58.5464 55.9766C58.2433 55.9778 57.9521 55.8591 57.7367 55.6466L41.7207 39.8115C41.5058 39.5986 41.3845 39.3094 41.3834 39.0074C41.3824 38.7055 41.5017 38.4154 41.7151 38.201C41.9286 37.9866 42.2187 37.8655 42.5217 37.8641C42.8247 37.8628 43.1159 37.9814 43.3312 38.1939L59.3472 54.029C59.5621 54.242 59.6835 54.5313 59.6847 54.8333C59.6859 55.1354 59.5668 55.4256 59.3535 55.6403Z" fill="#3F3D56"/>
<path d="M42.5308 41.6034C43.6253 41.6034 44.5125 40.7192 44.5125 39.6285C44.5125 38.5379 43.6253 37.6537 42.5308 37.6537C41.4363 37.6537 40.5491 38.5379 40.5491 39.6285C40.5491 40.7192 41.4363 41.6034 42.5308 41.6034Z" fill="#CCCCCC"/>
<path d="M28.8805 5.38446C25.8386 10.1503 21.1973 13.3131 15.4734 15.3909C15.3602 15.4754 15.2316 15.5367 15.0946 15.5716C14.9577 15.6065 14.8153 15.6141 14.6754 15.5941C14.5355 15.5741 14.401 15.5268 14.2794 15.455C14.1579 15.3832 14.0517 15.2882 13.967 15.1755C10.8578 11.0385 11.5599 5.12605 15.6633 1.96496C16.6554 1.20204 17.7897 0.643105 19.0003 0.320601C20.2109 -0.00190385 21.4737 -0.0815551 22.7155 0.0862733C23.9572 0.254102 25.1532 0.666065 26.2339 1.29825C27.3145 1.93043 28.2584 2.77024 29.0108 3.76892L29.0968 3.88334C29.1815 3.99606 29.2431 4.12429 29.2781 4.26073C29.313 4.39717 29.3207 4.53913 29.3006 4.67853C29.2805 4.81792 29.2331 4.952 29.161 5.07313C29.0889 5.19425 28.9936 5.30004 28.8805 5.38446Z" fill="#E6E6E6"/>
<path d="M56.0508 3.7689C56.8031 2.77022 57.747 1.93041 58.8277 1.29823C59.9084 0.666049 61.1043 0.254087 62.346 0.0862587C63.5878 -0.0815698 64.8506 -0.00192078 66.0612 0.320584C67.2719 0.643089 68.4061 1.20202 69.3982 1.96494C73.5017 5.12603 74.2037 11.0385 71.0945 15.1754C71.0098 15.2882 70.9037 15.3831 70.7821 15.455C70.6606 15.5268 70.526 15.5741 70.3861 15.5941C70.2463 15.6141 70.1038 15.6064 69.9669 15.5716C69.83 15.5367 69.7013 15.4753 69.5882 15.3909C64.2745 13.3636 59.917 9.85535 56.181 5.38444C55.9526 5.21395 55.8015 4.96002 55.7609 4.67851C55.7204 4.39699 55.7937 4.11096 55.9648 3.88332L56.0508 3.7689Z" fill="#E6E6E6"/>
<path d="M54.7174 67.9248C54.5236 68.0333 54.3809 68.2139 54.3206 68.427C54.2602 68.6402 54.287 68.8685 54.3952 69.0619L59.234 77.6788C59.3426 77.8721 59.5238 78.0145 59.7378 78.0747C59.9517 78.1349 60.1809 78.1079 60.3749 77.9997C60.569 77.8915 60.7119 77.7109 60.7724 77.4977C60.8328 77.2845 60.8058 77.0561 60.6973 76.8627L55.8585 68.2459C55.7496 68.0528 55.5684 67.9106 55.3545 67.8504C55.1406 67.7903 54.9115 67.817 54.7174 67.9248Z" fill="#E6E6E6"/>
<path d="M29.203 68.2459L24.3642 76.8627C24.2557 77.0561 24.2287 77.2845 24.2891 77.4977C24.3496 77.7109 24.4925 77.8915 24.6866 77.9997C24.8806 78.1079 25.1098 78.1348 25.3238 78.0747C25.5377 78.0145 25.7189 77.8721 25.8276 77.6787L30.6663 69.0619C30.7201 68.9662 30.7545 68.8608 30.7674 68.7518C30.7803 68.6428 30.7716 68.5324 30.7417 68.4268C30.7118 68.3212 30.6613 68.2225 30.5931 68.1363C30.5249 68.0502 30.4403 67.9782 30.3442 67.9246C30.2481 67.871 30.1424 67.8368 30.033 67.824C29.9236 67.8111 29.8128 67.8199 29.7068 67.8497C29.6009 67.8795 29.5018 67.9299 29.4154 67.9979C29.3289 68.0658 29.2568 68.1501 29.203 68.2459Z" fill="#E6E6E6"/>
<path d="M60.2139 79.8851C61.6452 79.8851 62.8054 78.7289 62.8054 77.3026C62.8054 75.8763 61.6452 74.7201 60.2139 74.7201C58.7827 74.7201 57.6224 75.8763 57.6224 77.3026C57.6224 78.7289 58.7827 79.8851 60.2139 79.8851Z" fill="#E6E6E6"/>
<path d="M62.0433 13.8036C63.4745 13.8036 64.6348 12.6473 64.6348 11.2211C64.6348 9.7948 63.4745 8.63858 62.0433 8.63858C60.612 8.63858 59.4518 9.7948 59.4518 11.2211C59.4518 12.6473 60.612 13.8036 62.0433 13.8036Z" fill="#E6E6E6"/>
<path d="M42.3784 7.72711C43.8096 7.72711 44.9699 6.57089 44.9699 5.14461C44.9699 3.71834 43.8096 2.56212 42.3784 2.56212C40.9471 2.56212 39.7869 3.71834 39.7869 5.14461C39.7869 6.57089 40.9471 7.72711 42.3784 7.72711Z" fill="#E6E6E6"/>
<path d="M23.628 13.4998C25.0592 13.4998 26.2195 12.3435 26.2195 10.9173C26.2195 9.49099 25.0592 8.33476 23.628 8.33476C22.1968 8.33476 21.0365 9.49099 21.0365 10.9173C21.0365 12.3435 22.1968 13.4998 23.628 13.4998Z" fill="#E6E6E6"/>
<path d="M25.3049 79.8851C26.7361 79.8851 27.8964 78.7289 27.8964 77.3026C27.8964 75.8763 26.7361 74.7201 25.3049 74.7201C23.8736 74.7201 22.7134 75.8763 22.7134 77.3026C22.7134 78.7289 23.8736 79.8851 25.3049 79.8851Z" fill="#E6E6E6"/>
<path d="M58.1812 54.1879C58.2834 54.3472 58.4194 54.4824 58.5796 54.5837C58.7398 54.6851 58.9204 54.7502 59.1086 54.7745C59.2968 54.7988 59.4881 54.7817 59.669 54.7243C59.8498 54.667 60.0159 54.5708 60.1554 54.4426L64.2218 56.6139L64.0037 54.2348L60.1756 52.5376C59.9439 52.3183 59.6396 52.1913 59.3202 52.1807C59.0009 52.17 58.6887 52.2765 58.4429 52.48C58.197 52.6834 58.0346 52.9696 57.9864 53.2844C57.9382 53.5991 58.0075 53.9206 58.1812 54.1879Z" fill="#FFB7B7"/>
<path d="M61.144 55.0182L62.7376 52.8261L70.4145 56.4426L79.9675 54.6564C80.4398 54.5681 80.9257 54.5845 81.3908 54.7044C81.8559 54.8243 82.2889 55.0448 82.6589 55.3502C83.0289 55.6556 83.3269 56.0384 83.5317 56.4715C83.7366 56.9046 83.8433 57.3773 83.8442 57.856C83.8448 58.7208 83.5012 59.5505 82.8887 60.1631C82.2763 60.7757 81.4449 61.1212 80.5772 61.1237L69.6294 61.144L61.144 55.0182Z" fill="#3F3D56"/>
<path d="M58.6898 92.8785L57.0774 92.1102L59.2922 85.3945L61.6717 86.5286L58.6898 92.8785Z" fill="#FFB7B7"/>
<path d="M69.4988 91.7959C69.3815 91.8691 69.2643 91.941 69.1458 92.013C68.9102 92.157 68.6721 92.2986 68.4341 92.4379C68.3145 92.5075 68.1937 92.5772 68.0741 92.6456V92.6491L68.067 92.6503L68.0646 92.6515L67.8822 92.6964L67.6205 92.0071L67.4997 91.6897L67.3292 91.24L67.0165 90.4175L65.3704 86.0863L67.9296 85.4572L68.0255 85.8479H68.0267L68.0741 86.0414L68.9682 89.6551L69.1506 90.3939L69.1565 90.4163L69.2666 90.8577L69.3614 91.24L69.4668 91.6673L69.4988 91.7959Z" fill="#FFB7B7"/>
<path d="M84.7655 76.5858C84.6033 76.8454 84.4375 77.1039 84.2705 77.36C83.9602 77.8367 83.6416 78.3064 83.3148 78.7691C83.3148 78.7702 83.3136 78.7702 83.3124 78.7714C83.1217 78.9475 82.9111 79.1007 82.6847 79.2281C82.6753 79.2352 82.6646 79.2399 82.6551 79.2458C82.4885 79.3377 82.3111 79.4086 82.1269 79.4571C82.0606 79.4736 81.9931 79.4901 81.9268 79.5067C81.6876 79.5633 81.4507 79.6117 81.215 79.6542C80.7958 79.7285 80.3813 79.7816 79.9692 79.8147C79.936 79.8182 79.9029 79.8206 79.8697 79.8229C78.175 79.9469 76.5253 79.7474 74.8034 79.4205C73.9531 79.26 73.085 79.0676 72.1861 78.8682C71.8924 78.8021 71.5976 78.7372 71.2991 78.6723C71.2766 78.6676 71.2529 78.6617 71.2292 78.6569C70.8029 78.5637 70.3695 78.4717 69.9254 78.3808C69.3664 78.2663 68.7896 78.1554 68.1904 78.0503L68.233 78.8918C68.2685 79.5391 68.4035 80.1771 68.6333 80.7836C68.8891 81.5295 69.0916 82.1195 68.6641 83.3481L68.458 83.9429C68.5649 84.2382 68.6015 84.5543 68.5651 84.8661C68.5288 85.178 68.4204 85.4772 68.2484 85.7403L68.207 85.8028L69.9254 90.1352L70.0367 90.4161H69.1568L68.0743 90.4172H66.2399L63.593 85.1254L63.4663 84.8728V84.8599L63.7399 74.6904C63.7434 74.6007 63.7505 74.5099 63.7624 74.4202C63.8106 74.0124 63.9399 73.6183 64.1426 73.2609C64.3453 72.9035 64.6174 72.5899 64.9431 72.3384C65.2552 72.0953 65.6126 71.9166 65.9946 71.8124C66.3766 71.7083 66.7756 71.6809 67.1684 71.7318L68.0743 71.8486L69.9254 72.087L71.2292 72.2558L71.2553 72.2593L75.1006 72.755L75.3766 71.6338L75.4275 71.6149L77.0464 71.0237L82.6457 68.9785L82.6599 68.9737L83.0282 68.8392L83.072 68.91C83.085 68.9313 83.098 68.9525 83.1099 68.9737C83.4739 69.6241 83.7703 70.3098 83.9945 71.0201C84.3716 72.1806 84.6819 73.3615 84.9242 74.5571C84.9349 74.609 84.9443 74.6562 84.9526 74.6987L84.9562 74.7117C84.9597 74.7317 84.9621 74.7447 84.9633 74.7483C85.0924 75.284 85.0024 75.9379 84.7655 76.5858Z" fill="#2F2E41"/>
<path d="M85.0018 72.838C84.9841 72.7625 84.9616 72.6858 84.9379 72.6114C84.7499 72.0483 84.5308 71.4959 84.2818 70.9568C84.0023 70.3432 83.6672 69.6858 83.2681 68.9742C83.075 68.6296 82.8674 68.2712 82.6451 67.8991C82.5338 67.7126 82.4182 67.5226 82.2982 67.329C82.2935 67.3201 82.2883 67.3115 82.2828 67.3031L82.2484 67.2464L76.7084 67.9852L74.6454 68.2602L74.5222 69.2846L74.4926 69.5383C74.4914 69.5383 74.4914 69.5383 74.4926 69.5395L74.4097 70.2311V70.2322L74.2996 71.1457L74.2901 71.1445L71.2287 70.7491L68.0738 70.342L66.3791 70.1237C65.9864 70.0727 65.5874 70.1 65.2053 70.2042C64.8233 70.3083 64.4659 70.4871 64.1539 70.7303C63.8283 70.9818 63.5562 71.2955 63.3535 71.6529C63.1508 72.0103 63.0215 72.4044 62.9731 72.8121C62.9625 72.8947 62.9554 72.9796 62.9518 73.0634L61.3531 76.8388C60.3964 79.0966 59.7871 81.4854 59.5458 83.9244L58.3734 87.6597L58.5404 87.675L61.025 87.9051L61.6811 87.9665L63.1259 85.8646C63.2905 85.6251 63.4468 85.3784 63.5925 85.1259C63.8323 84.7134 64.0455 84.2861 64.2308 83.8466L67.3561 76.4352C67.5977 76.4765 67.837 76.5158 68.0738 76.5532C69.1693 76.7302 70.2209 76.8746 71.2287 76.9863C74.5056 77.351 77.3431 77.3793 79.8692 77.0701C80.5786 76.9839 81.2643 76.8706 81.9263 76.7302C82.1691 76.6794 82.4087 76.6248 82.6451 76.5662C82.7008 76.5532 82.7553 76.5402 82.8098 76.526C83.2992 76.4002 83.7492 76.1541 84.1185 75.8102C84.4878 75.4663 84.7646 75.0356 84.9237 74.5575C85.1136 74.0035 85.1407 73.4069 85.0018 72.838Z" fill="#2F2E41"/>
<path d="M59.2047 91.7819L57.4603 90.9487L57.1867 90.8177L56.7497 91.887L53.699 92.5561C53.5482 92.5891 53.4118 92.6692 53.31 92.7849C53.2081 92.9005 53.146 93.0456 53.1328 93.199C53.1196 93.3523 53.1559 93.5058 53.2364 93.6371C53.317 93.7684 53.4376 93.8705 53.5806 93.9287L56.5614 95.1407L57.5076 94.2921L57.2755 95.431L58.3982 95.8877L59.6286 91.9849L59.2047 91.7819Z" fill="#2F2E41"/>
<path d="M69.9253 90.1352L70.0367 90.416H69.9253V90.1352Z" fill="#2F2E41"/>
<path d="M69.3177 90.4761L67.4899 91.1072L67.203 91.2059L67.6474 92.2721L65.9522 94.8866C65.8682 95.0158 65.828 95.1683 65.8372 95.322C65.8465 95.4756 65.9048 95.6222 66.0037 95.7404C66.1026 95.8586 66.2368 95.9423 66.3867 95.9791C66.5366 96.0159 66.6945 96.0039 66.8371 95.945L69.811 94.7161L69.8842 93.4497L70.5234 94.4217L71.6437 93.959L69.7623 90.323L69.3177 90.4761Z" fill="#2F2E41"/>
<path d="M84.546 74.5478C84.4375 74.5476 84.3306 74.5212 84.2346 74.4709L74.5889 69.4483L74.4775 68.9936L74.2675 67.5547L74.2703 67.5412L75.1877 63.3267C75.1709 63.2905 75.1357 63.2312 75.096 63.1641C74.6865 62.4727 73.4402 60.3682 75.8188 57.4704L79.995 52.6184L83.5793 52.4648L83.6201 52.5161C84.5785 53.7148 85.2249 55.131 85.5017 56.6387C85.7786 58.1463 85.6774 59.6988 85.2071 61.1581L84.8338 67.8752L85.2342 69.2317C85.4682 70.0289 85.4295 70.881 85.1241 71.6538L85.2159 73.8503C85.2195 73.9403 85.2048 74.0302 85.1728 74.1144C85.1408 74.1987 85.0921 74.2757 85.0295 74.3408C84.967 74.4059 84.892 74.4578 84.8089 74.4933C84.7258 74.5289 84.6364 74.5474 84.546 74.5478Z" fill="#3F3D56"/>
<path d="M76.179 80.0874C76.3424 79.9912 76.4827 79.8605 76.5899 79.7044C76.6971 79.5484 76.7687 79.3708 76.7996 79.1842C76.8305 78.9976 76.82 78.8065 76.7688 78.6244C76.7176 78.4423 76.6269 78.2736 76.5032 78.1302L78.8222 74.1558L76.4286 74.2903L74.5934 78.0438C74.3654 78.2669 74.2274 78.5655 74.2057 78.8832C74.1839 79.2009 74.2798 79.5155 74.4753 79.7674C74.6707 80.0193 74.9521 80.1911 75.2661 80.25C75.5802 80.309 75.905 80.2512 76.179 80.0874Z" fill="#FFB7B7"/>
<path d="M77.1148 77.1655L74.9719 75.5022L78.8659 67.9824L77.4068 58.4061C77.3347 57.9328 77.368 57.4494 77.5044 56.9904C77.6409 56.5313 77.8771 56.1078 78.1962 55.7499C78.5153 55.392 78.9096 55.1086 79.3511 54.9196C79.7925 54.7307 80.2703 54.6409 80.7505 54.6566C81.6178 54.6861 82.4379 55.0571 83.031 55.6884C83.624 56.3197 83.9416 57.1597 83.9139 58.024L83.5534 68.9278L77.1148 77.1655Z" fill="#3F3D56"/>
<path d="M77.6958 50.6024V47.0679C77.695 45.8118 78.1949 44.6068 79.0857 43.718C79.9764 42.8292 81.1849 42.3295 82.4454 42.3287C83.7059 42.3279 84.9151 42.8261 85.807 43.7137C86.6988 44.6013 87.2003 45.8057 87.2011 47.0618V47.0679C88.0388 48.8073 87.5147 49.6343 87.2011 50.6024C87.2009 50.7709 87.1335 50.9325 87.0139 51.0517C86.8943 51.1709 86.7322 51.238 86.563 51.2383H78.3342C78.165 51.2381 78.0028 51.171 77.8831 51.0518C77.7634 50.9326 77.6961 50.771 77.6958 50.6024Z" fill="#2F2E41"/>
<path d="M80.8902 51.0086C82.855 51.0086 84.4477 49.4214 84.4477 47.4634C84.4477 45.5055 82.855 43.9182 80.8902 43.9182C78.9254 43.9182 77.3326 45.5055 77.3326 47.4634C77.3326 49.4214 78.9254 51.0086 80.8902 51.0086Z" fill="#FFB7B7"/>
<path d="M84.6133 48.3928C84.5811 48.3877 84.5488 48.381 84.5166 48.3759C83.9617 48.2778 83.4067 48.1814 82.8535 48.0816L82.8026 46.8319L82.1323 47.9514C80.6033 48.4571 79.1727 48.1713 77.827 47.5405C77.3831 47.3305 76.9524 47.0939 76.5372 46.8319C76.6503 46.1407 76.917 45.4835 77.3177 44.9082C77.7185 44.333 78.2433 43.8543 78.8537 43.5072C78.9046 43.4784 78.9538 43.4531 79.0047 43.4277L79.0053 43.4276L79.0059 43.4272L79.0063 43.4266L79.0064 43.426C79.0929 43.3854 79.1812 43.3465 79.2694 43.311C79.9603 43.042 80.7136 42.9738 81.4418 43.1145C82.1699 43.2552 82.8431 43.599 83.383 44.1058C84.4691 45.1391 84.9578 46.8454 84.6133 48.3928Z" fill="#2F2E41"/>
</g>
<defs>
<clipPath id="clip0_481_433">
<rect width="103" height="96" fill="white"/>
</clipPath>
</defs>
</svg>
