<svg width="30" height="24" viewBox="0 0 30 24" fill="none" xmlns="http://www.w3.org/2000/svg">
<path d="M0 20.8334C0 22.2136 1.11979 23.3334 2.5 23.3334H27.5C28.8802 23.3334 30 22.2136 30 20.8334V11.6667H0V20.8334ZM10 17.2917C10 16.948 10.2812 16.6667 10.625 16.6667H17.7083C18.0521 16.6667 18.3333 16.948 18.3333 17.2917V19.3751C18.3333 19.7188 18.0521 20.0001 17.7083 20.0001H10.625C10.2812 20.0001 10 19.7188 10 19.3751V17.2917ZM3.33333 17.2917C3.33333 16.948 3.61458 16.6667 3.95833 16.6667H7.70833C8.05208 16.6667 8.33333 16.948 8.33333 17.2917V19.3751C8.33333 19.7188 8.05208 20.0001 7.70833 20.0001H3.95833C3.61458 20.0001 3.33333 19.7188 3.33333 19.3751V17.2917ZM30 2.50008V5.00008H0V2.50008C0 1.11987 1.11979 7.62939e-05 2.5 7.62939e-05H27.5C28.8802 7.62939e-05 30 1.11987 30 2.50008Z" fill="#A38E23"/>
</svg>
