<svg width="80" height="73" viewBox="0 0 80 73" fill="none" xmlns="http://www.w3.org/2000/svg">
<g clip-path="url(#clip0_1176_748)">
<path d="M68.9444 6.70936L1.91138 26.24L3.68689 32.3339L70.7199 12.8033L68.9444 6.70936Z" fill="#3F3D56"/>
<path d="M9.92004 54.2315L0.039903 20.321C-0.0333455 20.0696 -0.0037186 19.7994 0.122262 19.5698C0.248242 19.3403 0.460257 19.1701 0.711669 19.0969L66.1196 0.039694C66.371 -0.0333085 66.6411 -0.00358116 66.8706 0.122354C67.1001 0.248289 67.2703 0.460142 67.3438 0.711408L76.0968 30.7537L75.826 30.8326L67.0729 0.790336C67.0203 0.610935 66.8988 0.459697 66.7349 0.369757C66.571 0.279817 66.3781 0.258507 66.1985 0.310499L0.79058 19.3677C0.610999 19.42 0.459561 19.5415 0.369575 19.7055C0.279589 19.8695 0.258427 20.0625 0.310745 20.2421L10.1909 54.1526L9.92004 54.2315Z" fill="#3F3D56"/>
<path d="M61.6198 30.8933C61.4213 30.8931 61.2283 30.8287 61.0696 30.7096C60.9108 30.5905 60.7949 30.4232 60.7391 30.2328L59.082 24.5451C59.0143 24.3117 59.0419 24.0609 59.1588 23.8478C59.2758 23.6347 59.4725 23.4767 59.7057 23.4085L65.3934 21.7513C65.6269 21.6836 65.8777 21.7112 66.0908 21.8282C66.3039 21.9451 66.4619 22.1419 66.5301 22.3752L68.1872 28.0628C68.255 28.2962 68.2273 28.547 68.1104 28.7601C67.9935 28.9732 67.7968 29.1312 67.5635 29.1995L61.8758 30.8566C61.7927 30.8809 61.7064 30.8933 61.6198 30.8933Z" fill="#A38E23"/>
<path d="M9.76718 20.4258C9.75014 20.3674 9.72989 20.3099 9.7065 20.2537C9.54747 19.8678 9.25142 19.5542 8.87522 19.3732C8.49903 19.1923 8.06923 19.1567 7.66842 19.2734C7.2676 19.3901 6.92406 19.6508 6.70379 20.0054C6.48351 20.36 6.40205 20.7835 6.47507 21.1945C6.48532 21.2545 6.49898 21.3138 6.51597 21.3723C6.61898 21.7238 6.8331 22.0326 7.12627 22.2523C7.41945 22.472 7.7759 22.5908 8.14226 22.5909C8.30222 22.5913 8.46138 22.5685 8.6148 22.5232C9.04542 22.3974 9.40856 22.1059 9.62459 21.7128C9.84062 21.3196 9.8919 20.8568 9.76718 20.4258ZM8.53581 22.2524C8.17669 22.3566 7.79089 22.3142 7.46302 22.1344C7.13515 21.9546 6.89196 21.6521 6.78679 21.2933C6.77027 21.2348 6.75707 21.1755 6.74725 21.1156C6.69435 20.7769 6.7666 20.4306 6.9505 20.1413C7.13441 19.8521 7.41736 19.6398 7.74647 19.544C8.07557 19.4482 8.42829 19.4756 8.73867 19.621C9.04904 19.7665 9.29582 20.02 9.43286 20.3341C9.45841 20.3893 9.47964 20.4464 9.49636 20.5048C9.60045 20.8639 9.55776 21.2497 9.37766 21.5774C9.19756 21.905 8.89478 22.1478 8.53581 22.2524Z" fill="#A38E23"/>
<path d="M5.61577 21.6346C5.5255 21.3246 5.53417 20.9942 5.64057 20.6894C5.74697 20.3845 5.9458 20.1205 6.20936 19.934C5.96243 19.9219 5.71621 19.9691 5.49119 20.0715C5.26617 20.1739 5.06888 20.3286 4.91576 20.5226C4.76263 20.7167 4.65809 20.9446 4.61086 21.1873C4.56362 21.4299 4.57506 21.6804 4.64422 21.9177C4.71337 22.1551 4.83824 22.3724 5.00842 22.5518C5.1786 22.7311 5.38917 22.8671 5.62258 22.9486C5.85599 23.0301 6.10549 23.0546 6.35029 23.0201C6.59509 22.9856 6.82811 22.8931 7.02993 22.7503C6.70744 22.7346 6.39789 22.6186 6.14441 22.4187C5.89093 22.2187 5.70613 21.9446 5.61577 21.6346Z" fill="#A38E23"/>
<path d="M49.4632 28.6252C49.4332 28.5172 49.3822 28.4163 49.3131 28.328C49.2441 28.2398 49.1583 28.1661 49.0607 28.1111C48.9631 28.0561 48.8556 28.0208 48.7444 28.0074C48.6331 27.9939 48.5203 28.0026 48.4125 28.0327L39.0481 30.6521L38.0396 30.9342H44.3727L45.3812 30.6521L48.8722 29.676C49.0899 29.6149 49.2743 29.4699 49.3851 29.2728C49.4959 29.0758 49.524 28.8429 49.4632 28.6252Z" fill="#CCCCCC"/>
<path d="M42.838 26.6688C42.777 26.4511 42.632 26.2666 42.4349 26.1557C42.2379 26.0449 42.0049 26.0169 41.7871 26.0778L27.7357 30.0075C27.5393 30.0631 27.3693 30.1871 27.2563 30.357C27.1433 30.5269 27.0947 30.7316 27.1193 30.9342H30.757L31.7669 30.6521L42.247 27.7211C42.4648 27.6597 42.6494 27.5145 42.7602 27.3172C42.871 27.1199 42.899 26.8867 42.838 26.6688Z" fill="#CCCCCC"/>
<path d="M79.0126 30.6517H10.8848C10.623 30.652 10.3721 30.7561 10.187 30.9412C10.0019 31.1263 9.89775 31.3773 9.89746 31.6391V71.9797C9.89774 72.2415 10.0019 72.4925 10.187 72.6776C10.3721 72.8627 10.623 72.9668 10.8848 72.9671H79.0126C79.2743 72.9668 79.5253 72.8627 79.7104 72.6775C79.8955 72.4924 79.9996 72.2415 79.9999 71.9797V31.6391C79.9996 31.3773 79.8955 31.1264 79.7104 30.9413C79.5253 30.7562 79.2743 30.652 79.0126 30.6517ZM79.7178 71.9797C79.7177 72.1667 79.6434 72.3461 79.5112 72.4783C79.3789 72.6106 79.1996 72.6849 79.0126 72.685H10.8848C10.6978 72.6849 10.5184 72.6106 10.3862 72.4783C10.254 72.3461 10.1796 72.1667 10.1796 71.9797V31.6391C10.1796 31.4521 10.254 31.2727 10.3862 31.1405C10.5185 31.0082 10.6978 30.9339 10.8848 30.9338H79.0126C79.1996 30.9339 79.3789 31.0082 79.5112 31.1405C79.6434 31.2727 79.7177 31.4521 79.7178 31.6391V71.9797Z" fill="#3F3D56"/>
<path d="M17.5139 36.153C17.1791 36.153 16.8519 36.0538 16.5735 35.8678C16.2952 35.6818 16.0782 35.4175 15.9501 35.1082C15.822 34.7989 15.7885 34.4586 15.8538 34.1302C15.9191 33.8019 16.0803 33.5003 16.317 33.2636C16.5538 33.0269 16.8554 32.8657 17.1837 32.8003C17.512 32.735 17.8524 32.7686 18.1616 32.8967C18.4709 33.0248 18.7353 33.2417 18.9213 33.5201C19.1072 33.7984 19.2065 34.1257 19.2065 34.4604C19.206 34.9092 19.0275 35.3394 18.7102 35.6567C18.3929 35.974 17.9627 36.1525 17.5139 36.153ZM17.5139 33.0499C17.2349 33.0499 16.9622 33.1326 16.7303 33.2876C16.4983 33.4426 16.3175 33.6629 16.2108 33.9207C16.104 34.1784 16.0761 34.462 16.1305 34.7356C16.1849 35.0092 16.3193 35.2606 16.5165 35.4578C16.7138 35.6551 16.9651 35.7894 17.2387 35.8438C17.5123 35.8983 17.7959 35.8703 18.0537 35.7636C18.3114 35.6568 18.5317 35.476 18.6867 35.2441C18.8417 35.0121 18.9244 34.7394 18.9244 34.4604C18.924 34.0865 18.7752 33.728 18.5108 33.4635C18.2464 33.1991 17.8879 33.0503 17.5139 33.0499Z" fill="#A38E23"/>
<path d="M14.8828 34.4605C14.8829 34.1376 14.9836 33.8228 15.171 33.5599C15.3585 33.297 15.6232 33.0991 15.9284 32.9938C15.6947 32.9131 15.4451 32.8895 15.2005 32.9249C14.9558 32.9603 14.7231 33.0536 14.5218 33.1971C14.3205 33.3406 14.1564 33.5301 14.0432 33.7499C13.9299 33.9696 13.8708 34.2133 13.8708 34.4605C13.8708 34.7077 13.9299 34.9514 14.0432 35.1711C14.1564 35.3909 14.3205 35.5804 14.5218 35.7239C14.7231 35.8674 14.9558 35.9607 15.2005 35.9961C15.4451 36.0315 15.6947 36.0079 15.9284 35.9272C15.6232 35.8219 15.3585 35.624 15.171 35.3611C14.9836 35.0982 14.8829 34.7834 14.8828 34.4605Z" fill="#A38E23"/>
<path d="M24.3749 54.4584C24.0384 54.458 23.7157 54.3241 23.4777 54.0861C23.2397 53.8482 23.1059 53.5255 23.1055 53.1889V49.3805C23.1055 49.0439 23.2392 48.721 23.4773 48.4829C23.7154 48.2448 24.0382 48.1111 24.3749 48.1111C24.7116 48.1111 25.0345 48.2448 25.2726 48.4829C25.5106 48.721 25.6444 49.0439 25.6444 49.3805V53.1889C25.644 53.5255 25.5101 53.8481 25.2721 54.0861C25.0342 54.3241 24.7115 54.458 24.3749 54.4584Z" fill="#A38E23"/>
<path d="M27.7602 54.4584C27.4236 54.458 27.1009 54.3241 26.863 54.0861C26.625 53.8482 26.4911 53.5255 26.4907 53.1889V49.3805C26.4907 49.0439 26.6245 48.721 26.8625 48.4829C27.1006 48.2448 27.4235 48.1111 27.7602 48.1111C28.0969 48.1111 28.4198 48.2448 28.6578 48.4829C28.8959 48.721 29.0296 49.0439 29.0296 49.3805V53.1889C29.0293 53.5255 28.8954 53.8481 28.6574 54.0861C28.4194 54.3241 28.0967 54.458 27.7602 54.4584Z" fill="#A38E23"/>
<path d="M31.1454 54.4584C30.8089 54.458 30.4862 54.3241 30.2482 54.0861C30.0102 53.8482 29.8764 53.5255 29.876 53.1889V49.3805C29.876 49.0439 30.0097 48.721 30.2478 48.4829C30.4859 48.2448 30.8088 48.1111 31.1454 48.1111C31.4821 48.1111 31.805 48.2448 32.0431 48.4829C32.2811 48.721 32.4149 49.0439 32.4149 49.3805V53.1889C32.4145 53.5255 32.2806 53.8481 32.0427 54.0861C31.8047 54.3241 31.482 54.458 31.1454 54.4584Z" fill="#A38E23"/>
<path d="M36.3644 54.4584C36.0279 54.458 35.7052 54.3241 35.4672 54.0861C35.2292 53.8482 35.0954 53.5255 35.095 53.1889V49.3805C35.095 49.0439 35.2287 48.721 35.4668 48.4829C35.7049 48.2448 36.0277 48.1111 36.3644 48.1111C36.7011 48.1111 37.024 48.2448 37.2621 48.4829C37.5001 48.721 37.6339 49.0439 37.6339 49.3805V53.1889C37.6335 53.5255 37.4996 53.8481 37.2617 54.0861C37.0237 54.3241 36.701 54.458 36.3644 54.4584Z" fill="#A38E23"/>
<path d="M39.7497 54.4584C39.4131 54.458 39.0905 54.3241 38.8525 54.0861C38.6145 53.8482 38.4806 53.5255 38.4802 53.1889V49.3805C38.4802 49.0439 38.614 48.721 38.852 48.4829C39.0901 48.2448 39.413 48.1111 39.7497 48.1111C40.0864 48.1111 40.4093 48.2448 40.6473 48.4829C40.8854 48.721 41.0191 49.0439 41.0191 49.3805V53.1889C41.0188 53.5255 40.8849 53.8481 40.6469 54.0861C40.4089 54.3241 40.0862 54.458 39.7497 54.4584Z" fill="#A38E23"/>
<path d="M43.1349 54.4584C42.7984 54.458 42.4757 54.3241 42.2377 54.0861C41.9997 53.8482 41.8659 53.5255 41.8655 53.1889V49.3805C41.8655 49.0439 41.9992 48.721 42.2373 48.4829C42.4754 48.2448 42.7983 48.1111 43.1349 48.1111C43.4716 48.1111 43.7945 48.2448 44.0326 48.4829C44.2707 48.721 44.4044 49.0439 44.4044 49.3805V53.1889C44.404 53.5255 44.2701 53.8481 44.0322 54.0861C43.7942 54.3241 43.4715 54.458 43.1349 54.4584Z" fill="#A38E23"/>
<path d="M48.3537 54.4584C48.0171 54.458 47.6945 54.3241 47.4565 54.0861C47.2185 53.8482 47.0846 53.5255 47.0842 53.1889V49.3805C47.0842 49.0439 47.218 48.721 47.456 48.4829C47.6941 48.2448 48.017 48.1111 48.3537 48.1111C48.6904 48.1111 49.0133 48.2448 49.2513 48.4829C49.4894 48.721 49.6231 49.0439 49.6231 49.3805V53.1889C49.6228 53.5255 49.4889 53.8481 49.2509 54.0861C49.0129 54.3241 48.6903 54.458 48.3537 54.4584Z" fill="#A38E23"/>
<path d="M51.7389 54.4584C51.4024 54.458 51.0797 54.3241 50.8417 54.0861C50.6037 53.8482 50.4699 53.5255 50.4695 53.1889V49.3805C50.4695 49.0439 50.6032 48.721 50.8413 48.4829C51.0794 48.2448 51.4023 48.1111 51.7389 48.1111C52.0756 48.1111 52.3985 48.2448 52.6366 48.4829C52.8747 48.721 53.0084 49.0439 53.0084 49.3805V53.1889C53.008 53.5255 52.8741 53.8481 52.6362 54.0861C52.3982 54.3241 52.0755 54.458 51.7389 54.4584Z" fill="#A38E23"/>
<path d="M55.1242 54.4584C54.7876 54.458 54.465 54.3241 54.227 54.0861C53.989 53.8482 53.8551 53.5255 53.8547 53.1889V49.3805C53.8547 49.0439 53.9885 48.721 54.2266 48.4829C54.4646 48.2448 54.7875 48.1111 55.1242 48.1111C55.4609 48.1111 55.7838 48.2448 56.0218 48.4829C56.2599 48.721 56.3937 49.0439 56.3937 49.3805V53.1889C56.3933 53.5255 56.2594 53.8481 56.0214 54.0861C55.7834 54.3241 55.4608 54.458 55.1242 54.4584Z" fill="#A38E23"/>
<path d="M60.3432 54.4584C60.0066 54.458 59.684 54.3241 59.446 54.0861C59.208 53.8482 59.0741 53.5255 59.0737 53.1889V49.3805C59.0737 49.0439 59.2075 48.721 59.4455 48.4829C59.6836 48.2448 60.0065 48.1111 60.3432 48.1111C60.6799 48.1111 61.0028 48.2448 61.2408 48.4829C61.4789 48.721 61.6126 49.0439 61.6126 49.3805V53.1889C61.6123 53.5255 61.4784 53.8481 61.2404 54.0861C61.0024 54.3241 60.6798 54.458 60.3432 54.4584Z" fill="#A38E23"/>
<path d="M63.7282 54.4584C63.3916 54.458 63.069 54.3241 62.831 54.0861C62.593 53.8482 62.4591 53.5255 62.4587 53.1889V49.3805C62.4587 49.0439 62.5925 48.721 62.8306 48.4829C63.0686 48.2448 63.3915 48.1111 63.7282 48.1111C64.0649 48.1111 64.3878 48.2448 64.6258 48.4829C64.8639 48.721 64.9977 49.0439 64.9977 49.3805V53.1889C64.9973 53.5255 64.8634 53.8481 64.6254 54.0861C64.3874 54.3241 64.0648 54.458 63.7282 54.4584Z" fill="#A38E23"/>
<path d="M67.1135 54.4584C66.7769 54.458 66.4542 54.3241 66.2162 54.0861C65.9783 53.8482 65.8444 53.5255 65.844 53.1889V49.3805C65.844 49.0439 65.9777 48.721 66.2158 48.4829C66.4539 48.2448 66.7768 48.1111 67.1135 48.1111C67.4501 48.1111 67.773 48.2448 68.0111 48.4829C68.2492 48.721 68.3829 49.0439 68.3829 49.3805V53.1889C68.3825 53.5255 68.2487 53.8481 68.0107 54.0861C67.7727 54.3241 67.45 54.458 67.1135 54.4584Z" fill="#A38E23"/>
<path d="M32.9818 68.5871H14.7241C14.4979 68.5871 14.2809 68.4972 14.1209 68.3372C13.961 68.1773 13.8711 67.9603 13.8711 67.7341C13.8711 67.5079 13.961 67.2909 14.1209 67.1309C14.2809 66.971 14.4979 66.8811 14.7241 66.8811H32.9818C33.208 66.8811 33.425 66.971 33.5849 67.1309C33.7449 67.2909 33.8348 67.5079 33.8348 67.7341C33.8348 67.9603 33.7449 68.1773 33.5849 68.3372C33.425 68.4972 33.208 68.5871 32.9818 68.5871Z" fill="#E6E6E6"/>
<path d="M27.1281 64.9197H20.5776C20.3514 64.9197 20.1344 64.8299 19.9744 64.6699C19.8145 64.5099 19.7246 64.293 19.7246 64.0667C19.7246 63.8405 19.8145 63.6235 19.9744 63.4636C20.1344 63.3036 20.3514 63.2137 20.5776 63.2137H27.1281C27.3543 63.2137 27.5712 63.3036 27.7312 63.4636C27.8912 63.6235 27.981 63.8405 27.981 64.0667C27.981 64.293 27.8912 64.5099 27.7312 64.6699C27.5712 64.8299 27.3543 64.9197 27.1281 64.9197Z" fill="#E6E6E6"/>
<path d="M79.6671 39.0839H10.1289V39.366H79.6671V39.0839Z" fill="#3F3D56"/>
</g>
<defs>
<clipPath id="clip0_1176_748">
<rect width="80" height="72.9671" fill="white"/>
</clipPath>
</defs>
</svg>
