<svg width="83" height="83" viewBox="0 0 83 83" fill="none" xmlns="http://www.w3.org/2000/svg">
<g clip-path="url(#clip0_312_90)">
<path d="M42.2426 54.1815C49.6828 54.1815 55.7143 48.15 55.7143 40.7098C55.7143 33.2695 49.6828 27.238 42.2426 27.238C34.8024 27.238 28.7709 33.2695 28.7709 40.7098C28.7709 48.15 34.8024 54.1815 42.2426 54.1815Z" fill="#FFB6B6"/>
<path d="M34.5089 56.1736L33.9003 50.0214L46.0541 47.7488L53.2307 65.2225L40.7495 79.5758L31.8567 62.1022L34.5089 56.1736Z" fill="#FFB6B6"/>
<path d="M33.7051 53.1009L36.3622 53.7012C36.3622 53.7012 34.2734 47.0777 34.9824 46.4453C35.6914 45.813 37.4287 46.8094 37.4287 46.8094L39.2544 48.8563L41.4782 46.5921C41.4782 46.5921 43.8926 43.5901 44.8379 42.7469C45.7832 41.9038 44.2648 38.7742 44.2648 38.7742C44.2648 38.7742 58.2893 34.9925 53.0707 28.1902C53.0707 28.1902 50.0111 22.8569 49.0148 24.5943C48.0184 26.3316 46.8303 23.5723 46.8303 23.5723L43.2024 24.2622C43.2024 24.2622 36.0422 20.0404 29.2463 29.0721C22.4504 38.1038 33.7051 53.1009 33.7051 53.1009Z" fill="#2F2E41"/>
<path d="M67.5795 73.7873C60.2171 79.7565 51.109 83 41.5 83C32.7257 83 24.368 80.2947 17.377 75.2804C17.3894 75.1494 17.4019 75.0199 17.4128 74.8904C17.5985 72.8622 17.7639 70.8901 17.8731 69.2551C18.2959 62.9069 33.1064 58.6757 33.1064 58.6757C33.1064 58.6757 33.1735 58.7428 33.3077 58.8598C34.1252 59.5775 37.4436 62.1798 43.263 62.9069C48.452 63.5559 50.1604 60.4777 50.6768 59.0034C50.8328 58.554 50.8796 58.2529 50.8796 58.2529L66.1129 65.4468C67.1068 66.8665 67.4952 69.9244 67.5717 73.3614C67.5748 73.5034 67.5779 73.6438 67.5795 73.7873Z" fill="#A38E23"/>
<path d="M70.8449 12.1551C63.0067 4.31693 52.5849 0 41.5 0C30.4151 0 19.9933 4.31693 12.1551 12.1551C4.31694 19.9933 0 30.4151 0 41.5C0 51.6176 3.59615 61.1829 10.1862 68.7355C10.815 69.4579 11.4718 70.1615 12.1551 70.8449C12.3158 71.0056 12.4781 71.1663 12.6419 71.3223C13.0787 71.7451 13.5234 72.1585 13.9758 72.5595C14.2504 72.8044 14.5281 73.0447 14.809 73.2803C15.0289 73.4659 15.2489 73.6485 15.472 73.8279C15.4767 73.8326 15.4798 73.8357 15.4845 73.8388C16.1039 74.338 16.7342 74.8186 17.377 75.2804C24.368 80.2947 32.7257 83 41.5 83C51.109 83 60.2171 79.7565 67.5795 73.7873C68.1801 73.3005 68.7683 72.7951 69.3456 72.2724C69.8557 71.8106 70.355 71.3348 70.8449 70.8449C70.9993 70.6904 71.1538 70.5344 71.3051 70.3768C71.7264 69.9431 72.1351 69.5016 72.5345 69.0538C79.3009 61.4528 83 51.7611 83 41.5C83 30.4151 78.6831 19.9933 70.8449 12.1551ZM72.4331 68.6653C72.0431 69.1084 71.6437 69.5453 71.2349 69.9712C70.5984 70.6342 69.9416 71.277 69.2629 71.8964C69.0055 72.1336 68.7449 72.3645 68.4812 72.5938C68.1817 72.8543 67.879 73.1102 67.5717 73.3614C65.1488 75.3506 62.4949 77.0668 59.657 78.4646C58.5353 79.0185 57.3855 79.5224 56.2091 79.9733C51.6394 81.7269 46.6797 82.688 41.5 82.688C36.5013 82.688 31.7085 81.7924 27.273 80.1543C25.4523 79.4834 23.6925 78.6862 22.0028 77.7735C21.7547 77.6393 21.5082 77.5036 21.2633 77.3647C19.9746 76.6346 18.7281 75.8374 17.5314 74.9762C17.4924 74.9481 17.4518 74.9184 17.4128 74.8903C16.561 74.2756 15.7326 73.6282 14.9322 72.948C14.6389 72.6999 14.3487 72.4487 14.0632 72.1913C13.5983 71.7778 13.1427 71.3519 12.6981 70.9151C11.8556 70.0898 11.0505 69.2301 10.2814 68.3362C4.07044 61.122 0.31203 51.7424 0.31203 41.5C0.31203 18.7889 18.7889 0.31203 41.5 0.31203C64.2111 0.31203 82.688 18.7889 82.688 41.5C82.688 51.9 78.8141 61.4106 72.4331 68.6653Z" fill="#3F3D56"/>
</g>
<defs>
<clipPath id="clip0_312_90">
<rect width="83" height="83" fill="white"/>
</clipPath>
</defs>
</svg>
