<svg width="37" height="30" viewBox="0 0 37 30" fill="none" xmlns="http://www.w3.org/2000/svg">
<path d="M30.5308 16.5891L30.5312 16.5895L35.7516 21.8041C36.0833 22.1358 36.0833 22.6684 35.7486 23.0004L35.7458 23.0032L30.3978 28.3512C30.0657 28.6833 29.5252 28.6833 29.193 28.3512L29.1926 28.3508L23.9722 23.1362C23.4664 22.6304 23.184 21.9483 23.184 21.23V16.651C23.184 16.1799 23.563 15.8009 24.0341 15.8009H28.6189C29.3388 15.8009 30.0262 16.0845 30.5308 16.5891ZM23.5024 18.4953C23.5024 19.8165 24.5687 20.8829 25.89 20.8829C27.2139 20.8829 28.2775 19.808 28.2775 18.4953C28.2775 17.1741 27.2112 16.1077 25.89 16.1077C24.5687 16.1077 23.5024 17.1741 23.5024 18.4953ZM19.3512 7.39465C19.3512 10.93 16.4861 13.7951 12.9508 13.7951C9.41495 13.7951 6.55033 10.9294 6.55033 7.40044C6.55033 3.86514 9.41546 1 12.9508 1C16.4866 1 19.3512 3.86564 19.3512 7.39465ZM18.1311 17.6394C18.5342 17.6394 18.9349 17.6891 19.3396 17.7741V21.2242C19.3396 22.9752 20.0231 24.6229 21.2571 25.857L23.8409 28.4408C23.6214 28.541 23.3798 28.596 23.1264 28.596H2.77516C1.79533 28.596 1 27.8006 1 26.8208V24.4157C1 20.6783 4.03284 17.6445 7.7718 17.6394H8.52332C9.88241 18.2295 11.3755 18.5645 12.9508 18.5645C14.5247 18.5645 16.0231 18.23 17.379 17.6394H18.1311Z" fill="white" stroke="#BBAA52" stroke-width="2"/>
</svg>
