<svg width="96" height="96" viewBox="0 0 96 96" fill="none" xmlns="http://www.w3.org/2000/svg">
<g clip-path="url(#clip0_28_343)">
<path d="M48.8589 62.6677C57.4645 62.6677 64.4407 55.6915 64.4407 47.0859C64.4407 38.4803 57.4645 31.5042 48.8589 31.5042C40.2534 31.5042 33.2772 38.4803 33.2772 47.0859C33.2772 55.6915 40.2534 62.6677 48.8589 62.6677Z" fill="#FFB6B6"/>
<path d="M39.914 64.9719L39.21 57.8561L53.2673 55.2275L61.5681 75.4381L47.132 92.0396L36.8463 71.829L39.914 64.9719Z" fill="#FFB6B6"/>
<path d="M38.9842 61.4179L42.0575 62.1123C42.0575 62.1123 39.6415 54.4513 40.4616 53.7199C41.2816 52.9885 43.291 54.141 43.291 54.141L45.4027 56.5085L47.9748 53.8897C47.9748 53.8897 50.7673 50.4174 51.8607 49.4422C52.954 48.4671 51.1978 44.8473 51.1978 44.8473C51.1978 44.8473 67.4189 40.4733 61.383 32.6056C61.383 32.6056 57.8442 26.4369 56.6918 28.4464C55.5393 30.4559 54.1652 27.2644 54.1652 27.2644L49.969 28.0624C49.969 28.0624 41.6873 23.1793 33.827 33.6256C25.9668 44.0719 38.9842 61.4179 38.9842 61.4179Z" fill="#2F2E41"/>
<path d="M78.1642 85.3445C69.6487 92.2485 59.114 96.0001 48 96.0001C37.8514 96.0001 28.1846 92.8711 20.0986 87.0714C20.1131 86.9198 20.1275 86.77 20.1401 86.6203C20.3549 84.2744 20.5462 81.9935 20.6725 80.1024C21.1615 72.7598 38.2917 67.866 38.2917 67.866C38.2917 67.866 38.3693 67.9436 38.5245 68.0789C39.4701 68.909 43.3083 71.9189 50.0391 72.7598C56.0409 73.5105 58.0168 69.9502 58.6141 68.2449C58.7946 67.7252 58.8487 67.377 58.8487 67.377L76.468 75.6976C77.6174 77.3397 78.0668 80.8765 78.1552 84.8518C78.1588 85.0161 78.1624 85.1785 78.1642 85.3445Z" fill="#A38E23"/>
<path d="M81.9411 14.059C72.8752 4.99308 60.8211 0 48 0C35.1789 0 23.1248 4.99308 14.059 14.059C4.99309 23.1248 0 35.1789 0 48C0 59.7023 4.15941 70.7657 11.7817 79.5014C12.5089 80.3368 13.2686 81.1507 14.059 81.9411C14.2448 82.1269 14.4325 82.3128 14.622 82.4932C15.1272 82.9823 15.6415 83.4604 16.1648 83.9242C16.4824 84.2075 16.8036 84.4854 17.1284 84.7579C17.3829 84.9726 17.6373 85.1838 17.8953 85.3913C17.9008 85.3967 17.9044 85.4003 17.9098 85.4039C18.6262 85.9813 19.3552 86.5371 20.0986 87.0713C28.1847 92.871 37.8514 96 48 96C59.114 96 69.6487 92.2484 78.1642 85.3444C78.8589 84.7814 79.5393 84.1967 80.2069 83.5922C80.797 83.0581 81.3744 82.5077 81.9411 81.9411C82.1197 81.7624 82.2983 81.582 82.4734 81.3997C82.9606 80.898 83.4334 80.3874 83.8953 79.8695C91.7215 71.0779 96 59.8683 96 48C96 35.1789 91.0069 23.1248 81.9411 14.059ZM83.778 79.4202C83.3269 79.9326 82.865 80.4379 82.3922 80.9305C81.6559 81.6974 80.8962 82.4409 80.1113 83.1573C79.8135 83.4316 79.5122 83.6986 79.2072 83.9639C78.8608 84.2653 78.5107 84.5612 78.1552 84.8517C75.3528 87.1525 72.2833 89.1375 69.0009 90.7543C67.7035 91.3949 66.3735 91.9777 65.0129 92.4993C59.7275 94.5275 53.991 95.6391 48 95.6391C42.2183 95.6391 36.6749 94.6033 31.5447 92.7086C29.4388 91.9326 27.4033 91.0105 25.449 89.9549C25.1621 89.7997 24.877 89.6427 24.5937 89.4821C23.1032 88.6376 21.6614 87.7155 20.2773 86.7194C20.2322 86.6869 20.1853 86.6526 20.1402 86.6202C19.1549 85.9092 18.1967 85.1603 17.271 84.3735C16.9317 84.0866 16.5961 83.7961 16.2659 83.4984C15.7281 83.0201 15.2012 82.5275 14.6869 82.0222C13.7125 81.0677 12.7814 80.0734 11.8917 79.0394C4.70798 70.6953 0.360902 59.8466 0.360902 48C0.360902 21.7317 21.7317 0.360902 48 0.360902C74.2683 0.360902 95.6391 21.7317 95.6391 48C95.6391 60.0289 91.1585 71.0292 83.778 79.4202Z" fill="#3F3D56"/>
</g>
<defs>
<clipPath id="clip0_28_343">
<rect width="96" height="96" fill="white"/>
</clipPath>
</defs>
</svg>
