<svg width="22" height="22" viewBox="0 0 22 22" fill="none" xmlns="http://www.w3.org/2000/svg">
<path d="M11.2056 20.2085C6.2693 20.2085 0.94371 17.0439 0.94371 10.0999C0.94371 3.15582 6.2693 -0.00878906 11.2056 -0.00878906C13.9481 -0.00878906 16.4782 0.913468 18.3536 2.59523C20.3883 4.43975 21.4676 7.04377 21.4676 10.0999C21.4676 13.156 20.3883 15.7419 18.3536 17.5864C16.4782 19.2682 13.9304 20.2085 11.2056 20.2085Z" fill="url(#paint0_radial_1049_351)"/>
<path d="M19.6788 4.09033C20.6218 5.64551 21.1137 7.49726 21.1137 9.55697C21.1137 12.6131 20.0344 15.199 17.9997 17.0435C16.1243 18.7253 13.5765 19.6656 10.8518 19.6656C7.65642 19.6656 4.29829 18.3365 2.32729 15.5173C4.23105 18.7108 7.81034 20.2081 11.2056 20.2081C13.9304 20.2081 16.4781 19.2678 18.3536 17.586C20.3883 15.7415 21.4676 13.1556 21.4676 10.0995C21.4676 7.79564 20.8536 5.74859 19.6788 4.09033Z" fill="#EB8F00"/>
<path d="M11.2056 20.2085C6.2693 20.2085 0.94371 17.0439 0.94371 10.0999C0.94371 3.15582 6.2693 -0.00878906 11.2056 -0.00878906C13.9481 -0.00878906 16.4782 0.913468 18.3536 2.59523C20.3883 4.43975 21.4676 7.04377 21.4676 10.0999C21.4676 13.156 20.3883 15.7419 18.3536 17.5864C16.4782 19.2682 13.9304 20.2085 11.2056 20.2085Z" fill="url(#paint1_radial_1049_351)"/>
<path d="M15.8306 13.0294C14.5355 12.6045 12.9626 12.3784 11.2764 12.3784C9.56374 12.3784 7.98022 12.6262 6.66386 13.0565C6.16492 13.901 5.86237 14.8794 5.86237 15.9228C5.86237 16.8089 6.72932 17.3333 7.49012 16.9716C8.44554 16.5195 9.84329 16.0674 11.2764 16.0674C12.7096 16.0674 14.125 16.5195 15.0627 16.9716C15.8235 17.3333 16.6905 16.8089 16.6905 15.9228C16.6905 14.8685 16.3596 13.8793 15.8306 13.0294Z" fill="#422B0D"/>
<path d="M15.8306 13.0289C14.7619 11.311 12.8847 10.877 11.2764 10.877C9.52834 10.877 7.68473 11.3236 6.66385 13.056C7.98021 12.6256 9.56373 12.3779 11.2764 12.3779C12.9608 12.3779 14.5355 12.6039 15.8306 13.0289Z" fill="white"/>
<path d="M11.2658 10.606C11.885 10.6222 12.5096 10.6801 13.1165 10.841C13.7251 10.9929 14.3161 11.2533 14.8345 11.6259C15.3476 12.0074 15.7793 12.5029 16.0747 13.0671C16.3755 13.6223 16.5949 14.2245 16.7046 14.8483C16.7612 15.1594 16.7913 15.4758 16.7913 15.7923C16.7966 15.9442 16.7825 16.1232 16.7382 16.2842C16.6922 16.4469 16.6108 16.597 16.5065 16.7272C16.2977 16.9894 15.9792 17.1449 15.6554 17.1684C15.4944 17.1775 15.3316 17.1558 15.1795 17.1052C15.0256 17.0473 14.8964 16.9768 14.7584 16.9153C13.6614 16.4198 12.4742 16.0979 11.2658 16.069C12.476 16.0527 13.6827 16.3294 14.8115 16.7905C14.953 16.8466 15.0946 16.9171 15.2255 16.9605C15.3617 17.0003 15.505 17.0129 15.643 17.0003C15.9208 16.9695 16.1862 16.8249 16.3525 16.6006C16.4357 16.4885 16.4994 16.3619 16.5312 16.2263C16.5631 16.0871 16.5702 15.955 16.5613 15.7995C16.5489 15.4975 16.51 15.1974 16.4463 14.9044C16.3207 14.3167 16.0924 13.7525 15.7899 13.2389C15.4926 12.7235 15.0857 12.2931 14.6098 11.964C14.1267 11.6439 13.5818 11.4251 13.0121 11.3058C12.4441 11.1792 11.855 11.1448 11.2658 11.1521V10.606Z" fill="#EB8F00"/>
<path d="M11.31 11.1482C10.7226 11.1409 10.1317 11.1753 9.56373 11.3019C8.99402 11.4212 8.44907 11.64 7.96605 11.9601C7.49011 12.2892 7.08317 12.7196 6.78593 13.235C6.48161 13.7486 6.25514 14.311 6.12952 14.9005C6.06583 15.1953 6.02513 15.4936 6.01452 15.7956C6.0039 15.9511 6.01275 16.0832 6.04459 16.2224C6.07821 16.358 6.14191 16.4846 6.22329 16.5967C6.38961 16.821 6.655 16.9656 6.93278 16.9964C7.07256 17.009 7.2141 16.9964 7.35034 16.9566C7.48127 16.9132 7.62281 16.8445 7.76435 16.7866C8.8914 16.3255 10.0998 16.0488 11.31 16.0651C10.0998 16.094 8.91263 16.4159 7.81743 16.9114C7.67943 16.9729 7.55027 17.0434 7.39634 17.1013C7.24418 17.1519 7.0814 17.1736 6.9204 17.1645C6.59839 17.1428 6.27991 16.9855 6.06936 16.7233C5.96498 16.5931 5.88359 16.443 5.83759 16.2803C5.79335 16.1211 5.7792 15.9421 5.78451 15.7884C5.78628 15.4719 5.81636 15.1573 5.8712 14.8444C5.98267 14.2206 6.20029 13.6184 6.50107 13.0632C6.79832 12.5008 7.23003 12.0035 7.74135 11.622C8.25976 11.2494 8.8507 10.9872 9.45934 10.8371C10.068 10.678 10.6925 10.6183 11.31 10.6021V11.1482Z" fill="#EB8F00"/>
<path d="M19.6788 4.09033C20.6218 5.64551 21.1137 7.49726 21.1137 9.55697C21.1137 12.6131 20.0344 15.199 17.9997 17.0435C16.1243 18.7253 13.5765 19.6656 10.8518 19.6656C7.65642 19.6656 4.29829 18.3365 2.32729 15.5173C4.23105 18.7108 7.81034 20.2081 11.2056 20.2081C13.9304 20.2081 16.4781 19.2678 18.3536 17.586C20.3883 15.7415 21.4676 13.1556 21.4676 10.0995C21.4676 7.79564 20.8536 5.74859 19.6788 4.09033Z" fill="#EB8F00"/>
<path d="M3.87897 7.02749C3.78697 7.04376 3.69143 7.02929 3.61004 6.98951C3.44903 6.90994 3.32695 6.71645 3.41896 6.46328C3.75689 5.56996 4.45576 4.8213 5.33688 4.40538C5.6642 4.24986 6.00744 4.14679 6.35953 4.09796C6.62316 4.06722 6.77709 4.23178 6.81424 4.40719C6.85493 4.60249 6.76824 4.84119 6.52054 4.92438L6.49931 4.93161C5.54565 5.26796 4.69462 5.95694 4.16737 6.81953C4.09483 6.94249 3.98867 7.00759 3.87897 7.02749Z" fill="#422B0D"/>
<path d="M18.2705 6.81956C17.7432 5.95698 16.8922 5.268 15.9385 4.93164L15.9173 4.92441C15.6696 4.84304 15.5811 4.60253 15.6236 4.40722C15.6607 4.23001 15.8164 4.06725 16.0783 4.098C16.4286 4.14501 16.7736 4.2499 17.1009 4.40542C17.9821 4.82134 18.6809 5.56999 19.0189 6.46332C19.1109 6.71648 18.9888 6.90998 18.8278 6.98954C18.7482 7.02933 18.6526 7.04379 18.5589 7.02752C18.4492 7.00763 18.343 6.94253 18.2705 6.81956Z" fill="#422B0D"/>
<path d="M19.7231 18.7976C19.7231 18.2424 18.7411 17.7813 17.5079 17.7524L17.1275 8.24949C17.0903 8.22056 17.0532 8.1862 17.0231 8.14823C17.0231 8.14823 17.0125 8.13376 16.9913 8.10844C16.9806 8.09578 16.9683 8.07951 16.9541 8.05962C16.9382 8.03972 16.9223 8.01803 16.9081 8.00718C16.878 7.97643 16.8409 7.93846 16.7984 7.89506C16.7542 7.84985 16.7011 7.80102 16.6462 7.7522C16.533 7.65455 16.3985 7.56413 16.257 7.50084C16.1155 7.44116 15.9721 7.40499 15.8253 7.4068H15.8023L15.751 7.40861C15.705 7.40861 15.7138 7.41223 15.6997 7.41404C15.6873 7.41223 15.6377 7.42489 15.6041 7.43031C15.5334 7.4484 15.459 7.4701 15.3883 7.50084C15.2467 7.56413 14.4877 7.59849 14.4382 7.62923L14.3568 18.7054C13.5553 18.9531 12.6777 19.369 12.6777 19.8338C12.6777 20.5915 14.0631 21.2081 15.7722 21.2081C17.4814 21.2081 18.8667 20.5951 18.8667 19.8374C18.8667 19.7614 18.849 19.6891 18.8225 19.6168C19.371 19.4251 19.7231 19.1303 19.7231 18.7976Z" fill="#29B6F6"/>
<path d="M15.2361 18.0508C15.252 18.6385 14.9052 19.1702 14.3709 19.389C13.7216 19.6548 13.1023 20.0291 14.0294 20.2534C14.0294 20.2534 14.7283 20.6042 15.0839 20.4216C15.2432 20.3402 15.1883 20.2064 15.0786 20.0852C14.9583 19.9532 15.0185 19.7398 15.1901 19.7L15.3423 19.6657C15.728 19.5789 15.9987 19.2226 15.9881 18.8194L15.7032 6.95117L15.1211 6.90234L15.2361 18.0508Z" fill="#81D4FA"/>
<path d="M8.24737 18.7057L8.16776 7.65127C8.08106 7.61149 7.93244 8.1341 7.91121 8.10698C7.90059 8.09432 7.88821 8.07804 7.87405 8.05815C7.85813 8.03826 7.8422 8.01656 7.82805 8.00571C7.79797 7.97497 7.76082 7.93699 7.71835 7.89359C7.67412 7.84838 7.62104 7.79956 7.56619 7.75073C7.45296 7.65308 7.31849 7.56266 7.17695 7.49937C7.0354 7.4397 6.89209 7.40353 6.74524 7.40534H6.72224L6.67093 7.40715C6.62493 7.40715 6.63377 7.41076 6.61962 7.41257C6.60723 7.41076 6.55769 7.42342 6.52408 7.42885C6.4533 7.44693 6.37899 7.46863 6.30822 7.49937C6.16668 7.56266 6.03221 7.65308 5.91898 7.75073C5.80751 7.84838 5.71374 7.94423 5.65004 8.01656C5.58635 8.0907 5.54919 8.13229 5.54919 8.13229L5.49611 8.19378C5.49081 8.1992 5.4855 8.20282 5.48019 8.20824L5.09802 17.7509C3.86305 17.7798 2.88286 18.2373 2.88286 18.7925C2.88286 19.1252 3.23495 19.4236 3.78166 19.6135C3.75512 19.6858 3.73743 19.76 3.73743 19.8359C3.73743 20.5936 5.12279 21.2085 6.83194 21.2085C8.54108 21.2085 9.92644 20.59 9.92644 19.8323C9.92644 19.3676 9.0471 18.9534 8.24737 18.7057Z" fill="#29B6F6"/>
<path d="M6.18967 7.61119L5.88005 17.6041C5.8712 17.8953 5.63234 18.1231 5.34926 18.1105C4.98124 18.0942 4.47699 18.1376 4.06297 18.3998C3.84004 18.5408 3.74804 18.9007 3.95151 19.1014C4.17444 19.3202 4.75831 19.1304 5.05024 19.0996C5.17763 19.087 5.34572 19.0996 5.37933 19.2262C5.3988 19.2985 5.35633 19.3763 5.29795 19.4197C5.23956 19.4649 5.16702 19.483 5.09625 19.5047C4.97947 19.539 4.8627 19.5806 4.77069 19.662C4.68046 19.7434 4.62207 19.8736 4.65392 19.9929C4.69638 20.1467 4.8627 20.2208 5.00955 20.2732C5.26787 20.3691 5.53149 20.4649 5.80574 20.4776C5.82166 20.2787 5.51911 20.1412 5.57926 19.9514C5.6005 19.8844 5.66242 19.841 5.72435 19.8103C5.89066 19.7307 6.07998 19.7145 6.25868 19.6711C6.55238 19.6005 7.08317 19.4486 6.94516 19.0363C6.89916 18.9007 6.80539 18.7904 6.72577 18.671C6.42676 18.219 6.36837 17.8211 6.42145 17.2786C6.46391 16.8555 6.57007 10.1591 6.64084 7.40504C6.65854 6.74499 6.44799 7.35259 6.23744 7.36887C6.21975 7.39238 6.20737 7.58949 6.18967 7.61119Z" fill="#81D4FA"/>
<path d="M8.55169 8.56783L8.51631 8.53166C8.49861 8.51358 8.44553 8.45933 8.42784 8.44125C8.39246 8.40508 8.35707 8.387 8.30399 8.33274C8.25091 8.29658 8.19783 8.24233 8.12706 8.20616C8.05629 8.16999 7.98552 8.11574 7.91474 8.07958C7.84397 8.04341 7.75551 8.00724 7.66704 7.97108C7.57858 7.93491 7.49011 7.91682 7.40165 7.89874C7.31318 7.88066 7.22472 7.88066 7.11856 7.88066H7.08317H7.03009C6.97702 7.88066 6.97702 7.88066 6.95932 7.88066C6.92394 7.88066 6.87086 7.89874 6.83547 7.89874C6.74701 7.91682 6.65854 7.93491 6.57008 7.97108C6.48161 8.00724 6.39315 8.02533 6.32237 8.07958C6.2516 8.11574 6.18083 8.15191 6.11006 8.20616C5.98621 8.29658 5.88005 8.38699 5.80928 8.44125C5.73851 8.51358 5.70312 8.54975 5.70312 8.54975L5.66773 8.58591C5.45542 8.80291 5.10156 8.80291 4.85386 8.62208C4.67693 8.47741 4.62385 8.22424 4.71231 8.04341L4.73001 7.98916C4.7477 7.95299 4.76539 7.89874 4.80078 7.84449C4.87155 7.71791 4.9954 7.53707 5.19002 7.33815C5.27849 7.24774 5.40234 7.13924 5.52619 7.04882C5.65004 6.9584 5.80928 6.86798 5.96852 6.79565C6.12775 6.72332 6.32237 6.65098 6.4993 6.61481C6.58777 6.59673 6.69393 6.57865 6.80009 6.56056C6.85316 6.56056 6.92394 6.54248 6.94163 6.54248H7.08317C7.2778 6.54248 7.47242 6.56056 7.66704 6.59673C7.86167 6.6329 8.0386 6.70523 8.19783 6.77757C8.35707 6.8499 8.51631 6.94032 8.64016 7.03073C8.7817 7.12115 8.88786 7.21157 8.97632 7.32007C9.06479 7.41049 9.15325 7.5009 9.20633 7.59132C9.24172 7.62749 9.25941 7.68174 9.2948 7.71791C9.31249 7.75407 9.34788 7.79024 9.36557 7.82641C9.41865 7.89874 9.41865 7.93491 9.43634 7.97108C9.45403 8.00724 9.45404 8.00724 9.45404 8.00724C9.57789 8.27849 9.43634 8.58591 9.13556 8.69441C8.97632 8.78483 8.71093 8.73058 8.55169 8.56783Z" fill="#422B0D"/>
<path d="M16.8515 8.50287C16.8515 8.50287 16.8391 8.49021 16.8161 8.4667C16.7966 8.44681 16.7524 8.39618 16.7259 8.37629C16.6922 8.34735 16.6516 8.31299 16.6038 8.27321C16.5525 8.23343 16.4941 8.19003 16.4304 8.14482C16.3649 8.10323 16.2942 8.05983 16.2181 8.02185C16.1438 7.98026 16.0588 7.95133 15.9739 7.91877C15.889 7.88803 15.7988 7.87176 15.7085 7.85187C15.6183 7.8374 15.5245 7.83017 15.4307 7.83017H15.4555H15.4537H15.4502H15.4431H15.429H15.4007L15.3458 7.83197C15.2998 7.83197 15.2927 7.83559 15.275 7.8374C15.2467 7.8374 15.1954 7.84644 15.1512 7.85367C15.061 7.87357 14.9707 7.88984 14.8858 7.92058C14.8026 7.95313 14.7177 7.98207 14.6434 8.02366C14.5673 8.06344 14.4965 8.10503 14.4311 8.14663C14.3037 8.23343 14.1993 8.32023 14.1303 8.38533C14.0595 8.45043 14.0188 8.49021 14.0188 8.49021L13.9746 8.53542C13.7605 8.747 13.3996 8.75966 13.166 8.56616C12.982 8.41245 12.936 8.17556 13.028 7.97845C13.028 7.97845 13.0369 7.96037 13.0546 7.9242C13.0723 7.88984 13.0935 7.83559 13.1324 7.7723C13.205 7.64391 13.3253 7.46307 13.5164 7.27319C13.6119 7.17916 13.7234 7.0797 13.8561 6.98928C13.9852 6.89525 14.1356 6.81026 14.3019 6.73612C14.4682 6.66378 14.6487 6.60049 14.8398 6.56071C14.9371 6.54262 15.0273 6.52454 15.1459 6.51369C15.2007 6.50826 15.2662 6.50284 15.2945 6.50103L15.4307 6.49561C15.6307 6.49922 15.8288 6.52092 16.0217 6.5589C16.2128 6.59868 16.3932 6.66197 16.5595 6.73431C16.7241 6.80845 16.8763 6.89344 17.0054 6.98748C17.1381 7.07789 17.2478 7.17554 17.3433 7.27139C17.4389 7.36542 17.515 7.45945 17.5787 7.54445C17.6087 7.58785 17.6371 7.62763 17.6636 7.66561C17.6884 7.7072 17.7131 7.74517 17.7326 7.77953C17.7804 7.85548 17.7839 7.88442 17.8016 7.91877C17.814 7.94771 17.8211 7.96398 17.8211 7.96398C17.9396 8.23343 17.7963 8.53904 17.5008 8.64754C17.269 8.73253 17.009 8.66743 16.8515 8.50287Z" fill="#422B0D"/>
<defs>
<radialGradient id="paint0_radial_1049_351" cx="0" cy="0" r="1" gradientUnits="userSpaceOnUse" gradientTransform="translate(11.2056 10.0999) scale(10.0779 10.3003)">
<stop offset="0.5" stop-color="#FDE030"/>
<stop offset="0.9188" stop-color="#F7C02B"/>
<stop offset="1" stop-color="#F4A223"/>
</radialGradient>
<radialGradient id="paint1_radial_1049_351" cx="0" cy="0" r="1" gradientUnits="userSpaceOnUse" gradientTransform="translate(11.2056 10.0999) scale(10.0779 10.3003)">
<stop offset="0.5" stop-color="#FDE030"/>
<stop offset="0.9188" stop-color="#F7C02B"/>
<stop offset="1" stop-color="#F4A223"/>
</radialGradient>
</defs>
</svg>
