<svg width="25" height="22" viewBox="0 0 25 22" fill="none" xmlns="http://www.w3.org/2000/svg">
<path d="M3.90625 5.1875H22.5195C23.6386 5.1875 24.5 6.04121 24.5 7.03125V19.5312C24.5 20.5213 23.6386 21.375 22.5195 21.375H3.125C1.67507 21.375 0.5 20.1999 0.5 18.75V3.125C0.5 1.67507 1.67507 0.5 3.125 0.5H21.0938C22.112 0.5 22.9375 1.32546 22.9375 2.34375C22.9375 2.49925 22.8117 2.625 22.6562 2.625H3.90625C3.19847 2.625 2.625 3.19847 2.625 3.90625C2.625 4.61403 3.19847 5.1875 3.90625 5.1875ZM18.25 13.2812C18.25 14.4202 19.1736 15.3438 20.3125 15.3438C21.4514 15.3438 22.375 14.4202 22.375 13.2812C22.375 12.1423 21.4514 11.2188 20.3125 11.2188C19.1736 11.2188 18.25 12.1423 18.25 13.2812Z" fill="white" stroke="#A38E23"/>
</svg>
